  0
SECTION
  2
HEADER
  9
$ACADVER
  1
AC1009
  9
$FILLMODE
 70
1
  9
$EXTMIN
 10
-1.4300
 20
-0.2032
 30
0.0000
  9
$EXTMAX
 10
331.3333
 20
200.2032
 30
0.0000
  0
ENDSEC
  0
SECTION
  2
TABLES
  0
TABLE
  2
LTYPE
 70
1
  0
LTYPE
  2
CONTINUOUS
 70
64
  3
Solid line
 72
65
 73
0
 40
0
  0
ENDTAB
  0
TABLE
  2
LAYER
 70
255
  0
LAYER
  2
1
 70
64
 62
22
  6
CONTINUOUS
  0
LAYER
  2
16
 70
64
 62
175
  6
CONTINUOUS
  0
LAYER
  2
17
 70
64
 62
82
  6
CONTINUOUS
  0
LAYER
  2
18
 70
64
 62
82
  6
CONTINUOUS
  0
LAYER
  2
19
 70
64
 62
53
  6
CONTINUOUS
  0
LAYER
  2
20
 70
64
 62
7
  6
CONTINUOUS
  0
ENDTAB
  0
ENDSEC
  0
SECTION
  2
BLOCKS
  0
BLOCK
  8
0
  2
RECT
 70
64
 10
0.0000
 20
0.0000
 30
0.0000
  3
RECT
  0
SOLID
  8
0
 10
-0.5000
 20
-0.5000
 30
0.0000
 11
0.5000
 21
-0.5000
 31
0.0000
 12
-0.5000
 22
0.5000
 32
0.0000
 13
0.5000
 23
0.5000
 33
0.0000
  0
ENDBLK
  8
0
  0
BLOCK
  8
0
  2
PIE
 70
64
 10
0.0000
 20
0.0000
 30
0.0000
  3
PIE
  0
POLYLINE
  8
0
 66
1
 10
0.0000
 20
0.0000
 30
0.0000
 40
0.5000
 41
0.5000
 70
0
  0
VERTEX
  8
0
 10
0.0000
 20
-0.2500
 30
0.0000
 42
1.0000
  0
VERTEX
  8
0
 10
0.0000
 20
0.2500
 30
0.0000
 42
1.0000
  0
VERTEX
  8
0
 10
0.0000
 20
-0.2500
 30
0.0000
  0
SEQEND
  8
0
  0
ENDBLK
  8
0
  0
BLOCK
  8
0
  2
OCTAGONP
 70
64
 10
0.0000
 20
0.0000
 30
0.0000
  3
OCTAGONP
  0
POLYLINE
  8
0
 66
1
 10
0.0000
 20
0.0000
 30
0.0000
 40
0.5000
 41
0.5000
 70
0
  0
VERTEX
  8
0
 10
-0.2500
 20
-0.1036
 30
0.0000
  0
VERTEX
  8
0
 10
-0.2500
 20
0.1036
 30
0.0000
  0
VERTEX
  8
0
 10
-0.1036
 20
0.2500
 30
0.0000
  0
VERTEX
  8
0
 10
0.1036
 20
0.2500
 30
0.0000
  0
VERTEX
  8
0
 10
0.2500
 20
0.1036
 30
0.0000
  0
VERTEX
  8
0
 10
0.2500
 20
-0.1036
 30
0.0000
  0
VERTEX
  8
0
 10
0.1036
 20
-0.2500
 30
0.0000
  0
VERTEX
  8
0
 10
-0.1036
 20
-0.2500
 30
0.0000
  0
VERTEX
  8
0
 10
-0.2500
 20
-0.1036
 30
0.0000
  0
VERTEX
  8
0
 10
-0.2500
 20
0.1036
 30
0.0000
  0
SEQEND
  8
0
  0
ENDBLK
  8
0
  0
BLOCK
  8
0
  2
SQUAREP
 70
64
 10
0.0000
 20
0.0000
 30
0.0000
  3
SQUAREP
  0
SOLID
  8
0
 10
-0.5000
 20
-0.5000
 30
0.0000
 11
0.5000
 21
-0.5000
 31
0.0000
 12
-0.5000
 22
0.5000
 32
0.0000
 13
0.5000
 23
0.5000
 33
0.0000
  0
ENDBLK
  8
0
  0
BLOCK
  8
0
  2
ROUNDP
 70
64
 10
0.0000
 20
0.0000
 30
0.0000
  3
ROUNDP
  0
POLYLINE
  8
0
 66
1
 10
0.0000
 20
0.0000
 30
0.0000
 40
0.5000
 41
0.5000
 70
0
  0
VERTEX
  8
0
 10
0.0000
 20
-0.2500
 30
0.0000
 42
1.0000
  0
VERTEX
  8
0
 10
0.0000
 20
0.2500
 30
0.0000
 42
1.0000
  0
VERTEX
  8
0
 10
0.0000
 20
-0.2500
 30
0.0000
  0
SEQEND
  8
0
  0
ENDBLK
  8
0
  0
BLOCK
  8
0
  2
ANNULUSP
 70
64
 10
0.0000
 20
0.0000
 30
0.0000
  3
ANNULUSP
  0
POLYLINE
  8
0
 66
1
 10
0.0000
 20
0.0000
 30
0.0000
 40
0.5000
 41
0.5000
 70
0
  0
VERTEX
  8
0
 10
0.0000
 20
-0.2500
 30
0.0000
 42
1.0000
  0
VERTEX
  8
0
 10
0.0000
 20
0.2500
 30
0.0000
 42
1.0000
  0
VERTEX
  8
0
 10
0.0000
 20
-0.2500
 30
0.0000
  0
SEQEND
  8
0
  0
ENDBLK
  8
0
  0
BLOCK
  8
0
  2
THERMALP
 70
64
 10
0.0000
 20
0.0000
 30
0.0000
  3
THERMALP
  0
POLYLINE
  8
0
 66
1
 10
0.0000
 20
0.0000
 30
0.0000
 40
0.1000
 41
0.1000
 70
0
  0
VERTEX
  8
0
 10
-0.2379
 20
0.4500
 30
0.0000
  0
VERTEX
  8
0
 10
0.2379
 20
0.4500
 30
0.0000
  0
SEQEND
  8
0
  0
POLYLINE
  8
0
 66
1
 10
0.0000
 20
0.0000
 30
0.0000
 40
0.0500
 41
0.0500
 70
0
  0
VERTEX
  8
0
 10
0.2379
 20
0.4250
 30
0.0000
 42
1.0000
  0
VERTEX
  8
0
 10
0.2379
 20
0.4750
 30
0.0000
  0
SEQEND
  8
0
  0
POLYLINE
  8
0
 66
1
 10
0.0000
 20
0.0000
 30
0.0000
 40
0.0500
 41
0.0500
 70
0
  0
VERTEX
  8
0
 10
-0.2379
 20
0.4750
 30
0.0000
 42
1.0000
  0
VERTEX
  8
0
 10
-0.2379
 20
0.4250
 30
0.0000
  0
SEQEND
  8
0
  0
POLYLINE
  8
0
 66
1
 10
0.0000
 20
0.0000
 30
0.0000
 40
0.1000
 41
0.1000
 70
0
  0
VERTEX
  8
0
 10
0.4500
 20
0.2379
 30
0.0000
  0
VERTEX
  8
0
 10
0.4500
 20
-0.2379
 30
0.0000
  0
SEQEND
  8
0
  0
POLYLINE
  8
0
 66
1
 10
0.0000
 20
0.0000
 30
0.0000
 40
0.0500
 41
0.0500
 70
0
  0
VERTEX
  8
0
 10
0.4250
 20
-0.2379
 30
0.0000
 42
1.0000
  0
VERTEX
  8
0
 10
0.4750
 20
-0.2379
 30
0.0000
  0
SEQEND
  8
0
  0
POLYLINE
  8
0
 66
1
 10
0.0000
 20
0.0000
 30
0.0000
 40
0.0500
 41
0.0500
 70
0
  0
VERTEX
  8
0
 10
0.4750
 20
0.2379
 30
0.0000
 42
1.0000
  0
VERTEX
  8
0
 10
0.4250
 20
0.2379
 30
0.0000
  0
SEQEND
  8
0
  0
POLYLINE
  8
0
 66
1
 10
0.0000
 20
0.0000
 30
0.0000
 40
0.1000
 41
0.1000
 70
0
  0
VERTEX
  8
0
 10
0.2379
 20
-0.4500
 30
0.0000
  0
VERTEX
  8
0
 10
-0.2379
 20
-0.4500
 30
0.0000
  0
SEQEND
  8
0
  0
POLYLINE
  8
0
 66
1
 10
0.0000
 20
0.0000
 30
0.0000
 40
0.0500
 41
0.0500
 70
0
  0
VERTEX
  8
0
 10
-0.2379
 20
-0.4250
 30
0.0000
 42
1.0000
  0
VERTEX
  8
0
 10
-0.2379
 20
-0.4750
 30
0.0000
  0
SEQEND
  8
0
  0
POLYLINE
  8
0
 66
1
 10
0.0000
 20
0.0000
 30
0.0000
 40
0.0500
 41
0.0500
 70
0
  0
VERTEX
  8
0
 10
0.2379
 20
-0.4750
 30
0.0000
 42
1.0000
  0
VERTEX
  8
0
 10
0.2379
 20
-0.4250
 30
0.0000
  0
SEQEND
  8
0
  0
POLYLINE
  8
0
 66
1
 10
0.0000
 20
0.0000
 30
0.0000
 40
0.1000
 41
0.1000
 70
0
  0
VERTEX
  8
0
 10
-0.4500
 20
-0.2379
 30
0.0000
  0
VERTEX
  8
0
 10
-0.4500
 20
0.2379
 30
0.0000
  0
SEQEND
  8
0
  0
POLYLINE
  8
0
 66
1
 10
0.0000
 20
0.0000
 30
0.0000
 40
0.0500
 41
0.0500
 70
0
  0
VERTEX
  8
0
 10
-0.4250
 20
0.2379
 30
0.0000
 42
1.0000
  0
VERTEX
  8
0
 10
-0.4750
 20
0.2379
 30
0.0000
  0
SEQEND
  8
0
  0
POLYLINE
  8
0
 66
1
 10
0.0000
 20
0.0000
 30
0.0000
 40
0.0500
 41
0.0500
 70
0
  0
VERTEX
  8
0
 10
-0.4750
 20
-0.2379
 30
0.0000
 42
1.0000
  0
VERTEX
  8
0
 10
-0.4250
 20
-0.2379
 30
0.0000
  0
SEQEND
  8
0
  0
ENDBLK
  8
0
  0
BLOCK
  8
0
  2
OCTAGONV
 70
64
 10
0.0000
 20
0.0000
 30
0.0000
  3
OCTAGONV
  0
POLYLINE
  8
0
 66
1
 10
0.0000
 20
0.0000
 30
0.0000
 40
0.5000
 41
0.5000
 70
0
  0
VERTEX
  8
0
 10
-0.2500
 20
-0.1036
 30
0.0000
  0
VERTEX
  8
0
 10
-0.2500
 20
0.1036
 30
0.0000
  0
VERTEX
  8
0
 10
-0.1036
 20
0.2500
 30
0.0000
  0
VERTEX
  8
0
 10
0.1036
 20
0.2500
 30
0.0000
  0
VERTEX
  8
0
 10
0.2500
 20
0.1036
 30
0.0000
  0
VERTEX
  8
0
 10
0.2500
 20
-0.1036
 30
0.0000
  0
VERTEX
  8
0
 10
0.1036
 20
-0.2500
 30
0.0000
  0
VERTEX
  8
0
 10
-0.1036
 20
-0.2500
 30
0.0000
  0
VERTEX
  8
0
 10
-0.2500
 20
-0.1036
 30
0.0000
  0
VERTEX
  8
0
 10
-0.2500
 20
0.1036
 30
0.0000
  0
SEQEND
  8
0
  0
ENDBLK
  8
0
  0
BLOCK
  8
0
  2
SQUAREV
 70
64
 10
0.0000
 20
0.0000
 30
0.0000
  3
SQUAREV
  0
SOLID
  8
0
 10
-0.5000
 20
-0.5000
 30
0.0000
 11
0.5000
 21
-0.5000
 31
0.0000
 12
-0.5000
 22
0.5000
 32
0.0000
 13
0.5000
 23
0.5000
 33
0.0000
  0
ENDBLK
  8
0
  0
BLOCK
  8
0
  2
ROUNDV
 70
64
 10
0.0000
 20
0.0000
 30
0.0000
  3
ROUNDV
  0
POLYLINE
  8
0
 66
1
 10
0.0000
 20
0.0000
 30
0.0000
 40
0.5000
 41
0.5000
 70
0
  0
VERTEX
  8
0
 10
0.0000
 20
-0.2500
 30
0.0000
 42
1.0000
  0
VERTEX
  8
0
 10
0.0000
 20
0.2500
 30
0.0000
 42
1.0000
  0
VERTEX
  8
0
 10
0.0000
 20
-0.2500
 30
0.0000
  0
SEQEND
  8
0
  0
ENDBLK
  8
0
  0
BLOCK
  8
0
  2
ANNULUSV
 70
64
 10
0.0000
 20
0.0000
 30
0.0000
  3
ANNULUSV
  0
POLYLINE
  8
0
 66
1
 10
0.0000
 20
0.0000
 30
0.0000
 40
0.5000
 41
0.5000
 70
0
  0
VERTEX
  8
0
 10
0.0000
 20
-0.2500
 30
0.0000
 42
1.0000
  0
VERTEX
  8
0
 10
0.0000
 20
0.2500
 30
0.0000
 42
1.0000
  0
VERTEX
  8
0
 10
0.0000
 20
-0.2500
 30
0.0000
  0
SEQEND
  8
0
  0
ENDBLK
  8
0
  0
BLOCK
  8
0
  2
THERMALV
 70
64
 10
0.0000
 20
0.0000
 30
0.0000
  3
THERMALV
  0
POLYLINE
  8
0
 66
1
 10
0.0000
 20
0.0000
 30
0.0000
 40
0.1000
 41
0.1000
 70
0
  0
VERTEX
  8
0
 10
-0.2379
 20
0.4500
 30
0.0000
  0
VERTEX
  8
0
 10
0.2379
 20
0.4500
 30
0.0000
  0
SEQEND
  8
0
  0
POLYLINE
  8
0
 66
1
 10
0.0000
 20
0.0000
 30
0.0000
 40
0.0500
 41
0.0500
 70
0
  0
VERTEX
  8
0
 10
0.2379
 20
0.4250
 30
0.0000
 42
1.0000
  0
VERTEX
  8
0
 10
0.2379
 20
0.4750
 30
0.0000
  0
SEQEND
  8
0
  0
POLYLINE
  8
0
 66
1
 10
0.0000
 20
0.0000
 30
0.0000
 40
0.0500
 41
0.0500
 70
0
  0
VERTEX
  8
0
 10
-0.2379
 20
0.4750
 30
0.0000
 42
1.0000
  0
VERTEX
  8
0
 10
-0.2379
 20
0.4250
 30
0.0000
  0
SEQEND
  8
0
  0
POLYLINE
  8
0
 66
1
 10
0.0000
 20
0.0000
 30
0.0000
 40
0.1000
 41
0.1000
 70
0
  0
VERTEX
  8
0
 10
0.4500
 20
0.2379
 30
0.0000
  0
VERTEX
  8
0
 10
0.4500
 20
-0.2379
 30
0.0000
  0
SEQEND
  8
0
  0
POLYLINE
  8
0
 66
1
 10
0.0000
 20
0.0000
 30
0.0000
 40
0.0500
 41
0.0500
 70
0
  0
VERTEX
  8
0
 10
0.4250
 20
-0.2379
 30
0.0000
 42
1.0000
  0
VERTEX
  8
0
 10
0.4750
 20
-0.2379
 30
0.0000
  0
SEQEND
  8
0
  0
POLYLINE
  8
0
 66
1
 10
0.0000
 20
0.0000
 30
0.0000
 40
0.0500
 41
0.0500
 70
0
  0
VERTEX
  8
0
 10
0.4750
 20
0.2379
 30
0.0000
 42
1.0000
  0
VERTEX
  8
0
 10
0.4250
 20
0.2379
 30
0.0000
  0
SEQEND
  8
0
  0
POLYLINE
  8
0
 66
1
 10
0.0000
 20
0.0000
 30
0.0000
 40
0.1000
 41
0.1000
 70
0
  0
VERTEX
  8
0
 10
0.2379
 20
-0.4500
 30
0.0000
  0
VERTEX
  8
0
 10
-0.2379
 20
-0.4500
 30
0.0000
  0
SEQEND
  8
0
  0
POLYLINE
  8
0
 66
1
 10
0.0000
 20
0.0000
 30
0.0000
 40
0.0500
 41
0.0500
 70
0
  0
VERTEX
  8
0
 10
-0.2379
 20
-0.4250
 30
0.0000
 42
1.0000
  0
VERTEX
  8
0
 10
-0.2379
 20
-0.4750
 30
0.0000
  0
SEQEND
  8
0
  0
POLYLINE
  8
0
 66
1
 10
0.0000
 20
0.0000
 30
0.0000
 40
0.0500
 41
0.0500
 70
0
  0
VERTEX
  8
0
 10
0.2379
 20
-0.4750
 30
0.0000
 42
1.0000
  0
VERTEX
  8
0
 10
0.2379
 20
-0.4250
 30
0.0000
  0
SEQEND
  8
0
  0
POLYLINE
  8
0
 66
1
 10
0.0000
 20
0.0000
 30
0.0000
 40
0.1000
 41
0.1000
 70
0
  0
VERTEX
  8
0
 10
-0.4500
 20
-0.2379
 30
0.0000
  0
VERTEX
  8
0
 10
-0.4500
 20
0.2379
 30
0.0000
  0
SEQEND
  8
0
  0
POLYLINE
  8
0
 66
1
 10
0.0000
 20
0.0000
 30
0.0000
 40
0.0500
 41
0.0500
 70
0
  0
VERTEX
  8
0
 10
-0.4250
 20
0.2379
 30
0.0000
 42
1.0000
  0
VERTEX
  8
0
 10
-0.4750
 20
0.2379
 30
0.0000
  0
SEQEND
  8
0
  0
POLYLINE
  8
0
 66
1
 10
0.0000
 20
0.0000
 30
0.0000
 40
0.0500
 41
0.0500
 70
0
  0
VERTEX
  8
0
 10
-0.4750
 20
-0.2379
 30
0.0000
 42
1.0000
  0
VERTEX
  8
0
 10
-0.4250
 20
-0.2379
 30
0.0000
  0
SEQEND
  8
0
  0
ENDBLK
  8
0
  0
BLOCK
  8
0
  2
RECT5120000X5120000R100
 70
64
 10
0.0000
 20
0.0000
 30
0.0000
  3
RECT5120000X5120000R100
  0
POLYLINE
  8
0
 66
1
 10
0.0000
 20
0.0000
 30
0.0000
 40
16.0000
 41
16.0000
 70
1
  0
VERTEX
  8
0
 10
8.0000
 20
0.0000
 30
0.0000
  0
VERTEX
  8
0
 10
8.0000
 20
0.0000
 30
0.0000
 42
0.4142
  0
VERTEX
  8
0
 10
0.0000
 20
8.0000
 30
0.0000
  0
VERTEX
  8
0
 10
0.0000
 20
8.0000
 30
0.0000
 42
0.4142
  0
VERTEX
  8
0
 10
-8.0000
 20
0.0000
 30
0.0000
  0
VERTEX
  8
0
 10
-8.0000
 20
0.0000
 30
0.0000
 42
0.4142
  0
VERTEX
  8
0
 10
0.0000
 20
-8.0000
 30
0.0000
  0
VERTEX
  8
0
 10
0.0000
 20
-8.0000
 30
0.0000
 42
0.4142
  0
SEQEND
  8
0
  0
SOLID
  8
0
 10
-0.0254
 20
-0.0254
 30
0.0000
 11
0.0254
 21
-0.0254
 31
0.0000
 12
-0.0254
 22
0.0254
 32
0.0000
 13
0.0254
 23
0.0254
 33
0.0000
  0
ENDBLK
  8
0
  0
BLOCK
  8
0
  2
LONGP100
 70
64
 10
0.0000
 20
0.0000
 30
0.0000
  3
LONGP100
  0
POLYLINE
  8
0
 66
1
 10
0.0000
 20
0.0000
 30
0.0000
 40
1.0000
 41
1.0000
 70
0
  0
VERTEX
  8
0
 10
-0.5000
 20
0.0000
 30
0.0000
  0
VERTEX
  8
0
 10
0.5000
 20
0.0000
 30
0.0000
  0
SEQEND
  8
0
  0
POLYLINE
  8
0
 66
1
 10
0.0000
 20
0.0000
 30
0.0000
 40
0.5000
 41
0.5000
 70
0
  0
VERTEX
  8
0
 10
0.5000
 20
-0.2500
 30
0.0000
 42
1.0000
  0
VERTEX
  8
0
 10
0.5000
 20
0.2500
 30
0.0000
  0
SEQEND
  8
0
  0
POLYLINE
  8
0
 66
1
 10
0.0000
 20
0.0000
 30
0.0000
 40
0.5000
 41
0.5000
 70
0
  0
VERTEX
  8
0
 10
-0.5000
 20
0.2500
 30
0.0000
 42
1.0000
  0
VERTEX
  8
0
 10
-0.5000
 20
-0.2500
 30
0.0000
  0
SEQEND
  8
0
  0
ENDBLK
  8
0
  0
ENDSEC
  0
SECTION
  2
ENTITIES
  0
POLYLINE
  8
20
 66
1
 10
0.0000
 20
0.0000
 30
0.0000
 40
0.4064
 41
0.4064
 70
0
  0
VERTEX
  8
20
 10
297.0000
 20
200.0000
 30
0.0000
  0
VERTEX
  8
20
 10
297.0000
 20
0.0000
 30
0.0000
  0
SEQEND
  8
0
  0
POLYLINE
  8
20
 66
1
 10
0.0000
 20
0.0000
 30
0.0000
 40
0.2032
 41
0.2032
 70
0
  0
VERTEX
  8
20
 10
296.8984
 20
0.0000
 30
0.0000
 42
1.0000
  0
VERTEX
  8
20
 10
297.1016
 20
0.0000
 30
0.0000
  0
SEQEND
  8
0
  0
POLYLINE
  8
20
 66
1
 10
0.0000
 20
0.0000
 30
0.0000
 40
0.2032
 41
0.2032
 70
0
  0
VERTEX
  8
20
 10
297.1016
 20
200.0000
 30
0.0000
 42
1.0000
  0
VERTEX
  8
20
 10
296.8984
 20
200.0000
 30
0.0000
  0
SEQEND
  8
0
  0
POLYLINE
  8
20
 66
1
 10
0.0000
 20
0.0000
 30
0.0000
 40
0.4064
 41
0.4064
 70
0
  0
VERTEX
  8
20
 10
297.0000
 20
0.0000
 30
0.0000
  0
VERTEX
  8
20
 10
43.0000
 20
0.0000
 30
0.0000
  0
SEQEND
  8
0
  0
POLYLINE
  8
20
 66
1
 10
0.0000
 20
0.0000
 30
0.0000
 40
0.2032
 41
0.2032
 70
0
  0
VERTEX
  8
20
 10
43.0000
 20
0.1016
 30
0.0000
 42
1.0000
  0
VERTEX
  8
20
 10
43.0000
 20
-0.1016
 30
0.0000
  0
SEQEND
  8
0
  0
POLYLINE
  8
20
 66
1
 10
0.0000
 20
0.0000
 30
0.0000
 40
0.2032
 41
0.2032
 70
0
  0
VERTEX
  8
20
 10
297.0000
 20
-0.1016
 30
0.0000
 42
1.0000
  0
VERTEX
  8
20
 10
297.0000
 20
0.1016
 30
0.0000
  0
SEQEND
  8
0
  0
POLYLINE
  8
20
 66
1
 10
0.0000
 20
0.0000
 30
0.0000
 40
0.4064
 41
0.4064
 70
0
  0
VERTEX
  8
20
 10
0.0000
 20
28.0000
 30
0.0000
  0
VERTEX
  8
20
 10
0.0000
 20
200.0000
 30
0.0000
  0
SEQEND
  8
0
  0
POLYLINE
  8
20
 66
1
 10
0.0000
 20
0.0000
 30
0.0000
 40
0.2032
 41
0.2032
 70
0
  0
VERTEX
  8
20
 10
0.1016
 20
200.0000
 30
0.0000
 42
1.0000
  0
VERTEX
  8
20
 10
-0.1016
 20
200.0000
 30
0.0000
  0
SEQEND
  8
0
  0
POLYLINE
  8
20
 66
1
 10
0.0000
 20
0.0000
 30
0.0000
 40
0.2032
 41
0.2032
 70
0
  0
VERTEX
  8
20
 10
-0.1016
 20
28.0000
 30
0.0000
 42
1.0000
  0
VERTEX
  8
20
 10
0.1016
 20
28.0000
 30
0.0000
  0
SEQEND
  8
0
  0
POLYLINE
  8
20
 66
1
 10
0.0000
 20
0.0000
 30
0.0000
 40
0.4064
 41
0.4064
 70
0
  0
VERTEX
  8
20
 10
0.0000
 20
200.0000
 30
0.0000
  0
VERTEX
  8
20
 10
297.0000
 20
200.0000
 30
0.0000
  0
SEQEND
  8
0
  0
POLYLINE
  8
20
 66
1
 10
0.0000
 20
0.0000
 30
0.0000
 40
0.2032
 41
0.2032
 70
0
  0
VERTEX
  8
20
 10
297.0000
 20
199.8984
 30
0.0000
 42
1.0000
  0
VERTEX
  8
20
 10
297.0000
 20
200.1016
 30
0.0000
  0
SEQEND
  8
0
  0
POLYLINE
  8
20
 66
1
 10
0.0000
 20
0.0000
 30
0.0000
 40
0.2032
 41
0.2032
 70
0
  0
VERTEX
  8
20
 10
0.0000
 20
200.1016
 30
0.0000
 42
1.0000
  0
VERTEX
  8
20
 10
0.0000
 20
199.8984
 30
0.0000
  0
SEQEND
  8
0
  0
POLYLINE
  8
20
 66
1
 10
0.0000
 20
0.0000
 30
0.0000
 40
0.4064
 41
0.4064
 70
0
  0
VERTEX
  8
20
 10
43.0000
 20
28.0000
 30
0.0000
  0
VERTEX
  8
20
 10
0.0000
 20
28.0000
 30
0.0000
  0
SEQEND
  8
0
  0
POLYLINE
  8
20
 66
1
 10
0.0000
 20
0.0000
 30
0.0000
 40
0.2032
 41
0.2032
 70
0
  0
VERTEX
  8
20
 10
0.0000
 20
28.1016
 30
0.0000
 42
1.0000
  0
VERTEX
  8
20
 10
0.0000
 20
27.8984
 30
0.0000
  0
SEQEND
  8
0
  0
POLYLINE
  8
20
 66
1
 10
0.0000
 20
0.0000
 30
0.0000
 40
0.2032
 41
0.2032
 70
0
  0
VERTEX
  8
20
 10
43.0000
 20
27.8984
 30
0.0000
 42
1.0000
  0
VERTEX
  8
20
 10
43.0000
 20
28.1016
 30
0.0000
  0
SEQEND
  8
0
  0
POLYLINE
  8
20
 66
1
 10
0.0000
 20
0.0000
 30
0.0000
 40
0.4064
 41
0.4064
 70
0
  0
VERTEX
  8
20
 10
43.0000
 20
28.0000
 30
0.0000
  0
VERTEX
  8
20
 10
43.0000
 20
0.0000
 30
0.0000
  0
SEQEND
  8
0
  0
POLYLINE
  8
20
 66
1
 10
0.0000
 20
0.0000
 30
0.0000
 40
0.2032
 41
0.2032
 70
0
  0
VERTEX
  8
20
 10
42.8984
 20
0.0000
 30
0.0000
 42
1.0000
  0
VERTEX
  8
20
 10
43.1016
 20
0.0000
 30
0.0000
  0
SEQEND
  8
0
  0
POLYLINE
  8
20
 66
1
 10
0.0000
 20
0.0000
 30
0.0000
 40
0.2032
 41
0.2032
 70
0
  0
VERTEX
  8
20
 10
43.1016
 20
28.0000
 30
0.0000
 42
1.0000
  0
VERTEX
  8
20
 10
42.8984
 20
28.0000
 30
0.0000
  0
SEQEND
  8
0
  0
CIRCLE
  8
20
 10
293.0000
 20
4.0000
 30
0.0000
 40
1.5000
  0
CIRCLE
  8
20
 10
293.0000
 20
196.0000
 30
0.0000
 40
1.5000
  0
CIRCLE
  8
20
 10
3.0000
 20
196.0000
 30
0.0000
 40
1.5000
  0
CIRCLE
  8
20
 10
3.0000
 20
31.0000
 30
0.0000
 40
1.5000
  0
CIRCLE
  8
20
 10
47.0000
 20
4.0000
 30
0.0000
 40
1.5000
  0
CIRCLE
  8
20
 10
293.0000
 20
105.0000
 30
0.0000
 40
1.5000
  0
CIRCLE
  8
20
 10
3.0000
 20
105.0000
 30
0.0000
 40
1.5000
  0
CIRCLE
  8
20
 10
148.5000
 20
196.0000
 30
0.0000
 40
1.5000
  0
CIRCLE
  8
20
 10
148.5000
 20
4.0000
 30
0.0000
 40
1.5000
  0
CIRCLE
  8
20
 10
148.5000
 20
105.0000
 30
0.0000
 40
1.5000
  0
INSERT
  8
16
  2
PIE
 10
278.0000
 20
124.5000
 30
0.0000
 41
32.0000
 42
32.0000
 43
1.0000
 50
0.0000
  0
INSERT
  8
16
  2
PIE
 10
278.0000
 20
19.5000
 30
0.0000
 41
32.0000
 42
32.0000
 43
1.0000
 50
0.0000
  0
INSERT
  8
16
  2
PIE
 10
178.5000
 20
124.5000
 30
0.0000
 41
32.0000
 42
32.0000
 43
1.0000
 50
0.0000
  0
INSERT
  8
16
  2
PIE
 10
178.5000
 20
19.5000
 30
0.0000
 41
32.0000
 42
32.0000
 43
1.0000
 50
0.0000
  0
INSERT
  8
16
  2
PIE
 10
79.5000
 20
124.5000
 30
0.0000
 41
32.0000
 42
32.0000
 43
1.0000
 50
0.0000
  0
INSERT
  8
16
  2
PIE
 10
79.5000
 20
19.5000
 30
0.0000
 41
32.0000
 42
32.0000
 43
1.0000
 50
0.0000
  0
INSERT
  8
17
  2
LONGP100
 10
6.6500
 20
33.0000
 30
0.0000
 41
1.6160
 42
1.6160
 43
1.0000
 50
270.0000
  0
INSERT
  8
17
  2
LONGP100
 10
6.6500
 20
33.0000
 30
0.0000
 41
1.6160
 42
1.6160
 43
1.0000
 50
270.0000
  0
INSERT
  8
17
  2
LONGP100
 10
9.1900
 20
33.0000
 30
0.0000
 41
1.6160
 42
1.6160
 43
1.0000
 50
270.0000
  0
INSERT
  8
17
  2
LONGP100
 10
9.1900
 20
33.0000
 30
0.0000
 41
1.6160
 42
1.6160
 43
1.0000
 50
270.0000
  0
INSERT
  8
17
  2
LONGP100
 10
11.7300
 20
33.0000
 30
0.0000
 41
1.6160
 42
1.6160
 43
1.0000
 50
270.0000
  0
INSERT
  8
17
  2
LONGP100
 10
11.7300
 20
33.0000
 30
0.0000
 41
1.6160
 42
1.6160
 43
1.0000
 50
270.0000
  0
INSERT
  8
17
  2
LONGP100
 10
14.2700
 20
33.0000
 30
0.0000
 41
1.6160
 42
1.6160
 43
1.0000
 50
270.0000
  0
INSERT
  8
17
  2
LONGP100
 10
14.2700
 20
33.0000
 30
0.0000
 41
1.6160
 42
1.6160
 43
1.0000
 50
270.0000
  0
INSERT
  8
17
  2
LONGP100
 10
16.8100
 20
33.0000
 30
0.0000
 41
1.6160
 42
1.6160
 43
1.0000
 50
270.0000
  0
INSERT
  8
17
  2
LONGP100
 10
16.8100
 20
33.0000
 30
0.0000
 41
1.6160
 42
1.6160
 43
1.0000
 50
270.0000
  0
INSERT
  8
17
  2
LONGP100
 10
19.3500
 20
33.0000
 30
0.0000
 41
1.6160
 42
1.6160
 43
1.0000
 50
270.0000
  0
INSERT
  8
17
  2
LONGP100
 10
19.3500
 20
33.0000
 30
0.0000
 41
1.6160
 42
1.6160
 43
1.0000
 50
270.0000
  0
POLYLINE
  8
16
 66
1
 10
0.0000
 20
0.0000
 30
0.0000
 40
0.4064
 41
0.4064
 70
0
  0
VERTEX
  8
16
 10
278.0000
 20
124.5000
 30
0.0000
  0
VERTEX
  8
16
 10
278.0000
 20
93.0000
 30
0.0000
  0
SEQEND
  8
0
  0
POLYLINE
  8
16
 66
1
 10
0.0000
 20
0.0000
 30
0.0000
 40
0.2032
 41
0.2032
 70
0
  0
VERTEX
  8
16
 10
277.8984
 20
93.0000
 30
0.0000
 42
1.0000
  0
VERTEX
  8
16
 10
278.1016
 20
93.0000
 30
0.0000
  0
SEQEND
  8
0
  0
POLYLINE
  8
16
 66
1
 10
0.0000
 20
0.0000
 30
0.0000
 40
0.2032
 41
0.2032
 70
0
  0
VERTEX
  8
16
 10
278.1016
 20
124.5000
 30
0.0000
 42
1.0000
  0
VERTEX
  8
16
 10
277.8984
 20
124.5000
 30
0.0000
  0
SEQEND
  8
0
  0
POLYLINE
  8
16
 66
1
 10
0.0000
 20
0.0000
 30
0.0000
 40
0.4064
 41
0.4064
 70
0
  0
VERTEX
  8
16
 10
278.0000
 20
93.0000
 30
0.0000
  0
VERTEX
  8
16
 10
245.1000
 20
60.1000
 30
0.0000
  0
SEQEND
  8
0
  0
POLYLINE
  8
16
 66
1
 10
0.0000
 20
0.0000
 30
0.0000
 40
0.2032
 41
0.2032
 70
0
  0
VERTEX
  8
16
 10
245.0282
 20
60.1718
 30
0.0000
 42
1.0000
  0
VERTEX
  8
16
 10
245.1718
 20
60.0282
 30
0.0000
  0
SEQEND
  8
0
  0
POLYLINE
  8
16
 66
1
 10
0.0000
 20
0.0000
 30
0.0000
 40
0.2032
 41
0.2032
 70
0
  0
VERTEX
  8
16
 10
278.0718
 20
92.9282
 30
0.0000
 42
1.0000
  0
VERTEX
  8
16
 10
277.9282
 20
93.0718
 30
0.0000
  0
SEQEND
  8
0
  0
POLYLINE
  8
16
 66
1
 10
0.0000
 20
0.0000
 30
0.0000
 40
0.4064
 41
0.4064
 70
0
  0
VERTEX
  8
16
 10
245.1000
 20
60.1000
 30
0.0000
  0
VERTEX
  8
16
 10
26.9000
 20
60.1000
 30
0.0000
  0
SEQEND
  8
0
  0
POLYLINE
  8
16
 66
1
 10
0.0000
 20
0.0000
 30
0.0000
 40
0.2032
 41
0.2032
 70
0
  0
VERTEX
  8
16
 10
26.9000
 20
60.2016
 30
0.0000
 42
1.0000
  0
VERTEX
  8
16
 10
26.9000
 20
59.9984
 30
0.0000
  0
SEQEND
  8
0
  0
POLYLINE
  8
16
 66
1
 10
0.0000
 20
0.0000
 30
0.0000
 40
0.2032
 41
0.2032
 70
0
  0
VERTEX
  8
16
 10
245.1000
 20
59.9984
 30
0.0000
 42
1.0000
  0
VERTEX
  8
16
 10
245.1000
 20
60.2016
 30
0.0000
  0
SEQEND
  8
0
  0
POLYLINE
  8
16
 66
1
 10
0.0000
 20
0.0000
 30
0.0000
 40
0.4064
 41
0.4064
 70
0
  0
VERTEX
  8
16
 10
26.9000
 20
60.1000
 30
0.0000
  0
VERTEX
  8
16
 10
11.7200
 20
44.9200
 30
0.0000
  0
SEQEND
  8
0
  0
POLYLINE
  8
16
 66
1
 10
0.0000
 20
0.0000
 30
0.0000
 40
0.2032
 41
0.2032
 70
0
  0
VERTEX
  8
16
 10
11.6482
 20
44.9918
 30
0.0000
 42
1.0000
  0
VERTEX
  8
16
 10
11.7918
 20
44.8482
 30
0.0000
  0
SEQEND
  8
0
  0
POLYLINE
  8
16
 66
1
 10
0.0000
 20
0.0000
 30
0.0000
 40
0.2032
 41
0.2032
 70
0
  0
VERTEX
  8
16
 10
26.9718
 20
60.0282
 30
0.0000
 42
1.0000
  0
VERTEX
  8
16
 10
26.8282
 20
60.1718
 30
0.0000
  0
SEQEND
  8
0
  0
POLYLINE
  8
16
 66
1
 10
0.0000
 20
0.0000
 30
0.0000
 40
0.4064
 41
0.4064
 70
0
  0
VERTEX
  8
16
 10
11.7200
 20
44.9200
 30
0.0000
  0
VERTEX
  8
16
 10
11.7200
 20
32.9600
 30
0.0000
  0
SEQEND
  8
0
  0
POLYLINE
  8
16
 66
1
 10
0.0000
 20
0.0000
 30
0.0000
 40
0.2032
 41
0.2032
 70
0
  0
VERTEX
  8
16
 10
11.6184
 20
32.9600
 30
0.0000
 42
1.0000
  0
VERTEX
  8
16
 10
11.8216
 20
32.9600
 30
0.0000
  0
SEQEND
  8
0
  0
POLYLINE
  8
16
 66
1
 10
0.0000
 20
0.0000
 30
0.0000
 40
0.2032
 41
0.2032
 70
0
  0
VERTEX
  8
16
 10
11.8216
 20
44.9200
 30
0.0000
 42
1.0000
  0
VERTEX
  8
16
 10
11.6184
 20
44.9200
 30
0.0000
  0
SEQEND
  8
0
  0
POLYLINE
  8
16
 66
1
 10
0.0000
 20
0.0000
 30
0.0000
 40
0.4064
 41
0.4064
 70
0
  0
VERTEX
  8
16
 10
178.3000
 20
124.4000
 30
0.0000
  0
VERTEX
  8
16
 10
178.3000
 20
90.5000
 30
0.0000
  0
SEQEND
  8
0
  0
POLYLINE
  8
16
 66
1
 10
0.0000
 20
0.0000
 30
0.0000
 40
0.2032
 41
0.2032
 70
0
  0
VERTEX
  8
16
 10
178.1984
 20
90.5000
 30
0.0000
 42
1.0000
  0
VERTEX
  8
16
 10
178.4016
 20
90.5000
 30
0.0000
  0
SEQEND
  8
0
  0
POLYLINE
  8
16
 66
1
 10
0.0000
 20
0.0000
 30
0.0000
 40
0.2032
 41
0.2032
 70
0
  0
VERTEX
  8
16
 10
178.4016
 20
124.4000
 30
0.0000
 42
1.0000
  0
VERTEX
  8
16
 10
178.1984
 20
124.4000
 30
0.0000
  0
SEQEND
  8
0
  0
POLYLINE
  8
16
 66
1
 10
0.0000
 20
0.0000
 30
0.0000
 40
0.4064
 41
0.4064
 70
0
  0
VERTEX
  8
16
 10
178.3000
 20
90.5000
 30
0.0000
  0
VERTEX
  8
16
 10
168.3000
 20
80.5000
 30
0.0000
  0
SEQEND
  8
0
  0
POLYLINE
  8
16
 66
1
 10
0.0000
 20
0.0000
 30
0.0000
 40
0.2032
 41
0.2032
 70
0
  0
VERTEX
  8
16
 10
168.2282
 20
80.5718
 30
0.0000
 42
1.0000
  0
VERTEX
  8
16
 10
168.3718
 20
80.4282
 30
0.0000
  0
SEQEND
  8
0
  0
POLYLINE
  8
16
 66
1
 10
0.0000
 20
0.0000
 30
0.0000
 40
0.2032
 41
0.2032
 70
0
  0
VERTEX
  8
16
 10
178.3718
 20
90.4282
 30
0.0000
 42
1.0000
  0
VERTEX
  8
16
 10
178.2282
 20
90.5718
 30
0.0000
  0
SEQEND
  8
0
  0
POLYLINE
  8
16
 66
1
 10
0.0000
 20
0.0000
 30
0.0000
 40
0.4064
 41
0.4064
 70
0
  0
VERTEX
  8
16
 10
168.3000
 20
80.5000
 30
0.0000
  0
VERTEX
  8
16
 10
35.1000
 20
80.5000
 30
0.0000
  0
SEQEND
  8
0
  0
POLYLINE
  8
16
 66
1
 10
0.0000
 20
0.0000
 30
0.0000
 40
0.2032
 41
0.2032
 70
0
  0
VERTEX
  8
16
 10
35.1000
 20
80.6016
 30
0.0000
 42
1.0000
  0
VERTEX
  8
16
 10
35.1000
 20
80.3984
 30
0.0000
  0
SEQEND
  8
0
  0
POLYLINE
  8
16
 66
1
 10
0.0000
 20
0.0000
 30
0.0000
 40
0.2032
 41
0.2032
 70
0
  0
VERTEX
  8
16
 10
168.3000
 20
80.3984
 30
0.0000
 42
1.0000
  0
VERTEX
  8
16
 10
168.3000
 20
80.6016
 30
0.0000
  0
SEQEND
  8
0
  0
POLYLINE
  8
16
 66
1
 10
0.0000
 20
0.0000
 30
0.0000
 40
0.4064
 41
0.4064
 70
0
  0
VERTEX
  8
16
 10
35.1000
 20
80.5000
 30
0.0000
  0
VERTEX
  8
16
 10
33.7000
 20
79.1000
 30
0.0000
  0
SEQEND
  8
0
  0
POLYLINE
  8
16
 66
1
 10
0.0000
 20
0.0000
 30
0.0000
 40
0.2032
 41
0.2032
 70
0
  0
VERTEX
  8
16
 10
33.6282
 20
79.1718
 30
0.0000
 42
1.0000
  0
VERTEX
  8
16
 10
33.7718
 20
79.0282
 30
0.0000
  0
SEQEND
  8
0
  0
POLYLINE
  8
16
 66
1
 10
0.0000
 20
0.0000
 30
0.0000
 40
0.2032
 41
0.2032
 70
0
  0
VERTEX
  8
16
 10
35.1718
 20
80.4282
 30
0.0000
 42
1.0000
  0
VERTEX
  8
16
 10
35.0282
 20
80.5718
 30
0.0000
  0
SEQEND
  8
0
  0
POLYLINE
  8
16
 66
1
 10
0.0000
 20
0.0000
 30
0.0000
 40
0.4064
 41
0.4064
 70
0
  0
VERTEX
  8
16
 10
33.7000
 20
79.1000
 30
0.0000
  0
VERTEX
  8
16
 10
33.7000
 20
77.2000
 30
0.0000
  0
SEQEND
  8
0
  0
POLYLINE
  8
16
 66
1
 10
0.0000
 20
0.0000
 30
0.0000
 40
0.2032
 41
0.2032
 70
0
  0
VERTEX
  8
16
 10
33.5984
 20
77.2000
 30
0.0000
 42
1.0000
  0
VERTEX
  8
16
 10
33.8016
 20
77.2000
 30
0.0000
  0
SEQEND
  8
0
  0
POLYLINE
  8
16
 66
1
 10
0.0000
 20
0.0000
 30
0.0000
 40
0.2032
 41
0.2032
 70
0
  0
VERTEX
  8
16
 10
33.8016
 20
79.1000
 30
0.0000
 42
1.0000
  0
VERTEX
  8
16
 10
33.5984
 20
79.1000
 30
0.0000
  0
SEQEND
  8
0
  0
POLYLINE
  8
16
 66
1
 10
0.0000
 20
0.0000
 30
0.0000
 40
0.4064
 41
0.4064
 70
0
  0
VERTEX
  8
16
 10
33.7000
 20
77.2000
 30
0.0000
  0
VERTEX
  8
16
 10
35.0000
 20
75.9000
 30
0.0000
  0
SEQEND
  8
0
  0
POLYLINE
  8
16
 66
1
 10
0.0000
 20
0.0000
 30
0.0000
 40
0.2032
 41
0.2032
 70
0
  0
VERTEX
  8
16
 10
34.9282
 20
75.8282
 30
0.0000
 42
1.0000
  0
VERTEX
  8
16
 10
35.0718
 20
75.9718
 30
0.0000
  0
SEQEND
  8
0
  0
POLYLINE
  8
16
 66
1
 10
0.0000
 20
0.0000
 30
0.0000
 40
0.2032
 41
0.2032
 70
0
  0
VERTEX
  8
16
 10
33.7718
 20
77.2718
 30
0.0000
 42
1.0000
  0
VERTEX
  8
16
 10
33.6282
 20
77.1282
 30
0.0000
  0
SEQEND
  8
0
  0
POLYLINE
  8
16
 66
1
 10
0.0000
 20
0.0000
 30
0.0000
 40
0.4064
 41
0.4064
 70
0
  0
VERTEX
  8
16
 10
35.0000
 20
75.9000
 30
0.0000
  0
VERTEX
  8
16
 10
74.8000
 20
75.9000
 30
0.0000
  0
SEQEND
  8
0
  0
POLYLINE
  8
16
 66
1
 10
0.0000
 20
0.0000
 30
0.0000
 40
0.2032
 41
0.2032
 70
0
  0
VERTEX
  8
16
 10
74.8000
 20
75.7984
 30
0.0000
 42
1.0000
  0
VERTEX
  8
16
 10
74.8000
 20
76.0016
 30
0.0000
  0
SEQEND
  8
0
  0
POLYLINE
  8
16
 66
1
 10
0.0000
 20
0.0000
 30
0.0000
 40
0.2032
 41
0.2032
 70
0
  0
VERTEX
  8
16
 10
35.0000
 20
76.0016
 30
0.0000
 42
1.0000
  0
VERTEX
  8
16
 10
35.0000
 20
75.7984
 30
0.0000
  0
SEQEND
  8
0
  0
POLYLINE
  8
16
 66
1
 10
0.0000
 20
0.0000
 30
0.0000
 40
0.4064
 41
0.4064
 70
0
  0
VERTEX
  8
16
 10
74.8000
 20
75.9000
 30
0.0000
  0
VERTEX
  8
16
 10
76.1000
 20
74.6000
 30
0.0000
  0
SEQEND
  8
0
  0
POLYLINE
  8
16
 66
1
 10
0.0000
 20
0.0000
 30
0.0000
 40
0.2032
 41
0.2032
 70
0
  0
VERTEX
  8
16
 10
76.0282
 20
74.5282
 30
0.0000
 42
1.0000
  0
VERTEX
  8
16
 10
76.1718
 20
74.6718
 30
0.0000
  0
SEQEND
  8
0
  0
POLYLINE
  8
16
 66
1
 10
0.0000
 20
0.0000
 30
0.0000
 40
0.2032
 41
0.2032
 70
0
  0
VERTEX
  8
16
 10
74.8718
 20
75.9718
 30
0.0000
 42
1.0000
  0
VERTEX
  8
16
 10
74.7282
 20
75.8282
 30
0.0000
  0
SEQEND
  8
0
  0
POLYLINE
  8
16
 66
1
 10
0.0000
 20
0.0000
 30
0.0000
 40
0.4064
 41
0.4064
 70
0
  0
VERTEX
  8
16
 10
76.1000
 20
74.6000
 30
0.0000
  0
VERTEX
  8
16
 10
76.1000
 20
73.5000
 30
0.0000
  0
SEQEND
  8
0
  0
POLYLINE
  8
16
 66
1
 10
0.0000
 20
0.0000
 30
0.0000
 40
0.2032
 41
0.2032
 70
0
  0
VERTEX
  8
16
 10
75.9984
 20
73.5000
 30
0.0000
 42
1.0000
  0
VERTEX
  8
16
 10
76.2016
 20
73.5000
 30
0.0000
  0
SEQEND
  8
0
  0
POLYLINE
  8
16
 66
1
 10
0.0000
 20
0.0000
 30
0.0000
 40
0.2032
 41
0.2032
 70
0
  0
VERTEX
  8
16
 10
76.2016
 20
74.6000
 30
0.0000
 42
1.0000
  0
VERTEX
  8
16
 10
75.9984
 20
74.6000
 30
0.0000
  0
SEQEND
  8
0
  0
POLYLINE
  8
16
 66
1
 10
0.0000
 20
0.0000
 30
0.0000
 40
0.4064
 41
0.4064
 70
0
  0
VERTEX
  8
16
 10
9.2000
 20
59.9000
 30
0.0000
  0
VERTEX
  8
16
 10
9.2000
 20
33.0000
 30
0.0000
  0
SEQEND
  8
0
  0
POLYLINE
  8
16
 66
1
 10
0.0000
 20
0.0000
 30
0.0000
 40
0.2032
 41
0.2032
 70
0
  0
VERTEX
  8
16
 10
9.0984
 20
33.0000
 30
0.0000
 42
1.0000
  0
VERTEX
  8
16
 10
9.3016
 20
33.0000
 30
0.0000
  0
SEQEND
  8
0
  0
POLYLINE
  8
16
 66
1
 10
0.0000
 20
0.0000
 30
0.0000
 40
0.2032
 41
0.2032
 70
0
  0
VERTEX
  8
16
 10
9.3016
 20
59.9000
 30
0.0000
 42
1.0000
  0
VERTEX
  8
16
 10
9.0984
 20
59.9000
 30
0.0000
  0
SEQEND
  8
0
  0
POLYLINE
  8
16
 66
1
 10
0.0000
 20
0.0000
 30
0.0000
 40
0.4064
 41
0.4064
 70
0
  0
VERTEX
  8
16
 10
21.8000
 20
72.5000
 30
0.0000
  0
VERTEX
  8
16
 10
9.2000
 20
59.9000
 30
0.0000
  0
SEQEND
  8
0
  0
POLYLINE
  8
16
 66
1
 10
0.0000
 20
0.0000
 30
0.0000
 40
0.2032
 41
0.2032
 70
0
  0
VERTEX
  8
16
 10
9.1282
 20
59.9718
 30
0.0000
 42
1.0000
  0
VERTEX
  8
16
 10
9.2718
 20
59.8282
 30
0.0000
  0
SEQEND
  8
0
  0
POLYLINE
  8
16
 66
1
 10
0.0000
 20
0.0000
 30
0.0000
 40
0.2032
 41
0.2032
 70
0
  0
VERTEX
  8
16
 10
21.8718
 20
72.4282
 30
0.0000
 42
1.0000
  0
VERTEX
  8
16
 10
21.7282
 20
72.5718
 30
0.0000
  0
SEQEND
  8
0
  0
POLYLINE
  8
16
 66
1
 10
0.0000
 20
0.0000
 30
0.0000
 40
0.4064
 41
0.4064
 70
0
  0
VERTEX
  8
16
 10
75.1000
 20
72.5000
 30
0.0000
  0
VERTEX
  8
16
 10
21.8000
 20
72.5000
 30
0.0000
  0
SEQEND
  8
0
  0
POLYLINE
  8
16
 66
1
 10
0.0000
 20
0.0000
 30
0.0000
 40
0.2032
 41
0.2032
 70
0
  0
VERTEX
  8
16
 10
21.8000
 20
72.6016
 30
0.0000
 42
1.0000
  0
VERTEX
  8
16
 10
21.8000
 20
72.3984
 30
0.0000
  0
SEQEND
  8
0
  0
POLYLINE
  8
16
 66
1
 10
0.0000
 20
0.0000
 30
0.0000
 40
0.2032
 41
0.2032
 70
0
  0
VERTEX
  8
16
 10
75.1000
 20
72.3984
 30
0.0000
 42
1.0000
  0
VERTEX
  8
16
 10
75.1000
 20
72.6016
 30
0.0000
  0
SEQEND
  8
0
  0
POLYLINE
  8
16
 66
1
 10
0.0000
 20
0.0000
 30
0.0000
 40
0.4064
 41
0.4064
 70
0
  0
VERTEX
  8
16
 10
76.1000
 20
73.5000
 30
0.0000
  0
VERTEX
  8
16
 10
75.1000
 20
72.5000
 30
0.0000
  0
SEQEND
  8
0
  0
POLYLINE
  8
16
 66
1
 10
0.0000
 20
0.0000
 30
0.0000
 40
0.2032
 41
0.2032
 70
0
  0
VERTEX
  8
16
 10
75.0282
 20
72.5718
 30
0.0000
 42
1.0000
  0
VERTEX
  8
16
 10
75.1718
 20
72.4282
 30
0.0000
  0
SEQEND
  8
0
  0
POLYLINE
  8
16
 66
1
 10
0.0000
 20
0.0000
 30
0.0000
 40
0.2032
 41
0.2032
 70
0
  0
VERTEX
  8
16
 10
76.1718
 20
73.4282
 30
0.0000
 42
1.0000
  0
VERTEX
  8
16
 10
76.0282
 20
73.5718
 30
0.0000
  0
SEQEND
  8
0
  0
POLYLINE
  8
16
 66
1
 10
0.0000
 20
0.0000
 30
0.0000
 40
0.4064
 41
0.4064
 70
0
  0
VERTEX
  8
16
 10
79.4000
 20
124.4000
 30
0.0000
  0
VERTEX
  8
16
 10
79.4000
 20
104.5000
 30
0.0000
  0
SEQEND
  8
0
  0
POLYLINE
  8
16
 66
1
 10
0.0000
 20
0.0000
 30
0.0000
 40
0.2032
 41
0.2032
 70
0
  0
VERTEX
  8
16
 10
79.2984
 20
104.5000
 30
0.0000
 42
1.0000
  0
VERTEX
  8
16
 10
79.5016
 20
104.5000
 30
0.0000
  0
SEQEND
  8
0
  0
POLYLINE
  8
16
 66
1
 10
0.0000
 20
0.0000
 30
0.0000
 40
0.2032
 41
0.2032
 70
0
  0
VERTEX
  8
16
 10
79.5016
 20
124.4000
 30
0.0000
 42
1.0000
  0
VERTEX
  8
16
 10
79.2984
 20
124.4000
 30
0.0000
  0
SEQEND
  8
0
  0
POLYLINE
  8
16
 66
1
 10
0.0000
 20
0.0000
 30
0.0000
 40
0.4064
 41
0.4064
 70
0
  0
VERTEX
  8
16
 10
79.4000
 20
104.5000
 30
0.0000
  0
VERTEX
  8
16
 10
75.0000
 20
100.1000
 30
0.0000
  0
SEQEND
  8
0
  0
POLYLINE
  8
16
 66
1
 10
0.0000
 20
0.0000
 30
0.0000
 40
0.2032
 41
0.2032
 70
0
  0
VERTEX
  8
16
 10
74.9282
 20
100.1718
 30
0.0000
 42
1.0000
  0
VERTEX
  8
16
 10
75.0718
 20
100.0282
 30
0.0000
  0
SEQEND
  8
0
  0
POLYLINE
  8
16
 66
1
 10
0.0000
 20
0.0000
 30
0.0000
 40
0.2032
 41
0.2032
 70
0
  0
VERTEX
  8
16
 10
79.4718
 20
104.4282
 30
0.0000
 42
1.0000
  0
VERTEX
  8
16
 10
79.3282
 20
104.5718
 30
0.0000
  0
SEQEND
  8
0
  0
POLYLINE
  8
16
 66
1
 10
0.0000
 20
0.0000
 30
0.0000
 40
0.4064
 41
0.4064
 70
0
  0
VERTEX
  8
16
 10
75.0000
 20
100.1000
 30
0.0000
  0
VERTEX
  8
16
 10
16.1000
 20
100.1000
 30
0.0000
  0
SEQEND
  8
0
  0
POLYLINE
  8
16
 66
1
 10
0.0000
 20
0.0000
 30
0.0000
 40
0.2032
 41
0.2032
 70
0
  0
VERTEX
  8
16
 10
16.1000
 20
100.2016
 30
0.0000
 42
1.0000
  0
VERTEX
  8
16
 10
16.1000
 20
99.9984
 30
0.0000
  0
SEQEND
  8
0
  0
POLYLINE
  8
16
 66
1
 10
0.0000
 20
0.0000
 30
0.0000
 40
0.2032
 41
0.2032
 70
0
  0
VERTEX
  8
16
 10
75.0000
 20
99.9984
 30
0.0000
 42
1.0000
  0
VERTEX
  8
16
 10
75.0000
 20
100.2016
 30
0.0000
  0
SEQEND
  8
0
  0
POLYLINE
  8
16
 66
1
 10
0.0000
 20
0.0000
 30
0.0000
 40
0.4064
 41
0.4064
 70
0
  0
VERTEX
  8
16
 10
16.1000
 20
100.1000
 30
0.0000
  0
VERTEX
  8
16
 10
13.7000
 20
97.7000
 30
0.0000
  0
SEQEND
  8
0
  0
POLYLINE
  8
16
 66
1
 10
0.0000
 20
0.0000
 30
0.0000
 40
0.2032
 41
0.2032
 70
0
  0
VERTEX
  8
16
 10
13.6282
 20
97.7718
 30
0.0000
 42
1.0000
  0
VERTEX
  8
16
 10
13.7718
 20
97.6282
 30
0.0000
  0
SEQEND
  8
0
  0
POLYLINE
  8
16
 66
1
 10
0.0000
 20
0.0000
 30
0.0000
 40
0.2032
 41
0.2032
 70
0
  0
VERTEX
  8
16
 10
16.1718
 20
100.0282
 30
0.0000
 42
1.0000
  0
VERTEX
  8
16
 10
16.0282
 20
100.1718
 30
0.0000
  0
SEQEND
  8
0
  0
POLYLINE
  8
16
 66
1
 10
0.0000
 20
0.0000
 30
0.0000
 40
0.4064
 41
0.4064
 70
0
  0
VERTEX
  8
16
 10
13.7000
 20
97.7000
 30
0.0000
  0
VERTEX
  8
16
 10
13.7000
 20
95.0000
 30
0.0000
  0
SEQEND
  8
0
  0
POLYLINE
  8
16
 66
1
 10
0.0000
 20
0.0000
 30
0.0000
 40
0.2032
 41
0.2032
 70
0
  0
VERTEX
  8
16
 10
13.5984
 20
95.0000
 30
0.0000
 42
1.0000
  0
VERTEX
  8
16
 10
13.8016
 20
95.0000
 30
0.0000
  0
SEQEND
  8
0
  0
POLYLINE
  8
16
 66
1
 10
0.0000
 20
0.0000
 30
0.0000
 40
0.2032
 41
0.2032
 70
0
  0
VERTEX
  8
16
 10
13.8016
 20
97.7000
 30
0.0000
 42
1.0000
  0
VERTEX
  8
16
 10
13.5984
 20
97.7000
 30
0.0000
  0
SEQEND
  8
0
  0
POLYLINE
  8
16
 66
1
 10
0.0000
 20
0.0000
 30
0.0000
 40
0.4064
 41
0.4064
 70
0
  0
VERTEX
  8
16
 10
13.7000
 20
95.0000
 30
0.0000
  0
VERTEX
  8
16
 10
15.0000
 20
93.7000
 30
0.0000
  0
SEQEND
  8
0
  0
POLYLINE
  8
16
 66
1
 10
0.0000
 20
0.0000
 30
0.0000
 40
0.2032
 41
0.2032
 70
0
  0
VERTEX
  8
16
 10
14.9282
 20
93.6282
 30
0.0000
 42
1.0000
  0
VERTEX
  8
16
 10
15.0718
 20
93.7718
 30
0.0000
  0
SEQEND
  8
0
  0
POLYLINE
  8
16
 66
1
 10
0.0000
 20
0.0000
 30
0.0000
 40
0.2032
 41
0.2032
 70
0
  0
VERTEX
  8
16
 10
13.7718
 20
95.0718
 30
0.0000
 42
1.0000
  0
VERTEX
  8
16
 10
13.6282
 20
94.9282
 30
0.0000
  0
SEQEND
  8
0
  0
POLYLINE
  8
16
 66
1
 10
0.0000
 20
0.0000
 30
0.0000
 40
0.4064
 41
0.4064
 70
0
  0
VERTEX
  8
16
 10
15.0000
 20
93.7000
 30
0.0000
  0
VERTEX
  8
16
 10
74.3000
 20
93.7000
 30
0.0000
  0
SEQEND
  8
0
  0
POLYLINE
  8
16
 66
1
 10
0.0000
 20
0.0000
 30
0.0000
 40
0.2032
 41
0.2032
 70
0
  0
VERTEX
  8
16
 10
74.3000
 20
93.5984
 30
0.0000
 42
1.0000
  0
VERTEX
  8
16
 10
74.3000
 20
93.8016
 30
0.0000
  0
SEQEND
  8
0
  0
POLYLINE
  8
16
 66
1
 10
0.0000
 20
0.0000
 30
0.0000
 40
0.2032
 41
0.2032
 70
0
  0
VERTEX
  8
16
 10
15.0000
 20
93.8016
 30
0.0000
 42
1.0000
  0
VERTEX
  8
16
 10
15.0000
 20
93.5984
 30
0.0000
  0
SEQEND
  8
0
  0
POLYLINE
  8
16
 66
1
 10
0.0000
 20
0.0000
 30
0.0000
 40
0.4064
 41
0.4064
 70
0
  0
VERTEX
  8
16
 10
74.3000
 20
93.7000
 30
0.0000
  0
VERTEX
  8
16
 10
76.2000
 20
91.8000
 30
0.0000
  0
SEQEND
  8
0
  0
POLYLINE
  8
16
 66
1
 10
0.0000
 20
0.0000
 30
0.0000
 40
0.2032
 41
0.2032
 70
0
  0
VERTEX
  8
16
 10
76.1282
 20
91.7282
 30
0.0000
 42
1.0000
  0
VERTEX
  8
16
 10
76.2718
 20
91.8718
 30
0.0000
  0
SEQEND
  8
0
  0
POLYLINE
  8
16
 66
1
 10
0.0000
 20
0.0000
 30
0.0000
 40
0.2032
 41
0.2032
 70
0
  0
VERTEX
  8
16
 10
74.3718
 20
93.7718
 30
0.0000
 42
1.0000
  0
VERTEX
  8
16
 10
74.2282
 20
93.6282
 30
0.0000
  0
SEQEND
  8
0
  0
POLYLINE
  8
16
 66
1
 10
0.0000
 20
0.0000
 30
0.0000
 40
0.4064
 41
0.4064
 70
0
  0
VERTEX
  8
16
 10
76.2000
 20
91.8000
 30
0.0000
  0
VERTEX
  8
16
 10
76.2000
 20
89.2000
 30
0.0000
  0
SEQEND
  8
0
  0
POLYLINE
  8
16
 66
1
 10
0.0000
 20
0.0000
 30
0.0000
 40
0.2032
 41
0.2032
 70
0
  0
VERTEX
  8
16
 10
76.0984
 20
89.2000
 30
0.0000
 42
1.0000
  0
VERTEX
  8
16
 10
76.3016
 20
89.2000
 30
0.0000
  0
SEQEND
  8
0
  0
POLYLINE
  8
16
 66
1
 10
0.0000
 20
0.0000
 30
0.0000
 40
0.2032
 41
0.2032
 70
0
  0
VERTEX
  8
16
 10
76.3016
 20
91.8000
 30
0.0000
 42
1.0000
  0
VERTEX
  8
16
 10
76.0984
 20
91.8000
 30
0.0000
  0
SEQEND
  8
0
  0
POLYLINE
  8
16
 66
1
 10
0.0000
 20
0.0000
 30
0.0000
 40
0.4064
 41
0.4064
 70
0
  0
VERTEX
  8
16
 10
76.2000
 20
89.2000
 30
0.0000
  0
VERTEX
  8
16
 10
75.7000
 20
88.7000
 30
0.0000
  0
SEQEND
  8
0
  0
POLYLINE
  8
16
 66
1
 10
0.0000
 20
0.0000
 30
0.0000
 40
0.2032
 41
0.2032
 70
0
  0
VERTEX
  8
16
 10
75.6282
 20
88.7718
 30
0.0000
 42
1.0000
  0
VERTEX
  8
16
 10
75.7718
 20
88.6282
 30
0.0000
  0
SEQEND
  8
0
  0
POLYLINE
  8
16
 66
1
 10
0.0000
 20
0.0000
 30
0.0000
 40
0.2032
 41
0.2032
 70
0
  0
VERTEX
  8
16
 10
76.2718
 20
89.1282
 30
0.0000
 42
1.0000
  0
VERTEX
  8
16
 10
76.1282
 20
89.2718
 30
0.0000
  0
SEQEND
  8
0
  0
POLYLINE
  8
16
 66
1
 10
0.0000
 20
0.0000
 30
0.0000
 40
0.4064
 41
0.4064
 70
0
  0
VERTEX
  8
16
 10
75.7000
 20
88.7000
 30
0.0000
  0
VERTEX
  8
16
 10
15.0000
 20
88.7000
 30
0.0000
  0
SEQEND
  8
0
  0
POLYLINE
  8
16
 66
1
 10
0.0000
 20
0.0000
 30
0.0000
 40
0.2032
 41
0.2032
 70
0
  0
VERTEX
  8
16
 10
15.0000
 20
88.8016
 30
0.0000
 42
1.0000
  0
VERTEX
  8
16
 10
15.0000
 20
88.5984
 30
0.0000
  0
SEQEND
  8
0
  0
POLYLINE
  8
16
 66
1
 10
0.0000
 20
0.0000
 30
0.0000
 40
0.2032
 41
0.2032
 70
0
  0
VERTEX
  8
16
 10
75.7000
 20
88.5984
 30
0.0000
 42
1.0000
  0
VERTEX
  8
16
 10
75.7000
 20
88.8016
 30
0.0000
  0
SEQEND
  8
0
  0
POLYLINE
  8
16
 66
1
 10
0.0000
 20
0.0000
 30
0.0000
 40
0.4064
 41
0.4064
 70
0
  0
VERTEX
  8
16
 10
15.0000
 20
88.7000
 30
0.0000
  0
VERTEX
  8
16
 10
13.5000
 20
87.2000
 30
0.0000
  0
SEQEND
  8
0
  0
POLYLINE
  8
16
 66
1
 10
0.0000
 20
0.0000
 30
0.0000
 40
0.2032
 41
0.2032
 70
0
  0
VERTEX
  8
16
 10
13.4282
 20
87.2718
 30
0.0000
 42
1.0000
  0
VERTEX
  8
16
 10
13.5718
 20
87.1282
 30
0.0000
  0
SEQEND
  8
0
  0
POLYLINE
  8
16
 66
1
 10
0.0000
 20
0.0000
 30
0.0000
 40
0.2032
 41
0.2032
 70
0
  0
VERTEX
  8
16
 10
15.0718
 20
88.6282
 30
0.0000
 42
1.0000
  0
VERTEX
  8
16
 10
14.9282
 20
88.7718
 30
0.0000
  0
SEQEND
  8
0
  0
POLYLINE
  8
16
 66
1
 10
0.0000
 20
0.0000
 30
0.0000
 40
0.4064
 41
0.4064
 70
0
  0
VERTEX
  8
16
 10
13.5000
 20
87.2000
 30
0.0000
  0
VERTEX
  8
16
 10
13.5000
 20
85.2000
 30
0.0000
  0
SEQEND
  8
0
  0
POLYLINE
  8
16
 66
1
 10
0.0000
 20
0.0000
 30
0.0000
 40
0.2032
 41
0.2032
 70
0
  0
VERTEX
  8
16
 10
13.3984
 20
85.2000
 30
0.0000
 42
1.0000
  0
VERTEX
  8
16
 10
13.6016
 20
85.2000
 30
0.0000
  0
SEQEND
  8
0
  0
POLYLINE
  8
16
 66
1
 10
0.0000
 20
0.0000
 30
0.0000
 40
0.2032
 41
0.2032
 70
0
  0
VERTEX
  8
16
 10
13.6016
 20
87.2000
 30
0.0000
 42
1.0000
  0
VERTEX
  8
16
 10
13.3984
 20
87.2000
 30
0.0000
  0
SEQEND
  8
0
  0
POLYLINE
  8
16
 66
1
 10
0.0000
 20
0.0000
 30
0.0000
 40
0.4064
 41
0.4064
 70
0
  0
VERTEX
  8
16
 10
13.5000
 20
85.2000
 30
0.0000
  0
VERTEX
  8
16
 10
14.4000
 20
84.3000
 30
0.0000
  0
SEQEND
  8
0
  0
POLYLINE
  8
16
 66
1
 10
0.0000
 20
0.0000
 30
0.0000
 40
0.2032
 41
0.2032
 70
0
  0
VERTEX
  8
16
 10
14.3282
 20
84.2282
 30
0.0000
 42
1.0000
  0
VERTEX
  8
16
 10
14.4718
 20
84.3718
 30
0.0000
  0
SEQEND
  8
0
  0
POLYLINE
  8
16
 66
1
 10
0.0000
 20
0.0000
 30
0.0000
 40
0.2032
 41
0.2032
 70
0
  0
VERTEX
  8
16
 10
13.5718
 20
85.2718
 30
0.0000
 42
1.0000
  0
VERTEX
  8
16
 10
13.4282
 20
85.1282
 30
0.0000
  0
SEQEND
  8
0
  0
POLYLINE
  8
16
 66
1
 10
0.0000
 20
0.0000
 30
0.0000
 40
0.4064
 41
0.4064
 70
0
  0
VERTEX
  8
16
 10
14.4000
 20
84.3000
 30
0.0000
  0
VERTEX
  8
16
 10
22.6000
 20
84.3000
 30
0.0000
  0
SEQEND
  8
0
  0
POLYLINE
  8
16
 66
1
 10
0.0000
 20
0.0000
 30
0.0000
 40
0.2032
 41
0.2032
 70
0
  0
VERTEX
  8
16
 10
22.6000
 20
84.1984
 30
0.0000
 42
1.0000
  0
VERTEX
  8
16
 10
22.6000
 20
84.4016
 30
0.0000
  0
SEQEND
  8
0
  0
POLYLINE
  8
16
 66
1
 10
0.0000
 20
0.0000
 30
0.0000
 40
0.2032
 41
0.2032
 70
0
  0
VERTEX
  8
16
 10
14.4000
 20
84.4016
 30
0.0000
 42
1.0000
  0
VERTEX
  8
16
 10
14.4000
 20
84.1984
 30
0.0000
  0
SEQEND
  8
0
  0
POLYLINE
  8
16
 66
1
 10
0.0000
 20
0.0000
 30
0.0000
 40
0.4064
 41
0.4064
 70
0
  0
VERTEX
  8
16
 10
22.6000
 20
84.3000
 30
0.0000
  0
VERTEX
  8
16
 10
24.0000
 20
82.9000
 30
0.0000
  0
SEQEND
  8
0
  0
POLYLINE
  8
16
 66
1
 10
0.0000
 20
0.0000
 30
0.0000
 40
0.2032
 41
0.2032
 70
0
  0
VERTEX
  8
16
 10
23.9282
 20
82.8282
 30
0.0000
 42
1.0000
  0
VERTEX
  8
16
 10
24.0718
 20
82.9718
 30
0.0000
  0
SEQEND
  8
0
  0
POLYLINE
  8
16
 66
1
 10
0.0000
 20
0.0000
 30
0.0000
 40
0.2032
 41
0.2032
 70
0
  0
VERTEX
  8
16
 10
22.6718
 20
84.3718
 30
0.0000
 42
1.0000
  0
VERTEX
  8
16
 10
22.5282
 20
84.2282
 30
0.0000
  0
SEQEND
  8
0
  0
POLYLINE
  8
16
 66
1
 10
0.0000
 20
0.0000
 30
0.0000
 40
0.4064
 41
0.4064
 70
0
  0
VERTEX
  8
16
 10
24.0000
 20
82.9000
 30
0.0000
  0
VERTEX
  8
16
 10
24.0000
 20
81.8000
 30
0.0000
  0
SEQEND
  8
0
  0
POLYLINE
  8
16
 66
1
 10
0.0000
 20
0.0000
 30
0.0000
 40
0.2032
 41
0.2032
 70
0
  0
VERTEX
  8
16
 10
23.8984
 20
81.8000
 30
0.0000
 42
1.0000
  0
VERTEX
  8
16
 10
24.1016
 20
81.8000
 30
0.0000
  0
SEQEND
  8
0
  0
POLYLINE
  8
16
 66
1
 10
0.0000
 20
0.0000
 30
0.0000
 40
0.2032
 41
0.2032
 70
0
  0
VERTEX
  8
16
 10
24.1016
 20
82.9000
 30
0.0000
 42
1.0000
  0
VERTEX
  8
16
 10
23.8984
 20
82.9000
 30
0.0000
  0
SEQEND
  8
0
  0
POLYLINE
  8
16
 66
1
 10
0.0000
 20
0.0000
 30
0.0000
 40
0.4064
 41
0.4064
 70
0
  0
VERTEX
  8
16
 10
24.0000
 20
81.8000
 30
0.0000
  0
VERTEX
  8
16
 10
22.7000
 20
80.5000
 30
0.0000
  0
SEQEND
  8
0
  0
POLYLINE
  8
16
 66
1
 10
0.0000
 20
0.0000
 30
0.0000
 40
0.2032
 41
0.2032
 70
0
  0
VERTEX
  8
16
 10
22.6282
 20
80.5718
 30
0.0000
 42
1.0000
  0
VERTEX
  8
16
 10
22.7718
 20
80.4282
 30
0.0000
  0
SEQEND
  8
0
  0
POLYLINE
  8
16
 66
1
 10
0.0000
 20
0.0000
 30
0.0000
 40
0.2032
 41
0.2032
 70
0
  0
VERTEX
  8
16
 10
24.0718
 20
81.7282
 30
0.0000
 42
1.0000
  0
VERTEX
  8
16
 10
23.9282
 20
81.8718
 30
0.0000
  0
SEQEND
  8
0
  0
POLYLINE
  8
16
 66
1
 10
0.0000
 20
0.0000
 30
0.0000
 40
0.4064
 41
0.4064
 70
0
  0
VERTEX
  8
16
 10
22.7000
 20
80.5000
 30
0.0000
  0
VERTEX
  8
16
 10
14.3000
 20
80.5000
 30
0.0000
  0
SEQEND
  8
0
  0
POLYLINE
  8
16
 66
1
 10
0.0000
 20
0.0000
 30
0.0000
 40
0.2032
 41
0.2032
 70
0
  0
VERTEX
  8
16
 10
14.3000
 20
80.6016
 30
0.0000
 42
1.0000
  0
VERTEX
  8
16
 10
14.3000
 20
80.3984
 30
0.0000
  0
SEQEND
  8
0
  0
POLYLINE
  8
16
 66
1
 10
0.0000
 20
0.0000
 30
0.0000
 40
0.2032
 41
0.2032
 70
0
  0
VERTEX
  8
16
 10
22.7000
 20
80.3984
 30
0.0000
 42
1.0000
  0
VERTEX
  8
16
 10
22.7000
 20
80.6016
 30
0.0000
  0
SEQEND
  8
0
  0
POLYLINE
  8
16
 66
1
 10
0.0000
 20
0.0000
 30
0.0000
 40
0.4064
 41
0.4064
 70
0
  0
VERTEX
  8
16
 10
14.3000
 20
80.5000
 30
0.0000
  0
VERTEX
  8
16
 10
12.9000
 20
79.1000
 30
0.0000
  0
SEQEND
  8
0
  0
POLYLINE
  8
16
 66
1
 10
0.0000
 20
0.0000
 30
0.0000
 40
0.2032
 41
0.2032
 70
0
  0
VERTEX
  8
16
 10
12.8282
 20
79.1718
 30
0.0000
 42
1.0000
  0
VERTEX
  8
16
 10
12.9718
 20
79.0282
 30
0.0000
  0
SEQEND
  8
0
  0
POLYLINE
  8
16
 66
1
 10
0.0000
 20
0.0000
 30
0.0000
 40
0.2032
 41
0.2032
 70
0
  0
VERTEX
  8
16
 10
14.3718
 20
80.4282
 30
0.0000
 42
1.0000
  0
VERTEX
  8
16
 10
14.2282
 20
80.5718
 30
0.0000
  0
SEQEND
  8
0
  0
POLYLINE
  8
16
 66
1
 10
0.0000
 20
0.0000
 30
0.0000
 40
0.4064
 41
0.4064
 70
0
  0
VERTEX
  8
16
 10
12.9000
 20
79.1000
 30
0.0000
  0
VERTEX
  8
16
 10
12.9000
 20
78.1000
 30
0.0000
  0
SEQEND
  8
0
  0
POLYLINE
  8
16
 66
1
 10
0.0000
 20
0.0000
 30
0.0000
 40
0.2032
 41
0.2032
 70
0
  0
VERTEX
  8
16
 10
12.7984
 20
78.1000
 30
0.0000
 42
1.0000
  0
VERTEX
  8
16
 10
13.0016
 20
78.1000
 30
0.0000
  0
SEQEND
  8
0
  0
POLYLINE
  8
16
 66
1
 10
0.0000
 20
0.0000
 30
0.0000
 40
0.2032
 41
0.2032
 70
0
  0
VERTEX
  8
16
 10
13.0016
 20
79.1000
 30
0.0000
 42
1.0000
  0
VERTEX
  8
16
 10
12.7984
 20
79.1000
 30
0.0000
  0
SEQEND
  8
0
  0
POLYLINE
  8
16
 66
1
 10
0.0000
 20
0.0000
 30
0.0000
 40
0.4064
 41
0.4064
 70
0
  0
VERTEX
  8
16
 10
12.9000
 20
78.1000
 30
0.0000
  0
VERTEX
  8
16
 10
13.6000
 20
77.4000
 30
0.0000
  0
SEQEND
  8
0
  0
POLYLINE
  8
16
 66
1
 10
0.0000
 20
0.0000
 30
0.0000
 40
0.2032
 41
0.2032
 70
0
  0
VERTEX
  8
16
 10
13.5282
 20
77.3282
 30
0.0000
 42
1.0000
  0
VERTEX
  8
16
 10
13.6718
 20
77.4718
 30
0.0000
  0
SEQEND
  8
0
  0
POLYLINE
  8
16
 66
1
 10
0.0000
 20
0.0000
 30
0.0000
 40
0.2032
 41
0.2032
 70
0
  0
VERTEX
  8
16
 10
12.9718
 20
78.1718
 30
0.0000
 42
1.0000
  0
VERTEX
  8
16
 10
12.8282
 20
78.0282
 30
0.0000
  0
SEQEND
  8
0
  0
POLYLINE
  8
16
 66
1
 10
0.0000
 20
0.0000
 30
0.0000
 40
0.4064
 41
0.4064
 70
0
  0
VERTEX
  8
16
 10
13.6000
 20
77.4000
 30
0.0000
  0
VERTEX
  8
16
 10
18.4000
 20
77.4000
 30
0.0000
  0
SEQEND
  8
0
  0
POLYLINE
  8
16
 66
1
 10
0.0000
 20
0.0000
 30
0.0000
 40
0.2032
 41
0.2032
 70
0
  0
VERTEX
  8
16
 10
18.4000
 20
77.2984
 30
0.0000
 42
1.0000
  0
VERTEX
  8
16
 10
18.4000
 20
77.5016
 30
0.0000
  0
SEQEND
  8
0
  0
POLYLINE
  8
16
 66
1
 10
0.0000
 20
0.0000
 30
0.0000
 40
0.2032
 41
0.2032
 70
0
  0
VERTEX
  8
16
 10
13.6000
 20
77.5016
 30
0.0000
 42
1.0000
  0
VERTEX
  8
16
 10
13.6000
 20
77.2984
 30
0.0000
  0
SEQEND
  8
0
  0
POLYLINE
  8
16
 66
1
 10
0.0000
 20
0.0000
 30
0.0000
 40
0.4064
 41
0.4064
 70
0
  0
VERTEX
  8
16
 10
18.4000
 20
77.4000
 30
0.0000
  0
VERTEX
  8
16
 10
19.5000
 20
76.3000
 30
0.0000
  0
SEQEND
  8
0
  0
POLYLINE
  8
16
 66
1
 10
0.0000
 20
0.0000
 30
0.0000
 40
0.2032
 41
0.2032
 70
0
  0
VERTEX
  8
16
 10
19.4282
 20
76.2282
 30
0.0000
 42
1.0000
  0
VERTEX
  8
16
 10
19.5718
 20
76.3718
 30
0.0000
  0
SEQEND
  8
0
  0
POLYLINE
  8
16
 66
1
 10
0.0000
 20
0.0000
 30
0.0000
 40
0.2032
 41
0.2032
 70
0
  0
VERTEX
  8
16
 10
18.4718
 20
77.4718
 30
0.0000
 42
1.0000
  0
VERTEX
  8
16
 10
18.3282
 20
77.3282
 30
0.0000
  0
SEQEND
  8
0
  0
POLYLINE
  8
16
 66
1
 10
0.0000
 20
0.0000
 30
0.0000
 40
0.4064
 41
0.4064
 70
0
  0
VERTEX
  8
16
 10
19.5000
 20
76.3000
 30
0.0000
  0
VERTEX
  8
16
 10
19.5000
 20
75.2000
 30
0.0000
  0
SEQEND
  8
0
  0
POLYLINE
  8
16
 66
1
 10
0.0000
 20
0.0000
 30
0.0000
 40
0.2032
 41
0.2032
 70
0
  0
VERTEX
  8
16
 10
19.3984
 20
75.2000
 30
0.0000
 42
1.0000
  0
VERTEX
  8
16
 10
19.6016
 20
75.2000
 30
0.0000
  0
SEQEND
  8
0
  0
POLYLINE
  8
16
 66
1
 10
0.0000
 20
0.0000
 30
0.0000
 40
0.2032
 41
0.2032
 70
0
  0
VERTEX
  8
16
 10
19.6016
 20
76.3000
 30
0.0000
 42
1.0000
  0
VERTEX
  8
16
 10
19.3984
 20
76.3000
 30
0.0000
  0
SEQEND
  8
0
  0
POLYLINE
  8
16
 66
1
 10
0.0000
 20
0.0000
 30
0.0000
 40
0.4064
 41
0.4064
 70
0
  0
VERTEX
  8
16
 10
19.5000
 20
75.2000
 30
0.0000
  0
VERTEX
  8
16
 10
18.5000
 20
74.2000
 30
0.0000
  0
SEQEND
  8
0
  0
POLYLINE
  8
16
 66
1
 10
0.0000
 20
0.0000
 30
0.0000
 40
0.2032
 41
0.2032
 70
0
  0
VERTEX
  8
16
 10
18.4282
 20
74.2718
 30
0.0000
 42
1.0000
  0
VERTEX
  8
16
 10
18.5718
 20
74.1282
 30
0.0000
  0
SEQEND
  8
0
  0
POLYLINE
  8
16
 66
1
 10
0.0000
 20
0.0000
 30
0.0000
 40
0.2032
 41
0.2032
 70
0
  0
VERTEX
  8
16
 10
19.5718
 20
75.1282
 30
0.0000
 42
1.0000
  0
VERTEX
  8
16
 10
19.4282
 20
75.2718
 30
0.0000
  0
SEQEND
  8
0
  0
POLYLINE
  8
16
 66
1
 10
0.0000
 20
0.0000
 30
0.0000
 40
0.4064
 41
0.4064
 70
0
  0
VERTEX
  8
16
 10
18.5000
 20
74.2000
 30
0.0000
  0
VERTEX
  8
16
 10
6.4000
 20
74.2000
 30
0.0000
  0
SEQEND
  8
0
  0
POLYLINE
  8
16
 66
1
 10
0.0000
 20
0.0000
 30
0.0000
 40
0.2032
 41
0.2032
 70
0
  0
VERTEX
  8
16
 10
6.4000
 20
74.3016
 30
0.0000
 42
1.0000
  0
VERTEX
  8
16
 10
6.4000
 20
74.0984
 30
0.0000
  0
SEQEND
  8
0
  0
POLYLINE
  8
16
 66
1
 10
0.0000
 20
0.0000
 30
0.0000
 40
0.2032
 41
0.2032
 70
0
  0
VERTEX
  8
16
 10
18.5000
 20
74.0984
 30
0.0000
 42
1.0000
  0
VERTEX
  8
16
 10
18.5000
 20
74.3016
 30
0.0000
  0
SEQEND
  8
0
  0
POLYLINE
  8
16
 66
1
 10
0.0000
 20
0.0000
 30
0.0000
 40
0.4064
 41
0.4064
 70
0
  0
VERTEX
  8
16
 10
6.4000
 20
74.2000
 30
0.0000
  0
VERTEX
  8
16
 10
5.3000
 20
73.1000
 30
0.0000
  0
SEQEND
  8
0
  0
POLYLINE
  8
16
 66
1
 10
0.0000
 20
0.0000
 30
0.0000
 40
0.2032
 41
0.2032
 70
0
  0
VERTEX
  8
16
 10
5.2282
 20
73.1718
 30
0.0000
 42
1.0000
  0
VERTEX
  8
16
 10
5.3718
 20
73.0282
 30
0.0000
  0
SEQEND
  8
0
  0
POLYLINE
  8
16
 66
1
 10
0.0000
 20
0.0000
 30
0.0000
 40
0.2032
 41
0.2032
 70
0
  0
VERTEX
  8
16
 10
6.4718
 20
74.1282
 30
0.0000
 42
1.0000
  0
VERTEX
  8
16
 10
6.3282
 20
74.2718
 30
0.0000
  0
SEQEND
  8
0
  0
POLYLINE
  8
16
 66
1
 10
0.0000
 20
0.0000
 30
0.0000
 40
0.4064
 41
0.4064
 70
0
  0
VERTEX
  8
16
 10
5.3000
 20
73.1000
 30
0.0000
  0
VERTEX
  8
16
 10
5.3000
 20
71.6000
 30
0.0000
  0
SEQEND
  8
0
  0
POLYLINE
  8
16
 66
1
 10
0.0000
 20
0.0000
 30
0.0000
 40
0.2032
 41
0.2032
 70
0
  0
VERTEX
  8
16
 10
5.1984
 20
71.6000
 30
0.0000
 42
1.0000
  0
VERTEX
  8
16
 10
5.4016
 20
71.6000
 30
0.0000
  0
SEQEND
  8
0
  0
POLYLINE
  8
16
 66
1
 10
0.0000
 20
0.0000
 30
0.0000
 40
0.2032
 41
0.2032
 70
0
  0
VERTEX
  8
16
 10
5.4016
 20
73.1000
 30
0.0000
 42
1.0000
  0
VERTEX
  8
16
 10
5.1984
 20
73.1000
 30
0.0000
  0
SEQEND
  8
0
  0
POLYLINE
  8
16
 66
1
 10
0.0000
 20
0.0000
 30
0.0000
 40
0.4064
 41
0.4064
 70
0
  0
VERTEX
  8
16
 10
5.3000
 20
71.6000
 30
0.0000
  0
VERTEX
  8
16
 10
6.4000
 20
70.5000
 30
0.0000
  0
SEQEND
  8
0
  0
POLYLINE
  8
16
 66
1
 10
0.0000
 20
0.0000
 30
0.0000
 40
0.2032
 41
0.2032
 70
0
  0
VERTEX
  8
16
 10
6.3282
 20
70.4282
 30
0.0000
 42
1.0000
  0
VERTEX
  8
16
 10
6.4718
 20
70.5718
 30
0.0000
  0
SEQEND
  8
0
  0
POLYLINE
  8
16
 66
1
 10
0.0000
 20
0.0000
 30
0.0000
 40
0.2032
 41
0.2032
 70
0
  0
VERTEX
  8
16
 10
5.3718
 20
71.6718
 30
0.0000
 42
1.0000
  0
VERTEX
  8
16
 10
5.2282
 20
71.5282
 30
0.0000
  0
SEQEND
  8
0
  0
POLYLINE
  8
16
 66
1
 10
0.0000
 20
0.0000
 30
0.0000
 40
0.4064
 41
0.4064
 70
0
  0
VERTEX
  8
16
 10
6.4000
 20
70.5000
 30
0.0000
  0
VERTEX
  8
16
 10
15.5000
 20
70.5000
 30
0.0000
  0
SEQEND
  8
0
  0
POLYLINE
  8
16
 66
1
 10
0.0000
 20
0.0000
 30
0.0000
 40
0.2032
 41
0.2032
 70
0
  0
VERTEX
  8
16
 10
15.5000
 20
70.3984
 30
0.0000
 42
1.0000
  0
VERTEX
  8
16
 10
15.5000
 20
70.6016
 30
0.0000
  0
SEQEND
  8
0
  0
POLYLINE
  8
16
 66
1
 10
0.0000
 20
0.0000
 30
0.0000
 40
0.2032
 41
0.2032
 70
0
  0
VERTEX
  8
16
 10
6.4000
 20
70.6016
 30
0.0000
 42
1.0000
  0
VERTEX
  8
16
 10
6.4000
 20
70.3984
 30
0.0000
  0
SEQEND
  8
0
  0
POLYLINE
  8
16
 66
1
 10
0.0000
 20
0.0000
 30
0.0000
 40
0.4064
 41
0.4064
 70
0
  0
VERTEX
  8
16
 10
15.5000
 20
70.5000
 30
0.0000
  0
VERTEX
  8
16
 10
16.5000
 20
69.5000
 30
0.0000
  0
SEQEND
  8
0
  0
POLYLINE
  8
16
 66
1
 10
0.0000
 20
0.0000
 30
0.0000
 40
0.2032
 41
0.2032
 70
0
  0
VERTEX
  8
16
 10
16.4282
 20
69.4282
 30
0.0000
 42
1.0000
  0
VERTEX
  8
16
 10
16.5718
 20
69.5718
 30
0.0000
  0
SEQEND
  8
0
  0
POLYLINE
  8
16
 66
1
 10
0.0000
 20
0.0000
 30
0.0000
 40
0.2032
 41
0.2032
 70
0
  0
VERTEX
  8
16
 10
15.5718
 20
70.5718
 30
0.0000
 42
1.0000
  0
VERTEX
  8
16
 10
15.4282
 20
70.4282
 30
0.0000
  0
SEQEND
  8
0
  0
POLYLINE
  8
16
 66
1
 10
0.0000
 20
0.0000
 30
0.0000
 40
0.4064
 41
0.4064
 70
0
  0
VERTEX
  8
16
 10
16.5000
 20
69.5000
 30
0.0000
  0
VERTEX
  8
16
 10
16.5000
 20
69.0000
 30
0.0000
  0
SEQEND
  8
0
  0
POLYLINE
  8
16
 66
1
 10
0.0000
 20
0.0000
 30
0.0000
 40
0.2032
 41
0.2032
 70
0
  0
VERTEX
  8
16
 10
16.3984
 20
69.0000
 30
0.0000
 42
1.0000
  0
VERTEX
  8
16
 10
16.6016
 20
69.0000
 30
0.0000
  0
SEQEND
  8
0
  0
POLYLINE
  8
16
 66
1
 10
0.0000
 20
0.0000
 30
0.0000
 40
0.2032
 41
0.2032
 70
0
  0
VERTEX
  8
16
 10
16.6016
 20
69.5000
 30
0.0000
 42
1.0000
  0
VERTEX
  8
16
 10
16.3984
 20
69.5000
 30
0.0000
  0
SEQEND
  8
0
  0
POLYLINE
  8
16
 66
1
 10
0.0000
 20
0.0000
 30
0.0000
 40
0.4064
 41
0.4064
 70
0
  0
VERTEX
  8
16
 10
16.5000
 20
69.0000
 30
0.0000
  0
VERTEX
  8
16
 10
13.9000
 20
66.4000
 30
0.0000
  0
SEQEND
  8
0
  0
POLYLINE
  8
16
 66
1
 10
0.0000
 20
0.0000
 30
0.0000
 40
0.2032
 41
0.2032
 70
0
  0
VERTEX
  8
16
 10
13.8282
 20
66.4718
 30
0.0000
 42
1.0000
  0
VERTEX
  8
16
 10
13.9718
 20
66.3282
 30
0.0000
  0
SEQEND
  8
0
  0
POLYLINE
  8
16
 66
1
 10
0.0000
 20
0.0000
 30
0.0000
 40
0.2032
 41
0.2032
 70
0
  0
VERTEX
  8
16
 10
16.5718
 20
68.9282
 30
0.0000
 42
1.0000
  0
VERTEX
  8
16
 10
16.4282
 20
69.0718
 30
0.0000
  0
SEQEND
  8
0
  0
POLYLINE
  8
16
 66
1
 10
0.0000
 20
0.0000
 30
0.0000
 40
0.4064
 41
0.4064
 70
0
  0
VERTEX
  8
16
 10
13.9000
 20
66.4000
 30
0.0000
  0
VERTEX
  8
16
 10
8.3000
 20
66.4000
 30
0.0000
  0
SEQEND
  8
0
  0
POLYLINE
  8
16
 66
1
 10
0.0000
 20
0.0000
 30
0.0000
 40
0.2032
 41
0.2032
 70
0
  0
VERTEX
  8
16
 10
8.3000
 20
66.5016
 30
0.0000
 42
1.0000
  0
VERTEX
  8
16
 10
8.3000
 20
66.2984
 30
0.0000
  0
SEQEND
  8
0
  0
POLYLINE
  8
16
 66
1
 10
0.0000
 20
0.0000
 30
0.0000
 40
0.2032
 41
0.2032
 70
0
  0
VERTEX
  8
16
 10
13.9000
 20
66.2984
 30
0.0000
 42
1.0000
  0
VERTEX
  8
16
 10
13.9000
 20
66.5016
 30
0.0000
  0
SEQEND
  8
0
  0
POLYLINE
  8
16
 66
1
 10
0.0000
 20
0.0000
 30
0.0000
 40
0.4064
 41
0.4064
 70
0
  0
VERTEX
  8
16
 10
6.6700
 20
64.7700
 30
0.0000
  0
VERTEX
  8
16
 10
6.6700
 20
32.9900
 30
0.0000
  0
SEQEND
  8
0
  0
POLYLINE
  8
16
 66
1
 10
0.0000
 20
0.0000
 30
0.0000
 40
0.2032
 41
0.2032
 70
0
  0
VERTEX
  8
16
 10
6.5684
 20
32.9900
 30
0.0000
 42
1.0000
  0
VERTEX
  8
16
 10
6.7716
 20
32.9900
 30
0.0000
  0
SEQEND
  8
0
  0
POLYLINE
  8
16
 66
1
 10
0.0000
 20
0.0000
 30
0.0000
 40
0.2032
 41
0.2032
 70
0
  0
VERTEX
  8
16
 10
6.7716
 20
64.7700
 30
0.0000
 42
1.0000
  0
VERTEX
  8
16
 10
6.5684
 20
64.7700
 30
0.0000
  0
SEQEND
  8
0
  0
POLYLINE
  8
16
 66
1
 10
0.0000
 20
0.0000
 30
0.0000
 40
0.4064
 41
0.4064
 70
0
  0
VERTEX
  8
16
 10
8.3000
 20
66.4000
 30
0.0000
  0
VERTEX
  8
16
 10
6.6700
 20
64.7700
 30
0.0000
  0
SEQEND
  8
0
  0
POLYLINE
  8
16
 66
1
 10
0.0000
 20
0.0000
 30
0.0000
 40
0.2032
 41
0.2032
 70
0
  0
VERTEX
  8
16
 10
6.5982
 20
64.8418
 30
0.0000
 42
1.0000
  0
VERTEX
  8
16
 10
6.7418
 20
64.6982
 30
0.0000
  0
SEQEND
  8
0
  0
POLYLINE
  8
16
 66
1
 10
0.0000
 20
0.0000
 30
0.0000
 40
0.2032
 41
0.2032
 70
0
  0
VERTEX
  8
16
 10
8.3718
 20
66.3282
 30
0.0000
 42
1.0000
  0
VERTEX
  8
16
 10
8.2282
 20
66.4718
 30
0.0000
  0
SEQEND
  8
0
  0
POLYLINE
  8
16
 66
1
 10
0.0000
 20
0.0000
 30
0.0000
 40
0.4064
 41
0.4064
 70
0
  0
VERTEX
  8
16
 10
178.4000
 20
19.5000
 30
0.0000
  0
VERTEX
  8
16
 10
178.4000
 20
45.0000
 30
0.0000
  0
SEQEND
  8
0
  0
POLYLINE
  8
16
 66
1
 10
0.0000
 20
0.0000
 30
0.0000
 40
0.2032
 41
0.2032
 70
0
  0
VERTEX
  8
16
 10
178.5016
 20
45.0000
 30
0.0000
 42
1.0000
  0
VERTEX
  8
16
 10
178.2984
 20
45.0000
 30
0.0000
  0
SEQEND
  8
0
  0
POLYLINE
  8
16
 66
1
 10
0.0000
 20
0.0000
 30
0.0000
 40
0.2032
 41
0.2032
 70
0
  0
VERTEX
  8
16
 10
178.2984
 20
19.5000
 30
0.0000
 42
1.0000
  0
VERTEX
  8
16
 10
178.5016
 20
19.5000
 30
0.0000
  0
SEQEND
  8
0
  0
POLYLINE
  8
16
 66
1
 10
0.0000
 20
0.0000
 30
0.0000
 40
0.4064
 41
0.4064
 70
0
  0
VERTEX
  8
16
 10
178.4000
 20
45.0000
 30
0.0000
  0
VERTEX
  8
16
 10
173.1000
 20
50.3000
 30
0.0000
  0
SEQEND
  8
0
  0
POLYLINE
  8
16
 66
1
 10
0.0000
 20
0.0000
 30
0.0000
 40
0.2032
 41
0.2032
 70
0
  0
VERTEX
  8
16
 10
173.1718
 20
50.3718
 30
0.0000
 42
1.0000
  0
VERTEX
  8
16
 10
173.0282
 20
50.2282
 30
0.0000
  0
SEQEND
  8
0
  0
POLYLINE
  8
16
 66
1
 10
0.0000
 20
0.0000
 30
0.0000
 40
0.2032
 41
0.2032
 70
0
  0
VERTEX
  8
16
 10
178.3282
 20
44.9282
 30
0.0000
 42
1.0000
  0
VERTEX
  8
16
 10
178.4718
 20
45.0718
 30
0.0000
  0
SEQEND
  8
0
  0
POLYLINE
  8
16
 66
1
 10
0.0000
 20
0.0000
 30
0.0000
 40
0.4064
 41
0.4064
 70
0
  0
VERTEX
  8
16
 10
173.1000
 20
50.3000
 30
0.0000
  0
VERTEX
  8
16
 10
116.9000
 20
50.3000
 30
0.0000
  0
SEQEND
  8
0
  0
POLYLINE
  8
16
 66
1
 10
0.0000
 20
0.0000
 30
0.0000
 40
0.2032
 41
0.2032
 70
0
  0
VERTEX
  8
16
 10
116.9000
 20
50.4016
 30
0.0000
 42
1.0000
  0
VERTEX
  8
16
 10
116.9000
 20
50.1984
 30
0.0000
  0
SEQEND
  8
0
  0
POLYLINE
  8
16
 66
1
 10
0.0000
 20
0.0000
 30
0.0000
 40
0.2032
 41
0.2032
 70
0
  0
VERTEX
  8
16
 10
173.1000
 20
50.1984
 30
0.0000
 42
1.0000
  0
VERTEX
  8
16
 10
173.1000
 20
50.4016
 30
0.0000
  0
SEQEND
  8
0
  0
POLYLINE
  8
16
 66
1
 10
0.0000
 20
0.0000
 30
0.0000
 40
0.4064
 41
0.4064
 70
0
  0
VERTEX
  8
16
 10
116.9000
 20
50.3000
 30
0.0000
  0
VERTEX
  8
16
 10
114.8000
 20
48.2000
 30
0.0000
  0
SEQEND
  8
0
  0
POLYLINE
  8
16
 66
1
 10
0.0000
 20
0.0000
 30
0.0000
 40
0.2032
 41
0.2032
 70
0
  0
VERTEX
  8
16
 10
114.7282
 20
48.2718
 30
0.0000
 42
1.0000
  0
VERTEX
  8
16
 10
114.8718
 20
48.1282
 30
0.0000
  0
SEQEND
  8
0
  0
POLYLINE
  8
16
 66
1
 10
0.0000
 20
0.0000
 30
0.0000
 40
0.2032
 41
0.2032
 70
0
  0
VERTEX
  8
16
 10
116.9718
 20
50.2282
 30
0.0000
 42
1.0000
  0
VERTEX
  8
16
 10
116.8282
 20
50.3718
 30
0.0000
  0
SEQEND
  8
0
  0
POLYLINE
  8
16
 66
1
 10
0.0000
 20
0.0000
 30
0.0000
 40
0.4064
 41
0.4064
 70
0
  0
VERTEX
  8
16
 10
114.8000
 20
48.2000
 30
0.0000
  0
VERTEX
  8
16
 10
114.8000
 20
44.7000
 30
0.0000
  0
SEQEND
  8
0
  0
POLYLINE
  8
16
 66
1
 10
0.0000
 20
0.0000
 30
0.0000
 40
0.2032
 41
0.2032
 70
0
  0
VERTEX
  8
16
 10
114.6984
 20
44.7000
 30
0.0000
 42
1.0000
  0
VERTEX
  8
16
 10
114.9016
 20
44.7000
 30
0.0000
  0
SEQEND
  8
0
  0
POLYLINE
  8
16
 66
1
 10
0.0000
 20
0.0000
 30
0.0000
 40
0.2032
 41
0.2032
 70
0
  0
VERTEX
  8
16
 10
114.9016
 20
48.2000
 30
0.0000
 42
1.0000
  0
VERTEX
  8
16
 10
114.6984
 20
48.2000
 30
0.0000
  0
SEQEND
  8
0
  0
POLYLINE
  8
16
 66
1
 10
0.0000
 20
0.0000
 30
0.0000
 40
0.4064
 41
0.4064
 70
0
  0
VERTEX
  8
16
 10
114.8000
 20
44.7000
 30
0.0000
  0
VERTEX
  8
16
 10
116.3000
 20
43.2000
 30
0.0000
  0
SEQEND
  8
0
  0
POLYLINE
  8
16
 66
1
 10
0.0000
 20
0.0000
 30
0.0000
 40
0.2032
 41
0.2032
 70
0
  0
VERTEX
  8
16
 10
116.2282
 20
43.1282
 30
0.0000
 42
1.0000
  0
VERTEX
  8
16
 10
116.3718
 20
43.2718
 30
0.0000
  0
SEQEND
  8
0
  0
POLYLINE
  8
16
 66
1
 10
0.0000
 20
0.0000
 30
0.0000
 40
0.2032
 41
0.2032
 70
0
  0
VERTEX
  8
16
 10
114.8718
 20
44.7718
 30
0.0000
 42
1.0000
  0
VERTEX
  8
16
 10
114.7282
 20
44.6282
 30
0.0000
  0
SEQEND
  8
0
  0
POLYLINE
  8
16
 66
1
 10
0.0000
 20
0.0000
 30
0.0000
 40
0.4064
 41
0.4064
 70
0
  0
VERTEX
  8
16
 10
116.3000
 20
43.2000
 30
0.0000
  0
VERTEX
  8
16
 10
163.4000
 20
43.2000
 30
0.0000
  0
SEQEND
  8
0
  0
POLYLINE
  8
16
 66
1
 10
0.0000
 20
0.0000
 30
0.0000
 40
0.2032
 41
0.2032
 70
0
  0
VERTEX
  8
16
 10
163.4000
 20
43.0984
 30
0.0000
 42
1.0000
  0
VERTEX
  8
16
 10
163.4000
 20
43.3016
 30
0.0000
  0
SEQEND
  8
0
  0
POLYLINE
  8
16
 66
1
 10
0.0000
 20
0.0000
 30
0.0000
 40
0.2032
 41
0.2032
 70
0
  0
VERTEX
  8
16
 10
116.3000
 20
43.3016
 30
0.0000
 42
1.0000
  0
VERTEX
  8
16
 10
116.3000
 20
43.0984
 30
0.0000
  0
SEQEND
  8
0
  0
POLYLINE
  8
16
 66
1
 10
0.0000
 20
0.0000
 30
0.0000
 40
0.4064
 41
0.4064
 70
0
  0
VERTEX
  8
16
 10
163.4000
 20
43.2000
 30
0.0000
  0
VERTEX
  8
16
 10
165.5000
 20
41.1000
 30
0.0000
  0
SEQEND
  8
0
  0
POLYLINE
  8
16
 66
1
 10
0.0000
 20
0.0000
 30
0.0000
 40
0.2032
 41
0.2032
 70
0
  0
VERTEX
  8
16
 10
165.4282
 20
41.0282
 30
0.0000
 42
1.0000
  0
VERTEX
  8
16
 10
165.5718
 20
41.1718
 30
0.0000
  0
SEQEND
  8
0
  0
POLYLINE
  8
16
 66
1
 10
0.0000
 20
0.0000
 30
0.0000
 40
0.2032
 41
0.2032
 70
0
  0
VERTEX
  8
16
 10
163.4718
 20
43.2718
 30
0.0000
 42
1.0000
  0
VERTEX
  8
16
 10
163.3282
 20
43.1282
 30
0.0000
  0
SEQEND
  8
0
  0
POLYLINE
  8
16
 66
1
 10
0.0000
 20
0.0000
 30
0.0000
 40
0.4064
 41
0.4064
 70
0
  0
VERTEX
  8
16
 10
165.5000
 20
41.1000
 30
0.0000
  0
VERTEX
  8
16
 10
165.5000
 20
38.5000
 30
0.0000
  0
SEQEND
  8
0
  0
POLYLINE
  8
16
 66
1
 10
0.0000
 20
0.0000
 30
0.0000
 40
0.2032
 41
0.2032
 70
0
  0
VERTEX
  8
16
 10
165.3984
 20
38.5000
 30
0.0000
 42
1.0000
  0
VERTEX
  8
16
 10
165.6016
 20
38.5000
 30
0.0000
  0
SEQEND
  8
0
  0
POLYLINE
  8
16
 66
1
 10
0.0000
 20
0.0000
 30
0.0000
 40
0.2032
 41
0.2032
 70
0
  0
VERTEX
  8
16
 10
165.6016
 20
41.1000
 30
0.0000
 42
1.0000
  0
VERTEX
  8
16
 10
165.3984
 20
41.1000
 30
0.0000
  0
SEQEND
  8
0
  0
POLYLINE
  8
16
 66
1
 10
0.0000
 20
0.0000
 30
0.0000
 40
0.4064
 41
0.4064
 70
0
  0
VERTEX
  8
16
 10
165.5000
 20
38.5000
 30
0.0000
  0
VERTEX
  8
16
 10
163.5000
 20
36.5000
 30
0.0000
  0
SEQEND
  8
0
  0
POLYLINE
  8
16
 66
1
 10
0.0000
 20
0.0000
 30
0.0000
 40
0.2032
 41
0.2032
 70
0
  0
VERTEX
  8
16
 10
163.4282
 20
36.5718
 30
0.0000
 42
1.0000
  0
VERTEX
  8
16
 10
163.5718
 20
36.4282
 30
0.0000
  0
SEQEND
  8
0
  0
POLYLINE
  8
16
 66
1
 10
0.0000
 20
0.0000
 30
0.0000
 40
0.2032
 41
0.2032
 70
0
  0
VERTEX
  8
16
 10
165.5718
 20
38.4282
 30
0.0000
 42
1.0000
  0
VERTEX
  8
16
 10
165.4282
 20
38.5718
 30
0.0000
  0
SEQEND
  8
0
  0
POLYLINE
  8
16
 66
1
 10
0.0000
 20
0.0000
 30
0.0000
 40
0.4064
 41
0.4064
 70
0
  0
VERTEX
  8
16
 10
163.5000
 20
36.5000
 30
0.0000
  0
VERTEX
  8
16
 10
115.6000
 20
36.5000
 30
0.0000
  0
SEQEND
  8
0
  0
POLYLINE
  8
16
 66
1
 10
0.0000
 20
0.0000
 30
0.0000
 40
0.2032
 41
0.2032
 70
0
  0
VERTEX
  8
16
 10
115.6000
 20
36.6016
 30
0.0000
 42
1.0000
  0
VERTEX
  8
16
 10
115.6000
 20
36.3984
 30
0.0000
  0
SEQEND
  8
0
  0
POLYLINE
  8
16
 66
1
 10
0.0000
 20
0.0000
 30
0.0000
 40
0.2032
 41
0.2032
 70
0
  0
VERTEX
  8
16
 10
163.5000
 20
36.3984
 30
0.0000
 42
1.0000
  0
VERTEX
  8
16
 10
163.5000
 20
36.6016
 30
0.0000
  0
SEQEND
  8
0
  0
POLYLINE
  8
16
 66
1
 10
0.0000
 20
0.0000
 30
0.0000
 40
0.4064
 41
0.4064
 70
0
  0
VERTEX
  8
16
 10
16.8000
 20
44.4000
 30
0.0000
  0
VERTEX
  8
16
 10
16.8000
 20
33.0000
 30
0.0000
  0
SEQEND
  8
0
  0
POLYLINE
  8
16
 66
1
 10
0.0000
 20
0.0000
 30
0.0000
 40
0.2032
 41
0.2032
 70
0
  0
VERTEX
  8
16
 10
16.6984
 20
33.0000
 30
0.0000
 42
1.0000
  0
VERTEX
  8
16
 10
16.9016
 20
33.0000
 30
0.0000
  0
SEQEND
  8
0
  0
POLYLINE
  8
16
 66
1
 10
0.0000
 20
0.0000
 30
0.0000
 40
0.2032
 41
0.2032
 70
0
  0
VERTEX
  8
16
 10
16.9016
 20
44.4000
 30
0.0000
 42
1.0000
  0
VERTEX
  8
16
 10
16.6984
 20
44.4000
 30
0.0000
  0
SEQEND
  8
0
  0
POLYLINE
  8
16
 66
1
 10
0.0000
 20
0.0000
 30
0.0000
 40
0.4064
 41
0.4064
 70
0
  0
VERTEX
  8
16
 10
26.6000
 20
54.2000
 30
0.0000
  0
VERTEX
  8
16
 10
16.8000
 20
44.4000
 30
0.0000
  0
SEQEND
  8
0
  0
POLYLINE
  8
16
 66
1
 10
0.0000
 20
0.0000
 30
0.0000
 40
0.2032
 41
0.2032
 70
0
  0
VERTEX
  8
16
 10
16.7282
 20
44.4718
 30
0.0000
 42
1.0000
  0
VERTEX
  8
16
 10
16.8718
 20
44.3282
 30
0.0000
  0
SEQEND
  8
0
  0
POLYLINE
  8
16
 66
1
 10
0.0000
 20
0.0000
 30
0.0000
 40
0.2032
 41
0.2032
 70
0
  0
VERTEX
  8
16
 10
26.6718
 20
54.1282
 30
0.0000
 42
1.0000
  0
VERTEX
  8
16
 10
26.5282
 20
54.2718
 30
0.0000
  0
SEQEND
  8
0
  0
POLYLINE
  8
16
 66
1
 10
0.0000
 20
0.0000
 30
0.0000
 40
0.4064
 41
0.4064
 70
0
  0
VERTEX
  8
16
 10
104.4000
 20
34.5000
 30
0.0000
  0
VERTEX
  8
16
 10
84.7000
 20
54.2000
 30
0.0000
  0
SEQEND
  8
0
  0
POLYLINE
  8
16
 66
1
 10
0.0000
 20
0.0000
 30
0.0000
 40
0.2032
 41
0.2032
 70
0
  0
VERTEX
  8
16
 10
84.7718
 20
54.2718
 30
0.0000
 42
1.0000
  0
VERTEX
  8
16
 10
84.6282
 20
54.1282
 30
0.0000
  0
SEQEND
  8
0
  0
POLYLINE
  8
16
 66
1
 10
0.0000
 20
0.0000
 30
0.0000
 40
0.2032
 41
0.2032
 70
0
  0
VERTEX
  8
16
 10
104.3282
 20
34.4282
 30
0.0000
 42
1.0000
  0
VERTEX
  8
16
 10
104.4718
 20
34.5718
 30
0.0000
  0
SEQEND
  8
0
  0
POLYLINE
  8
16
 66
1
 10
0.0000
 20
0.0000
 30
0.0000
 40
0.4064
 41
0.4064
 70
0
  0
VERTEX
  8
16
 10
84.7000
 20
54.2000
 30
0.0000
  0
VERTEX
  8
16
 10
26.6000
 20
54.2000
 30
0.0000
  0
SEQEND
  8
0
  0
POLYLINE
  8
16
 66
1
 10
0.0000
 20
0.0000
 30
0.0000
 40
0.2032
 41
0.2032
 70
0
  0
VERTEX
  8
16
 10
26.6000
 20
54.3016
 30
0.0000
 42
1.0000
  0
VERTEX
  8
16
 10
26.6000
 20
54.0984
 30
0.0000
  0
SEQEND
  8
0
  0
POLYLINE
  8
16
 66
1
 10
0.0000
 20
0.0000
 30
0.0000
 40
0.2032
 41
0.2032
 70
0
  0
VERTEX
  8
16
 10
84.7000
 20
54.0984
 30
0.0000
 42
1.0000
  0
VERTEX
  8
16
 10
84.7000
 20
54.3016
 30
0.0000
  0
SEQEND
  8
0
  0
POLYLINE
  8
16
 66
1
 10
0.0000
 20
0.0000
 30
0.0000
 40
0.4064
 41
0.4064
 70
0
  0
VERTEX
  8
16
 10
115.6000
 20
36.5000
 30
0.0000
  0
VERTEX
  8
16
 10
108.9000
 20
29.8000
 30
0.0000
  0
SEQEND
  8
0
  0
POLYLINE
  8
16
 66
1
 10
0.0000
 20
0.0000
 30
0.0000
 40
0.2032
 41
0.2032
 70
0
  0
VERTEX
  8
16
 10
108.8282
 20
29.8718
 30
0.0000
 42
1.0000
  0
VERTEX
  8
16
 10
108.9718
 20
29.7282
 30
0.0000
  0
SEQEND
  8
0
  0
POLYLINE
  8
16
 66
1
 10
0.0000
 20
0.0000
 30
0.0000
 40
0.2032
 41
0.2032
 70
0
  0
VERTEX
  8
16
 10
115.6718
 20
36.4282
 30
0.0000
 42
1.0000
  0
VERTEX
  8
16
 10
115.5282
 20
36.5718
 30
0.0000
  0
SEQEND
  8
0
  0
POLYLINE
  8
16
 66
1
 10
0.0000
 20
0.0000
 30
0.0000
 40
0.4064
 41
0.4064
 70
0
  0
VERTEX
  8
16
 10
108.9000
 20
29.8000
 30
0.0000
  0
VERTEX
  8
16
 10
106.3000
 20
29.8000
 30
0.0000
  0
SEQEND
  8
0
  0
POLYLINE
  8
16
 66
1
 10
0.0000
 20
0.0000
 30
0.0000
 40
0.2032
 41
0.2032
 70
0
  0
VERTEX
  8
16
 10
106.3000
 20
29.9016
 30
0.0000
 42
1.0000
  0
VERTEX
  8
16
 10
106.3000
 20
29.6984
 30
0.0000
  0
SEQEND
  8
0
  0
POLYLINE
  8
16
 66
1
 10
0.0000
 20
0.0000
 30
0.0000
 40
0.2032
 41
0.2032
 70
0
  0
VERTEX
  8
16
 10
108.9000
 20
29.6984
 30
0.0000
 42
1.0000
  0
VERTEX
  8
16
 10
108.9000
 20
29.9016
 30
0.0000
  0
SEQEND
  8
0
  0
POLYLINE
  8
16
 66
1
 10
0.0000
 20
0.0000
 30
0.0000
 40
0.4064
 41
0.4064
 70
0
  0
VERTEX
  8
16
 10
106.3000
 20
29.8000
 30
0.0000
  0
VERTEX
  8
16
 10
104.4000
 20
31.7000
 30
0.0000
  0
SEQEND
  8
0
  0
POLYLINE
  8
16
 66
1
 10
0.0000
 20
0.0000
 30
0.0000
 40
0.2032
 41
0.2032
 70
0
  0
VERTEX
  8
16
 10
104.4718
 20
31.7718
 30
0.0000
 42
1.0000
  0
VERTEX
  8
16
 10
104.3282
 20
31.6282
 30
0.0000
  0
SEQEND
  8
0
  0
POLYLINE
  8
16
 66
1
 10
0.0000
 20
0.0000
 30
0.0000
 40
0.2032
 41
0.2032
 70
0
  0
VERTEX
  8
16
 10
106.2282
 20
29.7282
 30
0.0000
 42
1.0000
  0
VERTEX
  8
16
 10
106.3718
 20
29.8718
 30
0.0000
  0
SEQEND
  8
0
  0
POLYLINE
  8
16
 66
1
 10
0.0000
 20
0.0000
 30
0.0000
 40
0.4064
 41
0.4064
 70
0
  0
VERTEX
  8
16
 10
104.4000
 20
31.7000
 30
0.0000
  0
VERTEX
  8
16
 10
104.4000
 20
34.5000
 30
0.0000
  0
SEQEND
  8
0
  0
POLYLINE
  8
16
 66
1
 10
0.0000
 20
0.0000
 30
0.0000
 40
0.2032
 41
0.2032
 70
0
  0
VERTEX
  8
16
 10
104.5016
 20
34.5000
 30
0.0000
 42
1.0000
  0
VERTEX
  8
16
 10
104.2984
 20
34.5000
 30
0.0000
  0
SEQEND
  8
0
  0
POLYLINE
  8
16
 66
1
 10
0.0000
 20
0.0000
 30
0.0000
 40
0.2032
 41
0.2032
 70
0
  0
VERTEX
  8
16
 10
104.2984
 20
31.7000
 30
0.0000
 42
1.0000
  0
VERTEX
  8
16
 10
104.5016
 20
31.7000
 30
0.0000
  0
SEQEND
  8
0
  0
POLYLINE
  8
16
 66
1
 10
0.0000
 20
0.0000
 30
0.0000
 40
0.4064
 41
0.4064
 70
0
  0
VERTEX
  8
16
 10
286.0000
 20
47.2000
 30
0.0000
  0
VERTEX
  8
16
 10
286.0000
 20
54.2000
 30
0.0000
  0
SEQEND
  8
0
  0
POLYLINE
  8
16
 66
1
 10
0.0000
 20
0.0000
 30
0.0000
 40
0.2032
 41
0.2032
 70
0
  0
VERTEX
  8
16
 10
286.1016
 20
54.2000
 30
0.0000
 42
1.0000
  0
VERTEX
  8
16
 10
285.8984
 20
54.2000
 30
0.0000
  0
SEQEND
  8
0
  0
POLYLINE
  8
16
 66
1
 10
0.0000
 20
0.0000
 30
0.0000
 40
0.2032
 41
0.2032
 70
0
  0
VERTEX
  8
16
 10
285.8984
 20
47.2000
 30
0.0000
 42
1.0000
  0
VERTEX
  8
16
 10
286.1016
 20
47.2000
 30
0.0000
  0
SEQEND
  8
0
  0
POLYLINE
  8
16
 66
1
 10
0.0000
 20
0.0000
 30
0.0000
 40
0.4064
 41
0.4064
 70
0
  0
VERTEX
  8
16
 10
284.7000
 20
45.9000
 30
0.0000
  0
VERTEX
  8
16
 10
286.0000
 20
47.2000
 30
0.0000
  0
SEQEND
  8
0
  0
POLYLINE
  8
16
 66
1
 10
0.0000
 20
0.0000
 30
0.0000
 40
0.2032
 41
0.2032
 70
0
  0
VERTEX
  8
16
 10
286.0718
 20
47.1282
 30
0.0000
 42
1.0000
  0
VERTEX
  8
16
 10
285.9282
 20
47.2718
 30
0.0000
  0
SEQEND
  8
0
  0
POLYLINE
  8
16
 66
1
 10
0.0000
 20
0.0000
 30
0.0000
 40
0.2032
 41
0.2032
 70
0
  0
VERTEX
  8
16
 10
284.6282
 20
45.9718
 30
0.0000
 42
1.0000
  0
VERTEX
  8
16
 10
284.7718
 20
45.8282
 30
0.0000
  0
SEQEND
  8
0
  0
POLYLINE
  8
16
 66
1
 10
0.0000
 20
0.0000
 30
0.0000
 40
0.4064
 41
0.4064
 70
0
  0
VERTEX
  8
16
 10
279.9000
 20
45.9000
 30
0.0000
  0
VERTEX
  8
16
 10
284.7000
 20
45.9000
 30
0.0000
  0
SEQEND
  8
0
  0
POLYLINE
  8
16
 66
1
 10
0.0000
 20
0.0000
 30
0.0000
 40
0.2032
 41
0.2032
 70
0
  0
VERTEX
  8
16
 10
284.7000
 20
45.7984
 30
0.0000
 42
1.0000
  0
VERTEX
  8
16
 10
284.7000
 20
46.0016
 30
0.0000
  0
SEQEND
  8
0
  0
POLYLINE
  8
16
 66
1
 10
0.0000
 20
0.0000
 30
0.0000
 40
0.2032
 41
0.2032
 70
0
  0
VERTEX
  8
16
 10
279.9000
 20
46.0016
 30
0.0000
 42
1.0000
  0
VERTEX
  8
16
 10
279.9000
 20
45.7984
 30
0.0000
  0
SEQEND
  8
0
  0
POLYLINE
  8
16
 66
1
 10
0.0000
 20
0.0000
 30
0.0000
 40
0.4064
 41
0.4064
 70
0
  0
VERTEX
  8
16
 10
277.8000
 20
43.8000
 30
0.0000
  0
VERTEX
  8
16
 10
279.9000
 20
45.9000
 30
0.0000
  0
SEQEND
  8
0
  0
POLYLINE
  8
16
 66
1
 10
0.0000
 20
0.0000
 30
0.0000
 40
0.2032
 41
0.2032
 70
0
  0
VERTEX
  8
16
 10
279.9718
 20
45.8282
 30
0.0000
 42
1.0000
  0
VERTEX
  8
16
 10
279.8282
 20
45.9718
 30
0.0000
  0
SEQEND
  8
0
  0
POLYLINE
  8
16
 66
1
 10
0.0000
 20
0.0000
 30
0.0000
 40
0.2032
 41
0.2032
 70
0
  0
VERTEX
  8
16
 10
277.7282
 20
43.8718
 30
0.0000
 42
1.0000
  0
VERTEX
  8
16
 10
277.8718
 20
43.7282
 30
0.0000
  0
SEQEND
  8
0
  0
POLYLINE
  8
16
 66
1
 10
0.0000
 20
0.0000
 30
0.0000
 40
0.4064
 41
0.4064
 70
0
  0
VERTEX
  8
16
 10
277.8000
 20
20.5000
 30
0.0000
  0
VERTEX
  8
16
 10
277.8000
 20
43.8000
 30
0.0000
  0
SEQEND
  8
0
  0
POLYLINE
  8
16
 66
1
 10
0.0000
 20
0.0000
 30
0.0000
 40
0.2032
 41
0.2032
 70
0
  0
VERTEX
  8
16
 10
277.9016
 20
43.8000
 30
0.0000
 42
1.0000
  0
VERTEX
  8
16
 10
277.6984
 20
43.8000
 30
0.0000
  0
SEQEND
  8
0
  0
POLYLINE
  8
16
 66
1
 10
0.0000
 20
0.0000
 30
0.0000
 40
0.2032
 41
0.2032
 70
0
  0
VERTEX
  8
16
 10
277.6984
 20
20.5000
 30
0.0000
 42
1.0000
  0
VERTEX
  8
16
 10
277.9016
 20
20.5000
 30
0.0000
  0
SEQEND
  8
0
  0
POLYLINE
  8
16
 66
1
 10
0.0000
 20
0.0000
 30
0.0000
 40
0.4064
 41
0.4064
 70
0
  0
VERTEX
  8
16
 10
283.6000
 20
56.6000
 30
0.0000
  0
VERTEX
  8
16
 10
25.9000
 20
56.6000
 30
0.0000
  0
SEQEND
  8
0
  0
POLYLINE
  8
16
 66
1
 10
0.0000
 20
0.0000
 30
0.0000
 40
0.2032
 41
0.2032
 70
0
  0
VERTEX
  8
16
 10
25.9000
 20
56.7016
 30
0.0000
 42
1.0000
  0
VERTEX
  8
16
 10
25.9000
 20
56.4984
 30
0.0000
  0
SEQEND
  8
0
  0
POLYLINE
  8
16
 66
1
 10
0.0000
 20
0.0000
 30
0.0000
 40
0.2032
 41
0.2032
 70
0
  0
VERTEX
  8
16
 10
283.6000
 20
56.4984
 30
0.0000
 42
1.0000
  0
VERTEX
  8
16
 10
283.6000
 20
56.7016
 30
0.0000
  0
SEQEND
  8
0
  0
POLYLINE
  8
16
 66
1
 10
0.0000
 20
0.0000
 30
0.0000
 40
0.4064
 41
0.4064
 70
0
  0
VERTEX
  8
16
 10
25.9000
 20
56.6000
 30
0.0000
  0
VERTEX
  8
16
 10
14.2500
 20
44.9500
 30
0.0000
  0
SEQEND
  8
0
  0
POLYLINE
  8
16
 66
1
 10
0.0000
 20
0.0000
 30
0.0000
 40
0.2032
 41
0.2032
 70
0
  0
VERTEX
  8
16
 10
14.1782
 20
45.0218
 30
0.0000
 42
1.0000
  0
VERTEX
  8
16
 10
14.3218
 20
44.8782
 30
0.0000
  0
SEQEND
  8
0
  0
POLYLINE
  8
16
 66
1
 10
0.0000
 20
0.0000
 30
0.0000
 40
0.2032
 41
0.2032
 70
0
  0
VERTEX
  8
16
 10
25.9718
 20
56.5282
 30
0.0000
 42
1.0000
  0
VERTEX
  8
16
 10
25.8282
 20
56.6718
 30
0.0000
  0
SEQEND
  8
0
  0
POLYLINE
  8
16
 66
1
 10
0.0000
 20
0.0000
 30
0.0000
 40
0.4064
 41
0.4064
 70
0
  0
VERTEX
  8
16
 10
14.2500
 20
44.9500
 30
0.0000
  0
VERTEX
  8
16
 10
14.2500
 20
33.0100
 30
0.0000
  0
SEQEND
  8
0
  0
POLYLINE
  8
16
 66
1
 10
0.0000
 20
0.0000
 30
0.0000
 40
0.2032
 41
0.2032
 70
0
  0
VERTEX
  8
16
 10
14.1484
 20
33.0100
 30
0.0000
 42
1.0000
  0
VERTEX
  8
16
 10
14.3516
 20
33.0100
 30
0.0000
  0
SEQEND
  8
0
  0
POLYLINE
  8
16
 66
1
 10
0.0000
 20
0.0000
 30
0.0000
 40
0.2032
 41
0.2032
 70
0
  0
VERTEX
  8
16
 10
14.3516
 20
44.9500
 30
0.0000
 42
1.0000
  0
VERTEX
  8
16
 10
14.1484
 20
44.9500
 30
0.0000
  0
SEQEND
  8
0
  0
POLYLINE
  8
16
 66
1
 10
0.0000
 20
0.0000
 30
0.0000
 40
0.4064
 41
0.4064
 70
0
  0
VERTEX
  8
16
 10
286.0000
 20
54.2000
 30
0.0000
  0
VERTEX
  8
16
 10
283.6000
 20
56.6000
 30
0.0000
  0
SEQEND
  8
0
  0
POLYLINE
  8
16
 66
1
 10
0.0000
 20
0.0000
 30
0.0000
 40
0.2032
 41
0.2032
 70
0
  0
VERTEX
  8
16
 10
283.6718
 20
56.6718
 30
0.0000
 42
1.0000
  0
VERTEX
  8
16
 10
283.5282
 20
56.5282
 30
0.0000
  0
SEQEND
  8
0
  0
POLYLINE
  8
16
 66
1
 10
0.0000
 20
0.0000
 30
0.0000
 40
0.2032
 41
0.2032
 70
0
  0
VERTEX
  8
16
 10
285.9282
 20
54.1282
 30
0.0000
 42
1.0000
  0
VERTEX
  8
16
 10
286.0718
 20
54.2718
 30
0.0000
  0
SEQEND
  8
0
  0
POLYLINE
  8
16
 66
1
 10
0.0000
 20
0.0000
 30
0.0000
 40
0.4064
 41
0.4064
 70
0
  0
VERTEX
  8
16
 10
79.6000
 20
19.4000
 30
0.0000
  0
VERTEX
  8
16
 10
79.6000
 20
46.0000
 30
0.0000
  0
SEQEND
  8
0
  0
POLYLINE
  8
16
 66
1
 10
0.0000
 20
0.0000
 30
0.0000
 40
0.2032
 41
0.2032
 70
0
  0
VERTEX
  8
16
 10
79.7016
 20
46.0000
 30
0.0000
 42
1.0000
  0
VERTEX
  8
16
 10
79.4984
 20
46.0000
 30
0.0000
  0
SEQEND
  8
0
  0
POLYLINE
  8
16
 66
1
 10
0.0000
 20
0.0000
 30
0.0000
 40
0.2032
 41
0.2032
 70
0
  0
VERTEX
  8
16
 10
79.4984
 20
19.4000
 30
0.0000
 42
1.0000
  0
VERTEX
  8
16
 10
79.7016
 20
19.4000
 30
0.0000
  0
SEQEND
  8
0
  0
POLYLINE
  8
16
 66
1
 10
0.0000
 20
0.0000
 30
0.0000
 40
0.4064
 41
0.4064
 70
0
  0
VERTEX
  8
16
 10
79.6000
 20
46.0000
 30
0.0000
  0
VERTEX
  8
16
 10
75.3000
 20
50.3000
 30
0.0000
  0
SEQEND
  8
0
  0
POLYLINE
  8
16
 66
1
 10
0.0000
 20
0.0000
 30
0.0000
 40
0.2032
 41
0.2032
 70
0
  0
VERTEX
  8
16
 10
75.3718
 20
50.3718
 30
0.0000
 42
1.0000
  0
VERTEX
  8
16
 10
75.2282
 20
50.2282
 30
0.0000
  0
SEQEND
  8
0
  0
POLYLINE
  8
16
 66
1
 10
0.0000
 20
0.0000
 30
0.0000
 40
0.2032
 41
0.2032
 70
0
  0
VERTEX
  8
16
 10
79.5282
 20
45.9282
 30
0.0000
 42
1.0000
  0
VERTEX
  8
16
 10
79.6718
 20
46.0718
 30
0.0000
  0
SEQEND
  8
0
  0
POLYLINE
  8
16
 66
1
 10
0.0000
 20
0.0000
 30
0.0000
 40
0.4064
 41
0.4064
 70
0
  0
VERTEX
  8
16
 10
75.3000
 20
50.3000
 30
0.0000
  0
VERTEX
  8
16
 10
72.8000
 20
50.3000
 30
0.0000
  0
SEQEND
  8
0
  0
POLYLINE
  8
16
 66
1
 10
0.0000
 20
0.0000
 30
0.0000
 40
0.2032
 41
0.2032
 70
0
  0
VERTEX
  8
16
 10
72.8000
 20
50.4016
 30
0.0000
 42
1.0000
  0
VERTEX
  8
16
 10
72.8000
 20
50.1984
 30
0.0000
  0
SEQEND
  8
0
  0
POLYLINE
  8
16
 66
1
 10
0.0000
 20
0.0000
 30
0.0000
 40
0.2032
 41
0.2032
 70
0
  0
VERTEX
  8
16
 10
75.3000
 20
50.1984
 30
0.0000
 42
1.0000
  0
VERTEX
  8
16
 10
75.3000
 20
50.4016
 30
0.0000
  0
SEQEND
  8
0
  0
POLYLINE
  8
16
 66
1
 10
0.0000
 20
0.0000
 30
0.0000
 40
0.4064
 41
0.4064
 70
0
  0
VERTEX
  8
16
 10
72.8000
 20
50.3000
 30
0.0000
  0
VERTEX
  8
16
 10
61.3000
 20
38.8000
 30
0.0000
  0
SEQEND
  8
0
  0
POLYLINE
  8
16
 66
1
 10
0.0000
 20
0.0000
 30
0.0000
 40
0.2032
 41
0.2032
 70
0
  0
VERTEX
  8
16
 10
61.2282
 20
38.8718
 30
0.0000
 42
1.0000
  0
VERTEX
  8
16
 10
61.3718
 20
38.7282
 30
0.0000
  0
SEQEND
  8
0
  0
POLYLINE
  8
16
 66
1
 10
0.0000
 20
0.0000
 30
0.0000
 40
0.2032
 41
0.2032
 70
0
  0
VERTEX
  8
16
 10
72.8718
 20
50.2282
 30
0.0000
 42
1.0000
  0
VERTEX
  8
16
 10
72.7282
 20
50.3718
 30
0.0000
  0
SEQEND
  8
0
  0
POLYLINE
  8
16
 66
1
 10
0.0000
 20
0.0000
 30
0.0000
 40
0.4064
 41
0.4064
 70
0
  0
VERTEX
  8
16
 10
61.3000
 20
38.8000
 30
0.0000
  0
VERTEX
  8
16
 10
61.3000
 20
10.4000
 30
0.0000
  0
SEQEND
  8
0
  0
POLYLINE
  8
16
 66
1
 10
0.0000
 20
0.0000
 30
0.0000
 40
0.2032
 41
0.2032
 70
0
  0
VERTEX
  8
16
 10
61.1984
 20
10.4000
 30
0.0000
 42
1.0000
  0
VERTEX
  8
16
 10
61.4016
 20
10.4000
 30
0.0000
  0
SEQEND
  8
0
  0
POLYLINE
  8
16
 66
1
 10
0.0000
 20
0.0000
 30
0.0000
 40
0.2032
 41
0.2032
 70
0
  0
VERTEX
  8
16
 10
61.4016
 20
38.8000
 30
0.0000
 42
1.0000
  0
VERTEX
  8
16
 10
61.1984
 20
38.8000
 30
0.0000
  0
SEQEND
  8
0
  0
POLYLINE
  8
16
 66
1
 10
0.0000
 20
0.0000
 30
0.0000
 40
0.4064
 41
0.4064
 70
0
  0
VERTEX
  8
16
 10
61.3000
 20
10.4000
 30
0.0000
  0
VERTEX
  8
16
 10
58.8000
 20
7.9000
 30
0.0000
  0
SEQEND
  8
0
  0
POLYLINE
  8
16
 66
1
 10
0.0000
 20
0.0000
 30
0.0000
 40
0.2032
 41
0.2032
 70
0
  0
VERTEX
  8
16
 10
58.7282
 20
7.9718
 30
0.0000
 42
1.0000
  0
VERTEX
  8
16
 10
58.8718
 20
7.8282
 30
0.0000
  0
SEQEND
  8
0
  0
POLYLINE
  8
16
 66
1
 10
0.0000
 20
0.0000
 30
0.0000
 40
0.2032
 41
0.2032
 70
0
  0
VERTEX
  8
16
 10
61.3718
 20
10.3282
 30
0.0000
 42
1.0000
  0
VERTEX
  8
16
 10
61.2282
 20
10.4718
 30
0.0000
  0
SEQEND
  8
0
  0
POLYLINE
  8
16
 66
1
 10
0.0000
 20
0.0000
 30
0.0000
 40
0.4064
 41
0.4064
 70
0
  0
VERTEX
  8
16
 10
58.8000
 20
7.9000
 30
0.0000
  0
VERTEX
  8
16
 10
56.2000
 20
7.9000
 30
0.0000
  0
SEQEND
  8
0
  0
POLYLINE
  8
16
 66
1
 10
0.0000
 20
0.0000
 30
0.0000
 40
0.2032
 41
0.2032
 70
0
  0
VERTEX
  8
16
 10
56.2000
 20
8.0016
 30
0.0000
 42
1.0000
  0
VERTEX
  8
16
 10
56.2000
 20
7.7984
 30
0.0000
  0
SEQEND
  8
0
  0
POLYLINE
  8
16
 66
1
 10
0.0000
 20
0.0000
 30
0.0000
 40
0.2032
 41
0.2032
 70
0
  0
VERTEX
  8
16
 10
58.8000
 20
7.7984
 30
0.0000
 42
1.0000
  0
VERTEX
  8
16
 10
58.8000
 20
8.0016
 30
0.0000
  0
SEQEND
  8
0
  0
POLYLINE
  8
16
 66
1
 10
0.0000
 20
0.0000
 30
0.0000
 40
0.4064
 41
0.4064
 70
0
  0
VERTEX
  8
16
 10
56.2000
 20
7.9000
 30
0.0000
  0
VERTEX
  8
16
 10
54.3000
 20
9.8000
 30
0.0000
  0
SEQEND
  8
0
  0
POLYLINE
  8
16
 66
1
 10
0.0000
 20
0.0000
 30
0.0000
 40
0.2032
 41
0.2032
 70
0
  0
VERTEX
  8
16
 10
54.3718
 20
9.8718
 30
0.0000
 42
1.0000
  0
VERTEX
  8
16
 10
54.2282
 20
9.7282
 30
0.0000
  0
SEQEND
  8
0
  0
POLYLINE
  8
16
 66
1
 10
0.0000
 20
0.0000
 30
0.0000
 40
0.2032
 41
0.2032
 70
0
  0
VERTEX
  8
16
 10
56.1282
 20
7.8282
 30
0.0000
 42
1.0000
  0
VERTEX
  8
16
 10
56.2718
 20
7.9718
 30
0.0000
  0
SEQEND
  8
0
  0
POLYLINE
  8
16
 66
1
 10
0.0000
 20
0.0000
 30
0.0000
 40
0.4064
 41
0.4064
 70
0
  0
VERTEX
  8
16
 10
54.3000
 20
9.8000
 30
0.0000
  0
VERTEX
  8
16
 10
54.3000
 20
38.8000
 30
0.0000
  0
SEQEND
  8
0
  0
POLYLINE
  8
16
 66
1
 10
0.0000
 20
0.0000
 30
0.0000
 40
0.2032
 41
0.2032
 70
0
  0
VERTEX
  8
16
 10
54.4016
 20
38.8000
 30
0.0000
 42
1.0000
  0
VERTEX
  8
16
 10
54.1984
 20
38.8000
 30
0.0000
  0
SEQEND
  8
0
  0
POLYLINE
  8
16
 66
1
 10
0.0000
 20
0.0000
 30
0.0000
 40
0.2032
 41
0.2032
 70
0
  0
VERTEX
  8
16
 10
54.1984
 20
9.8000
 30
0.0000
 42
1.0000
  0
VERTEX
  8
16
 10
54.4016
 20
9.8000
 30
0.0000
  0
SEQEND
  8
0
  0
POLYLINE
  8
16
 66
1
 10
0.0000
 20
0.0000
 30
0.0000
 40
0.4064
 41
0.4064
 70
0
  0
VERTEX
  8
16
 10
54.3000
 20
38.8000
 30
0.0000
  0
VERTEX
  8
16
 10
65.2000
 20
49.7000
 30
0.0000
  0
SEQEND
  8
0
  0
POLYLINE
  8
16
 66
1
 10
0.0000
 20
0.0000
 30
0.0000
 40
0.2032
 41
0.2032
 70
0
  0
VERTEX
  8
16
 10
65.2718
 20
49.6282
 30
0.0000
 42
1.0000
  0
VERTEX
  8
16
 10
65.1282
 20
49.7718
 30
0.0000
  0
SEQEND
  8
0
  0
POLYLINE
  8
16
 66
1
 10
0.0000
 20
0.0000
 30
0.0000
 40
0.2032
 41
0.2032
 70
0
  0
VERTEX
  8
16
 10
54.2282
 20
38.8718
 30
0.0000
 42
1.0000
  0
VERTEX
  8
16
 10
54.3718
 20
38.7282
 30
0.0000
  0
SEQEND
  8
0
  0
POLYLINE
  8
16
 66
1
 10
0.0000
 20
0.0000
 30
0.0000
 40
0.4064
 41
0.4064
 70
0
  0
VERTEX
  8
16
 10
65.2000
 20
49.7000
 30
0.0000
  0
VERTEX
  8
16
 10
65.2000
 20
51.5000
 30
0.0000
  0
SEQEND
  8
0
  0
POLYLINE
  8
16
 66
1
 10
0.0000
 20
0.0000
 30
0.0000
 40
0.2032
 41
0.2032
 70
0
  0
VERTEX
  8
16
 10
65.3016
 20
51.5000
 30
0.0000
 42
1.0000
  0
VERTEX
  8
16
 10
65.0984
 20
51.5000
 30
0.0000
  0
SEQEND
  8
0
  0
POLYLINE
  8
16
 66
1
 10
0.0000
 20
0.0000
 30
0.0000
 40
0.2032
 41
0.2032
 70
0
  0
VERTEX
  8
16
 10
65.0984
 20
49.7000
 30
0.0000
 42
1.0000
  0
VERTEX
  8
16
 10
65.3016
 20
49.7000
 30
0.0000
  0
SEQEND
  8
0
  0
POLYLINE
  8
16
 66
1
 10
0.0000
 20
0.0000
 30
0.0000
 40
0.4064
 41
0.4064
 70
0
  0
VERTEX
  8
16
 10
65.2000
 20
51.5000
 30
0.0000
  0
VERTEX
  8
16
 10
63.8000
 20
52.9000
 30
0.0000
  0
SEQEND
  8
0
  0
POLYLINE
  8
16
 66
1
 10
0.0000
 20
0.0000
 30
0.0000
 40
0.2032
 41
0.2032
 70
0
  0
VERTEX
  8
16
 10
63.8718
 20
52.9718
 30
0.0000
 42
1.0000
  0
VERTEX
  8
16
 10
63.7282
 20
52.8282
 30
0.0000
  0
SEQEND
  8
0
  0
POLYLINE
  8
16
 66
1
 10
0.0000
 20
0.0000
 30
0.0000
 40
0.2032
 41
0.2032
 70
0
  0
VERTEX
  8
16
 10
65.1282
 20
51.4282
 30
0.0000
 42
1.0000
  0
VERTEX
  8
16
 10
65.2718
 20
51.5718
 30
0.0000
  0
SEQEND
  8
0
  0
POLYLINE
  8
16
 66
1
 10
0.0000
 20
0.0000
 30
0.0000
 40
0.4064
 41
0.4064
 70
0
  0
VERTEX
  8
16
 10
63.8000
 20
52.9000
 30
0.0000
  0
VERTEX
  8
16
 10
62.7000
 20
52.9000
 30
0.0000
  0
SEQEND
  8
0
  0
POLYLINE
  8
16
 66
1
 10
0.0000
 20
0.0000
 30
0.0000
 40
0.2032
 41
0.2032
 70
0
  0
VERTEX
  8
16
 10
62.7000
 20
53.0016
 30
0.0000
 42
1.0000
  0
VERTEX
  8
16
 10
62.7000
 20
52.7984
 30
0.0000
  0
SEQEND
  8
0
  0
POLYLINE
  8
16
 66
1
 10
0.0000
 20
0.0000
 30
0.0000
 40
0.2032
 41
0.2032
 70
0
  0
VERTEX
  8
16
 10
63.8000
 20
52.7984
 30
0.0000
 42
1.0000
  0
VERTEX
  8
16
 10
63.8000
 20
53.0016
 30
0.0000
  0
SEQEND
  8
0
  0
POLYLINE
  8
16
 66
1
 10
0.0000
 20
0.0000
 30
0.0000
 40
0.4064
 41
0.4064
 70
0
  0
VERTEX
  8
16
 10
62.7000
 20
52.9000
 30
0.0000
  0
VERTEX
  8
16
 10
51.5000
 20
41.7000
 30
0.0000
  0
SEQEND
  8
0
  0
POLYLINE
  8
16
 66
1
 10
0.0000
 20
0.0000
 30
0.0000
 40
0.2032
 41
0.2032
 70
0
  0
VERTEX
  8
16
 10
51.4282
 20
41.7718
 30
0.0000
 42
1.0000
  0
VERTEX
  8
16
 10
51.5718
 20
41.6282
 30
0.0000
  0
SEQEND
  8
0
  0
POLYLINE
  8
16
 66
1
 10
0.0000
 20
0.0000
 30
0.0000
 40
0.2032
 41
0.2032
 70
0
  0
VERTEX
  8
16
 10
62.7718
 20
52.8282
 30
0.0000
 42
1.0000
  0
VERTEX
  8
16
 10
62.6282
 20
52.9718
 30
0.0000
  0
SEQEND
  8
0
  0
POLYLINE
  8
16
 66
1
 10
0.0000
 20
0.0000
 30
0.0000
 40
0.4064
 41
0.4064
 70
0
  0
VERTEX
  8
16
 10
51.5000
 20
41.7000
 30
0.0000
  0
VERTEX
  8
16
 10
51.5000
 20
12.6000
 30
0.0000
  0
SEQEND
  8
0
  0
POLYLINE
  8
16
 66
1
 10
0.0000
 20
0.0000
 30
0.0000
 40
0.2032
 41
0.2032
 70
0
  0
VERTEX
  8
16
 10
51.3984
 20
12.6000
 30
0.0000
 42
1.0000
  0
VERTEX
  8
16
 10
51.6016
 20
12.6000
 30
0.0000
  0
SEQEND
  8
0
  0
POLYLINE
  8
16
 66
1
 10
0.0000
 20
0.0000
 30
0.0000
 40
0.2032
 41
0.2032
 70
0
  0
VERTEX
  8
16
 10
51.6016
 20
41.7000
 30
0.0000
 42
1.0000
  0
VERTEX
  8
16
 10
51.3984
 20
41.7000
 30
0.0000
  0
SEQEND
  8
0
  0
POLYLINE
  8
16
 66
1
 10
0.0000
 20
0.0000
 30
0.0000
 40
0.4064
 41
0.4064
 70
0
  0
VERTEX
  8
16
 10
51.5000
 20
12.6000
 30
0.0000
  0
VERTEX
  8
16
 10
49.7000
 20
10.8000
 30
0.0000
  0
SEQEND
  8
0
  0
POLYLINE
  8
16
 66
1
 10
0.0000
 20
0.0000
 30
0.0000
 40
0.2032
 41
0.2032
 70
0
  0
VERTEX
  8
16
 10
49.6282
 20
10.8718
 30
0.0000
 42
1.0000
  0
VERTEX
  8
16
 10
49.7718
 20
10.7282
 30
0.0000
  0
SEQEND
  8
0
  0
POLYLINE
  8
16
 66
1
 10
0.0000
 20
0.0000
 30
0.0000
 40
0.2032
 41
0.2032
 70
0
  0
VERTEX
  8
16
 10
51.5718
 20
12.5282
 30
0.0000
 42
1.0000
  0
VERTEX
  8
16
 10
51.4282
 20
12.6718
 30
0.0000
  0
SEQEND
  8
0
  0
POLYLINE
  8
16
 66
1
 10
0.0000
 20
0.0000
 30
0.0000
 40
0.4064
 41
0.4064
 70
0
  0
VERTEX
  8
16
 10
49.7000
 20
10.8000
 30
0.0000
  0
VERTEX
  8
16
 10
47.5000
 20
10.8000
 30
0.0000
  0
SEQEND
  8
0
  0
POLYLINE
  8
16
 66
1
 10
0.0000
 20
0.0000
 30
0.0000
 40
0.2032
 41
0.2032
 70
0
  0
VERTEX
  8
16
 10
47.5000
 20
10.9016
 30
0.0000
 42
1.0000
  0
VERTEX
  8
16
 10
47.5000
 20
10.6984
 30
0.0000
  0
SEQEND
  8
0
  0
POLYLINE
  8
16
 66
1
 10
0.0000
 20
0.0000
 30
0.0000
 40
0.2032
 41
0.2032
 70
0
  0
VERTEX
  8
16
 10
49.7000
 20
10.6984
 30
0.0000
 42
1.0000
  0
VERTEX
  8
16
 10
49.7000
 20
10.9016
 30
0.0000
  0
SEQEND
  8
0
  0
POLYLINE
  8
16
 66
1
 10
0.0000
 20
0.0000
 30
0.0000
 40
0.4064
 41
0.4064
 70
0
  0
VERTEX
  8
16
 10
47.5000
 20
10.8000
 30
0.0000
  0
VERTEX
  8
16
 10
45.8000
 20
12.5000
 30
0.0000
  0
SEQEND
  8
0
  0
POLYLINE
  8
16
 66
1
 10
0.0000
 20
0.0000
 30
0.0000
 40
0.2032
 41
0.2032
 70
0
  0
VERTEX
  8
16
 10
45.8718
 20
12.5718
 30
0.0000
 42
1.0000
  0
VERTEX
  8
16
 10
45.7282
 20
12.4282
 30
0.0000
  0
SEQEND
  8
0
  0
POLYLINE
  8
16
 66
1
 10
0.0000
 20
0.0000
 30
0.0000
 40
0.2032
 41
0.2032
 70
0
  0
VERTEX
  8
16
 10
47.4282
 20
10.7282
 30
0.0000
 42
1.0000
  0
VERTEX
  8
16
 10
47.5718
 20
10.8718
 30
0.0000
  0
SEQEND
  8
0
  0
POLYLINE
  8
16
 66
1
 10
0.0000
 20
0.0000
 30
0.0000
 40
0.4064
 41
0.4064
 70
0
  0
VERTEX
  8
16
 10
45.8000
 20
12.5000
 30
0.0000
  0
VERTEX
  8
16
 10
45.8000
 20
41.8000
 30
0.0000
  0
SEQEND
  8
0
  0
POLYLINE
  8
16
 66
1
 10
0.0000
 20
0.0000
 30
0.0000
 40
0.2032
 41
0.2032
 70
0
  0
VERTEX
  8
16
 10
45.9016
 20
41.8000
 30
0.0000
 42
1.0000
  0
VERTEX
  8
16
 10
45.6984
 20
41.8000
 30
0.0000
  0
SEQEND
  8
0
  0
POLYLINE
  8
16
 66
1
 10
0.0000
 20
0.0000
 30
0.0000
 40
0.2032
 41
0.2032
 70
0
  0
VERTEX
  8
16
 10
45.6984
 20
12.5000
 30
0.0000
 42
1.0000
  0
VERTEX
  8
16
 10
45.9016
 20
12.5000
 30
0.0000
  0
SEQEND
  8
0
  0
POLYLINE
  8
16
 66
1
 10
0.0000
 20
0.0000
 30
0.0000
 40
0.4064
 41
0.4064
 70
0
  0
VERTEX
  8
16
 10
45.8000
 20
41.8000
 30
0.0000
  0
VERTEX
  8
16
 10
53.0000
 20
49.0000
 30
0.0000
  0
SEQEND
  8
0
  0
POLYLINE
  8
16
 66
1
 10
0.0000
 20
0.0000
 30
0.0000
 40
0.2032
 41
0.2032
 70
0
  0
VERTEX
  8
16
 10
53.0718
 20
48.9282
 30
0.0000
 42
1.0000
  0
VERTEX
  8
16
 10
52.9282
 20
49.0718
 30
0.0000
  0
SEQEND
  8
0
  0
POLYLINE
  8
16
 66
1
 10
0.0000
 20
0.0000
 30
0.0000
 40
0.2032
 41
0.2032
 70
0
  0
VERTEX
  8
16
 10
45.7282
 20
41.8718
 30
0.0000
 42
1.0000
  0
VERTEX
  8
16
 10
45.8718
 20
41.7282
 30
0.0000
  0
SEQEND
  8
0
  0
POLYLINE
  8
16
 66
1
 10
0.0000
 20
0.0000
 30
0.0000
 40
0.4064
 41
0.4064
 70
0
  0
VERTEX
  8
16
 10
53.0000
 20
49.0000
 30
0.0000
  0
VERTEX
  8
16
 10
53.0000
 20
51.2000
 30
0.0000
  0
SEQEND
  8
0
  0
POLYLINE
  8
16
 66
1
 10
0.0000
 20
0.0000
 30
0.0000
 40
0.2032
 41
0.2032
 70
0
  0
VERTEX
  8
16
 10
53.1016
 20
51.2000
 30
0.0000
 42
1.0000
  0
VERTEX
  8
16
 10
52.8984
 20
51.2000
 30
0.0000
  0
SEQEND
  8
0
  0
POLYLINE
  8
16
 66
1
 10
0.0000
 20
0.0000
 30
0.0000
 40
0.2032
 41
0.2032
 70
0
  0
VERTEX
  8
16
 10
52.8984
 20
49.0000
 30
0.0000
 42
1.0000
  0
VERTEX
  8
16
 10
53.1016
 20
49.0000
 30
0.0000
  0
SEQEND
  8
0
  0
POLYLINE
  8
16
 66
1
 10
0.0000
 20
0.0000
 30
0.0000
 40
0.4064
 41
0.4064
 70
0
  0
VERTEX
  8
16
 10
53.0000
 20
51.2000
 30
0.0000
  0
VERTEX
  8
16
 10
51.4000
 20
52.8000
 30
0.0000
  0
SEQEND
  8
0
  0
POLYLINE
  8
16
 66
1
 10
0.0000
 20
0.0000
 30
0.0000
 40
0.2032
 41
0.2032
 70
0
  0
VERTEX
  8
16
 10
51.4718
 20
52.8718
 30
0.0000
 42
1.0000
  0
VERTEX
  8
16
 10
51.3282
 20
52.7282
 30
0.0000
  0
SEQEND
  8
0
  0
POLYLINE
  8
16
 66
1
 10
0.0000
 20
0.0000
 30
0.0000
 40
0.2032
 41
0.2032
 70
0
  0
VERTEX
  8
16
 10
52.9282
 20
51.1282
 30
0.0000
 42
1.0000
  0
VERTEX
  8
16
 10
53.0718
 20
51.2718
 30
0.0000
  0
SEQEND
  8
0
  0
POLYLINE
  8
16
 66
1
 10
0.0000
 20
0.0000
 30
0.0000
 40
0.4064
 41
0.4064
 70
0
  0
VERTEX
  8
16
 10
51.4000
 20
52.8000
 30
0.0000
  0
VERTEX
  8
16
 10
50.1000
 20
52.8000
 30
0.0000
  0
SEQEND
  8
0
  0
POLYLINE
  8
16
 66
1
 10
0.0000
 20
0.0000
 30
0.0000
 40
0.2032
 41
0.2032
 70
0
  0
VERTEX
  8
16
 10
50.1000
 20
52.9016
 30
0.0000
 42
1.0000
  0
VERTEX
  8
16
 10
50.1000
 20
52.6984
 30
0.0000
  0
SEQEND
  8
0
  0
POLYLINE
  8
16
 66
1
 10
0.0000
 20
0.0000
 30
0.0000
 40
0.2032
 41
0.2032
 70
0
  0
VERTEX
  8
16
 10
51.4000
 20
52.6984
 30
0.0000
 42
1.0000
  0
VERTEX
  8
16
 10
51.4000
 20
52.9016
 30
0.0000
  0
SEQEND
  8
0
  0
POLYLINE
  8
16
 66
1
 10
0.0000
 20
0.0000
 30
0.0000
 40
0.4064
 41
0.4064
 70
0
  0
VERTEX
  8
16
 10
50.1000
 20
52.8000
 30
0.0000
  0
VERTEX
  8
16
 10
41.0000
 20
43.7000
 30
0.0000
  0
SEQEND
  8
0
  0
POLYLINE
  8
16
 66
1
 10
0.0000
 20
0.0000
 30
0.0000
 40
0.2032
 41
0.2032
 70
0
  0
VERTEX
  8
16
 10
40.9282
 20
43.7718
 30
0.0000
 42
1.0000
  0
VERTEX
  8
16
 10
41.0718
 20
43.6282
 30
0.0000
  0
SEQEND
  8
0
  0
POLYLINE
  8
16
 66
1
 10
0.0000
 20
0.0000
 30
0.0000
 40
0.2032
 41
0.2032
 70
0
  0
VERTEX
  8
16
 10
50.1718
 20
52.7282
 30
0.0000
 42
1.0000
  0
VERTEX
  8
16
 10
50.0282
 20
52.8718
 30
0.0000
  0
SEQEND
  8
0
  0
POLYLINE
  8
16
 66
1
 10
0.0000
 20
0.0000
 30
0.0000
 40
0.4064
 41
0.4064
 70
0
  0
VERTEX
  8
16
 10
41.0000
 20
43.7000
 30
0.0000
  0
VERTEX
  8
16
 10
41.0000
 20
33.1000
 30
0.0000
  0
SEQEND
  8
0
  0
POLYLINE
  8
16
 66
1
 10
0.0000
 20
0.0000
 30
0.0000
 40
0.2032
 41
0.2032
 70
0
  0
VERTEX
  8
16
 10
40.8984
 20
33.1000
 30
0.0000
 42
1.0000
  0
VERTEX
  8
16
 10
41.1016
 20
33.1000
 30
0.0000
  0
SEQEND
  8
0
  0
POLYLINE
  8
16
 66
1
 10
0.0000
 20
0.0000
 30
0.0000
 40
0.2032
 41
0.2032
 70
0
  0
VERTEX
  8
16
 10
41.1016
 20
43.7000
 30
0.0000
 42
1.0000
  0
VERTEX
  8
16
 10
40.8984
 20
43.7000
 30
0.0000
  0
SEQEND
  8
0
  0
POLYLINE
  8
16
 66
1
 10
0.0000
 20
0.0000
 30
0.0000
 40
0.4064
 41
0.4064
 70
0
  0
VERTEX
  8
16
 10
41.0000
 20
33.1000
 30
0.0000
  0
VERTEX
  8
16
 10
39.6000
 20
31.7000
 30
0.0000
  0
SEQEND
  8
0
  0
POLYLINE
  8
16
 66
1
 10
0.0000
 20
0.0000
 30
0.0000
 40
0.2032
 41
0.2032
 70
0
  0
VERTEX
  8
16
 10
39.5282
 20
31.7718
 30
0.0000
 42
1.0000
  0
VERTEX
  8
16
 10
39.6718
 20
31.6282
 30
0.0000
  0
SEQEND
  8
0
  0
POLYLINE
  8
16
 66
1
 10
0.0000
 20
0.0000
 30
0.0000
 40
0.2032
 41
0.2032
 70
0
  0
VERTEX
  8
16
 10
41.0718
 20
33.0282
 30
0.0000
 42
1.0000
  0
VERTEX
  8
16
 10
40.9282
 20
33.1718
 30
0.0000
  0
SEQEND
  8
0
  0
POLYLINE
  8
16
 66
1
 10
0.0000
 20
0.0000
 30
0.0000
 40
0.4064
 41
0.4064
 70
0
  0
VERTEX
  8
16
 10
39.6000
 20
31.7000
 30
0.0000
  0
VERTEX
  8
16
 10
37.6000
 20
31.7000
 30
0.0000
  0
SEQEND
  8
0
  0
POLYLINE
  8
16
 66
1
 10
0.0000
 20
0.0000
 30
0.0000
 40
0.2032
 41
0.2032
 70
0
  0
VERTEX
  8
16
 10
37.6000
 20
31.8016
 30
0.0000
 42
1.0000
  0
VERTEX
  8
16
 10
37.6000
 20
31.5984
 30
0.0000
  0
SEQEND
  8
0
  0
POLYLINE
  8
16
 66
1
 10
0.0000
 20
0.0000
 30
0.0000
 40
0.2032
 41
0.2032
 70
0
  0
VERTEX
  8
16
 10
39.6000
 20
31.5984
 30
0.0000
 42
1.0000
  0
VERTEX
  8
16
 10
39.6000
 20
31.8016
 30
0.0000
  0
SEQEND
  8
0
  0
POLYLINE
  8
16
 66
1
 10
0.0000
 20
0.0000
 30
0.0000
 40
0.4064
 41
0.4064
 70
0
  0
VERTEX
  8
16
 10
37.6000
 20
31.7000
 30
0.0000
  0
VERTEX
  8
16
 10
34.6000
 20
34.7000
 30
0.0000
  0
SEQEND
  8
0
  0
POLYLINE
  8
16
 66
1
 10
0.0000
 20
0.0000
 30
0.0000
 40
0.2032
 41
0.2032
 70
0
  0
VERTEX
  8
16
 10
34.6718
 20
34.7718
 30
0.0000
 42
1.0000
  0
VERTEX
  8
16
 10
34.5282
 20
34.6282
 30
0.0000
  0
SEQEND
  8
0
  0
POLYLINE
  8
16
 66
1
 10
0.0000
 20
0.0000
 30
0.0000
 40
0.2032
 41
0.2032
 70
0
  0
VERTEX
  8
16
 10
37.5282
 20
31.6282
 30
0.0000
 42
1.0000
  0
VERTEX
  8
16
 10
37.6718
 20
31.7718
 30
0.0000
  0
SEQEND
  8
0
  0
POLYLINE
  8
16
 66
1
 10
0.0000
 20
0.0000
 30
0.0000
 40
0.4064
 41
0.4064
 70
0
  0
VERTEX
  8
16
 10
34.6000
 20
34.7000
 30
0.0000
  0
VERTEX
  8
16
 10
34.6000
 20
44.3000
 30
0.0000
  0
SEQEND
  8
0
  0
POLYLINE
  8
16
 66
1
 10
0.0000
 20
0.0000
 30
0.0000
 40
0.2032
 41
0.2032
 70
0
  0
VERTEX
  8
16
 10
34.7016
 20
44.3000
 30
0.0000
 42
1.0000
  0
VERTEX
  8
16
 10
34.4984
 20
44.3000
 30
0.0000
  0
SEQEND
  8
0
  0
POLYLINE
  8
16
 66
1
 10
0.0000
 20
0.0000
 30
0.0000
 40
0.2032
 41
0.2032
 70
0
  0
VERTEX
  8
16
 10
34.4984
 20
34.7000
 30
0.0000
 42
1.0000
  0
VERTEX
  8
16
 10
34.7016
 20
34.7000
 30
0.0000
  0
SEQEND
  8
0
  0
POLYLINE
  8
16
 66
1
 10
0.0000
 20
0.0000
 30
0.0000
 40
0.4064
 41
0.4064
 70
0
  0
VERTEX
  8
16
 10
34.6000
 20
44.3000
 30
0.0000
  0
VERTEX
  8
16
 10
34.6000
 20
44.4000
 30
0.0000
  0
SEQEND
  8
0
  0
POLYLINE
  8
16
 66
1
 10
0.0000
 20
0.0000
 30
0.0000
 40
0.2032
 41
0.2032
 70
0
  0
VERTEX
  8
16
 10
34.7016
 20
44.4000
 30
0.0000
 42
1.0000
  0
VERTEX
  8
16
 10
34.4984
 20
44.4000
 30
0.0000
  0
SEQEND
  8
0
  0
POLYLINE
  8
16
 66
1
 10
0.0000
 20
0.0000
 30
0.0000
 40
0.2032
 41
0.2032
 70
0
  0
VERTEX
  8
16
 10
34.4984
 20
44.3000
 30
0.0000
 42
1.0000
  0
VERTEX
  8
16
 10
34.7016
 20
44.3000
 30
0.0000
  0
SEQEND
  8
0
  0
POLYLINE
  8
16
 66
1
 10
0.0000
 20
0.0000
 30
0.0000
 40
0.4064
 41
0.4064
 70
0
  0
VERTEX
  8
16
 10
34.6000
 20
44.3000
 30
0.0000
  0
VERTEX
  8
16
 10
38.3000
 20
48.0000
 30
0.0000
  0
SEQEND
  8
0
  0
POLYLINE
  8
16
 66
1
 10
0.0000
 20
0.0000
 30
0.0000
 40
0.2032
 41
0.2032
 70
0
  0
VERTEX
  8
16
 10
38.3718
 20
47.9282
 30
0.0000
 42
1.0000
  0
VERTEX
  8
16
 10
38.2282
 20
48.0718
 30
0.0000
  0
SEQEND
  8
0
  0
POLYLINE
  8
16
 66
1
 10
0.0000
 20
0.0000
 30
0.0000
 40
0.2032
 41
0.2032
 70
0
  0
VERTEX
  8
16
 10
34.5282
 20
44.3718
 30
0.0000
 42
1.0000
  0
VERTEX
  8
16
 10
34.6718
 20
44.2282
 30
0.0000
  0
SEQEND
  8
0
  0
POLYLINE
  8
16
 66
1
 10
0.0000
 20
0.0000
 30
0.0000
 40
0.4064
 41
0.4064
 70
0
  0
VERTEX
  8
16
 10
38.3000
 20
48.0000
 30
0.0000
  0
VERTEX
  8
16
 10
38.3000
 20
50.1000
 30
0.0000
  0
SEQEND
  8
0
  0
POLYLINE
  8
16
 66
1
 10
0.0000
 20
0.0000
 30
0.0000
 40
0.2032
 41
0.2032
 70
0
  0
VERTEX
  8
16
 10
38.4016
 20
50.1000
 30
0.0000
 42
1.0000
  0
VERTEX
  8
16
 10
38.1984
 20
50.1000
 30
0.0000
  0
SEQEND
  8
0
  0
POLYLINE
  8
16
 66
1
 10
0.0000
 20
0.0000
 30
0.0000
 40
0.2032
 41
0.2032
 70
0
  0
VERTEX
  8
16
 10
38.1984
 20
48.0000
 30
0.0000
 42
1.0000
  0
VERTEX
  8
16
 10
38.4016
 20
48.0000
 30
0.0000
  0
SEQEND
  8
0
  0
POLYLINE
  8
16
 66
1
 10
0.0000
 20
0.0000
 30
0.0000
 40
0.4064
 41
0.4064
 70
0
  0
VERTEX
  8
16
 10
38.3000
 20
50.1000
 30
0.0000
  0
VERTEX
  8
16
 10
36.5000
 20
51.9000
 30
0.0000
  0
SEQEND
  8
0
  0
POLYLINE
  8
16
 66
1
 10
0.0000
 20
0.0000
 30
0.0000
 40
0.2032
 41
0.2032
 70
0
  0
VERTEX
  8
16
 10
36.5718
 20
51.9718
 30
0.0000
 42
1.0000
  0
VERTEX
  8
16
 10
36.4282
 20
51.8282
 30
0.0000
  0
SEQEND
  8
0
  0
POLYLINE
  8
16
 66
1
 10
0.0000
 20
0.0000
 30
0.0000
 40
0.2032
 41
0.2032
 70
0
  0
VERTEX
  8
16
 10
38.2282
 20
50.0282
 30
0.0000
 42
1.0000
  0
VERTEX
  8
16
 10
38.3718
 20
50.1718
 30
0.0000
  0
SEQEND
  8
0
  0
POLYLINE
  8
16
 66
1
 10
0.0000
 20
0.0000
 30
0.0000
 40
0.4064
 41
0.4064
 70
0
  0
VERTEX
  8
16
 10
36.5000
 20
51.9000
 30
0.0000
  0
VERTEX
  8
16
 10
33.5000
 20
51.9000
 30
0.0000
  0
SEQEND
  8
0
  0
POLYLINE
  8
16
 66
1
 10
0.0000
 20
0.0000
 30
0.0000
 40
0.2032
 41
0.2032
 70
0
  0
VERTEX
  8
16
 10
33.5000
 20
52.0016
 30
0.0000
 42
1.0000
  0
VERTEX
  8
16
 10
33.5000
 20
51.7984
 30
0.0000
  0
SEQEND
  8
0
  0
POLYLINE
  8
16
 66
1
 10
0.0000
 20
0.0000
 30
0.0000
 40
0.2032
 41
0.2032
 70
0
  0
VERTEX
  8
16
 10
36.5000
 20
51.7984
 30
0.0000
 42
1.0000
  0
VERTEX
  8
16
 10
36.5000
 20
52.0016
 30
0.0000
  0
SEQEND
  8
0
  0
POLYLINE
  8
16
 66
1
 10
0.0000
 20
0.0000
 30
0.0000
 40
0.4064
 41
0.4064
 70
0
  0
VERTEX
  8
16
 10
33.5000
 20
51.9000
 30
0.0000
  0
VERTEX
  8
16
 10
30.2000
 20
48.6000
 30
0.0000
  0
SEQEND
  8
0
  0
POLYLINE
  8
16
 66
1
 10
0.0000
 20
0.0000
 30
0.0000
 40
0.2032
 41
0.2032
 70
0
  0
VERTEX
  8
16
 10
30.1282
 20
48.6718
 30
0.0000
 42
1.0000
  0
VERTEX
  8
16
 10
30.2718
 20
48.5282
 30
0.0000
  0
SEQEND
  8
0
  0
POLYLINE
  8
16
 66
1
 10
0.0000
 20
0.0000
 30
0.0000
 40
0.2032
 41
0.2032
 70
0
  0
VERTEX
  8
16
 10
33.5718
 20
51.8282
 30
0.0000
 42
1.0000
  0
VERTEX
  8
16
 10
33.4282
 20
51.9718
 30
0.0000
  0
SEQEND
  8
0
  0
POLYLINE
  8
16
 66
1
 10
0.0000
 20
0.0000
 30
0.0000
 40
0.4064
 41
0.4064
 70
0
  0
VERTEX
  8
16
 10
30.2000
 20
48.6000
 30
0.0000
  0
VERTEX
  8
16
 10
30.2000
 20
41.9000
 30
0.0000
  0
SEQEND
  8
0
  0
POLYLINE
  8
16
 66
1
 10
0.0000
 20
0.0000
 30
0.0000
 40
0.2032
 41
0.2032
 70
0
  0
VERTEX
  8
16
 10
30.0984
 20
41.9000
 30
0.0000
 42
1.0000
  0
VERTEX
  8
16
 10
30.3016
 20
41.9000
 30
0.0000
  0
SEQEND
  8
0
  0
POLYLINE
  8
16
 66
1
 10
0.0000
 20
0.0000
 30
0.0000
 40
0.2032
 41
0.2032
 70
0
  0
VERTEX
  8
16
 10
30.3016
 20
48.6000
 30
0.0000
 42
1.0000
  0
VERTEX
  8
16
 10
30.0984
 20
48.6000
 30
0.0000
  0
SEQEND
  8
0
  0
POLYLINE
  8
16
 66
1
 10
0.0000
 20
0.0000
 30
0.0000
 40
0.4064
 41
0.4064
 70
0
  0
VERTEX
  8
16
 10
30.2000
 20
41.9000
 30
0.0000
  0
VERTEX
  8
16
 10
29.1000
 20
40.8000
 30
0.0000
  0
SEQEND
  8
0
  0
POLYLINE
  8
16
 66
1
 10
0.0000
 20
0.0000
 30
0.0000
 40
0.2032
 41
0.2032
 70
0
  0
VERTEX
  8
16
 10
29.0282
 20
40.8718
 30
0.0000
 42
1.0000
  0
VERTEX
  8
16
 10
29.1718
 20
40.7282
 30
0.0000
  0
SEQEND
  8
0
  0
POLYLINE
  8
16
 66
1
 10
0.0000
 20
0.0000
 30
0.0000
 40
0.2032
 41
0.2032
 70
0
  0
VERTEX
  8
16
 10
30.2718
 20
41.8282
 30
0.0000
 42
1.0000
  0
VERTEX
  8
16
 10
30.1282
 20
41.9718
 30
0.0000
  0
SEQEND
  8
0
  0
POLYLINE
  8
16
 66
1
 10
0.0000
 20
0.0000
 30
0.0000
 40
0.4064
 41
0.4064
 70
0
  0
VERTEX
  8
16
 10
29.1000
 20
40.8000
 30
0.0000
  0
VERTEX
  8
16
 10
26.1000
 20
40.8000
 30
0.0000
  0
SEQEND
  8
0
  0
POLYLINE
  8
16
 66
1
 10
0.0000
 20
0.0000
 30
0.0000
 40
0.2032
 41
0.2032
 70
0
  0
VERTEX
  8
16
 10
26.1000
 20
40.9016
 30
0.0000
 42
1.0000
  0
VERTEX
  8
16
 10
26.1000
 20
40.6984
 30
0.0000
  0
SEQEND
  8
0
  0
POLYLINE
  8
16
 66
1
 10
0.0000
 20
0.0000
 30
0.0000
 40
0.2032
 41
0.2032
 70
0
  0
VERTEX
  8
16
 10
29.1000
 20
40.6984
 30
0.0000
 42
1.0000
  0
VERTEX
  8
16
 10
29.1000
 20
40.9016
 30
0.0000
  0
SEQEND
  8
0
  0
POLYLINE
  8
16
 66
1
 10
0.0000
 20
0.0000
 30
0.0000
 40
0.4064
 41
0.4064
 70
0
  0
VERTEX
  8
16
 10
26.1000
 20
40.8000
 30
0.0000
  0
VERTEX
  8
16
 10
25.2000
 20
41.7000
 30
0.0000
  0
SEQEND
  8
0
  0
POLYLINE
  8
16
 66
1
 10
0.0000
 20
0.0000
 30
0.0000
 40
0.2032
 41
0.2032
 70
0
  0
VERTEX
  8
16
 10
25.2718
 20
41.7718
 30
0.0000
 42
1.0000
  0
VERTEX
  8
16
 10
25.1282
 20
41.6282
 30
0.0000
  0
SEQEND
  8
0
  0
POLYLINE
  8
16
 66
1
 10
0.0000
 20
0.0000
 30
0.0000
 40
0.2032
 41
0.2032
 70
0
  0
VERTEX
  8
16
 10
26.0282
 20
40.7282
 30
0.0000
 42
1.0000
  0
VERTEX
  8
16
 10
26.1718
 20
40.8718
 30
0.0000
  0
SEQEND
  8
0
  0
POLYLINE
  8
16
 66
1
 10
0.0000
 20
0.0000
 30
0.0000
 40
0.4064
 41
0.4064
 70
0
  0
VERTEX
  8
16
 10
25.2000
 20
41.7000
 30
0.0000
  0
VERTEX
  8
16
 10
25.2000
 20
46.4000
 30
0.0000
  0
SEQEND
  8
0
  0
POLYLINE
  8
16
 66
1
 10
0.0000
 20
0.0000
 30
0.0000
 40
0.2032
 41
0.2032
 70
0
  0
VERTEX
  8
16
 10
25.3016
 20
46.4000
 30
0.0000
 42
1.0000
  0
VERTEX
  8
16
 10
25.0984
 20
46.4000
 30
0.0000
  0
SEQEND
  8
0
  0
POLYLINE
  8
16
 66
1
 10
0.0000
 20
0.0000
 30
0.0000
 40
0.2032
 41
0.2032
 70
0
  0
VERTEX
  8
16
 10
25.0984
 20
41.7000
 30
0.0000
 42
1.0000
  0
VERTEX
  8
16
 10
25.3016
 20
41.7000
 30
0.0000
  0
SEQEND
  8
0
  0
POLYLINE
  8
16
 66
1
 10
0.0000
 20
0.0000
 30
0.0000
 40
0.4064
 41
0.4064
 70
0
  0
VERTEX
  8
16
 10
24.6000
 20
47.0000
 30
0.0000
  0
VERTEX
  8
16
 10
23.5000
 20
47.0000
 30
0.0000
  0
SEQEND
  8
0
  0
POLYLINE
  8
16
 66
1
 10
0.0000
 20
0.0000
 30
0.0000
 40
0.2032
 41
0.2032
 70
0
  0
VERTEX
  8
16
 10
23.5000
 20
47.1016
 30
0.0000
 42
1.0000
  0
VERTEX
  8
16
 10
23.5000
 20
46.8984
 30
0.0000
  0
SEQEND
  8
0
  0
POLYLINE
  8
16
 66
1
 10
0.0000
 20
0.0000
 30
0.0000
 40
0.2032
 41
0.2032
 70
0
  0
VERTEX
  8
16
 10
24.6000
 20
46.8984
 30
0.0000
 42
1.0000
  0
VERTEX
  8
16
 10
24.6000
 20
47.1016
 30
0.0000
  0
SEQEND
  8
0
  0
POLYLINE
  8
16
 66
1
 10
0.0000
 20
0.0000
 30
0.0000
 40
0.4064
 41
0.4064
 70
0
  0
VERTEX
  8
16
 10
23.5000
 20
47.0000
 30
0.0000
  0
VERTEX
  8
16
 10
19.3500
 20
42.8500
 30
0.0000
  0
SEQEND
  8
0
  0
POLYLINE
  8
16
 66
1
 10
0.0000
 20
0.0000
 30
0.0000
 40
0.2032
 41
0.2032
 70
0
  0
VERTEX
  8
16
 10
19.2782
 20
42.9218
 30
0.0000
 42
1.0000
  0
VERTEX
  8
16
 10
19.4218
 20
42.7782
 30
0.0000
  0
SEQEND
  8
0
  0
POLYLINE
  8
16
 66
1
 10
0.0000
 20
0.0000
 30
0.0000
 40
0.2032
 41
0.2032
 70
0
  0
VERTEX
  8
16
 10
23.5718
 20
46.9282
 30
0.0000
 42
1.0000
  0
VERTEX
  8
16
 10
23.4282
 20
47.0718
 30
0.0000
  0
SEQEND
  8
0
  0
POLYLINE
  8
16
 66
1
 10
0.0000
 20
0.0000
 30
0.0000
 40
0.4064
 41
0.4064
 70
0
  0
VERTEX
  8
16
 10
19.3500
 20
42.8500
 30
0.0000
  0
VERTEX
  8
16
 10
19.3500
 20
32.9700
 30
0.0000
  0
SEQEND
  8
0
  0
POLYLINE
  8
16
 66
1
 10
0.0000
 20
0.0000
 30
0.0000
 40
0.2032
 41
0.2032
 70
0
  0
VERTEX
  8
16
 10
19.2484
 20
32.9700
 30
0.0000
 42
1.0000
  0
VERTEX
  8
16
 10
19.4516
 20
32.9700
 30
0.0000
  0
SEQEND
  8
0
  0
POLYLINE
  8
16
 66
1
 10
0.0000
 20
0.0000
 30
0.0000
 40
0.2032
 41
0.2032
 70
0
  0
VERTEX
  8
16
 10
19.4516
 20
42.8500
 30
0.0000
 42
1.0000
  0
VERTEX
  8
16
 10
19.2484
 20
42.8500
 30
0.0000
  0
SEQEND
  8
0
  0
POLYLINE
  8
16
 66
1
 10
0.0000
 20
0.0000
 30
0.0000
 40
0.4064
 41
0.4064
 70
0
  0
VERTEX
  8
16
 10
25.2000
 20
46.4000
 30
0.0000
  0
VERTEX
  8
16
 10
24.6000
 20
47.0000
 30
0.0000
  0
SEQEND
  8
0
  0
POLYLINE
  8
16
 66
1
 10
0.0000
 20
0.0000
 30
0.0000
 40
0.2032
 41
0.2032
 70
0
  0
VERTEX
  8
16
 10
24.6718
 20
47.0718
 30
0.0000
 42
1.0000
  0
VERTEX
  8
16
 10
24.5282
 20
46.9282
 30
0.0000
  0
SEQEND
  8
0
  0
POLYLINE
  8
16
 66
1
 10
0.0000
 20
0.0000
 30
0.0000
 40
0.2032
 41
0.2032
 70
0
  0
VERTEX
  8
16
 10
25.1282
 20
46.3282
 30
0.0000
 42
1.0000
  0
VERTEX
  8
16
 10
25.2718
 20
46.4718
 30
0.0000
  0
SEQEND
  8
0
  0
POLYLINE
  8
16
 66
1
 10
0.0000
 20
0.0000
 30
0.0000
 40
0.4064
 41
0.4064
 70
0
  0
VERTEX
  8
16
 10
297.0000
 20
0.0000
 30
0.0000
  0
VERTEX
  8
16
 10
43.0000
 20
0.0000
 30
0.0000
  0
SEQEND
  8
0
  0
POLYLINE
  8
16
 66
1
 10
0.0000
 20
0.0000
 30
0.0000
 40
0.2032
 41
0.2032
 70
0
  0
VERTEX
  8
16
 10
43.0000
 20
0.1016
 30
0.0000
 42
1.0000
  0
VERTEX
  8
16
 10
43.0000
 20
-0.1016
 30
0.0000
  0
SEQEND
  8
0
  0
POLYLINE
  8
16
 66
1
 10
0.0000
 20
0.0000
 30
0.0000
 40
0.2032
 41
0.2032
 70
0
  0
VERTEX
  8
16
 10
297.0000
 20
-0.1016
 30
0.0000
 42
1.0000
  0
VERTEX
  8
16
 10
297.0000
 20
0.1016
 30
0.0000
  0
SEQEND
  8
0
  0
POLYLINE
  8
16
 66
1
 10
0.0000
 20
0.0000
 30
0.0000
 40
0.4064
 41
0.4064
 70
0
  0
VERTEX
  8
16
 10
43.0000
 20
0.0000
 30
0.0000
  0
VERTEX
  8
16
 10
43.0000
 20
28.0000
 30
0.0000
  0
SEQEND
  8
0
  0
POLYLINE
  8
16
 66
1
 10
0.0000
 20
0.0000
 30
0.0000
 40
0.2032
 41
0.2032
 70
0
  0
VERTEX
  8
16
 10
43.1016
 20
28.0000
 30
0.0000
 42
1.0000
  0
VERTEX
  8
16
 10
42.8984
 20
28.0000
 30
0.0000
  0
SEQEND
  8
0
  0
POLYLINE
  8
16
 66
1
 10
0.0000
 20
0.0000
 30
0.0000
 40
0.2032
 41
0.2032
 70
0
  0
VERTEX
  8
16
 10
42.8984
 20
0.0000
 30
0.0000
 42
1.0000
  0
VERTEX
  8
16
 10
43.1016
 20
0.0000
 30
0.0000
  0
SEQEND
  8
0
  0
POLYLINE
  8
16
 66
1
 10
0.0000
 20
0.0000
 30
0.0000
 40
0.4064
 41
0.4064
 70
0
  0
VERTEX
  8
16
 10
43.0000
 20
28.0000
 30
0.0000
  0
VERTEX
  8
16
 10
0.0000
 20
28.0000
 30
0.0000
  0
SEQEND
  8
0
  0
POLYLINE
  8
16
 66
1
 10
0.0000
 20
0.0000
 30
0.0000
 40
0.2032
 41
0.2032
 70
0
  0
VERTEX
  8
16
 10
0.0000
 20
28.1016
 30
0.0000
 42
1.0000
  0
VERTEX
  8
16
 10
0.0000
 20
27.8984
 30
0.0000
  0
SEQEND
  8
0
  0
POLYLINE
  8
16
 66
1
 10
0.0000
 20
0.0000
 30
0.0000
 40
0.2032
 41
0.2032
 70
0
  0
VERTEX
  8
16
 10
43.0000
 20
27.8984
 30
0.0000
 42
1.0000
  0
VERTEX
  8
16
 10
43.0000
 20
28.1016
 30
0.0000
  0
SEQEND
  8
0
  0
POLYLINE
  8
16
 66
1
 10
0.0000
 20
0.0000
 30
0.0000
 40
0.4064
 41
0.4064
 70
0
  0
VERTEX
  8
16
 10
0.0000
 20
28.0000
 30
0.0000
  0
VERTEX
  8
16
 10
0.0000
 20
200.0000
 30
0.0000
  0
SEQEND
  8
0
  0
POLYLINE
  8
16
 66
1
 10
0.0000
 20
0.0000
 30
0.0000
 40
0.2032
 41
0.2032
 70
0
  0
VERTEX
  8
16
 10
0.1016
 20
200.0000
 30
0.0000
 42
1.0000
  0
VERTEX
  8
16
 10
-0.1016
 20
200.0000
 30
0.0000
  0
SEQEND
  8
0
  0
POLYLINE
  8
16
 66
1
 10
0.0000
 20
0.0000
 30
0.0000
 40
0.2032
 41
0.2032
 70
0
  0
VERTEX
  8
16
 10
-0.1016
 20
28.0000
 30
0.0000
 42
1.0000
  0
VERTEX
  8
16
 10
0.1016
 20
28.0000
 30
0.0000
  0
SEQEND
  8
0
  0
POLYLINE
  8
16
 66
1
 10
0.0000
 20
0.0000
 30
0.0000
 40
0.4064
 41
0.4064
 70
0
  0
VERTEX
  8
16
 10
0.0000
 20
200.0000
 30
0.0000
  0
VERTEX
  8
16
 10
297.0000
 20
200.0000
 30
0.0000
  0
SEQEND
  8
0
  0
POLYLINE
  8
16
 66
1
 10
0.0000
 20
0.0000
 30
0.0000
 40
0.2032
 41
0.2032
 70
0
  0
VERTEX
  8
16
 10
297.0000
 20
199.8984
 30
0.0000
 42
1.0000
  0
VERTEX
  8
16
 10
297.0000
 20
200.1016
 30
0.0000
  0
SEQEND
  8
0
  0
POLYLINE
  8
16
 66
1
 10
0.0000
 20
0.0000
 30
0.0000
 40
0.2032
 41
0.2032
 70
0
  0
VERTEX
  8
16
 10
0.0000
 20
200.1016
 30
0.0000
 42
1.0000
  0
VERTEX
  8
16
 10
0.0000
 20
199.8984
 30
0.0000
  0
SEQEND
  8
0
  0
POLYLINE
  8
16
 66
1
 10
0.0000
 20
0.0000
 30
0.0000
 40
0.4064
 41
0.4064
 70
0
  0
VERTEX
  8
16
 10
297.0000
 20
200.0000
 30
0.0000
  0
VERTEX
  8
16
 10
297.0000
 20
0.0000
 30
0.0000
  0
SEQEND
  8
0
  0
POLYLINE
  8
16
 66
1
 10
0.0000
 20
0.0000
 30
0.0000
 40
0.2032
 41
0.2032
 70
0
  0
VERTEX
  8
16
 10
296.8984
 20
0.0000
 30
0.0000
 42
1.0000
  0
VERTEX
  8
16
 10
297.1016
 20
0.0000
 30
0.0000
  0
SEQEND
  8
0
  0
POLYLINE
  8
16
 66
1
 10
0.0000
 20
0.0000
 30
0.0000
 40
0.2032
 41
0.2032
 70
0
  0
VERTEX
  8
16
 10
297.1016
 20
200.0000
 30
0.0000
 42
1.0000
  0
VERTEX
  8
16
 10
296.8984
 20
200.0000
 30
0.0000
  0
SEQEND
  8
0
  0
ENDSEC
  0
EOF
