  0
SECTION
  2
HEADER
  9
$ACADVER
  1
AC1009
  9
$FILLMODE
 70
1
  9
$EXTMIN
 10
-34.3333
 20
-0.2032
 30
0.0000
  9
$EXTMAX
 10
298.4300
 20
200.2032
 30
0.0000
  0
ENDSEC
  0
SECTION
  2
TABLES
  0
TABLE
  2
LTYPE
 70
1
  0
LTYPE
  2
CONTINUOUS
 70
64
  3
Solid line
 72
65
 73
0
 40
0
  0
ENDTAB
  0
TABLE
  2
LAYER
 70
255
  0
LAYER
  2
1
 70
64
 62
22
  6
CONTINUOUS
  0
LAYER
  2
16
 70
64
 62
175
  6
CONTINUOUS
  0
LAYER
  2
17
 70
64
 62
82
  6
CONTINUOUS
  0
LAYER
  2
18
 70
64
 62
82
  6
CONTINUOUS
  0
LAYER
  2
19
 70
64
 62
53
  6
CONTINUOUS
  0
LAYER
  2
20
 70
64
 62
7
  6
CONTINUOUS
  0
LAYER
  2
21
 70
64
 62
253
  6
CONTINUOUS
  0
LAYER
  2
22
 70
64
 62
253
  6
CONTINUOUS
  0
LAYER
  2
23
 70
64
 62
7
  6
CONTINUOUS
  0
LAYER
  2
24
 70
64
 62
7
  6
CONTINUOUS
  0
LAYER
  2
25
 70
64
 62
253
  6
CONTINUOUS
  0
LAYER
  2
26
 70
64
 62
253
  6
CONTINUOUS
  0
LAYER
  2
27
 70
64
 62
253
  6
CONTINUOUS
  0
LAYER
  2
28
 70
64
 62
253
  6
CONTINUOUS
  0
LAYER
  2
39
 70
64
 62
22
  6
CONTINUOUS
  0
LAYER
  2
40
 70
64
 62
175
  6
CONTINUOUS
  0
LAYER
  2
41
 70
64
 62
22
  6
CONTINUOUS
  0
LAYER
  2
42
 70
64
 62
175
  6
CONTINUOUS
  0
LAYER
  2
43
 70
64
 62
82
  6
CONTINUOUS
  0
LAYER
  2
45
 70
64
 62
253
  6
CONTINUOUS
  0
LAYER
  2
48
 70
64
 62
253
  6
CONTINUOUS
  0
LAYER
  2
49
 70
64
 62
253
  6
CONTINUOUS
  0
LAYER
  2
51
 70
64
 62
253
  6
CONTINUOUS
  0
LAYER
  2
52
 70
64
 62
253
  6
CONTINUOUS
  0
ENDTAB
  0
ENDSEC
  0
SECTION
  2
BLOCKS
  0
BLOCK
  8
0
  2
RECT
 70
64
 10
0.0000
 20
0.0000
 30
0.0000
  3
RECT
  0
SOLID
  8
0
 10
-0.5000
 20
-0.5000
 30
0.0000
 11
0.5000
 21
-0.5000
 31
0.0000
 12
-0.5000
 22
0.5000
 32
0.0000
 13
0.5000
 23
0.5000
 33
0.0000
  0
ENDBLK
  8
0
  0
BLOCK
  8
0
  2
PIE
 70
64
 10
0.0000
 20
0.0000
 30
0.0000
  3
PIE
  0
POLYLINE
  8
0
 66
1
 10
0.0000
 20
0.0000
 30
0.0000
 40
0.5000
 41
0.5000
 70
0
  0
VERTEX
  8
0
 10
0.0000
 20
-0.2500
 30
0.0000
 42
1.0000
  0
VERTEX
  8
0
 10
0.0000
 20
0.2500
 30
0.0000
 42
1.0000
  0
VERTEX
  8
0
 10
0.0000
 20
-0.2500
 30
0.0000
  0
SEQEND
  8
0
  0
ENDBLK
  8
0
  0
BLOCK
  8
0
  2
OCTAGONP
 70
64
 10
0.0000
 20
0.0000
 30
0.0000
  3
OCTAGONP
  0
POLYLINE
  8
0
 66
1
 10
0.0000
 20
0.0000
 30
0.0000
 40
0.5000
 41
0.5000
 70
0
  0
VERTEX
  8
0
 10
-0.2500
 20
-0.1036
 30
0.0000
  0
VERTEX
  8
0
 10
-0.2500
 20
0.1036
 30
0.0000
  0
VERTEX
  8
0
 10
-0.1036
 20
0.2500
 30
0.0000
  0
VERTEX
  8
0
 10
0.1036
 20
0.2500
 30
0.0000
  0
VERTEX
  8
0
 10
0.2500
 20
0.1036
 30
0.0000
  0
VERTEX
  8
0
 10
0.2500
 20
-0.1036
 30
0.0000
  0
VERTEX
  8
0
 10
0.1036
 20
-0.2500
 30
0.0000
  0
VERTEX
  8
0
 10
-0.1036
 20
-0.2500
 30
0.0000
  0
VERTEX
  8
0
 10
-0.2500
 20
-0.1036
 30
0.0000
  0
VERTEX
  8
0
 10
-0.2500
 20
0.1036
 30
0.0000
  0
SEQEND
  8
0
  0
ENDBLK
  8
0
  0
BLOCK
  8
0
  2
SQUAREP
 70
64
 10
0.0000
 20
0.0000
 30
0.0000
  3
SQUAREP
  0
SOLID
  8
0
 10
-0.5000
 20
-0.5000
 30
0.0000
 11
0.5000
 21
-0.5000
 31
0.0000
 12
-0.5000
 22
0.5000
 32
0.0000
 13
0.5000
 23
0.5000
 33
0.0000
  0
ENDBLK
  8
0
  0
BLOCK
  8
0
  2
ROUNDP
 70
64
 10
0.0000
 20
0.0000
 30
0.0000
  3
ROUNDP
  0
POLYLINE
  8
0
 66
1
 10
0.0000
 20
0.0000
 30
0.0000
 40
0.5000
 41
0.5000
 70
0
  0
VERTEX
  8
0
 10
0.0000
 20
-0.2500
 30
0.0000
 42
1.0000
  0
VERTEX
  8
0
 10
0.0000
 20
0.2500
 30
0.0000
 42
1.0000
  0
VERTEX
  8
0
 10
0.0000
 20
-0.2500
 30
0.0000
  0
SEQEND
  8
0
  0
ENDBLK
  8
0
  0
BLOCK
  8
0
  2
ANNULUSP
 70
64
 10
0.0000
 20
0.0000
 30
0.0000
  3
ANNULUSP
  0
POLYLINE
  8
0
 66
1
 10
0.0000
 20
0.0000
 30
0.0000
 40
0.5000
 41
0.5000
 70
0
  0
VERTEX
  8
0
 10
0.0000
 20
-0.2500
 30
0.0000
 42
1.0000
  0
VERTEX
  8
0
 10
0.0000
 20
0.2500
 30
0.0000
 42
1.0000
  0
VERTEX
  8
0
 10
0.0000
 20
-0.2500
 30
0.0000
  0
SEQEND
  8
0
  0
ENDBLK
  8
0
  0
BLOCK
  8
0
  2
THERMALP
 70
64
 10
0.0000
 20
0.0000
 30
0.0000
  3
THERMALP
  0
POLYLINE
  8
0
 66
1
 10
0.0000
 20
0.0000
 30
0.0000
 40
0.1000
 41
0.1000
 70
0
  0
VERTEX
  8
0
 10
-0.2379
 20
0.4500
 30
0.0000
  0
VERTEX
  8
0
 10
0.2379
 20
0.4500
 30
0.0000
  0
SEQEND
  8
0
  0
POLYLINE
  8
0
 66
1
 10
0.0000
 20
0.0000
 30
0.0000
 40
0.0500
 41
0.0500
 70
0
  0
VERTEX
  8
0
 10
0.2379
 20
0.4250
 30
0.0000
 42
1.0000
  0
VERTEX
  8
0
 10
0.2379
 20
0.4750
 30
0.0000
  0
SEQEND
  8
0
  0
POLYLINE
  8
0
 66
1
 10
0.0000
 20
0.0000
 30
0.0000
 40
0.0500
 41
0.0500
 70
0
  0
VERTEX
  8
0
 10
-0.2379
 20
0.4750
 30
0.0000
 42
1.0000
  0
VERTEX
  8
0
 10
-0.2379
 20
0.4250
 30
0.0000
  0
SEQEND
  8
0
  0
POLYLINE
  8
0
 66
1
 10
0.0000
 20
0.0000
 30
0.0000
 40
0.1000
 41
0.1000
 70
0
  0
VERTEX
  8
0
 10
0.4500
 20
0.2379
 30
0.0000
  0
VERTEX
  8
0
 10
0.4500
 20
-0.2379
 30
0.0000
  0
SEQEND
  8
0
  0
POLYLINE
  8
0
 66
1
 10
0.0000
 20
0.0000
 30
0.0000
 40
0.0500
 41
0.0500
 70
0
  0
VERTEX
  8
0
 10
0.4250
 20
-0.2379
 30
0.0000
 42
1.0000
  0
VERTEX
  8
0
 10
0.4750
 20
-0.2379
 30
0.0000
  0
SEQEND
  8
0
  0
POLYLINE
  8
0
 66
1
 10
0.0000
 20
0.0000
 30
0.0000
 40
0.0500
 41
0.0500
 70
0
  0
VERTEX
  8
0
 10
0.4750
 20
0.2379
 30
0.0000
 42
1.0000
  0
VERTEX
  8
0
 10
0.4250
 20
0.2379
 30
0.0000
  0
SEQEND
  8
0
  0
POLYLINE
  8
0
 66
1
 10
0.0000
 20
0.0000
 30
0.0000
 40
0.1000
 41
0.1000
 70
0
  0
VERTEX
  8
0
 10
0.2379
 20
-0.4500
 30
0.0000
  0
VERTEX
  8
0
 10
-0.2379
 20
-0.4500
 30
0.0000
  0
SEQEND
  8
0
  0
POLYLINE
  8
0
 66
1
 10
0.0000
 20
0.0000
 30
0.0000
 40
0.0500
 41
0.0500
 70
0
  0
VERTEX
  8
0
 10
-0.2379
 20
-0.4250
 30
0.0000
 42
1.0000
  0
VERTEX
  8
0
 10
-0.2379
 20
-0.4750
 30
0.0000
  0
SEQEND
  8
0
  0
POLYLINE
  8
0
 66
1
 10
0.0000
 20
0.0000
 30
0.0000
 40
0.0500
 41
0.0500
 70
0
  0
VERTEX
  8
0
 10
0.2379
 20
-0.4750
 30
0.0000
 42
1.0000
  0
VERTEX
  8
0
 10
0.2379
 20
-0.4250
 30
0.0000
  0
SEQEND
  8
0
  0
POLYLINE
  8
0
 66
1
 10
0.0000
 20
0.0000
 30
0.0000
 40
0.1000
 41
0.1000
 70
0
  0
VERTEX
  8
0
 10
-0.4500
 20
-0.2379
 30
0.0000
  0
VERTEX
  8
0
 10
-0.4500
 20
0.2379
 30
0.0000
  0
SEQEND
  8
0
  0
POLYLINE
  8
0
 66
1
 10
0.0000
 20
0.0000
 30
0.0000
 40
0.0500
 41
0.0500
 70
0
  0
VERTEX
  8
0
 10
-0.4250
 20
0.2379
 30
0.0000
 42
1.0000
  0
VERTEX
  8
0
 10
-0.4750
 20
0.2379
 30
0.0000
  0
SEQEND
  8
0
  0
POLYLINE
  8
0
 66
1
 10
0.0000
 20
0.0000
 30
0.0000
 40
0.0500
 41
0.0500
 70
0
  0
VERTEX
  8
0
 10
-0.4750
 20
-0.2379
 30
0.0000
 42
1.0000
  0
VERTEX
  8
0
 10
-0.4250
 20
-0.2379
 30
0.0000
  0
SEQEND
  8
0
  0
ENDBLK
  8
0
  0
BLOCK
  8
0
  2
OCTAGONV
 70
64
 10
0.0000
 20
0.0000
 30
0.0000
  3
OCTAGONV
  0
POLYLINE
  8
0
 66
1
 10
0.0000
 20
0.0000
 30
0.0000
 40
0.5000
 41
0.5000
 70
0
  0
VERTEX
  8
0
 10
-0.2500
 20
-0.1036
 30
0.0000
  0
VERTEX
  8
0
 10
-0.2500
 20
0.1036
 30
0.0000
  0
VERTEX
  8
0
 10
-0.1036
 20
0.2500
 30
0.0000
  0
VERTEX
  8
0
 10
0.1036
 20
0.2500
 30
0.0000
  0
VERTEX
  8
0
 10
0.2500
 20
0.1036
 30
0.0000
  0
VERTEX
  8
0
 10
0.2500
 20
-0.1036
 30
0.0000
  0
VERTEX
  8
0
 10
0.1036
 20
-0.2500
 30
0.0000
  0
VERTEX
  8
0
 10
-0.1036
 20
-0.2500
 30
0.0000
  0
VERTEX
  8
0
 10
-0.2500
 20
-0.1036
 30
0.0000
  0
VERTEX
  8
0
 10
-0.2500
 20
0.1036
 30
0.0000
  0
SEQEND
  8
0
  0
ENDBLK
  8
0
  0
BLOCK
  8
0
  2
SQUAREV
 70
64
 10
0.0000
 20
0.0000
 30
0.0000
  3
SQUAREV
  0
SOLID
  8
0
 10
-0.5000
 20
-0.5000
 30
0.0000
 11
0.5000
 21
-0.5000
 31
0.0000
 12
-0.5000
 22
0.5000
 32
0.0000
 13
0.5000
 23
0.5000
 33
0.0000
  0
ENDBLK
  8
0
  0
BLOCK
  8
0
  2
ROUNDV
 70
64
 10
0.0000
 20
0.0000
 30
0.0000
  3
ROUNDV
  0
POLYLINE
  8
0
 66
1
 10
0.0000
 20
0.0000
 30
0.0000
 40
0.5000
 41
0.5000
 70
0
  0
VERTEX
  8
0
 10
0.0000
 20
-0.2500
 30
0.0000
 42
1.0000
  0
VERTEX
  8
0
 10
0.0000
 20
0.2500
 30
0.0000
 42
1.0000
  0
VERTEX
  8
0
 10
0.0000
 20
-0.2500
 30
0.0000
  0
SEQEND
  8
0
  0
ENDBLK
  8
0
  0
BLOCK
  8
0
  2
ANNULUSV
 70
64
 10
0.0000
 20
0.0000
 30
0.0000
  3
ANNULUSV
  0
POLYLINE
  8
0
 66
1
 10
0.0000
 20
0.0000
 30
0.0000
 40
0.5000
 41
0.5000
 70
0
  0
VERTEX
  8
0
 10
0.0000
 20
-0.2500
 30
0.0000
 42
1.0000
  0
VERTEX
  8
0
 10
0.0000
 20
0.2500
 30
0.0000
 42
1.0000
  0
VERTEX
  8
0
 10
0.0000
 20
-0.2500
 30
0.0000
  0
SEQEND
  8
0
  0
ENDBLK
  8
0
  0
BLOCK
  8
0
  2
THERMALV
 70
64
 10
0.0000
 20
0.0000
 30
0.0000
  3
THERMALV
  0
POLYLINE
  8
0
 66
1
 10
0.0000
 20
0.0000
 30
0.0000
 40
0.1000
 41
0.1000
 70
0
  0
VERTEX
  8
0
 10
-0.2379
 20
0.4500
 30
0.0000
  0
VERTEX
  8
0
 10
0.2379
 20
0.4500
 30
0.0000
  0
SEQEND
  8
0
  0
POLYLINE
  8
0
 66
1
 10
0.0000
 20
0.0000
 30
0.0000
 40
0.0500
 41
0.0500
 70
0
  0
VERTEX
  8
0
 10
0.2379
 20
0.4250
 30
0.0000
 42
1.0000
  0
VERTEX
  8
0
 10
0.2379
 20
0.4750
 30
0.0000
  0
SEQEND
  8
0
  0
POLYLINE
  8
0
 66
1
 10
0.0000
 20
0.0000
 30
0.0000
 40
0.0500
 41
0.0500
 70
0
  0
VERTEX
  8
0
 10
-0.2379
 20
0.4750
 30
0.0000
 42
1.0000
  0
VERTEX
  8
0
 10
-0.2379
 20
0.4250
 30
0.0000
  0
SEQEND
  8
0
  0
POLYLINE
  8
0
 66
1
 10
0.0000
 20
0.0000
 30
0.0000
 40
0.1000
 41
0.1000
 70
0
  0
VERTEX
  8
0
 10
0.4500
 20
0.2379
 30
0.0000
  0
VERTEX
  8
0
 10
0.4500
 20
-0.2379
 30
0.0000
  0
SEQEND
  8
0
  0
POLYLINE
  8
0
 66
1
 10
0.0000
 20
0.0000
 30
0.0000
 40
0.0500
 41
0.0500
 70
0
  0
VERTEX
  8
0
 10
0.4250
 20
-0.2379
 30
0.0000
 42
1.0000
  0
VERTEX
  8
0
 10
0.4750
 20
-0.2379
 30
0.0000
  0
SEQEND
  8
0
  0
POLYLINE
  8
0
 66
1
 10
0.0000
 20
0.0000
 30
0.0000
 40
0.0500
 41
0.0500
 70
0
  0
VERTEX
  8
0
 10
0.4750
 20
0.2379
 30
0.0000
 42
1.0000
  0
VERTEX
  8
0
 10
0.4250
 20
0.2379
 30
0.0000
  0
SEQEND
  8
0
  0
POLYLINE
  8
0
 66
1
 10
0.0000
 20
0.0000
 30
0.0000
 40
0.1000
 41
0.1000
 70
0
  0
VERTEX
  8
0
 10
0.2379
 20
-0.4500
 30
0.0000
  0
VERTEX
  8
0
 10
-0.2379
 20
-0.4500
 30
0.0000
  0
SEQEND
  8
0
  0
POLYLINE
  8
0
 66
1
 10
0.0000
 20
0.0000
 30
0.0000
 40
0.0500
 41
0.0500
 70
0
  0
VERTEX
  8
0
 10
-0.2379
 20
-0.4250
 30
0.0000
 42
1.0000
  0
VERTEX
  8
0
 10
-0.2379
 20
-0.4750
 30
0.0000
  0
SEQEND
  8
0
  0
POLYLINE
  8
0
 66
1
 10
0.0000
 20
0.0000
 30
0.0000
 40
0.0500
 41
0.0500
 70
0
  0
VERTEX
  8
0
 10
0.2379
 20
-0.4750
 30
0.0000
 42
1.0000
  0
VERTEX
  8
0
 10
0.2379
 20
-0.4250
 30
0.0000
  0
SEQEND
  8
0
  0
POLYLINE
  8
0
 66
1
 10
0.0000
 20
0.0000
 30
0.0000
 40
0.1000
 41
0.1000
 70
0
  0
VERTEX
  8
0
 10
-0.4500
 20
-0.2379
 30
0.0000
  0
VERTEX
  8
0
 10
-0.4500
 20
0.2379
 30
0.0000
  0
SEQEND
  8
0
  0
POLYLINE
  8
0
 66
1
 10
0.0000
 20
0.0000
 30
0.0000
 40
0.0500
 41
0.0500
 70
0
  0
VERTEX
  8
0
 10
-0.4250
 20
0.2379
 30
0.0000
 42
1.0000
  0
VERTEX
  8
0
 10
-0.4750
 20
0.2379
 30
0.0000
  0
SEQEND
  8
0
  0
POLYLINE
  8
0
 66
1
 10
0.0000
 20
0.0000
 30
0.0000
 40
0.0500
 41
0.0500
 70
0
  0
VERTEX
  8
0
 10
-0.4750
 20
-0.2379
 30
0.0000
 42
1.0000
  0
VERTEX
  8
0
 10
-0.4250
 20
-0.2379
 30
0.0000
  0
SEQEND
  8
0
  0
ENDBLK
  8
0
  0
BLOCK
  8
0
  2
RECT5120000X5120000R100
 70
64
 10
0.0000
 20
0.0000
 30
0.0000
  3
RECT5120000X5120000R100
  0
POLYLINE
  8
0
 66
1
 10
0.0000
 20
0.0000
 30
0.0000
 40
16.0000
 41
16.0000
 70
1
  0
VERTEX
  8
0
 10
8.0000
 20
0.0000
 30
0.0000
  0
VERTEX
  8
0
 10
8.0000
 20
0.0000
 30
0.0000
 42
0.4142
  0
VERTEX
  8
0
 10
0.0000
 20
8.0000
 30
0.0000
  0
VERTEX
  8
0
 10
0.0000
 20
8.0000
 30
0.0000
 42
0.4142
  0
VERTEX
  8
0
 10
-8.0000
 20
0.0000
 30
0.0000
  0
VERTEX
  8
0
 10
-8.0000
 20
0.0000
 30
0.0000
 42
0.4142
  0
VERTEX
  8
0
 10
0.0000
 20
-8.0000
 30
0.0000
  0
VERTEX
  8
0
 10
0.0000
 20
-8.0000
 30
0.0000
 42
0.4142
  0
SEQEND
  8
0
  0
SOLID
  8
0
 10
-0.0254
 20
-0.0254
 30
0.0000
 11
0.0254
 21
-0.0254
 31
0.0000
 12
-0.0254
 22
0.0254
 32
0.0000
 13
0.0254
 23
0.0254
 33
0.0000
  0
ENDBLK
  8
0
  0
BLOCK
  8
0
  2
LONGP100
 70
64
 10
0.0000
 20
0.0000
 30
0.0000
  3
LONGP100
  0
POLYLINE
  8
0
 66
1
 10
0.0000
 20
0.0000
 30
0.0000
 40
1.0000
 41
1.0000
 70
0
  0
VERTEX
  8
0
 10
-0.5000
 20
0.0000
 30
0.0000
  0
VERTEX
  8
0
 10
0.5000
 20
0.0000
 30
0.0000
  0
SEQEND
  8
0
  0
POLYLINE
  8
0
 66
1
 10
0.0000
 20
0.0000
 30
0.0000
 40
0.5000
 41
0.5000
 70
0
  0
VERTEX
  8
0
 10
0.5000
 20
-0.2500
 30
0.0000
 42
1.0000
  0
VERTEX
  8
0
 10
0.5000
 20
0.2500
 30
0.0000
  0
SEQEND
  8
0
  0
POLYLINE
  8
0
 66
1
 10
0.0000
 20
0.0000
 30
0.0000
 40
0.5000
 41
0.5000
 70
0
  0
VERTEX
  8
0
 10
-0.5000
 20
0.2500
 30
0.0000
 42
1.0000
  0
VERTEX
  8
0
 10
-0.5000
 20
-0.2500
 30
0.0000
  0
SEQEND
  8
0
  0
ENDBLK
  8
0
  0
ENDSEC
  0
SECTION
  2
ENTITIES
  0
POLYLINE
  8
20
 66
1
 10
0.0000
 20
0.0000
 30
0.0000
 40
0.4064
 41
0.4064
 70
0
  0
VERTEX
  8
20
 10
0.0000
 20
200.0000
 30
0.0000
  0
VERTEX
  8
20
 10
0.0000
 20
0.0000
 30
0.0000
  0
SEQEND
  8
0
  0
POLYLINE
  8
20
 66
1
 10
0.0000
 20
0.0000
 30
0.0000
 40
0.2032
 41
0.2032
 70
0
  0
VERTEX
  8
20
 10
-0.1016
 20
0.0000
 30
0.0000
 42
1.0000
  0
VERTEX
  8
20
 10
0.1016
 20
0.0000
 30
0.0000
  0
SEQEND
  8
0
  0
POLYLINE
  8
20
 66
1
 10
0.0000
 20
0.0000
 30
0.0000
 40
0.2032
 41
0.2032
 70
0
  0
VERTEX
  8
20
 10
0.1016
 20
200.0000
 30
0.0000
 42
1.0000
  0
VERTEX
  8
20
 10
-0.1016
 20
200.0000
 30
0.0000
  0
SEQEND
  8
0
  0
POLYLINE
  8
20
 66
1
 10
0.0000
 20
0.0000
 30
0.0000
 40
0.4064
 41
0.4064
 70
0
  0
VERTEX
  8
20
 10
0.0000
 20
0.0000
 30
0.0000
  0
VERTEX
  8
20
 10
254.0000
 20
0.0000
 30
0.0000
  0
SEQEND
  8
0
  0
POLYLINE
  8
20
 66
1
 10
0.0000
 20
0.0000
 30
0.0000
 40
0.2032
 41
0.2032
 70
0
  0
VERTEX
  8
20
 10
254.0000
 20
-0.1016
 30
0.0000
 42
1.0000
  0
VERTEX
  8
20
 10
254.0000
 20
0.1016
 30
0.0000
  0
SEQEND
  8
0
  0
POLYLINE
  8
20
 66
1
 10
0.0000
 20
0.0000
 30
0.0000
 40
0.2032
 41
0.2032
 70
0
  0
VERTEX
  8
20
 10
0.0000
 20
0.1016
 30
0.0000
 42
1.0000
  0
VERTEX
  8
20
 10
0.0000
 20
-0.1016
 30
0.0000
  0
SEQEND
  8
0
  0
POLYLINE
  8
20
 66
1
 10
0.0000
 20
0.0000
 30
0.0000
 40
0.4064
 41
0.4064
 70
0
  0
VERTEX
  8
20
 10
297.0000
 20
28.0000
 30
0.0000
  0
VERTEX
  8
20
 10
297.0000
 20
200.0000
 30
0.0000
  0
SEQEND
  8
0
  0
POLYLINE
  8
20
 66
1
 10
0.0000
 20
0.0000
 30
0.0000
 40
0.2032
 41
0.2032
 70
0
  0
VERTEX
  8
20
 10
297.1016
 20
200.0000
 30
0.0000
 42
1.0000
  0
VERTEX
  8
20
 10
296.8984
 20
200.0000
 30
0.0000
  0
SEQEND
  8
0
  0
POLYLINE
  8
20
 66
1
 10
0.0000
 20
0.0000
 30
0.0000
 40
0.2032
 41
0.2032
 70
0
  0
VERTEX
  8
20
 10
296.8984
 20
28.0000
 30
0.0000
 42
1.0000
  0
VERTEX
  8
20
 10
297.1016
 20
28.0000
 30
0.0000
  0
SEQEND
  8
0
  0
POLYLINE
  8
20
 66
1
 10
0.0000
 20
0.0000
 30
0.0000
 40
0.4064
 41
0.4064
 70
0
  0
VERTEX
  8
20
 10
297.0000
 20
200.0000
 30
0.0000
  0
VERTEX
  8
20
 10
0.0000
 20
200.0000
 30
0.0000
  0
SEQEND
  8
0
  0
POLYLINE
  8
20
 66
1
 10
0.0000
 20
0.0000
 30
0.0000
 40
0.2032
 41
0.2032
 70
0
  0
VERTEX
  8
20
 10
0.0000
 20
200.1016
 30
0.0000
 42
1.0000
  0
VERTEX
  8
20
 10
0.0000
 20
199.8984
 30
0.0000
  0
SEQEND
  8
0
  0
POLYLINE
  8
20
 66
1
 10
0.0000
 20
0.0000
 30
0.0000
 40
0.2032
 41
0.2032
 70
0
  0
VERTEX
  8
20
 10
297.0000
 20
199.8984
 30
0.0000
 42
1.0000
  0
VERTEX
  8
20
 10
297.0000
 20
200.1016
 30
0.0000
  0
SEQEND
  8
0
  0
POLYLINE
  8
20
 66
1
 10
0.0000
 20
0.0000
 30
0.0000
 40
0.4064
 41
0.4064
 70
0
  0
VERTEX
  8
20
 10
254.0000
 20
28.0000
 30
0.0000
  0
VERTEX
  8
20
 10
297.0000
 20
28.0000
 30
0.0000
  0
SEQEND
  8
0
  0
POLYLINE
  8
20
 66
1
 10
0.0000
 20
0.0000
 30
0.0000
 40
0.2032
 41
0.2032
 70
0
  0
VERTEX
  8
20
 10
297.0000
 20
27.8984
 30
0.0000
 42
1.0000
  0
VERTEX
  8
20
 10
297.0000
 20
28.1016
 30
0.0000
  0
SEQEND
  8
0
  0
POLYLINE
  8
20
 66
1
 10
0.0000
 20
0.0000
 30
0.0000
 40
0.2032
 41
0.2032
 70
0
  0
VERTEX
  8
20
 10
254.0000
 20
28.1016
 30
0.0000
 42
1.0000
  0
VERTEX
  8
20
 10
254.0000
 20
27.8984
 30
0.0000
  0
SEQEND
  8
0
  0
POLYLINE
  8
20
 66
1
 10
0.0000
 20
0.0000
 30
0.0000
 40
0.4064
 41
0.4064
 70
0
  0
VERTEX
  8
20
 10
254.0000
 20
28.0000
 30
0.0000
  0
VERTEX
  8
20
 10
254.0000
 20
0.0000
 30
0.0000
  0
SEQEND
  8
0
  0
POLYLINE
  8
20
 66
1
 10
0.0000
 20
0.0000
 30
0.0000
 40
0.2032
 41
0.2032
 70
0
  0
VERTEX
  8
20
 10
253.8984
 20
0.0000
 30
0.0000
 42
1.0000
  0
VERTEX
  8
20
 10
254.1016
 20
0.0000
 30
0.0000
  0
SEQEND
  8
0
  0
POLYLINE
  8
20
 66
1
 10
0.0000
 20
0.0000
 30
0.0000
 40
0.2032
 41
0.2032
 70
0
  0
VERTEX
  8
20
 10
254.1016
 20
28.0000
 30
0.0000
 42
1.0000
  0
VERTEX
  8
20
 10
253.8984
 20
28.0000
 30
0.0000
  0
SEQEND
  8
0
  0
POLYLINE
  8
1
 66
1
 10
0.0000
 20
0.0000
 30
0.0000
 40
0.5080
 41
0.5080
 70
0
  0
VERTEX
  8
1
 10
5.2540
 20
194.2198
 30
0.0000
  0
VERTEX
  8
1
 10
7.2369
 20
196.2027
 30
0.0000
  0
SEQEND
  8
0
  0
POLYLINE
  8
1
 66
1
 10
0.0000
 20
0.0000
 30
0.0000
 40
0.2540
 41
0.2540
 70
0
  0
VERTEX
  8
1
 10
7.3267
 20
196.1129
 30
0.0000
 42
1.0000
  0
VERTEX
  8
1
 10
7.1471
 20
196.2925
 30
0.0000
  0
SEQEND
  8
0
  0
POLYLINE
  8
1
 66
1
 10
0.0000
 20
0.0000
 30
0.0000
 40
0.2540
 41
0.2540
 70
0
  0
VERTEX
  8
1
 10
5.1642
 20
194.3096
 30
0.0000
 42
1.0000
  0
VERTEX
  8
1
 10
5.3438
 20
194.1300
 30
0.0000
  0
SEQEND
  8
0
  0
POLYLINE
  8
1
 66
1
 10
0.0000
 20
0.0000
 30
0.0000
 40
0.5080
 41
0.5080
 70
0
  0
VERTEX
  8
1
 10
7.2369
 20
196.2027
 30
0.0000
  0
VERTEX
  8
1
 10
7.2369
 20
190.2540
 30
0.0000
  0
SEQEND
  8
0
  0
POLYLINE
  8
1
 66
1
 10
0.0000
 20
0.0000
 30
0.0000
 40
0.2540
 41
0.2540
 70
0
  0
VERTEX
  8
1
 10
7.1099
 20
190.2540
 30
0.0000
 42
1.0000
  0
VERTEX
  8
1
 10
7.3639
 20
190.2540
 30
0.0000
  0
SEQEND
  8
0
  0
POLYLINE
  8
1
 66
1
 10
0.0000
 20
0.0000
 30
0.0000
 40
0.2540
 41
0.2540
 70
0
  0
VERTEX
  8
1
 10
7.3639
 20
196.2027
 30
0.0000
 42
1.0000
  0
VERTEX
  8
1
 10
7.1099
 20
196.2027
 30
0.0000
  0
SEQEND
  8
0
  0
POLYLINE
  8
1
 66
1
 10
0.0000
 20
0.0000
 30
0.0000
 40
0.5080
 41
0.5080
 70
0
  0
VERTEX
  8
1
 10
5.2540
 20
190.2540
 30
0.0000
  0
VERTEX
  8
1
 10
9.2198
 20
190.2540
 30
0.0000
  0
SEQEND
  8
0
  0
POLYLINE
  8
1
 66
1
 10
0.0000
 20
0.0000
 30
0.0000
 40
0.2540
 41
0.2540
 70
0
  0
VERTEX
  8
1
 10
9.2198
 20
190.1270
 30
0.0000
 42
1.0000
  0
VERTEX
  8
1
 10
9.2198
 20
190.3810
 30
0.0000
  0
SEQEND
  8
0
  0
POLYLINE
  8
1
 66
1
 10
0.0000
 20
0.0000
 30
0.0000
 40
0.2540
 41
0.2540
 70
0
  0
VERTEX
  8
1
 10
5.2540
 20
190.3810
 30
0.0000
 42
1.0000
  0
VERTEX
  8
1
 10
5.2540
 20
190.1270
 30
0.0000
  0
SEQEND
  8
0
  0
CIRCLE
  8
20
 10
4.0000
 20
4.0000
 30
0.0000
 40
1.5000
  0
CIRCLE
  8
20
 10
4.0000
 20
196.0000
 30
0.0000
 40
1.5000
  0
CIRCLE
  8
20
 10
294.0000
 20
196.0000
 30
0.0000
 40
1.5000
  0
CIRCLE
  8
20
 10
294.0000
 20
31.0000
 30
0.0000
 40
1.5000
  0
CIRCLE
  8
20
 10
250.0000
 20
4.0000
 30
0.0000
 40
1.5000
  0
CIRCLE
  8
20
 10
4.0000
 20
105.0000
 30
0.0000
 40
1.5000
  0
CIRCLE
  8
20
 10
294.0000
 20
105.0000
 30
0.0000
 40
1.5000
  0
CIRCLE
  8
20
 10
148.5000
 20
196.0000
 30
0.0000
 40
1.5000
  0
CIRCLE
  8
20
 10
148.5000
 20
4.0000
 30
0.0000
 40
1.5000
  0
CIRCLE
  8
20
 10
148.5000
 20
105.0000
 30
0.0000
 40
1.5000
  0
POINT
  8
23
 10
19.0000
 20
124.5000
 30
0.0000
  0
INSERT
  8
1
  2
PIE
 10
19.0000
 20
124.5000
 30
0.0000
 41
32.0000
 42
32.0000
 43
1.0000
 50
0.0000
  0
POINT
  8
23
 10
19.0000
 20
19.5000
 30
0.0000
  0
INSERT
  8
1
  2
PIE
 10
19.0000
 20
19.5000
 30
0.0000
 41
32.0000
 42
32.0000
 43
1.0000
 50
0.0000
  0
POINT
  8
23
 10
118.5000
 20
124.5000
 30
0.0000
  0
INSERT
  8
1
  2
PIE
 10
118.5000
 20
124.5000
 30
0.0000
 41
32.0000
 42
32.0000
 43
1.0000
 50
0.0000
  0
POINT
  8
23
 10
118.5000
 20
19.5000
 30
0.0000
  0
INSERT
  8
1
  2
PIE
 10
118.5000
 20
19.5000
 30
0.0000
 41
32.0000
 42
32.0000
 43
1.0000
 50
0.0000
  0
POINT
  8
23
 10
217.5000
 20
124.5000
 30
0.0000
  0
INSERT
  8
1
  2
PIE
 10
217.5000
 20
124.5000
 30
0.0000
 41
32.0000
 42
32.0000
 43
1.0000
 50
0.0000
  0
POINT
  8
23
 10
217.5000
 20
19.5000
 30
0.0000
  0
INSERT
  8
1
  2
PIE
 10
217.5000
 20
19.5000
 30
0.0000
 41
32.0000
 42
32.0000
 43
1.0000
 50
0.0000
  0
POINT
  8
23
 10
284.0000
 20
33.0000
 30
0.0000
  0
POLYLINE
  8
21
 66
1
 10
0.0000
 20
0.0000
 30
0.0000
 40
0.1524
 41
0.1524
 70
0
  0
VERTEX
  8
21
 10
283.3650
 20
31.7300
 30
0.0000
  0
VERTEX
  8
21
 10
282.0950
 20
31.7300
 30
0.0000
  0
SEQEND
  8
0
  0
POLYLINE
  8
21
 66
1
 10
0.0000
 20
0.0000
 30
0.0000
 40
0.0762
 41
0.0762
 70
0
  0
VERTEX
  8
21
 10
282.0950
 20
31.7681
 30
0.0000
 42
1.0000
  0
VERTEX
  8
21
 10
282.0950
 20
31.6919
 30
0.0000
  0
SEQEND
  8
0
  0
POLYLINE
  8
21
 66
1
 10
0.0000
 20
0.0000
 30
0.0000
 40
0.0762
 41
0.0762
 70
0
  0
VERTEX
  8
21
 10
283.3650
 20
31.6919
 30
0.0000
 42
1.0000
  0
VERTEX
  8
21
 10
283.3650
 20
31.7681
 30
0.0000
  0
SEQEND
  8
0
  0
POLYLINE
  8
21
 66
1
 10
0.0000
 20
0.0000
 30
0.0000
 40
0.1524
 41
0.1524
 70
0
  0
VERTEX
  8
21
 10
282.0950
 20
31.7300
 30
0.0000
  0
VERTEX
  8
21
 10
281.4600
 20
32.3650
 30
0.0000
  0
SEQEND
  8
0
  0
POLYLINE
  8
21
 66
1
 10
0.0000
 20
0.0000
 30
0.0000
 40
0.0762
 41
0.0762
 70
0
  0
VERTEX
  8
21
 10
281.4869
 20
32.3919
 30
0.0000
 42
1.0000
  0
VERTEX
  8
21
 10
281.4331
 20
32.3381
 30
0.0000
  0
SEQEND
  8
0
  0
POLYLINE
  8
21
 66
1
 10
0.0000
 20
0.0000
 30
0.0000
 40
0.0762
 41
0.0762
 70
0
  0
VERTEX
  8
21
 10
282.0681
 20
31.7031
 30
0.0000
 42
1.0000
  0
VERTEX
  8
21
 10
282.1219
 20
31.7569
 30
0.0000
  0
SEQEND
  8
0
  0
POLYLINE
  8
21
 66
1
 10
0.0000
 20
0.0000
 30
0.0000
 40
0.1524
 41
0.1524
 70
0
  0
VERTEX
  8
21
 10
281.4600
 20
32.3650
 30
0.0000
  0
VERTEX
  8
21
 10
281.4600
 20
33.6350
 30
0.0000
  0
SEQEND
  8
0
  0
POLYLINE
  8
21
 66
1
 10
0.0000
 20
0.0000
 30
0.0000
 40
0.0762
 41
0.0762
 70
0
  0
VERTEX
  8
21
 10
281.4981
 20
33.6350
 30
0.0000
 42
1.0000
  0
VERTEX
  8
21
 10
281.4219
 20
33.6350
 30
0.0000
  0
SEQEND
  8
0
  0
POLYLINE
  8
21
 66
1
 10
0.0000
 20
0.0000
 30
0.0000
 40
0.0762
 41
0.0762
 70
0
  0
VERTEX
  8
21
 10
281.4219
 20
32.3650
 30
0.0000
 42
1.0000
  0
VERTEX
  8
21
 10
281.4981
 20
32.3650
 30
0.0000
  0
SEQEND
  8
0
  0
POLYLINE
  8
21
 66
1
 10
0.0000
 20
0.0000
 30
0.0000
 40
0.1524
 41
0.1524
 70
0
  0
VERTEX
  8
21
 10
281.4600
 20
33.6350
 30
0.0000
  0
VERTEX
  8
21
 10
282.0950
 20
34.2700
 30
0.0000
  0
SEQEND
  8
0
  0
POLYLINE
  8
21
 66
1
 10
0.0000
 20
0.0000
 30
0.0000
 40
0.0762
 41
0.0762
 70
0
  0
VERTEX
  8
21
 10
282.1219
 20
34.2431
 30
0.0000
 42
1.0000
  0
VERTEX
  8
21
 10
282.0681
 20
34.2969
 30
0.0000
  0
SEQEND
  8
0
  0
POLYLINE
  8
21
 66
1
 10
0.0000
 20
0.0000
 30
0.0000
 40
0.0762
 41
0.0762
 70
0
  0
VERTEX
  8
21
 10
281.4331
 20
33.6619
 30
0.0000
 42
1.0000
  0
VERTEX
  8
21
 10
281.4869
 20
33.6081
 30
0.0000
  0
SEQEND
  8
0
  0
POLYLINE
  8
21
 66
1
 10
0.0000
 20
0.0000
 30
0.0000
 40
0.1524
 41
0.1524
 70
0
  0
VERTEX
  8
21
 10
281.4600
 20
32.3650
 30
0.0000
  0
VERTEX
  8
21
 10
280.8250
 20
31.7300
 30
0.0000
  0
SEQEND
  8
0
  0
POLYLINE
  8
21
 66
1
 10
0.0000
 20
0.0000
 30
0.0000
 40
0.0762
 41
0.0762
 70
0
  0
VERTEX
  8
21
 10
280.7981
 20
31.7569
 30
0.0000
 42
1.0000
  0
VERTEX
  8
21
 10
280.8519
 20
31.7031
 30
0.0000
  0
SEQEND
  8
0
  0
POLYLINE
  8
21
 66
1
 10
0.0000
 20
0.0000
 30
0.0000
 40
0.0762
 41
0.0762
 70
0
  0
VERTEX
  8
21
 10
281.4869
 20
32.3381
 30
0.0000
 42
1.0000
  0
VERTEX
  8
21
 10
281.4331
 20
32.3919
 30
0.0000
  0
SEQEND
  8
0
  0
POLYLINE
  8
21
 66
1
 10
0.0000
 20
0.0000
 30
0.0000
 40
0.1524
 41
0.1524
 70
0
  0
VERTEX
  8
21
 10
280.8250
 20
31.7300
 30
0.0000
  0
VERTEX
  8
21
 10
279.5550
 20
31.7300
 30
0.0000
  0
SEQEND
  8
0
  0
POLYLINE
  8
21
 66
1
 10
0.0000
 20
0.0000
 30
0.0000
 40
0.0762
 41
0.0762
 70
0
  0
VERTEX
  8
21
 10
279.5550
 20
31.7681
 30
0.0000
 42
1.0000
  0
VERTEX
  8
21
 10
279.5550
 20
31.6919
 30
0.0000
  0
SEQEND
  8
0
  0
POLYLINE
  8
21
 66
1
 10
0.0000
 20
0.0000
 30
0.0000
 40
0.0762
 41
0.0762
 70
0
  0
VERTEX
  8
21
 10
280.8250
 20
31.6919
 30
0.0000
 42
1.0000
  0
VERTEX
  8
21
 10
280.8250
 20
31.7681
 30
0.0000
  0
SEQEND
  8
0
  0
POLYLINE
  8
21
 66
1
 10
0.0000
 20
0.0000
 30
0.0000
 40
0.1524
 41
0.1524
 70
0
  0
VERTEX
  8
21
 10
279.5550
 20
31.7300
 30
0.0000
  0
VERTEX
  8
21
 10
278.9200
 20
32.3650
 30
0.0000
  0
SEQEND
  8
0
  0
POLYLINE
  8
21
 66
1
 10
0.0000
 20
0.0000
 30
0.0000
 40
0.0762
 41
0.0762
 70
0
  0
VERTEX
  8
21
 10
278.9469
 20
32.3919
 30
0.0000
 42
1.0000
  0
VERTEX
  8
21
 10
278.8931
 20
32.3381
 30
0.0000
  0
SEQEND
  8
0
  0
POLYLINE
  8
21
 66
1
 10
0.0000
 20
0.0000
 30
0.0000
 40
0.0762
 41
0.0762
 70
0
  0
VERTEX
  8
21
 10
279.5281
 20
31.7031
 30
0.0000
 42
1.0000
  0
VERTEX
  8
21
 10
279.5819
 20
31.7569
 30
0.0000
  0
SEQEND
  8
0
  0
POLYLINE
  8
21
 66
1
 10
0.0000
 20
0.0000
 30
0.0000
 40
0.1524
 41
0.1524
 70
0
  0
VERTEX
  8
21
 10
278.9200
 20
32.3650
 30
0.0000
  0
VERTEX
  8
21
 10
278.9200
 20
33.6350
 30
0.0000
  0
SEQEND
  8
0
  0
POLYLINE
  8
21
 66
1
 10
0.0000
 20
0.0000
 30
0.0000
 40
0.0762
 41
0.0762
 70
0
  0
VERTEX
  8
21
 10
278.9581
 20
33.6350
 30
0.0000
 42
1.0000
  0
VERTEX
  8
21
 10
278.8819
 20
33.6350
 30
0.0000
  0
SEQEND
  8
0
  0
POLYLINE
  8
21
 66
1
 10
0.0000
 20
0.0000
 30
0.0000
 40
0.0762
 41
0.0762
 70
0
  0
VERTEX
  8
21
 10
278.8819
 20
32.3650
 30
0.0000
 42
1.0000
  0
VERTEX
  8
21
 10
278.9581
 20
32.3650
 30
0.0000
  0
SEQEND
  8
0
  0
POLYLINE
  8
21
 66
1
 10
0.0000
 20
0.0000
 30
0.0000
 40
0.1524
 41
0.1524
 70
0
  0
VERTEX
  8
21
 10
278.9200
 20
33.6350
 30
0.0000
  0
VERTEX
  8
21
 10
279.5550
 20
34.2700
 30
0.0000
  0
SEQEND
  8
0
  0
POLYLINE
  8
21
 66
1
 10
0.0000
 20
0.0000
 30
0.0000
 40
0.0762
 41
0.0762
 70
0
  0
VERTEX
  8
21
 10
279.5819
 20
34.2431
 30
0.0000
 42
1.0000
  0
VERTEX
  8
21
 10
279.5281
 20
34.2969
 30
0.0000
  0
SEQEND
  8
0
  0
POLYLINE
  8
21
 66
1
 10
0.0000
 20
0.0000
 30
0.0000
 40
0.0762
 41
0.0762
 70
0
  0
VERTEX
  8
21
 10
278.8931
 20
33.6619
 30
0.0000
 42
1.0000
  0
VERTEX
  8
21
 10
278.9469
 20
33.6081
 30
0.0000
  0
SEQEND
  8
0
  0
POLYLINE
  8
21
 66
1
 10
0.0000
 20
0.0000
 30
0.0000
 40
0.1524
 41
0.1524
 70
0
  0
VERTEX
  8
21
 10
279.5550
 20
34.2700
 30
0.0000
  0
VERTEX
  8
21
 10
280.8250
 20
34.2700
 30
0.0000
  0
SEQEND
  8
0
  0
POLYLINE
  8
21
 66
1
 10
0.0000
 20
0.0000
 30
0.0000
 40
0.0762
 41
0.0762
 70
0
  0
VERTEX
  8
21
 10
280.8250
 20
34.2319
 30
0.0000
 42
1.0000
  0
VERTEX
  8
21
 10
280.8250
 20
34.3081
 30
0.0000
  0
SEQEND
  8
0
  0
POLYLINE
  8
21
 66
1
 10
0.0000
 20
0.0000
 30
0.0000
 40
0.0762
 41
0.0762
 70
0
  0
VERTEX
  8
21
 10
279.5550
 20
34.3081
 30
0.0000
 42
1.0000
  0
VERTEX
  8
21
 10
279.5550
 20
34.2319
 30
0.0000
  0
SEQEND
  8
0
  0
POLYLINE
  8
21
 66
1
 10
0.0000
 20
0.0000
 30
0.0000
 40
0.1524
 41
0.1524
 70
0
  0
VERTEX
  8
21
 10
280.8250
 20
34.2700
 30
0.0000
  0
VERTEX
  8
21
 10
281.4600
 20
33.6350
 30
0.0000
  0
SEQEND
  8
0
  0
POLYLINE
  8
21
 66
1
 10
0.0000
 20
0.0000
 30
0.0000
 40
0.0762
 41
0.0762
 70
0
  0
VERTEX
  8
21
 10
281.4331
 20
33.6081
 30
0.0000
 42
1.0000
  0
VERTEX
  8
21
 10
281.4869
 20
33.6619
 30
0.0000
  0
SEQEND
  8
0
  0
POLYLINE
  8
21
 66
1
 10
0.0000
 20
0.0000
 30
0.0000
 40
0.0762
 41
0.0762
 70
0
  0
VERTEX
  8
21
 10
280.8519
 20
34.2969
 30
0.0000
 42
1.0000
  0
VERTEX
  8
21
 10
280.7981
 20
34.2431
 30
0.0000
  0
SEQEND
  8
0
  0
POLYLINE
  8
21
 66
1
 10
0.0000
 20
0.0000
 30
0.0000
 40
0.1524
 41
0.1524
 70
0
  0
VERTEX
  8
21
 10
286.5400
 20
32.3650
 30
0.0000
  0
VERTEX
  8
21
 10
285.9050
 20
31.7300
 30
0.0000
  0
SEQEND
  8
0
  0
POLYLINE
  8
21
 66
1
 10
0.0000
 20
0.0000
 30
0.0000
 40
0.0762
 41
0.0762
 70
0
  0
VERTEX
  8
21
 10
285.8781
 20
31.7569
 30
0.0000
 42
1.0000
  0
VERTEX
  8
21
 10
285.9319
 20
31.7031
 30
0.0000
  0
SEQEND
  8
0
  0
POLYLINE
  8
21
 66
1
 10
0.0000
 20
0.0000
 30
0.0000
 40
0.0762
 41
0.0762
 70
0
  0
VERTEX
  8
21
 10
286.5669
 20
32.3381
 30
0.0000
 42
1.0000
  0
VERTEX
  8
21
 10
286.5131
 20
32.3919
 30
0.0000
  0
SEQEND
  8
0
  0
POLYLINE
  8
21
 66
1
 10
0.0000
 20
0.0000
 30
0.0000
 40
0.1524
 41
0.1524
 70
0
  0
VERTEX
  8
21
 10
285.9050
 20
31.7300
 30
0.0000
  0
VERTEX
  8
21
 10
284.6350
 20
31.7300
 30
0.0000
  0
SEQEND
  8
0
  0
POLYLINE
  8
21
 66
1
 10
0.0000
 20
0.0000
 30
0.0000
 40
0.0762
 41
0.0762
 70
0
  0
VERTEX
  8
21
 10
284.6350
 20
31.7681
 30
0.0000
 42
1.0000
  0
VERTEX
  8
21
 10
284.6350
 20
31.6919
 30
0.0000
  0
SEQEND
  8
0
  0
POLYLINE
  8
21
 66
1
 10
0.0000
 20
0.0000
 30
0.0000
 40
0.0762
 41
0.0762
 70
0
  0
VERTEX
  8
21
 10
285.9050
 20
31.6919
 30
0.0000
 42
1.0000
  0
VERTEX
  8
21
 10
285.9050
 20
31.7681
 30
0.0000
  0
SEQEND
  8
0
  0
POLYLINE
  8
21
 66
1
 10
0.0000
 20
0.0000
 30
0.0000
 40
0.1524
 41
0.1524
 70
0
  0
VERTEX
  8
21
 10
284.6350
 20
31.7300
 30
0.0000
  0
VERTEX
  8
21
 10
284.0000
 20
32.3650
 30
0.0000
  0
SEQEND
  8
0
  0
POLYLINE
  8
21
 66
1
 10
0.0000
 20
0.0000
 30
0.0000
 40
0.0762
 41
0.0762
 70
0
  0
VERTEX
  8
21
 10
284.0269
 20
32.3919
 30
0.0000
 42
1.0000
  0
VERTEX
  8
21
 10
283.9731
 20
32.3381
 30
0.0000
  0
SEQEND
  8
0
  0
POLYLINE
  8
21
 66
1
 10
0.0000
 20
0.0000
 30
0.0000
 40
0.0762
 41
0.0762
 70
0
  0
VERTEX
  8
21
 10
284.6081
 20
31.7031
 30
0.0000
 42
1.0000
  0
VERTEX
  8
21
 10
284.6619
 20
31.7569
 30
0.0000
  0
SEQEND
  8
0
  0
POLYLINE
  8
21
 66
1
 10
0.0000
 20
0.0000
 30
0.0000
 40
0.1524
 41
0.1524
 70
0
  0
VERTEX
  8
21
 10
284.0000
 20
32.3650
 30
0.0000
  0
VERTEX
  8
21
 10
284.0000
 20
33.6350
 30
0.0000
  0
SEQEND
  8
0
  0
POLYLINE
  8
21
 66
1
 10
0.0000
 20
0.0000
 30
0.0000
 40
0.0762
 41
0.0762
 70
0
  0
VERTEX
  8
21
 10
284.0381
 20
33.6350
 30
0.0000
 42
1.0000
  0
VERTEX
  8
21
 10
283.9619
 20
33.6350
 30
0.0000
  0
SEQEND
  8
0
  0
POLYLINE
  8
21
 66
1
 10
0.0000
 20
0.0000
 30
0.0000
 40
0.0762
 41
0.0762
 70
0
  0
VERTEX
  8
21
 10
283.9619
 20
32.3650
 30
0.0000
 42
1.0000
  0
VERTEX
  8
21
 10
284.0381
 20
32.3650
 30
0.0000
  0
SEQEND
  8
0
  0
POLYLINE
  8
21
 66
1
 10
0.0000
 20
0.0000
 30
0.0000
 40
0.1524
 41
0.1524
 70
0
  0
VERTEX
  8
21
 10
284.0000
 20
33.6350
 30
0.0000
  0
VERTEX
  8
21
 10
284.6350
 20
34.2700
 30
0.0000
  0
SEQEND
  8
0
  0
POLYLINE
  8
21
 66
1
 10
0.0000
 20
0.0000
 30
0.0000
 40
0.0762
 41
0.0762
 70
0
  0
VERTEX
  8
21
 10
284.6619
 20
34.2431
 30
0.0000
 42
1.0000
  0
VERTEX
  8
21
 10
284.6081
 20
34.2969
 30
0.0000
  0
SEQEND
  8
0
  0
POLYLINE
  8
21
 66
1
 10
0.0000
 20
0.0000
 30
0.0000
 40
0.0762
 41
0.0762
 70
0
  0
VERTEX
  8
21
 10
283.9731
 20
33.6619
 30
0.0000
 42
1.0000
  0
VERTEX
  8
21
 10
284.0269
 20
33.6081
 30
0.0000
  0
SEQEND
  8
0
  0
POLYLINE
  8
21
 66
1
 10
0.0000
 20
0.0000
 30
0.0000
 40
0.1524
 41
0.1524
 70
0
  0
VERTEX
  8
21
 10
284.6350
 20
34.2700
 30
0.0000
  0
VERTEX
  8
21
 10
285.9050
 20
34.2700
 30
0.0000
  0
SEQEND
  8
0
  0
POLYLINE
  8
21
 66
1
 10
0.0000
 20
0.0000
 30
0.0000
 40
0.0762
 41
0.0762
 70
0
  0
VERTEX
  8
21
 10
285.9050
 20
34.2319
 30
0.0000
 42
1.0000
  0
VERTEX
  8
21
 10
285.9050
 20
34.3081
 30
0.0000
  0
SEQEND
  8
0
  0
POLYLINE
  8
21
 66
1
 10
0.0000
 20
0.0000
 30
0.0000
 40
0.0762
 41
0.0762
 70
0
  0
VERTEX
  8
21
 10
284.6350
 20
34.3081
 30
0.0000
 42
1.0000
  0
VERTEX
  8
21
 10
284.6350
 20
34.2319
 30
0.0000
  0
SEQEND
  8
0
  0
POLYLINE
  8
21
 66
1
 10
0.0000
 20
0.0000
 30
0.0000
 40
0.1524
 41
0.1524
 70
0
  0
VERTEX
  8
21
 10
285.9050
 20
34.2700
 30
0.0000
  0
VERTEX
  8
21
 10
286.5400
 20
33.6350
 30
0.0000
  0
SEQEND
  8
0
  0
POLYLINE
  8
21
 66
1
 10
0.0000
 20
0.0000
 30
0.0000
 40
0.0762
 41
0.0762
 70
0
  0
VERTEX
  8
21
 10
286.5131
 20
33.6081
 30
0.0000
 42
1.0000
  0
VERTEX
  8
21
 10
286.5669
 20
33.6619
 30
0.0000
  0
SEQEND
  8
0
  0
POLYLINE
  8
21
 66
1
 10
0.0000
 20
0.0000
 30
0.0000
 40
0.0762
 41
0.0762
 70
0
  0
VERTEX
  8
21
 10
285.9319
 20
34.2969
 30
0.0000
 42
1.0000
  0
VERTEX
  8
21
 10
285.8781
 20
34.2431
 30
0.0000
  0
SEQEND
  8
0
  0
POLYLINE
  8
21
 66
1
 10
0.0000
 20
0.0000
 30
0.0000
 40
0.1524
 41
0.1524
 70
0
  0
VERTEX
  8
21
 10
283.3650
 20
31.7300
 30
0.0000
  0
VERTEX
  8
21
 10
284.0000
 20
32.3650
 30
0.0000
  0
SEQEND
  8
0
  0
POLYLINE
  8
21
 66
1
 10
0.0000
 20
0.0000
 30
0.0000
 40
0.0762
 41
0.0762
 70
0
  0
VERTEX
  8
21
 10
284.0269
 20
32.3381
 30
0.0000
 42
1.0000
  0
VERTEX
  8
21
 10
283.9731
 20
32.3919
 30
0.0000
  0
SEQEND
  8
0
  0
POLYLINE
  8
21
 66
1
 10
0.0000
 20
0.0000
 30
0.0000
 40
0.0762
 41
0.0762
 70
0
  0
VERTEX
  8
21
 10
283.3381
 20
31.7569
 30
0.0000
 42
1.0000
  0
VERTEX
  8
21
 10
283.3919
 20
31.7031
 30
0.0000
  0
SEQEND
  8
0
  0
POLYLINE
  8
21
 66
1
 10
0.0000
 20
0.0000
 30
0.0000
 40
0.1524
 41
0.1524
 70
0
  0
VERTEX
  8
21
 10
284.0000
 20
33.6350
 30
0.0000
  0
VERTEX
  8
21
 10
283.3650
 20
34.2700
 30
0.0000
  0
SEQEND
  8
0
  0
POLYLINE
  8
21
 66
1
 10
0.0000
 20
0.0000
 30
0.0000
 40
0.0762
 41
0.0762
 70
0
  0
VERTEX
  8
21
 10
283.3919
 20
34.2969
 30
0.0000
 42
1.0000
  0
VERTEX
  8
21
 10
283.3381
 20
34.2431
 30
0.0000
  0
SEQEND
  8
0
  0
POLYLINE
  8
21
 66
1
 10
0.0000
 20
0.0000
 30
0.0000
 40
0.0762
 41
0.0762
 70
0
  0
VERTEX
  8
21
 10
283.9731
 20
33.6081
 30
0.0000
 42
1.0000
  0
VERTEX
  8
21
 10
284.0269
 20
33.6619
 30
0.0000
  0
SEQEND
  8
0
  0
POLYLINE
  8
21
 66
1
 10
0.0000
 20
0.0000
 30
0.0000
 40
0.1524
 41
0.1524
 70
0
  0
VERTEX
  8
21
 10
282.0950
 20
34.2700
 30
0.0000
  0
VERTEX
  8
21
 10
283.3650
 20
34.2700
 30
0.0000
  0
SEQEND
  8
0
  0
POLYLINE
  8
21
 66
1
 10
0.0000
 20
0.0000
 30
0.0000
 40
0.0762
 41
0.0762
 70
0
  0
VERTEX
  8
21
 10
283.3650
 20
34.2319
 30
0.0000
 42
1.0000
  0
VERTEX
  8
21
 10
283.3650
 20
34.3081
 30
0.0000
  0
SEQEND
  8
0
  0
POLYLINE
  8
21
 66
1
 10
0.0000
 20
0.0000
 30
0.0000
 40
0.0762
 41
0.0762
 70
0
  0
VERTEX
  8
21
 10
282.0950
 20
34.3081
 30
0.0000
 42
1.0000
  0
VERTEX
  8
21
 10
282.0950
 20
34.2319
 30
0.0000
  0
SEQEND
  8
0
  0
POLYLINE
  8
21
 66
1
 10
0.0000
 20
0.0000
 30
0.0000
 40
0.1524
 41
0.1524
 70
0
  0
VERTEX
  8
21
 10
290.9850
 20
31.7300
 30
0.0000
  0
VERTEX
  8
21
 10
289.7150
 20
31.7300
 30
0.0000
  0
SEQEND
  8
0
  0
POLYLINE
  8
21
 66
1
 10
0.0000
 20
0.0000
 30
0.0000
 40
0.0762
 41
0.0762
 70
0
  0
VERTEX
  8
21
 10
289.7150
 20
31.7681
 30
0.0000
 42
1.0000
  0
VERTEX
  8
21
 10
289.7150
 20
31.6919
 30
0.0000
  0
SEQEND
  8
0
  0
POLYLINE
  8
21
 66
1
 10
0.0000
 20
0.0000
 30
0.0000
 40
0.0762
 41
0.0762
 70
0
  0
VERTEX
  8
21
 10
290.9850
 20
31.6919
 30
0.0000
 42
1.0000
  0
VERTEX
  8
21
 10
290.9850
 20
31.7681
 30
0.0000
  0
SEQEND
  8
0
  0
POLYLINE
  8
21
 66
1
 10
0.0000
 20
0.0000
 30
0.0000
 40
0.1524
 41
0.1524
 70
0
  0
VERTEX
  8
21
 10
289.7150
 20
31.7300
 30
0.0000
  0
VERTEX
  8
21
 10
289.0800
 20
32.3650
 30
0.0000
  0
SEQEND
  8
0
  0
POLYLINE
  8
21
 66
1
 10
0.0000
 20
0.0000
 30
0.0000
 40
0.0762
 41
0.0762
 70
0
  0
VERTEX
  8
21
 10
289.1069
 20
32.3919
 30
0.0000
 42
1.0000
  0
VERTEX
  8
21
 10
289.0531
 20
32.3381
 30
0.0000
  0
SEQEND
  8
0
  0
POLYLINE
  8
21
 66
1
 10
0.0000
 20
0.0000
 30
0.0000
 40
0.0762
 41
0.0762
 70
0
  0
VERTEX
  8
21
 10
289.6881
 20
31.7031
 30
0.0000
 42
1.0000
  0
VERTEX
  8
21
 10
289.7419
 20
31.7569
 30
0.0000
  0
SEQEND
  8
0
  0
POLYLINE
  8
21
 66
1
 10
0.0000
 20
0.0000
 30
0.0000
 40
0.1524
 41
0.1524
 70
0
  0
VERTEX
  8
21
 10
289.0800
 20
32.3650
 30
0.0000
  0
VERTEX
  8
21
 10
289.0800
 20
33.6350
 30
0.0000
  0
SEQEND
  8
0
  0
POLYLINE
  8
21
 66
1
 10
0.0000
 20
0.0000
 30
0.0000
 40
0.0762
 41
0.0762
 70
0
  0
VERTEX
  8
21
 10
289.1181
 20
33.6350
 30
0.0000
 42
1.0000
  0
VERTEX
  8
21
 10
289.0419
 20
33.6350
 30
0.0000
  0
SEQEND
  8
0
  0
POLYLINE
  8
21
 66
1
 10
0.0000
 20
0.0000
 30
0.0000
 40
0.0762
 41
0.0762
 70
0
  0
VERTEX
  8
21
 10
289.0419
 20
32.3650
 30
0.0000
 42
1.0000
  0
VERTEX
  8
21
 10
289.1181
 20
32.3650
 30
0.0000
  0
SEQEND
  8
0
  0
POLYLINE
  8
21
 66
1
 10
0.0000
 20
0.0000
 30
0.0000
 40
0.1524
 41
0.1524
 70
0
  0
VERTEX
  8
21
 10
289.0800
 20
33.6350
 30
0.0000
  0
VERTEX
  8
21
 10
289.7150
 20
34.2700
 30
0.0000
  0
SEQEND
  8
0
  0
POLYLINE
  8
21
 66
1
 10
0.0000
 20
0.0000
 30
0.0000
 40
0.0762
 41
0.0762
 70
0
  0
VERTEX
  8
21
 10
289.7419
 20
34.2431
 30
0.0000
 42
1.0000
  0
VERTEX
  8
21
 10
289.6881
 20
34.2969
 30
0.0000
  0
SEQEND
  8
0
  0
POLYLINE
  8
21
 66
1
 10
0.0000
 20
0.0000
 30
0.0000
 40
0.0762
 41
0.0762
 70
0
  0
VERTEX
  8
21
 10
289.0531
 20
33.6619
 30
0.0000
 42
1.0000
  0
VERTEX
  8
21
 10
289.1069
 20
33.6081
 30
0.0000
  0
SEQEND
  8
0
  0
POLYLINE
  8
21
 66
1
 10
0.0000
 20
0.0000
 30
0.0000
 40
0.1524
 41
0.1524
 70
0
  0
VERTEX
  8
21
 10
289.0800
 20
32.3650
 30
0.0000
  0
VERTEX
  8
21
 10
288.4450
 20
31.7300
 30
0.0000
  0
SEQEND
  8
0
  0
POLYLINE
  8
21
 66
1
 10
0.0000
 20
0.0000
 30
0.0000
 40
0.0762
 41
0.0762
 70
0
  0
VERTEX
  8
21
 10
288.4181
 20
31.7569
 30
0.0000
 42
1.0000
  0
VERTEX
  8
21
 10
288.4719
 20
31.7031
 30
0.0000
  0
SEQEND
  8
0
  0
POLYLINE
  8
21
 66
1
 10
0.0000
 20
0.0000
 30
0.0000
 40
0.0762
 41
0.0762
 70
0
  0
VERTEX
  8
21
 10
289.1069
 20
32.3381
 30
0.0000
 42
1.0000
  0
VERTEX
  8
21
 10
289.0531
 20
32.3919
 30
0.0000
  0
SEQEND
  8
0
  0
POLYLINE
  8
21
 66
1
 10
0.0000
 20
0.0000
 30
0.0000
 40
0.1524
 41
0.1524
 70
0
  0
VERTEX
  8
21
 10
288.4450
 20
31.7300
 30
0.0000
  0
VERTEX
  8
21
 10
287.1750
 20
31.7300
 30
0.0000
  0
SEQEND
  8
0
  0
POLYLINE
  8
21
 66
1
 10
0.0000
 20
0.0000
 30
0.0000
 40
0.0762
 41
0.0762
 70
0
  0
VERTEX
  8
21
 10
287.1750
 20
31.7681
 30
0.0000
 42
1.0000
  0
VERTEX
  8
21
 10
287.1750
 20
31.6919
 30
0.0000
  0
SEQEND
  8
0
  0
POLYLINE
  8
21
 66
1
 10
0.0000
 20
0.0000
 30
0.0000
 40
0.0762
 41
0.0762
 70
0
  0
VERTEX
  8
21
 10
288.4450
 20
31.6919
 30
0.0000
 42
1.0000
  0
VERTEX
  8
21
 10
288.4450
 20
31.7681
 30
0.0000
  0
SEQEND
  8
0
  0
POLYLINE
  8
21
 66
1
 10
0.0000
 20
0.0000
 30
0.0000
 40
0.1524
 41
0.1524
 70
0
  0
VERTEX
  8
21
 10
287.1750
 20
31.7300
 30
0.0000
  0
VERTEX
  8
21
 10
286.5400
 20
32.3650
 30
0.0000
  0
SEQEND
  8
0
  0
POLYLINE
  8
21
 66
1
 10
0.0000
 20
0.0000
 30
0.0000
 40
0.0762
 41
0.0762
 70
0
  0
VERTEX
  8
21
 10
286.5669
 20
32.3919
 30
0.0000
 42
1.0000
  0
VERTEX
  8
21
 10
286.5131
 20
32.3381
 30
0.0000
  0
SEQEND
  8
0
  0
POLYLINE
  8
21
 66
1
 10
0.0000
 20
0.0000
 30
0.0000
 40
0.0762
 41
0.0762
 70
0
  0
VERTEX
  8
21
 10
287.1481
 20
31.7031
 30
0.0000
 42
1.0000
  0
VERTEX
  8
21
 10
287.2019
 20
31.7569
 30
0.0000
  0
SEQEND
  8
0
  0
POLYLINE
  8
21
 66
1
 10
0.0000
 20
0.0000
 30
0.0000
 40
0.1524
 41
0.1524
 70
0
  0
VERTEX
  8
21
 10
286.5400
 20
32.3650
 30
0.0000
  0
VERTEX
  8
21
 10
286.5400
 20
33.6350
 30
0.0000
  0
SEQEND
  8
0
  0
POLYLINE
  8
21
 66
1
 10
0.0000
 20
0.0000
 30
0.0000
 40
0.0762
 41
0.0762
 70
0
  0
VERTEX
  8
21
 10
286.5781
 20
33.6350
 30
0.0000
 42
1.0000
  0
VERTEX
  8
21
 10
286.5019
 20
33.6350
 30
0.0000
  0
SEQEND
  8
0
  0
POLYLINE
  8
21
 66
1
 10
0.0000
 20
0.0000
 30
0.0000
 40
0.0762
 41
0.0762
 70
0
  0
VERTEX
  8
21
 10
286.5019
 20
32.3650
 30
0.0000
 42
1.0000
  0
VERTEX
  8
21
 10
286.5781
 20
32.3650
 30
0.0000
  0
SEQEND
  8
0
  0
POLYLINE
  8
21
 66
1
 10
0.0000
 20
0.0000
 30
0.0000
 40
0.1524
 41
0.1524
 70
0
  0
VERTEX
  8
21
 10
286.5400
 20
33.6350
 30
0.0000
  0
VERTEX
  8
21
 10
287.1750
 20
34.2700
 30
0.0000
  0
SEQEND
  8
0
  0
POLYLINE
  8
21
 66
1
 10
0.0000
 20
0.0000
 30
0.0000
 40
0.0762
 41
0.0762
 70
0
  0
VERTEX
  8
21
 10
287.2019
 20
34.2431
 30
0.0000
 42
1.0000
  0
VERTEX
  8
21
 10
287.1481
 20
34.2969
 30
0.0000
  0
SEQEND
  8
0
  0
POLYLINE
  8
21
 66
1
 10
0.0000
 20
0.0000
 30
0.0000
 40
0.0762
 41
0.0762
 70
0
  0
VERTEX
  8
21
 10
286.5131
 20
33.6619
 30
0.0000
 42
1.0000
  0
VERTEX
  8
21
 10
286.5669
 20
33.6081
 30
0.0000
  0
SEQEND
  8
0
  0
POLYLINE
  8
21
 66
1
 10
0.0000
 20
0.0000
 30
0.0000
 40
0.1524
 41
0.1524
 70
0
  0
VERTEX
  8
21
 10
287.1750
 20
34.2700
 30
0.0000
  0
VERTEX
  8
21
 10
288.4450
 20
34.2700
 30
0.0000
  0
SEQEND
  8
0
  0
POLYLINE
  8
21
 66
1
 10
0.0000
 20
0.0000
 30
0.0000
 40
0.0762
 41
0.0762
 70
0
  0
VERTEX
  8
21
 10
288.4450
 20
34.2319
 30
0.0000
 42
1.0000
  0
VERTEX
  8
21
 10
288.4450
 20
34.3081
 30
0.0000
  0
SEQEND
  8
0
  0
POLYLINE
  8
21
 66
1
 10
0.0000
 20
0.0000
 30
0.0000
 40
0.0762
 41
0.0762
 70
0
  0
VERTEX
  8
21
 10
287.1750
 20
34.3081
 30
0.0000
 42
1.0000
  0
VERTEX
  8
21
 10
287.1750
 20
34.2319
 30
0.0000
  0
SEQEND
  8
0
  0
POLYLINE
  8
21
 66
1
 10
0.0000
 20
0.0000
 30
0.0000
 40
0.1524
 41
0.1524
 70
0
  0
VERTEX
  8
21
 10
288.4450
 20
34.2700
 30
0.0000
  0
VERTEX
  8
21
 10
289.0800
 20
33.6350
 30
0.0000
  0
SEQEND
  8
0
  0
POLYLINE
  8
21
 66
1
 10
0.0000
 20
0.0000
 30
0.0000
 40
0.0762
 41
0.0762
 70
0
  0
VERTEX
  8
21
 10
289.0531
 20
33.6081
 30
0.0000
 42
1.0000
  0
VERTEX
  8
21
 10
289.1069
 20
33.6619
 30
0.0000
  0
SEQEND
  8
0
  0
POLYLINE
  8
21
 66
1
 10
0.0000
 20
0.0000
 30
0.0000
 40
0.0762
 41
0.0762
 70
0
  0
VERTEX
  8
21
 10
288.4719
 20
34.2969
 30
0.0000
 42
1.0000
  0
VERTEX
  8
21
 10
288.4181
 20
34.2431
 30
0.0000
  0
SEQEND
  8
0
  0
POLYLINE
  8
21
 66
1
 10
0.0000
 20
0.0000
 30
0.0000
 40
0.1524
 41
0.1524
 70
0
  0
VERTEX
  8
21
 10
291.6200
 20
32.3650
 30
0.0000
  0
VERTEX
  8
21
 10
291.6200
 20
33.6350
 30
0.0000
  0
SEQEND
  8
0
  0
POLYLINE
  8
21
 66
1
 10
0.0000
 20
0.0000
 30
0.0000
 40
0.0762
 41
0.0762
 70
0
  0
VERTEX
  8
21
 10
291.6581
 20
33.6350
 30
0.0000
 42
1.0000
  0
VERTEX
  8
21
 10
291.5819
 20
33.6350
 30
0.0000
  0
SEQEND
  8
0
  0
POLYLINE
  8
21
 66
1
 10
0.0000
 20
0.0000
 30
0.0000
 40
0.0762
 41
0.0762
 70
0
  0
VERTEX
  8
21
 10
291.5819
 20
32.3650
 30
0.0000
 42
1.0000
  0
VERTEX
  8
21
 10
291.6581
 20
32.3650
 30
0.0000
  0
SEQEND
  8
0
  0
POLYLINE
  8
21
 66
1
 10
0.0000
 20
0.0000
 30
0.0000
 40
0.1524
 41
0.1524
 70
0
  0
VERTEX
  8
21
 10
290.9850
 20
31.7300
 30
0.0000
  0
VERTEX
  8
21
 10
291.6200
 20
32.3650
 30
0.0000
  0
SEQEND
  8
0
  0
POLYLINE
  8
21
 66
1
 10
0.0000
 20
0.0000
 30
0.0000
 40
0.0762
 41
0.0762
 70
0
  0
VERTEX
  8
21
 10
291.6469
 20
32.3381
 30
0.0000
 42
1.0000
  0
VERTEX
  8
21
 10
291.5931
 20
32.3919
 30
0.0000
  0
SEQEND
  8
0
  0
POLYLINE
  8
21
 66
1
 10
0.0000
 20
0.0000
 30
0.0000
 40
0.0762
 41
0.0762
 70
0
  0
VERTEX
  8
21
 10
290.9581
 20
31.7569
 30
0.0000
 42
1.0000
  0
VERTEX
  8
21
 10
291.0119
 20
31.7031
 30
0.0000
  0
SEQEND
  8
0
  0
POLYLINE
  8
21
 66
1
 10
0.0000
 20
0.0000
 30
0.0000
 40
0.1524
 41
0.1524
 70
0
  0
VERTEX
  8
21
 10
291.6200
 20
33.6350
 30
0.0000
  0
VERTEX
  8
21
 10
290.9850
 20
34.2700
 30
0.0000
  0
SEQEND
  8
0
  0
POLYLINE
  8
21
 66
1
 10
0.0000
 20
0.0000
 30
0.0000
 40
0.0762
 41
0.0762
 70
0
  0
VERTEX
  8
21
 10
291.0119
 20
34.2969
 30
0.0000
 42
1.0000
  0
VERTEX
  8
21
 10
290.9581
 20
34.2431
 30
0.0000
  0
SEQEND
  8
0
  0
POLYLINE
  8
21
 66
1
 10
0.0000
 20
0.0000
 30
0.0000
 40
0.0762
 41
0.0762
 70
0
  0
VERTEX
  8
21
 10
291.5931
 20
33.6081
 30
0.0000
 42
1.0000
  0
VERTEX
  8
21
 10
291.6469
 20
33.6619
 30
0.0000
  0
SEQEND
  8
0
  0
POLYLINE
  8
21
 66
1
 10
0.0000
 20
0.0000
 30
0.0000
 40
0.1524
 41
0.1524
 70
0
  0
VERTEX
  8
21
 10
289.7150
 20
34.2700
 30
0.0000
  0
VERTEX
  8
21
 10
290.9850
 20
34.2700
 30
0.0000
  0
SEQEND
  8
0
  0
POLYLINE
  8
21
 66
1
 10
0.0000
 20
0.0000
 30
0.0000
 40
0.0762
 41
0.0762
 70
0
  0
VERTEX
  8
21
 10
290.9850
 20
34.2319
 30
0.0000
 42
1.0000
  0
VERTEX
  8
21
 10
290.9850
 20
34.3081
 30
0.0000
  0
SEQEND
  8
0
  0
POLYLINE
  8
21
 66
1
 10
0.0000
 20
0.0000
 30
0.0000
 40
0.0762
 41
0.0762
 70
0
  0
VERTEX
  8
21
 10
289.7150
 20
34.3081
 30
0.0000
 42
1.0000
  0
VERTEX
  8
21
 10
289.7150
 20
34.2319
 30
0.0000
  0
SEQEND
  8
0
  0
POLYLINE
  8
21
 66
1
 10
0.0000
 20
0.0000
 30
0.0000
 40
0.1524
 41
0.1524
 70
0
  0
VERTEX
  8
21
 10
278.2850
 20
31.7300
 30
0.0000
  0
VERTEX
  8
21
 10
277.0150
 20
31.7300
 30
0.0000
  0
SEQEND
  8
0
  0
POLYLINE
  8
21
 66
1
 10
0.0000
 20
0.0000
 30
0.0000
 40
0.0762
 41
0.0762
 70
0
  0
VERTEX
  8
21
 10
277.0150
 20
31.7681
 30
0.0000
 42
1.0000
  0
VERTEX
  8
21
 10
277.0150
 20
31.6919
 30
0.0000
  0
SEQEND
  8
0
  0
POLYLINE
  8
21
 66
1
 10
0.0000
 20
0.0000
 30
0.0000
 40
0.0762
 41
0.0762
 70
0
  0
VERTEX
  8
21
 10
278.2850
 20
31.6919
 30
0.0000
 42
1.0000
  0
VERTEX
  8
21
 10
278.2850
 20
31.7681
 30
0.0000
  0
SEQEND
  8
0
  0
POLYLINE
  8
21
 66
1
 10
0.0000
 20
0.0000
 30
0.0000
 40
0.1524
 41
0.1524
 70
0
  0
VERTEX
  8
21
 10
277.0150
 20
31.7300
 30
0.0000
  0
VERTEX
  8
21
 10
276.3800
 20
32.3650
 30
0.0000
  0
SEQEND
  8
0
  0
POLYLINE
  8
21
 66
1
 10
0.0000
 20
0.0000
 30
0.0000
 40
0.0762
 41
0.0762
 70
0
  0
VERTEX
  8
21
 10
276.4069
 20
32.3919
 30
0.0000
 42
1.0000
  0
VERTEX
  8
21
 10
276.3531
 20
32.3381
 30
0.0000
  0
SEQEND
  8
0
  0
POLYLINE
  8
21
 66
1
 10
0.0000
 20
0.0000
 30
0.0000
 40
0.0762
 41
0.0762
 70
0
  0
VERTEX
  8
21
 10
276.9881
 20
31.7031
 30
0.0000
 42
1.0000
  0
VERTEX
  8
21
 10
277.0419
 20
31.7569
 30
0.0000
  0
SEQEND
  8
0
  0
POLYLINE
  8
21
 66
1
 10
0.0000
 20
0.0000
 30
0.0000
 40
0.1524
 41
0.1524
 70
0
  0
VERTEX
  8
21
 10
276.3800
 20
32.3650
 30
0.0000
  0
VERTEX
  8
21
 10
276.3800
 20
33.6350
 30
0.0000
  0
SEQEND
  8
0
  0
POLYLINE
  8
21
 66
1
 10
0.0000
 20
0.0000
 30
0.0000
 40
0.0762
 41
0.0762
 70
0
  0
VERTEX
  8
21
 10
276.4181
 20
33.6350
 30
0.0000
 42
1.0000
  0
VERTEX
  8
21
 10
276.3419
 20
33.6350
 30
0.0000
  0
SEQEND
  8
0
  0
POLYLINE
  8
21
 66
1
 10
0.0000
 20
0.0000
 30
0.0000
 40
0.0762
 41
0.0762
 70
0
  0
VERTEX
  8
21
 10
276.3419
 20
32.3650
 30
0.0000
 42
1.0000
  0
VERTEX
  8
21
 10
276.4181
 20
32.3650
 30
0.0000
  0
SEQEND
  8
0
  0
POLYLINE
  8
21
 66
1
 10
0.0000
 20
0.0000
 30
0.0000
 40
0.1524
 41
0.1524
 70
0
  0
VERTEX
  8
21
 10
276.3800
 20
33.6350
 30
0.0000
  0
VERTEX
  8
21
 10
277.0150
 20
34.2700
 30
0.0000
  0
SEQEND
  8
0
  0
POLYLINE
  8
21
 66
1
 10
0.0000
 20
0.0000
 30
0.0000
 40
0.0762
 41
0.0762
 70
0
  0
VERTEX
  8
21
 10
277.0419
 20
34.2431
 30
0.0000
 42
1.0000
  0
VERTEX
  8
21
 10
276.9881
 20
34.2969
 30
0.0000
  0
SEQEND
  8
0
  0
POLYLINE
  8
21
 66
1
 10
0.0000
 20
0.0000
 30
0.0000
 40
0.0762
 41
0.0762
 70
0
  0
VERTEX
  8
21
 10
276.3531
 20
33.6619
 30
0.0000
 42
1.0000
  0
VERTEX
  8
21
 10
276.4069
 20
33.6081
 30
0.0000
  0
SEQEND
  8
0
  0
POLYLINE
  8
21
 66
1
 10
0.0000
 20
0.0000
 30
0.0000
 40
0.1524
 41
0.1524
 70
0
  0
VERTEX
  8
21
 10
278.2850
 20
31.7300
 30
0.0000
  0
VERTEX
  8
21
 10
278.9200
 20
32.3650
 30
0.0000
  0
SEQEND
  8
0
  0
POLYLINE
  8
21
 66
1
 10
0.0000
 20
0.0000
 30
0.0000
 40
0.0762
 41
0.0762
 70
0
  0
VERTEX
  8
21
 10
278.9469
 20
32.3381
 30
0.0000
 42
1.0000
  0
VERTEX
  8
21
 10
278.8931
 20
32.3919
 30
0.0000
  0
SEQEND
  8
0
  0
POLYLINE
  8
21
 66
1
 10
0.0000
 20
0.0000
 30
0.0000
 40
0.0762
 41
0.0762
 70
0
  0
VERTEX
  8
21
 10
278.2581
 20
31.7569
 30
0.0000
 42
1.0000
  0
VERTEX
  8
21
 10
278.3119
 20
31.7031
 30
0.0000
  0
SEQEND
  8
0
  0
POLYLINE
  8
21
 66
1
 10
0.0000
 20
0.0000
 30
0.0000
 40
0.1524
 41
0.1524
 70
0
  0
VERTEX
  8
21
 10
278.9200
 20
33.6350
 30
0.0000
  0
VERTEX
  8
21
 10
278.2850
 20
34.2700
 30
0.0000
  0
SEQEND
  8
0
  0
POLYLINE
  8
21
 66
1
 10
0.0000
 20
0.0000
 30
0.0000
 40
0.0762
 41
0.0762
 70
0
  0
VERTEX
  8
21
 10
278.3119
 20
34.2969
 30
0.0000
 42
1.0000
  0
VERTEX
  8
21
 10
278.2581
 20
34.2431
 30
0.0000
  0
SEQEND
  8
0
  0
POLYLINE
  8
21
 66
1
 10
0.0000
 20
0.0000
 30
0.0000
 40
0.0762
 41
0.0762
 70
0
  0
VERTEX
  8
21
 10
278.8931
 20
33.6081
 30
0.0000
 42
1.0000
  0
VERTEX
  8
21
 10
278.9469
 20
33.6619
 30
0.0000
  0
SEQEND
  8
0
  0
POLYLINE
  8
21
 66
1
 10
0.0000
 20
0.0000
 30
0.0000
 40
0.1524
 41
0.1524
 70
0
  0
VERTEX
  8
21
 10
277.0150
 20
34.2700
 30
0.0000
  0
VERTEX
  8
21
 10
278.2850
 20
34.2700
 30
0.0000
  0
SEQEND
  8
0
  0
POLYLINE
  8
21
 66
1
 10
0.0000
 20
0.0000
 30
0.0000
 40
0.0762
 41
0.0762
 70
0
  0
VERTEX
  8
21
 10
278.2850
 20
34.2319
 30
0.0000
 42
1.0000
  0
VERTEX
  8
21
 10
278.2850
 20
34.3081
 30
0.0000
  0
SEQEND
  8
0
  0
POLYLINE
  8
21
 66
1
 10
0.0000
 20
0.0000
 30
0.0000
 40
0.0762
 41
0.0762
 70
0
  0
VERTEX
  8
21
 10
277.0150
 20
34.3081
 30
0.0000
 42
1.0000
  0
VERTEX
  8
21
 10
277.0150
 20
34.2319
 30
0.0000
  0
SEQEND
  8
0
  0
POLYLINE
  8
25
 66
1
 10
0.0000
 20
0.0000
 30
0.0000
 40
0.1270
 41
0.1270
 70
0
  0
VERTEX
  8
25
 10
289.4209
 20
31.1087
 30
0.0000
  0
VERTEX
  8
25
 10
290.1836
 20
29.9647
 30
0.0000
  0
SEQEND
  8
0
  0
POLYLINE
  8
25
 66
1
 10
0.0000
 20
0.0000
 30
0.0000
 40
0.0635
 41
0.0635
 70
0
  0
VERTEX
  8
25
 10
290.1571
 20
29.9471
 30
0.0000
 42
1.0000
  0
VERTEX
  8
25
 10
290.2100
 20
29.9823
 30
0.0000
  0
SEQEND
  8
0
  0
POLYLINE
  8
25
 66
1
 10
0.0000
 20
0.0000
 30
0.0000
 40
0.0635
 41
0.0635
 70
0
  0
VERTEX
  8
25
 10
289.4473
 20
31.1263
 30
0.0000
 42
1.0000
  0
VERTEX
  8
25
 10
289.3945
 20
31.0911
 30
0.0000
  0
SEQEND
  8
0
  0
POLYLINE
  8
25
 66
1
 10
0.0000
 20
0.0000
 30
0.0000
 40
0.1270
 41
0.1270
 70
0
  0
VERTEX
  8
25
 10
290.1836
 20
31.1087
 30
0.0000
  0
VERTEX
  8
25
 10
289.4209
 20
29.9647
 30
0.0000
  0
SEQEND
  8
0
  0
POLYLINE
  8
25
 66
1
 10
0.0000
 20
0.0000
 30
0.0000
 40
0.0635
 41
0.0635
 70
0
  0
VERTEX
  8
25
 10
289.3945
 20
29.9823
 30
0.0000
 42
1.0000
  0
VERTEX
  8
25
 10
289.4473
 20
29.9471
 30
0.0000
  0
SEQEND
  8
0
  0
POLYLINE
  8
25
 66
1
 10
0.0000
 20
0.0000
 30
0.0000
 40
0.0635
 41
0.0635
 70
0
  0
VERTEX
  8
25
 10
290.2100
 20
31.0911
 30
0.0000
 42
1.0000
  0
VERTEX
  8
25
 10
290.1571
 20
31.1263
 30
0.0000
  0
SEQEND
  8
0
  0
POLYLINE
  8
25
 66
1
 10
0.0000
 20
0.0000
 30
0.0000
 40
0.1270
 41
0.1270
 70
0
  0
VERTEX
  8
25
 10
290.5903
 20
30.7274
 30
0.0000
  0
VERTEX
  8
25
 10
290.9716
 20
31.1087
 30
0.0000
  0
SEQEND
  8
0
  0
POLYLINE
  8
25
 66
1
 10
0.0000
 20
0.0000
 30
0.0000
 40
0.0635
 41
0.0635
 70
0
  0
VERTEX
  8
25
 10
290.9941
 20
31.0862
 30
0.0000
 42
1.0000
  0
VERTEX
  8
25
 10
290.9492
 20
31.1311
 30
0.0000
  0
SEQEND
  8
0
  0
POLYLINE
  8
25
 66
1
 10
0.0000
 20
0.0000
 30
0.0000
 40
0.0635
 41
0.0635
 70
0
  0
VERTEX
  8
25
 10
290.5678
 20
30.7498
 30
0.0000
 42
1.0000
  0
VERTEX
  8
25
 10
290.6128
 20
30.7049
 30
0.0000
  0
SEQEND
  8
0
  0
POLYLINE
  8
25
 66
1
 10
0.0000
 20
0.0000
 30
0.0000
 40
0.1270
 41
0.1270
 70
0
  0
VERTEX
  8
25
 10
290.9716
 20
31.1087
 30
0.0000
  0
VERTEX
  8
25
 10
290.9716
 20
29.9647
 30
0.0000
  0
SEQEND
  8
0
  0
POLYLINE
  8
25
 66
1
 10
0.0000
 20
0.0000
 30
0.0000
 40
0.0635
 41
0.0635
 70
0
  0
VERTEX
  8
25
 10
290.9399
 20
29.9647
 30
0.0000
 42
1.0000
  0
VERTEX
  8
25
 10
291.0034
 20
29.9647
 30
0.0000
  0
SEQEND
  8
0
  0
POLYLINE
  8
25
 66
1
 10
0.0000
 20
0.0000
 30
0.0000
 40
0.0635
 41
0.0635
 70
0
  0
VERTEX
  8
25
 10
291.0034
 20
31.1087
 30
0.0000
 42
1.0000
  0
VERTEX
  8
25
 10
290.9399
 20
31.1087
 30
0.0000
  0
SEQEND
  8
0
  0
POLYLINE
  8
25
 66
1
 10
0.0000
 20
0.0000
 30
0.0000
 40
0.1270
 41
0.1270
 70
0
  0
VERTEX
  8
25
 10
290.5903
 20
29.9647
 30
0.0000
  0
VERTEX
  8
25
 10
291.3530
 20
29.9647
 30
0.0000
  0
SEQEND
  8
0
  0
POLYLINE
  8
25
 66
1
 10
0.0000
 20
0.0000
 30
0.0000
 40
0.0635
 41
0.0635
 70
0
  0
VERTEX
  8
25
 10
291.3530
 20
29.9330
 30
0.0000
 42
1.0000
  0
VERTEX
  8
25
 10
291.3530
 20
29.9964
 30
0.0000
  0
SEQEND
  8
0
  0
POLYLINE
  8
25
 66
1
 10
0.0000
 20
0.0000
 30
0.0000
 40
0.0635
 41
0.0635
 70
0
  0
VERTEX
  8
25
 10
290.5903
 20
29.9964
 30
0.0000
 42
1.0000
  0
VERTEX
  8
25
 10
290.5903
 20
29.9330
 30
0.0000
  0
SEQEND
  8
0
  0
INSERT
  8
51
  2
RECT
 10
280.1900
 20
33.0000
 30
0.0000
 41
0.5080
 42
0.5080
 43
1.0000
 50
180.0000
  0
INSERT
  8
51
  2
RECT
 10
282.7300
 20
33.0000
 30
0.0000
 41
0.5080
 42
0.5080
 43
1.0000
 50
180.0000
  0
INSERT
  8
51
  2
RECT
 10
285.2700
 20
33.0000
 30
0.0000
 41
0.5080
 42
0.5080
 43
1.0000
 50
180.0000
  0
INSERT
  8
51
  2
RECT
 10
287.8100
 20
33.0000
 30
0.0000
 41
0.5080
 42
0.5080
 43
1.0000
 50
180.0000
  0
INSERT
  8
51
  2
RECT
 10
290.3500
 20
33.0000
 30
0.0000
 41
0.5080
 42
0.5080
 43
1.0000
 50
180.0000
  0
INSERT
  8
51
  2
RECT
 10
277.6500
 20
33.0000
 30
0.0000
 41
0.5080
 42
0.5080
 43
1.0000
 50
180.0000
  0
INSERT
  8
17
  2
LONGP100
 10
290.3500
 20
33.0000
 30
0.0000
 41
1.6160
 42
1.6160
 43
1.0000
 50
270.0000
  0
INSERT
  8
17
  2
LONGP100
 10
290.3500
 20
33.0000
 30
0.0000
 41
1.6160
 42
1.6160
 43
1.0000
 50
270.0000
  0
INSERT
  8
17
  2
LONGP100
 10
287.8100
 20
33.0000
 30
0.0000
 41
1.6160
 42
1.6160
 43
1.0000
 50
270.0000
  0
INSERT
  8
17
  2
LONGP100
 10
287.8100
 20
33.0000
 30
0.0000
 41
1.6160
 42
1.6160
 43
1.0000
 50
270.0000
  0
INSERT
  8
17
  2
LONGP100
 10
285.2700
 20
33.0000
 30
0.0000
 41
1.6160
 42
1.6160
 43
1.0000
 50
270.0000
  0
INSERT
  8
17
  2
LONGP100
 10
285.2700
 20
33.0000
 30
0.0000
 41
1.6160
 42
1.6160
 43
1.0000
 50
270.0000
  0
INSERT
  8
17
  2
LONGP100
 10
282.7300
 20
33.0000
 30
0.0000
 41
1.6160
 42
1.6160
 43
1.0000
 50
270.0000
  0
INSERT
  8
17
  2
LONGP100
 10
282.7300
 20
33.0000
 30
0.0000
 41
1.6160
 42
1.6160
 43
1.0000
 50
270.0000
  0
INSERT
  8
17
  2
LONGP100
 10
280.1900
 20
33.0000
 30
0.0000
 41
1.6160
 42
1.6160
 43
1.0000
 50
270.0000
  0
INSERT
  8
17
  2
LONGP100
 10
280.1900
 20
33.0000
 30
0.0000
 41
1.6160
 42
1.6160
 43
1.0000
 50
270.0000
  0
INSERT
  8
17
  2
LONGP100
 10
277.6500
 20
33.0000
 30
0.0000
 41
1.6160
 42
1.6160
 43
1.0000
 50
270.0000
  0
INSERT
  8
17
  2
LONGP100
 10
277.6500
 20
33.0000
 30
0.0000
 41
1.6160
 42
1.6160
 43
1.0000
 50
270.0000
  0
POLYLINE
  8
1
 66
1
 10
0.0000
 20
0.0000
 30
0.0000
 40
0.4064
 41
0.4064
 70
0
  0
VERTEX
  8
1
 10
19.0000
 20
124.5000
 30
0.0000
  0
VERTEX
  8
1
 10
19.0000
 20
93.0000
 30
0.0000
  0
SEQEND
  8
0
  0
POLYLINE
  8
1
 66
1
 10
0.0000
 20
0.0000
 30
0.0000
 40
0.2032
 41
0.2032
 70
0
  0
VERTEX
  8
1
 10
18.8984
 20
93.0000
 30
0.0000
 42
1.0000
  0
VERTEX
  8
1
 10
19.1016
 20
93.0000
 30
0.0000
  0
SEQEND
  8
0
  0
POLYLINE
  8
1
 66
1
 10
0.0000
 20
0.0000
 30
0.0000
 40
0.2032
 41
0.2032
 70
0
  0
VERTEX
  8
1
 10
19.1016
 20
124.5000
 30
0.0000
 42
1.0000
  0
VERTEX
  8
1
 10
18.8984
 20
124.5000
 30
0.0000
  0
SEQEND
  8
0
  0
POLYLINE
  8
1
 66
1
 10
0.0000
 20
0.0000
 30
0.0000
 40
0.4064
 41
0.4064
 70
0
  0
VERTEX
  8
1
 10
19.0000
 20
93.0000
 30
0.0000
  0
VERTEX
  8
1
 10
51.9000
 20
60.1000
 30
0.0000
  0
SEQEND
  8
0
  0
POLYLINE
  8
1
 66
1
 10
0.0000
 20
0.0000
 30
0.0000
 40
0.2032
 41
0.2032
 70
0
  0
VERTEX
  8
1
 10
51.8282
 20
60.0282
 30
0.0000
 42
1.0000
  0
VERTEX
  8
1
 10
51.9718
 20
60.1718
 30
0.0000
  0
SEQEND
  8
0
  0
POLYLINE
  8
1
 66
1
 10
0.0000
 20
0.0000
 30
0.0000
 40
0.2032
 41
0.2032
 70
0
  0
VERTEX
  8
1
 10
19.0718
 20
93.0718
 30
0.0000
 42
1.0000
  0
VERTEX
  8
1
 10
18.9282
 20
92.9282
 30
0.0000
  0
SEQEND
  8
0
  0
POLYLINE
  8
1
 66
1
 10
0.0000
 20
0.0000
 30
0.0000
 40
0.4064
 41
0.4064
 70
0
  0
VERTEX
  8
1
 10
51.9000
 20
60.1000
 30
0.0000
  0
VERTEX
  8
1
 10
270.1000
 20
60.1000
 30
0.0000
  0
SEQEND
  8
0
  0
POLYLINE
  8
1
 66
1
 10
0.0000
 20
0.0000
 30
0.0000
 40
0.2032
 41
0.2032
 70
0
  0
VERTEX
  8
1
 10
270.1000
 20
59.9984
 30
0.0000
 42
1.0000
  0
VERTEX
  8
1
 10
270.1000
 20
60.2016
 30
0.0000
  0
SEQEND
  8
0
  0
POLYLINE
  8
1
 66
1
 10
0.0000
 20
0.0000
 30
0.0000
 40
0.2032
 41
0.2032
 70
0
  0
VERTEX
  8
1
 10
51.9000
 20
60.2016
 30
0.0000
 42
1.0000
  0
VERTEX
  8
1
 10
51.9000
 20
59.9984
 30
0.0000
  0
SEQEND
  8
0
  0
POLYLINE
  8
1
 66
1
 10
0.0000
 20
0.0000
 30
0.0000
 40
0.4064
 41
0.4064
 70
0
  0
VERTEX
  8
1
 10
270.1000
 20
60.1000
 30
0.0000
  0
VERTEX
  8
1
 10
285.2800
 20
44.9200
 30
0.0000
  0
SEQEND
  8
0
  0
POLYLINE
  8
1
 66
1
 10
0.0000
 20
0.0000
 30
0.0000
 40
0.2032
 41
0.2032
 70
0
  0
VERTEX
  8
1
 10
285.2082
 20
44.8482
 30
0.0000
 42
1.0000
  0
VERTEX
  8
1
 10
285.3518
 20
44.9918
 30
0.0000
  0
SEQEND
  8
0
  0
POLYLINE
  8
1
 66
1
 10
0.0000
 20
0.0000
 30
0.0000
 40
0.2032
 41
0.2032
 70
0
  0
VERTEX
  8
1
 10
270.1718
 20
60.1718
 30
0.0000
 42
1.0000
  0
VERTEX
  8
1
 10
270.0282
 20
60.0282
 30
0.0000
  0
SEQEND
  8
0
  0
POLYLINE
  8
1
 66
1
 10
0.0000
 20
0.0000
 30
0.0000
 40
0.4064
 41
0.4064
 70
0
  0
VERTEX
  8
1
 10
285.2800
 20
44.9200
 30
0.0000
  0
VERTEX
  8
1
 10
285.2800
 20
32.9600
 30
0.0000
  0
SEQEND
  8
0
  0
POLYLINE
  8
1
 66
1
 10
0.0000
 20
0.0000
 30
0.0000
 40
0.2032
 41
0.2032
 70
0
  0
VERTEX
  8
1
 10
285.1784
 20
32.9600
 30
0.0000
 42
1.0000
  0
VERTEX
  8
1
 10
285.3816
 20
32.9600
 30
0.0000
  0
SEQEND
  8
0
  0
POLYLINE
  8
1
 66
1
 10
0.0000
 20
0.0000
 30
0.0000
 40
0.2032
 41
0.2032
 70
0
  0
VERTEX
  8
1
 10
285.3816
 20
44.9200
 30
0.0000
 42
1.0000
  0
VERTEX
  8
1
 10
285.1784
 20
44.9200
 30
0.0000
  0
SEQEND
  8
0
  0
POLYLINE
  8
1
 66
1
 10
0.0000
 20
0.0000
 30
0.0000
 40
0.4064
 41
0.4064
 70
0
  0
VERTEX
  8
1
 10
118.7000
 20
124.4000
 30
0.0000
  0
VERTEX
  8
1
 10
118.7000
 20
90.5000
 30
0.0000
  0
SEQEND
  8
0
  0
POLYLINE
  8
1
 66
1
 10
0.0000
 20
0.0000
 30
0.0000
 40
0.2032
 41
0.2032
 70
0
  0
VERTEX
  8
1
 10
118.5984
 20
90.5000
 30
0.0000
 42
1.0000
  0
VERTEX
  8
1
 10
118.8016
 20
90.5000
 30
0.0000
  0
SEQEND
  8
0
  0
POLYLINE
  8
1
 66
1
 10
0.0000
 20
0.0000
 30
0.0000
 40
0.2032
 41
0.2032
 70
0
  0
VERTEX
  8
1
 10
118.8016
 20
124.4000
 30
0.0000
 42
1.0000
  0
VERTEX
  8
1
 10
118.5984
 20
124.4000
 30
0.0000
  0
SEQEND
  8
0
  0
POLYLINE
  8
1
 66
1
 10
0.0000
 20
0.0000
 30
0.0000
 40
0.4064
 41
0.4064
 70
0
  0
VERTEX
  8
1
 10
118.7000
 20
90.5000
 30
0.0000
  0
VERTEX
  8
1
 10
128.7000
 20
80.5000
 30
0.0000
  0
SEQEND
  8
0
  0
POLYLINE
  8
1
 66
1
 10
0.0000
 20
0.0000
 30
0.0000
 40
0.2032
 41
0.2032
 70
0
  0
VERTEX
  8
1
 10
128.6282
 20
80.4282
 30
0.0000
 42
1.0000
  0
VERTEX
  8
1
 10
128.7718
 20
80.5718
 30
0.0000
  0
SEQEND
  8
0
  0
POLYLINE
  8
1
 66
1
 10
0.0000
 20
0.0000
 30
0.0000
 40
0.2032
 41
0.2032
 70
0
  0
VERTEX
  8
1
 10
118.7718
 20
90.5718
 30
0.0000
 42
1.0000
  0
VERTEX
  8
1
 10
118.6282
 20
90.4282
 30
0.0000
  0
SEQEND
  8
0
  0
POLYLINE
  8
1
 66
1
 10
0.0000
 20
0.0000
 30
0.0000
 40
0.4064
 41
0.4064
 70
0
  0
VERTEX
  8
1
 10
128.7000
 20
80.5000
 30
0.0000
  0
VERTEX
  8
1
 10
261.9000
 20
80.5000
 30
0.0000
  0
SEQEND
  8
0
  0
POLYLINE
  8
1
 66
1
 10
0.0000
 20
0.0000
 30
0.0000
 40
0.2032
 41
0.2032
 70
0
  0
VERTEX
  8
1
 10
261.9000
 20
80.3984
 30
0.0000
 42
1.0000
  0
VERTEX
  8
1
 10
261.9000
 20
80.6016
 30
0.0000
  0
SEQEND
  8
0
  0
POLYLINE
  8
1
 66
1
 10
0.0000
 20
0.0000
 30
0.0000
 40
0.2032
 41
0.2032
 70
0
  0
VERTEX
  8
1
 10
128.7000
 20
80.6016
 30
0.0000
 42
1.0000
  0
VERTEX
  8
1
 10
128.7000
 20
80.3984
 30
0.0000
  0
SEQEND
  8
0
  0
POLYLINE
  8
1
 66
1
 10
0.0000
 20
0.0000
 30
0.0000
 40
0.4064
 41
0.4064
 70
0
  0
VERTEX
  8
1
 10
261.9000
 20
80.5000
 30
0.0000
  0
VERTEX
  8
1
 10
263.3000
 20
79.1000
 30
0.0000
  0
SEQEND
  8
0
  0
POLYLINE
  8
1
 66
1
 10
0.0000
 20
0.0000
 30
0.0000
 40
0.2032
 41
0.2032
 70
0
  0
VERTEX
  8
1
 10
263.2282
 20
79.0282
 30
0.0000
 42
1.0000
  0
VERTEX
  8
1
 10
263.3718
 20
79.1718
 30
0.0000
  0
SEQEND
  8
0
  0
POLYLINE
  8
1
 66
1
 10
0.0000
 20
0.0000
 30
0.0000
 40
0.2032
 41
0.2032
 70
0
  0
VERTEX
  8
1
 10
261.9718
 20
80.5718
 30
0.0000
 42
1.0000
  0
VERTEX
  8
1
 10
261.8282
 20
80.4282
 30
0.0000
  0
SEQEND
  8
0
  0
POLYLINE
  8
1
 66
1
 10
0.0000
 20
0.0000
 30
0.0000
 40
0.4064
 41
0.4064
 70
0
  0
VERTEX
  8
1
 10
263.3000
 20
79.1000
 30
0.0000
  0
VERTEX
  8
1
 10
263.3000
 20
77.2000
 30
0.0000
  0
SEQEND
  8
0
  0
POLYLINE
  8
1
 66
1
 10
0.0000
 20
0.0000
 30
0.0000
 40
0.2032
 41
0.2032
 70
0
  0
VERTEX
  8
1
 10
263.1984
 20
77.2000
 30
0.0000
 42
1.0000
  0
VERTEX
  8
1
 10
263.4016
 20
77.2000
 30
0.0000
  0
SEQEND
  8
0
  0
POLYLINE
  8
1
 66
1
 10
0.0000
 20
0.0000
 30
0.0000
 40
0.2032
 41
0.2032
 70
0
  0
VERTEX
  8
1
 10
263.4016
 20
79.1000
 30
0.0000
 42
1.0000
  0
VERTEX
  8
1
 10
263.1984
 20
79.1000
 30
0.0000
  0
SEQEND
  8
0
  0
POLYLINE
  8
1
 66
1
 10
0.0000
 20
0.0000
 30
0.0000
 40
0.4064
 41
0.4064
 70
0
  0
VERTEX
  8
1
 10
263.3000
 20
77.2000
 30
0.0000
  0
VERTEX
  8
1
 10
262.0000
 20
75.9000
 30
0.0000
  0
SEQEND
  8
0
  0
POLYLINE
  8
1
 66
1
 10
0.0000
 20
0.0000
 30
0.0000
 40
0.2032
 41
0.2032
 70
0
  0
VERTEX
  8
1
 10
261.9282
 20
75.9718
 30
0.0000
 42
1.0000
  0
VERTEX
  8
1
 10
262.0718
 20
75.8282
 30
0.0000
  0
SEQEND
  8
0
  0
POLYLINE
  8
1
 66
1
 10
0.0000
 20
0.0000
 30
0.0000
 40
0.2032
 41
0.2032
 70
0
  0
VERTEX
  8
1
 10
263.3718
 20
77.1282
 30
0.0000
 42
1.0000
  0
VERTEX
  8
1
 10
263.2282
 20
77.2718
 30
0.0000
  0
SEQEND
  8
0
  0
POLYLINE
  8
1
 66
1
 10
0.0000
 20
0.0000
 30
0.0000
 40
0.4064
 41
0.4064
 70
0
  0
VERTEX
  8
1
 10
262.0000
 20
75.9000
 30
0.0000
  0
VERTEX
  8
1
 10
222.2000
 20
75.9000
 30
0.0000
  0
SEQEND
  8
0
  0
POLYLINE
  8
1
 66
1
 10
0.0000
 20
0.0000
 30
0.0000
 40
0.2032
 41
0.2032
 70
0
  0
VERTEX
  8
1
 10
222.2000
 20
76.0016
 30
0.0000
 42
1.0000
  0
VERTEX
  8
1
 10
222.2000
 20
75.7984
 30
0.0000
  0
SEQEND
  8
0
  0
POLYLINE
  8
1
 66
1
 10
0.0000
 20
0.0000
 30
0.0000
 40
0.2032
 41
0.2032
 70
0
  0
VERTEX
  8
1
 10
262.0000
 20
75.7984
 30
0.0000
 42
1.0000
  0
VERTEX
  8
1
 10
262.0000
 20
76.0016
 30
0.0000
  0
SEQEND
  8
0
  0
POLYLINE
  8
1
 66
1
 10
0.0000
 20
0.0000
 30
0.0000
 40
0.4064
 41
0.4064
 70
0
  0
VERTEX
  8
1
 10
222.2000
 20
75.9000
 30
0.0000
  0
VERTEX
  8
1
 10
220.9000
 20
74.6000
 30
0.0000
  0
SEQEND
  8
0
  0
POLYLINE
  8
1
 66
1
 10
0.0000
 20
0.0000
 30
0.0000
 40
0.2032
 41
0.2032
 70
0
  0
VERTEX
  8
1
 10
220.8282
 20
74.6718
 30
0.0000
 42
1.0000
  0
VERTEX
  8
1
 10
220.9718
 20
74.5282
 30
0.0000
  0
SEQEND
  8
0
  0
POLYLINE
  8
1
 66
1
 10
0.0000
 20
0.0000
 30
0.0000
 40
0.2032
 41
0.2032
 70
0
  0
VERTEX
  8
1
 10
222.2718
 20
75.8282
 30
0.0000
 42
1.0000
  0
VERTEX
  8
1
 10
222.1282
 20
75.9718
 30
0.0000
  0
SEQEND
  8
0
  0
POLYLINE
  8
1
 66
1
 10
0.0000
 20
0.0000
 30
0.0000
 40
0.4064
 41
0.4064
 70
0
  0
VERTEX
  8
1
 10
220.9000
 20
74.6000
 30
0.0000
  0
VERTEX
  8
1
 10
220.9000
 20
73.5000
 30
0.0000
  0
SEQEND
  8
0
  0
POLYLINE
  8
1
 66
1
 10
0.0000
 20
0.0000
 30
0.0000
 40
0.2032
 41
0.2032
 70
0
  0
VERTEX
  8
1
 10
220.7984
 20
73.5000
 30
0.0000
 42
1.0000
  0
VERTEX
  8
1
 10
221.0016
 20
73.5000
 30
0.0000
  0
SEQEND
  8
0
  0
POLYLINE
  8
1
 66
1
 10
0.0000
 20
0.0000
 30
0.0000
 40
0.2032
 41
0.2032
 70
0
  0
VERTEX
  8
1
 10
221.0016
 20
74.6000
 30
0.0000
 42
1.0000
  0
VERTEX
  8
1
 10
220.7984
 20
74.6000
 30
0.0000
  0
SEQEND
  8
0
  0
POLYLINE
  8
1
 66
1
 10
0.0000
 20
0.0000
 30
0.0000
 40
0.4064
 41
0.4064
 70
0
  0
VERTEX
  8
1
 10
287.8000
 20
59.9000
 30
0.0000
  0
VERTEX
  8
1
 10
287.8000
 20
33.0000
 30
0.0000
  0
SEQEND
  8
0
  0
POLYLINE
  8
1
 66
1
 10
0.0000
 20
0.0000
 30
0.0000
 40
0.2032
 41
0.2032
 70
0
  0
VERTEX
  8
1
 10
287.6984
 20
33.0000
 30
0.0000
 42
1.0000
  0
VERTEX
  8
1
 10
287.9016
 20
33.0000
 30
0.0000
  0
SEQEND
  8
0
  0
POLYLINE
  8
1
 66
1
 10
0.0000
 20
0.0000
 30
0.0000
 40
0.2032
 41
0.2032
 70
0
  0
VERTEX
  8
1
 10
287.9016
 20
59.9000
 30
0.0000
 42
1.0000
  0
VERTEX
  8
1
 10
287.6984
 20
59.9000
 30
0.0000
  0
SEQEND
  8
0
  0
POLYLINE
  8
1
 66
1
 10
0.0000
 20
0.0000
 30
0.0000
 40
0.4064
 41
0.4064
 70
0
  0
VERTEX
  8
1
 10
275.2000
 20
72.5000
 30
0.0000
  0
VERTEX
  8
1
 10
287.8000
 20
59.9000
 30
0.0000
  0
SEQEND
  8
0
  0
POLYLINE
  8
1
 66
1
 10
0.0000
 20
0.0000
 30
0.0000
 40
0.2032
 41
0.2032
 70
0
  0
VERTEX
  8
1
 10
287.7282
 20
59.8282
 30
0.0000
 42
1.0000
  0
VERTEX
  8
1
 10
287.8718
 20
59.9718
 30
0.0000
  0
SEQEND
  8
0
  0
POLYLINE
  8
1
 66
1
 10
0.0000
 20
0.0000
 30
0.0000
 40
0.2032
 41
0.2032
 70
0
  0
VERTEX
  8
1
 10
275.2718
 20
72.5718
 30
0.0000
 42
1.0000
  0
VERTEX
  8
1
 10
275.1282
 20
72.4282
 30
0.0000
  0
SEQEND
  8
0
  0
POLYLINE
  8
1
 66
1
 10
0.0000
 20
0.0000
 30
0.0000
 40
0.4064
 41
0.4064
 70
0
  0
VERTEX
  8
1
 10
221.9000
 20
72.5000
 30
0.0000
  0
VERTEX
  8
1
 10
275.2000
 20
72.5000
 30
0.0000
  0
SEQEND
  8
0
  0
POLYLINE
  8
1
 66
1
 10
0.0000
 20
0.0000
 30
0.0000
 40
0.2032
 41
0.2032
 70
0
  0
VERTEX
  8
1
 10
275.2000
 20
72.3984
 30
0.0000
 42
1.0000
  0
VERTEX
  8
1
 10
275.2000
 20
72.6016
 30
0.0000
  0
SEQEND
  8
0
  0
POLYLINE
  8
1
 66
1
 10
0.0000
 20
0.0000
 30
0.0000
 40
0.2032
 41
0.2032
 70
0
  0
VERTEX
  8
1
 10
221.9000
 20
72.6016
 30
0.0000
 42
1.0000
  0
VERTEX
  8
1
 10
221.9000
 20
72.3984
 30
0.0000
  0
SEQEND
  8
0
  0
POLYLINE
  8
1
 66
1
 10
0.0000
 20
0.0000
 30
0.0000
 40
0.4064
 41
0.4064
 70
0
  0
VERTEX
  8
1
 10
220.9000
 20
73.5000
 30
0.0000
  0
VERTEX
  8
1
 10
221.9000
 20
72.5000
 30
0.0000
  0
SEQEND
  8
0
  0
POLYLINE
  8
1
 66
1
 10
0.0000
 20
0.0000
 30
0.0000
 40
0.2032
 41
0.2032
 70
0
  0
VERTEX
  8
1
 10
221.8282
 20
72.4282
 30
0.0000
 42
1.0000
  0
VERTEX
  8
1
 10
221.9718
 20
72.5718
 30
0.0000
  0
SEQEND
  8
0
  0
POLYLINE
  8
1
 66
1
 10
0.0000
 20
0.0000
 30
0.0000
 40
0.2032
 41
0.2032
 70
0
  0
VERTEX
  8
1
 10
220.9718
 20
73.5718
 30
0.0000
 42
1.0000
  0
VERTEX
  8
1
 10
220.8282
 20
73.4282
 30
0.0000
  0
SEQEND
  8
0
  0
POLYLINE
  8
1
 66
1
 10
0.0000
 20
0.0000
 30
0.0000
 40
0.4064
 41
0.4064
 70
0
  0
VERTEX
  8
1
 10
217.6000
 20
124.4000
 30
0.0000
  0
VERTEX
  8
1
 10
217.6000
 20
104.5000
 30
0.0000
  0
SEQEND
  8
0
  0
POLYLINE
  8
1
 66
1
 10
0.0000
 20
0.0000
 30
0.0000
 40
0.2032
 41
0.2032
 70
0
  0
VERTEX
  8
1
 10
217.4984
 20
104.5000
 30
0.0000
 42
1.0000
  0
VERTEX
  8
1
 10
217.7016
 20
104.5000
 30
0.0000
  0
SEQEND
  8
0
  0
POLYLINE
  8
1
 66
1
 10
0.0000
 20
0.0000
 30
0.0000
 40
0.2032
 41
0.2032
 70
0
  0
VERTEX
  8
1
 10
217.7016
 20
124.4000
 30
0.0000
 42
1.0000
  0
VERTEX
  8
1
 10
217.4984
 20
124.4000
 30
0.0000
  0
SEQEND
  8
0
  0
POLYLINE
  8
1
 66
1
 10
0.0000
 20
0.0000
 30
0.0000
 40
0.4064
 41
0.4064
 70
0
  0
VERTEX
  8
1
 10
217.6000
 20
104.5000
 30
0.0000
  0
VERTEX
  8
1
 10
222.0000
 20
100.1000
 30
0.0000
  0
SEQEND
  8
0
  0
POLYLINE
  8
1
 66
1
 10
0.0000
 20
0.0000
 30
0.0000
 40
0.2032
 41
0.2032
 70
0
  0
VERTEX
  8
1
 10
221.9282
 20
100.0282
 30
0.0000
 42
1.0000
  0
VERTEX
  8
1
 10
222.0718
 20
100.1718
 30
0.0000
  0
SEQEND
  8
0
  0
POLYLINE
  8
1
 66
1
 10
0.0000
 20
0.0000
 30
0.0000
 40
0.2032
 41
0.2032
 70
0
  0
VERTEX
  8
1
 10
217.6718
 20
104.5718
 30
0.0000
 42
1.0000
  0
VERTEX
  8
1
 10
217.5282
 20
104.4282
 30
0.0000
  0
SEQEND
  8
0
  0
POLYLINE
  8
1
 66
1
 10
0.0000
 20
0.0000
 30
0.0000
 40
0.4064
 41
0.4064
 70
0
  0
VERTEX
  8
1
 10
222.0000
 20
100.1000
 30
0.0000
  0
VERTEX
  8
1
 10
280.9000
 20
100.1000
 30
0.0000
  0
SEQEND
  8
0
  0
POLYLINE
  8
1
 66
1
 10
0.0000
 20
0.0000
 30
0.0000
 40
0.2032
 41
0.2032
 70
0
  0
VERTEX
  8
1
 10
280.9000
 20
99.9984
 30
0.0000
 42
1.0000
  0
VERTEX
  8
1
 10
280.9000
 20
100.2016
 30
0.0000
  0
SEQEND
  8
0
  0
POLYLINE
  8
1
 66
1
 10
0.0000
 20
0.0000
 30
0.0000
 40
0.2032
 41
0.2032
 70
0
  0
VERTEX
  8
1
 10
222.0000
 20
100.2016
 30
0.0000
 42
1.0000
  0
VERTEX
  8
1
 10
222.0000
 20
99.9984
 30
0.0000
  0
SEQEND
  8
0
  0
POLYLINE
  8
1
 66
1
 10
0.0000
 20
0.0000
 30
0.0000
 40
0.4064
 41
0.4064
 70
0
  0
VERTEX
  8
1
 10
280.9000
 20
100.1000
 30
0.0000
  0
VERTEX
  8
1
 10
283.3000
 20
97.7000
 30
0.0000
  0
SEQEND
  8
0
  0
POLYLINE
  8
1
 66
1
 10
0.0000
 20
0.0000
 30
0.0000
 40
0.2032
 41
0.2032
 70
0
  0
VERTEX
  8
1
 10
283.2282
 20
97.6282
 30
0.0000
 42
1.0000
  0
VERTEX
  8
1
 10
283.3718
 20
97.7718
 30
0.0000
  0
SEQEND
  8
0
  0
POLYLINE
  8
1
 66
1
 10
0.0000
 20
0.0000
 30
0.0000
 40
0.2032
 41
0.2032
 70
0
  0
VERTEX
  8
1
 10
280.9718
 20
100.1718
 30
0.0000
 42
1.0000
  0
VERTEX
  8
1
 10
280.8282
 20
100.0282
 30
0.0000
  0
SEQEND
  8
0
  0
POLYLINE
  8
1
 66
1
 10
0.0000
 20
0.0000
 30
0.0000
 40
0.4064
 41
0.4064
 70
0
  0
VERTEX
  8
1
 10
283.3000
 20
97.7000
 30
0.0000
  0
VERTEX
  8
1
 10
283.3000
 20
95.0000
 30
0.0000
  0
SEQEND
  8
0
  0
POLYLINE
  8
1
 66
1
 10
0.0000
 20
0.0000
 30
0.0000
 40
0.2032
 41
0.2032
 70
0
  0
VERTEX
  8
1
 10
283.1984
 20
95.0000
 30
0.0000
 42
1.0000
  0
VERTEX
  8
1
 10
283.4016
 20
95.0000
 30
0.0000
  0
SEQEND
  8
0
  0
POLYLINE
  8
1
 66
1
 10
0.0000
 20
0.0000
 30
0.0000
 40
0.2032
 41
0.2032
 70
0
  0
VERTEX
  8
1
 10
283.4016
 20
97.7000
 30
0.0000
 42
1.0000
  0
VERTEX
  8
1
 10
283.1984
 20
97.7000
 30
0.0000
  0
SEQEND
  8
0
  0
POLYLINE
  8
1
 66
1
 10
0.0000
 20
0.0000
 30
0.0000
 40
0.4064
 41
0.4064
 70
0
  0
VERTEX
  8
1
 10
283.3000
 20
95.0000
 30
0.0000
  0
VERTEX
  8
1
 10
282.0000
 20
93.7000
 30
0.0000
  0
SEQEND
  8
0
  0
POLYLINE
  8
1
 66
1
 10
0.0000
 20
0.0000
 30
0.0000
 40
0.2032
 41
0.2032
 70
0
  0
VERTEX
  8
1
 10
281.9282
 20
93.7718
 30
0.0000
 42
1.0000
  0
VERTEX
  8
1
 10
282.0718
 20
93.6282
 30
0.0000
  0
SEQEND
  8
0
  0
POLYLINE
  8
1
 66
1
 10
0.0000
 20
0.0000
 30
0.0000
 40
0.2032
 41
0.2032
 70
0
  0
VERTEX
  8
1
 10
283.3718
 20
94.9282
 30
0.0000
 42
1.0000
  0
VERTEX
  8
1
 10
283.2282
 20
95.0718
 30
0.0000
  0
SEQEND
  8
0
  0
POLYLINE
  8
1
 66
1
 10
0.0000
 20
0.0000
 30
0.0000
 40
0.4064
 41
0.4064
 70
0
  0
VERTEX
  8
1
 10
282.0000
 20
93.7000
 30
0.0000
  0
VERTEX
  8
1
 10
222.7000
 20
93.7000
 30
0.0000
  0
SEQEND
  8
0
  0
POLYLINE
  8
1
 66
1
 10
0.0000
 20
0.0000
 30
0.0000
 40
0.2032
 41
0.2032
 70
0
  0
VERTEX
  8
1
 10
222.7000
 20
93.8016
 30
0.0000
 42
1.0000
  0
VERTEX
  8
1
 10
222.7000
 20
93.5984
 30
0.0000
  0
SEQEND
  8
0
  0
POLYLINE
  8
1
 66
1
 10
0.0000
 20
0.0000
 30
0.0000
 40
0.2032
 41
0.2032
 70
0
  0
VERTEX
  8
1
 10
282.0000
 20
93.5984
 30
0.0000
 42
1.0000
  0
VERTEX
  8
1
 10
282.0000
 20
93.8016
 30
0.0000
  0
SEQEND
  8
0
  0
POLYLINE
  8
1
 66
1
 10
0.0000
 20
0.0000
 30
0.0000
 40
0.4064
 41
0.4064
 70
0
  0
VERTEX
  8
1
 10
222.7000
 20
93.7000
 30
0.0000
  0
VERTEX
  8
1
 10
220.8000
 20
91.8000
 30
0.0000
  0
SEQEND
  8
0
  0
POLYLINE
  8
1
 66
1
 10
0.0000
 20
0.0000
 30
0.0000
 40
0.2032
 41
0.2032
 70
0
  0
VERTEX
  8
1
 10
220.7282
 20
91.8718
 30
0.0000
 42
1.0000
  0
VERTEX
  8
1
 10
220.8718
 20
91.7282
 30
0.0000
  0
SEQEND
  8
0
  0
POLYLINE
  8
1
 66
1
 10
0.0000
 20
0.0000
 30
0.0000
 40
0.2032
 41
0.2032
 70
0
  0
VERTEX
  8
1
 10
222.7718
 20
93.6282
 30
0.0000
 42
1.0000
  0
VERTEX
  8
1
 10
222.6282
 20
93.7718
 30
0.0000
  0
SEQEND
  8
0
  0
POLYLINE
  8
1
 66
1
 10
0.0000
 20
0.0000
 30
0.0000
 40
0.4064
 41
0.4064
 70
0
  0
VERTEX
  8
1
 10
220.8000
 20
91.8000
 30
0.0000
  0
VERTEX
  8
1
 10
220.8000
 20
89.2000
 30
0.0000
  0
SEQEND
  8
0
  0
POLYLINE
  8
1
 66
1
 10
0.0000
 20
0.0000
 30
0.0000
 40
0.2032
 41
0.2032
 70
0
  0
VERTEX
  8
1
 10
220.6984
 20
89.2000
 30
0.0000
 42
1.0000
  0
VERTEX
  8
1
 10
220.9016
 20
89.2000
 30
0.0000
  0
SEQEND
  8
0
  0
POLYLINE
  8
1
 66
1
 10
0.0000
 20
0.0000
 30
0.0000
 40
0.2032
 41
0.2032
 70
0
  0
VERTEX
  8
1
 10
220.9016
 20
91.8000
 30
0.0000
 42
1.0000
  0
VERTEX
  8
1
 10
220.6984
 20
91.8000
 30
0.0000
  0
SEQEND
  8
0
  0
POLYLINE
  8
1
 66
1
 10
0.0000
 20
0.0000
 30
0.0000
 40
0.4064
 41
0.4064
 70
0
  0
VERTEX
  8
1
 10
220.8000
 20
89.2000
 30
0.0000
  0
VERTEX
  8
1
 10
221.3000
 20
88.7000
 30
0.0000
  0
SEQEND
  8
0
  0
POLYLINE
  8
1
 66
1
 10
0.0000
 20
0.0000
 30
0.0000
 40
0.2032
 41
0.2032
 70
0
  0
VERTEX
  8
1
 10
221.2282
 20
88.6282
 30
0.0000
 42
1.0000
  0
VERTEX
  8
1
 10
221.3718
 20
88.7718
 30
0.0000
  0
SEQEND
  8
0
  0
POLYLINE
  8
1
 66
1
 10
0.0000
 20
0.0000
 30
0.0000
 40
0.2032
 41
0.2032
 70
0
  0
VERTEX
  8
1
 10
220.8718
 20
89.2718
 30
0.0000
 42
1.0000
  0
VERTEX
  8
1
 10
220.7282
 20
89.1282
 30
0.0000
  0
SEQEND
  8
0
  0
POLYLINE
  8
1
 66
1
 10
0.0000
 20
0.0000
 30
0.0000
 40
0.4064
 41
0.4064
 70
0
  0
VERTEX
  8
1
 10
221.3000
 20
88.7000
 30
0.0000
  0
VERTEX
  8
1
 10
282.0000
 20
88.7000
 30
0.0000
  0
SEQEND
  8
0
  0
POLYLINE
  8
1
 66
1
 10
0.0000
 20
0.0000
 30
0.0000
 40
0.2032
 41
0.2032
 70
0
  0
VERTEX
  8
1
 10
282.0000
 20
88.5984
 30
0.0000
 42
1.0000
  0
VERTEX
  8
1
 10
282.0000
 20
88.8016
 30
0.0000
  0
SEQEND
  8
0
  0
POLYLINE
  8
1
 66
1
 10
0.0000
 20
0.0000
 30
0.0000
 40
0.2032
 41
0.2032
 70
0
  0
VERTEX
  8
1
 10
221.3000
 20
88.8016
 30
0.0000
 42
1.0000
  0
VERTEX
  8
1
 10
221.3000
 20
88.5984
 30
0.0000
  0
SEQEND
  8
0
  0
POLYLINE
  8
1
 66
1
 10
0.0000
 20
0.0000
 30
0.0000
 40
0.4064
 41
0.4064
 70
0
  0
VERTEX
  8
1
 10
282.0000
 20
88.7000
 30
0.0000
  0
VERTEX
  8
1
 10
283.5000
 20
87.2000
 30
0.0000
  0
SEQEND
  8
0
  0
POLYLINE
  8
1
 66
1
 10
0.0000
 20
0.0000
 30
0.0000
 40
0.2032
 41
0.2032
 70
0
  0
VERTEX
  8
1
 10
283.4282
 20
87.1282
 30
0.0000
 42
1.0000
  0
VERTEX
  8
1
 10
283.5718
 20
87.2718
 30
0.0000
  0
SEQEND
  8
0
  0
POLYLINE
  8
1
 66
1
 10
0.0000
 20
0.0000
 30
0.0000
 40
0.2032
 41
0.2032
 70
0
  0
VERTEX
  8
1
 10
282.0718
 20
88.7718
 30
0.0000
 42
1.0000
  0
VERTEX
  8
1
 10
281.9282
 20
88.6282
 30
0.0000
  0
SEQEND
  8
0
  0
POLYLINE
  8
1
 66
1
 10
0.0000
 20
0.0000
 30
0.0000
 40
0.4064
 41
0.4064
 70
0
  0
VERTEX
  8
1
 10
283.5000
 20
87.2000
 30
0.0000
  0
VERTEX
  8
1
 10
283.5000
 20
85.2000
 30
0.0000
  0
SEQEND
  8
0
  0
POLYLINE
  8
1
 66
1
 10
0.0000
 20
0.0000
 30
0.0000
 40
0.2032
 41
0.2032
 70
0
  0
VERTEX
  8
1
 10
283.3984
 20
85.2000
 30
0.0000
 42
1.0000
  0
VERTEX
  8
1
 10
283.6016
 20
85.2000
 30
0.0000
  0
SEQEND
  8
0
  0
POLYLINE
  8
1
 66
1
 10
0.0000
 20
0.0000
 30
0.0000
 40
0.2032
 41
0.2032
 70
0
  0
VERTEX
  8
1
 10
283.6016
 20
87.2000
 30
0.0000
 42
1.0000
  0
VERTEX
  8
1
 10
283.3984
 20
87.2000
 30
0.0000
  0
SEQEND
  8
0
  0
POLYLINE
  8
1
 66
1
 10
0.0000
 20
0.0000
 30
0.0000
 40
0.4064
 41
0.4064
 70
0
  0
VERTEX
  8
1
 10
283.5000
 20
85.2000
 30
0.0000
  0
VERTEX
  8
1
 10
282.6000
 20
84.3000
 30
0.0000
  0
SEQEND
  8
0
  0
POLYLINE
  8
1
 66
1
 10
0.0000
 20
0.0000
 30
0.0000
 40
0.2032
 41
0.2032
 70
0
  0
VERTEX
  8
1
 10
282.5282
 20
84.3718
 30
0.0000
 42
1.0000
  0
VERTEX
  8
1
 10
282.6718
 20
84.2282
 30
0.0000
  0
SEQEND
  8
0
  0
POLYLINE
  8
1
 66
1
 10
0.0000
 20
0.0000
 30
0.0000
 40
0.2032
 41
0.2032
 70
0
  0
VERTEX
  8
1
 10
283.5718
 20
85.1282
 30
0.0000
 42
1.0000
  0
VERTEX
  8
1
 10
283.4282
 20
85.2718
 30
0.0000
  0
SEQEND
  8
0
  0
POLYLINE
  8
1
 66
1
 10
0.0000
 20
0.0000
 30
0.0000
 40
0.4064
 41
0.4064
 70
0
  0
VERTEX
  8
1
 10
282.6000
 20
84.3000
 30
0.0000
  0
VERTEX
  8
1
 10
274.4000
 20
84.3000
 30
0.0000
  0
SEQEND
  8
0
  0
POLYLINE
  8
1
 66
1
 10
0.0000
 20
0.0000
 30
0.0000
 40
0.2032
 41
0.2032
 70
0
  0
VERTEX
  8
1
 10
274.4000
 20
84.4016
 30
0.0000
 42
1.0000
  0
VERTEX
  8
1
 10
274.4000
 20
84.1984
 30
0.0000
  0
SEQEND
  8
0
  0
POLYLINE
  8
1
 66
1
 10
0.0000
 20
0.0000
 30
0.0000
 40
0.2032
 41
0.2032
 70
0
  0
VERTEX
  8
1
 10
282.6000
 20
84.1984
 30
0.0000
 42
1.0000
  0
VERTEX
  8
1
 10
282.6000
 20
84.4016
 30
0.0000
  0
SEQEND
  8
0
  0
POLYLINE
  8
1
 66
1
 10
0.0000
 20
0.0000
 30
0.0000
 40
0.4064
 41
0.4064
 70
0
  0
VERTEX
  8
1
 10
274.4000
 20
84.3000
 30
0.0000
  0
VERTEX
  8
1
 10
273.0000
 20
82.9000
 30
0.0000
  0
SEQEND
  8
0
  0
POLYLINE
  8
1
 66
1
 10
0.0000
 20
0.0000
 30
0.0000
 40
0.2032
 41
0.2032
 70
0
  0
VERTEX
  8
1
 10
272.9282
 20
82.9718
 30
0.0000
 42
1.0000
  0
VERTEX
  8
1
 10
273.0718
 20
82.8282
 30
0.0000
  0
SEQEND
  8
0
  0
POLYLINE
  8
1
 66
1
 10
0.0000
 20
0.0000
 30
0.0000
 40
0.2032
 41
0.2032
 70
0
  0
VERTEX
  8
1
 10
274.4718
 20
84.2282
 30
0.0000
 42
1.0000
  0
VERTEX
  8
1
 10
274.3282
 20
84.3718
 30
0.0000
  0
SEQEND
  8
0
  0
POLYLINE
  8
1
 66
1
 10
0.0000
 20
0.0000
 30
0.0000
 40
0.4064
 41
0.4064
 70
0
  0
VERTEX
  8
1
 10
273.0000
 20
82.9000
 30
0.0000
  0
VERTEX
  8
1
 10
273.0000
 20
81.8000
 30
0.0000
  0
SEQEND
  8
0
  0
POLYLINE
  8
1
 66
1
 10
0.0000
 20
0.0000
 30
0.0000
 40
0.2032
 41
0.2032
 70
0
  0
VERTEX
  8
1
 10
272.8984
 20
81.8000
 30
0.0000
 42
1.0000
  0
VERTEX
  8
1
 10
273.1016
 20
81.8000
 30
0.0000
  0
SEQEND
  8
0
  0
POLYLINE
  8
1
 66
1
 10
0.0000
 20
0.0000
 30
0.0000
 40
0.2032
 41
0.2032
 70
0
  0
VERTEX
  8
1
 10
273.1016
 20
82.9000
 30
0.0000
 42
1.0000
  0
VERTEX
  8
1
 10
272.8984
 20
82.9000
 30
0.0000
  0
SEQEND
  8
0
  0
POLYLINE
  8
1
 66
1
 10
0.0000
 20
0.0000
 30
0.0000
 40
0.4064
 41
0.4064
 70
0
  0
VERTEX
  8
1
 10
273.0000
 20
81.8000
 30
0.0000
  0
VERTEX
  8
1
 10
274.3000
 20
80.5000
 30
0.0000
  0
SEQEND
  8
0
  0
POLYLINE
  8
1
 66
1
 10
0.0000
 20
0.0000
 30
0.0000
 40
0.2032
 41
0.2032
 70
0
  0
VERTEX
  8
1
 10
274.2282
 20
80.4282
 30
0.0000
 42
1.0000
  0
VERTEX
  8
1
 10
274.3718
 20
80.5718
 30
0.0000
  0
SEQEND
  8
0
  0
POLYLINE
  8
1
 66
1
 10
0.0000
 20
0.0000
 30
0.0000
 40
0.2032
 41
0.2032
 70
0
  0
VERTEX
  8
1
 10
273.0718
 20
81.8718
 30
0.0000
 42
1.0000
  0
VERTEX
  8
1
 10
272.9282
 20
81.7282
 30
0.0000
  0
SEQEND
  8
0
  0
POLYLINE
  8
1
 66
1
 10
0.0000
 20
0.0000
 30
0.0000
 40
0.4064
 41
0.4064
 70
0
  0
VERTEX
  8
1
 10
274.3000
 20
80.5000
 30
0.0000
  0
VERTEX
  8
1
 10
282.7000
 20
80.5000
 30
0.0000
  0
SEQEND
  8
0
  0
POLYLINE
  8
1
 66
1
 10
0.0000
 20
0.0000
 30
0.0000
 40
0.2032
 41
0.2032
 70
0
  0
VERTEX
  8
1
 10
282.7000
 20
80.3984
 30
0.0000
 42
1.0000
  0
VERTEX
  8
1
 10
282.7000
 20
80.6016
 30
0.0000
  0
SEQEND
  8
0
  0
POLYLINE
  8
1
 66
1
 10
0.0000
 20
0.0000
 30
0.0000
 40
0.2032
 41
0.2032
 70
0
  0
VERTEX
  8
1
 10
274.3000
 20
80.6016
 30
0.0000
 42
1.0000
  0
VERTEX
  8
1
 10
274.3000
 20
80.3984
 30
0.0000
  0
SEQEND
  8
0
  0
POLYLINE
  8
1
 66
1
 10
0.0000
 20
0.0000
 30
0.0000
 40
0.4064
 41
0.4064
 70
0
  0
VERTEX
  8
1
 10
282.7000
 20
80.5000
 30
0.0000
  0
VERTEX
  8
1
 10
284.1000
 20
79.1000
 30
0.0000
  0
SEQEND
  8
0
  0
POLYLINE
  8
1
 66
1
 10
0.0000
 20
0.0000
 30
0.0000
 40
0.2032
 41
0.2032
 70
0
  0
VERTEX
  8
1
 10
284.0282
 20
79.0282
 30
0.0000
 42
1.0000
  0
VERTEX
  8
1
 10
284.1718
 20
79.1718
 30
0.0000
  0
SEQEND
  8
0
  0
POLYLINE
  8
1
 66
1
 10
0.0000
 20
0.0000
 30
0.0000
 40
0.2032
 41
0.2032
 70
0
  0
VERTEX
  8
1
 10
282.7718
 20
80.5718
 30
0.0000
 42
1.0000
  0
VERTEX
  8
1
 10
282.6282
 20
80.4282
 30
0.0000
  0
SEQEND
  8
0
  0
POLYLINE
  8
1
 66
1
 10
0.0000
 20
0.0000
 30
0.0000
 40
0.4064
 41
0.4064
 70
0
  0
VERTEX
  8
1
 10
284.1000
 20
79.1000
 30
0.0000
  0
VERTEX
  8
1
 10
284.1000
 20
78.1000
 30
0.0000
  0
SEQEND
  8
0
  0
POLYLINE
  8
1
 66
1
 10
0.0000
 20
0.0000
 30
0.0000
 40
0.2032
 41
0.2032
 70
0
  0
VERTEX
  8
1
 10
283.9984
 20
78.1000
 30
0.0000
 42
1.0000
  0
VERTEX
  8
1
 10
284.2016
 20
78.1000
 30
0.0000
  0
SEQEND
  8
0
  0
POLYLINE
  8
1
 66
1
 10
0.0000
 20
0.0000
 30
0.0000
 40
0.2032
 41
0.2032
 70
0
  0
VERTEX
  8
1
 10
284.2016
 20
79.1000
 30
0.0000
 42
1.0000
  0
VERTEX
  8
1
 10
283.9984
 20
79.1000
 30
0.0000
  0
SEQEND
  8
0
  0
POLYLINE
  8
1
 66
1
 10
0.0000
 20
0.0000
 30
0.0000
 40
0.4064
 41
0.4064
 70
0
  0
VERTEX
  8
1
 10
284.1000
 20
78.1000
 30
0.0000
  0
VERTEX
  8
1
 10
283.4000
 20
77.4000
 30
0.0000
  0
SEQEND
  8
0
  0
POLYLINE
  8
1
 66
1
 10
0.0000
 20
0.0000
 30
0.0000
 40
0.2032
 41
0.2032
 70
0
  0
VERTEX
  8
1
 10
283.3282
 20
77.4718
 30
0.0000
 42
1.0000
  0
VERTEX
  8
1
 10
283.4718
 20
77.3282
 30
0.0000
  0
SEQEND
  8
0
  0
POLYLINE
  8
1
 66
1
 10
0.0000
 20
0.0000
 30
0.0000
 40
0.2032
 41
0.2032
 70
0
  0
VERTEX
  8
1
 10
284.1718
 20
78.0282
 30
0.0000
 42
1.0000
  0
VERTEX
  8
1
 10
284.0282
 20
78.1718
 30
0.0000
  0
SEQEND
  8
0
  0
POLYLINE
  8
1
 66
1
 10
0.0000
 20
0.0000
 30
0.0000
 40
0.4064
 41
0.4064
 70
0
  0
VERTEX
  8
1
 10
283.4000
 20
77.4000
 30
0.0000
  0
VERTEX
  8
1
 10
278.6000
 20
77.4000
 30
0.0000
  0
SEQEND
  8
0
  0
POLYLINE
  8
1
 66
1
 10
0.0000
 20
0.0000
 30
0.0000
 40
0.2032
 41
0.2032
 70
0
  0
VERTEX
  8
1
 10
278.6000
 20
77.5016
 30
0.0000
 42
1.0000
  0
VERTEX
  8
1
 10
278.6000
 20
77.2984
 30
0.0000
  0
SEQEND
  8
0
  0
POLYLINE
  8
1
 66
1
 10
0.0000
 20
0.0000
 30
0.0000
 40
0.2032
 41
0.2032
 70
0
  0
VERTEX
  8
1
 10
283.4000
 20
77.2984
 30
0.0000
 42
1.0000
  0
VERTEX
  8
1
 10
283.4000
 20
77.5016
 30
0.0000
  0
SEQEND
  8
0
  0
POLYLINE
  8
1
 66
1
 10
0.0000
 20
0.0000
 30
0.0000
 40
0.4064
 41
0.4064
 70
0
  0
VERTEX
  8
1
 10
278.6000
 20
77.4000
 30
0.0000
  0
VERTEX
  8
1
 10
277.5000
 20
76.3000
 30
0.0000
  0
SEQEND
  8
0
  0
POLYLINE
  8
1
 66
1
 10
0.0000
 20
0.0000
 30
0.0000
 40
0.2032
 41
0.2032
 70
0
  0
VERTEX
  8
1
 10
277.4282
 20
76.3718
 30
0.0000
 42
1.0000
  0
VERTEX
  8
1
 10
277.5718
 20
76.2282
 30
0.0000
  0
SEQEND
  8
0
  0
POLYLINE
  8
1
 66
1
 10
0.0000
 20
0.0000
 30
0.0000
 40
0.2032
 41
0.2032
 70
0
  0
VERTEX
  8
1
 10
278.6718
 20
77.3282
 30
0.0000
 42
1.0000
  0
VERTEX
  8
1
 10
278.5282
 20
77.4718
 30
0.0000
  0
SEQEND
  8
0
  0
POLYLINE
  8
1
 66
1
 10
0.0000
 20
0.0000
 30
0.0000
 40
0.4064
 41
0.4064
 70
0
  0
VERTEX
  8
1
 10
277.5000
 20
76.3000
 30
0.0000
  0
VERTEX
  8
1
 10
277.5000
 20
75.2000
 30
0.0000
  0
SEQEND
  8
0
  0
POLYLINE
  8
1
 66
1
 10
0.0000
 20
0.0000
 30
0.0000
 40
0.2032
 41
0.2032
 70
0
  0
VERTEX
  8
1
 10
277.3984
 20
75.2000
 30
0.0000
 42
1.0000
  0
VERTEX
  8
1
 10
277.6016
 20
75.2000
 30
0.0000
  0
SEQEND
  8
0
  0
POLYLINE
  8
1
 66
1
 10
0.0000
 20
0.0000
 30
0.0000
 40
0.2032
 41
0.2032
 70
0
  0
VERTEX
  8
1
 10
277.6016
 20
76.3000
 30
0.0000
 42
1.0000
  0
VERTEX
  8
1
 10
277.3984
 20
76.3000
 30
0.0000
  0
SEQEND
  8
0
  0
POLYLINE
  8
1
 66
1
 10
0.0000
 20
0.0000
 30
0.0000
 40
0.4064
 41
0.4064
 70
0
  0
VERTEX
  8
1
 10
277.5000
 20
75.2000
 30
0.0000
  0
VERTEX
  8
1
 10
278.5000
 20
74.2000
 30
0.0000
  0
SEQEND
  8
0
  0
POLYLINE
  8
1
 66
1
 10
0.0000
 20
0.0000
 30
0.0000
 40
0.2032
 41
0.2032
 70
0
  0
VERTEX
  8
1
 10
278.4282
 20
74.1282
 30
0.0000
 42
1.0000
  0
VERTEX
  8
1
 10
278.5718
 20
74.2718
 30
0.0000
  0
SEQEND
  8
0
  0
POLYLINE
  8
1
 66
1
 10
0.0000
 20
0.0000
 30
0.0000
 40
0.2032
 41
0.2032
 70
0
  0
VERTEX
  8
1
 10
277.5718
 20
75.2718
 30
0.0000
 42
1.0000
  0
VERTEX
  8
1
 10
277.4282
 20
75.1282
 30
0.0000
  0
SEQEND
  8
0
  0
POLYLINE
  8
1
 66
1
 10
0.0000
 20
0.0000
 30
0.0000
 40
0.4064
 41
0.4064
 70
0
  0
VERTEX
  8
1
 10
278.5000
 20
74.2000
 30
0.0000
  0
VERTEX
  8
1
 10
290.6000
 20
74.2000
 30
0.0000
  0
SEQEND
  8
0
  0
POLYLINE
  8
1
 66
1
 10
0.0000
 20
0.0000
 30
0.0000
 40
0.2032
 41
0.2032
 70
0
  0
VERTEX
  8
1
 10
290.6000
 20
74.0984
 30
0.0000
 42
1.0000
  0
VERTEX
  8
1
 10
290.6000
 20
74.3016
 30
0.0000
  0
SEQEND
  8
0
  0
POLYLINE
  8
1
 66
1
 10
0.0000
 20
0.0000
 30
0.0000
 40
0.2032
 41
0.2032
 70
0
  0
VERTEX
  8
1
 10
278.5000
 20
74.3016
 30
0.0000
 42
1.0000
  0
VERTEX
  8
1
 10
278.5000
 20
74.0984
 30
0.0000
  0
SEQEND
  8
0
  0
POLYLINE
  8
1
 66
1
 10
0.0000
 20
0.0000
 30
0.0000
 40
0.4064
 41
0.4064
 70
0
  0
VERTEX
  8
1
 10
290.6000
 20
74.2000
 30
0.0000
  0
VERTEX
  8
1
 10
291.7000
 20
73.1000
 30
0.0000
  0
SEQEND
  8
0
  0
POLYLINE
  8
1
 66
1
 10
0.0000
 20
0.0000
 30
0.0000
 40
0.2032
 41
0.2032
 70
0
  0
VERTEX
  8
1
 10
291.6282
 20
73.0282
 30
0.0000
 42
1.0000
  0
VERTEX
  8
1
 10
291.7718
 20
73.1718
 30
0.0000
  0
SEQEND
  8
0
  0
POLYLINE
  8
1
 66
1
 10
0.0000
 20
0.0000
 30
0.0000
 40
0.2032
 41
0.2032
 70
0
  0
VERTEX
  8
1
 10
290.6718
 20
74.2718
 30
0.0000
 42
1.0000
  0
VERTEX
  8
1
 10
290.5282
 20
74.1282
 30
0.0000
  0
SEQEND
  8
0
  0
POLYLINE
  8
1
 66
1
 10
0.0000
 20
0.0000
 30
0.0000
 40
0.4064
 41
0.4064
 70
0
  0
VERTEX
  8
1
 10
291.7000
 20
73.1000
 30
0.0000
  0
VERTEX
  8
1
 10
291.7000
 20
71.6000
 30
0.0000
  0
SEQEND
  8
0
  0
POLYLINE
  8
1
 66
1
 10
0.0000
 20
0.0000
 30
0.0000
 40
0.2032
 41
0.2032
 70
0
  0
VERTEX
  8
1
 10
291.5984
 20
71.6000
 30
0.0000
 42
1.0000
  0
VERTEX
  8
1
 10
291.8016
 20
71.6000
 30
0.0000
  0
SEQEND
  8
0
  0
POLYLINE
  8
1
 66
1
 10
0.0000
 20
0.0000
 30
0.0000
 40
0.2032
 41
0.2032
 70
0
  0
VERTEX
  8
1
 10
291.8016
 20
73.1000
 30
0.0000
 42
1.0000
  0
VERTEX
  8
1
 10
291.5984
 20
73.1000
 30
0.0000
  0
SEQEND
  8
0
  0
POLYLINE
  8
1
 66
1
 10
0.0000
 20
0.0000
 30
0.0000
 40
0.4064
 41
0.4064
 70
0
  0
VERTEX
  8
1
 10
291.7000
 20
71.6000
 30
0.0000
  0
VERTEX
  8
1
 10
290.6000
 20
70.5000
 30
0.0000
  0
SEQEND
  8
0
  0
POLYLINE
  8
1
 66
1
 10
0.0000
 20
0.0000
 30
0.0000
 40
0.2032
 41
0.2032
 70
0
  0
VERTEX
  8
1
 10
290.5282
 20
70.5718
 30
0.0000
 42
1.0000
  0
VERTEX
  8
1
 10
290.6718
 20
70.4282
 30
0.0000
  0
SEQEND
  8
0
  0
POLYLINE
  8
1
 66
1
 10
0.0000
 20
0.0000
 30
0.0000
 40
0.2032
 41
0.2032
 70
0
  0
VERTEX
  8
1
 10
291.7718
 20
71.5282
 30
0.0000
 42
1.0000
  0
VERTEX
  8
1
 10
291.6282
 20
71.6718
 30
0.0000
  0
SEQEND
  8
0
  0
POLYLINE
  8
1
 66
1
 10
0.0000
 20
0.0000
 30
0.0000
 40
0.4064
 41
0.4064
 70
0
  0
VERTEX
  8
1
 10
290.6000
 20
70.5000
 30
0.0000
  0
VERTEX
  8
1
 10
281.5000
 20
70.5000
 30
0.0000
  0
SEQEND
  8
0
  0
POLYLINE
  8
1
 66
1
 10
0.0000
 20
0.0000
 30
0.0000
 40
0.2032
 41
0.2032
 70
0
  0
VERTEX
  8
1
 10
281.5000
 20
70.6016
 30
0.0000
 42
1.0000
  0
VERTEX
  8
1
 10
281.5000
 20
70.3984
 30
0.0000
  0
SEQEND
  8
0
  0
POLYLINE
  8
1
 66
1
 10
0.0000
 20
0.0000
 30
0.0000
 40
0.2032
 41
0.2032
 70
0
  0
VERTEX
  8
1
 10
290.6000
 20
70.3984
 30
0.0000
 42
1.0000
  0
VERTEX
  8
1
 10
290.6000
 20
70.6016
 30
0.0000
  0
SEQEND
  8
0
  0
POLYLINE
  8
1
 66
1
 10
0.0000
 20
0.0000
 30
0.0000
 40
0.4064
 41
0.4064
 70
0
  0
VERTEX
  8
1
 10
281.5000
 20
70.5000
 30
0.0000
  0
VERTEX
  8
1
 10
280.5000
 20
69.5000
 30
0.0000
  0
SEQEND
  8
0
  0
POLYLINE
  8
1
 66
1
 10
0.0000
 20
0.0000
 30
0.0000
 40
0.2032
 41
0.2032
 70
0
  0
VERTEX
  8
1
 10
280.4282
 20
69.5718
 30
0.0000
 42
1.0000
  0
VERTEX
  8
1
 10
280.5718
 20
69.4282
 30
0.0000
  0
SEQEND
  8
0
  0
POLYLINE
  8
1
 66
1
 10
0.0000
 20
0.0000
 30
0.0000
 40
0.2032
 41
0.2032
 70
0
  0
VERTEX
  8
1
 10
281.5718
 20
70.4282
 30
0.0000
 42
1.0000
  0
VERTEX
  8
1
 10
281.4282
 20
70.5718
 30
0.0000
  0
SEQEND
  8
0
  0
POLYLINE
  8
1
 66
1
 10
0.0000
 20
0.0000
 30
0.0000
 40
0.4064
 41
0.4064
 70
0
  0
VERTEX
  8
1
 10
280.5000
 20
69.5000
 30
0.0000
  0
VERTEX
  8
1
 10
280.5000
 20
69.0000
 30
0.0000
  0
SEQEND
  8
0
  0
POLYLINE
  8
1
 66
1
 10
0.0000
 20
0.0000
 30
0.0000
 40
0.2032
 41
0.2032
 70
0
  0
VERTEX
  8
1
 10
280.3984
 20
69.0000
 30
0.0000
 42
1.0000
  0
VERTEX
  8
1
 10
280.6016
 20
69.0000
 30
0.0000
  0
SEQEND
  8
0
  0
POLYLINE
  8
1
 66
1
 10
0.0000
 20
0.0000
 30
0.0000
 40
0.2032
 41
0.2032
 70
0
  0
VERTEX
  8
1
 10
280.6016
 20
69.5000
 30
0.0000
 42
1.0000
  0
VERTEX
  8
1
 10
280.3984
 20
69.5000
 30
0.0000
  0
SEQEND
  8
0
  0
POLYLINE
  8
1
 66
1
 10
0.0000
 20
0.0000
 30
0.0000
 40
0.4064
 41
0.4064
 70
0
  0
VERTEX
  8
1
 10
280.5000
 20
69.0000
 30
0.0000
  0
VERTEX
  8
1
 10
283.1000
 20
66.4000
 30
0.0000
  0
SEQEND
  8
0
  0
POLYLINE
  8
1
 66
1
 10
0.0000
 20
0.0000
 30
0.0000
 40
0.2032
 41
0.2032
 70
0
  0
VERTEX
  8
1
 10
283.0282
 20
66.3282
 30
0.0000
 42
1.0000
  0
VERTEX
  8
1
 10
283.1718
 20
66.4718
 30
0.0000
  0
SEQEND
  8
0
  0
POLYLINE
  8
1
 66
1
 10
0.0000
 20
0.0000
 30
0.0000
 40
0.2032
 41
0.2032
 70
0
  0
VERTEX
  8
1
 10
280.5718
 20
69.0718
 30
0.0000
 42
1.0000
  0
VERTEX
  8
1
 10
280.4282
 20
68.9282
 30
0.0000
  0
SEQEND
  8
0
  0
POLYLINE
  8
1
 66
1
 10
0.0000
 20
0.0000
 30
0.0000
 40
0.4064
 41
0.4064
 70
0
  0
VERTEX
  8
1
 10
283.1000
 20
66.4000
 30
0.0000
  0
VERTEX
  8
1
 10
288.7000
 20
66.4000
 30
0.0000
  0
SEQEND
  8
0
  0
POLYLINE
  8
1
 66
1
 10
0.0000
 20
0.0000
 30
0.0000
 40
0.2032
 41
0.2032
 70
0
  0
VERTEX
  8
1
 10
288.7000
 20
66.2984
 30
0.0000
 42
1.0000
  0
VERTEX
  8
1
 10
288.7000
 20
66.5016
 30
0.0000
  0
SEQEND
  8
0
  0
POLYLINE
  8
1
 66
1
 10
0.0000
 20
0.0000
 30
0.0000
 40
0.2032
 41
0.2032
 70
0
  0
VERTEX
  8
1
 10
283.1000
 20
66.5016
 30
0.0000
 42
1.0000
  0
VERTEX
  8
1
 10
283.1000
 20
66.2984
 30
0.0000
  0
SEQEND
  8
0
  0
POLYLINE
  8
1
 66
1
 10
0.0000
 20
0.0000
 30
0.0000
 40
0.4064
 41
0.4064
 70
0
  0
VERTEX
  8
1
 10
290.3300
 20
62.3700
 30
0.0000
  0
VERTEX
  8
1
 10
290.3300
 20
62.2800
 30
0.0000
  0
SEQEND
  8
0
  0
POLYLINE
  8
1
 66
1
 10
0.0000
 20
0.0000
 30
0.0000
 40
0.2032
 41
0.2032
 70
0
  0
VERTEX
  8
1
 10
290.2284
 20
62.2800
 30
0.0000
 42
1.0000
  0
VERTEX
  8
1
 10
290.4316
 20
62.2800
 30
0.0000
  0
SEQEND
  8
0
  0
POLYLINE
  8
1
 66
1
 10
0.0000
 20
0.0000
 30
0.0000
 40
0.2032
 41
0.2032
 70
0
  0
VERTEX
  8
1
 10
290.4316
 20
62.3700
 30
0.0000
 42
1.0000
  0
VERTEX
  8
1
 10
290.2284
 20
62.3700
 30
0.0000
  0
SEQEND
  8
0
  0
POLYLINE
  8
1
 66
1
 10
0.0000
 20
0.0000
 30
0.0000
 40
0.4064
 41
0.4064
 70
0
  0
VERTEX
  8
1
 10
290.3300
 20
62.2800
 30
0.0000
  0
VERTEX
  8
1
 10
290.3300
 20
32.9900
 30
0.0000
  0
SEQEND
  8
0
  0
POLYLINE
  8
1
 66
1
 10
0.0000
 20
0.0000
 30
0.0000
 40
0.2032
 41
0.2032
 70
0
  0
VERTEX
  8
1
 10
290.2284
 20
32.9900
 30
0.0000
 42
1.0000
  0
VERTEX
  8
1
 10
290.4316
 20
32.9900
 30
0.0000
  0
SEQEND
  8
0
  0
POLYLINE
  8
1
 66
1
 10
0.0000
 20
0.0000
 30
0.0000
 40
0.2032
 41
0.2032
 70
0
  0
VERTEX
  8
1
 10
290.4316
 20
62.2800
 30
0.0000
 42
1.0000
  0
VERTEX
  8
1
 10
290.2284
 20
62.2800
 30
0.0000
  0
SEQEND
  8
0
  0
POLYLINE
  8
1
 66
1
 10
0.0000
 20
0.0000
 30
0.0000
 40
0.4064
 41
0.4064
 70
0
  0
VERTEX
  8
1
 10
288.7000
 20
66.4000
 30
0.0000
  0
VERTEX
  8
1
 10
290.3300
 20
64.7700
 30
0.0000
  0
SEQEND
  8
0
  0
POLYLINE
  8
1
 66
1
 10
0.0000
 20
0.0000
 30
0.0000
 40
0.2032
 41
0.2032
 70
0
  0
VERTEX
  8
1
 10
290.2582
 20
64.6982
 30
0.0000
 42
1.0000
  0
VERTEX
  8
1
 10
290.4018
 20
64.8418
 30
0.0000
  0
SEQEND
  8
0
  0
POLYLINE
  8
1
 66
1
 10
0.0000
 20
0.0000
 30
0.0000
 40
0.2032
 41
0.2032
 70
0
  0
VERTEX
  8
1
 10
288.7718
 20
66.4718
 30
0.0000
 42
1.0000
  0
VERTEX
  8
1
 10
288.6282
 20
66.3282
 30
0.0000
  0
SEQEND
  8
0
  0
POLYLINE
  8
1
 66
1
 10
0.0000
 20
0.0000
 30
0.0000
 40
0.4064
 41
0.4064
 70
0
  0
VERTEX
  8
1
 10
290.3300
 20
64.7700
 30
0.0000
  0
VERTEX
  8
1
 10
290.3300
 20
62.3700
 30
0.0000
  0
SEQEND
  8
0
  0
POLYLINE
  8
1
 66
1
 10
0.0000
 20
0.0000
 30
0.0000
 40
0.2032
 41
0.2032
 70
0
  0
VERTEX
  8
1
 10
290.2284
 20
62.3700
 30
0.0000
 42
1.0000
  0
VERTEX
  8
1
 10
290.4316
 20
62.3700
 30
0.0000
  0
SEQEND
  8
0
  0
POLYLINE
  8
1
 66
1
 10
0.0000
 20
0.0000
 30
0.0000
 40
0.2032
 41
0.2032
 70
0
  0
VERTEX
  8
1
 10
290.4316
 20
64.7700
 30
0.0000
 42
1.0000
  0
VERTEX
  8
1
 10
290.2284
 20
64.7700
 30
0.0000
  0
SEQEND
  8
0
  0
POLYLINE
  8
1
 66
1
 10
0.0000
 20
0.0000
 30
0.0000
 40
0.4064
 41
0.4064
 70
0
  0
VERTEX
  8
1
 10
118.6000
 20
19.5000
 30
0.0000
  0
VERTEX
  8
1
 10
118.6000
 20
45.0000
 30
0.0000
  0
SEQEND
  8
0
  0
POLYLINE
  8
1
 66
1
 10
0.0000
 20
0.0000
 30
0.0000
 40
0.2032
 41
0.2032
 70
0
  0
VERTEX
  8
1
 10
118.7016
 20
45.0000
 30
0.0000
 42
1.0000
  0
VERTEX
  8
1
 10
118.4984
 20
45.0000
 30
0.0000
  0
SEQEND
  8
0
  0
POLYLINE
  8
1
 66
1
 10
0.0000
 20
0.0000
 30
0.0000
 40
0.2032
 41
0.2032
 70
0
  0
VERTEX
  8
1
 10
118.4984
 20
19.5000
 30
0.0000
 42
1.0000
  0
VERTEX
  8
1
 10
118.7016
 20
19.5000
 30
0.0000
  0
SEQEND
  8
0
  0
POLYLINE
  8
1
 66
1
 10
0.0000
 20
0.0000
 30
0.0000
 40
0.4064
 41
0.4064
 70
0
  0
VERTEX
  8
1
 10
118.6000
 20
45.0000
 30
0.0000
  0
VERTEX
  8
1
 10
123.9000
 20
50.3000
 30
0.0000
  0
SEQEND
  8
0
  0
POLYLINE
  8
1
 66
1
 10
0.0000
 20
0.0000
 30
0.0000
 40
0.2032
 41
0.2032
 70
0
  0
VERTEX
  8
1
 10
123.9718
 20
50.2282
 30
0.0000
 42
1.0000
  0
VERTEX
  8
1
 10
123.8282
 20
50.3718
 30
0.0000
  0
SEQEND
  8
0
  0
POLYLINE
  8
1
 66
1
 10
0.0000
 20
0.0000
 30
0.0000
 40
0.2032
 41
0.2032
 70
0
  0
VERTEX
  8
1
 10
118.5282
 20
45.0718
 30
0.0000
 42
1.0000
  0
VERTEX
  8
1
 10
118.6718
 20
44.9282
 30
0.0000
  0
SEQEND
  8
0
  0
POLYLINE
  8
1
 66
1
 10
0.0000
 20
0.0000
 30
0.0000
 40
0.4064
 41
0.4064
 70
0
  0
VERTEX
  8
1
 10
123.9000
 20
50.3000
 30
0.0000
  0
VERTEX
  8
1
 10
180.1000
 20
50.3000
 30
0.0000
  0
SEQEND
  8
0
  0
POLYLINE
  8
1
 66
1
 10
0.0000
 20
0.0000
 30
0.0000
 40
0.2032
 41
0.2032
 70
0
  0
VERTEX
  8
1
 10
180.1000
 20
50.1984
 30
0.0000
 42
1.0000
  0
VERTEX
  8
1
 10
180.1000
 20
50.4016
 30
0.0000
  0
SEQEND
  8
0
  0
POLYLINE
  8
1
 66
1
 10
0.0000
 20
0.0000
 30
0.0000
 40
0.2032
 41
0.2032
 70
0
  0
VERTEX
  8
1
 10
123.9000
 20
50.4016
 30
0.0000
 42
1.0000
  0
VERTEX
  8
1
 10
123.9000
 20
50.1984
 30
0.0000
  0
SEQEND
  8
0
  0
POLYLINE
  8
1
 66
1
 10
0.0000
 20
0.0000
 30
0.0000
 40
0.4064
 41
0.4064
 70
0
  0
VERTEX
  8
1
 10
180.1000
 20
50.3000
 30
0.0000
  0
VERTEX
  8
1
 10
182.2000
 20
48.2000
 30
0.0000
  0
SEQEND
  8
0
  0
POLYLINE
  8
1
 66
1
 10
0.0000
 20
0.0000
 30
0.0000
 40
0.2032
 41
0.2032
 70
0
  0
VERTEX
  8
1
 10
182.1282
 20
48.1282
 30
0.0000
 42
1.0000
  0
VERTEX
  8
1
 10
182.2718
 20
48.2718
 30
0.0000
  0
SEQEND
  8
0
  0
POLYLINE
  8
1
 66
1
 10
0.0000
 20
0.0000
 30
0.0000
 40
0.2032
 41
0.2032
 70
0
  0
VERTEX
  8
1
 10
180.1718
 20
50.3718
 30
0.0000
 42
1.0000
  0
VERTEX
  8
1
 10
180.0282
 20
50.2282
 30
0.0000
  0
SEQEND
  8
0
  0
POLYLINE
  8
1
 66
1
 10
0.0000
 20
0.0000
 30
0.0000
 40
0.4064
 41
0.4064
 70
0
  0
VERTEX
  8
1
 10
182.2000
 20
48.2000
 30
0.0000
  0
VERTEX
  8
1
 10
182.2000
 20
44.7000
 30
0.0000
  0
SEQEND
  8
0
  0
POLYLINE
  8
1
 66
1
 10
0.0000
 20
0.0000
 30
0.0000
 40
0.2032
 41
0.2032
 70
0
  0
VERTEX
  8
1
 10
182.0984
 20
44.7000
 30
0.0000
 42
1.0000
  0
VERTEX
  8
1
 10
182.3016
 20
44.7000
 30
0.0000
  0
SEQEND
  8
0
  0
POLYLINE
  8
1
 66
1
 10
0.0000
 20
0.0000
 30
0.0000
 40
0.2032
 41
0.2032
 70
0
  0
VERTEX
  8
1
 10
182.3016
 20
48.2000
 30
0.0000
 42
1.0000
  0
VERTEX
  8
1
 10
182.0984
 20
48.2000
 30
0.0000
  0
SEQEND
  8
0
  0
POLYLINE
  8
1
 66
1
 10
0.0000
 20
0.0000
 30
0.0000
 40
0.4064
 41
0.4064
 70
0
  0
VERTEX
  8
1
 10
182.2000
 20
44.7000
 30
0.0000
  0
VERTEX
  8
1
 10
180.7000
 20
43.2000
 30
0.0000
  0
SEQEND
  8
0
  0
POLYLINE
  8
1
 66
1
 10
0.0000
 20
0.0000
 30
0.0000
 40
0.2032
 41
0.2032
 70
0
  0
VERTEX
  8
1
 10
180.6282
 20
43.2718
 30
0.0000
 42
1.0000
  0
VERTEX
  8
1
 10
180.7718
 20
43.1282
 30
0.0000
  0
SEQEND
  8
0
  0
POLYLINE
  8
1
 66
1
 10
0.0000
 20
0.0000
 30
0.0000
 40
0.2032
 41
0.2032
 70
0
  0
VERTEX
  8
1
 10
182.2718
 20
44.6282
 30
0.0000
 42
1.0000
  0
VERTEX
  8
1
 10
182.1282
 20
44.7718
 30
0.0000
  0
SEQEND
  8
0
  0
POLYLINE
  8
1
 66
1
 10
0.0000
 20
0.0000
 30
0.0000
 40
0.4064
 41
0.4064
 70
0
  0
VERTEX
  8
1
 10
180.7000
 20
43.2000
 30
0.0000
  0
VERTEX
  8
1
 10
133.6000
 20
43.2000
 30
0.0000
  0
SEQEND
  8
0
  0
POLYLINE
  8
1
 66
1
 10
0.0000
 20
0.0000
 30
0.0000
 40
0.2032
 41
0.2032
 70
0
  0
VERTEX
  8
1
 10
133.6000
 20
43.3016
 30
0.0000
 42
1.0000
  0
VERTEX
  8
1
 10
133.6000
 20
43.0984
 30
0.0000
  0
SEQEND
  8
0
  0
POLYLINE
  8
1
 66
1
 10
0.0000
 20
0.0000
 30
0.0000
 40
0.2032
 41
0.2032
 70
0
  0
VERTEX
  8
1
 10
180.7000
 20
43.0984
 30
0.0000
 42
1.0000
  0
VERTEX
  8
1
 10
180.7000
 20
43.3016
 30
0.0000
  0
SEQEND
  8
0
  0
POLYLINE
  8
1
 66
1
 10
0.0000
 20
0.0000
 30
0.0000
 40
0.4064
 41
0.4064
 70
0
  0
VERTEX
  8
1
 10
133.6000
 20
43.2000
 30
0.0000
  0
VERTEX
  8
1
 10
131.5000
 20
41.1000
 30
0.0000
  0
SEQEND
  8
0
  0
POLYLINE
  8
1
 66
1
 10
0.0000
 20
0.0000
 30
0.0000
 40
0.2032
 41
0.2032
 70
0
  0
VERTEX
  8
1
 10
131.4282
 20
41.1718
 30
0.0000
 42
1.0000
  0
VERTEX
  8
1
 10
131.5718
 20
41.0282
 30
0.0000
  0
SEQEND
  8
0
  0
POLYLINE
  8
1
 66
1
 10
0.0000
 20
0.0000
 30
0.0000
 40
0.2032
 41
0.2032
 70
0
  0
VERTEX
  8
1
 10
133.6718
 20
43.1282
 30
0.0000
 42
1.0000
  0
VERTEX
  8
1
 10
133.5282
 20
43.2718
 30
0.0000
  0
SEQEND
  8
0
  0
POLYLINE
  8
1
 66
1
 10
0.0000
 20
0.0000
 30
0.0000
 40
0.4064
 41
0.4064
 70
0
  0
VERTEX
  8
1
 10
131.5000
 20
41.1000
 30
0.0000
  0
VERTEX
  8
1
 10
131.5000
 20
38.5000
 30
0.0000
  0
SEQEND
  8
0
  0
POLYLINE
  8
1
 66
1
 10
0.0000
 20
0.0000
 30
0.0000
 40
0.2032
 41
0.2032
 70
0
  0
VERTEX
  8
1
 10
131.3984
 20
38.5000
 30
0.0000
 42
1.0000
  0
VERTEX
  8
1
 10
131.6016
 20
38.5000
 30
0.0000
  0
SEQEND
  8
0
  0
POLYLINE
  8
1
 66
1
 10
0.0000
 20
0.0000
 30
0.0000
 40
0.2032
 41
0.2032
 70
0
  0
VERTEX
  8
1
 10
131.6016
 20
41.1000
 30
0.0000
 42
1.0000
  0
VERTEX
  8
1
 10
131.3984
 20
41.1000
 30
0.0000
  0
SEQEND
  8
0
  0
POLYLINE
  8
1
 66
1
 10
0.0000
 20
0.0000
 30
0.0000
 40
0.4064
 41
0.4064
 70
0
  0
VERTEX
  8
1
 10
131.5000
 20
38.5000
 30
0.0000
  0
VERTEX
  8
1
 10
133.5000
 20
36.5000
 30
0.0000
  0
SEQEND
  8
0
  0
POLYLINE
  8
1
 66
1
 10
0.0000
 20
0.0000
 30
0.0000
 40
0.2032
 41
0.2032
 70
0
  0
VERTEX
  8
1
 10
133.4282
 20
36.4282
 30
0.0000
 42
1.0000
  0
VERTEX
  8
1
 10
133.5718
 20
36.5718
 30
0.0000
  0
SEQEND
  8
0
  0
POLYLINE
  8
1
 66
1
 10
0.0000
 20
0.0000
 30
0.0000
 40
0.2032
 41
0.2032
 70
0
  0
VERTEX
  8
1
 10
131.5718
 20
38.5718
 30
0.0000
 42
1.0000
  0
VERTEX
  8
1
 10
131.4282
 20
38.4282
 30
0.0000
  0
SEQEND
  8
0
  0
POLYLINE
  8
1
 66
1
 10
0.0000
 20
0.0000
 30
0.0000
 40
0.4064
 41
0.4064
 70
0
  0
VERTEX
  8
1
 10
133.5000
 20
36.5000
 30
0.0000
  0
VERTEX
  8
1
 10
181.4000
 20
36.5000
 30
0.0000
  0
SEQEND
  8
0
  0
POLYLINE
  8
1
 66
1
 10
0.0000
 20
0.0000
 30
0.0000
 40
0.2032
 41
0.2032
 70
0
  0
VERTEX
  8
1
 10
181.4000
 20
36.3984
 30
0.0000
 42
1.0000
  0
VERTEX
  8
1
 10
181.4000
 20
36.6016
 30
0.0000
  0
SEQEND
  8
0
  0
POLYLINE
  8
1
 66
1
 10
0.0000
 20
0.0000
 30
0.0000
 40
0.2032
 41
0.2032
 70
0
  0
VERTEX
  8
1
 10
133.5000
 20
36.6016
 30
0.0000
 42
1.0000
  0
VERTEX
  8
1
 10
133.5000
 20
36.3984
 30
0.0000
  0
SEQEND
  8
0
  0
POLYLINE
  8
1
 66
1
 10
0.0000
 20
0.0000
 30
0.0000
 40
0.4064
 41
0.4064
 70
0
  0
VERTEX
  8
1
 10
280.2000
 20
44.4000
 30
0.0000
  0
VERTEX
  8
1
 10
280.2000
 20
33.0000
 30
0.0000
  0
SEQEND
  8
0
  0
POLYLINE
  8
1
 66
1
 10
0.0000
 20
0.0000
 30
0.0000
 40
0.2032
 41
0.2032
 70
0
  0
VERTEX
  8
1
 10
280.0984
 20
33.0000
 30
0.0000
 42
1.0000
  0
VERTEX
  8
1
 10
280.3016
 20
33.0000
 30
0.0000
  0
SEQEND
  8
0
  0
POLYLINE
  8
1
 66
1
 10
0.0000
 20
0.0000
 30
0.0000
 40
0.2032
 41
0.2032
 70
0
  0
VERTEX
  8
1
 10
280.3016
 20
44.4000
 30
0.0000
 42
1.0000
  0
VERTEX
  8
1
 10
280.0984
 20
44.4000
 30
0.0000
  0
SEQEND
  8
0
  0
POLYLINE
  8
1
 66
1
 10
0.0000
 20
0.0000
 30
0.0000
 40
0.4064
 41
0.4064
 70
0
  0
VERTEX
  8
1
 10
270.4000
 20
54.2000
 30
0.0000
  0
VERTEX
  8
1
 10
280.2000
 20
44.4000
 30
0.0000
  0
SEQEND
  8
0
  0
POLYLINE
  8
1
 66
1
 10
0.0000
 20
0.0000
 30
0.0000
 40
0.2032
 41
0.2032
 70
0
  0
VERTEX
  8
1
 10
280.1282
 20
44.3282
 30
0.0000
 42
1.0000
  0
VERTEX
  8
1
 10
280.2718
 20
44.4718
 30
0.0000
  0
SEQEND
  8
0
  0
POLYLINE
  8
1
 66
1
 10
0.0000
 20
0.0000
 30
0.0000
 40
0.2032
 41
0.2032
 70
0
  0
VERTEX
  8
1
 10
270.4718
 20
54.2718
 30
0.0000
 42
1.0000
  0
VERTEX
  8
1
 10
270.3282
 20
54.1282
 30
0.0000
  0
SEQEND
  8
0
  0
POLYLINE
  8
1
 66
1
 10
0.0000
 20
0.0000
 30
0.0000
 40
0.4064
 41
0.4064
 70
0
  0
VERTEX
  8
1
 10
192.6000
 20
34.5000
 30
0.0000
  0
VERTEX
  8
1
 10
212.3000
 20
54.2000
 30
0.0000
  0
SEQEND
  8
0
  0
POLYLINE
  8
1
 66
1
 10
0.0000
 20
0.0000
 30
0.0000
 40
0.2032
 41
0.2032
 70
0
  0
VERTEX
  8
1
 10
212.3718
 20
54.1282
 30
0.0000
 42
1.0000
  0
VERTEX
  8
1
 10
212.2282
 20
54.2718
 30
0.0000
  0
SEQEND
  8
0
  0
POLYLINE
  8
1
 66
1
 10
0.0000
 20
0.0000
 30
0.0000
 40
0.2032
 41
0.2032
 70
0
  0
VERTEX
  8
1
 10
192.5282
 20
34.5718
 30
0.0000
 42
1.0000
  0
VERTEX
  8
1
 10
192.6718
 20
34.4282
 30
0.0000
  0
SEQEND
  8
0
  0
POLYLINE
  8
1
 66
1
 10
0.0000
 20
0.0000
 30
0.0000
 40
0.4064
 41
0.4064
 70
0
  0
VERTEX
  8
1
 10
212.3000
 20
54.2000
 30
0.0000
  0
VERTEX
  8
1
 10
270.4000
 20
54.2000
 30
0.0000
  0
SEQEND
  8
0
  0
POLYLINE
  8
1
 66
1
 10
0.0000
 20
0.0000
 30
0.0000
 40
0.2032
 41
0.2032
 70
0
  0
VERTEX
  8
1
 10
270.4000
 20
54.0984
 30
0.0000
 42
1.0000
  0
VERTEX
  8
1
 10
270.4000
 20
54.3016
 30
0.0000
  0
SEQEND
  8
0
  0
POLYLINE
  8
1
 66
1
 10
0.0000
 20
0.0000
 30
0.0000
 40
0.2032
 41
0.2032
 70
0
  0
VERTEX
  8
1
 10
212.3000
 20
54.3016
 30
0.0000
 42
1.0000
  0
VERTEX
  8
1
 10
212.3000
 20
54.0984
 30
0.0000
  0
SEQEND
  8
0
  0
POLYLINE
  8
1
 66
1
 10
0.0000
 20
0.0000
 30
0.0000
 40
0.4064
 41
0.4064
 70
0
  0
VERTEX
  8
1
 10
181.4000
 20
36.5000
 30
0.0000
  0
VERTEX
  8
1
 10
188.1000
 20
29.8000
 30
0.0000
  0
SEQEND
  8
0
  0
POLYLINE
  8
1
 66
1
 10
0.0000
 20
0.0000
 30
0.0000
 40
0.2032
 41
0.2032
 70
0
  0
VERTEX
  8
1
 10
188.0282
 20
29.7282
 30
0.0000
 42
1.0000
  0
VERTEX
  8
1
 10
188.1718
 20
29.8718
 30
0.0000
  0
SEQEND
  8
0
  0
POLYLINE
  8
1
 66
1
 10
0.0000
 20
0.0000
 30
0.0000
 40
0.2032
 41
0.2032
 70
0
  0
VERTEX
  8
1
 10
181.4718
 20
36.5718
 30
0.0000
 42
1.0000
  0
VERTEX
  8
1
 10
181.3282
 20
36.4282
 30
0.0000
  0
SEQEND
  8
0
  0
POLYLINE
  8
1
 66
1
 10
0.0000
 20
0.0000
 30
0.0000
 40
0.4064
 41
0.4064
 70
0
  0
VERTEX
  8
1
 10
188.1000
 20
29.8000
 30
0.0000
  0
VERTEX
  8
1
 10
190.7000
 20
29.8000
 30
0.0000
  0
SEQEND
  8
0
  0
POLYLINE
  8
1
 66
1
 10
0.0000
 20
0.0000
 30
0.0000
 40
0.2032
 41
0.2032
 70
0
  0
VERTEX
  8
1
 10
190.7000
 20
29.6984
 30
0.0000
 42
1.0000
  0
VERTEX
  8
1
 10
190.7000
 20
29.9016
 30
0.0000
  0
SEQEND
  8
0
  0
POLYLINE
  8
1
 66
1
 10
0.0000
 20
0.0000
 30
0.0000
 40
0.2032
 41
0.2032
 70
0
  0
VERTEX
  8
1
 10
188.1000
 20
29.9016
 30
0.0000
 42
1.0000
  0
VERTEX
  8
1
 10
188.1000
 20
29.6984
 30
0.0000
  0
SEQEND
  8
0
  0
POLYLINE
  8
1
 66
1
 10
0.0000
 20
0.0000
 30
0.0000
 40
0.4064
 41
0.4064
 70
0
  0
VERTEX
  8
1
 10
190.7000
 20
29.8000
 30
0.0000
  0
VERTEX
  8
1
 10
192.6000
 20
31.7000
 30
0.0000
  0
SEQEND
  8
0
  0
POLYLINE
  8
1
 66
1
 10
0.0000
 20
0.0000
 30
0.0000
 40
0.2032
 41
0.2032
 70
0
  0
VERTEX
  8
1
 10
192.6718
 20
31.6282
 30
0.0000
 42
1.0000
  0
VERTEX
  8
1
 10
192.5282
 20
31.7718
 30
0.0000
  0
SEQEND
  8
0
  0
POLYLINE
  8
1
 66
1
 10
0.0000
 20
0.0000
 30
0.0000
 40
0.2032
 41
0.2032
 70
0
  0
VERTEX
  8
1
 10
190.6282
 20
29.8718
 30
0.0000
 42
1.0000
  0
VERTEX
  8
1
 10
190.7718
 20
29.7282
 30
0.0000
  0
SEQEND
  8
0
  0
POLYLINE
  8
1
 66
1
 10
0.0000
 20
0.0000
 30
0.0000
 40
0.4064
 41
0.4064
 70
0
  0
VERTEX
  8
1
 10
192.6000
 20
31.7000
 30
0.0000
  0
VERTEX
  8
1
 10
192.6000
 20
34.5000
 30
0.0000
  0
SEQEND
  8
0
  0
POLYLINE
  8
1
 66
1
 10
0.0000
 20
0.0000
 30
0.0000
 40
0.2032
 41
0.2032
 70
0
  0
VERTEX
  8
1
 10
192.7016
 20
34.5000
 30
0.0000
 42
1.0000
  0
VERTEX
  8
1
 10
192.4984
 20
34.5000
 30
0.0000
  0
SEQEND
  8
0
  0
POLYLINE
  8
1
 66
1
 10
0.0000
 20
0.0000
 30
0.0000
 40
0.2032
 41
0.2032
 70
0
  0
VERTEX
  8
1
 10
192.4984
 20
31.7000
 30
0.0000
 42
1.0000
  0
VERTEX
  8
1
 10
192.7016
 20
31.7000
 30
0.0000
  0
SEQEND
  8
0
  0
POLYLINE
  8
1
 66
1
 10
0.0000
 20
0.0000
 30
0.0000
 40
0.4064
 41
0.4064
 70
0
  0
VERTEX
  8
1
 10
11.0000
 20
47.2000
 30
0.0000
  0
VERTEX
  8
1
 10
11.0000
 20
54.2000
 30
0.0000
  0
SEQEND
  8
0
  0
POLYLINE
  8
1
 66
1
 10
0.0000
 20
0.0000
 30
0.0000
 40
0.2032
 41
0.2032
 70
0
  0
VERTEX
  8
1
 10
11.1016
 20
54.2000
 30
0.0000
 42
1.0000
  0
VERTEX
  8
1
 10
10.8984
 20
54.2000
 30
0.0000
  0
SEQEND
  8
0
  0
POLYLINE
  8
1
 66
1
 10
0.0000
 20
0.0000
 30
0.0000
 40
0.2032
 41
0.2032
 70
0
  0
VERTEX
  8
1
 10
10.8984
 20
47.2000
 30
0.0000
 42
1.0000
  0
VERTEX
  8
1
 10
11.1016
 20
47.2000
 30
0.0000
  0
SEQEND
  8
0
  0
POLYLINE
  8
1
 66
1
 10
0.0000
 20
0.0000
 30
0.0000
 40
0.4064
 41
0.4064
 70
0
  0
VERTEX
  8
1
 10
12.3000
 20
45.9000
 30
0.0000
  0
VERTEX
  8
1
 10
11.0000
 20
47.2000
 30
0.0000
  0
SEQEND
  8
0
  0
POLYLINE
  8
1
 66
1
 10
0.0000
 20
0.0000
 30
0.0000
 40
0.2032
 41
0.2032
 70
0
  0
VERTEX
  8
1
 10
11.0718
 20
47.2718
 30
0.0000
 42
1.0000
  0
VERTEX
  8
1
 10
10.9282
 20
47.1282
 30
0.0000
  0
SEQEND
  8
0
  0
POLYLINE
  8
1
 66
1
 10
0.0000
 20
0.0000
 30
0.0000
 40
0.2032
 41
0.2032
 70
0
  0
VERTEX
  8
1
 10
12.2282
 20
45.8282
 30
0.0000
 42
1.0000
  0
VERTEX
  8
1
 10
12.3718
 20
45.9718
 30
0.0000
  0
SEQEND
  8
0
  0
POLYLINE
  8
1
 66
1
 10
0.0000
 20
0.0000
 30
0.0000
 40
0.4064
 41
0.4064
 70
0
  0
VERTEX
  8
1
 10
17.1000
 20
45.9000
 30
0.0000
  0
VERTEX
  8
1
 10
12.3000
 20
45.9000
 30
0.0000
  0
SEQEND
  8
0
  0
POLYLINE
  8
1
 66
1
 10
0.0000
 20
0.0000
 30
0.0000
 40
0.2032
 41
0.2032
 70
0
  0
VERTEX
  8
1
 10
12.3000
 20
46.0016
 30
0.0000
 42
1.0000
  0
VERTEX
  8
1
 10
12.3000
 20
45.7984
 30
0.0000
  0
SEQEND
  8
0
  0
POLYLINE
  8
1
 66
1
 10
0.0000
 20
0.0000
 30
0.0000
 40
0.2032
 41
0.2032
 70
0
  0
VERTEX
  8
1
 10
17.1000
 20
45.7984
 30
0.0000
 42
1.0000
  0
VERTEX
  8
1
 10
17.1000
 20
46.0016
 30
0.0000
  0
SEQEND
  8
0
  0
POLYLINE
  8
1
 66
1
 10
0.0000
 20
0.0000
 30
0.0000
 40
0.4064
 41
0.4064
 70
0
  0
VERTEX
  8
1
 10
19.2000
 20
43.8000
 30
0.0000
  0
VERTEX
  8
1
 10
17.1000
 20
45.9000
 30
0.0000
  0
SEQEND
  8
0
  0
POLYLINE
  8
1
 66
1
 10
0.0000
 20
0.0000
 30
0.0000
 40
0.2032
 41
0.2032
 70
0
  0
VERTEX
  8
1
 10
17.1718
 20
45.9718
 30
0.0000
 42
1.0000
  0
VERTEX
  8
1
 10
17.0282
 20
45.8282
 30
0.0000
  0
SEQEND
  8
0
  0
POLYLINE
  8
1
 66
1
 10
0.0000
 20
0.0000
 30
0.0000
 40
0.2032
 41
0.2032
 70
0
  0
VERTEX
  8
1
 10
19.1282
 20
43.7282
 30
0.0000
 42
1.0000
  0
VERTEX
  8
1
 10
19.2718
 20
43.8718
 30
0.0000
  0
SEQEND
  8
0
  0
POLYLINE
  8
1
 66
1
 10
0.0000
 20
0.0000
 30
0.0000
 40
0.4064
 41
0.4064
 70
0
  0
VERTEX
  8
1
 10
19.2000
 20
20.5000
 30
0.0000
  0
VERTEX
  8
1
 10
19.2000
 20
43.8000
 30
0.0000
  0
SEQEND
  8
0
  0
POLYLINE
  8
1
 66
1
 10
0.0000
 20
0.0000
 30
0.0000
 40
0.2032
 41
0.2032
 70
0
  0
VERTEX
  8
1
 10
19.3016
 20
43.8000
 30
0.0000
 42
1.0000
  0
VERTEX
  8
1
 10
19.0984
 20
43.8000
 30
0.0000
  0
SEQEND
  8
0
  0
POLYLINE
  8
1
 66
1
 10
0.0000
 20
0.0000
 30
0.0000
 40
0.2032
 41
0.2032
 70
0
  0
VERTEX
  8
1
 10
19.0984
 20
20.5000
 30
0.0000
 42
1.0000
  0
VERTEX
  8
1
 10
19.3016
 20
20.5000
 30
0.0000
  0
SEQEND
  8
0
  0
POLYLINE
  8
1
 66
1
 10
0.0000
 20
0.0000
 30
0.0000
 40
0.4064
 41
0.4064
 70
0
  0
VERTEX
  8
1
 10
16.6000
 20
56.6000
 30
0.0000
  0
VERTEX
  8
1
 10
16.7000
 20
56.6000
 30
0.0000
  0
SEQEND
  8
0
  0
POLYLINE
  8
1
 66
1
 10
0.0000
 20
0.0000
 30
0.0000
 40
0.2032
 41
0.2032
 70
0
  0
VERTEX
  8
1
 10
16.7000
 20
56.4984
 30
0.0000
 42
1.0000
  0
VERTEX
  8
1
 10
16.7000
 20
56.7016
 30
0.0000
  0
SEQEND
  8
0
  0
POLYLINE
  8
1
 66
1
 10
0.0000
 20
0.0000
 30
0.0000
 40
0.2032
 41
0.2032
 70
0
  0
VERTEX
  8
1
 10
16.6000
 20
56.7016
 30
0.0000
 42
1.0000
  0
VERTEX
  8
1
 10
16.6000
 20
56.4984
 30
0.0000
  0
SEQEND
  8
0
  0
POLYLINE
  8
1
 66
1
 10
0.0000
 20
0.0000
 30
0.0000
 40
0.4064
 41
0.4064
 70
0
  0
VERTEX
  8
1
 10
16.7000
 20
56.6000
 30
0.0000
  0
VERTEX
  8
1
 10
271.1000
 20
56.6000
 30
0.0000
  0
SEQEND
  8
0
  0
POLYLINE
  8
1
 66
1
 10
0.0000
 20
0.0000
 30
0.0000
 40
0.2032
 41
0.2032
 70
0
  0
VERTEX
  8
1
 10
271.1000
 20
56.4984
 30
0.0000
 42
1.0000
  0
VERTEX
  8
1
 10
271.1000
 20
56.7016
 30
0.0000
  0
SEQEND
  8
0
  0
POLYLINE
  8
1
 66
1
 10
0.0000
 20
0.0000
 30
0.0000
 40
0.2032
 41
0.2032
 70
0
  0
VERTEX
  8
1
 10
16.7000
 20
56.7016
 30
0.0000
 42
1.0000
  0
VERTEX
  8
1
 10
16.7000
 20
56.4984
 30
0.0000
  0
SEQEND
  8
0
  0
POLYLINE
  8
1
 66
1
 10
0.0000
 20
0.0000
 30
0.0000
 40
0.4064
 41
0.4064
 70
0
  0
VERTEX
  8
1
 10
271.1000
 20
56.6000
 30
0.0000
  0
VERTEX
  8
1
 10
282.7500
 20
44.9500
 30
0.0000
  0
SEQEND
  8
0
  0
POLYLINE
  8
1
 66
1
 10
0.0000
 20
0.0000
 30
0.0000
 40
0.2032
 41
0.2032
 70
0
  0
VERTEX
  8
1
 10
282.6782
 20
44.8782
 30
0.0000
 42
1.0000
  0
VERTEX
  8
1
 10
282.8218
 20
45.0218
 30
0.0000
  0
SEQEND
  8
0
  0
POLYLINE
  8
1
 66
1
 10
0.0000
 20
0.0000
 30
0.0000
 40
0.2032
 41
0.2032
 70
0
  0
VERTEX
  8
1
 10
271.1718
 20
56.6718
 30
0.0000
 42
1.0000
  0
VERTEX
  8
1
 10
271.0282
 20
56.5282
 30
0.0000
  0
SEQEND
  8
0
  0
POLYLINE
  8
1
 66
1
 10
0.0000
 20
0.0000
 30
0.0000
 40
0.4064
 41
0.4064
 70
0
  0
VERTEX
  8
1
 10
282.7500
 20
44.9500
 30
0.0000
  0
VERTEX
  8
1
 10
282.7500
 20
33.0100
 30
0.0000
  0
SEQEND
  8
0
  0
POLYLINE
  8
1
 66
1
 10
0.0000
 20
0.0000
 30
0.0000
 40
0.2032
 41
0.2032
 70
0
  0
VERTEX
  8
1
 10
282.6484
 20
33.0100
 30
0.0000
 42
1.0000
  0
VERTEX
  8
1
 10
282.8516
 20
33.0100
 30
0.0000
  0
SEQEND
  8
0
  0
POLYLINE
  8
1
 66
1
 10
0.0000
 20
0.0000
 30
0.0000
 40
0.2032
 41
0.2032
 70
0
  0
VERTEX
  8
1
 10
282.8516
 20
44.9500
 30
0.0000
 42
1.0000
  0
VERTEX
  8
1
 10
282.6484
 20
44.9500
 30
0.0000
  0
SEQEND
  8
0
  0
POLYLINE
  8
1
 66
1
 10
0.0000
 20
0.0000
 30
0.0000
 40
0.4064
 41
0.4064
 70
0
  0
VERTEX
  8
1
 10
11.0000
 20
54.2000
 30
0.0000
  0
VERTEX
  8
1
 10
13.4000
 20
56.6000
 30
0.0000
  0
SEQEND
  8
0
  0
POLYLINE
  8
1
 66
1
 10
0.0000
 20
0.0000
 30
0.0000
 40
0.2032
 41
0.2032
 70
0
  0
VERTEX
  8
1
 10
13.4718
 20
56.5282
 30
0.0000
 42
1.0000
  0
VERTEX
  8
1
 10
13.3282
 20
56.6718
 30
0.0000
  0
SEQEND
  8
0
  0
POLYLINE
  8
1
 66
1
 10
0.0000
 20
0.0000
 30
0.0000
 40
0.2032
 41
0.2032
 70
0
  0
VERTEX
  8
1
 10
10.9282
 20
54.2718
 30
0.0000
 42
1.0000
  0
VERTEX
  8
1
 10
11.0718
 20
54.1282
 30
0.0000
  0
SEQEND
  8
0
  0
POLYLINE
  8
1
 66
1
 10
0.0000
 20
0.0000
 30
0.0000
 40
0.4064
 41
0.4064
 70
0
  0
VERTEX
  8
1
 10
13.4000
 20
56.6000
 30
0.0000
  0
VERTEX
  8
1
 10
16.6000
 20
56.6000
 30
0.0000
  0
SEQEND
  8
0
  0
POLYLINE
  8
1
 66
1
 10
0.0000
 20
0.0000
 30
0.0000
 40
0.2032
 41
0.2032
 70
0
  0
VERTEX
  8
1
 10
16.6000
 20
56.4984
 30
0.0000
 42
1.0000
  0
VERTEX
  8
1
 10
16.6000
 20
56.7016
 30
0.0000
  0
SEQEND
  8
0
  0
POLYLINE
  8
1
 66
1
 10
0.0000
 20
0.0000
 30
0.0000
 40
0.2032
 41
0.2032
 70
0
  0
VERTEX
  8
1
 10
13.4000
 20
56.7016
 30
0.0000
 42
1.0000
  0
VERTEX
  8
1
 10
13.4000
 20
56.4984
 30
0.0000
  0
SEQEND
  8
0
  0
POLYLINE
  8
1
 66
1
 10
0.0000
 20
0.0000
 30
0.0000
 40
0.4064
 41
0.4064
 70
0
  0
VERTEX
  8
1
 10
217.4000
 20
19.4000
 30
0.0000
  0
VERTEX
  8
1
 10
217.4000
 20
46.0000
 30
0.0000
  0
SEQEND
  8
0
  0
POLYLINE
  8
1
 66
1
 10
0.0000
 20
0.0000
 30
0.0000
 40
0.2032
 41
0.2032
 70
0
  0
VERTEX
  8
1
 10
217.5016
 20
46.0000
 30
0.0000
 42
1.0000
  0
VERTEX
  8
1
 10
217.2984
 20
46.0000
 30
0.0000
  0
SEQEND
  8
0
  0
POLYLINE
  8
1
 66
1
 10
0.0000
 20
0.0000
 30
0.0000
 40
0.2032
 41
0.2032
 70
0
  0
VERTEX
  8
1
 10
217.2984
 20
19.4000
 30
0.0000
 42
1.0000
  0
VERTEX
  8
1
 10
217.5016
 20
19.4000
 30
0.0000
  0
SEQEND
  8
0
  0
POLYLINE
  8
1
 66
1
 10
0.0000
 20
0.0000
 30
0.0000
 40
0.4064
 41
0.4064
 70
0
  0
VERTEX
  8
1
 10
217.4000
 20
46.0000
 30
0.0000
  0
VERTEX
  8
1
 10
221.7000
 20
50.3000
 30
0.0000
  0
SEQEND
  8
0
  0
POLYLINE
  8
1
 66
1
 10
0.0000
 20
0.0000
 30
0.0000
 40
0.2032
 41
0.2032
 70
0
  0
VERTEX
  8
1
 10
221.7718
 20
50.2282
 30
0.0000
 42
1.0000
  0
VERTEX
  8
1
 10
221.6282
 20
50.3718
 30
0.0000
  0
SEQEND
  8
0
  0
POLYLINE
  8
1
 66
1
 10
0.0000
 20
0.0000
 30
0.0000
 40
0.2032
 41
0.2032
 70
0
  0
VERTEX
  8
1
 10
217.3282
 20
46.0718
 30
0.0000
 42
1.0000
  0
VERTEX
  8
1
 10
217.4718
 20
45.9282
 30
0.0000
  0
SEQEND
  8
0
  0
POLYLINE
  8
1
 66
1
 10
0.0000
 20
0.0000
 30
0.0000
 40
0.4064
 41
0.4064
 70
0
  0
VERTEX
  8
1
 10
221.7000
 20
50.3000
 30
0.0000
  0
VERTEX
  8
1
 10
224.2000
 20
50.3000
 30
0.0000
  0
SEQEND
  8
0
  0
POLYLINE
  8
1
 66
1
 10
0.0000
 20
0.0000
 30
0.0000
 40
0.2032
 41
0.2032
 70
0
  0
VERTEX
  8
1
 10
224.2000
 20
50.1984
 30
0.0000
 42
1.0000
  0
VERTEX
  8
1
 10
224.2000
 20
50.4016
 30
0.0000
  0
SEQEND
  8
0
  0
POLYLINE
  8
1
 66
1
 10
0.0000
 20
0.0000
 30
0.0000
 40
0.2032
 41
0.2032
 70
0
  0
VERTEX
  8
1
 10
221.7000
 20
50.4016
 30
0.0000
 42
1.0000
  0
VERTEX
  8
1
 10
221.7000
 20
50.1984
 30
0.0000
  0
SEQEND
  8
0
  0
POLYLINE
  8
1
 66
1
 10
0.0000
 20
0.0000
 30
0.0000
 40
0.4064
 41
0.4064
 70
0
  0
VERTEX
  8
1
 10
224.2000
 20
50.3000
 30
0.0000
  0
VERTEX
  8
1
 10
235.7000
 20
38.8000
 30
0.0000
  0
SEQEND
  8
0
  0
POLYLINE
  8
1
 66
1
 10
0.0000
 20
0.0000
 30
0.0000
 40
0.2032
 41
0.2032
 70
0
  0
VERTEX
  8
1
 10
235.6282
 20
38.7282
 30
0.0000
 42
1.0000
  0
VERTEX
  8
1
 10
235.7718
 20
38.8718
 30
0.0000
  0
SEQEND
  8
0
  0
POLYLINE
  8
1
 66
1
 10
0.0000
 20
0.0000
 30
0.0000
 40
0.2032
 41
0.2032
 70
0
  0
VERTEX
  8
1
 10
224.2718
 20
50.3718
 30
0.0000
 42
1.0000
  0
VERTEX
  8
1
 10
224.1282
 20
50.2282
 30
0.0000
  0
SEQEND
  8
0
  0
POLYLINE
  8
1
 66
1
 10
0.0000
 20
0.0000
 30
0.0000
 40
0.4064
 41
0.4064
 70
0
  0
VERTEX
  8
1
 10
235.7000
 20
38.8000
 30
0.0000
  0
VERTEX
  8
1
 10
235.7000
 20
10.4000
 30
0.0000
  0
SEQEND
  8
0
  0
POLYLINE
  8
1
 66
1
 10
0.0000
 20
0.0000
 30
0.0000
 40
0.2032
 41
0.2032
 70
0
  0
VERTEX
  8
1
 10
235.5984
 20
10.4000
 30
0.0000
 42
1.0000
  0
VERTEX
  8
1
 10
235.8016
 20
10.4000
 30
0.0000
  0
SEQEND
  8
0
  0
POLYLINE
  8
1
 66
1
 10
0.0000
 20
0.0000
 30
0.0000
 40
0.2032
 41
0.2032
 70
0
  0
VERTEX
  8
1
 10
235.8016
 20
38.8000
 30
0.0000
 42
1.0000
  0
VERTEX
  8
1
 10
235.5984
 20
38.8000
 30
0.0000
  0
SEQEND
  8
0
  0
POLYLINE
  8
1
 66
1
 10
0.0000
 20
0.0000
 30
0.0000
 40
0.4064
 41
0.4064
 70
0
  0
VERTEX
  8
1
 10
235.7000
 20
10.4000
 30
0.0000
  0
VERTEX
  8
1
 10
238.2000
 20
7.9000
 30
0.0000
  0
SEQEND
  8
0
  0
POLYLINE
  8
1
 66
1
 10
0.0000
 20
0.0000
 30
0.0000
 40
0.2032
 41
0.2032
 70
0
  0
VERTEX
  8
1
 10
238.1282
 20
7.8282
 30
0.0000
 42
1.0000
  0
VERTEX
  8
1
 10
238.2718
 20
7.9718
 30
0.0000
  0
SEQEND
  8
0
  0
POLYLINE
  8
1
 66
1
 10
0.0000
 20
0.0000
 30
0.0000
 40
0.2032
 41
0.2032
 70
0
  0
VERTEX
  8
1
 10
235.7718
 20
10.4718
 30
0.0000
 42
1.0000
  0
VERTEX
  8
1
 10
235.6282
 20
10.3282
 30
0.0000
  0
SEQEND
  8
0
  0
POLYLINE
  8
1
 66
1
 10
0.0000
 20
0.0000
 30
0.0000
 40
0.4064
 41
0.4064
 70
0
  0
VERTEX
  8
1
 10
238.2000
 20
7.9000
 30
0.0000
  0
VERTEX
  8
1
 10
240.8000
 20
7.9000
 30
0.0000
  0
SEQEND
  8
0
  0
POLYLINE
  8
1
 66
1
 10
0.0000
 20
0.0000
 30
0.0000
 40
0.2032
 41
0.2032
 70
0
  0
VERTEX
  8
1
 10
240.8000
 20
7.7984
 30
0.0000
 42
1.0000
  0
VERTEX
  8
1
 10
240.8000
 20
8.0016
 30
0.0000
  0
SEQEND
  8
0
  0
POLYLINE
  8
1
 66
1
 10
0.0000
 20
0.0000
 30
0.0000
 40
0.2032
 41
0.2032
 70
0
  0
VERTEX
  8
1
 10
238.2000
 20
8.0016
 30
0.0000
 42
1.0000
  0
VERTEX
  8
1
 10
238.2000
 20
7.7984
 30
0.0000
  0
SEQEND
  8
0
  0
POLYLINE
  8
1
 66
1
 10
0.0000
 20
0.0000
 30
0.0000
 40
0.4064
 41
0.4064
 70
0
  0
VERTEX
  8
1
 10
240.8000
 20
7.9000
 30
0.0000
  0
VERTEX
  8
1
 10
242.7000
 20
9.8000
 30
0.0000
  0
SEQEND
  8
0
  0
POLYLINE
  8
1
 66
1
 10
0.0000
 20
0.0000
 30
0.0000
 40
0.2032
 41
0.2032
 70
0
  0
VERTEX
  8
1
 10
242.7718
 20
9.7282
 30
0.0000
 42
1.0000
  0
VERTEX
  8
1
 10
242.6282
 20
9.8718
 30
0.0000
  0
SEQEND
  8
0
  0
POLYLINE
  8
1
 66
1
 10
0.0000
 20
0.0000
 30
0.0000
 40
0.2032
 41
0.2032
 70
0
  0
VERTEX
  8
1
 10
240.7282
 20
7.9718
 30
0.0000
 42
1.0000
  0
VERTEX
  8
1
 10
240.8718
 20
7.8282
 30
0.0000
  0
SEQEND
  8
0
  0
POLYLINE
  8
1
 66
1
 10
0.0000
 20
0.0000
 30
0.0000
 40
0.4064
 41
0.4064
 70
0
  0
VERTEX
  8
1
 10
242.7000
 20
9.8000
 30
0.0000
  0
VERTEX
  8
1
 10
242.7000
 20
38.8000
 30
0.0000
  0
SEQEND
  8
0
  0
POLYLINE
  8
1
 66
1
 10
0.0000
 20
0.0000
 30
0.0000
 40
0.2032
 41
0.2032
 70
0
  0
VERTEX
  8
1
 10
242.8016
 20
38.8000
 30
0.0000
 42
1.0000
  0
VERTEX
  8
1
 10
242.5984
 20
38.8000
 30
0.0000
  0
SEQEND
  8
0
  0
POLYLINE
  8
1
 66
1
 10
0.0000
 20
0.0000
 30
0.0000
 40
0.2032
 41
0.2032
 70
0
  0
VERTEX
  8
1
 10
242.5984
 20
9.8000
 30
0.0000
 42
1.0000
  0
VERTEX
  8
1
 10
242.8016
 20
9.8000
 30
0.0000
  0
SEQEND
  8
0
  0
POLYLINE
  8
1
 66
1
 10
0.0000
 20
0.0000
 30
0.0000
 40
0.4064
 41
0.4064
 70
0
  0
VERTEX
  8
1
 10
242.7000
 20
38.8000
 30
0.0000
  0
VERTEX
  8
1
 10
231.8000
 20
49.7000
 30
0.0000
  0
SEQEND
  8
0
  0
POLYLINE
  8
1
 66
1
 10
0.0000
 20
0.0000
 30
0.0000
 40
0.2032
 41
0.2032
 70
0
  0
VERTEX
  8
1
 10
231.8718
 20
49.7718
 30
0.0000
 42
1.0000
  0
VERTEX
  8
1
 10
231.7282
 20
49.6282
 30
0.0000
  0
SEQEND
  8
0
  0
POLYLINE
  8
1
 66
1
 10
0.0000
 20
0.0000
 30
0.0000
 40
0.2032
 41
0.2032
 70
0
  0
VERTEX
  8
1
 10
242.6282
 20
38.7282
 30
0.0000
 42
1.0000
  0
VERTEX
  8
1
 10
242.7718
 20
38.8718
 30
0.0000
  0
SEQEND
  8
0
  0
POLYLINE
  8
1
 66
1
 10
0.0000
 20
0.0000
 30
0.0000
 40
0.4064
 41
0.4064
 70
0
  0
VERTEX
  8
1
 10
231.8000
 20
49.7000
 30
0.0000
  0
VERTEX
  8
1
 10
231.8000
 20
51.5000
 30
0.0000
  0
SEQEND
  8
0
  0
POLYLINE
  8
1
 66
1
 10
0.0000
 20
0.0000
 30
0.0000
 40
0.2032
 41
0.2032
 70
0
  0
VERTEX
  8
1
 10
231.9016
 20
51.5000
 30
0.0000
 42
1.0000
  0
VERTEX
  8
1
 10
231.6984
 20
51.5000
 30
0.0000
  0
SEQEND
  8
0
  0
POLYLINE
  8
1
 66
1
 10
0.0000
 20
0.0000
 30
0.0000
 40
0.2032
 41
0.2032
 70
0
  0
VERTEX
  8
1
 10
231.6984
 20
49.7000
 30
0.0000
 42
1.0000
  0
VERTEX
  8
1
 10
231.9016
 20
49.7000
 30
0.0000
  0
SEQEND
  8
0
  0
POLYLINE
  8
1
 66
1
 10
0.0000
 20
0.0000
 30
0.0000
 40
0.4064
 41
0.4064
 70
0
  0
VERTEX
  8
1
 10
231.8000
 20
51.5000
 30
0.0000
  0
VERTEX
  8
1
 10
233.2000
 20
52.9000
 30
0.0000
  0
SEQEND
  8
0
  0
POLYLINE
  8
1
 66
1
 10
0.0000
 20
0.0000
 30
0.0000
 40
0.2032
 41
0.2032
 70
0
  0
VERTEX
  8
1
 10
233.2718
 20
52.8282
 30
0.0000
 42
1.0000
  0
VERTEX
  8
1
 10
233.1282
 20
52.9718
 30
0.0000
  0
SEQEND
  8
0
  0
POLYLINE
  8
1
 66
1
 10
0.0000
 20
0.0000
 30
0.0000
 40
0.2032
 41
0.2032
 70
0
  0
VERTEX
  8
1
 10
231.7282
 20
51.5718
 30
0.0000
 42
1.0000
  0
VERTEX
  8
1
 10
231.8718
 20
51.4282
 30
0.0000
  0
SEQEND
  8
0
  0
POLYLINE
  8
1
 66
1
 10
0.0000
 20
0.0000
 30
0.0000
 40
0.4064
 41
0.4064
 70
0
  0
VERTEX
  8
1
 10
233.2000
 20
52.9000
 30
0.0000
  0
VERTEX
  8
1
 10
234.3000
 20
52.9000
 30
0.0000
  0
SEQEND
  8
0
  0
POLYLINE
  8
1
 66
1
 10
0.0000
 20
0.0000
 30
0.0000
 40
0.2032
 41
0.2032
 70
0
  0
VERTEX
  8
1
 10
234.3000
 20
52.7984
 30
0.0000
 42
1.0000
  0
VERTEX
  8
1
 10
234.3000
 20
53.0016
 30
0.0000
  0
SEQEND
  8
0
  0
POLYLINE
  8
1
 66
1
 10
0.0000
 20
0.0000
 30
0.0000
 40
0.2032
 41
0.2032
 70
0
  0
VERTEX
  8
1
 10
233.2000
 20
53.0016
 30
0.0000
 42
1.0000
  0
VERTEX
  8
1
 10
233.2000
 20
52.7984
 30
0.0000
  0
SEQEND
  8
0
  0
POLYLINE
  8
1
 66
1
 10
0.0000
 20
0.0000
 30
0.0000
 40
0.4064
 41
0.4064
 70
0
  0
VERTEX
  8
1
 10
234.3000
 20
52.9000
 30
0.0000
  0
VERTEX
  8
1
 10
245.5000
 20
41.7000
 30
0.0000
  0
SEQEND
  8
0
  0
POLYLINE
  8
1
 66
1
 10
0.0000
 20
0.0000
 30
0.0000
 40
0.2032
 41
0.2032
 70
0
  0
VERTEX
  8
1
 10
245.4282
 20
41.6282
 30
0.0000
 42
1.0000
  0
VERTEX
  8
1
 10
245.5718
 20
41.7718
 30
0.0000
  0
SEQEND
  8
0
  0
POLYLINE
  8
1
 66
1
 10
0.0000
 20
0.0000
 30
0.0000
 40
0.2032
 41
0.2032
 70
0
  0
VERTEX
  8
1
 10
234.3718
 20
52.9718
 30
0.0000
 42
1.0000
  0
VERTEX
  8
1
 10
234.2282
 20
52.8282
 30
0.0000
  0
SEQEND
  8
0
  0
POLYLINE
  8
1
 66
1
 10
0.0000
 20
0.0000
 30
0.0000
 40
0.4064
 41
0.4064
 70
0
  0
VERTEX
  8
1
 10
245.5000
 20
41.7000
 30
0.0000
  0
VERTEX
  8
1
 10
245.5000
 20
12.6000
 30
0.0000
  0
SEQEND
  8
0
  0
POLYLINE
  8
1
 66
1
 10
0.0000
 20
0.0000
 30
0.0000
 40
0.2032
 41
0.2032
 70
0
  0
VERTEX
  8
1
 10
245.3984
 20
12.6000
 30
0.0000
 42
1.0000
  0
VERTEX
  8
1
 10
245.6016
 20
12.6000
 30
0.0000
  0
SEQEND
  8
0
  0
POLYLINE
  8
1
 66
1
 10
0.0000
 20
0.0000
 30
0.0000
 40
0.2032
 41
0.2032
 70
0
  0
VERTEX
  8
1
 10
245.6016
 20
41.7000
 30
0.0000
 42
1.0000
  0
VERTEX
  8
1
 10
245.3984
 20
41.7000
 30
0.0000
  0
SEQEND
  8
0
  0
POLYLINE
  8
1
 66
1
 10
0.0000
 20
0.0000
 30
0.0000
 40
0.4064
 41
0.4064
 70
0
  0
VERTEX
  8
1
 10
245.5000
 20
12.6000
 30
0.0000
  0
VERTEX
  8
1
 10
247.3000
 20
10.8000
 30
0.0000
  0
SEQEND
  8
0
  0
POLYLINE
  8
1
 66
1
 10
0.0000
 20
0.0000
 30
0.0000
 40
0.2032
 41
0.2032
 70
0
  0
VERTEX
  8
1
 10
247.2282
 20
10.7282
 30
0.0000
 42
1.0000
  0
VERTEX
  8
1
 10
247.3718
 20
10.8718
 30
0.0000
  0
SEQEND
  8
0
  0
POLYLINE
  8
1
 66
1
 10
0.0000
 20
0.0000
 30
0.0000
 40
0.2032
 41
0.2032
 70
0
  0
VERTEX
  8
1
 10
245.5718
 20
12.6718
 30
0.0000
 42
1.0000
  0
VERTEX
  8
1
 10
245.4282
 20
12.5282
 30
0.0000
  0
SEQEND
  8
0
  0
POLYLINE
  8
1
 66
1
 10
0.0000
 20
0.0000
 30
0.0000
 40
0.4064
 41
0.4064
 70
0
  0
VERTEX
  8
1
 10
247.3000
 20
10.8000
 30
0.0000
  0
VERTEX
  8
1
 10
249.5000
 20
10.8000
 30
0.0000
  0
SEQEND
  8
0
  0
POLYLINE
  8
1
 66
1
 10
0.0000
 20
0.0000
 30
0.0000
 40
0.2032
 41
0.2032
 70
0
  0
VERTEX
  8
1
 10
249.5000
 20
10.6984
 30
0.0000
 42
1.0000
  0
VERTEX
  8
1
 10
249.5000
 20
10.9016
 30
0.0000
  0
SEQEND
  8
0
  0
POLYLINE
  8
1
 66
1
 10
0.0000
 20
0.0000
 30
0.0000
 40
0.2032
 41
0.2032
 70
0
  0
VERTEX
  8
1
 10
247.3000
 20
10.9016
 30
0.0000
 42
1.0000
  0
VERTEX
  8
1
 10
247.3000
 20
10.6984
 30
0.0000
  0
SEQEND
  8
0
  0
POLYLINE
  8
1
 66
1
 10
0.0000
 20
0.0000
 30
0.0000
 40
0.4064
 41
0.4064
 70
0
  0
VERTEX
  8
1
 10
249.5000
 20
10.8000
 30
0.0000
  0
VERTEX
  8
1
 10
251.2000
 20
12.5000
 30
0.0000
  0
SEQEND
  8
0
  0
POLYLINE
  8
1
 66
1
 10
0.0000
 20
0.0000
 30
0.0000
 40
0.2032
 41
0.2032
 70
0
  0
VERTEX
  8
1
 10
251.2718
 20
12.4282
 30
0.0000
 42
1.0000
  0
VERTEX
  8
1
 10
251.1282
 20
12.5718
 30
0.0000
  0
SEQEND
  8
0
  0
POLYLINE
  8
1
 66
1
 10
0.0000
 20
0.0000
 30
0.0000
 40
0.2032
 41
0.2032
 70
0
  0
VERTEX
  8
1
 10
249.4282
 20
10.8718
 30
0.0000
 42
1.0000
  0
VERTEX
  8
1
 10
249.5718
 20
10.7282
 30
0.0000
  0
SEQEND
  8
0
  0
POLYLINE
  8
1
 66
1
 10
0.0000
 20
0.0000
 30
0.0000
 40
0.4064
 41
0.4064
 70
0
  0
VERTEX
  8
1
 10
251.2000
 20
12.5000
 30
0.0000
  0
VERTEX
  8
1
 10
251.2000
 20
41.8000
 30
0.0000
  0
SEQEND
  8
0
  0
POLYLINE
  8
1
 66
1
 10
0.0000
 20
0.0000
 30
0.0000
 40
0.2032
 41
0.2032
 70
0
  0
VERTEX
  8
1
 10
251.3016
 20
41.8000
 30
0.0000
 42
1.0000
  0
VERTEX
  8
1
 10
251.0984
 20
41.8000
 30
0.0000
  0
SEQEND
  8
0
  0
POLYLINE
  8
1
 66
1
 10
0.0000
 20
0.0000
 30
0.0000
 40
0.2032
 41
0.2032
 70
0
  0
VERTEX
  8
1
 10
251.0984
 20
12.5000
 30
0.0000
 42
1.0000
  0
VERTEX
  8
1
 10
251.3016
 20
12.5000
 30
0.0000
  0
SEQEND
  8
0
  0
POLYLINE
  8
1
 66
1
 10
0.0000
 20
0.0000
 30
0.0000
 40
0.4064
 41
0.4064
 70
0
  0
VERTEX
  8
1
 10
251.2000
 20
41.8000
 30
0.0000
  0
VERTEX
  8
1
 10
244.0000
 20
49.0000
 30
0.0000
  0
SEQEND
  8
0
  0
POLYLINE
  8
1
 66
1
 10
0.0000
 20
0.0000
 30
0.0000
 40
0.2032
 41
0.2032
 70
0
  0
VERTEX
  8
1
 10
244.0718
 20
49.0718
 30
0.0000
 42
1.0000
  0
VERTEX
  8
1
 10
243.9282
 20
48.9282
 30
0.0000
  0
SEQEND
  8
0
  0
POLYLINE
  8
1
 66
1
 10
0.0000
 20
0.0000
 30
0.0000
 40
0.2032
 41
0.2032
 70
0
  0
VERTEX
  8
1
 10
251.1282
 20
41.7282
 30
0.0000
 42
1.0000
  0
VERTEX
  8
1
 10
251.2718
 20
41.8718
 30
0.0000
  0
SEQEND
  8
0
  0
POLYLINE
  8
1
 66
1
 10
0.0000
 20
0.0000
 30
0.0000
 40
0.4064
 41
0.4064
 70
0
  0
VERTEX
  8
1
 10
244.0000
 20
49.0000
 30
0.0000
  0
VERTEX
  8
1
 10
244.0000
 20
51.2000
 30
0.0000
  0
SEQEND
  8
0
  0
POLYLINE
  8
1
 66
1
 10
0.0000
 20
0.0000
 30
0.0000
 40
0.2032
 41
0.2032
 70
0
  0
VERTEX
  8
1
 10
244.1016
 20
51.2000
 30
0.0000
 42
1.0000
  0
VERTEX
  8
1
 10
243.8984
 20
51.2000
 30
0.0000
  0
SEQEND
  8
0
  0
POLYLINE
  8
1
 66
1
 10
0.0000
 20
0.0000
 30
0.0000
 40
0.2032
 41
0.2032
 70
0
  0
VERTEX
  8
1
 10
243.8984
 20
49.0000
 30
0.0000
 42
1.0000
  0
VERTEX
  8
1
 10
244.1016
 20
49.0000
 30
0.0000
  0
SEQEND
  8
0
  0
POLYLINE
  8
1
 66
1
 10
0.0000
 20
0.0000
 30
0.0000
 40
0.4064
 41
0.4064
 70
0
  0
VERTEX
  8
1
 10
244.0000
 20
51.2000
 30
0.0000
  0
VERTEX
  8
1
 10
245.6000
 20
52.8000
 30
0.0000
  0
SEQEND
  8
0
  0
POLYLINE
  8
1
 66
1
 10
0.0000
 20
0.0000
 30
0.0000
 40
0.2032
 41
0.2032
 70
0
  0
VERTEX
  8
1
 10
245.6718
 20
52.7282
 30
0.0000
 42
1.0000
  0
VERTEX
  8
1
 10
245.5282
 20
52.8718
 30
0.0000
  0
SEQEND
  8
0
  0
POLYLINE
  8
1
 66
1
 10
0.0000
 20
0.0000
 30
0.0000
 40
0.2032
 41
0.2032
 70
0
  0
VERTEX
  8
1
 10
243.9282
 20
51.2718
 30
0.0000
 42
1.0000
  0
VERTEX
  8
1
 10
244.0718
 20
51.1282
 30
0.0000
  0
SEQEND
  8
0
  0
POLYLINE
  8
1
 66
1
 10
0.0000
 20
0.0000
 30
0.0000
 40
0.4064
 41
0.4064
 70
0
  0
VERTEX
  8
1
 10
245.6000
 20
52.8000
 30
0.0000
  0
VERTEX
  8
1
 10
246.9000
 20
52.8000
 30
0.0000
  0
SEQEND
  8
0
  0
POLYLINE
  8
1
 66
1
 10
0.0000
 20
0.0000
 30
0.0000
 40
0.2032
 41
0.2032
 70
0
  0
VERTEX
  8
1
 10
246.9000
 20
52.6984
 30
0.0000
 42
1.0000
  0
VERTEX
  8
1
 10
246.9000
 20
52.9016
 30
0.0000
  0
SEQEND
  8
0
  0
POLYLINE
  8
1
 66
1
 10
0.0000
 20
0.0000
 30
0.0000
 40
0.2032
 41
0.2032
 70
0
  0
VERTEX
  8
1
 10
245.6000
 20
52.9016
 30
0.0000
 42
1.0000
  0
VERTEX
  8
1
 10
245.6000
 20
52.6984
 30
0.0000
  0
SEQEND
  8
0
  0
POLYLINE
  8
1
 66
1
 10
0.0000
 20
0.0000
 30
0.0000
 40
0.4064
 41
0.4064
 70
0
  0
VERTEX
  8
1
 10
246.9000
 20
52.8000
 30
0.0000
  0
VERTEX
  8
1
 10
256.0000
 20
43.7000
 30
0.0000
  0
SEQEND
  8
0
  0
POLYLINE
  8
1
 66
1
 10
0.0000
 20
0.0000
 30
0.0000
 40
0.2032
 41
0.2032
 70
0
  0
VERTEX
  8
1
 10
255.9282
 20
43.6282
 30
0.0000
 42
1.0000
  0
VERTEX
  8
1
 10
256.0718
 20
43.7718
 30
0.0000
  0
SEQEND
  8
0
  0
POLYLINE
  8
1
 66
1
 10
0.0000
 20
0.0000
 30
0.0000
 40
0.2032
 41
0.2032
 70
0
  0
VERTEX
  8
1
 10
246.9718
 20
52.8718
 30
0.0000
 42
1.0000
  0
VERTEX
  8
1
 10
246.8282
 20
52.7282
 30
0.0000
  0
SEQEND
  8
0
  0
POLYLINE
  8
1
 66
1
 10
0.0000
 20
0.0000
 30
0.0000
 40
0.4064
 41
0.4064
 70
0
  0
VERTEX
  8
1
 10
256.0000
 20
43.7000
 30
0.0000
  0
VERTEX
  8
1
 10
256.0000
 20
33.1000
 30
0.0000
  0
SEQEND
  8
0
  0
POLYLINE
  8
1
 66
1
 10
0.0000
 20
0.0000
 30
0.0000
 40
0.2032
 41
0.2032
 70
0
  0
VERTEX
  8
1
 10
255.8984
 20
33.1000
 30
0.0000
 42
1.0000
  0
VERTEX
  8
1
 10
256.1016
 20
33.1000
 30
0.0000
  0
SEQEND
  8
0
  0
POLYLINE
  8
1
 66
1
 10
0.0000
 20
0.0000
 30
0.0000
 40
0.2032
 41
0.2032
 70
0
  0
VERTEX
  8
1
 10
256.1016
 20
43.7000
 30
0.0000
 42
1.0000
  0
VERTEX
  8
1
 10
255.8984
 20
43.7000
 30
0.0000
  0
SEQEND
  8
0
  0
POLYLINE
  8
1
 66
1
 10
0.0000
 20
0.0000
 30
0.0000
 40
0.4064
 41
0.4064
 70
0
  0
VERTEX
  8
1
 10
256.0000
 20
33.1000
 30
0.0000
  0
VERTEX
  8
1
 10
257.4000
 20
31.7000
 30
0.0000
  0
SEQEND
  8
0
  0
POLYLINE
  8
1
 66
1
 10
0.0000
 20
0.0000
 30
0.0000
 40
0.2032
 41
0.2032
 70
0
  0
VERTEX
  8
1
 10
257.3282
 20
31.6282
 30
0.0000
 42
1.0000
  0
VERTEX
  8
1
 10
257.4718
 20
31.7718
 30
0.0000
  0
SEQEND
  8
0
  0
POLYLINE
  8
1
 66
1
 10
0.0000
 20
0.0000
 30
0.0000
 40
0.2032
 41
0.2032
 70
0
  0
VERTEX
  8
1
 10
256.0718
 20
33.1718
 30
0.0000
 42
1.0000
  0
VERTEX
  8
1
 10
255.9282
 20
33.0282
 30
0.0000
  0
SEQEND
  8
0
  0
POLYLINE
  8
1
 66
1
 10
0.0000
 20
0.0000
 30
0.0000
 40
0.4064
 41
0.4064
 70
0
  0
VERTEX
  8
1
 10
257.4000
 20
31.7000
 30
0.0000
  0
VERTEX
  8
1
 10
259.4000
 20
31.7000
 30
0.0000
  0
SEQEND
  8
0
  0
POLYLINE
  8
1
 66
1
 10
0.0000
 20
0.0000
 30
0.0000
 40
0.2032
 41
0.2032
 70
0
  0
VERTEX
  8
1
 10
259.4000
 20
31.5984
 30
0.0000
 42
1.0000
  0
VERTEX
  8
1
 10
259.4000
 20
31.8016
 30
0.0000
  0
SEQEND
  8
0
  0
POLYLINE
  8
1
 66
1
 10
0.0000
 20
0.0000
 30
0.0000
 40
0.2032
 41
0.2032
 70
0
  0
VERTEX
  8
1
 10
257.4000
 20
31.8016
 30
0.0000
 42
1.0000
  0
VERTEX
  8
1
 10
257.4000
 20
31.5984
 30
0.0000
  0
SEQEND
  8
0
  0
POLYLINE
  8
1
 66
1
 10
0.0000
 20
0.0000
 30
0.0000
 40
0.4064
 41
0.4064
 70
0
  0
VERTEX
  8
1
 10
259.4000
 20
31.7000
 30
0.0000
  0
VERTEX
  8
1
 10
262.4000
 20
34.7000
 30
0.0000
  0
SEQEND
  8
0
  0
POLYLINE
  8
1
 66
1
 10
0.0000
 20
0.0000
 30
0.0000
 40
0.2032
 41
0.2032
 70
0
  0
VERTEX
  8
1
 10
262.4718
 20
34.6282
 30
0.0000
 42
1.0000
  0
VERTEX
  8
1
 10
262.3282
 20
34.7718
 30
0.0000
  0
SEQEND
  8
0
  0
POLYLINE
  8
1
 66
1
 10
0.0000
 20
0.0000
 30
0.0000
 40
0.2032
 41
0.2032
 70
0
  0
VERTEX
  8
1
 10
259.3282
 20
31.7718
 30
0.0000
 42
1.0000
  0
VERTEX
  8
1
 10
259.4718
 20
31.6282
 30
0.0000
  0
SEQEND
  8
0
  0
POLYLINE
  8
1
 66
1
 10
0.0000
 20
0.0000
 30
0.0000
 40
0.4064
 41
0.4064
 70
0
  0
VERTEX
  8
1
 10
262.4000
 20
34.7000
 30
0.0000
  0
VERTEX
  8
1
 10
262.4000
 20
44.3000
 30
0.0000
  0
SEQEND
  8
0
  0
POLYLINE
  8
1
 66
1
 10
0.0000
 20
0.0000
 30
0.0000
 40
0.2032
 41
0.2032
 70
0
  0
VERTEX
  8
1
 10
262.5016
 20
44.3000
 30
0.0000
 42
1.0000
  0
VERTEX
  8
1
 10
262.2984
 20
44.3000
 30
0.0000
  0
SEQEND
  8
0
  0
POLYLINE
  8
1
 66
1
 10
0.0000
 20
0.0000
 30
0.0000
 40
0.2032
 41
0.2032
 70
0
  0
VERTEX
  8
1
 10
262.2984
 20
34.7000
 30
0.0000
 42
1.0000
  0
VERTEX
  8
1
 10
262.5016
 20
34.7000
 30
0.0000
  0
SEQEND
  8
0
  0
POLYLINE
  8
1
 66
1
 10
0.0000
 20
0.0000
 30
0.0000
 40
0.4064
 41
0.4064
 70
0
  0
VERTEX
  8
1
 10
262.4000
 20
44.3000
 30
0.0000
  0
VERTEX
  8
1
 10
262.4000
 20
44.4000
 30
0.0000
  0
SEQEND
  8
0
  0
POLYLINE
  8
1
 66
1
 10
0.0000
 20
0.0000
 30
0.0000
 40
0.2032
 41
0.2032
 70
0
  0
VERTEX
  8
1
 10
262.5016
 20
44.4000
 30
0.0000
 42
1.0000
  0
VERTEX
  8
1
 10
262.2984
 20
44.4000
 30
0.0000
  0
SEQEND
  8
0
  0
POLYLINE
  8
1
 66
1
 10
0.0000
 20
0.0000
 30
0.0000
 40
0.2032
 41
0.2032
 70
0
  0
VERTEX
  8
1
 10
262.2984
 20
44.3000
 30
0.0000
 42
1.0000
  0
VERTEX
  8
1
 10
262.5016
 20
44.3000
 30
0.0000
  0
SEQEND
  8
0
  0
POLYLINE
  8
1
 66
1
 10
0.0000
 20
0.0000
 30
0.0000
 40
0.4064
 41
0.4064
 70
0
  0
VERTEX
  8
1
 10
262.4000
 20
44.3000
 30
0.0000
  0
VERTEX
  8
1
 10
258.7000
 20
48.0000
 30
0.0000
  0
SEQEND
  8
0
  0
POLYLINE
  8
1
 66
1
 10
0.0000
 20
0.0000
 30
0.0000
 40
0.2032
 41
0.2032
 70
0
  0
VERTEX
  8
1
 10
258.7718
 20
48.0718
 30
0.0000
 42
1.0000
  0
VERTEX
  8
1
 10
258.6282
 20
47.9282
 30
0.0000
  0
SEQEND
  8
0
  0
POLYLINE
  8
1
 66
1
 10
0.0000
 20
0.0000
 30
0.0000
 40
0.2032
 41
0.2032
 70
0
  0
VERTEX
  8
1
 10
262.3282
 20
44.2282
 30
0.0000
 42
1.0000
  0
VERTEX
  8
1
 10
262.4718
 20
44.3718
 30
0.0000
  0
SEQEND
  8
0
  0
POLYLINE
  8
1
 66
1
 10
0.0000
 20
0.0000
 30
0.0000
 40
0.4064
 41
0.4064
 70
0
  0
VERTEX
  8
1
 10
258.7000
 20
48.0000
 30
0.0000
  0
VERTEX
  8
1
 10
258.7000
 20
50.1000
 30
0.0000
  0
SEQEND
  8
0
  0
POLYLINE
  8
1
 66
1
 10
0.0000
 20
0.0000
 30
0.0000
 40
0.2032
 41
0.2032
 70
0
  0
VERTEX
  8
1
 10
258.8016
 20
50.1000
 30
0.0000
 42
1.0000
  0
VERTEX
  8
1
 10
258.5984
 20
50.1000
 30
0.0000
  0
SEQEND
  8
0
  0
POLYLINE
  8
1
 66
1
 10
0.0000
 20
0.0000
 30
0.0000
 40
0.2032
 41
0.2032
 70
0
  0
VERTEX
  8
1
 10
258.5984
 20
48.0000
 30
0.0000
 42
1.0000
  0
VERTEX
  8
1
 10
258.8016
 20
48.0000
 30
0.0000
  0
SEQEND
  8
0
  0
POLYLINE
  8
1
 66
1
 10
0.0000
 20
0.0000
 30
0.0000
 40
0.4064
 41
0.4064
 70
0
  0
VERTEX
  8
1
 10
258.7000
 20
50.1000
 30
0.0000
  0
VERTEX
  8
1
 10
260.5000
 20
51.9000
 30
0.0000
  0
SEQEND
  8
0
  0
POLYLINE
  8
1
 66
1
 10
0.0000
 20
0.0000
 30
0.0000
 40
0.2032
 41
0.2032
 70
0
  0
VERTEX
  8
1
 10
260.5718
 20
51.8282
 30
0.0000
 42
1.0000
  0
VERTEX
  8
1
 10
260.4282
 20
51.9718
 30
0.0000
  0
SEQEND
  8
0
  0
POLYLINE
  8
1
 66
1
 10
0.0000
 20
0.0000
 30
0.0000
 40
0.2032
 41
0.2032
 70
0
  0
VERTEX
  8
1
 10
258.6282
 20
50.1718
 30
0.0000
 42
1.0000
  0
VERTEX
  8
1
 10
258.7718
 20
50.0282
 30
0.0000
  0
SEQEND
  8
0
  0
POLYLINE
  8
1
 66
1
 10
0.0000
 20
0.0000
 30
0.0000
 40
0.4064
 41
0.4064
 70
0
  0
VERTEX
  8
1
 10
260.5000
 20
51.9000
 30
0.0000
  0
VERTEX
  8
1
 10
263.5000
 20
51.9000
 30
0.0000
  0
SEQEND
  8
0
  0
POLYLINE
  8
1
 66
1
 10
0.0000
 20
0.0000
 30
0.0000
 40
0.2032
 41
0.2032
 70
0
  0
VERTEX
  8
1
 10
263.5000
 20
51.7984
 30
0.0000
 42
1.0000
  0
VERTEX
  8
1
 10
263.5000
 20
52.0016
 30
0.0000
  0
SEQEND
  8
0
  0
POLYLINE
  8
1
 66
1
 10
0.0000
 20
0.0000
 30
0.0000
 40
0.2032
 41
0.2032
 70
0
  0
VERTEX
  8
1
 10
260.5000
 20
52.0016
 30
0.0000
 42
1.0000
  0
VERTEX
  8
1
 10
260.5000
 20
51.7984
 30
0.0000
  0
SEQEND
  8
0
  0
POLYLINE
  8
1
 66
1
 10
0.0000
 20
0.0000
 30
0.0000
 40
0.4064
 41
0.4064
 70
0
  0
VERTEX
  8
1
 10
263.5000
 20
51.9000
 30
0.0000
  0
VERTEX
  8
1
 10
266.8000
 20
48.6000
 30
0.0000
  0
SEQEND
  8
0
  0
POLYLINE
  8
1
 66
1
 10
0.0000
 20
0.0000
 30
0.0000
 40
0.2032
 41
0.2032
 70
0
  0
VERTEX
  8
1
 10
266.7282
 20
48.5282
 30
0.0000
 42
1.0000
  0
VERTEX
  8
1
 10
266.8718
 20
48.6718
 30
0.0000
  0
SEQEND
  8
0
  0
POLYLINE
  8
1
 66
1
 10
0.0000
 20
0.0000
 30
0.0000
 40
0.2032
 41
0.2032
 70
0
  0
VERTEX
  8
1
 10
263.5718
 20
51.9718
 30
0.0000
 42
1.0000
  0
VERTEX
  8
1
 10
263.4282
 20
51.8282
 30
0.0000
  0
SEQEND
  8
0
  0
POLYLINE
  8
1
 66
1
 10
0.0000
 20
0.0000
 30
0.0000
 40
0.4064
 41
0.4064
 70
0
  0
VERTEX
  8
1
 10
266.8000
 20
48.6000
 30
0.0000
  0
VERTEX
  8
1
 10
266.8000
 20
41.9000
 30
0.0000
  0
SEQEND
  8
0
  0
POLYLINE
  8
1
 66
1
 10
0.0000
 20
0.0000
 30
0.0000
 40
0.2032
 41
0.2032
 70
0
  0
VERTEX
  8
1
 10
266.6984
 20
41.9000
 30
0.0000
 42
1.0000
  0
VERTEX
  8
1
 10
266.9016
 20
41.9000
 30
0.0000
  0
SEQEND
  8
0
  0
POLYLINE
  8
1
 66
1
 10
0.0000
 20
0.0000
 30
0.0000
 40
0.2032
 41
0.2032
 70
0
  0
VERTEX
  8
1
 10
266.9016
 20
48.6000
 30
0.0000
 42
1.0000
  0
VERTEX
  8
1
 10
266.6984
 20
48.6000
 30
0.0000
  0
SEQEND
  8
0
  0
POLYLINE
  8
1
 66
1
 10
0.0000
 20
0.0000
 30
0.0000
 40
0.4064
 41
0.4064
 70
0
  0
VERTEX
  8
1
 10
266.8000
 20
41.9000
 30
0.0000
  0
VERTEX
  8
1
 10
267.9000
 20
40.8000
 30
0.0000
  0
SEQEND
  8
0
  0
POLYLINE
  8
1
 66
1
 10
0.0000
 20
0.0000
 30
0.0000
 40
0.2032
 41
0.2032
 70
0
  0
VERTEX
  8
1
 10
267.8282
 20
40.7282
 30
0.0000
 42
1.0000
  0
VERTEX
  8
1
 10
267.9718
 20
40.8718
 30
0.0000
  0
SEQEND
  8
0
  0
POLYLINE
  8
1
 66
1
 10
0.0000
 20
0.0000
 30
0.0000
 40
0.2032
 41
0.2032
 70
0
  0
VERTEX
  8
1
 10
266.8718
 20
41.9718
 30
0.0000
 42
1.0000
  0
VERTEX
  8
1
 10
266.7282
 20
41.8282
 30
0.0000
  0
SEQEND
  8
0
  0
POLYLINE
  8
1
 66
1
 10
0.0000
 20
0.0000
 30
0.0000
 40
0.4064
 41
0.4064
 70
0
  0
VERTEX
  8
1
 10
267.9000
 20
40.8000
 30
0.0000
  0
VERTEX
  8
1
 10
270.9000
 20
40.8000
 30
0.0000
  0
SEQEND
  8
0
  0
POLYLINE
  8
1
 66
1
 10
0.0000
 20
0.0000
 30
0.0000
 40
0.2032
 41
0.2032
 70
0
  0
VERTEX
  8
1
 10
270.9000
 20
40.6984
 30
0.0000
 42
1.0000
  0
VERTEX
  8
1
 10
270.9000
 20
40.9016
 30
0.0000
  0
SEQEND
  8
0
  0
POLYLINE
  8
1
 66
1
 10
0.0000
 20
0.0000
 30
0.0000
 40
0.2032
 41
0.2032
 70
0
  0
VERTEX
  8
1
 10
267.9000
 20
40.9016
 30
0.0000
 42
1.0000
  0
VERTEX
  8
1
 10
267.9000
 20
40.6984
 30
0.0000
  0
SEQEND
  8
0
  0
POLYLINE
  8
1
 66
1
 10
0.0000
 20
0.0000
 30
0.0000
 40
0.4064
 41
0.4064
 70
0
  0
VERTEX
  8
1
 10
270.9000
 20
40.8000
 30
0.0000
  0
VERTEX
  8
1
 10
271.8000
 20
41.7000
 30
0.0000
  0
SEQEND
  8
0
  0
POLYLINE
  8
1
 66
1
 10
0.0000
 20
0.0000
 30
0.0000
 40
0.2032
 41
0.2032
 70
0
  0
VERTEX
  8
1
 10
271.8718
 20
41.6282
 30
0.0000
 42
1.0000
  0
VERTEX
  8
1
 10
271.7282
 20
41.7718
 30
0.0000
  0
SEQEND
  8
0
  0
POLYLINE
  8
1
 66
1
 10
0.0000
 20
0.0000
 30
0.0000
 40
0.2032
 41
0.2032
 70
0
  0
VERTEX
  8
1
 10
270.8282
 20
40.8718
 30
0.0000
 42
1.0000
  0
VERTEX
  8
1
 10
270.9718
 20
40.7282
 30
0.0000
  0
SEQEND
  8
0
  0
POLYLINE
  8
1
 66
1
 10
0.0000
 20
0.0000
 30
0.0000
 40
0.4064
 41
0.4064
 70
0
  0
VERTEX
  8
1
 10
271.8000
 20
41.7000
 30
0.0000
  0
VERTEX
  8
1
 10
271.8000
 20
46.4000
 30
0.0000
  0
SEQEND
  8
0
  0
POLYLINE
  8
1
 66
1
 10
0.0000
 20
0.0000
 30
0.0000
 40
0.2032
 41
0.2032
 70
0
  0
VERTEX
  8
1
 10
271.9016
 20
46.4000
 30
0.0000
 42
1.0000
  0
VERTEX
  8
1
 10
271.6984
 20
46.4000
 30
0.0000
  0
SEQEND
  8
0
  0
POLYLINE
  8
1
 66
1
 10
0.0000
 20
0.0000
 30
0.0000
 40
0.2032
 41
0.2032
 70
0
  0
VERTEX
  8
1
 10
271.6984
 20
41.7000
 30
0.0000
 42
1.0000
  0
VERTEX
  8
1
 10
271.9016
 20
41.7000
 30
0.0000
  0
SEQEND
  8
0
  0
POLYLINE
  8
1
 66
1
 10
0.0000
 20
0.0000
 30
0.0000
 40
0.4064
 41
0.4064
 70
0
  0
VERTEX
  8
1
 10
272.4000
 20
47.0000
 30
0.0000
  0
VERTEX
  8
1
 10
273.5000
 20
47.0000
 30
0.0000
  0
SEQEND
  8
0
  0
POLYLINE
  8
1
 66
1
 10
0.0000
 20
0.0000
 30
0.0000
 40
0.2032
 41
0.2032
 70
0
  0
VERTEX
  8
1
 10
273.5000
 20
46.8984
 30
0.0000
 42
1.0000
  0
VERTEX
  8
1
 10
273.5000
 20
47.1016
 30
0.0000
  0
SEQEND
  8
0
  0
POLYLINE
  8
1
 66
1
 10
0.0000
 20
0.0000
 30
0.0000
 40
0.2032
 41
0.2032
 70
0
  0
VERTEX
  8
1
 10
272.4000
 20
47.1016
 30
0.0000
 42
1.0000
  0
VERTEX
  8
1
 10
272.4000
 20
46.8984
 30
0.0000
  0
SEQEND
  8
0
  0
POLYLINE
  8
1
 66
1
 10
0.0000
 20
0.0000
 30
0.0000
 40
0.4064
 41
0.4064
 70
0
  0
VERTEX
  8
1
 10
273.5000
 20
47.0000
 30
0.0000
  0
VERTEX
  8
1
 10
277.6500
 20
42.8500
 30
0.0000
  0
SEQEND
  8
0
  0
POLYLINE
  8
1
 66
1
 10
0.0000
 20
0.0000
 30
0.0000
 40
0.2032
 41
0.2032
 70
0
  0
VERTEX
  8
1
 10
277.5782
 20
42.7782
 30
0.0000
 42
1.0000
  0
VERTEX
  8
1
 10
277.7218
 20
42.9218
 30
0.0000
  0
SEQEND
  8
0
  0
POLYLINE
  8
1
 66
1
 10
0.0000
 20
0.0000
 30
0.0000
 40
0.2032
 41
0.2032
 70
0
  0
VERTEX
  8
1
 10
273.5718
 20
47.0718
 30
0.0000
 42
1.0000
  0
VERTEX
  8
1
 10
273.4282
 20
46.9282
 30
0.0000
  0
SEQEND
  8
0
  0
POLYLINE
  8
1
 66
1
 10
0.0000
 20
0.0000
 30
0.0000
 40
0.4064
 41
0.4064
 70
0
  0
VERTEX
  8
1
 10
277.6500
 20
42.8500
 30
0.0000
  0
VERTEX
  8
1
 10
277.6500
 20
32.9700
 30
0.0000
  0
SEQEND
  8
0
  0
POLYLINE
  8
1
 66
1
 10
0.0000
 20
0.0000
 30
0.0000
 40
0.2032
 41
0.2032
 70
0
  0
VERTEX
  8
1
 10
277.5484
 20
32.9700
 30
0.0000
 42
1.0000
  0
VERTEX
  8
1
 10
277.7516
 20
32.9700
 30
0.0000
  0
SEQEND
  8
0
  0
POLYLINE
  8
1
 66
1
 10
0.0000
 20
0.0000
 30
0.0000
 40
0.2032
 41
0.2032
 70
0
  0
VERTEX
  8
1
 10
277.7516
 20
42.8500
 30
0.0000
 42
1.0000
  0
VERTEX
  8
1
 10
277.5484
 20
42.8500
 30
0.0000
  0
SEQEND
  8
0
  0
POLYLINE
  8
1
 66
1
 10
0.0000
 20
0.0000
 30
0.0000
 40
0.4064
 41
0.4064
 70
0
  0
VERTEX
  8
1
 10
271.8000
 20
46.4000
 30
0.0000
  0
VERTEX
  8
1
 10
272.4000
 20
47.0000
 30
0.0000
  0
SEQEND
  8
0
  0
POLYLINE
  8
1
 66
1
 10
0.0000
 20
0.0000
 30
0.0000
 40
0.2032
 41
0.2032
 70
0
  0
VERTEX
  8
1
 10
272.4718
 20
46.9282
 30
0.0000
 42
1.0000
  0
VERTEX
  8
1
 10
272.3282
 20
47.0718
 30
0.0000
  0
SEQEND
  8
0
  0
POLYLINE
  8
1
 66
1
 10
0.0000
 20
0.0000
 30
0.0000
 40
0.2032
 41
0.2032
 70
0
  0
VERTEX
  8
1
 10
271.7282
 20
46.4718
 30
0.0000
 42
1.0000
  0
VERTEX
  8
1
 10
271.8718
 20
46.3282
 30
0.0000
  0
SEQEND
  8
0
  0
POLYLINE
  8
1
 66
1
 10
0.0000
 20
0.0000
 30
0.0000
 40
0.4064
 41
0.4064
 70
0
  0
VERTEX
  8
1
 10
0.0000
 20
0.0000
 30
0.0000
  0
VERTEX
  8
1
 10
254.0000
 20
0.0000
 30
0.0000
  0
SEQEND
  8
0
  0
POLYLINE
  8
1
 66
1
 10
0.0000
 20
0.0000
 30
0.0000
 40
0.2032
 41
0.2032
 70
0
  0
VERTEX
  8
1
 10
254.0000
 20
-0.1016
 30
0.0000
 42
1.0000
  0
VERTEX
  8
1
 10
254.0000
 20
0.1016
 30
0.0000
  0
SEQEND
  8
0
  0
POLYLINE
  8
1
 66
1
 10
0.0000
 20
0.0000
 30
0.0000
 40
0.2032
 41
0.2032
 70
0
  0
VERTEX
  8
1
 10
0.0000
 20
0.1016
 30
0.0000
 42
1.0000
  0
VERTEX
  8
1
 10
0.0000
 20
-0.1016
 30
0.0000
  0
SEQEND
  8
0
  0
POLYLINE
  8
1
 66
1
 10
0.0000
 20
0.0000
 30
0.0000
 40
0.4064
 41
0.4064
 70
0
  0
VERTEX
  8
1
 10
254.0000
 20
0.0000
 30
0.0000
  0
VERTEX
  8
1
 10
254.0000
 20
28.0000
 30
0.0000
  0
SEQEND
  8
0
  0
POLYLINE
  8
1
 66
1
 10
0.0000
 20
0.0000
 30
0.0000
 40
0.2032
 41
0.2032
 70
0
  0
VERTEX
  8
1
 10
254.1016
 20
28.0000
 30
0.0000
 42
1.0000
  0
VERTEX
  8
1
 10
253.8984
 20
28.0000
 30
0.0000
  0
SEQEND
  8
0
  0
POLYLINE
  8
1
 66
1
 10
0.0000
 20
0.0000
 30
0.0000
 40
0.2032
 41
0.2032
 70
0
  0
VERTEX
  8
1
 10
253.8984
 20
0.0000
 30
0.0000
 42
1.0000
  0
VERTEX
  8
1
 10
254.1016
 20
0.0000
 30
0.0000
  0
SEQEND
  8
0
  0
POLYLINE
  8
1
 66
1
 10
0.0000
 20
0.0000
 30
0.0000
 40
0.4064
 41
0.4064
 70
0
  0
VERTEX
  8
1
 10
254.0000
 20
28.0000
 30
0.0000
  0
VERTEX
  8
1
 10
297.0000
 20
28.0000
 30
0.0000
  0
SEQEND
  8
0
  0
POLYLINE
  8
1
 66
1
 10
0.0000
 20
0.0000
 30
0.0000
 40
0.2032
 41
0.2032
 70
0
  0
VERTEX
  8
1
 10
297.0000
 20
27.8984
 30
0.0000
 42
1.0000
  0
VERTEX
  8
1
 10
297.0000
 20
28.1016
 30
0.0000
  0
SEQEND
  8
0
  0
POLYLINE
  8
1
 66
1
 10
0.0000
 20
0.0000
 30
0.0000
 40
0.2032
 41
0.2032
 70
0
  0
VERTEX
  8
1
 10
254.0000
 20
28.1016
 30
0.0000
 42
1.0000
  0
VERTEX
  8
1
 10
254.0000
 20
27.8984
 30
0.0000
  0
SEQEND
  8
0
  0
POLYLINE
  8
1
 66
1
 10
0.0000
 20
0.0000
 30
0.0000
 40
0.4064
 41
0.4064
 70
0
  0
VERTEX
  8
1
 10
297.0000
 20
28.0000
 30
0.0000
  0
VERTEX
  8
1
 10
297.0000
 20
200.0000
 30
0.0000
  0
SEQEND
  8
0
  0
POLYLINE
  8
1
 66
1
 10
0.0000
 20
0.0000
 30
0.0000
 40
0.2032
 41
0.2032
 70
0
  0
VERTEX
  8
1
 10
297.1016
 20
200.0000
 30
0.0000
 42
1.0000
  0
VERTEX
  8
1
 10
296.8984
 20
200.0000
 30
0.0000
  0
SEQEND
  8
0
  0
POLYLINE
  8
1
 66
1
 10
0.0000
 20
0.0000
 30
0.0000
 40
0.2032
 41
0.2032
 70
0
  0
VERTEX
  8
1
 10
296.8984
 20
28.0000
 30
0.0000
 42
1.0000
  0
VERTEX
  8
1
 10
297.1016
 20
28.0000
 30
0.0000
  0
SEQEND
  8
0
  0
POLYLINE
  8
1
 66
1
 10
0.0000
 20
0.0000
 30
0.0000
 40
0.4064
 41
0.4064
 70
0
  0
VERTEX
  8
1
 10
297.0000
 20
200.0000
 30
0.0000
  0
VERTEX
  8
1
 10
0.0000
 20
200.0000
 30
0.0000
  0
SEQEND
  8
0
  0
POLYLINE
  8
1
 66
1
 10
0.0000
 20
0.0000
 30
0.0000
 40
0.2032
 41
0.2032
 70
0
  0
VERTEX
  8
1
 10
0.0000
 20
200.1016
 30
0.0000
 42
1.0000
  0
VERTEX
  8
1
 10
0.0000
 20
199.8984
 30
0.0000
  0
SEQEND
  8
0
  0
POLYLINE
  8
1
 66
1
 10
0.0000
 20
0.0000
 30
0.0000
 40
0.2032
 41
0.2032
 70
0
  0
VERTEX
  8
1
 10
297.0000
 20
199.8984
 30
0.0000
 42
1.0000
  0
VERTEX
  8
1
 10
297.0000
 20
200.1016
 30
0.0000
  0
SEQEND
  8
0
  0
POLYLINE
  8
1
 66
1
 10
0.0000
 20
0.0000
 30
0.0000
 40
0.4064
 41
0.4064
 70
0
  0
VERTEX
  8
1
 10
0.0000
 20
200.0000
 30
0.0000
  0
VERTEX
  8
1
 10
0.0000
 20
0.0000
 30
0.0000
  0
SEQEND
  8
0
  0
POLYLINE
  8
1
 66
1
 10
0.0000
 20
0.0000
 30
0.0000
 40
0.2032
 41
0.2032
 70
0
  0
VERTEX
  8
1
 10
-0.1016
 20
0.0000
 30
0.0000
 42
1.0000
  0
VERTEX
  8
1
 10
0.1016
 20
0.0000
 30
0.0000
  0
SEQEND
  8
0
  0
POLYLINE
  8
1
 66
1
 10
0.0000
 20
0.0000
 30
0.0000
 40
0.2032
 41
0.2032
 70
0
  0
VERTEX
  8
1
 10
0.1016
 20
200.0000
 30
0.0000
 42
1.0000
  0
VERTEX
  8
1
 10
-0.1016
 20
200.0000
 30
0.0000
  0
SEQEND
  8
0
  0
ENDSEC
  0
EOF
