  0
SECTION
  2
HEADER
  9
$ACADVER
  1
AC1009
  9
$FILLMODE
 70
1
  9
$EXTMIN
 10
-34.3333
 20
-0.2032
 30
0.0000
  9
$EXTMAX
 10
298.4300
 20
200.2032
 30
0.0000
  0
ENDSEC
  0
SECTION
  2
TABLES
  0
TABLE
  2
LTYPE
 70
1
  0
LTYPE
  2
CONTINUOUS
 70
64
  3
Solid line
 72
65
 73
0
 40
0
  0
ENDTAB
  0
TABLE
  2
LAYER
 70
255
  0
LAYER
  2
1
 70
64
 62
22
  6
CONTINUOUS
  0
LAYER
  2
16
 70
64
 62
175
  6
CONTINUOUS
  0
LAYER
  2
17
 70
64
 62
82
  6
CONTINUOUS
  0
LAYER
  2
18
 70
64
 62
82
  6
CONTINUOUS
  0
LAYER
  2
19
 70
64
 62
53
  6
CONTINUOUS
  0
LAYER
  2
20
 70
64
 62
7
  6
CONTINUOUS
  0
LAYER
  2
21
 70
64
 62
253
  6
CONTINUOUS
  0
LAYER
  2
22
 70
64
 62
253
  6
CONTINUOUS
  0
LAYER
  2
23
 70
64
 62
7
  6
CONTINUOUS
  0
LAYER
  2
24
 70
64
 62
7
  6
CONTINUOUS
  0
LAYER
  2
25
 70
64
 62
253
  6
CONTINUOUS
  0
LAYER
  2
26
 70
64
 62
253
  6
CONTINUOUS
  0
LAYER
  2
27
 70
64
 62
253
  6
CONTINUOUS
  0
LAYER
  2
28
 70
64
 62
253
  6
CONTINUOUS
  0
LAYER
  2
39
 70
64
 62
22
  6
CONTINUOUS
  0
LAYER
  2
40
 70
64
 62
175
  6
CONTINUOUS
  0
LAYER
  2
41
 70
64
 62
22
  6
CONTINUOUS
  0
LAYER
  2
42
 70
64
 62
175
  6
CONTINUOUS
  0
LAYER
  2
43
 70
64
 62
82
  6
CONTINUOUS
  0
LAYER
  2
45
 70
64
 62
253
  6
CONTINUOUS
  0
LAYER
  2
48
 70
64
 62
253
  6
CONTINUOUS
  0
LAYER
  2
49
 70
64
 62
253
  6
CONTINUOUS
  0
LAYER
  2
51
 70
64
 62
253
  6
CONTINUOUS
  0
LAYER
  2
52
 70
64
 62
253
  6
CONTINUOUS
  0
ENDTAB
  0
ENDSEC
  0
SECTION
  2
BLOCKS
  0
BLOCK
  8
0
  2
RECT
 70
64
 10
0.0000
 20
0.0000
 30
0.0000
  3
RECT
  0
SOLID
  8
0
 10
-0.5000
 20
-0.5000
 30
0.0000
 11
0.5000
 21
-0.5000
 31
0.0000
 12
-0.5000
 22
0.5000
 32
0.0000
 13
0.5000
 23
0.5000
 33
0.0000
  0
ENDBLK
  8
0
  0
BLOCK
  8
0
  2
PIE
 70
64
 10
0.0000
 20
0.0000
 30
0.0000
  3
PIE
  0
POLYLINE
  8
0
 66
1
 10
0.0000
 20
0.0000
 30
0.0000
 40
0.5000
 41
0.5000
 70
0
  0
VERTEX
  8
0
 10
0.0000
 20
-0.2500
 30
0.0000
 42
1.0000
  0
VERTEX
  8
0
 10
0.0000
 20
0.2500
 30
0.0000
 42
1.0000
  0
VERTEX
  8
0
 10
0.0000
 20
-0.2500
 30
0.0000
  0
SEQEND
  8
0
  0
ENDBLK
  8
0
  0
BLOCK
  8
0
  2
OCTAGONP
 70
64
 10
0.0000
 20
0.0000
 30
0.0000
  3
OCTAGONP
  0
POLYLINE
  8
0
 66
1
 10
0.0000
 20
0.0000
 30
0.0000
 40
0.5000
 41
0.5000
 70
0
  0
VERTEX
  8
0
 10
-0.2500
 20
-0.1036
 30
0.0000
  0
VERTEX
  8
0
 10
-0.2500
 20
0.1036
 30
0.0000
  0
VERTEX
  8
0
 10
-0.1036
 20
0.2500
 30
0.0000
  0
VERTEX
  8
0
 10
0.1036
 20
0.2500
 30
0.0000
  0
VERTEX
  8
0
 10
0.2500
 20
0.1036
 30
0.0000
  0
VERTEX
  8
0
 10
0.2500
 20
-0.1036
 30
0.0000
  0
VERTEX
  8
0
 10
0.1036
 20
-0.2500
 30
0.0000
  0
VERTEX
  8
0
 10
-0.1036
 20
-0.2500
 30
0.0000
  0
VERTEX
  8
0
 10
-0.2500
 20
-0.1036
 30
0.0000
  0
VERTEX
  8
0
 10
-0.2500
 20
0.1036
 30
0.0000
  0
SEQEND
  8
0
  0
ENDBLK
  8
0
  0
BLOCK
  8
0
  2
SQUAREP
 70
64
 10
0.0000
 20
0.0000
 30
0.0000
  3
SQUAREP
  0
SOLID
  8
0
 10
-0.5000
 20
-0.5000
 30
0.0000
 11
0.5000
 21
-0.5000
 31
0.0000
 12
-0.5000
 22
0.5000
 32
0.0000
 13
0.5000
 23
0.5000
 33
0.0000
  0
ENDBLK
  8
0
  0
BLOCK
  8
0
  2
ROUNDP
 70
64
 10
0.0000
 20
0.0000
 30
0.0000
  3
ROUNDP
  0
POLYLINE
  8
0
 66
1
 10
0.0000
 20
0.0000
 30
0.0000
 40
0.5000
 41
0.5000
 70
0
  0
VERTEX
  8
0
 10
0.0000
 20
-0.2500
 30
0.0000
 42
1.0000
  0
VERTEX
  8
0
 10
0.0000
 20
0.2500
 30
0.0000
 42
1.0000
  0
VERTEX
  8
0
 10
0.0000
 20
-0.2500
 30
0.0000
  0
SEQEND
  8
0
  0
ENDBLK
  8
0
  0
BLOCK
  8
0
  2
ANNULUSP
 70
64
 10
0.0000
 20
0.0000
 30
0.0000
  3
ANNULUSP
  0
POLYLINE
  8
0
 66
1
 10
0.0000
 20
0.0000
 30
0.0000
 40
0.5000
 41
0.5000
 70
0
  0
VERTEX
  8
0
 10
0.0000
 20
-0.2500
 30
0.0000
 42
1.0000
  0
VERTEX
  8
0
 10
0.0000
 20
0.2500
 30
0.0000
 42
1.0000
  0
VERTEX
  8
0
 10
0.0000
 20
-0.2500
 30
0.0000
  0
SEQEND
  8
0
  0
ENDBLK
  8
0
  0
BLOCK
  8
0
  2
THERMALP
 70
64
 10
0.0000
 20
0.0000
 30
0.0000
  3
THERMALP
  0
POLYLINE
  8
0
 66
1
 10
0.0000
 20
0.0000
 30
0.0000
 40
0.1000
 41
0.1000
 70
0
  0
VERTEX
  8
0
 10
-0.2379
 20
0.4500
 30
0.0000
  0
VERTEX
  8
0
 10
0.2379
 20
0.4500
 30
0.0000
  0
SEQEND
  8
0
  0
POLYLINE
  8
0
 66
1
 10
0.0000
 20
0.0000
 30
0.0000
 40
0.0500
 41
0.0500
 70
0
  0
VERTEX
  8
0
 10
0.2379
 20
0.4250
 30
0.0000
 42
1.0000
  0
VERTEX
  8
0
 10
0.2379
 20
0.4750
 30
0.0000
  0
SEQEND
  8
0
  0
POLYLINE
  8
0
 66
1
 10
0.0000
 20
0.0000
 30
0.0000
 40
0.0500
 41
0.0500
 70
0
  0
VERTEX
  8
0
 10
-0.2379
 20
0.4750
 30
0.0000
 42
1.0000
  0
VERTEX
  8
0
 10
-0.2379
 20
0.4250
 30
0.0000
  0
SEQEND
  8
0
  0
POLYLINE
  8
0
 66
1
 10
0.0000
 20
0.0000
 30
0.0000
 40
0.1000
 41
0.1000
 70
0
  0
VERTEX
  8
0
 10
0.4500
 20
0.2379
 30
0.0000
  0
VERTEX
  8
0
 10
0.4500
 20
-0.2379
 30
0.0000
  0
SEQEND
  8
0
  0
POLYLINE
  8
0
 66
1
 10
0.0000
 20
0.0000
 30
0.0000
 40
0.0500
 41
0.0500
 70
0
  0
VERTEX
  8
0
 10
0.4250
 20
-0.2379
 30
0.0000
 42
1.0000
  0
VERTEX
  8
0
 10
0.4750
 20
-0.2379
 30
0.0000
  0
SEQEND
  8
0
  0
POLYLINE
  8
0
 66
1
 10
0.0000
 20
0.0000
 30
0.0000
 40
0.0500
 41
0.0500
 70
0
  0
VERTEX
  8
0
 10
0.4750
 20
0.2379
 30
0.0000
 42
1.0000
  0
VERTEX
  8
0
 10
0.4250
 20
0.2379
 30
0.0000
  0
SEQEND
  8
0
  0
POLYLINE
  8
0
 66
1
 10
0.0000
 20
0.0000
 30
0.0000
 40
0.1000
 41
0.1000
 70
0
  0
VERTEX
  8
0
 10
0.2379
 20
-0.4500
 30
0.0000
  0
VERTEX
  8
0
 10
-0.2379
 20
-0.4500
 30
0.0000
  0
SEQEND
  8
0
  0
POLYLINE
  8
0
 66
1
 10
0.0000
 20
0.0000
 30
0.0000
 40
0.0500
 41
0.0500
 70
0
  0
VERTEX
  8
0
 10
-0.2379
 20
-0.4250
 30
0.0000
 42
1.0000
  0
VERTEX
  8
0
 10
-0.2379
 20
-0.4750
 30
0.0000
  0
SEQEND
  8
0
  0
POLYLINE
  8
0
 66
1
 10
0.0000
 20
0.0000
 30
0.0000
 40
0.0500
 41
0.0500
 70
0
  0
VERTEX
  8
0
 10
0.2379
 20
-0.4750
 30
0.0000
 42
1.0000
  0
VERTEX
  8
0
 10
0.2379
 20
-0.4250
 30
0.0000
  0
SEQEND
  8
0
  0
POLYLINE
  8
0
 66
1
 10
0.0000
 20
0.0000
 30
0.0000
 40
0.1000
 41
0.1000
 70
0
  0
VERTEX
  8
0
 10
-0.4500
 20
-0.2379
 30
0.0000
  0
VERTEX
  8
0
 10
-0.4500
 20
0.2379
 30
0.0000
  0
SEQEND
  8
0
  0
POLYLINE
  8
0
 66
1
 10
0.0000
 20
0.0000
 30
0.0000
 40
0.0500
 41
0.0500
 70
0
  0
VERTEX
  8
0
 10
-0.4250
 20
0.2379
 30
0.0000
 42
1.0000
  0
VERTEX
  8
0
 10
-0.4750
 20
0.2379
 30
0.0000
  0
SEQEND
  8
0
  0
POLYLINE
  8
0
 66
1
 10
0.0000
 20
0.0000
 30
0.0000
 40
0.0500
 41
0.0500
 70
0
  0
VERTEX
  8
0
 10
-0.4750
 20
-0.2379
 30
0.0000
 42
1.0000
  0
VERTEX
  8
0
 10
-0.4250
 20
-0.2379
 30
0.0000
  0
SEQEND
  8
0
  0
ENDBLK
  8
0
  0
BLOCK
  8
0
  2
OCTAGONV
 70
64
 10
0.0000
 20
0.0000
 30
0.0000
  3
OCTAGONV
  0
POLYLINE
  8
0
 66
1
 10
0.0000
 20
0.0000
 30
0.0000
 40
0.5000
 41
0.5000
 70
0
  0
VERTEX
  8
0
 10
-0.2500
 20
-0.1036
 30
0.0000
  0
VERTEX
  8
0
 10
-0.2500
 20
0.1036
 30
0.0000
  0
VERTEX
  8
0
 10
-0.1036
 20
0.2500
 30
0.0000
  0
VERTEX
  8
0
 10
0.1036
 20
0.2500
 30
0.0000
  0
VERTEX
  8
0
 10
0.2500
 20
0.1036
 30
0.0000
  0
VERTEX
  8
0
 10
0.2500
 20
-0.1036
 30
0.0000
  0
VERTEX
  8
0
 10
0.1036
 20
-0.2500
 30
0.0000
  0
VERTEX
  8
0
 10
-0.1036
 20
-0.2500
 30
0.0000
  0
VERTEX
  8
0
 10
-0.2500
 20
-0.1036
 30
0.0000
  0
VERTEX
  8
0
 10
-0.2500
 20
0.1036
 30
0.0000
  0
SEQEND
  8
0
  0
ENDBLK
  8
0
  0
BLOCK
  8
0
  2
SQUAREV
 70
64
 10
0.0000
 20
0.0000
 30
0.0000
  3
SQUAREV
  0
SOLID
  8
0
 10
-0.5000
 20
-0.5000
 30
0.0000
 11
0.5000
 21
-0.5000
 31
0.0000
 12
-0.5000
 22
0.5000
 32
0.0000
 13
0.5000
 23
0.5000
 33
0.0000
  0
ENDBLK
  8
0
  0
BLOCK
  8
0
  2
ROUNDV
 70
64
 10
0.0000
 20
0.0000
 30
0.0000
  3
ROUNDV
  0
POLYLINE
  8
0
 66
1
 10
0.0000
 20
0.0000
 30
0.0000
 40
0.5000
 41
0.5000
 70
0
  0
VERTEX
  8
0
 10
0.0000
 20
-0.2500
 30
0.0000
 42
1.0000
  0
VERTEX
  8
0
 10
0.0000
 20
0.2500
 30
0.0000
 42
1.0000
  0
VERTEX
  8
0
 10
0.0000
 20
-0.2500
 30
0.0000
  0
SEQEND
  8
0
  0
ENDBLK
  8
0
  0
BLOCK
  8
0
  2
ANNULUSV
 70
64
 10
0.0000
 20
0.0000
 30
0.0000
  3
ANNULUSV
  0
POLYLINE
  8
0
 66
1
 10
0.0000
 20
0.0000
 30
0.0000
 40
0.5000
 41
0.5000
 70
0
  0
VERTEX
  8
0
 10
0.0000
 20
-0.2500
 30
0.0000
 42
1.0000
  0
VERTEX
  8
0
 10
0.0000
 20
0.2500
 30
0.0000
 42
1.0000
  0
VERTEX
  8
0
 10
0.0000
 20
-0.2500
 30
0.0000
  0
SEQEND
  8
0
  0
ENDBLK
  8
0
  0
BLOCK
  8
0
  2
THERMALV
 70
64
 10
0.0000
 20
0.0000
 30
0.0000
  3
THERMALV
  0
POLYLINE
  8
0
 66
1
 10
0.0000
 20
0.0000
 30
0.0000
 40
0.1000
 41
0.1000
 70
0
  0
VERTEX
  8
0
 10
-0.2379
 20
0.4500
 30
0.0000
  0
VERTEX
  8
0
 10
0.2379
 20
0.4500
 30
0.0000
  0
SEQEND
  8
0
  0
POLYLINE
  8
0
 66
1
 10
0.0000
 20
0.0000
 30
0.0000
 40
0.0500
 41
0.0500
 70
0
  0
VERTEX
  8
0
 10
0.2379
 20
0.4250
 30
0.0000
 42
1.0000
  0
VERTEX
  8
0
 10
0.2379
 20
0.4750
 30
0.0000
  0
SEQEND
  8
0
  0
POLYLINE
  8
0
 66
1
 10
0.0000
 20
0.0000
 30
0.0000
 40
0.0500
 41
0.0500
 70
0
  0
VERTEX
  8
0
 10
-0.2379
 20
0.4750
 30
0.0000
 42
1.0000
  0
VERTEX
  8
0
 10
-0.2379
 20
0.4250
 30
0.0000
  0
SEQEND
  8
0
  0
POLYLINE
  8
0
 66
1
 10
0.0000
 20
0.0000
 30
0.0000
 40
0.1000
 41
0.1000
 70
0
  0
VERTEX
  8
0
 10
0.4500
 20
0.2379
 30
0.0000
  0
VERTEX
  8
0
 10
0.4500
 20
-0.2379
 30
0.0000
  0
SEQEND
  8
0
  0
POLYLINE
  8
0
 66
1
 10
0.0000
 20
0.0000
 30
0.0000
 40
0.0500
 41
0.0500
 70
0
  0
VERTEX
  8
0
 10
0.4250
 20
-0.2379
 30
0.0000
 42
1.0000
  0
VERTEX
  8
0
 10
0.4750
 20
-0.2379
 30
0.0000
  0
SEQEND
  8
0
  0
POLYLINE
  8
0
 66
1
 10
0.0000
 20
0.0000
 30
0.0000
 40
0.0500
 41
0.0500
 70
0
  0
VERTEX
  8
0
 10
0.4750
 20
0.2379
 30
0.0000
 42
1.0000
  0
VERTEX
  8
0
 10
0.4250
 20
0.2379
 30
0.0000
  0
SEQEND
  8
0
  0
POLYLINE
  8
0
 66
1
 10
0.0000
 20
0.0000
 30
0.0000
 40
0.1000
 41
0.1000
 70
0
  0
VERTEX
  8
0
 10
0.2379
 20
-0.4500
 30
0.0000
  0
VERTEX
  8
0
 10
-0.2379
 20
-0.4500
 30
0.0000
  0
SEQEND
  8
0
  0
POLYLINE
  8
0
 66
1
 10
0.0000
 20
0.0000
 30
0.0000
 40
0.0500
 41
0.0500
 70
0
  0
VERTEX
  8
0
 10
-0.2379
 20
-0.4250
 30
0.0000
 42
1.0000
  0
VERTEX
  8
0
 10
-0.2379
 20
-0.4750
 30
0.0000
  0
SEQEND
  8
0
  0
POLYLINE
  8
0
 66
1
 10
0.0000
 20
0.0000
 30
0.0000
 40
0.0500
 41
0.0500
 70
0
  0
VERTEX
  8
0
 10
0.2379
 20
-0.4750
 30
0.0000
 42
1.0000
  0
VERTEX
  8
0
 10
0.2379
 20
-0.4250
 30
0.0000
  0
SEQEND
  8
0
  0
POLYLINE
  8
0
 66
1
 10
0.0000
 20
0.0000
 30
0.0000
 40
0.1000
 41
0.1000
 70
0
  0
VERTEX
  8
0
 10
-0.4500
 20
-0.2379
 30
0.0000
  0
VERTEX
  8
0
 10
-0.4500
 20
0.2379
 30
0.0000
  0
SEQEND
  8
0
  0
POLYLINE
  8
0
 66
1
 10
0.0000
 20
0.0000
 30
0.0000
 40
0.0500
 41
0.0500
 70
0
  0
VERTEX
  8
0
 10
-0.4250
 20
0.2379
 30
0.0000
 42
1.0000
  0
VERTEX
  8
0
 10
-0.4750
 20
0.2379
 30
0.0000
  0
SEQEND
  8
0
  0
POLYLINE
  8
0
 66
1
 10
0.0000
 20
0.0000
 30
0.0000
 40
0.0500
 41
0.0500
 70
0
  0
VERTEX
  8
0
 10
-0.4750
 20
-0.2379
 30
0.0000
 42
1.0000
  0
VERTEX
  8
0
 10
-0.4250
 20
-0.2379
 30
0.0000
  0
SEQEND
  8
0
  0
ENDBLK
  8
0
  0
BLOCK
  8
0
  2
RECT5120000X5120000R100
 70
64
 10
0.0000
 20
0.0000
 30
0.0000
  3
RECT5120000X5120000R100
  0
POLYLINE
  8
0
 66
1
 10
0.0000
 20
0.0000
 30
0.0000
 40
16.0000
 41
16.0000
 70
1
  0
VERTEX
  8
0
 10
8.0000
 20
0.0000
 30
0.0000
  0
VERTEX
  8
0
 10
8.0000
 20
0.0000
 30
0.0000
 42
0.4142
  0
VERTEX
  8
0
 10
0.0000
 20
8.0000
 30
0.0000
  0
VERTEX
  8
0
 10
0.0000
 20
8.0000
 30
0.0000
 42
0.4142
  0
VERTEX
  8
0
 10
-8.0000
 20
0.0000
 30
0.0000
  0
VERTEX
  8
0
 10
-8.0000
 20
0.0000
 30
0.0000
 42
0.4142
  0
VERTEX
  8
0
 10
0.0000
 20
-8.0000
 30
0.0000
  0
VERTEX
  8
0
 10
0.0000
 20
-8.0000
 30
0.0000
 42
0.4142
  0
SEQEND
  8
0
  0
SOLID
  8
0
 10
-0.0254
 20
-0.0254
 30
0.0000
 11
0.0254
 21
-0.0254
 31
0.0000
 12
-0.0254
 22
0.0254
 32
0.0000
 13
0.0254
 23
0.0254
 33
0.0000
  0
ENDBLK
  8
0
  0
BLOCK
  8
0
  2
LONGP100
 70
64
 10
0.0000
 20
0.0000
 30
0.0000
  3
LONGP100
  0
POLYLINE
  8
0
 66
1
 10
0.0000
 20
0.0000
 30
0.0000
 40
1.0000
 41
1.0000
 70
0
  0
VERTEX
  8
0
 10
-0.5000
 20
0.0000
 30
0.0000
  0
VERTEX
  8
0
 10
0.5000
 20
0.0000
 30
0.0000
  0
SEQEND
  8
0
  0
POLYLINE
  8
0
 66
1
 10
0.0000
 20
0.0000
 30
0.0000
 40
0.5000
 41
0.5000
 70
0
  0
VERTEX
  8
0
 10
0.5000
 20
-0.2500
 30
0.0000
 42
1.0000
  0
VERTEX
  8
0
 10
0.5000
 20
0.2500
 30
0.0000
  0
SEQEND
  8
0
  0
POLYLINE
  8
0
 66
1
 10
0.0000
 20
0.0000
 30
0.0000
 40
0.5000
 41
0.5000
 70
0
  0
VERTEX
  8
0
 10
-0.5000
 20
0.2500
 30
0.0000
 42
1.0000
  0
VERTEX
  8
0
 10
-0.5000
 20
-0.2500
 30
0.0000
  0
SEQEND
  8
0
  0
ENDBLK
  8
0
  0
ENDSEC
  0
SECTION
  2
ENTITIES
  0
POLYLINE
  8
20
 66
1
 10
0.0000
 20
0.0000
 30
0.0000
 40
0.4064
 41
0.4064
 70
0
  0
VERTEX
  8
20
 10
0.0000
 20
0.0000
 30
0.0000
  0
VERTEX
  8
20
 10
0.0000
 20
200.0000
 30
0.0000
  0
SEQEND
  8
0
  0
POLYLINE
  8
20
 66
1
 10
0.0000
 20
0.0000
 30
0.0000
 40
0.2032
 41
0.2032
 70
0
  0
VERTEX
  8
20
 10
0.1016
 20
200.0000
 30
0.0000
 42
1.0000
  0
VERTEX
  8
20
 10
-0.1016
 20
200.0000
 30
0.0000
  0
SEQEND
  8
0
  0
POLYLINE
  8
20
 66
1
 10
0.0000
 20
0.0000
 30
0.0000
 40
0.2032
 41
0.2032
 70
0
  0
VERTEX
  8
20
 10
-0.1016
 20
0.0000
 30
0.0000
 42
1.0000
  0
VERTEX
  8
20
 10
0.1016
 20
0.0000
 30
0.0000
  0
SEQEND
  8
0
  0
POLYLINE
  8
20
 66
1
 10
0.0000
 20
0.0000
 30
0.0000
 40
0.4064
 41
0.4064
 70
0
  0
VERTEX
  8
20
 10
0.0000
 20
200.0000
 30
0.0000
  0
VERTEX
  8
20
 10
254.0000
 20
200.0000
 30
0.0000
  0
SEQEND
  8
0
  0
POLYLINE
  8
20
 66
1
 10
0.0000
 20
0.0000
 30
0.0000
 40
0.2032
 41
0.2032
 70
0
  0
VERTEX
  8
20
 10
254.0000
 20
199.8984
 30
0.0000
 42
1.0000
  0
VERTEX
  8
20
 10
254.0000
 20
200.1016
 30
0.0000
  0
SEQEND
  8
0
  0
POLYLINE
  8
20
 66
1
 10
0.0000
 20
0.0000
 30
0.0000
 40
0.2032
 41
0.2032
 70
0
  0
VERTEX
  8
20
 10
0.0000
 20
200.1016
 30
0.0000
 42
1.0000
  0
VERTEX
  8
20
 10
0.0000
 20
199.8984
 30
0.0000
  0
SEQEND
  8
0
  0
POLYLINE
  8
20
 66
1
 10
0.0000
 20
0.0000
 30
0.0000
 40
0.4064
 41
0.4064
 70
0
  0
VERTEX
  8
20
 10
297.0000
 20
172.0000
 30
0.0000
  0
VERTEX
  8
20
 10
297.0000
 20
0.0000
 30
0.0000
  0
SEQEND
  8
0
  0
POLYLINE
  8
20
 66
1
 10
0.0000
 20
0.0000
 30
0.0000
 40
0.2032
 41
0.2032
 70
0
  0
VERTEX
  8
20
 10
296.8984
 20
0.0000
 30
0.0000
 42
1.0000
  0
VERTEX
  8
20
 10
297.1016
 20
0.0000
 30
0.0000
  0
SEQEND
  8
0
  0
POLYLINE
  8
20
 66
1
 10
0.0000
 20
0.0000
 30
0.0000
 40
0.2032
 41
0.2032
 70
0
  0
VERTEX
  8
20
 10
297.1016
 20
172.0000
 30
0.0000
 42
1.0000
  0
VERTEX
  8
20
 10
296.8984
 20
172.0000
 30
0.0000
  0
SEQEND
  8
0
  0
POLYLINE
  8
20
 66
1
 10
0.0000
 20
0.0000
 30
0.0000
 40
0.4064
 41
0.4064
 70
0
  0
VERTEX
  8
20
 10
297.0000
 20
0.0000
 30
0.0000
  0
VERTEX
  8
20
 10
0.0000
 20
0.0000
 30
0.0000
  0
SEQEND
  8
0
  0
POLYLINE
  8
20
 66
1
 10
0.0000
 20
0.0000
 30
0.0000
 40
0.2032
 41
0.2032
 70
0
  0
VERTEX
  8
20
 10
0.0000
 20
0.1016
 30
0.0000
 42
1.0000
  0
VERTEX
  8
20
 10
0.0000
 20
-0.1016
 30
0.0000
  0
SEQEND
  8
0
  0
POLYLINE
  8
20
 66
1
 10
0.0000
 20
0.0000
 30
0.0000
 40
0.2032
 41
0.2032
 70
0
  0
VERTEX
  8
20
 10
297.0000
 20
-0.1016
 30
0.0000
 42
1.0000
  0
VERTEX
  8
20
 10
297.0000
 20
0.1016
 30
0.0000
  0
SEQEND
  8
0
  0
POLYLINE
  8
20
 66
1
 10
0.0000
 20
0.0000
 30
0.0000
 40
0.4064
 41
0.4064
 70
0
  0
VERTEX
  8
20
 10
254.0000
 20
172.0000
 30
0.0000
  0
VERTEX
  8
20
 10
297.0000
 20
172.0000
 30
0.0000
  0
SEQEND
  8
0
  0
POLYLINE
  8
20
 66
1
 10
0.0000
 20
0.0000
 30
0.0000
 40
0.2032
 41
0.2032
 70
0
  0
VERTEX
  8
20
 10
297.0000
 20
171.8984
 30
0.0000
 42
1.0000
  0
VERTEX
  8
20
 10
297.0000
 20
172.1016
 30
0.0000
  0
SEQEND
  8
0
  0
POLYLINE
  8
20
 66
1
 10
0.0000
 20
0.0000
 30
0.0000
 40
0.2032
 41
0.2032
 70
0
  0
VERTEX
  8
20
 10
254.0000
 20
172.1016
 30
0.0000
 42
1.0000
  0
VERTEX
  8
20
 10
254.0000
 20
171.8984
 30
0.0000
  0
SEQEND
  8
0
  0
POLYLINE
  8
20
 66
1
 10
0.0000
 20
0.0000
 30
0.0000
 40
0.4064
 41
0.4064
 70
0
  0
VERTEX
  8
20
 10
254.0000
 20
172.0000
 30
0.0000
  0
VERTEX
  8
20
 10
254.0000
 20
200.0000
 30
0.0000
  0
SEQEND
  8
0
  0
POLYLINE
  8
20
 66
1
 10
0.0000
 20
0.0000
 30
0.0000
 40
0.2032
 41
0.2032
 70
0
  0
VERTEX
  8
20
 10
254.1016
 20
200.0000
 30
0.0000
 42
1.0000
  0
VERTEX
  8
20
 10
253.8984
 20
200.0000
 30
0.0000
  0
SEQEND
  8
0
  0
POLYLINE
  8
20
 66
1
 10
0.0000
 20
0.0000
 30
0.0000
 40
0.2032
 41
0.2032
 70
0
  0
VERTEX
  8
20
 10
253.8984
 20
172.0000
 30
0.0000
 42
1.0000
  0
VERTEX
  8
20
 10
254.1016
 20
172.0000
 30
0.0000
  0
SEQEND
  8
0
  0
CIRCLE
  8
20
 10
4.0000
 20
196.0000
 30
0.0000
 40
1.5000
  0
CIRCLE
  8
20
 10
4.0000
 20
4.0000
 30
0.0000
 40
1.5000
  0
CIRCLE
  8
20
 10
294.0000
 20
4.0000
 30
0.0000
 40
1.5000
  0
CIRCLE
  8
20
 10
294.0000
 20
169.0000
 30
0.0000
 40
1.5000
  0
CIRCLE
  8
20
 10
250.0000
 20
196.0000
 30
0.0000
 40
1.5000
  0
CIRCLE
  8
20
 10
4.0000
 20
95.0000
 30
0.0000
 40
1.5000
  0
CIRCLE
  8
20
 10
294.0000
 20
95.0000
 30
0.0000
 40
1.5000
  0
CIRCLE
  8
20
 10
148.5000
 20
4.0000
 30
0.0000
 40
1.5000
  0
CIRCLE
  8
20
 10
148.5000
 20
196.0000
 30
0.0000
 40
1.5000
  0
CIRCLE
  8
20
 10
148.5000
 20
95.0000
 30
0.0000
 40
1.5000
  0
POINT
  8
24
 10
19.0000
 20
75.5000
 30
0.0000
  0
INSERT
  8
16
  2
PIE
 10
19.0000
 20
75.5000
 30
0.0000
 41
32.0000
 42
32.0000
 43
1.0000
 50
0.0000
  0
POINT
  8
24
 10
19.0000
 20
180.5000
 30
0.0000
  0
INSERT
  8
16
  2
PIE
 10
19.0000
 20
180.5000
 30
0.0000
 41
32.0000
 42
32.0000
 43
1.0000
 50
0.0000
  0
POINT
  8
24
 10
118.5000
 20
75.5000
 30
0.0000
  0
INSERT
  8
16
  2
PIE
 10
118.5000
 20
75.5000
 30
0.0000
 41
32.0000
 42
32.0000
 43
1.0000
 50
0.0000
  0
POINT
  8
24
 10
118.5000
 20
180.5000
 30
0.0000
  0
INSERT
  8
16
  2
PIE
 10
118.5000
 20
180.5000
 30
0.0000
 41
32.0000
 42
32.0000
 43
1.0000
 50
0.0000
  0
POINT
  8
24
 10
217.5000
 20
75.5000
 30
0.0000
  0
INSERT
  8
16
  2
PIE
 10
217.5000
 20
75.5000
 30
0.0000
 41
32.0000
 42
32.0000
 43
1.0000
 50
0.0000
  0
POINT
  8
24
 10
217.5000
 20
180.5000
 30
0.0000
  0
INSERT
  8
16
  2
PIE
 10
217.5000
 20
180.5000
 30
0.0000
 41
32.0000
 42
32.0000
 43
1.0000
 50
0.0000
  0
POINT
  8
24
 10
284.0000
 20
167.0000
 30
0.0000
  0
POLYLINE
  8
22
 66
1
 10
0.0000
 20
0.0000
 30
0.0000
 40
0.1524
 41
0.1524
 70
0
  0
VERTEX
  8
22
 10
283.3650
 20
168.2700
 30
0.0000
  0
VERTEX
  8
22
 10
282.0950
 20
168.2700
 30
0.0000
  0
SEQEND
  8
0
  0
POLYLINE
  8
22
 66
1
 10
0.0000
 20
0.0000
 30
0.0000
 40
0.0762
 41
0.0762
 70
0
  0
VERTEX
  8
22
 10
282.0950
 20
168.3081
 30
0.0000
 42
1.0000
  0
VERTEX
  8
22
 10
282.0950
 20
168.2319
 30
0.0000
  0
SEQEND
  8
0
  0
POLYLINE
  8
22
 66
1
 10
0.0000
 20
0.0000
 30
0.0000
 40
0.0762
 41
0.0762
 70
0
  0
VERTEX
  8
22
 10
283.3650
 20
168.2319
 30
0.0000
 42
1.0000
  0
VERTEX
  8
22
 10
283.3650
 20
168.3081
 30
0.0000
  0
SEQEND
  8
0
  0
POLYLINE
  8
22
 66
1
 10
0.0000
 20
0.0000
 30
0.0000
 40
0.1524
 41
0.1524
 70
0
  0
VERTEX
  8
22
 10
282.0950
 20
168.2700
 30
0.0000
  0
VERTEX
  8
22
 10
281.4600
 20
167.6350
 30
0.0000
  0
SEQEND
  8
0
  0
POLYLINE
  8
22
 66
1
 10
0.0000
 20
0.0000
 30
0.0000
 40
0.0762
 41
0.0762
 70
0
  0
VERTEX
  8
22
 10
281.4331
 20
167.6619
 30
0.0000
 42
1.0000
  0
VERTEX
  8
22
 10
281.4869
 20
167.6081
 30
0.0000
  0
SEQEND
  8
0
  0
POLYLINE
  8
22
 66
1
 10
0.0000
 20
0.0000
 30
0.0000
 40
0.0762
 41
0.0762
 70
0
  0
VERTEX
  8
22
 10
282.1219
 20
168.2431
 30
0.0000
 42
1.0000
  0
VERTEX
  8
22
 10
282.0681
 20
168.2969
 30
0.0000
  0
SEQEND
  8
0
  0
POLYLINE
  8
22
 66
1
 10
0.0000
 20
0.0000
 30
0.0000
 40
0.1524
 41
0.1524
 70
0
  0
VERTEX
  8
22
 10
281.4600
 20
167.6350
 30
0.0000
  0
VERTEX
  8
22
 10
281.4600
 20
166.3650
 30
0.0000
  0
SEQEND
  8
0
  0
POLYLINE
  8
22
 66
1
 10
0.0000
 20
0.0000
 30
0.0000
 40
0.0762
 41
0.0762
 70
0
  0
VERTEX
  8
22
 10
281.4219
 20
166.3650
 30
0.0000
 42
1.0000
  0
VERTEX
  8
22
 10
281.4981
 20
166.3650
 30
0.0000
  0
SEQEND
  8
0
  0
POLYLINE
  8
22
 66
1
 10
0.0000
 20
0.0000
 30
0.0000
 40
0.0762
 41
0.0762
 70
0
  0
VERTEX
  8
22
 10
281.4981
 20
167.6350
 30
0.0000
 42
1.0000
  0
VERTEX
  8
22
 10
281.4219
 20
167.6350
 30
0.0000
  0
SEQEND
  8
0
  0
POLYLINE
  8
22
 66
1
 10
0.0000
 20
0.0000
 30
0.0000
 40
0.1524
 41
0.1524
 70
0
  0
VERTEX
  8
22
 10
281.4600
 20
166.3650
 30
0.0000
  0
VERTEX
  8
22
 10
282.0950
 20
165.7300
 30
0.0000
  0
SEQEND
  8
0
  0
POLYLINE
  8
22
 66
1
 10
0.0000
 20
0.0000
 30
0.0000
 40
0.0762
 41
0.0762
 70
0
  0
VERTEX
  8
22
 10
282.0681
 20
165.7031
 30
0.0000
 42
1.0000
  0
VERTEX
  8
22
 10
282.1219
 20
165.7569
 30
0.0000
  0
SEQEND
  8
0
  0
POLYLINE
  8
22
 66
1
 10
0.0000
 20
0.0000
 30
0.0000
 40
0.0762
 41
0.0762
 70
0
  0
VERTEX
  8
22
 10
281.4869
 20
166.3919
 30
0.0000
 42
1.0000
  0
VERTEX
  8
22
 10
281.4331
 20
166.3381
 30
0.0000
  0
SEQEND
  8
0
  0
POLYLINE
  8
22
 66
1
 10
0.0000
 20
0.0000
 30
0.0000
 40
0.1524
 41
0.1524
 70
0
  0
VERTEX
  8
22
 10
281.4600
 20
167.6350
 30
0.0000
  0
VERTEX
  8
22
 10
280.8250
 20
168.2700
 30
0.0000
  0
SEQEND
  8
0
  0
POLYLINE
  8
22
 66
1
 10
0.0000
 20
0.0000
 30
0.0000
 40
0.0762
 41
0.0762
 70
0
  0
VERTEX
  8
22
 10
280.8519
 20
168.2969
 30
0.0000
 42
1.0000
  0
VERTEX
  8
22
 10
280.7981
 20
168.2431
 30
0.0000
  0
SEQEND
  8
0
  0
POLYLINE
  8
22
 66
1
 10
0.0000
 20
0.0000
 30
0.0000
 40
0.0762
 41
0.0762
 70
0
  0
VERTEX
  8
22
 10
281.4331
 20
167.6081
 30
0.0000
 42
1.0000
  0
VERTEX
  8
22
 10
281.4869
 20
167.6619
 30
0.0000
  0
SEQEND
  8
0
  0
POLYLINE
  8
22
 66
1
 10
0.0000
 20
0.0000
 30
0.0000
 40
0.1524
 41
0.1524
 70
0
  0
VERTEX
  8
22
 10
280.8250
 20
168.2700
 30
0.0000
  0
VERTEX
  8
22
 10
279.5550
 20
168.2700
 30
0.0000
  0
SEQEND
  8
0
  0
POLYLINE
  8
22
 66
1
 10
0.0000
 20
0.0000
 30
0.0000
 40
0.0762
 41
0.0762
 70
0
  0
VERTEX
  8
22
 10
279.5550
 20
168.3081
 30
0.0000
 42
1.0000
  0
VERTEX
  8
22
 10
279.5550
 20
168.2319
 30
0.0000
  0
SEQEND
  8
0
  0
POLYLINE
  8
22
 66
1
 10
0.0000
 20
0.0000
 30
0.0000
 40
0.0762
 41
0.0762
 70
0
  0
VERTEX
  8
22
 10
280.8250
 20
168.2319
 30
0.0000
 42
1.0000
  0
VERTEX
  8
22
 10
280.8250
 20
168.3081
 30
0.0000
  0
SEQEND
  8
0
  0
POLYLINE
  8
22
 66
1
 10
0.0000
 20
0.0000
 30
0.0000
 40
0.1524
 41
0.1524
 70
0
  0
VERTEX
  8
22
 10
279.5550
 20
168.2700
 30
0.0000
  0
VERTEX
  8
22
 10
278.9200
 20
167.6350
 30
0.0000
  0
SEQEND
  8
0
  0
POLYLINE
  8
22
 66
1
 10
0.0000
 20
0.0000
 30
0.0000
 40
0.0762
 41
0.0762
 70
0
  0
VERTEX
  8
22
 10
278.8931
 20
167.6619
 30
0.0000
 42
1.0000
  0
VERTEX
  8
22
 10
278.9469
 20
167.6081
 30
0.0000
  0
SEQEND
  8
0
  0
POLYLINE
  8
22
 66
1
 10
0.0000
 20
0.0000
 30
0.0000
 40
0.0762
 41
0.0762
 70
0
  0
VERTEX
  8
22
 10
279.5819
 20
168.2431
 30
0.0000
 42
1.0000
  0
VERTEX
  8
22
 10
279.5281
 20
168.2969
 30
0.0000
  0
SEQEND
  8
0
  0
POLYLINE
  8
22
 66
1
 10
0.0000
 20
0.0000
 30
0.0000
 40
0.1524
 41
0.1524
 70
0
  0
VERTEX
  8
22
 10
278.9200
 20
167.6350
 30
0.0000
  0
VERTEX
  8
22
 10
278.9200
 20
166.3650
 30
0.0000
  0
SEQEND
  8
0
  0
POLYLINE
  8
22
 66
1
 10
0.0000
 20
0.0000
 30
0.0000
 40
0.0762
 41
0.0762
 70
0
  0
VERTEX
  8
22
 10
278.8819
 20
166.3650
 30
0.0000
 42
1.0000
  0
VERTEX
  8
22
 10
278.9581
 20
166.3650
 30
0.0000
  0
SEQEND
  8
0
  0
POLYLINE
  8
22
 66
1
 10
0.0000
 20
0.0000
 30
0.0000
 40
0.0762
 41
0.0762
 70
0
  0
VERTEX
  8
22
 10
278.9581
 20
167.6350
 30
0.0000
 42
1.0000
  0
VERTEX
  8
22
 10
278.8819
 20
167.6350
 30
0.0000
  0
SEQEND
  8
0
  0
POLYLINE
  8
22
 66
1
 10
0.0000
 20
0.0000
 30
0.0000
 40
0.1524
 41
0.1524
 70
0
  0
VERTEX
  8
22
 10
278.9200
 20
166.3650
 30
0.0000
  0
VERTEX
  8
22
 10
279.5550
 20
165.7300
 30
0.0000
  0
SEQEND
  8
0
  0
POLYLINE
  8
22
 66
1
 10
0.0000
 20
0.0000
 30
0.0000
 40
0.0762
 41
0.0762
 70
0
  0
VERTEX
  8
22
 10
279.5281
 20
165.7031
 30
0.0000
 42
1.0000
  0
VERTEX
  8
22
 10
279.5819
 20
165.7569
 30
0.0000
  0
SEQEND
  8
0
  0
POLYLINE
  8
22
 66
1
 10
0.0000
 20
0.0000
 30
0.0000
 40
0.0762
 41
0.0762
 70
0
  0
VERTEX
  8
22
 10
278.9469
 20
166.3919
 30
0.0000
 42
1.0000
  0
VERTEX
  8
22
 10
278.8931
 20
166.3381
 30
0.0000
  0
SEQEND
  8
0
  0
POLYLINE
  8
22
 66
1
 10
0.0000
 20
0.0000
 30
0.0000
 40
0.1524
 41
0.1524
 70
0
  0
VERTEX
  8
22
 10
279.5550
 20
165.7300
 30
0.0000
  0
VERTEX
  8
22
 10
280.8250
 20
165.7300
 30
0.0000
  0
SEQEND
  8
0
  0
POLYLINE
  8
22
 66
1
 10
0.0000
 20
0.0000
 30
0.0000
 40
0.0762
 41
0.0762
 70
0
  0
VERTEX
  8
22
 10
280.8250
 20
165.6919
 30
0.0000
 42
1.0000
  0
VERTEX
  8
22
 10
280.8250
 20
165.7681
 30
0.0000
  0
SEQEND
  8
0
  0
POLYLINE
  8
22
 66
1
 10
0.0000
 20
0.0000
 30
0.0000
 40
0.0762
 41
0.0762
 70
0
  0
VERTEX
  8
22
 10
279.5550
 20
165.7681
 30
0.0000
 42
1.0000
  0
VERTEX
  8
22
 10
279.5550
 20
165.6919
 30
0.0000
  0
SEQEND
  8
0
  0
POLYLINE
  8
22
 66
1
 10
0.0000
 20
0.0000
 30
0.0000
 40
0.1524
 41
0.1524
 70
0
  0
VERTEX
  8
22
 10
280.8250
 20
165.7300
 30
0.0000
  0
VERTEX
  8
22
 10
281.4600
 20
166.3650
 30
0.0000
  0
SEQEND
  8
0
  0
POLYLINE
  8
22
 66
1
 10
0.0000
 20
0.0000
 30
0.0000
 40
0.0762
 41
0.0762
 70
0
  0
VERTEX
  8
22
 10
281.4869
 20
166.3381
 30
0.0000
 42
1.0000
  0
VERTEX
  8
22
 10
281.4331
 20
166.3919
 30
0.0000
  0
SEQEND
  8
0
  0
POLYLINE
  8
22
 66
1
 10
0.0000
 20
0.0000
 30
0.0000
 40
0.0762
 41
0.0762
 70
0
  0
VERTEX
  8
22
 10
280.7981
 20
165.7569
 30
0.0000
 42
1.0000
  0
VERTEX
  8
22
 10
280.8519
 20
165.7031
 30
0.0000
  0
SEQEND
  8
0
  0
POLYLINE
  8
22
 66
1
 10
0.0000
 20
0.0000
 30
0.0000
 40
0.1524
 41
0.1524
 70
0
  0
VERTEX
  8
22
 10
286.5400
 20
167.6350
 30
0.0000
  0
VERTEX
  8
22
 10
285.9050
 20
168.2700
 30
0.0000
  0
SEQEND
  8
0
  0
POLYLINE
  8
22
 66
1
 10
0.0000
 20
0.0000
 30
0.0000
 40
0.0762
 41
0.0762
 70
0
  0
VERTEX
  8
22
 10
285.9319
 20
168.2969
 30
0.0000
 42
1.0000
  0
VERTEX
  8
22
 10
285.8781
 20
168.2431
 30
0.0000
  0
SEQEND
  8
0
  0
POLYLINE
  8
22
 66
1
 10
0.0000
 20
0.0000
 30
0.0000
 40
0.0762
 41
0.0762
 70
0
  0
VERTEX
  8
22
 10
286.5131
 20
167.6081
 30
0.0000
 42
1.0000
  0
VERTEX
  8
22
 10
286.5669
 20
167.6619
 30
0.0000
  0
SEQEND
  8
0
  0
POLYLINE
  8
22
 66
1
 10
0.0000
 20
0.0000
 30
0.0000
 40
0.1524
 41
0.1524
 70
0
  0
VERTEX
  8
22
 10
285.9050
 20
168.2700
 30
0.0000
  0
VERTEX
  8
22
 10
284.6350
 20
168.2700
 30
0.0000
  0
SEQEND
  8
0
  0
POLYLINE
  8
22
 66
1
 10
0.0000
 20
0.0000
 30
0.0000
 40
0.0762
 41
0.0762
 70
0
  0
VERTEX
  8
22
 10
284.6350
 20
168.3081
 30
0.0000
 42
1.0000
  0
VERTEX
  8
22
 10
284.6350
 20
168.2319
 30
0.0000
  0
SEQEND
  8
0
  0
POLYLINE
  8
22
 66
1
 10
0.0000
 20
0.0000
 30
0.0000
 40
0.0762
 41
0.0762
 70
0
  0
VERTEX
  8
22
 10
285.9050
 20
168.2319
 30
0.0000
 42
1.0000
  0
VERTEX
  8
22
 10
285.9050
 20
168.3081
 30
0.0000
  0
SEQEND
  8
0
  0
POLYLINE
  8
22
 66
1
 10
0.0000
 20
0.0000
 30
0.0000
 40
0.1524
 41
0.1524
 70
0
  0
VERTEX
  8
22
 10
284.6350
 20
168.2700
 30
0.0000
  0
VERTEX
  8
22
 10
284.0000
 20
167.6350
 30
0.0000
  0
SEQEND
  8
0
  0
POLYLINE
  8
22
 66
1
 10
0.0000
 20
0.0000
 30
0.0000
 40
0.0762
 41
0.0762
 70
0
  0
VERTEX
  8
22
 10
283.9731
 20
167.6619
 30
0.0000
 42
1.0000
  0
VERTEX
  8
22
 10
284.0269
 20
167.6081
 30
0.0000
  0
SEQEND
  8
0
  0
POLYLINE
  8
22
 66
1
 10
0.0000
 20
0.0000
 30
0.0000
 40
0.0762
 41
0.0762
 70
0
  0
VERTEX
  8
22
 10
284.6619
 20
168.2431
 30
0.0000
 42
1.0000
  0
VERTEX
  8
22
 10
284.6081
 20
168.2969
 30
0.0000
  0
SEQEND
  8
0
  0
POLYLINE
  8
22
 66
1
 10
0.0000
 20
0.0000
 30
0.0000
 40
0.1524
 41
0.1524
 70
0
  0
VERTEX
  8
22
 10
284.0000
 20
167.6350
 30
0.0000
  0
VERTEX
  8
22
 10
284.0000
 20
166.3650
 30
0.0000
  0
SEQEND
  8
0
  0
POLYLINE
  8
22
 66
1
 10
0.0000
 20
0.0000
 30
0.0000
 40
0.0762
 41
0.0762
 70
0
  0
VERTEX
  8
22
 10
283.9619
 20
166.3650
 30
0.0000
 42
1.0000
  0
VERTEX
  8
22
 10
284.0381
 20
166.3650
 30
0.0000
  0
SEQEND
  8
0
  0
POLYLINE
  8
22
 66
1
 10
0.0000
 20
0.0000
 30
0.0000
 40
0.0762
 41
0.0762
 70
0
  0
VERTEX
  8
22
 10
284.0381
 20
167.6350
 30
0.0000
 42
1.0000
  0
VERTEX
  8
22
 10
283.9619
 20
167.6350
 30
0.0000
  0
SEQEND
  8
0
  0
POLYLINE
  8
22
 66
1
 10
0.0000
 20
0.0000
 30
0.0000
 40
0.1524
 41
0.1524
 70
0
  0
VERTEX
  8
22
 10
284.0000
 20
166.3650
 30
0.0000
  0
VERTEX
  8
22
 10
284.6350
 20
165.7300
 30
0.0000
  0
SEQEND
  8
0
  0
POLYLINE
  8
22
 66
1
 10
0.0000
 20
0.0000
 30
0.0000
 40
0.0762
 41
0.0762
 70
0
  0
VERTEX
  8
22
 10
284.6081
 20
165.7031
 30
0.0000
 42
1.0000
  0
VERTEX
  8
22
 10
284.6619
 20
165.7569
 30
0.0000
  0
SEQEND
  8
0
  0
POLYLINE
  8
22
 66
1
 10
0.0000
 20
0.0000
 30
0.0000
 40
0.0762
 41
0.0762
 70
0
  0
VERTEX
  8
22
 10
284.0269
 20
166.3919
 30
0.0000
 42
1.0000
  0
VERTEX
  8
22
 10
283.9731
 20
166.3381
 30
0.0000
  0
SEQEND
  8
0
  0
POLYLINE
  8
22
 66
1
 10
0.0000
 20
0.0000
 30
0.0000
 40
0.1524
 41
0.1524
 70
0
  0
VERTEX
  8
22
 10
284.6350
 20
165.7300
 30
0.0000
  0
VERTEX
  8
22
 10
285.9050
 20
165.7300
 30
0.0000
  0
SEQEND
  8
0
  0
POLYLINE
  8
22
 66
1
 10
0.0000
 20
0.0000
 30
0.0000
 40
0.0762
 41
0.0762
 70
0
  0
VERTEX
  8
22
 10
285.9050
 20
165.6919
 30
0.0000
 42
1.0000
  0
VERTEX
  8
22
 10
285.9050
 20
165.7681
 30
0.0000
  0
SEQEND
  8
0
  0
POLYLINE
  8
22
 66
1
 10
0.0000
 20
0.0000
 30
0.0000
 40
0.0762
 41
0.0762
 70
0
  0
VERTEX
  8
22
 10
284.6350
 20
165.7681
 30
0.0000
 42
1.0000
  0
VERTEX
  8
22
 10
284.6350
 20
165.6919
 30
0.0000
  0
SEQEND
  8
0
  0
POLYLINE
  8
22
 66
1
 10
0.0000
 20
0.0000
 30
0.0000
 40
0.1524
 41
0.1524
 70
0
  0
VERTEX
  8
22
 10
285.9050
 20
165.7300
 30
0.0000
  0
VERTEX
  8
22
 10
286.5400
 20
166.3650
 30
0.0000
  0
SEQEND
  8
0
  0
POLYLINE
  8
22
 66
1
 10
0.0000
 20
0.0000
 30
0.0000
 40
0.0762
 41
0.0762
 70
0
  0
VERTEX
  8
22
 10
286.5669
 20
166.3381
 30
0.0000
 42
1.0000
  0
VERTEX
  8
22
 10
286.5131
 20
166.3919
 30
0.0000
  0
SEQEND
  8
0
  0
POLYLINE
  8
22
 66
1
 10
0.0000
 20
0.0000
 30
0.0000
 40
0.0762
 41
0.0762
 70
0
  0
VERTEX
  8
22
 10
285.8781
 20
165.7569
 30
0.0000
 42
1.0000
  0
VERTEX
  8
22
 10
285.9319
 20
165.7031
 30
0.0000
  0
SEQEND
  8
0
  0
POLYLINE
  8
22
 66
1
 10
0.0000
 20
0.0000
 30
0.0000
 40
0.1524
 41
0.1524
 70
0
  0
VERTEX
  8
22
 10
283.3650
 20
168.2700
 30
0.0000
  0
VERTEX
  8
22
 10
284.0000
 20
167.6350
 30
0.0000
  0
SEQEND
  8
0
  0
POLYLINE
  8
22
 66
1
 10
0.0000
 20
0.0000
 30
0.0000
 40
0.0762
 41
0.0762
 70
0
  0
VERTEX
  8
22
 10
283.9731
 20
167.6081
 30
0.0000
 42
1.0000
  0
VERTEX
  8
22
 10
284.0269
 20
167.6619
 30
0.0000
  0
SEQEND
  8
0
  0
POLYLINE
  8
22
 66
1
 10
0.0000
 20
0.0000
 30
0.0000
 40
0.0762
 41
0.0762
 70
0
  0
VERTEX
  8
22
 10
283.3919
 20
168.2969
 30
0.0000
 42
1.0000
  0
VERTEX
  8
22
 10
283.3381
 20
168.2431
 30
0.0000
  0
SEQEND
  8
0
  0
POLYLINE
  8
22
 66
1
 10
0.0000
 20
0.0000
 30
0.0000
 40
0.1524
 41
0.1524
 70
0
  0
VERTEX
  8
22
 10
284.0000
 20
166.3650
 30
0.0000
  0
VERTEX
  8
22
 10
283.3650
 20
165.7300
 30
0.0000
  0
SEQEND
  8
0
  0
POLYLINE
  8
22
 66
1
 10
0.0000
 20
0.0000
 30
0.0000
 40
0.0762
 41
0.0762
 70
0
  0
VERTEX
  8
22
 10
283.3381
 20
165.7569
 30
0.0000
 42
1.0000
  0
VERTEX
  8
22
 10
283.3919
 20
165.7031
 30
0.0000
  0
SEQEND
  8
0
  0
POLYLINE
  8
22
 66
1
 10
0.0000
 20
0.0000
 30
0.0000
 40
0.0762
 41
0.0762
 70
0
  0
VERTEX
  8
22
 10
284.0269
 20
166.3381
 30
0.0000
 42
1.0000
  0
VERTEX
  8
22
 10
283.9731
 20
166.3919
 30
0.0000
  0
SEQEND
  8
0
  0
POLYLINE
  8
22
 66
1
 10
0.0000
 20
0.0000
 30
0.0000
 40
0.1524
 41
0.1524
 70
0
  0
VERTEX
  8
22
 10
282.0950
 20
165.7300
 30
0.0000
  0
VERTEX
  8
22
 10
283.3650
 20
165.7300
 30
0.0000
  0
SEQEND
  8
0
  0
POLYLINE
  8
22
 66
1
 10
0.0000
 20
0.0000
 30
0.0000
 40
0.0762
 41
0.0762
 70
0
  0
VERTEX
  8
22
 10
283.3650
 20
165.6919
 30
0.0000
 42
1.0000
  0
VERTEX
  8
22
 10
283.3650
 20
165.7681
 30
0.0000
  0
SEQEND
  8
0
  0
POLYLINE
  8
22
 66
1
 10
0.0000
 20
0.0000
 30
0.0000
 40
0.0762
 41
0.0762
 70
0
  0
VERTEX
  8
22
 10
282.0950
 20
165.7681
 30
0.0000
 42
1.0000
  0
VERTEX
  8
22
 10
282.0950
 20
165.6919
 30
0.0000
  0
SEQEND
  8
0
  0
POLYLINE
  8
22
 66
1
 10
0.0000
 20
0.0000
 30
0.0000
 40
0.1524
 41
0.1524
 70
0
  0
VERTEX
  8
22
 10
290.9850
 20
168.2700
 30
0.0000
  0
VERTEX
  8
22
 10
289.7150
 20
168.2700
 30
0.0000
  0
SEQEND
  8
0
  0
POLYLINE
  8
22
 66
1
 10
0.0000
 20
0.0000
 30
0.0000
 40
0.0762
 41
0.0762
 70
0
  0
VERTEX
  8
22
 10
289.7150
 20
168.3081
 30
0.0000
 42
1.0000
  0
VERTEX
  8
22
 10
289.7150
 20
168.2319
 30
0.0000
  0
SEQEND
  8
0
  0
POLYLINE
  8
22
 66
1
 10
0.0000
 20
0.0000
 30
0.0000
 40
0.0762
 41
0.0762
 70
0
  0
VERTEX
  8
22
 10
290.9850
 20
168.2319
 30
0.0000
 42
1.0000
  0
VERTEX
  8
22
 10
290.9850
 20
168.3081
 30
0.0000
  0
SEQEND
  8
0
  0
POLYLINE
  8
22
 66
1
 10
0.0000
 20
0.0000
 30
0.0000
 40
0.1524
 41
0.1524
 70
0
  0
VERTEX
  8
22
 10
289.7150
 20
168.2700
 30
0.0000
  0
VERTEX
  8
22
 10
289.0800
 20
167.6350
 30
0.0000
  0
SEQEND
  8
0
  0
POLYLINE
  8
22
 66
1
 10
0.0000
 20
0.0000
 30
0.0000
 40
0.0762
 41
0.0762
 70
0
  0
VERTEX
  8
22
 10
289.0531
 20
167.6619
 30
0.0000
 42
1.0000
  0
VERTEX
  8
22
 10
289.1069
 20
167.6081
 30
0.0000
  0
SEQEND
  8
0
  0
POLYLINE
  8
22
 66
1
 10
0.0000
 20
0.0000
 30
0.0000
 40
0.0762
 41
0.0762
 70
0
  0
VERTEX
  8
22
 10
289.7419
 20
168.2431
 30
0.0000
 42
1.0000
  0
VERTEX
  8
22
 10
289.6881
 20
168.2969
 30
0.0000
  0
SEQEND
  8
0
  0
POLYLINE
  8
22
 66
1
 10
0.0000
 20
0.0000
 30
0.0000
 40
0.1524
 41
0.1524
 70
0
  0
VERTEX
  8
22
 10
289.0800
 20
167.6350
 30
0.0000
  0
VERTEX
  8
22
 10
289.0800
 20
166.3650
 30
0.0000
  0
SEQEND
  8
0
  0
POLYLINE
  8
22
 66
1
 10
0.0000
 20
0.0000
 30
0.0000
 40
0.0762
 41
0.0762
 70
0
  0
VERTEX
  8
22
 10
289.0419
 20
166.3650
 30
0.0000
 42
1.0000
  0
VERTEX
  8
22
 10
289.1181
 20
166.3650
 30
0.0000
  0
SEQEND
  8
0
  0
POLYLINE
  8
22
 66
1
 10
0.0000
 20
0.0000
 30
0.0000
 40
0.0762
 41
0.0762
 70
0
  0
VERTEX
  8
22
 10
289.1181
 20
167.6350
 30
0.0000
 42
1.0000
  0
VERTEX
  8
22
 10
289.0419
 20
167.6350
 30
0.0000
  0
SEQEND
  8
0
  0
POLYLINE
  8
22
 66
1
 10
0.0000
 20
0.0000
 30
0.0000
 40
0.1524
 41
0.1524
 70
0
  0
VERTEX
  8
22
 10
289.0800
 20
166.3650
 30
0.0000
  0
VERTEX
  8
22
 10
289.7150
 20
165.7300
 30
0.0000
  0
SEQEND
  8
0
  0
POLYLINE
  8
22
 66
1
 10
0.0000
 20
0.0000
 30
0.0000
 40
0.0762
 41
0.0762
 70
0
  0
VERTEX
  8
22
 10
289.6881
 20
165.7031
 30
0.0000
 42
1.0000
  0
VERTEX
  8
22
 10
289.7419
 20
165.7569
 30
0.0000
  0
SEQEND
  8
0
  0
POLYLINE
  8
22
 66
1
 10
0.0000
 20
0.0000
 30
0.0000
 40
0.0762
 41
0.0762
 70
0
  0
VERTEX
  8
22
 10
289.1069
 20
166.3919
 30
0.0000
 42
1.0000
  0
VERTEX
  8
22
 10
289.0531
 20
166.3381
 30
0.0000
  0
SEQEND
  8
0
  0
POLYLINE
  8
22
 66
1
 10
0.0000
 20
0.0000
 30
0.0000
 40
0.1524
 41
0.1524
 70
0
  0
VERTEX
  8
22
 10
289.0800
 20
167.6350
 30
0.0000
  0
VERTEX
  8
22
 10
288.4450
 20
168.2700
 30
0.0000
  0
SEQEND
  8
0
  0
POLYLINE
  8
22
 66
1
 10
0.0000
 20
0.0000
 30
0.0000
 40
0.0762
 41
0.0762
 70
0
  0
VERTEX
  8
22
 10
288.4719
 20
168.2969
 30
0.0000
 42
1.0000
  0
VERTEX
  8
22
 10
288.4181
 20
168.2431
 30
0.0000
  0
SEQEND
  8
0
  0
POLYLINE
  8
22
 66
1
 10
0.0000
 20
0.0000
 30
0.0000
 40
0.0762
 41
0.0762
 70
0
  0
VERTEX
  8
22
 10
289.0531
 20
167.6081
 30
0.0000
 42
1.0000
  0
VERTEX
  8
22
 10
289.1069
 20
167.6619
 30
0.0000
  0
SEQEND
  8
0
  0
POLYLINE
  8
22
 66
1
 10
0.0000
 20
0.0000
 30
0.0000
 40
0.1524
 41
0.1524
 70
0
  0
VERTEX
  8
22
 10
288.4450
 20
168.2700
 30
0.0000
  0
VERTEX
  8
22
 10
287.1750
 20
168.2700
 30
0.0000
  0
SEQEND
  8
0
  0
POLYLINE
  8
22
 66
1
 10
0.0000
 20
0.0000
 30
0.0000
 40
0.0762
 41
0.0762
 70
0
  0
VERTEX
  8
22
 10
287.1750
 20
168.3081
 30
0.0000
 42
1.0000
  0
VERTEX
  8
22
 10
287.1750
 20
168.2319
 30
0.0000
  0
SEQEND
  8
0
  0
POLYLINE
  8
22
 66
1
 10
0.0000
 20
0.0000
 30
0.0000
 40
0.0762
 41
0.0762
 70
0
  0
VERTEX
  8
22
 10
288.4450
 20
168.2319
 30
0.0000
 42
1.0000
  0
VERTEX
  8
22
 10
288.4450
 20
168.3081
 30
0.0000
  0
SEQEND
  8
0
  0
POLYLINE
  8
22
 66
1
 10
0.0000
 20
0.0000
 30
0.0000
 40
0.1524
 41
0.1524
 70
0
  0
VERTEX
  8
22
 10
287.1750
 20
168.2700
 30
0.0000
  0
VERTEX
  8
22
 10
286.5400
 20
167.6350
 30
0.0000
  0
SEQEND
  8
0
  0
POLYLINE
  8
22
 66
1
 10
0.0000
 20
0.0000
 30
0.0000
 40
0.0762
 41
0.0762
 70
0
  0
VERTEX
  8
22
 10
286.5131
 20
167.6619
 30
0.0000
 42
1.0000
  0
VERTEX
  8
22
 10
286.5669
 20
167.6081
 30
0.0000
  0
SEQEND
  8
0
  0
POLYLINE
  8
22
 66
1
 10
0.0000
 20
0.0000
 30
0.0000
 40
0.0762
 41
0.0762
 70
0
  0
VERTEX
  8
22
 10
287.2019
 20
168.2431
 30
0.0000
 42
1.0000
  0
VERTEX
  8
22
 10
287.1481
 20
168.2969
 30
0.0000
  0
SEQEND
  8
0
  0
POLYLINE
  8
22
 66
1
 10
0.0000
 20
0.0000
 30
0.0000
 40
0.1524
 41
0.1524
 70
0
  0
VERTEX
  8
22
 10
286.5400
 20
167.6350
 30
0.0000
  0
VERTEX
  8
22
 10
286.5400
 20
166.3650
 30
0.0000
  0
SEQEND
  8
0
  0
POLYLINE
  8
22
 66
1
 10
0.0000
 20
0.0000
 30
0.0000
 40
0.0762
 41
0.0762
 70
0
  0
VERTEX
  8
22
 10
286.5019
 20
166.3650
 30
0.0000
 42
1.0000
  0
VERTEX
  8
22
 10
286.5781
 20
166.3650
 30
0.0000
  0
SEQEND
  8
0
  0
POLYLINE
  8
22
 66
1
 10
0.0000
 20
0.0000
 30
0.0000
 40
0.0762
 41
0.0762
 70
0
  0
VERTEX
  8
22
 10
286.5781
 20
167.6350
 30
0.0000
 42
1.0000
  0
VERTEX
  8
22
 10
286.5019
 20
167.6350
 30
0.0000
  0
SEQEND
  8
0
  0
POLYLINE
  8
22
 66
1
 10
0.0000
 20
0.0000
 30
0.0000
 40
0.1524
 41
0.1524
 70
0
  0
VERTEX
  8
22
 10
286.5400
 20
166.3650
 30
0.0000
  0
VERTEX
  8
22
 10
287.1750
 20
165.7300
 30
0.0000
  0
SEQEND
  8
0
  0
POLYLINE
  8
22
 66
1
 10
0.0000
 20
0.0000
 30
0.0000
 40
0.0762
 41
0.0762
 70
0
  0
VERTEX
  8
22
 10
287.1481
 20
165.7031
 30
0.0000
 42
1.0000
  0
VERTEX
  8
22
 10
287.2019
 20
165.7569
 30
0.0000
  0
SEQEND
  8
0
  0
POLYLINE
  8
22
 66
1
 10
0.0000
 20
0.0000
 30
0.0000
 40
0.0762
 41
0.0762
 70
0
  0
VERTEX
  8
22
 10
286.5669
 20
166.3919
 30
0.0000
 42
1.0000
  0
VERTEX
  8
22
 10
286.5131
 20
166.3381
 30
0.0000
  0
SEQEND
  8
0
  0
POLYLINE
  8
22
 66
1
 10
0.0000
 20
0.0000
 30
0.0000
 40
0.1524
 41
0.1524
 70
0
  0
VERTEX
  8
22
 10
287.1750
 20
165.7300
 30
0.0000
  0
VERTEX
  8
22
 10
288.4450
 20
165.7300
 30
0.0000
  0
SEQEND
  8
0
  0
POLYLINE
  8
22
 66
1
 10
0.0000
 20
0.0000
 30
0.0000
 40
0.0762
 41
0.0762
 70
0
  0
VERTEX
  8
22
 10
288.4450
 20
165.6919
 30
0.0000
 42
1.0000
  0
VERTEX
  8
22
 10
288.4450
 20
165.7681
 30
0.0000
  0
SEQEND
  8
0
  0
POLYLINE
  8
22
 66
1
 10
0.0000
 20
0.0000
 30
0.0000
 40
0.0762
 41
0.0762
 70
0
  0
VERTEX
  8
22
 10
287.1750
 20
165.7681
 30
0.0000
 42
1.0000
  0
VERTEX
  8
22
 10
287.1750
 20
165.6919
 30
0.0000
  0
SEQEND
  8
0
  0
POLYLINE
  8
22
 66
1
 10
0.0000
 20
0.0000
 30
0.0000
 40
0.1524
 41
0.1524
 70
0
  0
VERTEX
  8
22
 10
288.4450
 20
165.7300
 30
0.0000
  0
VERTEX
  8
22
 10
289.0800
 20
166.3650
 30
0.0000
  0
SEQEND
  8
0
  0
POLYLINE
  8
22
 66
1
 10
0.0000
 20
0.0000
 30
0.0000
 40
0.0762
 41
0.0762
 70
0
  0
VERTEX
  8
22
 10
289.1069
 20
166.3381
 30
0.0000
 42
1.0000
  0
VERTEX
  8
22
 10
289.0531
 20
166.3919
 30
0.0000
  0
SEQEND
  8
0
  0
POLYLINE
  8
22
 66
1
 10
0.0000
 20
0.0000
 30
0.0000
 40
0.0762
 41
0.0762
 70
0
  0
VERTEX
  8
22
 10
288.4181
 20
165.7569
 30
0.0000
 42
1.0000
  0
VERTEX
  8
22
 10
288.4719
 20
165.7031
 30
0.0000
  0
SEQEND
  8
0
  0
POLYLINE
  8
22
 66
1
 10
0.0000
 20
0.0000
 30
0.0000
 40
0.1524
 41
0.1524
 70
0
  0
VERTEX
  8
22
 10
291.6200
 20
167.6350
 30
0.0000
  0
VERTEX
  8
22
 10
291.6200
 20
166.3650
 30
0.0000
  0
SEQEND
  8
0
  0
POLYLINE
  8
22
 66
1
 10
0.0000
 20
0.0000
 30
0.0000
 40
0.0762
 41
0.0762
 70
0
  0
VERTEX
  8
22
 10
291.5819
 20
166.3650
 30
0.0000
 42
1.0000
  0
VERTEX
  8
22
 10
291.6581
 20
166.3650
 30
0.0000
  0
SEQEND
  8
0
  0
POLYLINE
  8
22
 66
1
 10
0.0000
 20
0.0000
 30
0.0000
 40
0.0762
 41
0.0762
 70
0
  0
VERTEX
  8
22
 10
291.6581
 20
167.6350
 30
0.0000
 42
1.0000
  0
VERTEX
  8
22
 10
291.5819
 20
167.6350
 30
0.0000
  0
SEQEND
  8
0
  0
POLYLINE
  8
22
 66
1
 10
0.0000
 20
0.0000
 30
0.0000
 40
0.1524
 41
0.1524
 70
0
  0
VERTEX
  8
22
 10
290.9850
 20
168.2700
 30
0.0000
  0
VERTEX
  8
22
 10
291.6200
 20
167.6350
 30
0.0000
  0
SEQEND
  8
0
  0
POLYLINE
  8
22
 66
1
 10
0.0000
 20
0.0000
 30
0.0000
 40
0.0762
 41
0.0762
 70
0
  0
VERTEX
  8
22
 10
291.5931
 20
167.6081
 30
0.0000
 42
1.0000
  0
VERTEX
  8
22
 10
291.6469
 20
167.6619
 30
0.0000
  0
SEQEND
  8
0
  0
POLYLINE
  8
22
 66
1
 10
0.0000
 20
0.0000
 30
0.0000
 40
0.0762
 41
0.0762
 70
0
  0
VERTEX
  8
22
 10
291.0119
 20
168.2969
 30
0.0000
 42
1.0000
  0
VERTEX
  8
22
 10
290.9581
 20
168.2431
 30
0.0000
  0
SEQEND
  8
0
  0
POLYLINE
  8
22
 66
1
 10
0.0000
 20
0.0000
 30
0.0000
 40
0.1524
 41
0.1524
 70
0
  0
VERTEX
  8
22
 10
291.6200
 20
166.3650
 30
0.0000
  0
VERTEX
  8
22
 10
290.9850
 20
165.7300
 30
0.0000
  0
SEQEND
  8
0
  0
POLYLINE
  8
22
 66
1
 10
0.0000
 20
0.0000
 30
0.0000
 40
0.0762
 41
0.0762
 70
0
  0
VERTEX
  8
22
 10
290.9581
 20
165.7569
 30
0.0000
 42
1.0000
  0
VERTEX
  8
22
 10
291.0119
 20
165.7031
 30
0.0000
  0
SEQEND
  8
0
  0
POLYLINE
  8
22
 66
1
 10
0.0000
 20
0.0000
 30
0.0000
 40
0.0762
 41
0.0762
 70
0
  0
VERTEX
  8
22
 10
291.6469
 20
166.3381
 30
0.0000
 42
1.0000
  0
VERTEX
  8
22
 10
291.5931
 20
166.3919
 30
0.0000
  0
SEQEND
  8
0
  0
POLYLINE
  8
22
 66
1
 10
0.0000
 20
0.0000
 30
0.0000
 40
0.1524
 41
0.1524
 70
0
  0
VERTEX
  8
22
 10
289.7150
 20
165.7300
 30
0.0000
  0
VERTEX
  8
22
 10
290.9850
 20
165.7300
 30
0.0000
  0
SEQEND
  8
0
  0
POLYLINE
  8
22
 66
1
 10
0.0000
 20
0.0000
 30
0.0000
 40
0.0762
 41
0.0762
 70
0
  0
VERTEX
  8
22
 10
290.9850
 20
165.6919
 30
0.0000
 42
1.0000
  0
VERTEX
  8
22
 10
290.9850
 20
165.7681
 30
0.0000
  0
SEQEND
  8
0
  0
POLYLINE
  8
22
 66
1
 10
0.0000
 20
0.0000
 30
0.0000
 40
0.0762
 41
0.0762
 70
0
  0
VERTEX
  8
22
 10
289.7150
 20
165.7681
 30
0.0000
 42
1.0000
  0
VERTEX
  8
22
 10
289.7150
 20
165.6919
 30
0.0000
  0
SEQEND
  8
0
  0
POLYLINE
  8
22
 66
1
 10
0.0000
 20
0.0000
 30
0.0000
 40
0.1524
 41
0.1524
 70
0
  0
VERTEX
  8
22
 10
278.2850
 20
168.2700
 30
0.0000
  0
VERTEX
  8
22
 10
277.0150
 20
168.2700
 30
0.0000
  0
SEQEND
  8
0
  0
POLYLINE
  8
22
 66
1
 10
0.0000
 20
0.0000
 30
0.0000
 40
0.0762
 41
0.0762
 70
0
  0
VERTEX
  8
22
 10
277.0150
 20
168.3081
 30
0.0000
 42
1.0000
  0
VERTEX
  8
22
 10
277.0150
 20
168.2319
 30
0.0000
  0
SEQEND
  8
0
  0
POLYLINE
  8
22
 66
1
 10
0.0000
 20
0.0000
 30
0.0000
 40
0.0762
 41
0.0762
 70
0
  0
VERTEX
  8
22
 10
278.2850
 20
168.2319
 30
0.0000
 42
1.0000
  0
VERTEX
  8
22
 10
278.2850
 20
168.3081
 30
0.0000
  0
SEQEND
  8
0
  0
POLYLINE
  8
22
 66
1
 10
0.0000
 20
0.0000
 30
0.0000
 40
0.1524
 41
0.1524
 70
0
  0
VERTEX
  8
22
 10
277.0150
 20
168.2700
 30
0.0000
  0
VERTEX
  8
22
 10
276.3800
 20
167.6350
 30
0.0000
  0
SEQEND
  8
0
  0
POLYLINE
  8
22
 66
1
 10
0.0000
 20
0.0000
 30
0.0000
 40
0.0762
 41
0.0762
 70
0
  0
VERTEX
  8
22
 10
276.3531
 20
167.6619
 30
0.0000
 42
1.0000
  0
VERTEX
  8
22
 10
276.4069
 20
167.6081
 30
0.0000
  0
SEQEND
  8
0
  0
POLYLINE
  8
22
 66
1
 10
0.0000
 20
0.0000
 30
0.0000
 40
0.0762
 41
0.0762
 70
0
  0
VERTEX
  8
22
 10
277.0419
 20
168.2431
 30
0.0000
 42
1.0000
  0
VERTEX
  8
22
 10
276.9881
 20
168.2969
 30
0.0000
  0
SEQEND
  8
0
  0
POLYLINE
  8
22
 66
1
 10
0.0000
 20
0.0000
 30
0.0000
 40
0.1524
 41
0.1524
 70
0
  0
VERTEX
  8
22
 10
276.3800
 20
167.6350
 30
0.0000
  0
VERTEX
  8
22
 10
276.3800
 20
166.3650
 30
0.0000
  0
SEQEND
  8
0
  0
POLYLINE
  8
22
 66
1
 10
0.0000
 20
0.0000
 30
0.0000
 40
0.0762
 41
0.0762
 70
0
  0
VERTEX
  8
22
 10
276.3419
 20
166.3650
 30
0.0000
 42
1.0000
  0
VERTEX
  8
22
 10
276.4181
 20
166.3650
 30
0.0000
  0
SEQEND
  8
0
  0
POLYLINE
  8
22
 66
1
 10
0.0000
 20
0.0000
 30
0.0000
 40
0.0762
 41
0.0762
 70
0
  0
VERTEX
  8
22
 10
276.4181
 20
167.6350
 30
0.0000
 42
1.0000
  0
VERTEX
  8
22
 10
276.3419
 20
167.6350
 30
0.0000
  0
SEQEND
  8
0
  0
POLYLINE
  8
22
 66
1
 10
0.0000
 20
0.0000
 30
0.0000
 40
0.1524
 41
0.1524
 70
0
  0
VERTEX
  8
22
 10
276.3800
 20
166.3650
 30
0.0000
  0
VERTEX
  8
22
 10
277.0150
 20
165.7300
 30
0.0000
  0
SEQEND
  8
0
  0
POLYLINE
  8
22
 66
1
 10
0.0000
 20
0.0000
 30
0.0000
 40
0.0762
 41
0.0762
 70
0
  0
VERTEX
  8
22
 10
276.9881
 20
165.7031
 30
0.0000
 42
1.0000
  0
VERTEX
  8
22
 10
277.0419
 20
165.7569
 30
0.0000
  0
SEQEND
  8
0
  0
POLYLINE
  8
22
 66
1
 10
0.0000
 20
0.0000
 30
0.0000
 40
0.0762
 41
0.0762
 70
0
  0
VERTEX
  8
22
 10
276.4069
 20
166.3919
 30
0.0000
 42
1.0000
  0
VERTEX
  8
22
 10
276.3531
 20
166.3381
 30
0.0000
  0
SEQEND
  8
0
  0
POLYLINE
  8
22
 66
1
 10
0.0000
 20
0.0000
 30
0.0000
 40
0.1524
 41
0.1524
 70
0
  0
VERTEX
  8
22
 10
278.2850
 20
168.2700
 30
0.0000
  0
VERTEX
  8
22
 10
278.9200
 20
167.6350
 30
0.0000
  0
SEQEND
  8
0
  0
POLYLINE
  8
22
 66
1
 10
0.0000
 20
0.0000
 30
0.0000
 40
0.0762
 41
0.0762
 70
0
  0
VERTEX
  8
22
 10
278.8931
 20
167.6081
 30
0.0000
 42
1.0000
  0
VERTEX
  8
22
 10
278.9469
 20
167.6619
 30
0.0000
  0
SEQEND
  8
0
  0
POLYLINE
  8
22
 66
1
 10
0.0000
 20
0.0000
 30
0.0000
 40
0.0762
 41
0.0762
 70
0
  0
VERTEX
  8
22
 10
278.3119
 20
168.2969
 30
0.0000
 42
1.0000
  0
VERTEX
  8
22
 10
278.2581
 20
168.2431
 30
0.0000
  0
SEQEND
  8
0
  0
POLYLINE
  8
22
 66
1
 10
0.0000
 20
0.0000
 30
0.0000
 40
0.1524
 41
0.1524
 70
0
  0
VERTEX
  8
22
 10
278.9200
 20
166.3650
 30
0.0000
  0
VERTEX
  8
22
 10
278.2850
 20
165.7300
 30
0.0000
  0
SEQEND
  8
0
  0
POLYLINE
  8
22
 66
1
 10
0.0000
 20
0.0000
 30
0.0000
 40
0.0762
 41
0.0762
 70
0
  0
VERTEX
  8
22
 10
278.2581
 20
165.7569
 30
0.0000
 42
1.0000
  0
VERTEX
  8
22
 10
278.3119
 20
165.7031
 30
0.0000
  0
SEQEND
  8
0
  0
POLYLINE
  8
22
 66
1
 10
0.0000
 20
0.0000
 30
0.0000
 40
0.0762
 41
0.0762
 70
0
  0
VERTEX
  8
22
 10
278.9469
 20
166.3381
 30
0.0000
 42
1.0000
  0
VERTEX
  8
22
 10
278.8931
 20
166.3919
 30
0.0000
  0
SEQEND
  8
0
  0
POLYLINE
  8
22
 66
1
 10
0.0000
 20
0.0000
 30
0.0000
 40
0.1524
 41
0.1524
 70
0
  0
VERTEX
  8
22
 10
277.0150
 20
165.7300
 30
0.0000
  0
VERTEX
  8
22
 10
278.2850
 20
165.7300
 30
0.0000
  0
SEQEND
  8
0
  0
POLYLINE
  8
22
 66
1
 10
0.0000
 20
0.0000
 30
0.0000
 40
0.0762
 41
0.0762
 70
0
  0
VERTEX
  8
22
 10
278.2850
 20
165.6919
 30
0.0000
 42
1.0000
  0
VERTEX
  8
22
 10
278.2850
 20
165.7681
 30
0.0000
  0
SEQEND
  8
0
  0
POLYLINE
  8
22
 66
1
 10
0.0000
 20
0.0000
 30
0.0000
 40
0.0762
 41
0.0762
 70
0
  0
VERTEX
  8
22
 10
277.0150
 20
165.7681
 30
0.0000
 42
1.0000
  0
VERTEX
  8
22
 10
277.0150
 20
165.6919
 30
0.0000
  0
SEQEND
  8
0
  0
POLYLINE
  8
26
 66
1
 10
0.0000
 20
0.0000
 30
0.0000
 40
0.1270
 41
0.1270
 70
0
  0
VERTEX
  8
26
 10
291.6327
 20
170.0363
 30
0.0000
  0
VERTEX
  8
26
 10
290.8700
 20
168.8923
 30
0.0000
  0
SEQEND
  8
0
  0
POLYLINE
  8
26
 66
1
 10
0.0000
 20
0.0000
 30
0.0000
 40
0.0635
 41
0.0635
 70
0
  0
VERTEX
  8
26
 10
290.8436
 20
168.9099
 30
0.0000
 42
1.0000
  0
VERTEX
  8
26
 10
290.8965
 20
168.8747
 30
0.0000
  0
SEQEND
  8
0
  0
POLYLINE
  8
26
 66
1
 10
0.0000
 20
0.0000
 30
0.0000
 40
0.0635
 41
0.0635
 70
0
  0
VERTEX
  8
26
 10
291.6591
 20
170.0187
 30
0.0000
 42
1.0000
  0
VERTEX
  8
26
 10
291.6063
 20
170.0539
 30
0.0000
  0
SEQEND
  8
0
  0
POLYLINE
  8
26
 66
1
 10
0.0000
 20
0.0000
 30
0.0000
 40
0.1270
 41
0.1270
 70
0
  0
VERTEX
  8
26
 10
290.8700
 20
170.0363
 30
0.0000
  0
VERTEX
  8
26
 10
291.6327
 20
168.8923
 30
0.0000
  0
SEQEND
  8
0
  0
POLYLINE
  8
26
 66
1
 10
0.0000
 20
0.0000
 30
0.0000
 40
0.0635
 41
0.0635
 70
0
  0
VERTEX
  8
26
 10
291.6063
 20
168.8747
 30
0.0000
 42
1.0000
  0
VERTEX
  8
26
 10
291.6591
 20
168.9099
 30
0.0000
  0
SEQEND
  8
0
  0
POLYLINE
  8
26
 66
1
 10
0.0000
 20
0.0000
 30
0.0000
 40
0.0635
 41
0.0635
 70
0
  0
VERTEX
  8
26
 10
290.8965
 20
170.0539
 30
0.0000
 42
1.0000
  0
VERTEX
  8
26
 10
290.8436
 20
170.0187
 30
0.0000
  0
SEQEND
  8
0
  0
POLYLINE
  8
26
 66
1
 10
0.0000
 20
0.0000
 30
0.0000
 40
0.1270
 41
0.1270
 70
0
  0
VERTEX
  8
26
 10
290.4633
 20
169.6550
 30
0.0000
  0
VERTEX
  8
26
 10
290.0820
 20
170.0363
 30
0.0000
  0
SEQEND
  8
0
  0
POLYLINE
  8
26
 66
1
 10
0.0000
 20
0.0000
 30
0.0000
 40
0.0635
 41
0.0635
 70
0
  0
VERTEX
  8
26
 10
290.1044
 20
170.0587
 30
0.0000
 42
1.0000
  0
VERTEX
  8
26
 10
290.0595
 20
170.0138
 30
0.0000
  0
SEQEND
  8
0
  0
POLYLINE
  8
26
 66
1
 10
0.0000
 20
0.0000
 30
0.0000
 40
0.0635
 41
0.0635
 70
0
  0
VERTEX
  8
26
 10
290.4409
 20
169.6325
 30
0.0000
 42
1.0000
  0
VERTEX
  8
26
 10
290.4858
 20
169.6774
 30
0.0000
  0
SEQEND
  8
0
  0
POLYLINE
  8
26
 66
1
 10
0.0000
 20
0.0000
 30
0.0000
 40
0.1270
 41
0.1270
 70
0
  0
VERTEX
  8
26
 10
290.0820
 20
170.0363
 30
0.0000
  0
VERTEX
  8
26
 10
290.0820
 20
168.8923
 30
0.0000
  0
SEQEND
  8
0
  0
POLYLINE
  8
26
 66
1
 10
0.0000
 20
0.0000
 30
0.0000
 40
0.0635
 41
0.0635
 70
0
  0
VERTEX
  8
26
 10
290.0502
 20
168.8923
 30
0.0000
 42
1.0000
  0
VERTEX
  8
26
 10
290.1137
 20
168.8923
 30
0.0000
  0
SEQEND
  8
0
  0
POLYLINE
  8
26
 66
1
 10
0.0000
 20
0.0000
 30
0.0000
 40
0.0635
 41
0.0635
 70
0
  0
VERTEX
  8
26
 10
290.1137
 20
170.0363
 30
0.0000
 42
1.0000
  0
VERTEX
  8
26
 10
290.0502
 20
170.0363
 30
0.0000
  0
SEQEND
  8
0
  0
POLYLINE
  8
26
 66
1
 10
0.0000
 20
0.0000
 30
0.0000
 40
0.1270
 41
0.1270
 70
0
  0
VERTEX
  8
26
 10
290.4633
 20
168.8923
 30
0.0000
  0
VERTEX
  8
26
 10
289.7007
 20
168.8923
 30
0.0000
  0
SEQEND
  8
0
  0
POLYLINE
  8
26
 66
1
 10
0.0000
 20
0.0000
 30
0.0000
 40
0.0635
 41
0.0635
 70
0
  0
VERTEX
  8
26
 10
289.7007
 20
168.9240
 30
0.0000
 42
1.0000
  0
VERTEX
  8
26
 10
289.7007
 20
168.8606
 30
0.0000
  0
SEQEND
  8
0
  0
POLYLINE
  8
26
 66
1
 10
0.0000
 20
0.0000
 30
0.0000
 40
0.0635
 41
0.0635
 70
0
  0
VERTEX
  8
26
 10
290.4633
 20
168.8606
 30
0.0000
 42
1.0000
  0
VERTEX
  8
26
 10
290.4633
 20
168.9240
 30
0.0000
  0
SEQEND
  8
0
  0
INSERT
  8
52
  2
RECT
 10
280.1900
 20
167.0000
 30
0.0000
 41
0.5080
 42
0.5080
 43
1.0000
 50
180.0000
  0
INSERT
  8
52
  2
RECT
 10
282.7300
 20
167.0000
 30
0.0000
 41
0.5080
 42
0.5080
 43
1.0000
 50
180.0000
  0
INSERT
  8
52
  2
RECT
 10
285.2700
 20
167.0000
 30
0.0000
 41
0.5080
 42
0.5080
 43
1.0000
 50
180.0000
  0
INSERT
  8
52
  2
RECT
 10
287.8100
 20
167.0000
 30
0.0000
 41
0.5080
 42
0.5080
 43
1.0000
 50
180.0000
  0
INSERT
  8
52
  2
RECT
 10
290.3500
 20
167.0000
 30
0.0000
 41
0.5080
 42
0.5080
 43
1.0000
 50
180.0000
  0
INSERT
  8
52
  2
RECT
 10
277.6500
 20
167.0000
 30
0.0000
 41
0.5080
 42
0.5080
 43
1.0000
 50
180.0000
  0
INSERT
  8
17
  2
LONGP100
 10
290.3500
 20
167.0000
 30
0.0000
 41
1.6160
 42
1.6160
 43
1.0000
 50
90.0000
  0
INSERT
  8
17
  2
LONGP100
 10
290.3500
 20
167.0000
 30
0.0000
 41
1.6160
 42
1.6160
 43
1.0000
 50
90.0000
  0
INSERT
  8
17
  2
LONGP100
 10
287.8100
 20
167.0000
 30
0.0000
 41
1.6160
 42
1.6160
 43
1.0000
 50
90.0000
  0
INSERT
  8
17
  2
LONGP100
 10
287.8100
 20
167.0000
 30
0.0000
 41
1.6160
 42
1.6160
 43
1.0000
 50
90.0000
  0
INSERT
  8
17
  2
LONGP100
 10
285.2700
 20
167.0000
 30
0.0000
 41
1.6160
 42
1.6160
 43
1.0000
 50
90.0000
  0
INSERT
  8
17
  2
LONGP100
 10
285.2700
 20
167.0000
 30
0.0000
 41
1.6160
 42
1.6160
 43
1.0000
 50
90.0000
  0
INSERT
  8
17
  2
LONGP100
 10
282.7300
 20
167.0000
 30
0.0000
 41
1.6160
 42
1.6160
 43
1.0000
 50
90.0000
  0
INSERT
  8
17
  2
LONGP100
 10
282.7300
 20
167.0000
 30
0.0000
 41
1.6160
 42
1.6160
 43
1.0000
 50
90.0000
  0
INSERT
  8
17
  2
LONGP100
 10
280.1900
 20
167.0000
 30
0.0000
 41
1.6160
 42
1.6160
 43
1.0000
 50
90.0000
  0
INSERT
  8
17
  2
LONGP100
 10
280.1900
 20
167.0000
 30
0.0000
 41
1.6160
 42
1.6160
 43
1.0000
 50
90.0000
  0
INSERT
  8
17
  2
LONGP100
 10
277.6500
 20
167.0000
 30
0.0000
 41
1.6160
 42
1.6160
 43
1.0000
 50
90.0000
  0
INSERT
  8
17
  2
LONGP100
 10
277.6500
 20
167.0000
 30
0.0000
 41
1.6160
 42
1.6160
 43
1.0000
 50
90.0000
  0
POLYLINE
  8
16
 66
1
 10
0.0000
 20
0.0000
 30
0.0000
 40
0.4064
 41
0.4064
 70
0
  0
VERTEX
  8
16
 10
19.0000
 20
75.5000
 30
0.0000
  0
VERTEX
  8
16
 10
19.0000
 20
107.0000
 30
0.0000
  0
SEQEND
  8
0
  0
POLYLINE
  8
16
 66
1
 10
0.0000
 20
0.0000
 30
0.0000
 40
0.2032
 41
0.2032
 70
0
  0
VERTEX
  8
16
 10
19.1016
 20
107.0000
 30
0.0000
 42
1.0000
  0
VERTEX
  8
16
 10
18.8984
 20
107.0000
 30
0.0000
  0
SEQEND
  8
0
  0
POLYLINE
  8
16
 66
1
 10
0.0000
 20
0.0000
 30
0.0000
 40
0.2032
 41
0.2032
 70
0
  0
VERTEX
  8
16
 10
18.8984
 20
75.5000
 30
0.0000
 42
1.0000
  0
VERTEX
  8
16
 10
19.1016
 20
75.5000
 30
0.0000
  0
SEQEND
  8
0
  0
POLYLINE
  8
16
 66
1
 10
0.0000
 20
0.0000
 30
0.0000
 40
0.4064
 41
0.4064
 70
0
  0
VERTEX
  8
16
 10
19.0000
 20
107.0000
 30
0.0000
  0
VERTEX
  8
16
 10
51.9000
 20
139.9000
 30
0.0000
  0
SEQEND
  8
0
  0
POLYLINE
  8
16
 66
1
 10
0.0000
 20
0.0000
 30
0.0000
 40
0.2032
 41
0.2032
 70
0
  0
VERTEX
  8
16
 10
51.9718
 20
139.8282
 30
0.0000
 42
1.0000
  0
VERTEX
  8
16
 10
51.8282
 20
139.9718
 30
0.0000
  0
SEQEND
  8
0
  0
POLYLINE
  8
16
 66
1
 10
0.0000
 20
0.0000
 30
0.0000
 40
0.2032
 41
0.2032
 70
0
  0
VERTEX
  8
16
 10
18.9282
 20
107.0718
 30
0.0000
 42
1.0000
  0
VERTEX
  8
16
 10
19.0718
 20
106.9282
 30
0.0000
  0
SEQEND
  8
0
  0
POLYLINE
  8
16
 66
1
 10
0.0000
 20
0.0000
 30
0.0000
 40
0.4064
 41
0.4064
 70
0
  0
VERTEX
  8
16
 10
51.9000
 20
139.9000
 30
0.0000
  0
VERTEX
  8
16
 10
270.1000
 20
139.9000
 30
0.0000
  0
SEQEND
  8
0
  0
POLYLINE
  8
16
 66
1
 10
0.0000
 20
0.0000
 30
0.0000
 40
0.2032
 41
0.2032
 70
0
  0
VERTEX
  8
16
 10
270.1000
 20
139.7984
 30
0.0000
 42
1.0000
  0
VERTEX
  8
16
 10
270.1000
 20
140.0016
 30
0.0000
  0
SEQEND
  8
0
  0
POLYLINE
  8
16
 66
1
 10
0.0000
 20
0.0000
 30
0.0000
 40
0.2032
 41
0.2032
 70
0
  0
VERTEX
  8
16
 10
51.9000
 20
140.0016
 30
0.0000
 42
1.0000
  0
VERTEX
  8
16
 10
51.9000
 20
139.7984
 30
0.0000
  0
SEQEND
  8
0
  0
POLYLINE
  8
16
 66
1
 10
0.0000
 20
0.0000
 30
0.0000
 40
0.4064
 41
0.4064
 70
0
  0
VERTEX
  8
16
 10
270.1000
 20
139.9000
 30
0.0000
  0
VERTEX
  8
16
 10
285.2800
 20
155.0800
 30
0.0000
  0
SEQEND
  8
0
  0
POLYLINE
  8
16
 66
1
 10
0.0000
 20
0.0000
 30
0.0000
 40
0.2032
 41
0.2032
 70
0
  0
VERTEX
  8
16
 10
285.3518
 20
155.0082
 30
0.0000
 42
1.0000
  0
VERTEX
  8
16
 10
285.2082
 20
155.1518
 30
0.0000
  0
SEQEND
  8
0
  0
POLYLINE
  8
16
 66
1
 10
0.0000
 20
0.0000
 30
0.0000
 40
0.2032
 41
0.2032
 70
0
  0
VERTEX
  8
16
 10
270.0282
 20
139.9718
 30
0.0000
 42
1.0000
  0
VERTEX
  8
16
 10
270.1718
 20
139.8282
 30
0.0000
  0
SEQEND
  8
0
  0
POLYLINE
  8
16
 66
1
 10
0.0000
 20
0.0000
 30
0.0000
 40
0.4064
 41
0.4064
 70
0
  0
VERTEX
  8
16
 10
285.2800
 20
155.0800
 30
0.0000
  0
VERTEX
  8
16
 10
285.2800
 20
167.0400
 30
0.0000
  0
SEQEND
  8
0
  0
POLYLINE
  8
16
 66
1
 10
0.0000
 20
0.0000
 30
0.0000
 40
0.2032
 41
0.2032
 70
0
  0
VERTEX
  8
16
 10
285.3816
 20
167.0400
 30
0.0000
 42
1.0000
  0
VERTEX
  8
16
 10
285.1784
 20
167.0400
 30
0.0000
  0
SEQEND
  8
0
  0
POLYLINE
  8
16
 66
1
 10
0.0000
 20
0.0000
 30
0.0000
 40
0.2032
 41
0.2032
 70
0
  0
VERTEX
  8
16
 10
285.1784
 20
155.0800
 30
0.0000
 42
1.0000
  0
VERTEX
  8
16
 10
285.3816
 20
155.0800
 30
0.0000
  0
SEQEND
  8
0
  0
POLYLINE
  8
16
 66
1
 10
0.0000
 20
0.0000
 30
0.0000
 40
0.4064
 41
0.4064
 70
0
  0
VERTEX
  8
16
 10
118.7000
 20
75.6000
 30
0.0000
  0
VERTEX
  8
16
 10
118.7000
 20
109.5000
 30
0.0000
  0
SEQEND
  8
0
  0
POLYLINE
  8
16
 66
1
 10
0.0000
 20
0.0000
 30
0.0000
 40
0.2032
 41
0.2032
 70
0
  0
VERTEX
  8
16
 10
118.8016
 20
109.5000
 30
0.0000
 42
1.0000
  0
VERTEX
  8
16
 10
118.5984
 20
109.5000
 30
0.0000
  0
SEQEND
  8
0
  0
POLYLINE
  8
16
 66
1
 10
0.0000
 20
0.0000
 30
0.0000
 40
0.2032
 41
0.2032
 70
0
  0
VERTEX
  8
16
 10
118.5984
 20
75.6000
 30
0.0000
 42
1.0000
  0
VERTEX
  8
16
 10
118.8016
 20
75.6000
 30
0.0000
  0
SEQEND
  8
0
  0
POLYLINE
  8
16
 66
1
 10
0.0000
 20
0.0000
 30
0.0000
 40
0.4064
 41
0.4064
 70
0
  0
VERTEX
  8
16
 10
118.7000
 20
109.5000
 30
0.0000
  0
VERTEX
  8
16
 10
128.7000
 20
119.5000
 30
0.0000
  0
SEQEND
  8
0
  0
POLYLINE
  8
16
 66
1
 10
0.0000
 20
0.0000
 30
0.0000
 40
0.2032
 41
0.2032
 70
0
  0
VERTEX
  8
16
 10
128.7718
 20
119.4282
 30
0.0000
 42
1.0000
  0
VERTEX
  8
16
 10
128.6282
 20
119.5718
 30
0.0000
  0
SEQEND
  8
0
  0
POLYLINE
  8
16
 66
1
 10
0.0000
 20
0.0000
 30
0.0000
 40
0.2032
 41
0.2032
 70
0
  0
VERTEX
  8
16
 10
118.6282
 20
109.5718
 30
0.0000
 42
1.0000
  0
VERTEX
  8
16
 10
118.7718
 20
109.4282
 30
0.0000
  0
SEQEND
  8
0
  0
POLYLINE
  8
16
 66
1
 10
0.0000
 20
0.0000
 30
0.0000
 40
0.4064
 41
0.4064
 70
0
  0
VERTEX
  8
16
 10
128.7000
 20
119.5000
 30
0.0000
  0
VERTEX
  8
16
 10
261.9000
 20
119.5000
 30
0.0000
  0
SEQEND
  8
0
  0
POLYLINE
  8
16
 66
1
 10
0.0000
 20
0.0000
 30
0.0000
 40
0.2032
 41
0.2032
 70
0
  0
VERTEX
  8
16
 10
261.9000
 20
119.3984
 30
0.0000
 42
1.0000
  0
VERTEX
  8
16
 10
261.9000
 20
119.6016
 30
0.0000
  0
SEQEND
  8
0
  0
POLYLINE
  8
16
 66
1
 10
0.0000
 20
0.0000
 30
0.0000
 40
0.2032
 41
0.2032
 70
0
  0
VERTEX
  8
16
 10
128.7000
 20
119.6016
 30
0.0000
 42
1.0000
  0
VERTEX
  8
16
 10
128.7000
 20
119.3984
 30
0.0000
  0
SEQEND
  8
0
  0
POLYLINE
  8
16
 66
1
 10
0.0000
 20
0.0000
 30
0.0000
 40
0.4064
 41
0.4064
 70
0
  0
VERTEX
  8
16
 10
261.9000
 20
119.5000
 30
0.0000
  0
VERTEX
  8
16
 10
263.3000
 20
120.9000
 30
0.0000
  0
SEQEND
  8
0
  0
POLYLINE
  8
16
 66
1
 10
0.0000
 20
0.0000
 30
0.0000
 40
0.2032
 41
0.2032
 70
0
  0
VERTEX
  8
16
 10
263.3718
 20
120.8282
 30
0.0000
 42
1.0000
  0
VERTEX
  8
16
 10
263.2282
 20
120.9718
 30
0.0000
  0
SEQEND
  8
0
  0
POLYLINE
  8
16
 66
1
 10
0.0000
 20
0.0000
 30
0.0000
 40
0.2032
 41
0.2032
 70
0
  0
VERTEX
  8
16
 10
261.8282
 20
119.5718
 30
0.0000
 42
1.0000
  0
VERTEX
  8
16
 10
261.9718
 20
119.4282
 30
0.0000
  0
SEQEND
  8
0
  0
POLYLINE
  8
16
 66
1
 10
0.0000
 20
0.0000
 30
0.0000
 40
0.4064
 41
0.4064
 70
0
  0
VERTEX
  8
16
 10
263.3000
 20
120.9000
 30
0.0000
  0
VERTEX
  8
16
 10
263.3000
 20
122.8000
 30
0.0000
  0
SEQEND
  8
0
  0
POLYLINE
  8
16
 66
1
 10
0.0000
 20
0.0000
 30
0.0000
 40
0.2032
 41
0.2032
 70
0
  0
VERTEX
  8
16
 10
263.4016
 20
122.8000
 30
0.0000
 42
1.0000
  0
VERTEX
  8
16
 10
263.1984
 20
122.8000
 30
0.0000
  0
SEQEND
  8
0
  0
POLYLINE
  8
16
 66
1
 10
0.0000
 20
0.0000
 30
0.0000
 40
0.2032
 41
0.2032
 70
0
  0
VERTEX
  8
16
 10
263.1984
 20
120.9000
 30
0.0000
 42
1.0000
  0
VERTEX
  8
16
 10
263.4016
 20
120.9000
 30
0.0000
  0
SEQEND
  8
0
  0
POLYLINE
  8
16
 66
1
 10
0.0000
 20
0.0000
 30
0.0000
 40
0.4064
 41
0.4064
 70
0
  0
VERTEX
  8
16
 10
263.3000
 20
122.8000
 30
0.0000
  0
VERTEX
  8
16
 10
262.0000
 20
124.1000
 30
0.0000
  0
SEQEND
  8
0
  0
POLYLINE
  8
16
 66
1
 10
0.0000
 20
0.0000
 30
0.0000
 40
0.2032
 41
0.2032
 70
0
  0
VERTEX
  8
16
 10
262.0718
 20
124.1718
 30
0.0000
 42
1.0000
  0
VERTEX
  8
16
 10
261.9282
 20
124.0282
 30
0.0000
  0
SEQEND
  8
0
  0
POLYLINE
  8
16
 66
1
 10
0.0000
 20
0.0000
 30
0.0000
 40
0.2032
 41
0.2032
 70
0
  0
VERTEX
  8
16
 10
263.2282
 20
122.7282
 30
0.0000
 42
1.0000
  0
VERTEX
  8
16
 10
263.3718
 20
122.8718
 30
0.0000
  0
SEQEND
  8
0
  0
POLYLINE
  8
16
 66
1
 10
0.0000
 20
0.0000
 30
0.0000
 40
0.4064
 41
0.4064
 70
0
  0
VERTEX
  8
16
 10
262.0000
 20
124.1000
 30
0.0000
  0
VERTEX
  8
16
 10
222.2000
 20
124.1000
 30
0.0000
  0
SEQEND
  8
0
  0
POLYLINE
  8
16
 66
1
 10
0.0000
 20
0.0000
 30
0.0000
 40
0.2032
 41
0.2032
 70
0
  0
VERTEX
  8
16
 10
222.2000
 20
124.2016
 30
0.0000
 42
1.0000
  0
VERTEX
  8
16
 10
222.2000
 20
123.9984
 30
0.0000
  0
SEQEND
  8
0
  0
POLYLINE
  8
16
 66
1
 10
0.0000
 20
0.0000
 30
0.0000
 40
0.2032
 41
0.2032
 70
0
  0
VERTEX
  8
16
 10
262.0000
 20
123.9984
 30
0.0000
 42
1.0000
  0
VERTEX
  8
16
 10
262.0000
 20
124.2016
 30
0.0000
  0
SEQEND
  8
0
  0
POLYLINE
  8
16
 66
1
 10
0.0000
 20
0.0000
 30
0.0000
 40
0.4064
 41
0.4064
 70
0
  0
VERTEX
  8
16
 10
222.2000
 20
124.1000
 30
0.0000
  0
VERTEX
  8
16
 10
220.9000
 20
125.4000
 30
0.0000
  0
SEQEND
  8
0
  0
POLYLINE
  8
16
 66
1
 10
0.0000
 20
0.0000
 30
0.0000
 40
0.2032
 41
0.2032
 70
0
  0
VERTEX
  8
16
 10
220.9718
 20
125.4718
 30
0.0000
 42
1.0000
  0
VERTEX
  8
16
 10
220.8282
 20
125.3282
 30
0.0000
  0
SEQEND
  8
0
  0
POLYLINE
  8
16
 66
1
 10
0.0000
 20
0.0000
 30
0.0000
 40
0.2032
 41
0.2032
 70
0
  0
VERTEX
  8
16
 10
222.1282
 20
124.0282
 30
0.0000
 42
1.0000
  0
VERTEX
  8
16
 10
222.2718
 20
124.1718
 30
0.0000
  0
SEQEND
  8
0
  0
POLYLINE
  8
16
 66
1
 10
0.0000
 20
0.0000
 30
0.0000
 40
0.4064
 41
0.4064
 70
0
  0
VERTEX
  8
16
 10
220.9000
 20
125.4000
 30
0.0000
  0
VERTEX
  8
16
 10
220.9000
 20
126.5000
 30
0.0000
  0
SEQEND
  8
0
  0
POLYLINE
  8
16
 66
1
 10
0.0000
 20
0.0000
 30
0.0000
 40
0.2032
 41
0.2032
 70
0
  0
VERTEX
  8
16
 10
221.0016
 20
126.5000
 30
0.0000
 42
1.0000
  0
VERTEX
  8
16
 10
220.7984
 20
126.5000
 30
0.0000
  0
SEQEND
  8
0
  0
POLYLINE
  8
16
 66
1
 10
0.0000
 20
0.0000
 30
0.0000
 40
0.2032
 41
0.2032
 70
0
  0
VERTEX
  8
16
 10
220.7984
 20
125.4000
 30
0.0000
 42
1.0000
  0
VERTEX
  8
16
 10
221.0016
 20
125.4000
 30
0.0000
  0
SEQEND
  8
0
  0
POLYLINE
  8
16
 66
1
 10
0.0000
 20
0.0000
 30
0.0000
 40
0.4064
 41
0.4064
 70
0
  0
VERTEX
  8
16
 10
287.8000
 20
140.1000
 30
0.0000
  0
VERTEX
  8
16
 10
287.8000
 20
167.0000
 30
0.0000
  0
SEQEND
  8
0
  0
POLYLINE
  8
16
 66
1
 10
0.0000
 20
0.0000
 30
0.0000
 40
0.2032
 41
0.2032
 70
0
  0
VERTEX
  8
16
 10
287.9016
 20
167.0000
 30
0.0000
 42
1.0000
  0
VERTEX
  8
16
 10
287.6984
 20
167.0000
 30
0.0000
  0
SEQEND
  8
0
  0
POLYLINE
  8
16
 66
1
 10
0.0000
 20
0.0000
 30
0.0000
 40
0.2032
 41
0.2032
 70
0
  0
VERTEX
  8
16
 10
287.6984
 20
140.1000
 30
0.0000
 42
1.0000
  0
VERTEX
  8
16
 10
287.9016
 20
140.1000
 30
0.0000
  0
SEQEND
  8
0
  0
POLYLINE
  8
16
 66
1
 10
0.0000
 20
0.0000
 30
0.0000
 40
0.4064
 41
0.4064
 70
0
  0
VERTEX
  8
16
 10
275.2000
 20
127.5000
 30
0.0000
  0
VERTEX
  8
16
 10
287.8000
 20
140.1000
 30
0.0000
  0
SEQEND
  8
0
  0
POLYLINE
  8
16
 66
1
 10
0.0000
 20
0.0000
 30
0.0000
 40
0.2032
 41
0.2032
 70
0
  0
VERTEX
  8
16
 10
287.8718
 20
140.0282
 30
0.0000
 42
1.0000
  0
VERTEX
  8
16
 10
287.7282
 20
140.1718
 30
0.0000
  0
SEQEND
  8
0
  0
POLYLINE
  8
16
 66
1
 10
0.0000
 20
0.0000
 30
0.0000
 40
0.2032
 41
0.2032
 70
0
  0
VERTEX
  8
16
 10
275.1282
 20
127.5718
 30
0.0000
 42
1.0000
  0
VERTEX
  8
16
 10
275.2718
 20
127.4282
 30
0.0000
  0
SEQEND
  8
0
  0
POLYLINE
  8
16
 66
1
 10
0.0000
 20
0.0000
 30
0.0000
 40
0.4064
 41
0.4064
 70
0
  0
VERTEX
  8
16
 10
221.9000
 20
127.5000
 30
0.0000
  0
VERTEX
  8
16
 10
275.2000
 20
127.5000
 30
0.0000
  0
SEQEND
  8
0
  0
POLYLINE
  8
16
 66
1
 10
0.0000
 20
0.0000
 30
0.0000
 40
0.2032
 41
0.2032
 70
0
  0
VERTEX
  8
16
 10
275.2000
 20
127.3984
 30
0.0000
 42
1.0000
  0
VERTEX
  8
16
 10
275.2000
 20
127.6016
 30
0.0000
  0
SEQEND
  8
0
  0
POLYLINE
  8
16
 66
1
 10
0.0000
 20
0.0000
 30
0.0000
 40
0.2032
 41
0.2032
 70
0
  0
VERTEX
  8
16
 10
221.9000
 20
127.6016
 30
0.0000
 42
1.0000
  0
VERTEX
  8
16
 10
221.9000
 20
127.3984
 30
0.0000
  0
SEQEND
  8
0
  0
POLYLINE
  8
16
 66
1
 10
0.0000
 20
0.0000
 30
0.0000
 40
0.4064
 41
0.4064
 70
0
  0
VERTEX
  8
16
 10
220.9000
 20
126.5000
 30
0.0000
  0
VERTEX
  8
16
 10
221.9000
 20
127.5000
 30
0.0000
  0
SEQEND
  8
0
  0
POLYLINE
  8
16
 66
1
 10
0.0000
 20
0.0000
 30
0.0000
 40
0.2032
 41
0.2032
 70
0
  0
VERTEX
  8
16
 10
221.9718
 20
127.4282
 30
0.0000
 42
1.0000
  0
VERTEX
  8
16
 10
221.8282
 20
127.5718
 30
0.0000
  0
SEQEND
  8
0
  0
POLYLINE
  8
16
 66
1
 10
0.0000
 20
0.0000
 30
0.0000
 40
0.2032
 41
0.2032
 70
0
  0
VERTEX
  8
16
 10
220.8282
 20
126.5718
 30
0.0000
 42
1.0000
  0
VERTEX
  8
16
 10
220.9718
 20
126.4282
 30
0.0000
  0
SEQEND
  8
0
  0
POLYLINE
  8
16
 66
1
 10
0.0000
 20
0.0000
 30
0.0000
 40
0.4064
 41
0.4064
 70
0
  0
VERTEX
  8
16
 10
217.6000
 20
75.6000
 30
0.0000
  0
VERTEX
  8
16
 10
217.6000
 20
95.5000
 30
0.0000
  0
SEQEND
  8
0
  0
POLYLINE
  8
16
 66
1
 10
0.0000
 20
0.0000
 30
0.0000
 40
0.2032
 41
0.2032
 70
0
  0
VERTEX
  8
16
 10
217.7016
 20
95.5000
 30
0.0000
 42
1.0000
  0
VERTEX
  8
16
 10
217.4984
 20
95.5000
 30
0.0000
  0
SEQEND
  8
0
  0
POLYLINE
  8
16
 66
1
 10
0.0000
 20
0.0000
 30
0.0000
 40
0.2032
 41
0.2032
 70
0
  0
VERTEX
  8
16
 10
217.4984
 20
75.6000
 30
0.0000
 42
1.0000
  0
VERTEX
  8
16
 10
217.7016
 20
75.6000
 30
0.0000
  0
SEQEND
  8
0
  0
POLYLINE
  8
16
 66
1
 10
0.0000
 20
0.0000
 30
0.0000
 40
0.4064
 41
0.4064
 70
0
  0
VERTEX
  8
16
 10
217.6000
 20
95.5000
 30
0.0000
  0
VERTEX
  8
16
 10
222.0000
 20
99.9000
 30
0.0000
  0
SEQEND
  8
0
  0
POLYLINE
  8
16
 66
1
 10
0.0000
 20
0.0000
 30
0.0000
 40
0.2032
 41
0.2032
 70
0
  0
VERTEX
  8
16
 10
222.0718
 20
99.8282
 30
0.0000
 42
1.0000
  0
VERTEX
  8
16
 10
221.9282
 20
99.9718
 30
0.0000
  0
SEQEND
  8
0
  0
POLYLINE
  8
16
 66
1
 10
0.0000
 20
0.0000
 30
0.0000
 40
0.2032
 41
0.2032
 70
0
  0
VERTEX
  8
16
 10
217.5282
 20
95.5718
 30
0.0000
 42
1.0000
  0
VERTEX
  8
16
 10
217.6718
 20
95.4282
 30
0.0000
  0
SEQEND
  8
0
  0
POLYLINE
  8
16
 66
1
 10
0.0000
 20
0.0000
 30
0.0000
 40
0.4064
 41
0.4064
 70
0
  0
VERTEX
  8
16
 10
222.0000
 20
99.9000
 30
0.0000
  0
VERTEX
  8
16
 10
280.9000
 20
99.9000
 30
0.0000
  0
SEQEND
  8
0
  0
POLYLINE
  8
16
 66
1
 10
0.0000
 20
0.0000
 30
0.0000
 40
0.2032
 41
0.2032
 70
0
  0
VERTEX
  8
16
 10
280.9000
 20
99.7984
 30
0.0000
 42
1.0000
  0
VERTEX
  8
16
 10
280.9000
 20
100.0016
 30
0.0000
  0
SEQEND
  8
0
  0
POLYLINE
  8
16
 66
1
 10
0.0000
 20
0.0000
 30
0.0000
 40
0.2032
 41
0.2032
 70
0
  0
VERTEX
  8
16
 10
222.0000
 20
100.0016
 30
0.0000
 42
1.0000
  0
VERTEX
  8
16
 10
222.0000
 20
99.7984
 30
0.0000
  0
SEQEND
  8
0
  0
POLYLINE
  8
16
 66
1
 10
0.0000
 20
0.0000
 30
0.0000
 40
0.4064
 41
0.4064
 70
0
  0
VERTEX
  8
16
 10
280.9000
 20
99.9000
 30
0.0000
  0
VERTEX
  8
16
 10
283.3000
 20
102.3000
 30
0.0000
  0
SEQEND
  8
0
  0
POLYLINE
  8
16
 66
1
 10
0.0000
 20
0.0000
 30
0.0000
 40
0.2032
 41
0.2032
 70
0
  0
VERTEX
  8
16
 10
283.3718
 20
102.2282
 30
0.0000
 42
1.0000
  0
VERTEX
  8
16
 10
283.2282
 20
102.3718
 30
0.0000
  0
SEQEND
  8
0
  0
POLYLINE
  8
16
 66
1
 10
0.0000
 20
0.0000
 30
0.0000
 40
0.2032
 41
0.2032
 70
0
  0
VERTEX
  8
16
 10
280.8282
 20
99.9718
 30
0.0000
 42
1.0000
  0
VERTEX
  8
16
 10
280.9718
 20
99.8282
 30
0.0000
  0
SEQEND
  8
0
  0
POLYLINE
  8
16
 66
1
 10
0.0000
 20
0.0000
 30
0.0000
 40
0.4064
 41
0.4064
 70
0
  0
VERTEX
  8
16
 10
283.3000
 20
102.3000
 30
0.0000
  0
VERTEX
  8
16
 10
283.3000
 20
105.0000
 30
0.0000
  0
SEQEND
  8
0
  0
POLYLINE
  8
16
 66
1
 10
0.0000
 20
0.0000
 30
0.0000
 40
0.2032
 41
0.2032
 70
0
  0
VERTEX
  8
16
 10
283.4016
 20
105.0000
 30
0.0000
 42
1.0000
  0
VERTEX
  8
16
 10
283.1984
 20
105.0000
 30
0.0000
  0
SEQEND
  8
0
  0
POLYLINE
  8
16
 66
1
 10
0.0000
 20
0.0000
 30
0.0000
 40
0.2032
 41
0.2032
 70
0
  0
VERTEX
  8
16
 10
283.1984
 20
102.3000
 30
0.0000
 42
1.0000
  0
VERTEX
  8
16
 10
283.4016
 20
102.3000
 30
0.0000
  0
SEQEND
  8
0
  0
POLYLINE
  8
16
 66
1
 10
0.0000
 20
0.0000
 30
0.0000
 40
0.4064
 41
0.4064
 70
0
  0
VERTEX
  8
16
 10
283.3000
 20
105.0000
 30
0.0000
  0
VERTEX
  8
16
 10
282.0000
 20
106.3000
 30
0.0000
  0
SEQEND
  8
0
  0
POLYLINE
  8
16
 66
1
 10
0.0000
 20
0.0000
 30
0.0000
 40
0.2032
 41
0.2032
 70
0
  0
VERTEX
  8
16
 10
282.0718
 20
106.3718
 30
0.0000
 42
1.0000
  0
VERTEX
  8
16
 10
281.9282
 20
106.2282
 30
0.0000
  0
SEQEND
  8
0
  0
POLYLINE
  8
16
 66
1
 10
0.0000
 20
0.0000
 30
0.0000
 40
0.2032
 41
0.2032
 70
0
  0
VERTEX
  8
16
 10
283.2282
 20
104.9282
 30
0.0000
 42
1.0000
  0
VERTEX
  8
16
 10
283.3718
 20
105.0718
 30
0.0000
  0
SEQEND
  8
0
  0
POLYLINE
  8
16
 66
1
 10
0.0000
 20
0.0000
 30
0.0000
 40
0.4064
 41
0.4064
 70
0
  0
VERTEX
  8
16
 10
282.0000
 20
106.3000
 30
0.0000
  0
VERTEX
  8
16
 10
222.7000
 20
106.3000
 30
0.0000
  0
SEQEND
  8
0
  0
POLYLINE
  8
16
 66
1
 10
0.0000
 20
0.0000
 30
0.0000
 40
0.2032
 41
0.2032
 70
0
  0
VERTEX
  8
16
 10
222.7000
 20
106.4016
 30
0.0000
 42
1.0000
  0
VERTEX
  8
16
 10
222.7000
 20
106.1984
 30
0.0000
  0
SEQEND
  8
0
  0
POLYLINE
  8
16
 66
1
 10
0.0000
 20
0.0000
 30
0.0000
 40
0.2032
 41
0.2032
 70
0
  0
VERTEX
  8
16
 10
282.0000
 20
106.1984
 30
0.0000
 42
1.0000
  0
VERTEX
  8
16
 10
282.0000
 20
106.4016
 30
0.0000
  0
SEQEND
  8
0
  0
POLYLINE
  8
16
 66
1
 10
0.0000
 20
0.0000
 30
0.0000
 40
0.4064
 41
0.4064
 70
0
  0
VERTEX
  8
16
 10
222.7000
 20
106.3000
 30
0.0000
  0
VERTEX
  8
16
 10
220.8000
 20
108.2000
 30
0.0000
  0
SEQEND
  8
0
  0
POLYLINE
  8
16
 66
1
 10
0.0000
 20
0.0000
 30
0.0000
 40
0.2032
 41
0.2032
 70
0
  0
VERTEX
  8
16
 10
220.8718
 20
108.2718
 30
0.0000
 42
1.0000
  0
VERTEX
  8
16
 10
220.7282
 20
108.1282
 30
0.0000
  0
SEQEND
  8
0
  0
POLYLINE
  8
16
 66
1
 10
0.0000
 20
0.0000
 30
0.0000
 40
0.2032
 41
0.2032
 70
0
  0
VERTEX
  8
16
 10
222.6282
 20
106.2282
 30
0.0000
 42
1.0000
  0
VERTEX
  8
16
 10
222.7718
 20
106.3718
 30
0.0000
  0
SEQEND
  8
0
  0
POLYLINE
  8
16
 66
1
 10
0.0000
 20
0.0000
 30
0.0000
 40
0.4064
 41
0.4064
 70
0
  0
VERTEX
  8
16
 10
220.8000
 20
108.2000
 30
0.0000
  0
VERTEX
  8
16
 10
220.8000
 20
110.8000
 30
0.0000
  0
SEQEND
  8
0
  0
POLYLINE
  8
16
 66
1
 10
0.0000
 20
0.0000
 30
0.0000
 40
0.2032
 41
0.2032
 70
0
  0
VERTEX
  8
16
 10
220.9016
 20
110.8000
 30
0.0000
 42
1.0000
  0
VERTEX
  8
16
 10
220.6984
 20
110.8000
 30
0.0000
  0
SEQEND
  8
0
  0
POLYLINE
  8
16
 66
1
 10
0.0000
 20
0.0000
 30
0.0000
 40
0.2032
 41
0.2032
 70
0
  0
VERTEX
  8
16
 10
220.6984
 20
108.2000
 30
0.0000
 42
1.0000
  0
VERTEX
  8
16
 10
220.9016
 20
108.2000
 30
0.0000
  0
SEQEND
  8
0
  0
POLYLINE
  8
16
 66
1
 10
0.0000
 20
0.0000
 30
0.0000
 40
0.4064
 41
0.4064
 70
0
  0
VERTEX
  8
16
 10
220.8000
 20
110.8000
 30
0.0000
  0
VERTEX
  8
16
 10
221.3000
 20
111.3000
 30
0.0000
  0
SEQEND
  8
0
  0
POLYLINE
  8
16
 66
1
 10
0.0000
 20
0.0000
 30
0.0000
 40
0.2032
 41
0.2032
 70
0
  0
VERTEX
  8
16
 10
221.3718
 20
111.2282
 30
0.0000
 42
1.0000
  0
VERTEX
  8
16
 10
221.2282
 20
111.3718
 30
0.0000
  0
SEQEND
  8
0
  0
POLYLINE
  8
16
 66
1
 10
0.0000
 20
0.0000
 30
0.0000
 40
0.2032
 41
0.2032
 70
0
  0
VERTEX
  8
16
 10
220.7282
 20
110.8718
 30
0.0000
 42
1.0000
  0
VERTEX
  8
16
 10
220.8718
 20
110.7282
 30
0.0000
  0
SEQEND
  8
0
  0
POLYLINE
  8
16
 66
1
 10
0.0000
 20
0.0000
 30
0.0000
 40
0.4064
 41
0.4064
 70
0
  0
VERTEX
  8
16
 10
221.3000
 20
111.3000
 30
0.0000
  0
VERTEX
  8
16
 10
282.0000
 20
111.3000
 30
0.0000
  0
SEQEND
  8
0
  0
POLYLINE
  8
16
 66
1
 10
0.0000
 20
0.0000
 30
0.0000
 40
0.2032
 41
0.2032
 70
0
  0
VERTEX
  8
16
 10
282.0000
 20
111.1984
 30
0.0000
 42
1.0000
  0
VERTEX
  8
16
 10
282.0000
 20
111.4016
 30
0.0000
  0
SEQEND
  8
0
  0
POLYLINE
  8
16
 66
1
 10
0.0000
 20
0.0000
 30
0.0000
 40
0.2032
 41
0.2032
 70
0
  0
VERTEX
  8
16
 10
221.3000
 20
111.4016
 30
0.0000
 42
1.0000
  0
VERTEX
  8
16
 10
221.3000
 20
111.1984
 30
0.0000
  0
SEQEND
  8
0
  0
POLYLINE
  8
16
 66
1
 10
0.0000
 20
0.0000
 30
0.0000
 40
0.4064
 41
0.4064
 70
0
  0
VERTEX
  8
16
 10
282.0000
 20
111.3000
 30
0.0000
  0
VERTEX
  8
16
 10
283.5000
 20
112.8000
 30
0.0000
  0
SEQEND
  8
0
  0
POLYLINE
  8
16
 66
1
 10
0.0000
 20
0.0000
 30
0.0000
 40
0.2032
 41
0.2032
 70
0
  0
VERTEX
  8
16
 10
283.5718
 20
112.7282
 30
0.0000
 42
1.0000
  0
VERTEX
  8
16
 10
283.4282
 20
112.8718
 30
0.0000
  0
SEQEND
  8
0
  0
POLYLINE
  8
16
 66
1
 10
0.0000
 20
0.0000
 30
0.0000
 40
0.2032
 41
0.2032
 70
0
  0
VERTEX
  8
16
 10
281.9282
 20
111.3718
 30
0.0000
 42
1.0000
  0
VERTEX
  8
16
 10
282.0718
 20
111.2282
 30
0.0000
  0
SEQEND
  8
0
  0
POLYLINE
  8
16
 66
1
 10
0.0000
 20
0.0000
 30
0.0000
 40
0.4064
 41
0.4064
 70
0
  0
VERTEX
  8
16
 10
283.5000
 20
112.8000
 30
0.0000
  0
VERTEX
  8
16
 10
283.5000
 20
114.8000
 30
0.0000
  0
SEQEND
  8
0
  0
POLYLINE
  8
16
 66
1
 10
0.0000
 20
0.0000
 30
0.0000
 40
0.2032
 41
0.2032
 70
0
  0
VERTEX
  8
16
 10
283.6016
 20
114.8000
 30
0.0000
 42
1.0000
  0
VERTEX
  8
16
 10
283.3984
 20
114.8000
 30
0.0000
  0
SEQEND
  8
0
  0
POLYLINE
  8
16
 66
1
 10
0.0000
 20
0.0000
 30
0.0000
 40
0.2032
 41
0.2032
 70
0
  0
VERTEX
  8
16
 10
283.3984
 20
112.8000
 30
0.0000
 42
1.0000
  0
VERTEX
  8
16
 10
283.6016
 20
112.8000
 30
0.0000
  0
SEQEND
  8
0
  0
POLYLINE
  8
16
 66
1
 10
0.0000
 20
0.0000
 30
0.0000
 40
0.4064
 41
0.4064
 70
0
  0
VERTEX
  8
16
 10
283.5000
 20
114.8000
 30
0.0000
  0
VERTEX
  8
16
 10
282.6000
 20
115.7000
 30
0.0000
  0
SEQEND
  8
0
  0
POLYLINE
  8
16
 66
1
 10
0.0000
 20
0.0000
 30
0.0000
 40
0.2032
 41
0.2032
 70
0
  0
VERTEX
  8
16
 10
282.6718
 20
115.7718
 30
0.0000
 42
1.0000
  0
VERTEX
  8
16
 10
282.5282
 20
115.6282
 30
0.0000
  0
SEQEND
  8
0
  0
POLYLINE
  8
16
 66
1
 10
0.0000
 20
0.0000
 30
0.0000
 40
0.2032
 41
0.2032
 70
0
  0
VERTEX
  8
16
 10
283.4282
 20
114.7282
 30
0.0000
 42
1.0000
  0
VERTEX
  8
16
 10
283.5718
 20
114.8718
 30
0.0000
  0
SEQEND
  8
0
  0
POLYLINE
  8
16
 66
1
 10
0.0000
 20
0.0000
 30
0.0000
 40
0.4064
 41
0.4064
 70
0
  0
VERTEX
  8
16
 10
282.6000
 20
115.7000
 30
0.0000
  0
VERTEX
  8
16
 10
274.4000
 20
115.7000
 30
0.0000
  0
SEQEND
  8
0
  0
POLYLINE
  8
16
 66
1
 10
0.0000
 20
0.0000
 30
0.0000
 40
0.2032
 41
0.2032
 70
0
  0
VERTEX
  8
16
 10
274.4000
 20
115.8016
 30
0.0000
 42
1.0000
  0
VERTEX
  8
16
 10
274.4000
 20
115.5984
 30
0.0000
  0
SEQEND
  8
0
  0
POLYLINE
  8
16
 66
1
 10
0.0000
 20
0.0000
 30
0.0000
 40
0.2032
 41
0.2032
 70
0
  0
VERTEX
  8
16
 10
282.6000
 20
115.5984
 30
0.0000
 42
1.0000
  0
VERTEX
  8
16
 10
282.6000
 20
115.8016
 30
0.0000
  0
SEQEND
  8
0
  0
POLYLINE
  8
16
 66
1
 10
0.0000
 20
0.0000
 30
0.0000
 40
0.4064
 41
0.4064
 70
0
  0
VERTEX
  8
16
 10
274.4000
 20
115.7000
 30
0.0000
  0
VERTEX
  8
16
 10
273.0000
 20
117.1000
 30
0.0000
  0
SEQEND
  8
0
  0
POLYLINE
  8
16
 66
1
 10
0.0000
 20
0.0000
 30
0.0000
 40
0.2032
 41
0.2032
 70
0
  0
VERTEX
  8
16
 10
273.0718
 20
117.1718
 30
0.0000
 42
1.0000
  0
VERTEX
  8
16
 10
272.9282
 20
117.0282
 30
0.0000
  0
SEQEND
  8
0
  0
POLYLINE
  8
16
 66
1
 10
0.0000
 20
0.0000
 30
0.0000
 40
0.2032
 41
0.2032
 70
0
  0
VERTEX
  8
16
 10
274.3282
 20
115.6282
 30
0.0000
 42
1.0000
  0
VERTEX
  8
16
 10
274.4718
 20
115.7718
 30
0.0000
  0
SEQEND
  8
0
  0
POLYLINE
  8
16
 66
1
 10
0.0000
 20
0.0000
 30
0.0000
 40
0.4064
 41
0.4064
 70
0
  0
VERTEX
  8
16
 10
273.0000
 20
117.1000
 30
0.0000
  0
VERTEX
  8
16
 10
273.0000
 20
118.2000
 30
0.0000
  0
SEQEND
  8
0
  0
POLYLINE
  8
16
 66
1
 10
0.0000
 20
0.0000
 30
0.0000
 40
0.2032
 41
0.2032
 70
0
  0
VERTEX
  8
16
 10
273.1016
 20
118.2000
 30
0.0000
 42
1.0000
  0
VERTEX
  8
16
 10
272.8984
 20
118.2000
 30
0.0000
  0
SEQEND
  8
0
  0
POLYLINE
  8
16
 66
1
 10
0.0000
 20
0.0000
 30
0.0000
 40
0.2032
 41
0.2032
 70
0
  0
VERTEX
  8
16
 10
272.8984
 20
117.1000
 30
0.0000
 42
1.0000
  0
VERTEX
  8
16
 10
273.1016
 20
117.1000
 30
0.0000
  0
SEQEND
  8
0
  0
POLYLINE
  8
16
 66
1
 10
0.0000
 20
0.0000
 30
0.0000
 40
0.4064
 41
0.4064
 70
0
  0
VERTEX
  8
16
 10
273.0000
 20
118.2000
 30
0.0000
  0
VERTEX
  8
16
 10
274.3000
 20
119.5000
 30
0.0000
  0
SEQEND
  8
0
  0
POLYLINE
  8
16
 66
1
 10
0.0000
 20
0.0000
 30
0.0000
 40
0.2032
 41
0.2032
 70
0
  0
VERTEX
  8
16
 10
274.3718
 20
119.4282
 30
0.0000
 42
1.0000
  0
VERTEX
  8
16
 10
274.2282
 20
119.5718
 30
0.0000
  0
SEQEND
  8
0
  0
POLYLINE
  8
16
 66
1
 10
0.0000
 20
0.0000
 30
0.0000
 40
0.2032
 41
0.2032
 70
0
  0
VERTEX
  8
16
 10
272.9282
 20
118.2718
 30
0.0000
 42
1.0000
  0
VERTEX
  8
16
 10
273.0718
 20
118.1282
 30
0.0000
  0
SEQEND
  8
0
  0
POLYLINE
  8
16
 66
1
 10
0.0000
 20
0.0000
 30
0.0000
 40
0.4064
 41
0.4064
 70
0
  0
VERTEX
  8
16
 10
274.3000
 20
119.5000
 30
0.0000
  0
VERTEX
  8
16
 10
282.7000
 20
119.5000
 30
0.0000
  0
SEQEND
  8
0
  0
POLYLINE
  8
16
 66
1
 10
0.0000
 20
0.0000
 30
0.0000
 40
0.2032
 41
0.2032
 70
0
  0
VERTEX
  8
16
 10
282.7000
 20
119.3984
 30
0.0000
 42
1.0000
  0
VERTEX
  8
16
 10
282.7000
 20
119.6016
 30
0.0000
  0
SEQEND
  8
0
  0
POLYLINE
  8
16
 66
1
 10
0.0000
 20
0.0000
 30
0.0000
 40
0.2032
 41
0.2032
 70
0
  0
VERTEX
  8
16
 10
274.3000
 20
119.6016
 30
0.0000
 42
1.0000
  0
VERTEX
  8
16
 10
274.3000
 20
119.3984
 30
0.0000
  0
SEQEND
  8
0
  0
POLYLINE
  8
16
 66
1
 10
0.0000
 20
0.0000
 30
0.0000
 40
0.4064
 41
0.4064
 70
0
  0
VERTEX
  8
16
 10
282.7000
 20
119.5000
 30
0.0000
  0
VERTEX
  8
16
 10
284.1000
 20
120.9000
 30
0.0000
  0
SEQEND
  8
0
  0
POLYLINE
  8
16
 66
1
 10
0.0000
 20
0.0000
 30
0.0000
 40
0.2032
 41
0.2032
 70
0
  0
VERTEX
  8
16
 10
284.1718
 20
120.8282
 30
0.0000
 42
1.0000
  0
VERTEX
  8
16
 10
284.0282
 20
120.9718
 30
0.0000
  0
SEQEND
  8
0
  0
POLYLINE
  8
16
 66
1
 10
0.0000
 20
0.0000
 30
0.0000
 40
0.2032
 41
0.2032
 70
0
  0
VERTEX
  8
16
 10
282.6282
 20
119.5718
 30
0.0000
 42
1.0000
  0
VERTEX
  8
16
 10
282.7718
 20
119.4282
 30
0.0000
  0
SEQEND
  8
0
  0
POLYLINE
  8
16
 66
1
 10
0.0000
 20
0.0000
 30
0.0000
 40
0.4064
 41
0.4064
 70
0
  0
VERTEX
  8
16
 10
284.1000
 20
120.9000
 30
0.0000
  0
VERTEX
  8
16
 10
284.1000
 20
121.9000
 30
0.0000
  0
SEQEND
  8
0
  0
POLYLINE
  8
16
 66
1
 10
0.0000
 20
0.0000
 30
0.0000
 40
0.2032
 41
0.2032
 70
0
  0
VERTEX
  8
16
 10
284.2016
 20
121.9000
 30
0.0000
 42
1.0000
  0
VERTEX
  8
16
 10
283.9984
 20
121.9000
 30
0.0000
  0
SEQEND
  8
0
  0
POLYLINE
  8
16
 66
1
 10
0.0000
 20
0.0000
 30
0.0000
 40
0.2032
 41
0.2032
 70
0
  0
VERTEX
  8
16
 10
283.9984
 20
120.9000
 30
0.0000
 42
1.0000
  0
VERTEX
  8
16
 10
284.2016
 20
120.9000
 30
0.0000
  0
SEQEND
  8
0
  0
POLYLINE
  8
16
 66
1
 10
0.0000
 20
0.0000
 30
0.0000
 40
0.4064
 41
0.4064
 70
0
  0
VERTEX
  8
16
 10
284.1000
 20
121.9000
 30
0.0000
  0
VERTEX
  8
16
 10
283.4000
 20
122.6000
 30
0.0000
  0
SEQEND
  8
0
  0
POLYLINE
  8
16
 66
1
 10
0.0000
 20
0.0000
 30
0.0000
 40
0.2032
 41
0.2032
 70
0
  0
VERTEX
  8
16
 10
283.4718
 20
122.6718
 30
0.0000
 42
1.0000
  0
VERTEX
  8
16
 10
283.3282
 20
122.5282
 30
0.0000
  0
SEQEND
  8
0
  0
POLYLINE
  8
16
 66
1
 10
0.0000
 20
0.0000
 30
0.0000
 40
0.2032
 41
0.2032
 70
0
  0
VERTEX
  8
16
 10
284.0282
 20
121.8282
 30
0.0000
 42
1.0000
  0
VERTEX
  8
16
 10
284.1718
 20
121.9718
 30
0.0000
  0
SEQEND
  8
0
  0
POLYLINE
  8
16
 66
1
 10
0.0000
 20
0.0000
 30
0.0000
 40
0.4064
 41
0.4064
 70
0
  0
VERTEX
  8
16
 10
283.4000
 20
122.6000
 30
0.0000
  0
VERTEX
  8
16
 10
278.6000
 20
122.6000
 30
0.0000
  0
SEQEND
  8
0
  0
POLYLINE
  8
16
 66
1
 10
0.0000
 20
0.0000
 30
0.0000
 40
0.2032
 41
0.2032
 70
0
  0
VERTEX
  8
16
 10
278.6000
 20
122.7016
 30
0.0000
 42
1.0000
  0
VERTEX
  8
16
 10
278.6000
 20
122.4984
 30
0.0000
  0
SEQEND
  8
0
  0
POLYLINE
  8
16
 66
1
 10
0.0000
 20
0.0000
 30
0.0000
 40
0.2032
 41
0.2032
 70
0
  0
VERTEX
  8
16
 10
283.4000
 20
122.4984
 30
0.0000
 42
1.0000
  0
VERTEX
  8
16
 10
283.4000
 20
122.7016
 30
0.0000
  0
SEQEND
  8
0
  0
POLYLINE
  8
16
 66
1
 10
0.0000
 20
0.0000
 30
0.0000
 40
0.4064
 41
0.4064
 70
0
  0
VERTEX
  8
16
 10
278.6000
 20
122.6000
 30
0.0000
  0
VERTEX
  8
16
 10
277.5000
 20
123.7000
 30
0.0000
  0
SEQEND
  8
0
  0
POLYLINE
  8
16
 66
1
 10
0.0000
 20
0.0000
 30
0.0000
 40
0.2032
 41
0.2032
 70
0
  0
VERTEX
  8
16
 10
277.5718
 20
123.7718
 30
0.0000
 42
1.0000
  0
VERTEX
  8
16
 10
277.4282
 20
123.6282
 30
0.0000
  0
SEQEND
  8
0
  0
POLYLINE
  8
16
 66
1
 10
0.0000
 20
0.0000
 30
0.0000
 40
0.2032
 41
0.2032
 70
0
  0
VERTEX
  8
16
 10
278.5282
 20
122.5282
 30
0.0000
 42
1.0000
  0
VERTEX
  8
16
 10
278.6718
 20
122.6718
 30
0.0000
  0
SEQEND
  8
0
  0
POLYLINE
  8
16
 66
1
 10
0.0000
 20
0.0000
 30
0.0000
 40
0.4064
 41
0.4064
 70
0
  0
VERTEX
  8
16
 10
277.5000
 20
123.7000
 30
0.0000
  0
VERTEX
  8
16
 10
277.5000
 20
124.8000
 30
0.0000
  0
SEQEND
  8
0
  0
POLYLINE
  8
16
 66
1
 10
0.0000
 20
0.0000
 30
0.0000
 40
0.2032
 41
0.2032
 70
0
  0
VERTEX
  8
16
 10
277.6016
 20
124.8000
 30
0.0000
 42
1.0000
  0
VERTEX
  8
16
 10
277.3984
 20
124.8000
 30
0.0000
  0
SEQEND
  8
0
  0
POLYLINE
  8
16
 66
1
 10
0.0000
 20
0.0000
 30
0.0000
 40
0.2032
 41
0.2032
 70
0
  0
VERTEX
  8
16
 10
277.3984
 20
123.7000
 30
0.0000
 42
1.0000
  0
VERTEX
  8
16
 10
277.6016
 20
123.7000
 30
0.0000
  0
SEQEND
  8
0
  0
POLYLINE
  8
16
 66
1
 10
0.0000
 20
0.0000
 30
0.0000
 40
0.4064
 41
0.4064
 70
0
  0
VERTEX
  8
16
 10
277.5000
 20
124.8000
 30
0.0000
  0
VERTEX
  8
16
 10
278.5000
 20
125.8000
 30
0.0000
  0
SEQEND
  8
0
  0
POLYLINE
  8
16
 66
1
 10
0.0000
 20
0.0000
 30
0.0000
 40
0.2032
 41
0.2032
 70
0
  0
VERTEX
  8
16
 10
278.5718
 20
125.7282
 30
0.0000
 42
1.0000
  0
VERTEX
  8
16
 10
278.4282
 20
125.8718
 30
0.0000
  0
SEQEND
  8
0
  0
POLYLINE
  8
16
 66
1
 10
0.0000
 20
0.0000
 30
0.0000
 40
0.2032
 41
0.2032
 70
0
  0
VERTEX
  8
16
 10
277.4282
 20
124.8718
 30
0.0000
 42
1.0000
  0
VERTEX
  8
16
 10
277.5718
 20
124.7282
 30
0.0000
  0
SEQEND
  8
0
  0
POLYLINE
  8
16
 66
1
 10
0.0000
 20
0.0000
 30
0.0000
 40
0.4064
 41
0.4064
 70
0
  0
VERTEX
  8
16
 10
278.5000
 20
125.8000
 30
0.0000
  0
VERTEX
  8
16
 10
290.6000
 20
125.8000
 30
0.0000
  0
SEQEND
  8
0
  0
POLYLINE
  8
16
 66
1
 10
0.0000
 20
0.0000
 30
0.0000
 40
0.2032
 41
0.2032
 70
0
  0
VERTEX
  8
16
 10
290.6000
 20
125.6984
 30
0.0000
 42
1.0000
  0
VERTEX
  8
16
 10
290.6000
 20
125.9016
 30
0.0000
  0
SEQEND
  8
0
  0
POLYLINE
  8
16
 66
1
 10
0.0000
 20
0.0000
 30
0.0000
 40
0.2032
 41
0.2032
 70
0
  0
VERTEX
  8
16
 10
278.5000
 20
125.9016
 30
0.0000
 42
1.0000
  0
VERTEX
  8
16
 10
278.5000
 20
125.6984
 30
0.0000
  0
SEQEND
  8
0
  0
POLYLINE
  8
16
 66
1
 10
0.0000
 20
0.0000
 30
0.0000
 40
0.4064
 41
0.4064
 70
0
  0
VERTEX
  8
16
 10
290.6000
 20
125.8000
 30
0.0000
  0
VERTEX
  8
16
 10
291.7000
 20
126.9000
 30
0.0000
  0
SEQEND
  8
0
  0
POLYLINE
  8
16
 66
1
 10
0.0000
 20
0.0000
 30
0.0000
 40
0.2032
 41
0.2032
 70
0
  0
VERTEX
  8
16
 10
291.7718
 20
126.8282
 30
0.0000
 42
1.0000
  0
VERTEX
  8
16
 10
291.6282
 20
126.9718
 30
0.0000
  0
SEQEND
  8
0
  0
POLYLINE
  8
16
 66
1
 10
0.0000
 20
0.0000
 30
0.0000
 40
0.2032
 41
0.2032
 70
0
  0
VERTEX
  8
16
 10
290.5282
 20
125.8718
 30
0.0000
 42
1.0000
  0
VERTEX
  8
16
 10
290.6718
 20
125.7282
 30
0.0000
  0
SEQEND
  8
0
  0
POLYLINE
  8
16
 66
1
 10
0.0000
 20
0.0000
 30
0.0000
 40
0.4064
 41
0.4064
 70
0
  0
VERTEX
  8
16
 10
291.7000
 20
126.9000
 30
0.0000
  0
VERTEX
  8
16
 10
291.7000
 20
128.4000
 30
0.0000
  0
SEQEND
  8
0
  0
POLYLINE
  8
16
 66
1
 10
0.0000
 20
0.0000
 30
0.0000
 40
0.2032
 41
0.2032
 70
0
  0
VERTEX
  8
16
 10
291.8016
 20
128.4000
 30
0.0000
 42
1.0000
  0
VERTEX
  8
16
 10
291.5984
 20
128.4000
 30
0.0000
  0
SEQEND
  8
0
  0
POLYLINE
  8
16
 66
1
 10
0.0000
 20
0.0000
 30
0.0000
 40
0.2032
 41
0.2032
 70
0
  0
VERTEX
  8
16
 10
291.5984
 20
126.9000
 30
0.0000
 42
1.0000
  0
VERTEX
  8
16
 10
291.8016
 20
126.9000
 30
0.0000
  0
SEQEND
  8
0
  0
POLYLINE
  8
16
 66
1
 10
0.0000
 20
0.0000
 30
0.0000
 40
0.4064
 41
0.4064
 70
0
  0
VERTEX
  8
16
 10
291.7000
 20
128.4000
 30
0.0000
  0
VERTEX
  8
16
 10
290.6000
 20
129.5000
 30
0.0000
  0
SEQEND
  8
0
  0
POLYLINE
  8
16
 66
1
 10
0.0000
 20
0.0000
 30
0.0000
 40
0.2032
 41
0.2032
 70
0
  0
VERTEX
  8
16
 10
290.6718
 20
129.5718
 30
0.0000
 42
1.0000
  0
VERTEX
  8
16
 10
290.5282
 20
129.4282
 30
0.0000
  0
SEQEND
  8
0
  0
POLYLINE
  8
16
 66
1
 10
0.0000
 20
0.0000
 30
0.0000
 40
0.2032
 41
0.2032
 70
0
  0
VERTEX
  8
16
 10
291.6282
 20
128.3282
 30
0.0000
 42
1.0000
  0
VERTEX
  8
16
 10
291.7718
 20
128.4718
 30
0.0000
  0
SEQEND
  8
0
  0
POLYLINE
  8
16
 66
1
 10
0.0000
 20
0.0000
 30
0.0000
 40
0.4064
 41
0.4064
 70
0
  0
VERTEX
  8
16
 10
290.6000
 20
129.5000
 30
0.0000
  0
VERTEX
  8
16
 10
281.5000
 20
129.5000
 30
0.0000
  0
SEQEND
  8
0
  0
POLYLINE
  8
16
 66
1
 10
0.0000
 20
0.0000
 30
0.0000
 40
0.2032
 41
0.2032
 70
0
  0
VERTEX
  8
16
 10
281.5000
 20
129.6016
 30
0.0000
 42
1.0000
  0
VERTEX
  8
16
 10
281.5000
 20
129.3984
 30
0.0000
  0
SEQEND
  8
0
  0
POLYLINE
  8
16
 66
1
 10
0.0000
 20
0.0000
 30
0.0000
 40
0.2032
 41
0.2032
 70
0
  0
VERTEX
  8
16
 10
290.6000
 20
129.3984
 30
0.0000
 42
1.0000
  0
VERTEX
  8
16
 10
290.6000
 20
129.6016
 30
0.0000
  0
SEQEND
  8
0
  0
POLYLINE
  8
16
 66
1
 10
0.0000
 20
0.0000
 30
0.0000
 40
0.4064
 41
0.4064
 70
0
  0
VERTEX
  8
16
 10
281.5000
 20
129.5000
 30
0.0000
  0
VERTEX
  8
16
 10
280.5000
 20
130.5000
 30
0.0000
  0
SEQEND
  8
0
  0
POLYLINE
  8
16
 66
1
 10
0.0000
 20
0.0000
 30
0.0000
 40
0.2032
 41
0.2032
 70
0
  0
VERTEX
  8
16
 10
280.5718
 20
130.5718
 30
0.0000
 42
1.0000
  0
VERTEX
  8
16
 10
280.4282
 20
130.4282
 30
0.0000
  0
SEQEND
  8
0
  0
POLYLINE
  8
16
 66
1
 10
0.0000
 20
0.0000
 30
0.0000
 40
0.2032
 41
0.2032
 70
0
  0
VERTEX
  8
16
 10
281.4282
 20
129.4282
 30
0.0000
 42
1.0000
  0
VERTEX
  8
16
 10
281.5718
 20
129.5718
 30
0.0000
  0
SEQEND
  8
0
  0
POLYLINE
  8
16
 66
1
 10
0.0000
 20
0.0000
 30
0.0000
 40
0.4064
 41
0.4064
 70
0
  0
VERTEX
  8
16
 10
280.5000
 20
130.5000
 30
0.0000
  0
VERTEX
  8
16
 10
280.5000
 20
131.0000
 30
0.0000
  0
SEQEND
  8
0
  0
POLYLINE
  8
16
 66
1
 10
0.0000
 20
0.0000
 30
0.0000
 40
0.2032
 41
0.2032
 70
0
  0
VERTEX
  8
16
 10
280.6016
 20
131.0000
 30
0.0000
 42
1.0000
  0
VERTEX
  8
16
 10
280.3984
 20
131.0000
 30
0.0000
  0
SEQEND
  8
0
  0
POLYLINE
  8
16
 66
1
 10
0.0000
 20
0.0000
 30
0.0000
 40
0.2032
 41
0.2032
 70
0
  0
VERTEX
  8
16
 10
280.3984
 20
130.5000
 30
0.0000
 42
1.0000
  0
VERTEX
  8
16
 10
280.6016
 20
130.5000
 30
0.0000
  0
SEQEND
  8
0
  0
POLYLINE
  8
16
 66
1
 10
0.0000
 20
0.0000
 30
0.0000
 40
0.4064
 41
0.4064
 70
0
  0
VERTEX
  8
16
 10
280.5000
 20
131.0000
 30
0.0000
  0
VERTEX
  8
16
 10
283.1000
 20
133.6000
 30
0.0000
  0
SEQEND
  8
0
  0
POLYLINE
  8
16
 66
1
 10
0.0000
 20
0.0000
 30
0.0000
 40
0.2032
 41
0.2032
 70
0
  0
VERTEX
  8
16
 10
283.1718
 20
133.5282
 30
0.0000
 42
1.0000
  0
VERTEX
  8
16
 10
283.0282
 20
133.6718
 30
0.0000
  0
SEQEND
  8
0
  0
POLYLINE
  8
16
 66
1
 10
0.0000
 20
0.0000
 30
0.0000
 40
0.2032
 41
0.2032
 70
0
  0
VERTEX
  8
16
 10
280.4282
 20
131.0718
 30
0.0000
 42
1.0000
  0
VERTEX
  8
16
 10
280.5718
 20
130.9282
 30
0.0000
  0
SEQEND
  8
0
  0
POLYLINE
  8
16
 66
1
 10
0.0000
 20
0.0000
 30
0.0000
 40
0.4064
 41
0.4064
 70
0
  0
VERTEX
  8
16
 10
283.1000
 20
133.6000
 30
0.0000
  0
VERTEX
  8
16
 10
288.7000
 20
133.6000
 30
0.0000
  0
SEQEND
  8
0
  0
POLYLINE
  8
16
 66
1
 10
0.0000
 20
0.0000
 30
0.0000
 40
0.2032
 41
0.2032
 70
0
  0
VERTEX
  8
16
 10
288.7000
 20
133.4984
 30
0.0000
 42
1.0000
  0
VERTEX
  8
16
 10
288.7000
 20
133.7016
 30
0.0000
  0
SEQEND
  8
0
  0
POLYLINE
  8
16
 66
1
 10
0.0000
 20
0.0000
 30
0.0000
 40
0.2032
 41
0.2032
 70
0
  0
VERTEX
  8
16
 10
283.1000
 20
133.7016
 30
0.0000
 42
1.0000
  0
VERTEX
  8
16
 10
283.1000
 20
133.4984
 30
0.0000
  0
SEQEND
  8
0
  0
POLYLINE
  8
16
 66
1
 10
0.0000
 20
0.0000
 30
0.0000
 40
0.4064
 41
0.4064
 70
0
  0
VERTEX
  8
16
 10
290.3300
 20
135.2300
 30
0.0000
  0
VERTEX
  8
16
 10
290.3300
 20
167.0100
 30
0.0000
  0
SEQEND
  8
0
  0
POLYLINE
  8
16
 66
1
 10
0.0000
 20
0.0000
 30
0.0000
 40
0.2032
 41
0.2032
 70
0
  0
VERTEX
  8
16
 10
290.4316
 20
167.0100
 30
0.0000
 42
1.0000
  0
VERTEX
  8
16
 10
290.2284
 20
167.0100
 30
0.0000
  0
SEQEND
  8
0
  0
POLYLINE
  8
16
 66
1
 10
0.0000
 20
0.0000
 30
0.0000
 40
0.2032
 41
0.2032
 70
0
  0
VERTEX
  8
16
 10
290.2284
 20
135.2300
 30
0.0000
 42
1.0000
  0
VERTEX
  8
16
 10
290.4316
 20
135.2300
 30
0.0000
  0
SEQEND
  8
0
  0
POLYLINE
  8
16
 66
1
 10
0.0000
 20
0.0000
 30
0.0000
 40
0.4064
 41
0.4064
 70
0
  0
VERTEX
  8
16
 10
288.7000
 20
133.6000
 30
0.0000
  0
VERTEX
  8
16
 10
290.3300
 20
135.2300
 30
0.0000
  0
SEQEND
  8
0
  0
POLYLINE
  8
16
 66
1
 10
0.0000
 20
0.0000
 30
0.0000
 40
0.2032
 41
0.2032
 70
0
  0
VERTEX
  8
16
 10
290.4018
 20
135.1582
 30
0.0000
 42
1.0000
  0
VERTEX
  8
16
 10
290.2582
 20
135.3018
 30
0.0000
  0
SEQEND
  8
0
  0
POLYLINE
  8
16
 66
1
 10
0.0000
 20
0.0000
 30
0.0000
 40
0.2032
 41
0.2032
 70
0
  0
VERTEX
  8
16
 10
288.6282
 20
133.6718
 30
0.0000
 42
1.0000
  0
VERTEX
  8
16
 10
288.7718
 20
133.5282
 30
0.0000
  0
SEQEND
  8
0
  0
POLYLINE
  8
16
 66
1
 10
0.0000
 20
0.0000
 30
0.0000
 40
0.4064
 41
0.4064
 70
0
  0
VERTEX
  8
16
 10
118.6000
 20
180.5000
 30
0.0000
  0
VERTEX
  8
16
 10
118.6000
 20
155.0000
 30
0.0000
  0
SEQEND
  8
0
  0
POLYLINE
  8
16
 66
1
 10
0.0000
 20
0.0000
 30
0.0000
 40
0.2032
 41
0.2032
 70
0
  0
VERTEX
  8
16
 10
118.4984
 20
155.0000
 30
0.0000
 42
1.0000
  0
VERTEX
  8
16
 10
118.7016
 20
155.0000
 30
0.0000
  0
SEQEND
  8
0
  0
POLYLINE
  8
16
 66
1
 10
0.0000
 20
0.0000
 30
0.0000
 40
0.2032
 41
0.2032
 70
0
  0
VERTEX
  8
16
 10
118.7016
 20
180.5000
 30
0.0000
 42
1.0000
  0
VERTEX
  8
16
 10
118.4984
 20
180.5000
 30
0.0000
  0
SEQEND
  8
0
  0
POLYLINE
  8
16
 66
1
 10
0.0000
 20
0.0000
 30
0.0000
 40
0.4064
 41
0.4064
 70
0
  0
VERTEX
  8
16
 10
118.6000
 20
155.0000
 30
0.0000
  0
VERTEX
  8
16
 10
123.9000
 20
149.7000
 30
0.0000
  0
SEQEND
  8
0
  0
POLYLINE
  8
16
 66
1
 10
0.0000
 20
0.0000
 30
0.0000
 40
0.2032
 41
0.2032
 70
0
  0
VERTEX
  8
16
 10
123.8282
 20
149.6282
 30
0.0000
 42
1.0000
  0
VERTEX
  8
16
 10
123.9718
 20
149.7718
 30
0.0000
  0
SEQEND
  8
0
  0
POLYLINE
  8
16
 66
1
 10
0.0000
 20
0.0000
 30
0.0000
 40
0.2032
 41
0.2032
 70
0
  0
VERTEX
  8
16
 10
118.6718
 20
155.0718
 30
0.0000
 42
1.0000
  0
VERTEX
  8
16
 10
118.5282
 20
154.9282
 30
0.0000
  0
SEQEND
  8
0
  0
POLYLINE
  8
16
 66
1
 10
0.0000
 20
0.0000
 30
0.0000
 40
0.4064
 41
0.4064
 70
0
  0
VERTEX
  8
16
 10
123.9000
 20
149.7000
 30
0.0000
  0
VERTEX
  8
16
 10
180.1000
 20
149.7000
 30
0.0000
  0
SEQEND
  8
0
  0
POLYLINE
  8
16
 66
1
 10
0.0000
 20
0.0000
 30
0.0000
 40
0.2032
 41
0.2032
 70
0
  0
VERTEX
  8
16
 10
180.1000
 20
149.5984
 30
0.0000
 42
1.0000
  0
VERTEX
  8
16
 10
180.1000
 20
149.8016
 30
0.0000
  0
SEQEND
  8
0
  0
POLYLINE
  8
16
 66
1
 10
0.0000
 20
0.0000
 30
0.0000
 40
0.2032
 41
0.2032
 70
0
  0
VERTEX
  8
16
 10
123.9000
 20
149.8016
 30
0.0000
 42
1.0000
  0
VERTEX
  8
16
 10
123.9000
 20
149.5984
 30
0.0000
  0
SEQEND
  8
0
  0
POLYLINE
  8
16
 66
1
 10
0.0000
 20
0.0000
 30
0.0000
 40
0.4064
 41
0.4064
 70
0
  0
VERTEX
  8
16
 10
180.1000
 20
149.7000
 30
0.0000
  0
VERTEX
  8
16
 10
182.2000
 20
151.8000
 30
0.0000
  0
SEQEND
  8
0
  0
POLYLINE
  8
16
 66
1
 10
0.0000
 20
0.0000
 30
0.0000
 40
0.2032
 41
0.2032
 70
0
  0
VERTEX
  8
16
 10
182.2718
 20
151.7282
 30
0.0000
 42
1.0000
  0
VERTEX
  8
16
 10
182.1282
 20
151.8718
 30
0.0000
  0
SEQEND
  8
0
  0
POLYLINE
  8
16
 66
1
 10
0.0000
 20
0.0000
 30
0.0000
 40
0.2032
 41
0.2032
 70
0
  0
VERTEX
  8
16
 10
180.0282
 20
149.7718
 30
0.0000
 42
1.0000
  0
VERTEX
  8
16
 10
180.1718
 20
149.6282
 30
0.0000
  0
SEQEND
  8
0
  0
POLYLINE
  8
16
 66
1
 10
0.0000
 20
0.0000
 30
0.0000
 40
0.4064
 41
0.4064
 70
0
  0
VERTEX
  8
16
 10
182.2000
 20
151.8000
 30
0.0000
  0
VERTEX
  8
16
 10
182.2000
 20
155.3000
 30
0.0000
  0
SEQEND
  8
0
  0
POLYLINE
  8
16
 66
1
 10
0.0000
 20
0.0000
 30
0.0000
 40
0.2032
 41
0.2032
 70
0
  0
VERTEX
  8
16
 10
182.3016
 20
155.3000
 30
0.0000
 42
1.0000
  0
VERTEX
  8
16
 10
182.0984
 20
155.3000
 30
0.0000
  0
SEQEND
  8
0
  0
POLYLINE
  8
16
 66
1
 10
0.0000
 20
0.0000
 30
0.0000
 40
0.2032
 41
0.2032
 70
0
  0
VERTEX
  8
16
 10
182.0984
 20
151.8000
 30
0.0000
 42
1.0000
  0
VERTEX
  8
16
 10
182.3016
 20
151.8000
 30
0.0000
  0
SEQEND
  8
0
  0
POLYLINE
  8
16
 66
1
 10
0.0000
 20
0.0000
 30
0.0000
 40
0.4064
 41
0.4064
 70
0
  0
VERTEX
  8
16
 10
182.2000
 20
155.3000
 30
0.0000
  0
VERTEX
  8
16
 10
180.7000
 20
156.8000
 30
0.0000
  0
SEQEND
  8
0
  0
POLYLINE
  8
16
 66
1
 10
0.0000
 20
0.0000
 30
0.0000
 40
0.2032
 41
0.2032
 70
0
  0
VERTEX
  8
16
 10
180.7718
 20
156.8718
 30
0.0000
 42
1.0000
  0
VERTEX
  8
16
 10
180.6282
 20
156.7282
 30
0.0000
  0
SEQEND
  8
0
  0
POLYLINE
  8
16
 66
1
 10
0.0000
 20
0.0000
 30
0.0000
 40
0.2032
 41
0.2032
 70
0
  0
VERTEX
  8
16
 10
182.1282
 20
155.2282
 30
0.0000
 42
1.0000
  0
VERTEX
  8
16
 10
182.2718
 20
155.3718
 30
0.0000
  0
SEQEND
  8
0
  0
POLYLINE
  8
16
 66
1
 10
0.0000
 20
0.0000
 30
0.0000
 40
0.4064
 41
0.4064
 70
0
  0
VERTEX
  8
16
 10
180.7000
 20
156.8000
 30
0.0000
  0
VERTEX
  8
16
 10
133.6000
 20
156.8000
 30
0.0000
  0
SEQEND
  8
0
  0
POLYLINE
  8
16
 66
1
 10
0.0000
 20
0.0000
 30
0.0000
 40
0.2032
 41
0.2032
 70
0
  0
VERTEX
  8
16
 10
133.6000
 20
156.9016
 30
0.0000
 42
1.0000
  0
VERTEX
  8
16
 10
133.6000
 20
156.6984
 30
0.0000
  0
SEQEND
  8
0
  0
POLYLINE
  8
16
 66
1
 10
0.0000
 20
0.0000
 30
0.0000
 40
0.2032
 41
0.2032
 70
0
  0
VERTEX
  8
16
 10
180.7000
 20
156.6984
 30
0.0000
 42
1.0000
  0
VERTEX
  8
16
 10
180.7000
 20
156.9016
 30
0.0000
  0
SEQEND
  8
0
  0
POLYLINE
  8
16
 66
1
 10
0.0000
 20
0.0000
 30
0.0000
 40
0.4064
 41
0.4064
 70
0
  0
VERTEX
  8
16
 10
133.6000
 20
156.8000
 30
0.0000
  0
VERTEX
  8
16
 10
131.5000
 20
158.9000
 30
0.0000
  0
SEQEND
  8
0
  0
POLYLINE
  8
16
 66
1
 10
0.0000
 20
0.0000
 30
0.0000
 40
0.2032
 41
0.2032
 70
0
  0
VERTEX
  8
16
 10
131.5718
 20
158.9718
 30
0.0000
 42
1.0000
  0
VERTEX
  8
16
 10
131.4282
 20
158.8282
 30
0.0000
  0
SEQEND
  8
0
  0
POLYLINE
  8
16
 66
1
 10
0.0000
 20
0.0000
 30
0.0000
 40
0.2032
 41
0.2032
 70
0
  0
VERTEX
  8
16
 10
133.5282
 20
156.7282
 30
0.0000
 42
1.0000
  0
VERTEX
  8
16
 10
133.6718
 20
156.8718
 30
0.0000
  0
SEQEND
  8
0
  0
POLYLINE
  8
16
 66
1
 10
0.0000
 20
0.0000
 30
0.0000
 40
0.4064
 41
0.4064
 70
0
  0
VERTEX
  8
16
 10
131.5000
 20
158.9000
 30
0.0000
  0
VERTEX
  8
16
 10
131.5000
 20
161.5000
 30
0.0000
  0
SEQEND
  8
0
  0
POLYLINE
  8
16
 66
1
 10
0.0000
 20
0.0000
 30
0.0000
 40
0.2032
 41
0.2032
 70
0
  0
VERTEX
  8
16
 10
131.6016
 20
161.5000
 30
0.0000
 42
1.0000
  0
VERTEX
  8
16
 10
131.3984
 20
161.5000
 30
0.0000
  0
SEQEND
  8
0
  0
POLYLINE
  8
16
 66
1
 10
0.0000
 20
0.0000
 30
0.0000
 40
0.2032
 41
0.2032
 70
0
  0
VERTEX
  8
16
 10
131.3984
 20
158.9000
 30
0.0000
 42
1.0000
  0
VERTEX
  8
16
 10
131.6016
 20
158.9000
 30
0.0000
  0
SEQEND
  8
0
  0
POLYLINE
  8
16
 66
1
 10
0.0000
 20
0.0000
 30
0.0000
 40
0.4064
 41
0.4064
 70
0
  0
VERTEX
  8
16
 10
131.5000
 20
161.5000
 30
0.0000
  0
VERTEX
  8
16
 10
133.5000
 20
163.5000
 30
0.0000
  0
SEQEND
  8
0
  0
POLYLINE
  8
16
 66
1
 10
0.0000
 20
0.0000
 30
0.0000
 40
0.2032
 41
0.2032
 70
0
  0
VERTEX
  8
16
 10
133.5718
 20
163.4282
 30
0.0000
 42
1.0000
  0
VERTEX
  8
16
 10
133.4282
 20
163.5718
 30
0.0000
  0
SEQEND
  8
0
  0
POLYLINE
  8
16
 66
1
 10
0.0000
 20
0.0000
 30
0.0000
 40
0.2032
 41
0.2032
 70
0
  0
VERTEX
  8
16
 10
131.4282
 20
161.5718
 30
0.0000
 42
1.0000
  0
VERTEX
  8
16
 10
131.5718
 20
161.4282
 30
0.0000
  0
SEQEND
  8
0
  0
POLYLINE
  8
16
 66
1
 10
0.0000
 20
0.0000
 30
0.0000
 40
0.4064
 41
0.4064
 70
0
  0
VERTEX
  8
16
 10
133.5000
 20
163.5000
 30
0.0000
  0
VERTEX
  8
16
 10
181.4000
 20
163.5000
 30
0.0000
  0
SEQEND
  8
0
  0
POLYLINE
  8
16
 66
1
 10
0.0000
 20
0.0000
 30
0.0000
 40
0.2032
 41
0.2032
 70
0
  0
VERTEX
  8
16
 10
181.4000
 20
163.3984
 30
0.0000
 42
1.0000
  0
VERTEX
  8
16
 10
181.4000
 20
163.6016
 30
0.0000
  0
SEQEND
  8
0
  0
POLYLINE
  8
16
 66
1
 10
0.0000
 20
0.0000
 30
0.0000
 40
0.2032
 41
0.2032
 70
0
  0
VERTEX
  8
16
 10
133.5000
 20
163.6016
 30
0.0000
 42
1.0000
  0
VERTEX
  8
16
 10
133.5000
 20
163.3984
 30
0.0000
  0
SEQEND
  8
0
  0
POLYLINE
  8
16
 66
1
 10
0.0000
 20
0.0000
 30
0.0000
 40
0.4064
 41
0.4064
 70
0
  0
VERTEX
  8
16
 10
280.2000
 20
155.6000
 30
0.0000
  0
VERTEX
  8
16
 10
280.2000
 20
167.0000
 30
0.0000
  0
SEQEND
  8
0
  0
POLYLINE
  8
16
 66
1
 10
0.0000
 20
0.0000
 30
0.0000
 40
0.2032
 41
0.2032
 70
0
  0
VERTEX
  8
16
 10
280.3016
 20
167.0000
 30
0.0000
 42
1.0000
  0
VERTEX
  8
16
 10
280.0984
 20
167.0000
 30
0.0000
  0
SEQEND
  8
0
  0
POLYLINE
  8
16
 66
1
 10
0.0000
 20
0.0000
 30
0.0000
 40
0.2032
 41
0.2032
 70
0
  0
VERTEX
  8
16
 10
280.0984
 20
155.6000
 30
0.0000
 42
1.0000
  0
VERTEX
  8
16
 10
280.3016
 20
155.6000
 30
0.0000
  0
SEQEND
  8
0
  0
POLYLINE
  8
16
 66
1
 10
0.0000
 20
0.0000
 30
0.0000
 40
0.4064
 41
0.4064
 70
0
  0
VERTEX
  8
16
 10
270.4000
 20
145.8000
 30
0.0000
  0
VERTEX
  8
16
 10
280.2000
 20
155.6000
 30
0.0000
  0
SEQEND
  8
0
  0
POLYLINE
  8
16
 66
1
 10
0.0000
 20
0.0000
 30
0.0000
 40
0.2032
 41
0.2032
 70
0
  0
VERTEX
  8
16
 10
280.2718
 20
155.5282
 30
0.0000
 42
1.0000
  0
VERTEX
  8
16
 10
280.1282
 20
155.6718
 30
0.0000
  0
SEQEND
  8
0
  0
POLYLINE
  8
16
 66
1
 10
0.0000
 20
0.0000
 30
0.0000
 40
0.2032
 41
0.2032
 70
0
  0
VERTEX
  8
16
 10
270.3282
 20
145.8718
 30
0.0000
 42
1.0000
  0
VERTEX
  8
16
 10
270.4718
 20
145.7282
 30
0.0000
  0
SEQEND
  8
0
  0
POLYLINE
  8
16
 66
1
 10
0.0000
 20
0.0000
 30
0.0000
 40
0.4064
 41
0.4064
 70
0
  0
VERTEX
  8
16
 10
192.6000
 20
165.5000
 30
0.0000
  0
VERTEX
  8
16
 10
212.3000
 20
145.8000
 30
0.0000
  0
SEQEND
  8
0
  0
POLYLINE
  8
16
 66
1
 10
0.0000
 20
0.0000
 30
0.0000
 40
0.2032
 41
0.2032
 70
0
  0
VERTEX
  8
16
 10
212.2282
 20
145.7282
 30
0.0000
 42
1.0000
  0
VERTEX
  8
16
 10
212.3718
 20
145.8718
 30
0.0000
  0
SEQEND
  8
0
  0
POLYLINE
  8
16
 66
1
 10
0.0000
 20
0.0000
 30
0.0000
 40
0.2032
 41
0.2032
 70
0
  0
VERTEX
  8
16
 10
192.6718
 20
165.5718
 30
0.0000
 42
1.0000
  0
VERTEX
  8
16
 10
192.5282
 20
165.4282
 30
0.0000
  0
SEQEND
  8
0
  0
POLYLINE
  8
16
 66
1
 10
0.0000
 20
0.0000
 30
0.0000
 40
0.4064
 41
0.4064
 70
0
  0
VERTEX
  8
16
 10
212.3000
 20
145.8000
 30
0.0000
  0
VERTEX
  8
16
 10
270.4000
 20
145.8000
 30
0.0000
  0
SEQEND
  8
0
  0
POLYLINE
  8
16
 66
1
 10
0.0000
 20
0.0000
 30
0.0000
 40
0.2032
 41
0.2032
 70
0
  0
VERTEX
  8
16
 10
270.4000
 20
145.6984
 30
0.0000
 42
1.0000
  0
VERTEX
  8
16
 10
270.4000
 20
145.9016
 30
0.0000
  0
SEQEND
  8
0
  0
POLYLINE
  8
16
 66
1
 10
0.0000
 20
0.0000
 30
0.0000
 40
0.2032
 41
0.2032
 70
0
  0
VERTEX
  8
16
 10
212.3000
 20
145.9016
 30
0.0000
 42
1.0000
  0
VERTEX
  8
16
 10
212.3000
 20
145.6984
 30
0.0000
  0
SEQEND
  8
0
  0
POLYLINE
  8
16
 66
1
 10
0.0000
 20
0.0000
 30
0.0000
 40
0.4064
 41
0.4064
 70
0
  0
VERTEX
  8
16
 10
181.4000
 20
163.5000
 30
0.0000
  0
VERTEX
  8
16
 10
188.1000
 20
170.2000
 30
0.0000
  0
SEQEND
  8
0
  0
POLYLINE
  8
16
 66
1
 10
0.0000
 20
0.0000
 30
0.0000
 40
0.2032
 41
0.2032
 70
0
  0
VERTEX
  8
16
 10
188.1718
 20
170.1282
 30
0.0000
 42
1.0000
  0
VERTEX
  8
16
 10
188.0282
 20
170.2718
 30
0.0000
  0
SEQEND
  8
0
  0
POLYLINE
  8
16
 66
1
 10
0.0000
 20
0.0000
 30
0.0000
 40
0.2032
 41
0.2032
 70
0
  0
VERTEX
  8
16
 10
181.3282
 20
163.5718
 30
0.0000
 42
1.0000
  0
VERTEX
  8
16
 10
181.4718
 20
163.4282
 30
0.0000
  0
SEQEND
  8
0
  0
POLYLINE
  8
16
 66
1
 10
0.0000
 20
0.0000
 30
0.0000
 40
0.4064
 41
0.4064
 70
0
  0
VERTEX
  8
16
 10
188.1000
 20
170.2000
 30
0.0000
  0
VERTEX
  8
16
 10
190.7000
 20
170.2000
 30
0.0000
  0
SEQEND
  8
0
  0
POLYLINE
  8
16
 66
1
 10
0.0000
 20
0.0000
 30
0.0000
 40
0.2032
 41
0.2032
 70
0
  0
VERTEX
  8
16
 10
190.7000
 20
170.0984
 30
0.0000
 42
1.0000
  0
VERTEX
  8
16
 10
190.7000
 20
170.3016
 30
0.0000
  0
SEQEND
  8
0
  0
POLYLINE
  8
16
 66
1
 10
0.0000
 20
0.0000
 30
0.0000
 40
0.2032
 41
0.2032
 70
0
  0
VERTEX
  8
16
 10
188.1000
 20
170.3016
 30
0.0000
 42
1.0000
  0
VERTEX
  8
16
 10
188.1000
 20
170.0984
 30
0.0000
  0
SEQEND
  8
0
  0
POLYLINE
  8
16
 66
1
 10
0.0000
 20
0.0000
 30
0.0000
 40
0.4064
 41
0.4064
 70
0
  0
VERTEX
  8
16
 10
190.7000
 20
170.2000
 30
0.0000
  0
VERTEX
  8
16
 10
192.6000
 20
168.3000
 30
0.0000
  0
SEQEND
  8
0
  0
POLYLINE
  8
16
 66
1
 10
0.0000
 20
0.0000
 30
0.0000
 40
0.2032
 41
0.2032
 70
0
  0
VERTEX
  8
16
 10
192.5282
 20
168.2282
 30
0.0000
 42
1.0000
  0
VERTEX
  8
16
 10
192.6718
 20
168.3718
 30
0.0000
  0
SEQEND
  8
0
  0
POLYLINE
  8
16
 66
1
 10
0.0000
 20
0.0000
 30
0.0000
 40
0.2032
 41
0.2032
 70
0
  0
VERTEX
  8
16
 10
190.7718
 20
170.2718
 30
0.0000
 42
1.0000
  0
VERTEX
  8
16
 10
190.6282
 20
170.1282
 30
0.0000
  0
SEQEND
  8
0
  0
POLYLINE
  8
16
 66
1
 10
0.0000
 20
0.0000
 30
0.0000
 40
0.4064
 41
0.4064
 70
0
  0
VERTEX
  8
16
 10
192.6000
 20
168.3000
 30
0.0000
  0
VERTEX
  8
16
 10
192.6000
 20
165.5000
 30
0.0000
  0
SEQEND
  8
0
  0
POLYLINE
  8
16
 66
1
 10
0.0000
 20
0.0000
 30
0.0000
 40
0.2032
 41
0.2032
 70
0
  0
VERTEX
  8
16
 10
192.4984
 20
165.5000
 30
0.0000
 42
1.0000
  0
VERTEX
  8
16
 10
192.7016
 20
165.5000
 30
0.0000
  0
SEQEND
  8
0
  0
POLYLINE
  8
16
 66
1
 10
0.0000
 20
0.0000
 30
0.0000
 40
0.2032
 41
0.2032
 70
0
  0
VERTEX
  8
16
 10
192.7016
 20
168.3000
 30
0.0000
 42
1.0000
  0
VERTEX
  8
16
 10
192.4984
 20
168.3000
 30
0.0000
  0
SEQEND
  8
0
  0
POLYLINE
  8
16
 66
1
 10
0.0000
 20
0.0000
 30
0.0000
 40
0.4064
 41
0.4064
 70
0
  0
VERTEX
  8
16
 10
11.0000
 20
152.8000
 30
0.0000
  0
VERTEX
  8
16
 10
11.0000
 20
145.8000
 30
0.0000
  0
SEQEND
  8
0
  0
POLYLINE
  8
16
 66
1
 10
0.0000
 20
0.0000
 30
0.0000
 40
0.2032
 41
0.2032
 70
0
  0
VERTEX
  8
16
 10
10.8984
 20
145.8000
 30
0.0000
 42
1.0000
  0
VERTEX
  8
16
 10
11.1016
 20
145.8000
 30
0.0000
  0
SEQEND
  8
0
  0
POLYLINE
  8
16
 66
1
 10
0.0000
 20
0.0000
 30
0.0000
 40
0.2032
 41
0.2032
 70
0
  0
VERTEX
  8
16
 10
11.1016
 20
152.8000
 30
0.0000
 42
1.0000
  0
VERTEX
  8
16
 10
10.8984
 20
152.8000
 30
0.0000
  0
SEQEND
  8
0
  0
POLYLINE
  8
16
 66
1
 10
0.0000
 20
0.0000
 30
0.0000
 40
0.4064
 41
0.4064
 70
0
  0
VERTEX
  8
16
 10
12.3000
 20
154.1000
 30
0.0000
  0
VERTEX
  8
16
 10
11.0000
 20
152.8000
 30
0.0000
  0
SEQEND
  8
0
  0
POLYLINE
  8
16
 66
1
 10
0.0000
 20
0.0000
 30
0.0000
 40
0.2032
 41
0.2032
 70
0
  0
VERTEX
  8
16
 10
10.9282
 20
152.8718
 30
0.0000
 42
1.0000
  0
VERTEX
  8
16
 10
11.0718
 20
152.7282
 30
0.0000
  0
SEQEND
  8
0
  0
POLYLINE
  8
16
 66
1
 10
0.0000
 20
0.0000
 30
0.0000
 40
0.2032
 41
0.2032
 70
0
  0
VERTEX
  8
16
 10
12.3718
 20
154.0282
 30
0.0000
 42
1.0000
  0
VERTEX
  8
16
 10
12.2282
 20
154.1718
 30
0.0000
  0
SEQEND
  8
0
  0
POLYLINE
  8
16
 66
1
 10
0.0000
 20
0.0000
 30
0.0000
 40
0.4064
 41
0.4064
 70
0
  0
VERTEX
  8
16
 10
17.1000
 20
154.1000
 30
0.0000
  0
VERTEX
  8
16
 10
12.3000
 20
154.1000
 30
0.0000
  0
SEQEND
  8
0
  0
POLYLINE
  8
16
 66
1
 10
0.0000
 20
0.0000
 30
0.0000
 40
0.2032
 41
0.2032
 70
0
  0
VERTEX
  8
16
 10
12.3000
 20
154.2016
 30
0.0000
 42
1.0000
  0
VERTEX
  8
16
 10
12.3000
 20
153.9984
 30
0.0000
  0
SEQEND
  8
0
  0
POLYLINE
  8
16
 66
1
 10
0.0000
 20
0.0000
 30
0.0000
 40
0.2032
 41
0.2032
 70
0
  0
VERTEX
  8
16
 10
17.1000
 20
153.9984
 30
0.0000
 42
1.0000
  0
VERTEX
  8
16
 10
17.1000
 20
154.2016
 30
0.0000
  0
SEQEND
  8
0
  0
POLYLINE
  8
16
 66
1
 10
0.0000
 20
0.0000
 30
0.0000
 40
0.4064
 41
0.4064
 70
0
  0
VERTEX
  8
16
 10
19.2000
 20
156.2000
 30
0.0000
  0
VERTEX
  8
16
 10
17.1000
 20
154.1000
 30
0.0000
  0
SEQEND
  8
0
  0
POLYLINE
  8
16
 66
1
 10
0.0000
 20
0.0000
 30
0.0000
 40
0.2032
 41
0.2032
 70
0
  0
VERTEX
  8
16
 10
17.0282
 20
154.1718
 30
0.0000
 42
1.0000
  0
VERTEX
  8
16
 10
17.1718
 20
154.0282
 30
0.0000
  0
SEQEND
  8
0
  0
POLYLINE
  8
16
 66
1
 10
0.0000
 20
0.0000
 30
0.0000
 40
0.2032
 41
0.2032
 70
0
  0
VERTEX
  8
16
 10
19.2718
 20
156.1282
 30
0.0000
 42
1.0000
  0
VERTEX
  8
16
 10
19.1282
 20
156.2718
 30
0.0000
  0
SEQEND
  8
0
  0
POLYLINE
  8
16
 66
1
 10
0.0000
 20
0.0000
 30
0.0000
 40
0.4064
 41
0.4064
 70
0
  0
VERTEX
  8
16
 10
19.2000
 20
179.5000
 30
0.0000
  0
VERTEX
  8
16
 10
19.2000
 20
156.2000
 30
0.0000
  0
SEQEND
  8
0
  0
POLYLINE
  8
16
 66
1
 10
0.0000
 20
0.0000
 30
0.0000
 40
0.2032
 41
0.2032
 70
0
  0
VERTEX
  8
16
 10
19.0984
 20
156.2000
 30
0.0000
 42
1.0000
  0
VERTEX
  8
16
 10
19.3016
 20
156.2000
 30
0.0000
  0
SEQEND
  8
0
  0
POLYLINE
  8
16
 66
1
 10
0.0000
 20
0.0000
 30
0.0000
 40
0.2032
 41
0.2032
 70
0
  0
VERTEX
  8
16
 10
19.3016
 20
179.5000
 30
0.0000
 42
1.0000
  0
VERTEX
  8
16
 10
19.0984
 20
179.5000
 30
0.0000
  0
SEQEND
  8
0
  0
POLYLINE
  8
16
 66
1
 10
0.0000
 20
0.0000
 30
0.0000
 40
0.4064
 41
0.4064
 70
0
  0
VERTEX
  8
16
 10
13.4000
 20
143.4000
 30
0.0000
  0
VERTEX
  8
16
 10
271.1000
 20
143.4000
 30
0.0000
  0
SEQEND
  8
0
  0
POLYLINE
  8
16
 66
1
 10
0.0000
 20
0.0000
 30
0.0000
 40
0.2032
 41
0.2032
 70
0
  0
VERTEX
  8
16
 10
271.1000
 20
143.2984
 30
0.0000
 42
1.0000
  0
VERTEX
  8
16
 10
271.1000
 20
143.5016
 30
0.0000
  0
SEQEND
  8
0
  0
POLYLINE
  8
16
 66
1
 10
0.0000
 20
0.0000
 30
0.0000
 40
0.2032
 41
0.2032
 70
0
  0
VERTEX
  8
16
 10
13.4000
 20
143.5016
 30
0.0000
 42
1.0000
  0
VERTEX
  8
16
 10
13.4000
 20
143.2984
 30
0.0000
  0
SEQEND
  8
0
  0
POLYLINE
  8
16
 66
1
 10
0.0000
 20
0.0000
 30
0.0000
 40
0.4064
 41
0.4064
 70
0
  0
VERTEX
  8
16
 10
271.1000
 20
143.4000
 30
0.0000
  0
VERTEX
  8
16
 10
282.7500
 20
155.0500
 30
0.0000
  0
SEQEND
  8
0
  0
POLYLINE
  8
16
 66
1
 10
0.0000
 20
0.0000
 30
0.0000
 40
0.2032
 41
0.2032
 70
0
  0
VERTEX
  8
16
 10
282.8218
 20
154.9782
 30
0.0000
 42
1.0000
  0
VERTEX
  8
16
 10
282.6782
 20
155.1218
 30
0.0000
  0
SEQEND
  8
0
  0
POLYLINE
  8
16
 66
1
 10
0.0000
 20
0.0000
 30
0.0000
 40
0.2032
 41
0.2032
 70
0
  0
VERTEX
  8
16
 10
271.0282
 20
143.4718
 30
0.0000
 42
1.0000
  0
VERTEX
  8
16
 10
271.1718
 20
143.3282
 30
0.0000
  0
SEQEND
  8
0
  0
POLYLINE
  8
16
 66
1
 10
0.0000
 20
0.0000
 30
0.0000
 40
0.4064
 41
0.4064
 70
0
  0
VERTEX
  8
16
 10
282.7500
 20
155.0500
 30
0.0000
  0
VERTEX
  8
16
 10
282.7500
 20
166.9900
 30
0.0000
  0
SEQEND
  8
0
  0
POLYLINE
  8
16
 66
1
 10
0.0000
 20
0.0000
 30
0.0000
 40
0.2032
 41
0.2032
 70
0
  0
VERTEX
  8
16
 10
282.8516
 20
166.9900
 30
0.0000
 42
1.0000
  0
VERTEX
  8
16
 10
282.6484
 20
166.9900
 30
0.0000
  0
SEQEND
  8
0
  0
POLYLINE
  8
16
 66
1
 10
0.0000
 20
0.0000
 30
0.0000
 40
0.2032
 41
0.2032
 70
0
  0
VERTEX
  8
16
 10
282.6484
 20
155.0500
 30
0.0000
 42
1.0000
  0
VERTEX
  8
16
 10
282.8516
 20
155.0500
 30
0.0000
  0
SEQEND
  8
0
  0
POLYLINE
  8
16
 66
1
 10
0.0000
 20
0.0000
 30
0.0000
 40
0.4064
 41
0.4064
 70
0
  0
VERTEX
  8
16
 10
11.0000
 20
145.8000
 30
0.0000
  0
VERTEX
  8
16
 10
13.4000
 20
143.4000
 30
0.0000
  0
SEQEND
  8
0
  0
POLYLINE
  8
16
 66
1
 10
0.0000
 20
0.0000
 30
0.0000
 40
0.2032
 41
0.2032
 70
0
  0
VERTEX
  8
16
 10
13.3282
 20
143.3282
 30
0.0000
 42
1.0000
  0
VERTEX
  8
16
 10
13.4718
 20
143.4718
 30
0.0000
  0
SEQEND
  8
0
  0
POLYLINE
  8
16
 66
1
 10
0.0000
 20
0.0000
 30
0.0000
 40
0.2032
 41
0.2032
 70
0
  0
VERTEX
  8
16
 10
11.0718
 20
145.8718
 30
0.0000
 42
1.0000
  0
VERTEX
  8
16
 10
10.9282
 20
145.7282
 30
0.0000
  0
SEQEND
  8
0
  0
POLYLINE
  8
16
 66
1
 10
0.0000
 20
0.0000
 30
0.0000
 40
0.4064
 41
0.4064
 70
0
  0
VERTEX
  8
16
 10
217.4000
 20
180.6000
 30
0.0000
  0
VERTEX
  8
16
 10
217.4000
 20
154.0000
 30
0.0000
  0
SEQEND
  8
0
  0
POLYLINE
  8
16
 66
1
 10
0.0000
 20
0.0000
 30
0.0000
 40
0.2032
 41
0.2032
 70
0
  0
VERTEX
  8
16
 10
217.2984
 20
154.0000
 30
0.0000
 42
1.0000
  0
VERTEX
  8
16
 10
217.5016
 20
154.0000
 30
0.0000
  0
SEQEND
  8
0
  0
POLYLINE
  8
16
 66
1
 10
0.0000
 20
0.0000
 30
0.0000
 40
0.2032
 41
0.2032
 70
0
  0
VERTEX
  8
16
 10
217.5016
 20
180.6000
 30
0.0000
 42
1.0000
  0
VERTEX
  8
16
 10
217.2984
 20
180.6000
 30
0.0000
  0
SEQEND
  8
0
  0
POLYLINE
  8
16
 66
1
 10
0.0000
 20
0.0000
 30
0.0000
 40
0.4064
 41
0.4064
 70
0
  0
VERTEX
  8
16
 10
217.4000
 20
154.0000
 30
0.0000
  0
VERTEX
  8
16
 10
221.7000
 20
149.7000
 30
0.0000
  0
SEQEND
  8
0
  0
POLYLINE
  8
16
 66
1
 10
0.0000
 20
0.0000
 30
0.0000
 40
0.2032
 41
0.2032
 70
0
  0
VERTEX
  8
16
 10
221.6282
 20
149.6282
 30
0.0000
 42
1.0000
  0
VERTEX
  8
16
 10
221.7718
 20
149.7718
 30
0.0000
  0
SEQEND
  8
0
  0
POLYLINE
  8
16
 66
1
 10
0.0000
 20
0.0000
 30
0.0000
 40
0.2032
 41
0.2032
 70
0
  0
VERTEX
  8
16
 10
217.4718
 20
154.0718
 30
0.0000
 42
1.0000
  0
VERTEX
  8
16
 10
217.3282
 20
153.9282
 30
0.0000
  0
SEQEND
  8
0
  0
POLYLINE
  8
16
 66
1
 10
0.0000
 20
0.0000
 30
0.0000
 40
0.4064
 41
0.4064
 70
0
  0
VERTEX
  8
16
 10
221.7000
 20
149.7000
 30
0.0000
  0
VERTEX
  8
16
 10
224.2000
 20
149.7000
 30
0.0000
  0
SEQEND
  8
0
  0
POLYLINE
  8
16
 66
1
 10
0.0000
 20
0.0000
 30
0.0000
 40
0.2032
 41
0.2032
 70
0
  0
VERTEX
  8
16
 10
224.2000
 20
149.5984
 30
0.0000
 42
1.0000
  0
VERTEX
  8
16
 10
224.2000
 20
149.8016
 30
0.0000
  0
SEQEND
  8
0
  0
POLYLINE
  8
16
 66
1
 10
0.0000
 20
0.0000
 30
0.0000
 40
0.2032
 41
0.2032
 70
0
  0
VERTEX
  8
16
 10
221.7000
 20
149.8016
 30
0.0000
 42
1.0000
  0
VERTEX
  8
16
 10
221.7000
 20
149.5984
 30
0.0000
  0
SEQEND
  8
0
  0
POLYLINE
  8
16
 66
1
 10
0.0000
 20
0.0000
 30
0.0000
 40
0.4064
 41
0.4064
 70
0
  0
VERTEX
  8
16
 10
224.2000
 20
149.7000
 30
0.0000
  0
VERTEX
  8
16
 10
235.7000
 20
161.2000
 30
0.0000
  0
SEQEND
  8
0
  0
POLYLINE
  8
16
 66
1
 10
0.0000
 20
0.0000
 30
0.0000
 40
0.2032
 41
0.2032
 70
0
  0
VERTEX
  8
16
 10
235.7718
 20
161.1282
 30
0.0000
 42
1.0000
  0
VERTEX
  8
16
 10
235.6282
 20
161.2718
 30
0.0000
  0
SEQEND
  8
0
  0
POLYLINE
  8
16
 66
1
 10
0.0000
 20
0.0000
 30
0.0000
 40
0.2032
 41
0.2032
 70
0
  0
VERTEX
  8
16
 10
224.1282
 20
149.7718
 30
0.0000
 42
1.0000
  0
VERTEX
  8
16
 10
224.2718
 20
149.6282
 30
0.0000
  0
SEQEND
  8
0
  0
POLYLINE
  8
16
 66
1
 10
0.0000
 20
0.0000
 30
0.0000
 40
0.4064
 41
0.4064
 70
0
  0
VERTEX
  8
16
 10
235.7000
 20
161.2000
 30
0.0000
  0
VERTEX
  8
16
 10
235.7000
 20
189.6000
 30
0.0000
  0
SEQEND
  8
0
  0
POLYLINE
  8
16
 66
1
 10
0.0000
 20
0.0000
 30
0.0000
 40
0.2032
 41
0.2032
 70
0
  0
VERTEX
  8
16
 10
235.8016
 20
189.6000
 30
0.0000
 42
1.0000
  0
VERTEX
  8
16
 10
235.5984
 20
189.6000
 30
0.0000
  0
SEQEND
  8
0
  0
POLYLINE
  8
16
 66
1
 10
0.0000
 20
0.0000
 30
0.0000
 40
0.2032
 41
0.2032
 70
0
  0
VERTEX
  8
16
 10
235.5984
 20
161.2000
 30
0.0000
 42
1.0000
  0
VERTEX
  8
16
 10
235.8016
 20
161.2000
 30
0.0000
  0
SEQEND
  8
0
  0
POLYLINE
  8
16
 66
1
 10
0.0000
 20
0.0000
 30
0.0000
 40
0.4064
 41
0.4064
 70
0
  0
VERTEX
  8
16
 10
235.7000
 20
189.6000
 30
0.0000
  0
VERTEX
  8
16
 10
238.2000
 20
192.1000
 30
0.0000
  0
SEQEND
  8
0
  0
POLYLINE
  8
16
 66
1
 10
0.0000
 20
0.0000
 30
0.0000
 40
0.2032
 41
0.2032
 70
0
  0
VERTEX
  8
16
 10
238.2718
 20
192.0282
 30
0.0000
 42
1.0000
  0
VERTEX
  8
16
 10
238.1282
 20
192.1718
 30
0.0000
  0
SEQEND
  8
0
  0
POLYLINE
  8
16
 66
1
 10
0.0000
 20
0.0000
 30
0.0000
 40
0.2032
 41
0.2032
 70
0
  0
VERTEX
  8
16
 10
235.6282
 20
189.6718
 30
0.0000
 42
1.0000
  0
VERTEX
  8
16
 10
235.7718
 20
189.5282
 30
0.0000
  0
SEQEND
  8
0
  0
POLYLINE
  8
16
 66
1
 10
0.0000
 20
0.0000
 30
0.0000
 40
0.4064
 41
0.4064
 70
0
  0
VERTEX
  8
16
 10
238.2000
 20
192.1000
 30
0.0000
  0
VERTEX
  8
16
 10
240.8000
 20
192.1000
 30
0.0000
  0
SEQEND
  8
0
  0
POLYLINE
  8
16
 66
1
 10
0.0000
 20
0.0000
 30
0.0000
 40
0.2032
 41
0.2032
 70
0
  0
VERTEX
  8
16
 10
240.8000
 20
191.9984
 30
0.0000
 42
1.0000
  0
VERTEX
  8
16
 10
240.8000
 20
192.2016
 30
0.0000
  0
SEQEND
  8
0
  0
POLYLINE
  8
16
 66
1
 10
0.0000
 20
0.0000
 30
0.0000
 40
0.2032
 41
0.2032
 70
0
  0
VERTEX
  8
16
 10
238.2000
 20
192.2016
 30
0.0000
 42
1.0000
  0
VERTEX
  8
16
 10
238.2000
 20
191.9984
 30
0.0000
  0
SEQEND
  8
0
  0
POLYLINE
  8
16
 66
1
 10
0.0000
 20
0.0000
 30
0.0000
 40
0.4064
 41
0.4064
 70
0
  0
VERTEX
  8
16
 10
240.8000
 20
192.1000
 30
0.0000
  0
VERTEX
  8
16
 10
242.7000
 20
190.2000
 30
0.0000
  0
SEQEND
  8
0
  0
POLYLINE
  8
16
 66
1
 10
0.0000
 20
0.0000
 30
0.0000
 40
0.2032
 41
0.2032
 70
0
  0
VERTEX
  8
16
 10
242.6282
 20
190.1282
 30
0.0000
 42
1.0000
  0
VERTEX
  8
16
 10
242.7718
 20
190.2718
 30
0.0000
  0
SEQEND
  8
0
  0
POLYLINE
  8
16
 66
1
 10
0.0000
 20
0.0000
 30
0.0000
 40
0.2032
 41
0.2032
 70
0
  0
VERTEX
  8
16
 10
240.8718
 20
192.1718
 30
0.0000
 42
1.0000
  0
VERTEX
  8
16
 10
240.7282
 20
192.0282
 30
0.0000
  0
SEQEND
  8
0
  0
POLYLINE
  8
16
 66
1
 10
0.0000
 20
0.0000
 30
0.0000
 40
0.4064
 41
0.4064
 70
0
  0
VERTEX
  8
16
 10
242.7000
 20
190.2000
 30
0.0000
  0
VERTEX
  8
16
 10
242.7000
 20
161.2000
 30
0.0000
  0
SEQEND
  8
0
  0
POLYLINE
  8
16
 66
1
 10
0.0000
 20
0.0000
 30
0.0000
 40
0.2032
 41
0.2032
 70
0
  0
VERTEX
  8
16
 10
242.5984
 20
161.2000
 30
0.0000
 42
1.0000
  0
VERTEX
  8
16
 10
242.8016
 20
161.2000
 30
0.0000
  0
SEQEND
  8
0
  0
POLYLINE
  8
16
 66
1
 10
0.0000
 20
0.0000
 30
0.0000
 40
0.2032
 41
0.2032
 70
0
  0
VERTEX
  8
16
 10
242.8016
 20
190.2000
 30
0.0000
 42
1.0000
  0
VERTEX
  8
16
 10
242.5984
 20
190.2000
 30
0.0000
  0
SEQEND
  8
0
  0
POLYLINE
  8
16
 66
1
 10
0.0000
 20
0.0000
 30
0.0000
 40
0.4064
 41
0.4064
 70
0
  0
VERTEX
  8
16
 10
242.7000
 20
161.2000
 30
0.0000
  0
VERTEX
  8
16
 10
231.8000
 20
150.3000
 30
0.0000
  0
SEQEND
  8
0
  0
POLYLINE
  8
16
 66
1
 10
0.0000
 20
0.0000
 30
0.0000
 40
0.2032
 41
0.2032
 70
0
  0
VERTEX
  8
16
 10
231.7282
 20
150.3718
 30
0.0000
 42
1.0000
  0
VERTEX
  8
16
 10
231.8718
 20
150.2282
 30
0.0000
  0
SEQEND
  8
0
  0
POLYLINE
  8
16
 66
1
 10
0.0000
 20
0.0000
 30
0.0000
 40
0.2032
 41
0.2032
 70
0
  0
VERTEX
  8
16
 10
242.7718
 20
161.1282
 30
0.0000
 42
1.0000
  0
VERTEX
  8
16
 10
242.6282
 20
161.2718
 30
0.0000
  0
SEQEND
  8
0
  0
POLYLINE
  8
16
 66
1
 10
0.0000
 20
0.0000
 30
0.0000
 40
0.4064
 41
0.4064
 70
0
  0
VERTEX
  8
16
 10
231.8000
 20
150.3000
 30
0.0000
  0
VERTEX
  8
16
 10
231.8000
 20
148.5000
 30
0.0000
  0
SEQEND
  8
0
  0
POLYLINE
  8
16
 66
1
 10
0.0000
 20
0.0000
 30
0.0000
 40
0.2032
 41
0.2032
 70
0
  0
VERTEX
  8
16
 10
231.6984
 20
148.5000
 30
0.0000
 42
1.0000
  0
VERTEX
  8
16
 10
231.9016
 20
148.5000
 30
0.0000
  0
SEQEND
  8
0
  0
POLYLINE
  8
16
 66
1
 10
0.0000
 20
0.0000
 30
0.0000
 40
0.2032
 41
0.2032
 70
0
  0
VERTEX
  8
16
 10
231.9016
 20
150.3000
 30
0.0000
 42
1.0000
  0
VERTEX
  8
16
 10
231.6984
 20
150.3000
 30
0.0000
  0
SEQEND
  8
0
  0
POLYLINE
  8
16
 66
1
 10
0.0000
 20
0.0000
 30
0.0000
 40
0.4064
 41
0.4064
 70
0
  0
VERTEX
  8
16
 10
231.8000
 20
148.5000
 30
0.0000
  0
VERTEX
  8
16
 10
233.2000
 20
147.1000
 30
0.0000
  0
SEQEND
  8
0
  0
POLYLINE
  8
16
 66
1
 10
0.0000
 20
0.0000
 30
0.0000
 40
0.2032
 41
0.2032
 70
0
  0
VERTEX
  8
16
 10
233.1282
 20
147.0282
 30
0.0000
 42
1.0000
  0
VERTEX
  8
16
 10
233.2718
 20
147.1718
 30
0.0000
  0
SEQEND
  8
0
  0
POLYLINE
  8
16
 66
1
 10
0.0000
 20
0.0000
 30
0.0000
 40
0.2032
 41
0.2032
 70
0
  0
VERTEX
  8
16
 10
231.8718
 20
148.5718
 30
0.0000
 42
1.0000
  0
VERTEX
  8
16
 10
231.7282
 20
148.4282
 30
0.0000
  0
SEQEND
  8
0
  0
POLYLINE
  8
16
 66
1
 10
0.0000
 20
0.0000
 30
0.0000
 40
0.4064
 41
0.4064
 70
0
  0
VERTEX
  8
16
 10
233.2000
 20
147.1000
 30
0.0000
  0
VERTEX
  8
16
 10
234.3000
 20
147.1000
 30
0.0000
  0
SEQEND
  8
0
  0
POLYLINE
  8
16
 66
1
 10
0.0000
 20
0.0000
 30
0.0000
 40
0.2032
 41
0.2032
 70
0
  0
VERTEX
  8
16
 10
234.3000
 20
146.9984
 30
0.0000
 42
1.0000
  0
VERTEX
  8
16
 10
234.3000
 20
147.2016
 30
0.0000
  0
SEQEND
  8
0
  0
POLYLINE
  8
16
 66
1
 10
0.0000
 20
0.0000
 30
0.0000
 40
0.2032
 41
0.2032
 70
0
  0
VERTEX
  8
16
 10
233.2000
 20
147.2016
 30
0.0000
 42
1.0000
  0
VERTEX
  8
16
 10
233.2000
 20
146.9984
 30
0.0000
  0
SEQEND
  8
0
  0
POLYLINE
  8
16
 66
1
 10
0.0000
 20
0.0000
 30
0.0000
 40
0.4064
 41
0.4064
 70
0
  0
VERTEX
  8
16
 10
234.3000
 20
147.1000
 30
0.0000
  0
VERTEX
  8
16
 10
245.5000
 20
158.3000
 30
0.0000
  0
SEQEND
  8
0
  0
POLYLINE
  8
16
 66
1
 10
0.0000
 20
0.0000
 30
0.0000
 40
0.2032
 41
0.2032
 70
0
  0
VERTEX
  8
16
 10
245.5718
 20
158.2282
 30
0.0000
 42
1.0000
  0
VERTEX
  8
16
 10
245.4282
 20
158.3718
 30
0.0000
  0
SEQEND
  8
0
  0
POLYLINE
  8
16
 66
1
 10
0.0000
 20
0.0000
 30
0.0000
 40
0.2032
 41
0.2032
 70
0
  0
VERTEX
  8
16
 10
234.2282
 20
147.1718
 30
0.0000
 42
1.0000
  0
VERTEX
  8
16
 10
234.3718
 20
147.0282
 30
0.0000
  0
SEQEND
  8
0
  0
POLYLINE
  8
16
 66
1
 10
0.0000
 20
0.0000
 30
0.0000
 40
0.4064
 41
0.4064
 70
0
  0
VERTEX
  8
16
 10
245.5000
 20
158.3000
 30
0.0000
  0
VERTEX
  8
16
 10
245.5000
 20
187.4000
 30
0.0000
  0
SEQEND
  8
0
  0
POLYLINE
  8
16
 66
1
 10
0.0000
 20
0.0000
 30
0.0000
 40
0.2032
 41
0.2032
 70
0
  0
VERTEX
  8
16
 10
245.6016
 20
187.4000
 30
0.0000
 42
1.0000
  0
VERTEX
  8
16
 10
245.3984
 20
187.4000
 30
0.0000
  0
SEQEND
  8
0
  0
POLYLINE
  8
16
 66
1
 10
0.0000
 20
0.0000
 30
0.0000
 40
0.2032
 41
0.2032
 70
0
  0
VERTEX
  8
16
 10
245.3984
 20
158.3000
 30
0.0000
 42
1.0000
  0
VERTEX
  8
16
 10
245.6016
 20
158.3000
 30
0.0000
  0
SEQEND
  8
0
  0
POLYLINE
  8
16
 66
1
 10
0.0000
 20
0.0000
 30
0.0000
 40
0.4064
 41
0.4064
 70
0
  0
VERTEX
  8
16
 10
245.5000
 20
187.4000
 30
0.0000
  0
VERTEX
  8
16
 10
247.3000
 20
189.2000
 30
0.0000
  0
SEQEND
  8
0
  0
POLYLINE
  8
16
 66
1
 10
0.0000
 20
0.0000
 30
0.0000
 40
0.2032
 41
0.2032
 70
0
  0
VERTEX
  8
16
 10
247.3718
 20
189.1282
 30
0.0000
 42
1.0000
  0
VERTEX
  8
16
 10
247.2282
 20
189.2718
 30
0.0000
  0
SEQEND
  8
0
  0
POLYLINE
  8
16
 66
1
 10
0.0000
 20
0.0000
 30
0.0000
 40
0.2032
 41
0.2032
 70
0
  0
VERTEX
  8
16
 10
245.4282
 20
187.4718
 30
0.0000
 42
1.0000
  0
VERTEX
  8
16
 10
245.5718
 20
187.3282
 30
0.0000
  0
SEQEND
  8
0
  0
POLYLINE
  8
16
 66
1
 10
0.0000
 20
0.0000
 30
0.0000
 40
0.4064
 41
0.4064
 70
0
  0
VERTEX
  8
16
 10
247.3000
 20
189.2000
 30
0.0000
  0
VERTEX
  8
16
 10
249.5000
 20
189.2000
 30
0.0000
  0
SEQEND
  8
0
  0
POLYLINE
  8
16
 66
1
 10
0.0000
 20
0.0000
 30
0.0000
 40
0.2032
 41
0.2032
 70
0
  0
VERTEX
  8
16
 10
249.5000
 20
189.0984
 30
0.0000
 42
1.0000
  0
VERTEX
  8
16
 10
249.5000
 20
189.3016
 30
0.0000
  0
SEQEND
  8
0
  0
POLYLINE
  8
16
 66
1
 10
0.0000
 20
0.0000
 30
0.0000
 40
0.2032
 41
0.2032
 70
0
  0
VERTEX
  8
16
 10
247.3000
 20
189.3016
 30
0.0000
 42
1.0000
  0
VERTEX
  8
16
 10
247.3000
 20
189.0984
 30
0.0000
  0
SEQEND
  8
0
  0
POLYLINE
  8
16
 66
1
 10
0.0000
 20
0.0000
 30
0.0000
 40
0.4064
 41
0.4064
 70
0
  0
VERTEX
  8
16
 10
249.5000
 20
189.2000
 30
0.0000
  0
VERTEX
  8
16
 10
251.2000
 20
187.5000
 30
0.0000
  0
SEQEND
  8
0
  0
POLYLINE
  8
16
 66
1
 10
0.0000
 20
0.0000
 30
0.0000
 40
0.2032
 41
0.2032
 70
0
  0
VERTEX
  8
16
 10
251.1282
 20
187.4282
 30
0.0000
 42
1.0000
  0
VERTEX
  8
16
 10
251.2718
 20
187.5718
 30
0.0000
  0
SEQEND
  8
0
  0
POLYLINE
  8
16
 66
1
 10
0.0000
 20
0.0000
 30
0.0000
 40
0.2032
 41
0.2032
 70
0
  0
VERTEX
  8
16
 10
249.5718
 20
189.2718
 30
0.0000
 42
1.0000
  0
VERTEX
  8
16
 10
249.4282
 20
189.1282
 30
0.0000
  0
SEQEND
  8
0
  0
POLYLINE
  8
16
 66
1
 10
0.0000
 20
0.0000
 30
0.0000
 40
0.4064
 41
0.4064
 70
0
  0
VERTEX
  8
16
 10
251.2000
 20
187.5000
 30
0.0000
  0
VERTEX
  8
16
 10
251.2000
 20
158.2000
 30
0.0000
  0
SEQEND
  8
0
  0
POLYLINE
  8
16
 66
1
 10
0.0000
 20
0.0000
 30
0.0000
 40
0.2032
 41
0.2032
 70
0
  0
VERTEX
  8
16
 10
251.0984
 20
158.2000
 30
0.0000
 42
1.0000
  0
VERTEX
  8
16
 10
251.3016
 20
158.2000
 30
0.0000
  0
SEQEND
  8
0
  0
POLYLINE
  8
16
 66
1
 10
0.0000
 20
0.0000
 30
0.0000
 40
0.2032
 41
0.2032
 70
0
  0
VERTEX
  8
16
 10
251.3016
 20
187.5000
 30
0.0000
 42
1.0000
  0
VERTEX
  8
16
 10
251.0984
 20
187.5000
 30
0.0000
  0
SEQEND
  8
0
  0
POLYLINE
  8
16
 66
1
 10
0.0000
 20
0.0000
 30
0.0000
 40
0.4064
 41
0.4064
 70
0
  0
VERTEX
  8
16
 10
251.2000
 20
158.2000
 30
0.0000
  0
VERTEX
  8
16
 10
244.0000
 20
151.0000
 30
0.0000
  0
SEQEND
  8
0
  0
POLYLINE
  8
16
 66
1
 10
0.0000
 20
0.0000
 30
0.0000
 40
0.2032
 41
0.2032
 70
0
  0
VERTEX
  8
16
 10
243.9282
 20
151.0718
 30
0.0000
 42
1.0000
  0
VERTEX
  8
16
 10
244.0718
 20
150.9282
 30
0.0000
  0
SEQEND
  8
0
  0
POLYLINE
  8
16
 66
1
 10
0.0000
 20
0.0000
 30
0.0000
 40
0.2032
 41
0.2032
 70
0
  0
VERTEX
  8
16
 10
251.2718
 20
158.1282
 30
0.0000
 42
1.0000
  0
VERTEX
  8
16
 10
251.1282
 20
158.2718
 30
0.0000
  0
SEQEND
  8
0
  0
POLYLINE
  8
16
 66
1
 10
0.0000
 20
0.0000
 30
0.0000
 40
0.4064
 41
0.4064
 70
0
  0
VERTEX
  8
16
 10
244.0000
 20
151.0000
 30
0.0000
  0
VERTEX
  8
16
 10
244.0000
 20
148.8000
 30
0.0000
  0
SEQEND
  8
0
  0
POLYLINE
  8
16
 66
1
 10
0.0000
 20
0.0000
 30
0.0000
 40
0.2032
 41
0.2032
 70
0
  0
VERTEX
  8
16
 10
243.8984
 20
148.8000
 30
0.0000
 42
1.0000
  0
VERTEX
  8
16
 10
244.1016
 20
148.8000
 30
0.0000
  0
SEQEND
  8
0
  0
POLYLINE
  8
16
 66
1
 10
0.0000
 20
0.0000
 30
0.0000
 40
0.2032
 41
0.2032
 70
0
  0
VERTEX
  8
16
 10
244.1016
 20
151.0000
 30
0.0000
 42
1.0000
  0
VERTEX
  8
16
 10
243.8984
 20
151.0000
 30
0.0000
  0
SEQEND
  8
0
  0
POLYLINE
  8
16
 66
1
 10
0.0000
 20
0.0000
 30
0.0000
 40
0.4064
 41
0.4064
 70
0
  0
VERTEX
  8
16
 10
244.0000
 20
148.8000
 30
0.0000
  0
VERTEX
  8
16
 10
245.6000
 20
147.2000
 30
0.0000
  0
SEQEND
  8
0
  0
POLYLINE
  8
16
 66
1
 10
0.0000
 20
0.0000
 30
0.0000
 40
0.2032
 41
0.2032
 70
0
  0
VERTEX
  8
16
 10
245.5282
 20
147.1282
 30
0.0000
 42
1.0000
  0
VERTEX
  8
16
 10
245.6718
 20
147.2718
 30
0.0000
  0
SEQEND
  8
0
  0
POLYLINE
  8
16
 66
1
 10
0.0000
 20
0.0000
 30
0.0000
 40
0.2032
 41
0.2032
 70
0
  0
VERTEX
  8
16
 10
244.0718
 20
148.8718
 30
0.0000
 42
1.0000
  0
VERTEX
  8
16
 10
243.9282
 20
148.7282
 30
0.0000
  0
SEQEND
  8
0
  0
POLYLINE
  8
16
 66
1
 10
0.0000
 20
0.0000
 30
0.0000
 40
0.4064
 41
0.4064
 70
0
  0
VERTEX
  8
16
 10
245.6000
 20
147.2000
 30
0.0000
  0
VERTEX
  8
16
 10
246.9000
 20
147.2000
 30
0.0000
  0
SEQEND
  8
0
  0
POLYLINE
  8
16
 66
1
 10
0.0000
 20
0.0000
 30
0.0000
 40
0.2032
 41
0.2032
 70
0
  0
VERTEX
  8
16
 10
246.9000
 20
147.0984
 30
0.0000
 42
1.0000
  0
VERTEX
  8
16
 10
246.9000
 20
147.3016
 30
0.0000
  0
SEQEND
  8
0
  0
POLYLINE
  8
16
 66
1
 10
0.0000
 20
0.0000
 30
0.0000
 40
0.2032
 41
0.2032
 70
0
  0
VERTEX
  8
16
 10
245.6000
 20
147.3016
 30
0.0000
 42
1.0000
  0
VERTEX
  8
16
 10
245.6000
 20
147.0984
 30
0.0000
  0
SEQEND
  8
0
  0
POLYLINE
  8
16
 66
1
 10
0.0000
 20
0.0000
 30
0.0000
 40
0.4064
 41
0.4064
 70
0
  0
VERTEX
  8
16
 10
246.9000
 20
147.2000
 30
0.0000
  0
VERTEX
  8
16
 10
256.0000
 20
156.3000
 30
0.0000
  0
SEQEND
  8
0
  0
POLYLINE
  8
16
 66
1
 10
0.0000
 20
0.0000
 30
0.0000
 40
0.2032
 41
0.2032
 70
0
  0
VERTEX
  8
16
 10
256.0718
 20
156.2282
 30
0.0000
 42
1.0000
  0
VERTEX
  8
16
 10
255.9282
 20
156.3718
 30
0.0000
  0
SEQEND
  8
0
  0
POLYLINE
  8
16
 66
1
 10
0.0000
 20
0.0000
 30
0.0000
 40
0.2032
 41
0.2032
 70
0
  0
VERTEX
  8
16
 10
246.8282
 20
147.2718
 30
0.0000
 42
1.0000
  0
VERTEX
  8
16
 10
246.9718
 20
147.1282
 30
0.0000
  0
SEQEND
  8
0
  0
POLYLINE
  8
16
 66
1
 10
0.0000
 20
0.0000
 30
0.0000
 40
0.4064
 41
0.4064
 70
0
  0
VERTEX
  8
16
 10
256.0000
 20
156.3000
 30
0.0000
  0
VERTEX
  8
16
 10
256.0000
 20
166.9000
 30
0.0000
  0
SEQEND
  8
0
  0
POLYLINE
  8
16
 66
1
 10
0.0000
 20
0.0000
 30
0.0000
 40
0.2032
 41
0.2032
 70
0
  0
VERTEX
  8
16
 10
256.1016
 20
166.9000
 30
0.0000
 42
1.0000
  0
VERTEX
  8
16
 10
255.8984
 20
166.9000
 30
0.0000
  0
SEQEND
  8
0
  0
POLYLINE
  8
16
 66
1
 10
0.0000
 20
0.0000
 30
0.0000
 40
0.2032
 41
0.2032
 70
0
  0
VERTEX
  8
16
 10
255.8984
 20
156.3000
 30
0.0000
 42
1.0000
  0
VERTEX
  8
16
 10
256.1016
 20
156.3000
 30
0.0000
  0
SEQEND
  8
0
  0
POLYLINE
  8
16
 66
1
 10
0.0000
 20
0.0000
 30
0.0000
 40
0.4064
 41
0.4064
 70
0
  0
VERTEX
  8
16
 10
256.0000
 20
166.9000
 30
0.0000
  0
VERTEX
  8
16
 10
257.4000
 20
168.3000
 30
0.0000
  0
SEQEND
  8
0
  0
POLYLINE
  8
16
 66
1
 10
0.0000
 20
0.0000
 30
0.0000
 40
0.2032
 41
0.2032
 70
0
  0
VERTEX
  8
16
 10
257.4718
 20
168.2282
 30
0.0000
 42
1.0000
  0
VERTEX
  8
16
 10
257.3282
 20
168.3718
 30
0.0000
  0
SEQEND
  8
0
  0
POLYLINE
  8
16
 66
1
 10
0.0000
 20
0.0000
 30
0.0000
 40
0.2032
 41
0.2032
 70
0
  0
VERTEX
  8
16
 10
255.9282
 20
166.9718
 30
0.0000
 42
1.0000
  0
VERTEX
  8
16
 10
256.0718
 20
166.8282
 30
0.0000
  0
SEQEND
  8
0
  0
POLYLINE
  8
16
 66
1
 10
0.0000
 20
0.0000
 30
0.0000
 40
0.4064
 41
0.4064
 70
0
  0
VERTEX
  8
16
 10
257.4000
 20
168.3000
 30
0.0000
  0
VERTEX
  8
16
 10
259.4000
 20
168.3000
 30
0.0000
  0
SEQEND
  8
0
  0
POLYLINE
  8
16
 66
1
 10
0.0000
 20
0.0000
 30
0.0000
 40
0.2032
 41
0.2032
 70
0
  0
VERTEX
  8
16
 10
259.4000
 20
168.1984
 30
0.0000
 42
1.0000
  0
VERTEX
  8
16
 10
259.4000
 20
168.4016
 30
0.0000
  0
SEQEND
  8
0
  0
POLYLINE
  8
16
 66
1
 10
0.0000
 20
0.0000
 30
0.0000
 40
0.2032
 41
0.2032
 70
0
  0
VERTEX
  8
16
 10
257.4000
 20
168.4016
 30
0.0000
 42
1.0000
  0
VERTEX
  8
16
 10
257.4000
 20
168.1984
 30
0.0000
  0
SEQEND
  8
0
  0
POLYLINE
  8
16
 66
1
 10
0.0000
 20
0.0000
 30
0.0000
 40
0.4064
 41
0.4064
 70
0
  0
VERTEX
  8
16
 10
259.4000
 20
168.3000
 30
0.0000
  0
VERTEX
  8
16
 10
262.4000
 20
165.3000
 30
0.0000
  0
SEQEND
  8
0
  0
POLYLINE
  8
16
 66
1
 10
0.0000
 20
0.0000
 30
0.0000
 40
0.2032
 41
0.2032
 70
0
  0
VERTEX
  8
16
 10
262.3282
 20
165.2282
 30
0.0000
 42
1.0000
  0
VERTEX
  8
16
 10
262.4718
 20
165.3718
 30
0.0000
  0
SEQEND
  8
0
  0
POLYLINE
  8
16
 66
1
 10
0.0000
 20
0.0000
 30
0.0000
 40
0.2032
 41
0.2032
 70
0
  0
VERTEX
  8
16
 10
259.4718
 20
168.3718
 30
0.0000
 42
1.0000
  0
VERTEX
  8
16
 10
259.3282
 20
168.2282
 30
0.0000
  0
SEQEND
  8
0
  0
POLYLINE
  8
16
 66
1
 10
0.0000
 20
0.0000
 30
0.0000
 40
0.4064
 41
0.4064
 70
0
  0
VERTEX
  8
16
 10
262.4000
 20
165.3000
 30
0.0000
  0
VERTEX
  8
16
 10
262.4000
 20
155.7000
 30
0.0000
  0
SEQEND
  8
0
  0
POLYLINE
  8
16
 66
1
 10
0.0000
 20
0.0000
 30
0.0000
 40
0.2032
 41
0.2032
 70
0
  0
VERTEX
  8
16
 10
262.2984
 20
155.7000
 30
0.0000
 42
1.0000
  0
VERTEX
  8
16
 10
262.5016
 20
155.7000
 30
0.0000
  0
SEQEND
  8
0
  0
POLYLINE
  8
16
 66
1
 10
0.0000
 20
0.0000
 30
0.0000
 40
0.2032
 41
0.2032
 70
0
  0
VERTEX
  8
16
 10
262.5016
 20
165.3000
 30
0.0000
 42
1.0000
  0
VERTEX
  8
16
 10
262.2984
 20
165.3000
 30
0.0000
  0
SEQEND
  8
0
  0
POLYLINE
  8
16
 66
1
 10
0.0000
 20
0.0000
 30
0.0000
 40
0.4064
 41
0.4064
 70
0
  0
VERTEX
  8
16
 10
262.4000
 20
155.7000
 30
0.0000
  0
VERTEX
  8
16
 10
262.4000
 20
155.6000
 30
0.0000
  0
SEQEND
  8
0
  0
POLYLINE
  8
16
 66
1
 10
0.0000
 20
0.0000
 30
0.0000
 40
0.2032
 41
0.2032
 70
0
  0
VERTEX
  8
16
 10
262.2984
 20
155.6000
 30
0.0000
 42
1.0000
  0
VERTEX
  8
16
 10
262.5016
 20
155.6000
 30
0.0000
  0
SEQEND
  8
0
  0
POLYLINE
  8
16
 66
1
 10
0.0000
 20
0.0000
 30
0.0000
 40
0.2032
 41
0.2032
 70
0
  0
VERTEX
  8
16
 10
262.5016
 20
155.7000
 30
0.0000
 42
1.0000
  0
VERTEX
  8
16
 10
262.2984
 20
155.7000
 30
0.0000
  0
SEQEND
  8
0
  0
POLYLINE
  8
16
 66
1
 10
0.0000
 20
0.0000
 30
0.0000
 40
0.4064
 41
0.4064
 70
0
  0
VERTEX
  8
16
 10
262.4000
 20
155.7000
 30
0.0000
  0
VERTEX
  8
16
 10
258.7000
 20
152.0000
 30
0.0000
  0
SEQEND
  8
0
  0
POLYLINE
  8
16
 66
1
 10
0.0000
 20
0.0000
 30
0.0000
 40
0.2032
 41
0.2032
 70
0
  0
VERTEX
  8
16
 10
258.6282
 20
152.0718
 30
0.0000
 42
1.0000
  0
VERTEX
  8
16
 10
258.7718
 20
151.9282
 30
0.0000
  0
SEQEND
  8
0
  0
POLYLINE
  8
16
 66
1
 10
0.0000
 20
0.0000
 30
0.0000
 40
0.2032
 41
0.2032
 70
0
  0
VERTEX
  8
16
 10
262.4718
 20
155.6282
 30
0.0000
 42
1.0000
  0
VERTEX
  8
16
 10
262.3282
 20
155.7718
 30
0.0000
  0
SEQEND
  8
0
  0
POLYLINE
  8
16
 66
1
 10
0.0000
 20
0.0000
 30
0.0000
 40
0.4064
 41
0.4064
 70
0
  0
VERTEX
  8
16
 10
258.7000
 20
152.0000
 30
0.0000
  0
VERTEX
  8
16
 10
258.7000
 20
149.9000
 30
0.0000
  0
SEQEND
  8
0
  0
POLYLINE
  8
16
 66
1
 10
0.0000
 20
0.0000
 30
0.0000
 40
0.2032
 41
0.2032
 70
0
  0
VERTEX
  8
16
 10
258.5984
 20
149.9000
 30
0.0000
 42
1.0000
  0
VERTEX
  8
16
 10
258.8016
 20
149.9000
 30
0.0000
  0
SEQEND
  8
0
  0
POLYLINE
  8
16
 66
1
 10
0.0000
 20
0.0000
 30
0.0000
 40
0.2032
 41
0.2032
 70
0
  0
VERTEX
  8
16
 10
258.8016
 20
152.0000
 30
0.0000
 42
1.0000
  0
VERTEX
  8
16
 10
258.5984
 20
152.0000
 30
0.0000
  0
SEQEND
  8
0
  0
POLYLINE
  8
16
 66
1
 10
0.0000
 20
0.0000
 30
0.0000
 40
0.4064
 41
0.4064
 70
0
  0
VERTEX
  8
16
 10
258.7000
 20
149.9000
 30
0.0000
  0
VERTEX
  8
16
 10
260.5000
 20
148.1000
 30
0.0000
  0
SEQEND
  8
0
  0
POLYLINE
  8
16
 66
1
 10
0.0000
 20
0.0000
 30
0.0000
 40
0.2032
 41
0.2032
 70
0
  0
VERTEX
  8
16
 10
260.4282
 20
148.0282
 30
0.0000
 42
1.0000
  0
VERTEX
  8
16
 10
260.5718
 20
148.1718
 30
0.0000
  0
SEQEND
  8
0
  0
POLYLINE
  8
16
 66
1
 10
0.0000
 20
0.0000
 30
0.0000
 40
0.2032
 41
0.2032
 70
0
  0
VERTEX
  8
16
 10
258.7718
 20
149.9718
 30
0.0000
 42
1.0000
  0
VERTEX
  8
16
 10
258.6282
 20
149.8282
 30
0.0000
  0
SEQEND
  8
0
  0
POLYLINE
  8
16
 66
1
 10
0.0000
 20
0.0000
 30
0.0000
 40
0.4064
 41
0.4064
 70
0
  0
VERTEX
  8
16
 10
260.5000
 20
148.1000
 30
0.0000
  0
VERTEX
  8
16
 10
263.5000
 20
148.1000
 30
0.0000
  0
SEQEND
  8
0
  0
POLYLINE
  8
16
 66
1
 10
0.0000
 20
0.0000
 30
0.0000
 40
0.2032
 41
0.2032
 70
0
  0
VERTEX
  8
16
 10
263.5000
 20
147.9984
 30
0.0000
 42
1.0000
  0
VERTEX
  8
16
 10
263.5000
 20
148.2016
 30
0.0000
  0
SEQEND
  8
0
  0
POLYLINE
  8
16
 66
1
 10
0.0000
 20
0.0000
 30
0.0000
 40
0.2032
 41
0.2032
 70
0
  0
VERTEX
  8
16
 10
260.5000
 20
148.2016
 30
0.0000
 42
1.0000
  0
VERTEX
  8
16
 10
260.5000
 20
147.9984
 30
0.0000
  0
SEQEND
  8
0
  0
POLYLINE
  8
16
 66
1
 10
0.0000
 20
0.0000
 30
0.0000
 40
0.4064
 41
0.4064
 70
0
  0
VERTEX
  8
16
 10
263.5000
 20
148.1000
 30
0.0000
  0
VERTEX
  8
16
 10
266.8000
 20
151.4000
 30
0.0000
  0
SEQEND
  8
0
  0
POLYLINE
  8
16
 66
1
 10
0.0000
 20
0.0000
 30
0.0000
 40
0.2032
 41
0.2032
 70
0
  0
VERTEX
  8
16
 10
266.8718
 20
151.3282
 30
0.0000
 42
1.0000
  0
VERTEX
  8
16
 10
266.7282
 20
151.4718
 30
0.0000
  0
SEQEND
  8
0
  0
POLYLINE
  8
16
 66
1
 10
0.0000
 20
0.0000
 30
0.0000
 40
0.2032
 41
0.2032
 70
0
  0
VERTEX
  8
16
 10
263.4282
 20
148.1718
 30
0.0000
 42
1.0000
  0
VERTEX
  8
16
 10
263.5718
 20
148.0282
 30
0.0000
  0
SEQEND
  8
0
  0
POLYLINE
  8
16
 66
1
 10
0.0000
 20
0.0000
 30
0.0000
 40
0.4064
 41
0.4064
 70
0
  0
VERTEX
  8
16
 10
266.8000
 20
151.4000
 30
0.0000
  0
VERTEX
  8
16
 10
266.8000
 20
158.1000
 30
0.0000
  0
SEQEND
  8
0
  0
POLYLINE
  8
16
 66
1
 10
0.0000
 20
0.0000
 30
0.0000
 40
0.2032
 41
0.2032
 70
0
  0
VERTEX
  8
16
 10
266.9016
 20
158.1000
 30
0.0000
 42
1.0000
  0
VERTEX
  8
16
 10
266.6984
 20
158.1000
 30
0.0000
  0
SEQEND
  8
0
  0
POLYLINE
  8
16
 66
1
 10
0.0000
 20
0.0000
 30
0.0000
 40
0.2032
 41
0.2032
 70
0
  0
VERTEX
  8
16
 10
266.6984
 20
151.4000
 30
0.0000
 42
1.0000
  0
VERTEX
  8
16
 10
266.9016
 20
151.4000
 30
0.0000
  0
SEQEND
  8
0
  0
POLYLINE
  8
16
 66
1
 10
0.0000
 20
0.0000
 30
0.0000
 40
0.4064
 41
0.4064
 70
0
  0
VERTEX
  8
16
 10
266.8000
 20
158.1000
 30
0.0000
  0
VERTEX
  8
16
 10
267.9000
 20
159.2000
 30
0.0000
  0
SEQEND
  8
0
  0
POLYLINE
  8
16
 66
1
 10
0.0000
 20
0.0000
 30
0.0000
 40
0.2032
 41
0.2032
 70
0
  0
VERTEX
  8
16
 10
267.9718
 20
159.1282
 30
0.0000
 42
1.0000
  0
VERTEX
  8
16
 10
267.8282
 20
159.2718
 30
0.0000
  0
SEQEND
  8
0
  0
POLYLINE
  8
16
 66
1
 10
0.0000
 20
0.0000
 30
0.0000
 40
0.2032
 41
0.2032
 70
0
  0
VERTEX
  8
16
 10
266.7282
 20
158.1718
 30
0.0000
 42
1.0000
  0
VERTEX
  8
16
 10
266.8718
 20
158.0282
 30
0.0000
  0
SEQEND
  8
0
  0
POLYLINE
  8
16
 66
1
 10
0.0000
 20
0.0000
 30
0.0000
 40
0.4064
 41
0.4064
 70
0
  0
VERTEX
  8
16
 10
267.9000
 20
159.2000
 30
0.0000
  0
VERTEX
  8
16
 10
270.9000
 20
159.2000
 30
0.0000
  0
SEQEND
  8
0
  0
POLYLINE
  8
16
 66
1
 10
0.0000
 20
0.0000
 30
0.0000
 40
0.2032
 41
0.2032
 70
0
  0
VERTEX
  8
16
 10
270.9000
 20
159.0984
 30
0.0000
 42
1.0000
  0
VERTEX
  8
16
 10
270.9000
 20
159.3016
 30
0.0000
  0
SEQEND
  8
0
  0
POLYLINE
  8
16
 66
1
 10
0.0000
 20
0.0000
 30
0.0000
 40
0.2032
 41
0.2032
 70
0
  0
VERTEX
  8
16
 10
267.9000
 20
159.3016
 30
0.0000
 42
1.0000
  0
VERTEX
  8
16
 10
267.9000
 20
159.0984
 30
0.0000
  0
SEQEND
  8
0
  0
POLYLINE
  8
16
 66
1
 10
0.0000
 20
0.0000
 30
0.0000
 40
0.4064
 41
0.4064
 70
0
  0
VERTEX
  8
16
 10
270.9000
 20
159.2000
 30
0.0000
  0
VERTEX
  8
16
 10
271.8000
 20
158.3000
 30
0.0000
  0
SEQEND
  8
0
  0
POLYLINE
  8
16
 66
1
 10
0.0000
 20
0.0000
 30
0.0000
 40
0.2032
 41
0.2032
 70
0
  0
VERTEX
  8
16
 10
271.7282
 20
158.2282
 30
0.0000
 42
1.0000
  0
VERTEX
  8
16
 10
271.8718
 20
158.3718
 30
0.0000
  0
SEQEND
  8
0
  0
POLYLINE
  8
16
 66
1
 10
0.0000
 20
0.0000
 30
0.0000
 40
0.2032
 41
0.2032
 70
0
  0
VERTEX
  8
16
 10
270.9718
 20
159.2718
 30
0.0000
 42
1.0000
  0
VERTEX
  8
16
 10
270.8282
 20
159.1282
 30
0.0000
  0
SEQEND
  8
0
  0
POLYLINE
  8
16
 66
1
 10
0.0000
 20
0.0000
 30
0.0000
 40
0.4064
 41
0.4064
 70
0
  0
VERTEX
  8
16
 10
271.8000
 20
158.3000
 30
0.0000
  0
VERTEX
  8
16
 10
271.8000
 20
153.6000
 30
0.0000
  0
SEQEND
  8
0
  0
POLYLINE
  8
16
 66
1
 10
0.0000
 20
0.0000
 30
0.0000
 40
0.2032
 41
0.2032
 70
0
  0
VERTEX
  8
16
 10
271.6984
 20
153.6000
 30
0.0000
 42
1.0000
  0
VERTEX
  8
16
 10
271.9016
 20
153.6000
 30
0.0000
  0
SEQEND
  8
0
  0
POLYLINE
  8
16
 66
1
 10
0.0000
 20
0.0000
 30
0.0000
 40
0.2032
 41
0.2032
 70
0
  0
VERTEX
  8
16
 10
271.9016
 20
158.3000
 30
0.0000
 42
1.0000
  0
VERTEX
  8
16
 10
271.6984
 20
158.3000
 30
0.0000
  0
SEQEND
  8
0
  0
POLYLINE
  8
16
 66
1
 10
0.0000
 20
0.0000
 30
0.0000
 40
0.4064
 41
0.4064
 70
0
  0
VERTEX
  8
16
 10
272.4000
 20
153.0000
 30
0.0000
  0
VERTEX
  8
16
 10
273.5000
 20
153.0000
 30
0.0000
  0
SEQEND
  8
0
  0
POLYLINE
  8
16
 66
1
 10
0.0000
 20
0.0000
 30
0.0000
 40
0.2032
 41
0.2032
 70
0
  0
VERTEX
  8
16
 10
273.5000
 20
152.8984
 30
0.0000
 42
1.0000
  0
VERTEX
  8
16
 10
273.5000
 20
153.1016
 30
0.0000
  0
SEQEND
  8
0
  0
POLYLINE
  8
16
 66
1
 10
0.0000
 20
0.0000
 30
0.0000
 40
0.2032
 41
0.2032
 70
0
  0
VERTEX
  8
16
 10
272.4000
 20
153.1016
 30
0.0000
 42
1.0000
  0
VERTEX
  8
16
 10
272.4000
 20
152.8984
 30
0.0000
  0
SEQEND
  8
0
  0
POLYLINE
  8
16
 66
1
 10
0.0000
 20
0.0000
 30
0.0000
 40
0.4064
 41
0.4064
 70
0
  0
VERTEX
  8
16
 10
273.5000
 20
153.0000
 30
0.0000
  0
VERTEX
  8
16
 10
277.6500
 20
157.1500
 30
0.0000
  0
SEQEND
  8
0
  0
POLYLINE
  8
16
 66
1
 10
0.0000
 20
0.0000
 30
0.0000
 40
0.2032
 41
0.2032
 70
0
  0
VERTEX
  8
16
 10
277.7218
 20
157.0782
 30
0.0000
 42
1.0000
  0
VERTEX
  8
16
 10
277.5782
 20
157.2218
 30
0.0000
  0
SEQEND
  8
0
  0
POLYLINE
  8
16
 66
1
 10
0.0000
 20
0.0000
 30
0.0000
 40
0.2032
 41
0.2032
 70
0
  0
VERTEX
  8
16
 10
273.4282
 20
153.0718
 30
0.0000
 42
1.0000
  0
VERTEX
  8
16
 10
273.5718
 20
152.9282
 30
0.0000
  0
SEQEND
  8
0
  0
POLYLINE
  8
16
 66
1
 10
0.0000
 20
0.0000
 30
0.0000
 40
0.4064
 41
0.4064
 70
0
  0
VERTEX
  8
16
 10
277.6500
 20
157.1500
 30
0.0000
  0
VERTEX
  8
16
 10
277.6500
 20
167.0300
 30
0.0000
  0
SEQEND
  8
0
  0
POLYLINE
  8
16
 66
1
 10
0.0000
 20
0.0000
 30
0.0000
 40
0.2032
 41
0.2032
 70
0
  0
VERTEX
  8
16
 10
277.7516
 20
167.0300
 30
0.0000
 42
1.0000
  0
VERTEX
  8
16
 10
277.5484
 20
167.0300
 30
0.0000
  0
SEQEND
  8
0
  0
POLYLINE
  8
16
 66
1
 10
0.0000
 20
0.0000
 30
0.0000
 40
0.2032
 41
0.2032
 70
0
  0
VERTEX
  8
16
 10
277.5484
 20
157.1500
 30
0.0000
 42
1.0000
  0
VERTEX
  8
16
 10
277.7516
 20
157.1500
 30
0.0000
  0
SEQEND
  8
0
  0
POLYLINE
  8
16
 66
1
 10
0.0000
 20
0.0000
 30
0.0000
 40
0.4064
 41
0.4064
 70
0
  0
VERTEX
  8
16
 10
271.8000
 20
153.6000
 30
0.0000
  0
VERTEX
  8
16
 10
272.4000
 20
153.0000
 30
0.0000
  0
SEQEND
  8
0
  0
POLYLINE
  8
16
 66
1
 10
0.0000
 20
0.0000
 30
0.0000
 40
0.2032
 41
0.2032
 70
0
  0
VERTEX
  8
16
 10
272.3282
 20
152.9282
 30
0.0000
 42
1.0000
  0
VERTEX
  8
16
 10
272.4718
 20
153.0718
 30
0.0000
  0
SEQEND
  8
0
  0
POLYLINE
  8
16
 66
1
 10
0.0000
 20
0.0000
 30
0.0000
 40
0.2032
 41
0.2032
 70
0
  0
VERTEX
  8
16
 10
271.8718
 20
153.6718
 30
0.0000
 42
1.0000
  0
VERTEX
  8
16
 10
271.7282
 20
153.5282
 30
0.0000
  0
SEQEND
  8
0
  0
POLYLINE
  8
16
 66
1
 10
0.0000
 20
0.0000
 30
0.0000
 40
0.4064
 41
0.4064
 70
0
  0
VERTEX
  8
16
 10
0.0000
 20
200.0000
 30
0.0000
  0
VERTEX
  8
16
 10
254.0000
 20
200.0000
 30
0.0000
  0
SEQEND
  8
0
  0
POLYLINE
  8
16
 66
1
 10
0.0000
 20
0.0000
 30
0.0000
 40
0.2032
 41
0.2032
 70
0
  0
VERTEX
  8
16
 10
254.0000
 20
199.8984
 30
0.0000
 42
1.0000
  0
VERTEX
  8
16
 10
254.0000
 20
200.1016
 30
0.0000
  0
SEQEND
  8
0
  0
POLYLINE
  8
16
 66
1
 10
0.0000
 20
0.0000
 30
0.0000
 40
0.2032
 41
0.2032
 70
0
  0
VERTEX
  8
16
 10
0.0000
 20
200.1016
 30
0.0000
 42
1.0000
  0
VERTEX
  8
16
 10
0.0000
 20
199.8984
 30
0.0000
  0
SEQEND
  8
0
  0
POLYLINE
  8
16
 66
1
 10
0.0000
 20
0.0000
 30
0.0000
 40
0.4064
 41
0.4064
 70
0
  0
VERTEX
  8
16
 10
254.0000
 20
200.0000
 30
0.0000
  0
VERTEX
  8
16
 10
254.0000
 20
172.0000
 30
0.0000
  0
SEQEND
  8
0
  0
POLYLINE
  8
16
 66
1
 10
0.0000
 20
0.0000
 30
0.0000
 40
0.2032
 41
0.2032
 70
0
  0
VERTEX
  8
16
 10
253.8984
 20
172.0000
 30
0.0000
 42
1.0000
  0
VERTEX
  8
16
 10
254.1016
 20
172.0000
 30
0.0000
  0
SEQEND
  8
0
  0
POLYLINE
  8
16
 66
1
 10
0.0000
 20
0.0000
 30
0.0000
 40
0.2032
 41
0.2032
 70
0
  0
VERTEX
  8
16
 10
254.1016
 20
200.0000
 30
0.0000
 42
1.0000
  0
VERTEX
  8
16
 10
253.8984
 20
200.0000
 30
0.0000
  0
SEQEND
  8
0
  0
POLYLINE
  8
16
 66
1
 10
0.0000
 20
0.0000
 30
0.0000
 40
0.4064
 41
0.4064
 70
0
  0
VERTEX
  8
16
 10
254.0000
 20
172.0000
 30
0.0000
  0
VERTEX
  8
16
 10
297.0000
 20
172.0000
 30
0.0000
  0
SEQEND
  8
0
  0
POLYLINE
  8
16
 66
1
 10
0.0000
 20
0.0000
 30
0.0000
 40
0.2032
 41
0.2032
 70
0
  0
VERTEX
  8
16
 10
297.0000
 20
171.8984
 30
0.0000
 42
1.0000
  0
VERTEX
  8
16
 10
297.0000
 20
172.1016
 30
0.0000
  0
SEQEND
  8
0
  0
POLYLINE
  8
16
 66
1
 10
0.0000
 20
0.0000
 30
0.0000
 40
0.2032
 41
0.2032
 70
0
  0
VERTEX
  8
16
 10
254.0000
 20
172.1016
 30
0.0000
 42
1.0000
  0
VERTEX
  8
16
 10
254.0000
 20
171.8984
 30
0.0000
  0
SEQEND
  8
0
  0
POLYLINE
  8
16
 66
1
 10
0.0000
 20
0.0000
 30
0.0000
 40
0.4064
 41
0.4064
 70
0
  0
VERTEX
  8
16
 10
297.0000
 20
172.0000
 30
0.0000
  0
VERTEX
  8
16
 10
297.0000
 20
0.0000
 30
0.0000
  0
SEQEND
  8
0
  0
POLYLINE
  8
16
 66
1
 10
0.0000
 20
0.0000
 30
0.0000
 40
0.2032
 41
0.2032
 70
0
  0
VERTEX
  8
16
 10
296.8984
 20
0.0000
 30
0.0000
 42
1.0000
  0
VERTEX
  8
16
 10
297.1016
 20
0.0000
 30
0.0000
  0
SEQEND
  8
0
  0
POLYLINE
  8
16
 66
1
 10
0.0000
 20
0.0000
 30
0.0000
 40
0.2032
 41
0.2032
 70
0
  0
VERTEX
  8
16
 10
297.1016
 20
172.0000
 30
0.0000
 42
1.0000
  0
VERTEX
  8
16
 10
296.8984
 20
172.0000
 30
0.0000
  0
SEQEND
  8
0
  0
POLYLINE
  8
16
 66
1
 10
0.0000
 20
0.0000
 30
0.0000
 40
0.4064
 41
0.4064
 70
0
  0
VERTEX
  8
16
 10
297.0000
 20
0.0000
 30
0.0000
  0
VERTEX
  8
16
 10
0.0000
 20
0.0000
 30
0.0000
  0
SEQEND
  8
0
  0
POLYLINE
  8
16
 66
1
 10
0.0000
 20
0.0000
 30
0.0000
 40
0.2032
 41
0.2032
 70
0
  0
VERTEX
  8
16
 10
0.0000
 20
0.1016
 30
0.0000
 42
1.0000
  0
VERTEX
  8
16
 10
0.0000
 20
-0.1016
 30
0.0000
  0
SEQEND
  8
0
  0
POLYLINE
  8
16
 66
1
 10
0.0000
 20
0.0000
 30
0.0000
 40
0.2032
 41
0.2032
 70
0
  0
VERTEX
  8
16
 10
297.0000
 20
-0.1016
 30
0.0000
 42
1.0000
  0
VERTEX
  8
16
 10
297.0000
 20
0.1016
 30
0.0000
  0
SEQEND
  8
0
  0
POLYLINE
  8
16
 66
1
 10
0.0000
 20
0.0000
 30
0.0000
 40
0.4064
 41
0.4064
 70
0
  0
VERTEX
  8
16
 10
0.0000
 20
0.0000
 30
0.0000
  0
VERTEX
  8
16
 10
0.0000
 20
200.0000
 30
0.0000
  0
SEQEND
  8
0
  0
POLYLINE
  8
16
 66
1
 10
0.0000
 20
0.0000
 30
0.0000
 40
0.2032
 41
0.2032
 70
0
  0
VERTEX
  8
16
 10
0.1016
 20
200.0000
 30
0.0000
 42
1.0000
  0
VERTEX
  8
16
 10
-0.1016
 20
200.0000
 30
0.0000
  0
SEQEND
  8
0
  0
POLYLINE
  8
16
 66
1
 10
0.0000
 20
0.0000
 30
0.0000
 40
0.2032
 41
0.2032
 70
0
  0
VERTEX
  8
16
 10
-0.1016
 20
0.0000
 30
0.0000
 42
1.0000
  0
VERTEX
  8
16
 10
0.1016
 20
0.0000
 30
0.0000
  0
SEQEND
  8
0
  0
ENDSEC
  0
EOF
