  0
SECTION
  2
HEADER
  9
$ACADVER
  1
AC1009
  9
$FILLMODE
 70
1
  9
$EXTMIN
 10
-1.4300
 20
-0.2032
 30
0.0000
  9
$EXTMAX
 10
331.3333
 20
200.2032
 30
0.0000
  0
ENDSEC
  0
SECTION
  2
TABLES
  0
TABLE
  2
LTYPE
 70
1
  0
LTYPE
  2
CONTINUOUS
 70
64
  3
Solid line
 72
65
 73
0
 40
0
  0
ENDTAB
  0
TABLE
  2
LAYER
 70
255
  0
LAYER
  2
1
 70
64
 62
22
  6
CONTINUOUS
  0
LAYER
  2
16
 70
64
 62
175
  6
CONTINUOUS
  0
LAYER
  2
17
 70
64
 62
82
  6
CONTINUOUS
  0
LAYER
  2
18
 70
64
 62
82
  6
CONTINUOUS
  0
LAYER
  2
19
 70
64
 62
53
  6
CONTINUOUS
  0
LAYER
  2
20
 70
64
 62
7
  6
CONTINUOUS
  0
ENDTAB
  0
ENDSEC
  0
SECTION
  2
BLOCKS
  0
BLOCK
  8
0
  2
RECT
 70
64
 10
0.0000
 20
0.0000
 30
0.0000
  3
RECT
  0
SOLID
  8
0
 10
-0.5000
 20
-0.5000
 30
0.0000
 11
0.5000
 21
-0.5000
 31
0.0000
 12
-0.5000
 22
0.5000
 32
0.0000
 13
0.5000
 23
0.5000
 33
0.0000
  0
ENDBLK
  8
0
  0
BLOCK
  8
0
  2
PIE
 70
64
 10
0.0000
 20
0.0000
 30
0.0000
  3
PIE
  0
POLYLINE
  8
0
 66
1
 10
0.0000
 20
0.0000
 30
0.0000
 40
0.5000
 41
0.5000
 70
0
  0
VERTEX
  8
0
 10
0.0000
 20
-0.2500
 30
0.0000
 42
1.0000
  0
VERTEX
  8
0
 10
0.0000
 20
0.2500
 30
0.0000
 42
1.0000
  0
VERTEX
  8
0
 10
0.0000
 20
-0.2500
 30
0.0000
  0
SEQEND
  8
0
  0
ENDBLK
  8
0
  0
BLOCK
  8
0
  2
OCTAGONP
 70
64
 10
0.0000
 20
0.0000
 30
0.0000
  3
OCTAGONP
  0
POLYLINE
  8
0
 66
1
 10
0.0000
 20
0.0000
 30
0.0000
 40
0.5000
 41
0.5000
 70
0
  0
VERTEX
  8
0
 10
-0.2500
 20
-0.1036
 30
0.0000
  0
VERTEX
  8
0
 10
-0.2500
 20
0.1036
 30
0.0000
  0
VERTEX
  8
0
 10
-0.1036
 20
0.2500
 30
0.0000
  0
VERTEX
  8
0
 10
0.1036
 20
0.2500
 30
0.0000
  0
VERTEX
  8
0
 10
0.2500
 20
0.1036
 30
0.0000
  0
VERTEX
  8
0
 10
0.2500
 20
-0.1036
 30
0.0000
  0
VERTEX
  8
0
 10
0.1036
 20
-0.2500
 30
0.0000
  0
VERTEX
  8
0
 10
-0.1036
 20
-0.2500
 30
0.0000
  0
VERTEX
  8
0
 10
-0.2500
 20
-0.1036
 30
0.0000
  0
VERTEX
  8
0
 10
-0.2500
 20
0.1036
 30
0.0000
  0
SEQEND
  8
0
  0
ENDBLK
  8
0
  0
BLOCK
  8
0
  2
SQUAREP
 70
64
 10
0.0000
 20
0.0000
 30
0.0000
  3
SQUAREP
  0
SOLID
  8
0
 10
-0.5000
 20
-0.5000
 30
0.0000
 11
0.5000
 21
-0.5000
 31
0.0000
 12
-0.5000
 22
0.5000
 32
0.0000
 13
0.5000
 23
0.5000
 33
0.0000
  0
ENDBLK
  8
0
  0
BLOCK
  8
0
  2
ROUNDP
 70
64
 10
0.0000
 20
0.0000
 30
0.0000
  3
ROUNDP
  0
POLYLINE
  8
0
 66
1
 10
0.0000
 20
0.0000
 30
0.0000
 40
0.5000
 41
0.5000
 70
0
  0
VERTEX
  8
0
 10
0.0000
 20
-0.2500
 30
0.0000
 42
1.0000
  0
VERTEX
  8
0
 10
0.0000
 20
0.2500
 30
0.0000
 42
1.0000
  0
VERTEX
  8
0
 10
0.0000
 20
-0.2500
 30
0.0000
  0
SEQEND
  8
0
  0
ENDBLK
  8
0
  0
BLOCK
  8
0
  2
ANNULUSP
 70
64
 10
0.0000
 20
0.0000
 30
0.0000
  3
ANNULUSP
  0
POLYLINE
  8
0
 66
1
 10
0.0000
 20
0.0000
 30
0.0000
 40
0.5000
 41
0.5000
 70
0
  0
VERTEX
  8
0
 10
0.0000
 20
-0.2500
 30
0.0000
 42
1.0000
  0
VERTEX
  8
0
 10
0.0000
 20
0.2500
 30
0.0000
 42
1.0000
  0
VERTEX
  8
0
 10
0.0000
 20
-0.2500
 30
0.0000
  0
SEQEND
  8
0
  0
ENDBLK
  8
0
  0
BLOCK
  8
0
  2
THERMALP
 70
64
 10
0.0000
 20
0.0000
 30
0.0000
  3
THERMALP
  0
POLYLINE
  8
0
 66
1
 10
0.0000
 20
0.0000
 30
0.0000
 40
0.1000
 41
0.1000
 70
0
  0
VERTEX
  8
0
 10
-0.2379
 20
0.4500
 30
0.0000
  0
VERTEX
  8
0
 10
0.2379
 20
0.4500
 30
0.0000
  0
SEQEND
  8
0
  0
POLYLINE
  8
0
 66
1
 10
0.0000
 20
0.0000
 30
0.0000
 40
0.0500
 41
0.0500
 70
0
  0
VERTEX
  8
0
 10
0.2379
 20
0.4250
 30
0.0000
 42
1.0000
  0
VERTEX
  8
0
 10
0.2379
 20
0.4750
 30
0.0000
  0
SEQEND
  8
0
  0
POLYLINE
  8
0
 66
1
 10
0.0000
 20
0.0000
 30
0.0000
 40
0.0500
 41
0.0500
 70
0
  0
VERTEX
  8
0
 10
-0.2379
 20
0.4750
 30
0.0000
 42
1.0000
  0
VERTEX
  8
0
 10
-0.2379
 20
0.4250
 30
0.0000
  0
SEQEND
  8
0
  0
POLYLINE
  8
0
 66
1
 10
0.0000
 20
0.0000
 30
0.0000
 40
0.1000
 41
0.1000
 70
0
  0
VERTEX
  8
0
 10
0.4500
 20
0.2379
 30
0.0000
  0
VERTEX
  8
0
 10
0.4500
 20
-0.2379
 30
0.0000
  0
SEQEND
  8
0
  0
POLYLINE
  8
0
 66
1
 10
0.0000
 20
0.0000
 30
0.0000
 40
0.0500
 41
0.0500
 70
0
  0
VERTEX
  8
0
 10
0.4250
 20
-0.2379
 30
0.0000
 42
1.0000
  0
VERTEX
  8
0
 10
0.4750
 20
-0.2379
 30
0.0000
  0
SEQEND
  8
0
  0
POLYLINE
  8
0
 66
1
 10
0.0000
 20
0.0000
 30
0.0000
 40
0.0500
 41
0.0500
 70
0
  0
VERTEX
  8
0
 10
0.4750
 20
0.2379
 30
0.0000
 42
1.0000
  0
VERTEX
  8
0
 10
0.4250
 20
0.2379
 30
0.0000
  0
SEQEND
  8
0
  0
POLYLINE
  8
0
 66
1
 10
0.0000
 20
0.0000
 30
0.0000
 40
0.1000
 41
0.1000
 70
0
  0
VERTEX
  8
0
 10
0.2379
 20
-0.4500
 30
0.0000
  0
VERTEX
  8
0
 10
-0.2379
 20
-0.4500
 30
0.0000
  0
SEQEND
  8
0
  0
POLYLINE
  8
0
 66
1
 10
0.0000
 20
0.0000
 30
0.0000
 40
0.0500
 41
0.0500
 70
0
  0
VERTEX
  8
0
 10
-0.2379
 20
-0.4250
 30
0.0000
 42
1.0000
  0
VERTEX
  8
0
 10
-0.2379
 20
-0.4750
 30
0.0000
  0
SEQEND
  8
0
  0
POLYLINE
  8
0
 66
1
 10
0.0000
 20
0.0000
 30
0.0000
 40
0.0500
 41
0.0500
 70
0
  0
VERTEX
  8
0
 10
0.2379
 20
-0.4750
 30
0.0000
 42
1.0000
  0
VERTEX
  8
0
 10
0.2379
 20
-0.4250
 30
0.0000
  0
SEQEND
  8
0
  0
POLYLINE
  8
0
 66
1
 10
0.0000
 20
0.0000
 30
0.0000
 40
0.1000
 41
0.1000
 70
0
  0
VERTEX
  8
0
 10
-0.4500
 20
-0.2379
 30
0.0000
  0
VERTEX
  8
0
 10
-0.4500
 20
0.2379
 30
0.0000
  0
SEQEND
  8
0
  0
POLYLINE
  8
0
 66
1
 10
0.0000
 20
0.0000
 30
0.0000
 40
0.0500
 41
0.0500
 70
0
  0
VERTEX
  8
0
 10
-0.4250
 20
0.2379
 30
0.0000
 42
1.0000
  0
VERTEX
  8
0
 10
-0.4750
 20
0.2379
 30
0.0000
  0
SEQEND
  8
0
  0
POLYLINE
  8
0
 66
1
 10
0.0000
 20
0.0000
 30
0.0000
 40
0.0500
 41
0.0500
 70
0
  0
VERTEX
  8
0
 10
-0.4750
 20
-0.2379
 30
0.0000
 42
1.0000
  0
VERTEX
  8
0
 10
-0.4250
 20
-0.2379
 30
0.0000
  0
SEQEND
  8
0
  0
ENDBLK
  8
0
  0
BLOCK
  8
0
  2
OCTAGONV
 70
64
 10
0.0000
 20
0.0000
 30
0.0000
  3
OCTAGONV
  0
POLYLINE
  8
0
 66
1
 10
0.0000
 20
0.0000
 30
0.0000
 40
0.5000
 41
0.5000
 70
0
  0
VERTEX
  8
0
 10
-0.2500
 20
-0.1036
 30
0.0000
  0
VERTEX
  8
0
 10
-0.2500
 20
0.1036
 30
0.0000
  0
VERTEX
  8
0
 10
-0.1036
 20
0.2500
 30
0.0000
  0
VERTEX
  8
0
 10
0.1036
 20
0.2500
 30
0.0000
  0
VERTEX
  8
0
 10
0.2500
 20
0.1036
 30
0.0000
  0
VERTEX
  8
0
 10
0.2500
 20
-0.1036
 30
0.0000
  0
VERTEX
  8
0
 10
0.1036
 20
-0.2500
 30
0.0000
  0
VERTEX
  8
0
 10
-0.1036
 20
-0.2500
 30
0.0000
  0
VERTEX
  8
0
 10
-0.2500
 20
-0.1036
 30
0.0000
  0
VERTEX
  8
0
 10
-0.2500
 20
0.1036
 30
0.0000
  0
SEQEND
  8
0
  0
ENDBLK
  8
0
  0
BLOCK
  8
0
  2
SQUAREV
 70
64
 10
0.0000
 20
0.0000
 30
0.0000
  3
SQUAREV
  0
SOLID
  8
0
 10
-0.5000
 20
-0.5000
 30
0.0000
 11
0.5000
 21
-0.5000
 31
0.0000
 12
-0.5000
 22
0.5000
 32
0.0000
 13
0.5000
 23
0.5000
 33
0.0000
  0
ENDBLK
  8
0
  0
BLOCK
  8
0
  2
ROUNDV
 70
64
 10
0.0000
 20
0.0000
 30
0.0000
  3
ROUNDV
  0
POLYLINE
  8
0
 66
1
 10
0.0000
 20
0.0000
 30
0.0000
 40
0.5000
 41
0.5000
 70
0
  0
VERTEX
  8
0
 10
0.0000
 20
-0.2500
 30
0.0000
 42
1.0000
  0
VERTEX
  8
0
 10
0.0000
 20
0.2500
 30
0.0000
 42
1.0000
  0
VERTEX
  8
0
 10
0.0000
 20
-0.2500
 30
0.0000
  0
SEQEND
  8
0
  0
ENDBLK
  8
0
  0
BLOCK
  8
0
  2
ANNULUSV
 70
64
 10
0.0000
 20
0.0000
 30
0.0000
  3
ANNULUSV
  0
POLYLINE
  8
0
 66
1
 10
0.0000
 20
0.0000
 30
0.0000
 40
0.5000
 41
0.5000
 70
0
  0
VERTEX
  8
0
 10
0.0000
 20
-0.2500
 30
0.0000
 42
1.0000
  0
VERTEX
  8
0
 10
0.0000
 20
0.2500
 30
0.0000
 42
1.0000
  0
VERTEX
  8
0
 10
0.0000
 20
-0.2500
 30
0.0000
  0
SEQEND
  8
0
  0
ENDBLK
  8
0
  0
BLOCK
  8
0
  2
THERMALV
 70
64
 10
0.0000
 20
0.0000
 30
0.0000
  3
THERMALV
  0
POLYLINE
  8
0
 66
1
 10
0.0000
 20
0.0000
 30
0.0000
 40
0.1000
 41
0.1000
 70
0
  0
VERTEX
  8
0
 10
-0.2379
 20
0.4500
 30
0.0000
  0
VERTEX
  8
0
 10
0.2379
 20
0.4500
 30
0.0000
  0
SEQEND
  8
0
  0
POLYLINE
  8
0
 66
1
 10
0.0000
 20
0.0000
 30
0.0000
 40
0.0500
 41
0.0500
 70
0
  0
VERTEX
  8
0
 10
0.2379
 20
0.4250
 30
0.0000
 42
1.0000
  0
VERTEX
  8
0
 10
0.2379
 20
0.4750
 30
0.0000
  0
SEQEND
  8
0
  0
POLYLINE
  8
0
 66
1
 10
0.0000
 20
0.0000
 30
0.0000
 40
0.0500
 41
0.0500
 70
0
  0
VERTEX
  8
0
 10
-0.2379
 20
0.4750
 30
0.0000
 42
1.0000
  0
VERTEX
  8
0
 10
-0.2379
 20
0.4250
 30
0.0000
  0
SEQEND
  8
0
  0
POLYLINE
  8
0
 66
1
 10
0.0000
 20
0.0000
 30
0.0000
 40
0.1000
 41
0.1000
 70
0
  0
VERTEX
  8
0
 10
0.4500
 20
0.2379
 30
0.0000
  0
VERTEX
  8
0
 10
0.4500
 20
-0.2379
 30
0.0000
  0
SEQEND
  8
0
  0
POLYLINE
  8
0
 66
1
 10
0.0000
 20
0.0000
 30
0.0000
 40
0.0500
 41
0.0500
 70
0
  0
VERTEX
  8
0
 10
0.4250
 20
-0.2379
 30
0.0000
 42
1.0000
  0
VERTEX
  8
0
 10
0.4750
 20
-0.2379
 30
0.0000
  0
SEQEND
  8
0
  0
POLYLINE
  8
0
 66
1
 10
0.0000
 20
0.0000
 30
0.0000
 40
0.0500
 41
0.0500
 70
0
  0
VERTEX
  8
0
 10
0.4750
 20
0.2379
 30
0.0000
 42
1.0000
  0
VERTEX
  8
0
 10
0.4250
 20
0.2379
 30
0.0000
  0
SEQEND
  8
0
  0
POLYLINE
  8
0
 66
1
 10
0.0000
 20
0.0000
 30
0.0000
 40
0.1000
 41
0.1000
 70
0
  0
VERTEX
  8
0
 10
0.2379
 20
-0.4500
 30
0.0000
  0
VERTEX
  8
0
 10
-0.2379
 20
-0.4500
 30
0.0000
  0
SEQEND
  8
0
  0
POLYLINE
  8
0
 66
1
 10
0.0000
 20
0.0000
 30
0.0000
 40
0.0500
 41
0.0500
 70
0
  0
VERTEX
  8
0
 10
-0.2379
 20
-0.4250
 30
0.0000
 42
1.0000
  0
VERTEX
  8
0
 10
-0.2379
 20
-0.4750
 30
0.0000
  0
SEQEND
  8
0
  0
POLYLINE
  8
0
 66
1
 10
0.0000
 20
0.0000
 30
0.0000
 40
0.0500
 41
0.0500
 70
0
  0
VERTEX
  8
0
 10
0.2379
 20
-0.4750
 30
0.0000
 42
1.0000
  0
VERTEX
  8
0
 10
0.2379
 20
-0.4250
 30
0.0000
  0
SEQEND
  8
0
  0
POLYLINE
  8
0
 66
1
 10
0.0000
 20
0.0000
 30
0.0000
 40
0.1000
 41
0.1000
 70
0
  0
VERTEX
  8
0
 10
-0.4500
 20
-0.2379
 30
0.0000
  0
VERTEX
  8
0
 10
-0.4500
 20
0.2379
 30
0.0000
  0
SEQEND
  8
0
  0
POLYLINE
  8
0
 66
1
 10
0.0000
 20
0.0000
 30
0.0000
 40
0.0500
 41
0.0500
 70
0
  0
VERTEX
  8
0
 10
-0.4250
 20
0.2379
 30
0.0000
 42
1.0000
  0
VERTEX
  8
0
 10
-0.4750
 20
0.2379
 30
0.0000
  0
SEQEND
  8
0
  0
POLYLINE
  8
0
 66
1
 10
0.0000
 20
0.0000
 30
0.0000
 40
0.0500
 41
0.0500
 70
0
  0
VERTEX
  8
0
 10
-0.4750
 20
-0.2379
 30
0.0000
 42
1.0000
  0
VERTEX
  8
0
 10
-0.4250
 20
-0.2379
 30
0.0000
  0
SEQEND
  8
0
  0
ENDBLK
  8
0
  0
BLOCK
  8
0
  2
RECT5120000X5120000R100
 70
64
 10
0.0000
 20
0.0000
 30
0.0000
  3
RECT5120000X5120000R100
  0
POLYLINE
  8
0
 66
1
 10
0.0000
 20
0.0000
 30
0.0000
 40
16.0000
 41
16.0000
 70
1
  0
VERTEX
  8
0
 10
8.0000
 20
0.0000
 30
0.0000
  0
VERTEX
  8
0
 10
8.0000
 20
0.0000
 30
0.0000
 42
0.4142
  0
VERTEX
  8
0
 10
0.0000
 20
8.0000
 30
0.0000
  0
VERTEX
  8
0
 10
0.0000
 20
8.0000
 30
0.0000
 42
0.4142
  0
VERTEX
  8
0
 10
-8.0000
 20
0.0000
 30
0.0000
  0
VERTEX
  8
0
 10
-8.0000
 20
0.0000
 30
0.0000
 42
0.4142
  0
VERTEX
  8
0
 10
0.0000
 20
-8.0000
 30
0.0000
  0
VERTEX
  8
0
 10
0.0000
 20
-8.0000
 30
0.0000
 42
0.4142
  0
SEQEND
  8
0
  0
SOLID
  8
0
 10
-0.0254
 20
-0.0254
 30
0.0000
 11
0.0254
 21
-0.0254
 31
0.0000
 12
-0.0254
 22
0.0254
 32
0.0000
 13
0.0254
 23
0.0254
 33
0.0000
  0
ENDBLK
  8
0
  0
BLOCK
  8
0
  2
LONGP100
 70
64
 10
0.0000
 20
0.0000
 30
0.0000
  3
LONGP100
  0
POLYLINE
  8
0
 66
1
 10
0.0000
 20
0.0000
 30
0.0000
 40
1.0000
 41
1.0000
 70
0
  0
VERTEX
  8
0
 10
-0.5000
 20
0.0000
 30
0.0000
  0
VERTEX
  8
0
 10
0.5000
 20
0.0000
 30
0.0000
  0
SEQEND
  8
0
  0
POLYLINE
  8
0
 66
1
 10
0.0000
 20
0.0000
 30
0.0000
 40
0.5000
 41
0.5000
 70
0
  0
VERTEX
  8
0
 10
0.5000
 20
-0.2500
 30
0.0000
 42
1.0000
  0
VERTEX
  8
0
 10
0.5000
 20
0.2500
 30
0.0000
  0
SEQEND
  8
0
  0
POLYLINE
  8
0
 66
1
 10
0.0000
 20
0.0000
 30
0.0000
 40
0.5000
 41
0.5000
 70
0
  0
VERTEX
  8
0
 10
-0.5000
 20
0.2500
 30
0.0000
 42
1.0000
  0
VERTEX
  8
0
 10
-0.5000
 20
-0.2500
 30
0.0000
  0
SEQEND
  8
0
  0
ENDBLK
  8
0
  0
ENDSEC
  0
SECTION
  2
ENTITIES
  0
POLYLINE
  8
20
 66
1
 10
0.0000
 20
0.0000
 30
0.0000
 40
0.4064
 41
0.4064
 70
0
  0
VERTEX
  8
20
 10
297.0000
 20
0.0000
 30
0.0000
  0
VERTEX
  8
20
 10
297.0000
 20
200.0000
 30
0.0000
  0
SEQEND
  8
0
  0
POLYLINE
  8
20
 66
1
 10
0.0000
 20
0.0000
 30
0.0000
 40
0.2032
 41
0.2032
 70
0
  0
VERTEX
  8
20
 10
297.1016
 20
200.0000
 30
0.0000
 42
1.0000
  0
VERTEX
  8
20
 10
296.8984
 20
200.0000
 30
0.0000
  0
SEQEND
  8
0
  0
POLYLINE
  8
20
 66
1
 10
0.0000
 20
0.0000
 30
0.0000
 40
0.2032
 41
0.2032
 70
0
  0
VERTEX
  8
20
 10
296.8984
 20
0.0000
 30
0.0000
 42
1.0000
  0
VERTEX
  8
20
 10
297.1016
 20
0.0000
 30
0.0000
  0
SEQEND
  8
0
  0
POLYLINE
  8
20
 66
1
 10
0.0000
 20
0.0000
 30
0.0000
 40
0.4064
 41
0.4064
 70
0
  0
VERTEX
  8
20
 10
297.0000
 20
200.0000
 30
0.0000
  0
VERTEX
  8
20
 10
43.0000
 20
200.0000
 30
0.0000
  0
SEQEND
  8
0
  0
POLYLINE
  8
20
 66
1
 10
0.0000
 20
0.0000
 30
0.0000
 40
0.2032
 41
0.2032
 70
0
  0
VERTEX
  8
20
 10
43.0000
 20
200.1016
 30
0.0000
 42
1.0000
  0
VERTEX
  8
20
 10
43.0000
 20
199.8984
 30
0.0000
  0
SEQEND
  8
0
  0
POLYLINE
  8
20
 66
1
 10
0.0000
 20
0.0000
 30
0.0000
 40
0.2032
 41
0.2032
 70
0
  0
VERTEX
  8
20
 10
297.0000
 20
199.8984
 30
0.0000
 42
1.0000
  0
VERTEX
  8
20
 10
297.0000
 20
200.1016
 30
0.0000
  0
SEQEND
  8
0
  0
POLYLINE
  8
20
 66
1
 10
0.0000
 20
0.0000
 30
0.0000
 40
0.4064
 41
0.4064
 70
0
  0
VERTEX
  8
20
 10
0.0000
 20
172.0000
 30
0.0000
  0
VERTEX
  8
20
 10
0.0000
 20
0.0000
 30
0.0000
  0
SEQEND
  8
0
  0
POLYLINE
  8
20
 66
1
 10
0.0000
 20
0.0000
 30
0.0000
 40
0.2032
 41
0.2032
 70
0
  0
VERTEX
  8
20
 10
-0.1016
 20
0.0000
 30
0.0000
 42
1.0000
  0
VERTEX
  8
20
 10
0.1016
 20
0.0000
 30
0.0000
  0
SEQEND
  8
0
  0
POLYLINE
  8
20
 66
1
 10
0.0000
 20
0.0000
 30
0.0000
 40
0.2032
 41
0.2032
 70
0
  0
VERTEX
  8
20
 10
0.1016
 20
172.0000
 30
0.0000
 42
1.0000
  0
VERTEX
  8
20
 10
-0.1016
 20
172.0000
 30
0.0000
  0
SEQEND
  8
0
  0
POLYLINE
  8
20
 66
1
 10
0.0000
 20
0.0000
 30
0.0000
 40
0.4064
 41
0.4064
 70
0
  0
VERTEX
  8
20
 10
0.0000
 20
0.0000
 30
0.0000
  0
VERTEX
  8
20
 10
297.0000
 20
0.0000
 30
0.0000
  0
SEQEND
  8
0
  0
POLYLINE
  8
20
 66
1
 10
0.0000
 20
0.0000
 30
0.0000
 40
0.2032
 41
0.2032
 70
0
  0
VERTEX
  8
20
 10
297.0000
 20
-0.1016
 30
0.0000
 42
1.0000
  0
VERTEX
  8
20
 10
297.0000
 20
0.1016
 30
0.0000
  0
SEQEND
  8
0
  0
POLYLINE
  8
20
 66
1
 10
0.0000
 20
0.0000
 30
0.0000
 40
0.2032
 41
0.2032
 70
0
  0
VERTEX
  8
20
 10
0.0000
 20
0.1016
 30
0.0000
 42
1.0000
  0
VERTEX
  8
20
 10
0.0000
 20
-0.1016
 30
0.0000
  0
SEQEND
  8
0
  0
POLYLINE
  8
20
 66
1
 10
0.0000
 20
0.0000
 30
0.0000
 40
0.4064
 41
0.4064
 70
0
  0
VERTEX
  8
20
 10
43.0000
 20
172.0000
 30
0.0000
  0
VERTEX
  8
20
 10
0.0000
 20
172.0000
 30
0.0000
  0
SEQEND
  8
0
  0
POLYLINE
  8
20
 66
1
 10
0.0000
 20
0.0000
 30
0.0000
 40
0.2032
 41
0.2032
 70
0
  0
VERTEX
  8
20
 10
0.0000
 20
172.1016
 30
0.0000
 42
1.0000
  0
VERTEX
  8
20
 10
0.0000
 20
171.8984
 30
0.0000
  0
SEQEND
  8
0
  0
POLYLINE
  8
20
 66
1
 10
0.0000
 20
0.0000
 30
0.0000
 40
0.2032
 41
0.2032
 70
0
  0
VERTEX
  8
20
 10
43.0000
 20
171.8984
 30
0.0000
 42
1.0000
  0
VERTEX
  8
20
 10
43.0000
 20
172.1016
 30
0.0000
  0
SEQEND
  8
0
  0
POLYLINE
  8
20
 66
1
 10
0.0000
 20
0.0000
 30
0.0000
 40
0.4064
 41
0.4064
 70
0
  0
VERTEX
  8
20
 10
43.0000
 20
172.0000
 30
0.0000
  0
VERTEX
  8
20
 10
43.0000
 20
200.0000
 30
0.0000
  0
SEQEND
  8
0
  0
POLYLINE
  8
20
 66
1
 10
0.0000
 20
0.0000
 30
0.0000
 40
0.2032
 41
0.2032
 70
0
  0
VERTEX
  8
20
 10
43.1016
 20
200.0000
 30
0.0000
 42
1.0000
  0
VERTEX
  8
20
 10
42.8984
 20
200.0000
 30
0.0000
  0
SEQEND
  8
0
  0
POLYLINE
  8
20
 66
1
 10
0.0000
 20
0.0000
 30
0.0000
 40
0.2032
 41
0.2032
 70
0
  0
VERTEX
  8
20
 10
42.8984
 20
172.0000
 30
0.0000
 42
1.0000
  0
VERTEX
  8
20
 10
43.1016
 20
172.0000
 30
0.0000
  0
SEQEND
  8
0
  0
CIRCLE
  8
20
 10
293.0000
 20
196.0000
 30
0.0000
 40
1.5000
  0
CIRCLE
  8
20
 10
293.0000
 20
4.0000
 30
0.0000
 40
1.5000
  0
CIRCLE
  8
20
 10
3.0000
 20
4.0000
 30
0.0000
 40
1.5000
  0
CIRCLE
  8
20
 10
3.0000
 20
169.0000
 30
0.0000
 40
1.5000
  0
CIRCLE
  8
20
 10
47.0000
 20
196.0000
 30
0.0000
 40
1.5000
  0
CIRCLE
  8
20
 10
293.0000
 20
95.0000
 30
0.0000
 40
1.5000
  0
CIRCLE
  8
20
 10
3.0000
 20
95.0000
 30
0.0000
 40
1.5000
  0
CIRCLE
  8
20
 10
148.5000
 20
4.0000
 30
0.0000
 40
1.5000
  0
CIRCLE
  8
20
 10
148.5000
 20
196.0000
 30
0.0000
 40
1.5000
  0
CIRCLE
  8
20
 10
148.5000
 20
95.0000
 30
0.0000
 40
1.5000
  0
INSERT
  8
1
  2
PIE
 10
278.0000
 20
75.5000
 30
0.0000
 41
32.0000
 42
32.0000
 43
1.0000
 50
0.0000
  0
INSERT
  8
1
  2
PIE
 10
278.0000
 20
180.5000
 30
0.0000
 41
32.0000
 42
32.0000
 43
1.0000
 50
0.0000
  0
INSERT
  8
1
  2
PIE
 10
178.5000
 20
75.5000
 30
0.0000
 41
32.0000
 42
32.0000
 43
1.0000
 50
0.0000
  0
INSERT
  8
1
  2
PIE
 10
178.5000
 20
180.5000
 30
0.0000
 41
32.0000
 42
32.0000
 43
1.0000
 50
0.0000
  0
INSERT
  8
1
  2
PIE
 10
79.5000
 20
75.5000
 30
0.0000
 41
32.0000
 42
32.0000
 43
1.0000
 50
0.0000
  0
INSERT
  8
1
  2
PIE
 10
79.5000
 20
180.5000
 30
0.0000
 41
32.0000
 42
32.0000
 43
1.0000
 50
0.0000
  0
INSERT
  8
17
  2
LONGP100
 10
6.6500
 20
167.0000
 30
0.0000
 41
1.6160
 42
1.6160
 43
1.0000
 50
90.0000
  0
INSERT
  8
17
  2
LONGP100
 10
6.6500
 20
167.0000
 30
0.0000
 41
1.6160
 42
1.6160
 43
1.0000
 50
90.0000
  0
INSERT
  8
17
  2
LONGP100
 10
9.1900
 20
167.0000
 30
0.0000
 41
1.6160
 42
1.6160
 43
1.0000
 50
90.0000
  0
INSERT
  8
17
  2
LONGP100
 10
9.1900
 20
167.0000
 30
0.0000
 41
1.6160
 42
1.6160
 43
1.0000
 50
90.0000
  0
INSERT
  8
17
  2
LONGP100
 10
11.7300
 20
167.0000
 30
0.0000
 41
1.6160
 42
1.6160
 43
1.0000
 50
90.0000
  0
INSERT
  8
17
  2
LONGP100
 10
11.7300
 20
167.0000
 30
0.0000
 41
1.6160
 42
1.6160
 43
1.0000
 50
90.0000
  0
INSERT
  8
17
  2
LONGP100
 10
14.2700
 20
167.0000
 30
0.0000
 41
1.6160
 42
1.6160
 43
1.0000
 50
90.0000
  0
INSERT
  8
17
  2
LONGP100
 10
14.2700
 20
167.0000
 30
0.0000
 41
1.6160
 42
1.6160
 43
1.0000
 50
90.0000
  0
INSERT
  8
17
  2
LONGP100
 10
16.8100
 20
167.0000
 30
0.0000
 41
1.6160
 42
1.6160
 43
1.0000
 50
90.0000
  0
INSERT
  8
17
  2
LONGP100
 10
16.8100
 20
167.0000
 30
0.0000
 41
1.6160
 42
1.6160
 43
1.0000
 50
90.0000
  0
INSERT
  8
17
  2
LONGP100
 10
19.3500
 20
167.0000
 30
0.0000
 41
1.6160
 42
1.6160
 43
1.0000
 50
90.0000
  0
INSERT
  8
17
  2
LONGP100
 10
19.3500
 20
167.0000
 30
0.0000
 41
1.6160
 42
1.6160
 43
1.0000
 50
90.0000
  0
POLYLINE
  8
1
 66
1
 10
0.0000
 20
0.0000
 30
0.0000
 40
0.4064
 41
0.4064
 70
0
  0
VERTEX
  8
1
 10
278.0000
 20
75.5000
 30
0.0000
  0
VERTEX
  8
1
 10
278.0000
 20
107.0000
 30
0.0000
  0
SEQEND
  8
0
  0
POLYLINE
  8
1
 66
1
 10
0.0000
 20
0.0000
 30
0.0000
 40
0.2032
 41
0.2032
 70
0
  0
VERTEX
  8
1
 10
278.1016
 20
107.0000
 30
0.0000
 42
1.0000
  0
VERTEX
  8
1
 10
277.8984
 20
107.0000
 30
0.0000
  0
SEQEND
  8
0
  0
POLYLINE
  8
1
 66
1
 10
0.0000
 20
0.0000
 30
0.0000
 40
0.2032
 41
0.2032
 70
0
  0
VERTEX
  8
1
 10
277.8984
 20
75.5000
 30
0.0000
 42
1.0000
  0
VERTEX
  8
1
 10
278.1016
 20
75.5000
 30
0.0000
  0
SEQEND
  8
0
  0
POLYLINE
  8
1
 66
1
 10
0.0000
 20
0.0000
 30
0.0000
 40
0.4064
 41
0.4064
 70
0
  0
VERTEX
  8
1
 10
278.0000
 20
107.0000
 30
0.0000
  0
VERTEX
  8
1
 10
245.1000
 20
139.9000
 30
0.0000
  0
SEQEND
  8
0
  0
POLYLINE
  8
1
 66
1
 10
0.0000
 20
0.0000
 30
0.0000
 40
0.2032
 41
0.2032
 70
0
  0
VERTEX
  8
1
 10
245.1718
 20
139.9718
 30
0.0000
 42
1.0000
  0
VERTEX
  8
1
 10
245.0282
 20
139.8282
 30
0.0000
  0
SEQEND
  8
0
  0
POLYLINE
  8
1
 66
1
 10
0.0000
 20
0.0000
 30
0.0000
 40
0.2032
 41
0.2032
 70
0
  0
VERTEX
  8
1
 10
277.9282
 20
106.9282
 30
0.0000
 42
1.0000
  0
VERTEX
  8
1
 10
278.0718
 20
107.0718
 30
0.0000
  0
SEQEND
  8
0
  0
POLYLINE
  8
1
 66
1
 10
0.0000
 20
0.0000
 30
0.0000
 40
0.4064
 41
0.4064
 70
0
  0
VERTEX
  8
1
 10
245.1000
 20
139.9000
 30
0.0000
  0
VERTEX
  8
1
 10
26.9000
 20
139.9000
 30
0.0000
  0
SEQEND
  8
0
  0
POLYLINE
  8
1
 66
1
 10
0.0000
 20
0.0000
 30
0.0000
 40
0.2032
 41
0.2032
 70
0
  0
VERTEX
  8
1
 10
26.9000
 20
140.0016
 30
0.0000
 42
1.0000
  0
VERTEX
  8
1
 10
26.9000
 20
139.7984
 30
0.0000
  0
SEQEND
  8
0
  0
POLYLINE
  8
1
 66
1
 10
0.0000
 20
0.0000
 30
0.0000
 40
0.2032
 41
0.2032
 70
0
  0
VERTEX
  8
1
 10
245.1000
 20
139.7984
 30
0.0000
 42
1.0000
  0
VERTEX
  8
1
 10
245.1000
 20
140.0016
 30
0.0000
  0
SEQEND
  8
0
  0
POLYLINE
  8
1
 66
1
 10
0.0000
 20
0.0000
 30
0.0000
 40
0.4064
 41
0.4064
 70
0
  0
VERTEX
  8
1
 10
26.9000
 20
139.9000
 30
0.0000
  0
VERTEX
  8
1
 10
11.7200
 20
155.0800
 30
0.0000
  0
SEQEND
  8
0
  0
POLYLINE
  8
1
 66
1
 10
0.0000
 20
0.0000
 30
0.0000
 40
0.2032
 41
0.2032
 70
0
  0
VERTEX
  8
1
 10
11.7918
 20
155.1518
 30
0.0000
 42
1.0000
  0
VERTEX
  8
1
 10
11.6482
 20
155.0082
 30
0.0000
  0
SEQEND
  8
0
  0
POLYLINE
  8
1
 66
1
 10
0.0000
 20
0.0000
 30
0.0000
 40
0.2032
 41
0.2032
 70
0
  0
VERTEX
  8
1
 10
26.8282
 20
139.8282
 30
0.0000
 42
1.0000
  0
VERTEX
  8
1
 10
26.9718
 20
139.9718
 30
0.0000
  0
SEQEND
  8
0
  0
POLYLINE
  8
1
 66
1
 10
0.0000
 20
0.0000
 30
0.0000
 40
0.4064
 41
0.4064
 70
0
  0
VERTEX
  8
1
 10
11.7200
 20
155.0800
 30
0.0000
  0
VERTEX
  8
1
 10
11.7200
 20
167.0400
 30
0.0000
  0
SEQEND
  8
0
  0
POLYLINE
  8
1
 66
1
 10
0.0000
 20
0.0000
 30
0.0000
 40
0.2032
 41
0.2032
 70
0
  0
VERTEX
  8
1
 10
11.8216
 20
167.0400
 30
0.0000
 42
1.0000
  0
VERTEX
  8
1
 10
11.6184
 20
167.0400
 30
0.0000
  0
SEQEND
  8
0
  0
POLYLINE
  8
1
 66
1
 10
0.0000
 20
0.0000
 30
0.0000
 40
0.2032
 41
0.2032
 70
0
  0
VERTEX
  8
1
 10
11.6184
 20
155.0800
 30
0.0000
 42
1.0000
  0
VERTEX
  8
1
 10
11.8216
 20
155.0800
 30
0.0000
  0
SEQEND
  8
0
  0
POLYLINE
  8
1
 66
1
 10
0.0000
 20
0.0000
 30
0.0000
 40
0.4064
 41
0.4064
 70
0
  0
VERTEX
  8
1
 10
178.3000
 20
75.6000
 30
0.0000
  0
VERTEX
  8
1
 10
178.3000
 20
109.5000
 30
0.0000
  0
SEQEND
  8
0
  0
POLYLINE
  8
1
 66
1
 10
0.0000
 20
0.0000
 30
0.0000
 40
0.2032
 41
0.2032
 70
0
  0
VERTEX
  8
1
 10
178.4016
 20
109.5000
 30
0.0000
 42
1.0000
  0
VERTEX
  8
1
 10
178.1984
 20
109.5000
 30
0.0000
  0
SEQEND
  8
0
  0
POLYLINE
  8
1
 66
1
 10
0.0000
 20
0.0000
 30
0.0000
 40
0.2032
 41
0.2032
 70
0
  0
VERTEX
  8
1
 10
178.1984
 20
75.6000
 30
0.0000
 42
1.0000
  0
VERTEX
  8
1
 10
178.4016
 20
75.6000
 30
0.0000
  0
SEQEND
  8
0
  0
POLYLINE
  8
1
 66
1
 10
0.0000
 20
0.0000
 30
0.0000
 40
0.4064
 41
0.4064
 70
0
  0
VERTEX
  8
1
 10
178.3000
 20
109.5000
 30
0.0000
  0
VERTEX
  8
1
 10
168.3000
 20
119.5000
 30
0.0000
  0
SEQEND
  8
0
  0
POLYLINE
  8
1
 66
1
 10
0.0000
 20
0.0000
 30
0.0000
 40
0.2032
 41
0.2032
 70
0
  0
VERTEX
  8
1
 10
168.3718
 20
119.5718
 30
0.0000
 42
1.0000
  0
VERTEX
  8
1
 10
168.2282
 20
119.4282
 30
0.0000
  0
SEQEND
  8
0
  0
POLYLINE
  8
1
 66
1
 10
0.0000
 20
0.0000
 30
0.0000
 40
0.2032
 41
0.2032
 70
0
  0
VERTEX
  8
1
 10
178.2282
 20
109.4282
 30
0.0000
 42
1.0000
  0
VERTEX
  8
1
 10
178.3718
 20
109.5718
 30
0.0000
  0
SEQEND
  8
0
  0
POLYLINE
  8
1
 66
1
 10
0.0000
 20
0.0000
 30
0.0000
 40
0.4064
 41
0.4064
 70
0
  0
VERTEX
  8
1
 10
168.3000
 20
119.5000
 30
0.0000
  0
VERTEX
  8
1
 10
35.1000
 20
119.5000
 30
0.0000
  0
SEQEND
  8
0
  0
POLYLINE
  8
1
 66
1
 10
0.0000
 20
0.0000
 30
0.0000
 40
0.2032
 41
0.2032
 70
0
  0
VERTEX
  8
1
 10
35.1000
 20
119.6016
 30
0.0000
 42
1.0000
  0
VERTEX
  8
1
 10
35.1000
 20
119.3984
 30
0.0000
  0
SEQEND
  8
0
  0
POLYLINE
  8
1
 66
1
 10
0.0000
 20
0.0000
 30
0.0000
 40
0.2032
 41
0.2032
 70
0
  0
VERTEX
  8
1
 10
168.3000
 20
119.3984
 30
0.0000
 42
1.0000
  0
VERTEX
  8
1
 10
168.3000
 20
119.6016
 30
0.0000
  0
SEQEND
  8
0
  0
POLYLINE
  8
1
 66
1
 10
0.0000
 20
0.0000
 30
0.0000
 40
0.4064
 41
0.4064
 70
0
  0
VERTEX
  8
1
 10
35.1000
 20
119.5000
 30
0.0000
  0
VERTEX
  8
1
 10
33.7000
 20
120.9000
 30
0.0000
  0
SEQEND
  8
0
  0
POLYLINE
  8
1
 66
1
 10
0.0000
 20
0.0000
 30
0.0000
 40
0.2032
 41
0.2032
 70
0
  0
VERTEX
  8
1
 10
33.7718
 20
120.9718
 30
0.0000
 42
1.0000
  0
VERTEX
  8
1
 10
33.6282
 20
120.8282
 30
0.0000
  0
SEQEND
  8
0
  0
POLYLINE
  8
1
 66
1
 10
0.0000
 20
0.0000
 30
0.0000
 40
0.2032
 41
0.2032
 70
0
  0
VERTEX
  8
1
 10
35.0282
 20
119.4282
 30
0.0000
 42
1.0000
  0
VERTEX
  8
1
 10
35.1718
 20
119.5718
 30
0.0000
  0
SEQEND
  8
0
  0
POLYLINE
  8
1
 66
1
 10
0.0000
 20
0.0000
 30
0.0000
 40
0.4064
 41
0.4064
 70
0
  0
VERTEX
  8
1
 10
33.7000
 20
120.9000
 30
0.0000
  0
VERTEX
  8
1
 10
33.7000
 20
122.8000
 30
0.0000
  0
SEQEND
  8
0
  0
POLYLINE
  8
1
 66
1
 10
0.0000
 20
0.0000
 30
0.0000
 40
0.2032
 41
0.2032
 70
0
  0
VERTEX
  8
1
 10
33.8016
 20
122.8000
 30
0.0000
 42
1.0000
  0
VERTEX
  8
1
 10
33.5984
 20
122.8000
 30
0.0000
  0
SEQEND
  8
0
  0
POLYLINE
  8
1
 66
1
 10
0.0000
 20
0.0000
 30
0.0000
 40
0.2032
 41
0.2032
 70
0
  0
VERTEX
  8
1
 10
33.5984
 20
120.9000
 30
0.0000
 42
1.0000
  0
VERTEX
  8
1
 10
33.8016
 20
120.9000
 30
0.0000
  0
SEQEND
  8
0
  0
POLYLINE
  8
1
 66
1
 10
0.0000
 20
0.0000
 30
0.0000
 40
0.4064
 41
0.4064
 70
0
  0
VERTEX
  8
1
 10
33.7000
 20
122.8000
 30
0.0000
  0
VERTEX
  8
1
 10
35.0000
 20
124.1000
 30
0.0000
  0
SEQEND
  8
0
  0
POLYLINE
  8
1
 66
1
 10
0.0000
 20
0.0000
 30
0.0000
 40
0.2032
 41
0.2032
 70
0
  0
VERTEX
  8
1
 10
35.0718
 20
124.0282
 30
0.0000
 42
1.0000
  0
VERTEX
  8
1
 10
34.9282
 20
124.1718
 30
0.0000
  0
SEQEND
  8
0
  0
POLYLINE
  8
1
 66
1
 10
0.0000
 20
0.0000
 30
0.0000
 40
0.2032
 41
0.2032
 70
0
  0
VERTEX
  8
1
 10
33.6282
 20
122.8718
 30
0.0000
 42
1.0000
  0
VERTEX
  8
1
 10
33.7718
 20
122.7282
 30
0.0000
  0
SEQEND
  8
0
  0
POLYLINE
  8
1
 66
1
 10
0.0000
 20
0.0000
 30
0.0000
 40
0.4064
 41
0.4064
 70
0
  0
VERTEX
  8
1
 10
35.0000
 20
124.1000
 30
0.0000
  0
VERTEX
  8
1
 10
74.8000
 20
124.1000
 30
0.0000
  0
SEQEND
  8
0
  0
POLYLINE
  8
1
 66
1
 10
0.0000
 20
0.0000
 30
0.0000
 40
0.2032
 41
0.2032
 70
0
  0
VERTEX
  8
1
 10
74.8000
 20
123.9984
 30
0.0000
 42
1.0000
  0
VERTEX
  8
1
 10
74.8000
 20
124.2016
 30
0.0000
  0
SEQEND
  8
0
  0
POLYLINE
  8
1
 66
1
 10
0.0000
 20
0.0000
 30
0.0000
 40
0.2032
 41
0.2032
 70
0
  0
VERTEX
  8
1
 10
35.0000
 20
124.2016
 30
0.0000
 42
1.0000
  0
VERTEX
  8
1
 10
35.0000
 20
123.9984
 30
0.0000
  0
SEQEND
  8
0
  0
POLYLINE
  8
1
 66
1
 10
0.0000
 20
0.0000
 30
0.0000
 40
0.4064
 41
0.4064
 70
0
  0
VERTEX
  8
1
 10
74.8000
 20
124.1000
 30
0.0000
  0
VERTEX
  8
1
 10
76.1000
 20
125.4000
 30
0.0000
  0
SEQEND
  8
0
  0
POLYLINE
  8
1
 66
1
 10
0.0000
 20
0.0000
 30
0.0000
 40
0.2032
 41
0.2032
 70
0
  0
VERTEX
  8
1
 10
76.1718
 20
125.3282
 30
0.0000
 42
1.0000
  0
VERTEX
  8
1
 10
76.0282
 20
125.4718
 30
0.0000
  0
SEQEND
  8
0
  0
POLYLINE
  8
1
 66
1
 10
0.0000
 20
0.0000
 30
0.0000
 40
0.2032
 41
0.2032
 70
0
  0
VERTEX
  8
1
 10
74.7282
 20
124.1718
 30
0.0000
 42
1.0000
  0
VERTEX
  8
1
 10
74.8718
 20
124.0282
 30
0.0000
  0
SEQEND
  8
0
  0
POLYLINE
  8
1
 66
1
 10
0.0000
 20
0.0000
 30
0.0000
 40
0.4064
 41
0.4064
 70
0
  0
VERTEX
  8
1
 10
76.1000
 20
125.4000
 30
0.0000
  0
VERTEX
  8
1
 10
76.1000
 20
126.5000
 30
0.0000
  0
SEQEND
  8
0
  0
POLYLINE
  8
1
 66
1
 10
0.0000
 20
0.0000
 30
0.0000
 40
0.2032
 41
0.2032
 70
0
  0
VERTEX
  8
1
 10
76.2016
 20
126.5000
 30
0.0000
 42
1.0000
  0
VERTEX
  8
1
 10
75.9984
 20
126.5000
 30
0.0000
  0
SEQEND
  8
0
  0
POLYLINE
  8
1
 66
1
 10
0.0000
 20
0.0000
 30
0.0000
 40
0.2032
 41
0.2032
 70
0
  0
VERTEX
  8
1
 10
75.9984
 20
125.4000
 30
0.0000
 42
1.0000
  0
VERTEX
  8
1
 10
76.2016
 20
125.4000
 30
0.0000
  0
SEQEND
  8
0
  0
POLYLINE
  8
1
 66
1
 10
0.0000
 20
0.0000
 30
0.0000
 40
0.4064
 41
0.4064
 70
0
  0
VERTEX
  8
1
 10
9.2000
 20
140.1000
 30
0.0000
  0
VERTEX
  8
1
 10
9.2000
 20
167.0000
 30
0.0000
  0
SEQEND
  8
0
  0
POLYLINE
  8
1
 66
1
 10
0.0000
 20
0.0000
 30
0.0000
 40
0.2032
 41
0.2032
 70
0
  0
VERTEX
  8
1
 10
9.3016
 20
167.0000
 30
0.0000
 42
1.0000
  0
VERTEX
  8
1
 10
9.0984
 20
167.0000
 30
0.0000
  0
SEQEND
  8
0
  0
POLYLINE
  8
1
 66
1
 10
0.0000
 20
0.0000
 30
0.0000
 40
0.2032
 41
0.2032
 70
0
  0
VERTEX
  8
1
 10
9.0984
 20
140.1000
 30
0.0000
 42
1.0000
  0
VERTEX
  8
1
 10
9.3016
 20
140.1000
 30
0.0000
  0
SEQEND
  8
0
  0
POLYLINE
  8
1
 66
1
 10
0.0000
 20
0.0000
 30
0.0000
 40
0.4064
 41
0.4064
 70
0
  0
VERTEX
  8
1
 10
21.8000
 20
127.5000
 30
0.0000
  0
VERTEX
  8
1
 10
9.2000
 20
140.1000
 30
0.0000
  0
SEQEND
  8
0
  0
POLYLINE
  8
1
 66
1
 10
0.0000
 20
0.0000
 30
0.0000
 40
0.2032
 41
0.2032
 70
0
  0
VERTEX
  8
1
 10
9.2718
 20
140.1718
 30
0.0000
 42
1.0000
  0
VERTEX
  8
1
 10
9.1282
 20
140.0282
 30
0.0000
  0
SEQEND
  8
0
  0
POLYLINE
  8
1
 66
1
 10
0.0000
 20
0.0000
 30
0.0000
 40
0.2032
 41
0.2032
 70
0
  0
VERTEX
  8
1
 10
21.7282
 20
127.4282
 30
0.0000
 42
1.0000
  0
VERTEX
  8
1
 10
21.8718
 20
127.5718
 30
0.0000
  0
SEQEND
  8
0
  0
POLYLINE
  8
1
 66
1
 10
0.0000
 20
0.0000
 30
0.0000
 40
0.4064
 41
0.4064
 70
0
  0
VERTEX
  8
1
 10
75.1000
 20
127.5000
 30
0.0000
  0
VERTEX
  8
1
 10
21.8000
 20
127.5000
 30
0.0000
  0
SEQEND
  8
0
  0
POLYLINE
  8
1
 66
1
 10
0.0000
 20
0.0000
 30
0.0000
 40
0.2032
 41
0.2032
 70
0
  0
VERTEX
  8
1
 10
21.8000
 20
127.6016
 30
0.0000
 42
1.0000
  0
VERTEX
  8
1
 10
21.8000
 20
127.3984
 30
0.0000
  0
SEQEND
  8
0
  0
POLYLINE
  8
1
 66
1
 10
0.0000
 20
0.0000
 30
0.0000
 40
0.2032
 41
0.2032
 70
0
  0
VERTEX
  8
1
 10
75.1000
 20
127.3984
 30
0.0000
 42
1.0000
  0
VERTEX
  8
1
 10
75.1000
 20
127.6016
 30
0.0000
  0
SEQEND
  8
0
  0
POLYLINE
  8
1
 66
1
 10
0.0000
 20
0.0000
 30
0.0000
 40
0.4064
 41
0.4064
 70
0
  0
VERTEX
  8
1
 10
76.1000
 20
126.5000
 30
0.0000
  0
VERTEX
  8
1
 10
75.1000
 20
127.5000
 30
0.0000
  0
SEQEND
  8
0
  0
POLYLINE
  8
1
 66
1
 10
0.0000
 20
0.0000
 30
0.0000
 40
0.2032
 41
0.2032
 70
0
  0
VERTEX
  8
1
 10
75.1718
 20
127.5718
 30
0.0000
 42
1.0000
  0
VERTEX
  8
1
 10
75.0282
 20
127.4282
 30
0.0000
  0
SEQEND
  8
0
  0
POLYLINE
  8
1
 66
1
 10
0.0000
 20
0.0000
 30
0.0000
 40
0.2032
 41
0.2032
 70
0
  0
VERTEX
  8
1
 10
76.0282
 20
126.4282
 30
0.0000
 42
1.0000
  0
VERTEX
  8
1
 10
76.1718
 20
126.5718
 30
0.0000
  0
SEQEND
  8
0
  0
POLYLINE
  8
1
 66
1
 10
0.0000
 20
0.0000
 30
0.0000
 40
0.4064
 41
0.4064
 70
0
  0
VERTEX
  8
1
 10
79.4000
 20
75.6000
 30
0.0000
  0
VERTEX
  8
1
 10
79.4000
 20
95.5000
 30
0.0000
  0
SEQEND
  8
0
  0
POLYLINE
  8
1
 66
1
 10
0.0000
 20
0.0000
 30
0.0000
 40
0.2032
 41
0.2032
 70
0
  0
VERTEX
  8
1
 10
79.5016
 20
95.5000
 30
0.0000
 42
1.0000
  0
VERTEX
  8
1
 10
79.2984
 20
95.5000
 30
0.0000
  0
SEQEND
  8
0
  0
POLYLINE
  8
1
 66
1
 10
0.0000
 20
0.0000
 30
0.0000
 40
0.2032
 41
0.2032
 70
0
  0
VERTEX
  8
1
 10
79.2984
 20
75.6000
 30
0.0000
 42
1.0000
  0
VERTEX
  8
1
 10
79.5016
 20
75.6000
 30
0.0000
  0
SEQEND
  8
0
  0
POLYLINE
  8
1
 66
1
 10
0.0000
 20
0.0000
 30
0.0000
 40
0.4064
 41
0.4064
 70
0
  0
VERTEX
  8
1
 10
79.4000
 20
95.5000
 30
0.0000
  0
VERTEX
  8
1
 10
75.0000
 20
99.9000
 30
0.0000
  0
SEQEND
  8
0
  0
POLYLINE
  8
1
 66
1
 10
0.0000
 20
0.0000
 30
0.0000
 40
0.2032
 41
0.2032
 70
0
  0
VERTEX
  8
1
 10
75.0718
 20
99.9718
 30
0.0000
 42
1.0000
  0
VERTEX
  8
1
 10
74.9282
 20
99.8282
 30
0.0000
  0
SEQEND
  8
0
  0
POLYLINE
  8
1
 66
1
 10
0.0000
 20
0.0000
 30
0.0000
 40
0.2032
 41
0.2032
 70
0
  0
VERTEX
  8
1
 10
79.3282
 20
95.4282
 30
0.0000
 42
1.0000
  0
VERTEX
  8
1
 10
79.4718
 20
95.5718
 30
0.0000
  0
SEQEND
  8
0
  0
POLYLINE
  8
1
 66
1
 10
0.0000
 20
0.0000
 30
0.0000
 40
0.4064
 41
0.4064
 70
0
  0
VERTEX
  8
1
 10
75.0000
 20
99.9000
 30
0.0000
  0
VERTEX
  8
1
 10
16.1000
 20
99.9000
 30
0.0000
  0
SEQEND
  8
0
  0
POLYLINE
  8
1
 66
1
 10
0.0000
 20
0.0000
 30
0.0000
 40
0.2032
 41
0.2032
 70
0
  0
VERTEX
  8
1
 10
16.1000
 20
100.0016
 30
0.0000
 42
1.0000
  0
VERTEX
  8
1
 10
16.1000
 20
99.7984
 30
0.0000
  0
SEQEND
  8
0
  0
POLYLINE
  8
1
 66
1
 10
0.0000
 20
0.0000
 30
0.0000
 40
0.2032
 41
0.2032
 70
0
  0
VERTEX
  8
1
 10
75.0000
 20
99.7984
 30
0.0000
 42
1.0000
  0
VERTEX
  8
1
 10
75.0000
 20
100.0016
 30
0.0000
  0
SEQEND
  8
0
  0
POLYLINE
  8
1
 66
1
 10
0.0000
 20
0.0000
 30
0.0000
 40
0.4064
 41
0.4064
 70
0
  0
VERTEX
  8
1
 10
16.1000
 20
99.9000
 30
0.0000
  0
VERTEX
  8
1
 10
13.7000
 20
102.3000
 30
0.0000
  0
SEQEND
  8
0
  0
POLYLINE
  8
1
 66
1
 10
0.0000
 20
0.0000
 30
0.0000
 40
0.2032
 41
0.2032
 70
0
  0
VERTEX
  8
1
 10
13.7718
 20
102.3718
 30
0.0000
 42
1.0000
  0
VERTEX
  8
1
 10
13.6282
 20
102.2282
 30
0.0000
  0
SEQEND
  8
0
  0
POLYLINE
  8
1
 66
1
 10
0.0000
 20
0.0000
 30
0.0000
 40
0.2032
 41
0.2032
 70
0
  0
VERTEX
  8
1
 10
16.0282
 20
99.8282
 30
0.0000
 42
1.0000
  0
VERTEX
  8
1
 10
16.1718
 20
99.9718
 30
0.0000
  0
SEQEND
  8
0
  0
POLYLINE
  8
1
 66
1
 10
0.0000
 20
0.0000
 30
0.0000
 40
0.4064
 41
0.4064
 70
0
  0
VERTEX
  8
1
 10
13.7000
 20
102.3000
 30
0.0000
  0
VERTEX
  8
1
 10
13.7000
 20
105.0000
 30
0.0000
  0
SEQEND
  8
0
  0
POLYLINE
  8
1
 66
1
 10
0.0000
 20
0.0000
 30
0.0000
 40
0.2032
 41
0.2032
 70
0
  0
VERTEX
  8
1
 10
13.8016
 20
105.0000
 30
0.0000
 42
1.0000
  0
VERTEX
  8
1
 10
13.5984
 20
105.0000
 30
0.0000
  0
SEQEND
  8
0
  0
POLYLINE
  8
1
 66
1
 10
0.0000
 20
0.0000
 30
0.0000
 40
0.2032
 41
0.2032
 70
0
  0
VERTEX
  8
1
 10
13.5984
 20
102.3000
 30
0.0000
 42
1.0000
  0
VERTEX
  8
1
 10
13.8016
 20
102.3000
 30
0.0000
  0
SEQEND
  8
0
  0
POLYLINE
  8
1
 66
1
 10
0.0000
 20
0.0000
 30
0.0000
 40
0.4064
 41
0.4064
 70
0
  0
VERTEX
  8
1
 10
13.7000
 20
105.0000
 30
0.0000
  0
VERTEX
  8
1
 10
15.0000
 20
106.3000
 30
0.0000
  0
SEQEND
  8
0
  0
POLYLINE
  8
1
 66
1
 10
0.0000
 20
0.0000
 30
0.0000
 40
0.2032
 41
0.2032
 70
0
  0
VERTEX
  8
1
 10
15.0718
 20
106.2282
 30
0.0000
 42
1.0000
  0
VERTEX
  8
1
 10
14.9282
 20
106.3718
 30
0.0000
  0
SEQEND
  8
0
  0
POLYLINE
  8
1
 66
1
 10
0.0000
 20
0.0000
 30
0.0000
 40
0.2032
 41
0.2032
 70
0
  0
VERTEX
  8
1
 10
13.6282
 20
105.0718
 30
0.0000
 42
1.0000
  0
VERTEX
  8
1
 10
13.7718
 20
104.9282
 30
0.0000
  0
SEQEND
  8
0
  0
POLYLINE
  8
1
 66
1
 10
0.0000
 20
0.0000
 30
0.0000
 40
0.4064
 41
0.4064
 70
0
  0
VERTEX
  8
1
 10
15.0000
 20
106.3000
 30
0.0000
  0
VERTEX
  8
1
 10
74.3000
 20
106.3000
 30
0.0000
  0
SEQEND
  8
0
  0
POLYLINE
  8
1
 66
1
 10
0.0000
 20
0.0000
 30
0.0000
 40
0.2032
 41
0.2032
 70
0
  0
VERTEX
  8
1
 10
74.3000
 20
106.1984
 30
0.0000
 42
1.0000
  0
VERTEX
  8
1
 10
74.3000
 20
106.4016
 30
0.0000
  0
SEQEND
  8
0
  0
POLYLINE
  8
1
 66
1
 10
0.0000
 20
0.0000
 30
0.0000
 40
0.2032
 41
0.2032
 70
0
  0
VERTEX
  8
1
 10
15.0000
 20
106.4016
 30
0.0000
 42
1.0000
  0
VERTEX
  8
1
 10
15.0000
 20
106.1984
 30
0.0000
  0
SEQEND
  8
0
  0
POLYLINE
  8
1
 66
1
 10
0.0000
 20
0.0000
 30
0.0000
 40
0.4064
 41
0.4064
 70
0
  0
VERTEX
  8
1
 10
74.3000
 20
106.3000
 30
0.0000
  0
VERTEX
  8
1
 10
76.2000
 20
108.2000
 30
0.0000
  0
SEQEND
  8
0
  0
POLYLINE
  8
1
 66
1
 10
0.0000
 20
0.0000
 30
0.0000
 40
0.2032
 41
0.2032
 70
0
  0
VERTEX
  8
1
 10
76.2718
 20
108.1282
 30
0.0000
 42
1.0000
  0
VERTEX
  8
1
 10
76.1282
 20
108.2718
 30
0.0000
  0
SEQEND
  8
0
  0
POLYLINE
  8
1
 66
1
 10
0.0000
 20
0.0000
 30
0.0000
 40
0.2032
 41
0.2032
 70
0
  0
VERTEX
  8
1
 10
74.2282
 20
106.3718
 30
0.0000
 42
1.0000
  0
VERTEX
  8
1
 10
74.3718
 20
106.2282
 30
0.0000
  0
SEQEND
  8
0
  0
POLYLINE
  8
1
 66
1
 10
0.0000
 20
0.0000
 30
0.0000
 40
0.4064
 41
0.4064
 70
0
  0
VERTEX
  8
1
 10
76.2000
 20
108.2000
 30
0.0000
  0
VERTEX
  8
1
 10
76.2000
 20
110.8000
 30
0.0000
  0
SEQEND
  8
0
  0
POLYLINE
  8
1
 66
1
 10
0.0000
 20
0.0000
 30
0.0000
 40
0.2032
 41
0.2032
 70
0
  0
VERTEX
  8
1
 10
76.3016
 20
110.8000
 30
0.0000
 42
1.0000
  0
VERTEX
  8
1
 10
76.0984
 20
110.8000
 30
0.0000
  0
SEQEND
  8
0
  0
POLYLINE
  8
1
 66
1
 10
0.0000
 20
0.0000
 30
0.0000
 40
0.2032
 41
0.2032
 70
0
  0
VERTEX
  8
1
 10
76.0984
 20
108.2000
 30
0.0000
 42
1.0000
  0
VERTEX
  8
1
 10
76.3016
 20
108.2000
 30
0.0000
  0
SEQEND
  8
0
  0
POLYLINE
  8
1
 66
1
 10
0.0000
 20
0.0000
 30
0.0000
 40
0.4064
 41
0.4064
 70
0
  0
VERTEX
  8
1
 10
76.2000
 20
110.8000
 30
0.0000
  0
VERTEX
  8
1
 10
75.7000
 20
111.3000
 30
0.0000
  0
SEQEND
  8
0
  0
POLYLINE
  8
1
 66
1
 10
0.0000
 20
0.0000
 30
0.0000
 40
0.2032
 41
0.2032
 70
0
  0
VERTEX
  8
1
 10
75.7718
 20
111.3718
 30
0.0000
 42
1.0000
  0
VERTEX
  8
1
 10
75.6282
 20
111.2282
 30
0.0000
  0
SEQEND
  8
0
  0
POLYLINE
  8
1
 66
1
 10
0.0000
 20
0.0000
 30
0.0000
 40
0.2032
 41
0.2032
 70
0
  0
VERTEX
  8
1
 10
76.1282
 20
110.7282
 30
0.0000
 42
1.0000
  0
VERTEX
  8
1
 10
76.2718
 20
110.8718
 30
0.0000
  0
SEQEND
  8
0
  0
POLYLINE
  8
1
 66
1
 10
0.0000
 20
0.0000
 30
0.0000
 40
0.4064
 41
0.4064
 70
0
  0
VERTEX
  8
1
 10
75.7000
 20
111.3000
 30
0.0000
  0
VERTEX
  8
1
 10
15.0000
 20
111.3000
 30
0.0000
  0
SEQEND
  8
0
  0
POLYLINE
  8
1
 66
1
 10
0.0000
 20
0.0000
 30
0.0000
 40
0.2032
 41
0.2032
 70
0
  0
VERTEX
  8
1
 10
15.0000
 20
111.4016
 30
0.0000
 42
1.0000
  0
VERTEX
  8
1
 10
15.0000
 20
111.1984
 30
0.0000
  0
SEQEND
  8
0
  0
POLYLINE
  8
1
 66
1
 10
0.0000
 20
0.0000
 30
0.0000
 40
0.2032
 41
0.2032
 70
0
  0
VERTEX
  8
1
 10
75.7000
 20
111.1984
 30
0.0000
 42
1.0000
  0
VERTEX
  8
1
 10
75.7000
 20
111.4016
 30
0.0000
  0
SEQEND
  8
0
  0
POLYLINE
  8
1
 66
1
 10
0.0000
 20
0.0000
 30
0.0000
 40
0.4064
 41
0.4064
 70
0
  0
VERTEX
  8
1
 10
15.0000
 20
111.3000
 30
0.0000
  0
VERTEX
  8
1
 10
13.5000
 20
112.8000
 30
0.0000
  0
SEQEND
  8
0
  0
POLYLINE
  8
1
 66
1
 10
0.0000
 20
0.0000
 30
0.0000
 40
0.2032
 41
0.2032
 70
0
  0
VERTEX
  8
1
 10
13.5718
 20
112.8718
 30
0.0000
 42
1.0000
  0
VERTEX
  8
1
 10
13.4282
 20
112.7282
 30
0.0000
  0
SEQEND
  8
0
  0
POLYLINE
  8
1
 66
1
 10
0.0000
 20
0.0000
 30
0.0000
 40
0.2032
 41
0.2032
 70
0
  0
VERTEX
  8
1
 10
14.9282
 20
111.2282
 30
0.0000
 42
1.0000
  0
VERTEX
  8
1
 10
15.0718
 20
111.3718
 30
0.0000
  0
SEQEND
  8
0
  0
POLYLINE
  8
1
 66
1
 10
0.0000
 20
0.0000
 30
0.0000
 40
0.4064
 41
0.4064
 70
0
  0
VERTEX
  8
1
 10
13.5000
 20
112.8000
 30
0.0000
  0
VERTEX
  8
1
 10
13.5000
 20
114.8000
 30
0.0000
  0
SEQEND
  8
0
  0
POLYLINE
  8
1
 66
1
 10
0.0000
 20
0.0000
 30
0.0000
 40
0.2032
 41
0.2032
 70
0
  0
VERTEX
  8
1
 10
13.6016
 20
114.8000
 30
0.0000
 42
1.0000
  0
VERTEX
  8
1
 10
13.3984
 20
114.8000
 30
0.0000
  0
SEQEND
  8
0
  0
POLYLINE
  8
1
 66
1
 10
0.0000
 20
0.0000
 30
0.0000
 40
0.2032
 41
0.2032
 70
0
  0
VERTEX
  8
1
 10
13.3984
 20
112.8000
 30
0.0000
 42
1.0000
  0
VERTEX
  8
1
 10
13.6016
 20
112.8000
 30
0.0000
  0
SEQEND
  8
0
  0
POLYLINE
  8
1
 66
1
 10
0.0000
 20
0.0000
 30
0.0000
 40
0.4064
 41
0.4064
 70
0
  0
VERTEX
  8
1
 10
13.5000
 20
114.8000
 30
0.0000
  0
VERTEX
  8
1
 10
14.4000
 20
115.7000
 30
0.0000
  0
SEQEND
  8
0
  0
POLYLINE
  8
1
 66
1
 10
0.0000
 20
0.0000
 30
0.0000
 40
0.2032
 41
0.2032
 70
0
  0
VERTEX
  8
1
 10
14.4718
 20
115.6282
 30
0.0000
 42
1.0000
  0
VERTEX
  8
1
 10
14.3282
 20
115.7718
 30
0.0000
  0
SEQEND
  8
0
  0
POLYLINE
  8
1
 66
1
 10
0.0000
 20
0.0000
 30
0.0000
 40
0.2032
 41
0.2032
 70
0
  0
VERTEX
  8
1
 10
13.4282
 20
114.8718
 30
0.0000
 42
1.0000
  0
VERTEX
  8
1
 10
13.5718
 20
114.7282
 30
0.0000
  0
SEQEND
  8
0
  0
POLYLINE
  8
1
 66
1
 10
0.0000
 20
0.0000
 30
0.0000
 40
0.4064
 41
0.4064
 70
0
  0
VERTEX
  8
1
 10
14.4000
 20
115.7000
 30
0.0000
  0
VERTEX
  8
1
 10
22.6000
 20
115.7000
 30
0.0000
  0
SEQEND
  8
0
  0
POLYLINE
  8
1
 66
1
 10
0.0000
 20
0.0000
 30
0.0000
 40
0.2032
 41
0.2032
 70
0
  0
VERTEX
  8
1
 10
22.6000
 20
115.5984
 30
0.0000
 42
1.0000
  0
VERTEX
  8
1
 10
22.6000
 20
115.8016
 30
0.0000
  0
SEQEND
  8
0
  0
POLYLINE
  8
1
 66
1
 10
0.0000
 20
0.0000
 30
0.0000
 40
0.2032
 41
0.2032
 70
0
  0
VERTEX
  8
1
 10
14.4000
 20
115.8016
 30
0.0000
 42
1.0000
  0
VERTEX
  8
1
 10
14.4000
 20
115.5984
 30
0.0000
  0
SEQEND
  8
0
  0
POLYLINE
  8
1
 66
1
 10
0.0000
 20
0.0000
 30
0.0000
 40
0.4064
 41
0.4064
 70
0
  0
VERTEX
  8
1
 10
22.6000
 20
115.7000
 30
0.0000
  0
VERTEX
  8
1
 10
24.0000
 20
117.1000
 30
0.0000
  0
SEQEND
  8
0
  0
POLYLINE
  8
1
 66
1
 10
0.0000
 20
0.0000
 30
0.0000
 40
0.2032
 41
0.2032
 70
0
  0
VERTEX
  8
1
 10
24.0718
 20
117.0282
 30
0.0000
 42
1.0000
  0
VERTEX
  8
1
 10
23.9282
 20
117.1718
 30
0.0000
  0
SEQEND
  8
0
  0
POLYLINE
  8
1
 66
1
 10
0.0000
 20
0.0000
 30
0.0000
 40
0.2032
 41
0.2032
 70
0
  0
VERTEX
  8
1
 10
22.5282
 20
115.7718
 30
0.0000
 42
1.0000
  0
VERTEX
  8
1
 10
22.6718
 20
115.6282
 30
0.0000
  0
SEQEND
  8
0
  0
POLYLINE
  8
1
 66
1
 10
0.0000
 20
0.0000
 30
0.0000
 40
0.4064
 41
0.4064
 70
0
  0
VERTEX
  8
1
 10
24.0000
 20
117.1000
 30
0.0000
  0
VERTEX
  8
1
 10
24.0000
 20
118.2000
 30
0.0000
  0
SEQEND
  8
0
  0
POLYLINE
  8
1
 66
1
 10
0.0000
 20
0.0000
 30
0.0000
 40
0.2032
 41
0.2032
 70
0
  0
VERTEX
  8
1
 10
24.1016
 20
118.2000
 30
0.0000
 42
1.0000
  0
VERTEX
  8
1
 10
23.8984
 20
118.2000
 30
0.0000
  0
SEQEND
  8
0
  0
POLYLINE
  8
1
 66
1
 10
0.0000
 20
0.0000
 30
0.0000
 40
0.2032
 41
0.2032
 70
0
  0
VERTEX
  8
1
 10
23.8984
 20
117.1000
 30
0.0000
 42
1.0000
  0
VERTEX
  8
1
 10
24.1016
 20
117.1000
 30
0.0000
  0
SEQEND
  8
0
  0
POLYLINE
  8
1
 66
1
 10
0.0000
 20
0.0000
 30
0.0000
 40
0.4064
 41
0.4064
 70
0
  0
VERTEX
  8
1
 10
24.0000
 20
118.2000
 30
0.0000
  0
VERTEX
  8
1
 10
22.7000
 20
119.5000
 30
0.0000
  0
SEQEND
  8
0
  0
POLYLINE
  8
1
 66
1
 10
0.0000
 20
0.0000
 30
0.0000
 40
0.2032
 41
0.2032
 70
0
  0
VERTEX
  8
1
 10
22.7718
 20
119.5718
 30
0.0000
 42
1.0000
  0
VERTEX
  8
1
 10
22.6282
 20
119.4282
 30
0.0000
  0
SEQEND
  8
0
  0
POLYLINE
  8
1
 66
1
 10
0.0000
 20
0.0000
 30
0.0000
 40
0.2032
 41
0.2032
 70
0
  0
VERTEX
  8
1
 10
23.9282
 20
118.1282
 30
0.0000
 42
1.0000
  0
VERTEX
  8
1
 10
24.0718
 20
118.2718
 30
0.0000
  0
SEQEND
  8
0
  0
POLYLINE
  8
1
 66
1
 10
0.0000
 20
0.0000
 30
0.0000
 40
0.4064
 41
0.4064
 70
0
  0
VERTEX
  8
1
 10
22.7000
 20
119.5000
 30
0.0000
  0
VERTEX
  8
1
 10
14.3000
 20
119.5000
 30
0.0000
  0
SEQEND
  8
0
  0
POLYLINE
  8
1
 66
1
 10
0.0000
 20
0.0000
 30
0.0000
 40
0.2032
 41
0.2032
 70
0
  0
VERTEX
  8
1
 10
14.3000
 20
119.6016
 30
0.0000
 42
1.0000
  0
VERTEX
  8
1
 10
14.3000
 20
119.3984
 30
0.0000
  0
SEQEND
  8
0
  0
POLYLINE
  8
1
 66
1
 10
0.0000
 20
0.0000
 30
0.0000
 40
0.2032
 41
0.2032
 70
0
  0
VERTEX
  8
1
 10
22.7000
 20
119.3984
 30
0.0000
 42
1.0000
  0
VERTEX
  8
1
 10
22.7000
 20
119.6016
 30
0.0000
  0
SEQEND
  8
0
  0
POLYLINE
  8
1
 66
1
 10
0.0000
 20
0.0000
 30
0.0000
 40
0.4064
 41
0.4064
 70
0
  0
VERTEX
  8
1
 10
14.3000
 20
119.5000
 30
0.0000
  0
VERTEX
  8
1
 10
12.9000
 20
120.9000
 30
0.0000
  0
SEQEND
  8
0
  0
POLYLINE
  8
1
 66
1
 10
0.0000
 20
0.0000
 30
0.0000
 40
0.2032
 41
0.2032
 70
0
  0
VERTEX
  8
1
 10
12.9718
 20
120.9718
 30
0.0000
 42
1.0000
  0
VERTEX
  8
1
 10
12.8282
 20
120.8282
 30
0.0000
  0
SEQEND
  8
0
  0
POLYLINE
  8
1
 66
1
 10
0.0000
 20
0.0000
 30
0.0000
 40
0.2032
 41
0.2032
 70
0
  0
VERTEX
  8
1
 10
14.2282
 20
119.4282
 30
0.0000
 42
1.0000
  0
VERTEX
  8
1
 10
14.3718
 20
119.5718
 30
0.0000
  0
SEQEND
  8
0
  0
POLYLINE
  8
1
 66
1
 10
0.0000
 20
0.0000
 30
0.0000
 40
0.4064
 41
0.4064
 70
0
  0
VERTEX
  8
1
 10
12.9000
 20
120.9000
 30
0.0000
  0
VERTEX
  8
1
 10
12.9000
 20
121.9000
 30
0.0000
  0
SEQEND
  8
0
  0
POLYLINE
  8
1
 66
1
 10
0.0000
 20
0.0000
 30
0.0000
 40
0.2032
 41
0.2032
 70
0
  0
VERTEX
  8
1
 10
13.0016
 20
121.9000
 30
0.0000
 42
1.0000
  0
VERTEX
  8
1
 10
12.7984
 20
121.9000
 30
0.0000
  0
SEQEND
  8
0
  0
POLYLINE
  8
1
 66
1
 10
0.0000
 20
0.0000
 30
0.0000
 40
0.2032
 41
0.2032
 70
0
  0
VERTEX
  8
1
 10
12.7984
 20
120.9000
 30
0.0000
 42
1.0000
  0
VERTEX
  8
1
 10
13.0016
 20
120.9000
 30
0.0000
  0
SEQEND
  8
0
  0
POLYLINE
  8
1
 66
1
 10
0.0000
 20
0.0000
 30
0.0000
 40
0.4064
 41
0.4064
 70
0
  0
VERTEX
  8
1
 10
12.9000
 20
121.9000
 30
0.0000
  0
VERTEX
  8
1
 10
13.6000
 20
122.6000
 30
0.0000
  0
SEQEND
  8
0
  0
POLYLINE
  8
1
 66
1
 10
0.0000
 20
0.0000
 30
0.0000
 40
0.2032
 41
0.2032
 70
0
  0
VERTEX
  8
1
 10
13.6718
 20
122.5282
 30
0.0000
 42
1.0000
  0
VERTEX
  8
1
 10
13.5282
 20
122.6718
 30
0.0000
  0
SEQEND
  8
0
  0
POLYLINE
  8
1
 66
1
 10
0.0000
 20
0.0000
 30
0.0000
 40
0.2032
 41
0.2032
 70
0
  0
VERTEX
  8
1
 10
12.8282
 20
121.9718
 30
0.0000
 42
1.0000
  0
VERTEX
  8
1
 10
12.9718
 20
121.8282
 30
0.0000
  0
SEQEND
  8
0
  0
POLYLINE
  8
1
 66
1
 10
0.0000
 20
0.0000
 30
0.0000
 40
0.4064
 41
0.4064
 70
0
  0
VERTEX
  8
1
 10
13.6000
 20
122.6000
 30
0.0000
  0
VERTEX
  8
1
 10
18.4000
 20
122.6000
 30
0.0000
  0
SEQEND
  8
0
  0
POLYLINE
  8
1
 66
1
 10
0.0000
 20
0.0000
 30
0.0000
 40
0.2032
 41
0.2032
 70
0
  0
VERTEX
  8
1
 10
18.4000
 20
122.4984
 30
0.0000
 42
1.0000
  0
VERTEX
  8
1
 10
18.4000
 20
122.7016
 30
0.0000
  0
SEQEND
  8
0
  0
POLYLINE
  8
1
 66
1
 10
0.0000
 20
0.0000
 30
0.0000
 40
0.2032
 41
0.2032
 70
0
  0
VERTEX
  8
1
 10
13.6000
 20
122.7016
 30
0.0000
 42
1.0000
  0
VERTEX
  8
1
 10
13.6000
 20
122.4984
 30
0.0000
  0
SEQEND
  8
0
  0
POLYLINE
  8
1
 66
1
 10
0.0000
 20
0.0000
 30
0.0000
 40
0.4064
 41
0.4064
 70
0
  0
VERTEX
  8
1
 10
18.4000
 20
122.6000
 30
0.0000
  0
VERTEX
  8
1
 10
19.5000
 20
123.7000
 30
0.0000
  0
SEQEND
  8
0
  0
POLYLINE
  8
1
 66
1
 10
0.0000
 20
0.0000
 30
0.0000
 40
0.2032
 41
0.2032
 70
0
  0
VERTEX
  8
1
 10
19.5718
 20
123.6282
 30
0.0000
 42
1.0000
  0
VERTEX
  8
1
 10
19.4282
 20
123.7718
 30
0.0000
  0
SEQEND
  8
0
  0
POLYLINE
  8
1
 66
1
 10
0.0000
 20
0.0000
 30
0.0000
 40
0.2032
 41
0.2032
 70
0
  0
VERTEX
  8
1
 10
18.3282
 20
122.6718
 30
0.0000
 42
1.0000
  0
VERTEX
  8
1
 10
18.4718
 20
122.5282
 30
0.0000
  0
SEQEND
  8
0
  0
POLYLINE
  8
1
 66
1
 10
0.0000
 20
0.0000
 30
0.0000
 40
0.4064
 41
0.4064
 70
0
  0
VERTEX
  8
1
 10
19.5000
 20
123.7000
 30
0.0000
  0
VERTEX
  8
1
 10
19.5000
 20
124.8000
 30
0.0000
  0
SEQEND
  8
0
  0
POLYLINE
  8
1
 66
1
 10
0.0000
 20
0.0000
 30
0.0000
 40
0.2032
 41
0.2032
 70
0
  0
VERTEX
  8
1
 10
19.6016
 20
124.8000
 30
0.0000
 42
1.0000
  0
VERTEX
  8
1
 10
19.3984
 20
124.8000
 30
0.0000
  0
SEQEND
  8
0
  0
POLYLINE
  8
1
 66
1
 10
0.0000
 20
0.0000
 30
0.0000
 40
0.2032
 41
0.2032
 70
0
  0
VERTEX
  8
1
 10
19.3984
 20
123.7000
 30
0.0000
 42
1.0000
  0
VERTEX
  8
1
 10
19.6016
 20
123.7000
 30
0.0000
  0
SEQEND
  8
0
  0
POLYLINE
  8
1
 66
1
 10
0.0000
 20
0.0000
 30
0.0000
 40
0.4064
 41
0.4064
 70
0
  0
VERTEX
  8
1
 10
19.5000
 20
124.8000
 30
0.0000
  0
VERTEX
  8
1
 10
18.5000
 20
125.8000
 30
0.0000
  0
SEQEND
  8
0
  0
POLYLINE
  8
1
 66
1
 10
0.0000
 20
0.0000
 30
0.0000
 40
0.2032
 41
0.2032
 70
0
  0
VERTEX
  8
1
 10
18.5718
 20
125.8718
 30
0.0000
 42
1.0000
  0
VERTEX
  8
1
 10
18.4282
 20
125.7282
 30
0.0000
  0
SEQEND
  8
0
  0
POLYLINE
  8
1
 66
1
 10
0.0000
 20
0.0000
 30
0.0000
 40
0.2032
 41
0.2032
 70
0
  0
VERTEX
  8
1
 10
19.4282
 20
124.7282
 30
0.0000
 42
1.0000
  0
VERTEX
  8
1
 10
19.5718
 20
124.8718
 30
0.0000
  0
SEQEND
  8
0
  0
POLYLINE
  8
1
 66
1
 10
0.0000
 20
0.0000
 30
0.0000
 40
0.4064
 41
0.4064
 70
0
  0
VERTEX
  8
1
 10
18.5000
 20
125.8000
 30
0.0000
  0
VERTEX
  8
1
 10
6.4000
 20
125.8000
 30
0.0000
  0
SEQEND
  8
0
  0
POLYLINE
  8
1
 66
1
 10
0.0000
 20
0.0000
 30
0.0000
 40
0.2032
 41
0.2032
 70
0
  0
VERTEX
  8
1
 10
6.4000
 20
125.9016
 30
0.0000
 42
1.0000
  0
VERTEX
  8
1
 10
6.4000
 20
125.6984
 30
0.0000
  0
SEQEND
  8
0
  0
POLYLINE
  8
1
 66
1
 10
0.0000
 20
0.0000
 30
0.0000
 40
0.2032
 41
0.2032
 70
0
  0
VERTEX
  8
1
 10
18.5000
 20
125.6984
 30
0.0000
 42
1.0000
  0
VERTEX
  8
1
 10
18.5000
 20
125.9016
 30
0.0000
  0
SEQEND
  8
0
  0
POLYLINE
  8
1
 66
1
 10
0.0000
 20
0.0000
 30
0.0000
 40
0.4064
 41
0.4064
 70
0
  0
VERTEX
  8
1
 10
6.4000
 20
125.8000
 30
0.0000
  0
VERTEX
  8
1
 10
5.3000
 20
126.9000
 30
0.0000
  0
SEQEND
  8
0
  0
POLYLINE
  8
1
 66
1
 10
0.0000
 20
0.0000
 30
0.0000
 40
0.2032
 41
0.2032
 70
0
  0
VERTEX
  8
1
 10
5.3718
 20
126.9718
 30
0.0000
 42
1.0000
  0
VERTEX
  8
1
 10
5.2282
 20
126.8282
 30
0.0000
  0
SEQEND
  8
0
  0
POLYLINE
  8
1
 66
1
 10
0.0000
 20
0.0000
 30
0.0000
 40
0.2032
 41
0.2032
 70
0
  0
VERTEX
  8
1
 10
6.3282
 20
125.7282
 30
0.0000
 42
1.0000
  0
VERTEX
  8
1
 10
6.4718
 20
125.8718
 30
0.0000
  0
SEQEND
  8
0
  0
POLYLINE
  8
1
 66
1
 10
0.0000
 20
0.0000
 30
0.0000
 40
0.4064
 41
0.4064
 70
0
  0
VERTEX
  8
1
 10
5.3000
 20
126.9000
 30
0.0000
  0
VERTEX
  8
1
 10
5.3000
 20
128.4000
 30
0.0000
  0
SEQEND
  8
0
  0
POLYLINE
  8
1
 66
1
 10
0.0000
 20
0.0000
 30
0.0000
 40
0.2032
 41
0.2032
 70
0
  0
VERTEX
  8
1
 10
5.4016
 20
128.4000
 30
0.0000
 42
1.0000
  0
VERTEX
  8
1
 10
5.1984
 20
128.4000
 30
0.0000
  0
SEQEND
  8
0
  0
POLYLINE
  8
1
 66
1
 10
0.0000
 20
0.0000
 30
0.0000
 40
0.2032
 41
0.2032
 70
0
  0
VERTEX
  8
1
 10
5.1984
 20
126.9000
 30
0.0000
 42
1.0000
  0
VERTEX
  8
1
 10
5.4016
 20
126.9000
 30
0.0000
  0
SEQEND
  8
0
  0
POLYLINE
  8
1
 66
1
 10
0.0000
 20
0.0000
 30
0.0000
 40
0.4064
 41
0.4064
 70
0
  0
VERTEX
  8
1
 10
5.3000
 20
128.4000
 30
0.0000
  0
VERTEX
  8
1
 10
6.4000
 20
129.5000
 30
0.0000
  0
SEQEND
  8
0
  0
POLYLINE
  8
1
 66
1
 10
0.0000
 20
0.0000
 30
0.0000
 40
0.2032
 41
0.2032
 70
0
  0
VERTEX
  8
1
 10
6.4718
 20
129.4282
 30
0.0000
 42
1.0000
  0
VERTEX
  8
1
 10
6.3282
 20
129.5718
 30
0.0000
  0
SEQEND
  8
0
  0
POLYLINE
  8
1
 66
1
 10
0.0000
 20
0.0000
 30
0.0000
 40
0.2032
 41
0.2032
 70
0
  0
VERTEX
  8
1
 10
5.2282
 20
128.4718
 30
0.0000
 42
1.0000
  0
VERTEX
  8
1
 10
5.3718
 20
128.3282
 30
0.0000
  0
SEQEND
  8
0
  0
POLYLINE
  8
1
 66
1
 10
0.0000
 20
0.0000
 30
0.0000
 40
0.4064
 41
0.4064
 70
0
  0
VERTEX
  8
1
 10
6.4000
 20
129.5000
 30
0.0000
  0
VERTEX
  8
1
 10
15.5000
 20
129.5000
 30
0.0000
  0
SEQEND
  8
0
  0
POLYLINE
  8
1
 66
1
 10
0.0000
 20
0.0000
 30
0.0000
 40
0.2032
 41
0.2032
 70
0
  0
VERTEX
  8
1
 10
15.5000
 20
129.3984
 30
0.0000
 42
1.0000
  0
VERTEX
  8
1
 10
15.5000
 20
129.6016
 30
0.0000
  0
SEQEND
  8
0
  0
POLYLINE
  8
1
 66
1
 10
0.0000
 20
0.0000
 30
0.0000
 40
0.2032
 41
0.2032
 70
0
  0
VERTEX
  8
1
 10
6.4000
 20
129.6016
 30
0.0000
 42
1.0000
  0
VERTEX
  8
1
 10
6.4000
 20
129.3984
 30
0.0000
  0
SEQEND
  8
0
  0
POLYLINE
  8
1
 66
1
 10
0.0000
 20
0.0000
 30
0.0000
 40
0.4064
 41
0.4064
 70
0
  0
VERTEX
  8
1
 10
15.5000
 20
129.5000
 30
0.0000
  0
VERTEX
  8
1
 10
16.5000
 20
130.5000
 30
0.0000
  0
SEQEND
  8
0
  0
POLYLINE
  8
1
 66
1
 10
0.0000
 20
0.0000
 30
0.0000
 40
0.2032
 41
0.2032
 70
0
  0
VERTEX
  8
1
 10
16.5718
 20
130.4282
 30
0.0000
 42
1.0000
  0
VERTEX
  8
1
 10
16.4282
 20
130.5718
 30
0.0000
  0
SEQEND
  8
0
  0
POLYLINE
  8
1
 66
1
 10
0.0000
 20
0.0000
 30
0.0000
 40
0.2032
 41
0.2032
 70
0
  0
VERTEX
  8
1
 10
15.4282
 20
129.5718
 30
0.0000
 42
1.0000
  0
VERTEX
  8
1
 10
15.5718
 20
129.4282
 30
0.0000
  0
SEQEND
  8
0
  0
POLYLINE
  8
1
 66
1
 10
0.0000
 20
0.0000
 30
0.0000
 40
0.4064
 41
0.4064
 70
0
  0
VERTEX
  8
1
 10
16.5000
 20
130.5000
 30
0.0000
  0
VERTEX
  8
1
 10
16.5000
 20
131.0000
 30
0.0000
  0
SEQEND
  8
0
  0
POLYLINE
  8
1
 66
1
 10
0.0000
 20
0.0000
 30
0.0000
 40
0.2032
 41
0.2032
 70
0
  0
VERTEX
  8
1
 10
16.6016
 20
131.0000
 30
0.0000
 42
1.0000
  0
VERTEX
  8
1
 10
16.3984
 20
131.0000
 30
0.0000
  0
SEQEND
  8
0
  0
POLYLINE
  8
1
 66
1
 10
0.0000
 20
0.0000
 30
0.0000
 40
0.2032
 41
0.2032
 70
0
  0
VERTEX
  8
1
 10
16.3984
 20
130.5000
 30
0.0000
 42
1.0000
  0
VERTEX
  8
1
 10
16.6016
 20
130.5000
 30
0.0000
  0
SEQEND
  8
0
  0
POLYLINE
  8
1
 66
1
 10
0.0000
 20
0.0000
 30
0.0000
 40
0.4064
 41
0.4064
 70
0
  0
VERTEX
  8
1
 10
16.5000
 20
131.0000
 30
0.0000
  0
VERTEX
  8
1
 10
13.9000
 20
133.6000
 30
0.0000
  0
SEQEND
  8
0
  0
POLYLINE
  8
1
 66
1
 10
0.0000
 20
0.0000
 30
0.0000
 40
0.2032
 41
0.2032
 70
0
  0
VERTEX
  8
1
 10
13.9718
 20
133.6718
 30
0.0000
 42
1.0000
  0
VERTEX
  8
1
 10
13.8282
 20
133.5282
 30
0.0000
  0
SEQEND
  8
0
  0
POLYLINE
  8
1
 66
1
 10
0.0000
 20
0.0000
 30
0.0000
 40
0.2032
 41
0.2032
 70
0
  0
VERTEX
  8
1
 10
16.4282
 20
130.9282
 30
0.0000
 42
1.0000
  0
VERTEX
  8
1
 10
16.5718
 20
131.0718
 30
0.0000
  0
SEQEND
  8
0
  0
POLYLINE
  8
1
 66
1
 10
0.0000
 20
0.0000
 30
0.0000
 40
0.4064
 41
0.4064
 70
0
  0
VERTEX
  8
1
 10
13.9000
 20
133.6000
 30
0.0000
  0
VERTEX
  8
1
 10
8.3000
 20
133.6000
 30
0.0000
  0
SEQEND
  8
0
  0
POLYLINE
  8
1
 66
1
 10
0.0000
 20
0.0000
 30
0.0000
 40
0.2032
 41
0.2032
 70
0
  0
VERTEX
  8
1
 10
8.3000
 20
133.7016
 30
0.0000
 42
1.0000
  0
VERTEX
  8
1
 10
8.3000
 20
133.4984
 30
0.0000
  0
SEQEND
  8
0
  0
POLYLINE
  8
1
 66
1
 10
0.0000
 20
0.0000
 30
0.0000
 40
0.2032
 41
0.2032
 70
0
  0
VERTEX
  8
1
 10
13.9000
 20
133.4984
 30
0.0000
 42
1.0000
  0
VERTEX
  8
1
 10
13.9000
 20
133.7016
 30
0.0000
  0
SEQEND
  8
0
  0
POLYLINE
  8
1
 66
1
 10
0.0000
 20
0.0000
 30
0.0000
 40
0.4064
 41
0.4064
 70
0
  0
VERTEX
  8
1
 10
6.6700
 20
135.2300
 30
0.0000
  0
VERTEX
  8
1
 10
6.6700
 20
167.0100
 30
0.0000
  0
SEQEND
  8
0
  0
POLYLINE
  8
1
 66
1
 10
0.0000
 20
0.0000
 30
0.0000
 40
0.2032
 41
0.2032
 70
0
  0
VERTEX
  8
1
 10
6.7716
 20
167.0100
 30
0.0000
 42
1.0000
  0
VERTEX
  8
1
 10
6.5684
 20
167.0100
 30
0.0000
  0
SEQEND
  8
0
  0
POLYLINE
  8
1
 66
1
 10
0.0000
 20
0.0000
 30
0.0000
 40
0.2032
 41
0.2032
 70
0
  0
VERTEX
  8
1
 10
6.5684
 20
135.2300
 30
0.0000
 42
1.0000
  0
VERTEX
  8
1
 10
6.7716
 20
135.2300
 30
0.0000
  0
SEQEND
  8
0
  0
POLYLINE
  8
1
 66
1
 10
0.0000
 20
0.0000
 30
0.0000
 40
0.4064
 41
0.4064
 70
0
  0
VERTEX
  8
1
 10
8.3000
 20
133.6000
 30
0.0000
  0
VERTEX
  8
1
 10
6.6700
 20
135.2300
 30
0.0000
  0
SEQEND
  8
0
  0
POLYLINE
  8
1
 66
1
 10
0.0000
 20
0.0000
 30
0.0000
 40
0.2032
 41
0.2032
 70
0
  0
VERTEX
  8
1
 10
6.7418
 20
135.3018
 30
0.0000
 42
1.0000
  0
VERTEX
  8
1
 10
6.5982
 20
135.1582
 30
0.0000
  0
SEQEND
  8
0
  0
POLYLINE
  8
1
 66
1
 10
0.0000
 20
0.0000
 30
0.0000
 40
0.2032
 41
0.2032
 70
0
  0
VERTEX
  8
1
 10
8.2282
 20
133.5282
 30
0.0000
 42
1.0000
  0
VERTEX
  8
1
 10
8.3718
 20
133.6718
 30
0.0000
  0
SEQEND
  8
0
  0
POLYLINE
  8
1
 66
1
 10
0.0000
 20
0.0000
 30
0.0000
 40
0.4064
 41
0.4064
 70
0
  0
VERTEX
  8
1
 10
178.4000
 20
180.5000
 30
0.0000
  0
VERTEX
  8
1
 10
178.4000
 20
155.0000
 30
0.0000
  0
SEQEND
  8
0
  0
POLYLINE
  8
1
 66
1
 10
0.0000
 20
0.0000
 30
0.0000
 40
0.2032
 41
0.2032
 70
0
  0
VERTEX
  8
1
 10
178.2984
 20
155.0000
 30
0.0000
 42
1.0000
  0
VERTEX
  8
1
 10
178.5016
 20
155.0000
 30
0.0000
  0
SEQEND
  8
0
  0
POLYLINE
  8
1
 66
1
 10
0.0000
 20
0.0000
 30
0.0000
 40
0.2032
 41
0.2032
 70
0
  0
VERTEX
  8
1
 10
178.5016
 20
180.5000
 30
0.0000
 42
1.0000
  0
VERTEX
  8
1
 10
178.2984
 20
180.5000
 30
0.0000
  0
SEQEND
  8
0
  0
POLYLINE
  8
1
 66
1
 10
0.0000
 20
0.0000
 30
0.0000
 40
0.4064
 41
0.4064
 70
0
  0
VERTEX
  8
1
 10
178.4000
 20
155.0000
 30
0.0000
  0
VERTEX
  8
1
 10
173.1000
 20
149.7000
 30
0.0000
  0
SEQEND
  8
0
  0
POLYLINE
  8
1
 66
1
 10
0.0000
 20
0.0000
 30
0.0000
 40
0.2032
 41
0.2032
 70
0
  0
VERTEX
  8
1
 10
173.0282
 20
149.7718
 30
0.0000
 42
1.0000
  0
VERTEX
  8
1
 10
173.1718
 20
149.6282
 30
0.0000
  0
SEQEND
  8
0
  0
POLYLINE
  8
1
 66
1
 10
0.0000
 20
0.0000
 30
0.0000
 40
0.2032
 41
0.2032
 70
0
  0
VERTEX
  8
1
 10
178.4718
 20
154.9282
 30
0.0000
 42
1.0000
  0
VERTEX
  8
1
 10
178.3282
 20
155.0718
 30
0.0000
  0
SEQEND
  8
0
  0
POLYLINE
  8
1
 66
1
 10
0.0000
 20
0.0000
 30
0.0000
 40
0.4064
 41
0.4064
 70
0
  0
VERTEX
  8
1
 10
173.1000
 20
149.7000
 30
0.0000
  0
VERTEX
  8
1
 10
116.9000
 20
149.7000
 30
0.0000
  0
SEQEND
  8
0
  0
POLYLINE
  8
1
 66
1
 10
0.0000
 20
0.0000
 30
0.0000
 40
0.2032
 41
0.2032
 70
0
  0
VERTEX
  8
1
 10
116.9000
 20
149.8016
 30
0.0000
 42
1.0000
  0
VERTEX
  8
1
 10
116.9000
 20
149.5984
 30
0.0000
  0
SEQEND
  8
0
  0
POLYLINE
  8
1
 66
1
 10
0.0000
 20
0.0000
 30
0.0000
 40
0.2032
 41
0.2032
 70
0
  0
VERTEX
  8
1
 10
173.1000
 20
149.5984
 30
0.0000
 42
1.0000
  0
VERTEX
  8
1
 10
173.1000
 20
149.8016
 30
0.0000
  0
SEQEND
  8
0
  0
POLYLINE
  8
1
 66
1
 10
0.0000
 20
0.0000
 30
0.0000
 40
0.4064
 41
0.4064
 70
0
  0
VERTEX
  8
1
 10
116.9000
 20
149.7000
 30
0.0000
  0
VERTEX
  8
1
 10
114.8000
 20
151.8000
 30
0.0000
  0
SEQEND
  8
0
  0
POLYLINE
  8
1
 66
1
 10
0.0000
 20
0.0000
 30
0.0000
 40
0.2032
 41
0.2032
 70
0
  0
VERTEX
  8
1
 10
114.8718
 20
151.8718
 30
0.0000
 42
1.0000
  0
VERTEX
  8
1
 10
114.7282
 20
151.7282
 30
0.0000
  0
SEQEND
  8
0
  0
POLYLINE
  8
1
 66
1
 10
0.0000
 20
0.0000
 30
0.0000
 40
0.2032
 41
0.2032
 70
0
  0
VERTEX
  8
1
 10
116.8282
 20
149.6282
 30
0.0000
 42
1.0000
  0
VERTEX
  8
1
 10
116.9718
 20
149.7718
 30
0.0000
  0
SEQEND
  8
0
  0
POLYLINE
  8
1
 66
1
 10
0.0000
 20
0.0000
 30
0.0000
 40
0.4064
 41
0.4064
 70
0
  0
VERTEX
  8
1
 10
114.8000
 20
151.8000
 30
0.0000
  0
VERTEX
  8
1
 10
114.8000
 20
155.3000
 30
0.0000
  0
SEQEND
  8
0
  0
POLYLINE
  8
1
 66
1
 10
0.0000
 20
0.0000
 30
0.0000
 40
0.2032
 41
0.2032
 70
0
  0
VERTEX
  8
1
 10
114.9016
 20
155.3000
 30
0.0000
 42
1.0000
  0
VERTEX
  8
1
 10
114.6984
 20
155.3000
 30
0.0000
  0
SEQEND
  8
0
  0
POLYLINE
  8
1
 66
1
 10
0.0000
 20
0.0000
 30
0.0000
 40
0.2032
 41
0.2032
 70
0
  0
VERTEX
  8
1
 10
114.6984
 20
151.8000
 30
0.0000
 42
1.0000
  0
VERTEX
  8
1
 10
114.9016
 20
151.8000
 30
0.0000
  0
SEQEND
  8
0
  0
POLYLINE
  8
1
 66
1
 10
0.0000
 20
0.0000
 30
0.0000
 40
0.4064
 41
0.4064
 70
0
  0
VERTEX
  8
1
 10
114.8000
 20
155.3000
 30
0.0000
  0
VERTEX
  8
1
 10
116.3000
 20
156.8000
 30
0.0000
  0
SEQEND
  8
0
  0
POLYLINE
  8
1
 66
1
 10
0.0000
 20
0.0000
 30
0.0000
 40
0.2032
 41
0.2032
 70
0
  0
VERTEX
  8
1
 10
116.3718
 20
156.7282
 30
0.0000
 42
1.0000
  0
VERTEX
  8
1
 10
116.2282
 20
156.8718
 30
0.0000
  0
SEQEND
  8
0
  0
POLYLINE
  8
1
 66
1
 10
0.0000
 20
0.0000
 30
0.0000
 40
0.2032
 41
0.2032
 70
0
  0
VERTEX
  8
1
 10
114.7282
 20
155.3718
 30
0.0000
 42
1.0000
  0
VERTEX
  8
1
 10
114.8718
 20
155.2282
 30
0.0000
  0
SEQEND
  8
0
  0
POLYLINE
  8
1
 66
1
 10
0.0000
 20
0.0000
 30
0.0000
 40
0.4064
 41
0.4064
 70
0
  0
VERTEX
  8
1
 10
116.3000
 20
156.8000
 30
0.0000
  0
VERTEX
  8
1
 10
163.4000
 20
156.8000
 30
0.0000
  0
SEQEND
  8
0
  0
POLYLINE
  8
1
 66
1
 10
0.0000
 20
0.0000
 30
0.0000
 40
0.2032
 41
0.2032
 70
0
  0
VERTEX
  8
1
 10
163.4000
 20
156.6984
 30
0.0000
 42
1.0000
  0
VERTEX
  8
1
 10
163.4000
 20
156.9016
 30
0.0000
  0
SEQEND
  8
0
  0
POLYLINE
  8
1
 66
1
 10
0.0000
 20
0.0000
 30
0.0000
 40
0.2032
 41
0.2032
 70
0
  0
VERTEX
  8
1
 10
116.3000
 20
156.9016
 30
0.0000
 42
1.0000
  0
VERTEX
  8
1
 10
116.3000
 20
156.6984
 30
0.0000
  0
SEQEND
  8
0
  0
POLYLINE
  8
1
 66
1
 10
0.0000
 20
0.0000
 30
0.0000
 40
0.4064
 41
0.4064
 70
0
  0
VERTEX
  8
1
 10
163.4000
 20
156.8000
 30
0.0000
  0
VERTEX
  8
1
 10
165.5000
 20
158.9000
 30
0.0000
  0
SEQEND
  8
0
  0
POLYLINE
  8
1
 66
1
 10
0.0000
 20
0.0000
 30
0.0000
 40
0.2032
 41
0.2032
 70
0
  0
VERTEX
  8
1
 10
165.5718
 20
158.8282
 30
0.0000
 42
1.0000
  0
VERTEX
  8
1
 10
165.4282
 20
158.9718
 30
0.0000
  0
SEQEND
  8
0
  0
POLYLINE
  8
1
 66
1
 10
0.0000
 20
0.0000
 30
0.0000
 40
0.2032
 41
0.2032
 70
0
  0
VERTEX
  8
1
 10
163.3282
 20
156.8718
 30
0.0000
 42
1.0000
  0
VERTEX
  8
1
 10
163.4718
 20
156.7282
 30
0.0000
  0
SEQEND
  8
0
  0
POLYLINE
  8
1
 66
1
 10
0.0000
 20
0.0000
 30
0.0000
 40
0.4064
 41
0.4064
 70
0
  0
VERTEX
  8
1
 10
165.5000
 20
158.9000
 30
0.0000
  0
VERTEX
  8
1
 10
165.5000
 20
161.5000
 30
0.0000
  0
SEQEND
  8
0
  0
POLYLINE
  8
1
 66
1
 10
0.0000
 20
0.0000
 30
0.0000
 40
0.2032
 41
0.2032
 70
0
  0
VERTEX
  8
1
 10
165.6016
 20
161.5000
 30
0.0000
 42
1.0000
  0
VERTEX
  8
1
 10
165.3984
 20
161.5000
 30
0.0000
  0
SEQEND
  8
0
  0
POLYLINE
  8
1
 66
1
 10
0.0000
 20
0.0000
 30
0.0000
 40
0.2032
 41
0.2032
 70
0
  0
VERTEX
  8
1
 10
165.3984
 20
158.9000
 30
0.0000
 42
1.0000
  0
VERTEX
  8
1
 10
165.6016
 20
158.9000
 30
0.0000
  0
SEQEND
  8
0
  0
POLYLINE
  8
1
 66
1
 10
0.0000
 20
0.0000
 30
0.0000
 40
0.4064
 41
0.4064
 70
0
  0
VERTEX
  8
1
 10
165.5000
 20
161.5000
 30
0.0000
  0
VERTEX
  8
1
 10
163.5000
 20
163.5000
 30
0.0000
  0
SEQEND
  8
0
  0
POLYLINE
  8
1
 66
1
 10
0.0000
 20
0.0000
 30
0.0000
 40
0.2032
 41
0.2032
 70
0
  0
VERTEX
  8
1
 10
163.5718
 20
163.5718
 30
0.0000
 42
1.0000
  0
VERTEX
  8
1
 10
163.4282
 20
163.4282
 30
0.0000
  0
SEQEND
  8
0
  0
POLYLINE
  8
1
 66
1
 10
0.0000
 20
0.0000
 30
0.0000
 40
0.2032
 41
0.2032
 70
0
  0
VERTEX
  8
1
 10
165.4282
 20
161.4282
 30
0.0000
 42
1.0000
  0
VERTEX
  8
1
 10
165.5718
 20
161.5718
 30
0.0000
  0
SEQEND
  8
0
  0
POLYLINE
  8
1
 66
1
 10
0.0000
 20
0.0000
 30
0.0000
 40
0.4064
 41
0.4064
 70
0
  0
VERTEX
  8
1
 10
163.5000
 20
163.5000
 30
0.0000
  0
VERTEX
  8
1
 10
115.6000
 20
163.5000
 30
0.0000
  0
SEQEND
  8
0
  0
POLYLINE
  8
1
 66
1
 10
0.0000
 20
0.0000
 30
0.0000
 40
0.2032
 41
0.2032
 70
0
  0
VERTEX
  8
1
 10
115.6000
 20
163.6016
 30
0.0000
 42
1.0000
  0
VERTEX
  8
1
 10
115.6000
 20
163.3984
 30
0.0000
  0
SEQEND
  8
0
  0
POLYLINE
  8
1
 66
1
 10
0.0000
 20
0.0000
 30
0.0000
 40
0.2032
 41
0.2032
 70
0
  0
VERTEX
  8
1
 10
163.5000
 20
163.3984
 30
0.0000
 42
1.0000
  0
VERTEX
  8
1
 10
163.5000
 20
163.6016
 30
0.0000
  0
SEQEND
  8
0
  0
POLYLINE
  8
1
 66
1
 10
0.0000
 20
0.0000
 30
0.0000
 40
0.4064
 41
0.4064
 70
0
  0
VERTEX
  8
1
 10
16.8000
 20
155.6000
 30
0.0000
  0
VERTEX
  8
1
 10
16.8000
 20
167.0000
 30
0.0000
  0
SEQEND
  8
0
  0
POLYLINE
  8
1
 66
1
 10
0.0000
 20
0.0000
 30
0.0000
 40
0.2032
 41
0.2032
 70
0
  0
VERTEX
  8
1
 10
16.9016
 20
167.0000
 30
0.0000
 42
1.0000
  0
VERTEX
  8
1
 10
16.6984
 20
167.0000
 30
0.0000
  0
SEQEND
  8
0
  0
POLYLINE
  8
1
 66
1
 10
0.0000
 20
0.0000
 30
0.0000
 40
0.2032
 41
0.2032
 70
0
  0
VERTEX
  8
1
 10
16.6984
 20
155.6000
 30
0.0000
 42
1.0000
  0
VERTEX
  8
1
 10
16.9016
 20
155.6000
 30
0.0000
  0
SEQEND
  8
0
  0
POLYLINE
  8
1
 66
1
 10
0.0000
 20
0.0000
 30
0.0000
 40
0.4064
 41
0.4064
 70
0
  0
VERTEX
  8
1
 10
26.6000
 20
145.8000
 30
0.0000
  0
VERTEX
  8
1
 10
16.8000
 20
155.6000
 30
0.0000
  0
SEQEND
  8
0
  0
POLYLINE
  8
1
 66
1
 10
0.0000
 20
0.0000
 30
0.0000
 40
0.2032
 41
0.2032
 70
0
  0
VERTEX
  8
1
 10
16.8718
 20
155.6718
 30
0.0000
 42
1.0000
  0
VERTEX
  8
1
 10
16.7282
 20
155.5282
 30
0.0000
  0
SEQEND
  8
0
  0
POLYLINE
  8
1
 66
1
 10
0.0000
 20
0.0000
 30
0.0000
 40
0.2032
 41
0.2032
 70
0
  0
VERTEX
  8
1
 10
26.5282
 20
145.7282
 30
0.0000
 42
1.0000
  0
VERTEX
  8
1
 10
26.6718
 20
145.8718
 30
0.0000
  0
SEQEND
  8
0
  0
POLYLINE
  8
1
 66
1
 10
0.0000
 20
0.0000
 30
0.0000
 40
0.4064
 41
0.4064
 70
0
  0
VERTEX
  8
1
 10
104.4000
 20
165.5000
 30
0.0000
  0
VERTEX
  8
1
 10
84.7000
 20
145.8000
 30
0.0000
  0
SEQEND
  8
0
  0
POLYLINE
  8
1
 66
1
 10
0.0000
 20
0.0000
 30
0.0000
 40
0.2032
 41
0.2032
 70
0
  0
VERTEX
  8
1
 10
84.6282
 20
145.8718
 30
0.0000
 42
1.0000
  0
VERTEX
  8
1
 10
84.7718
 20
145.7282
 30
0.0000
  0
SEQEND
  8
0
  0
POLYLINE
  8
1
 66
1
 10
0.0000
 20
0.0000
 30
0.0000
 40
0.2032
 41
0.2032
 70
0
  0
VERTEX
  8
1
 10
104.4718
 20
165.4282
 30
0.0000
 42
1.0000
  0
VERTEX
  8
1
 10
104.3282
 20
165.5718
 30
0.0000
  0
SEQEND
  8
0
  0
POLYLINE
  8
1
 66
1
 10
0.0000
 20
0.0000
 30
0.0000
 40
0.4064
 41
0.4064
 70
0
  0
VERTEX
  8
1
 10
84.7000
 20
145.8000
 30
0.0000
  0
VERTEX
  8
1
 10
26.6000
 20
145.8000
 30
0.0000
  0
SEQEND
  8
0
  0
POLYLINE
  8
1
 66
1
 10
0.0000
 20
0.0000
 30
0.0000
 40
0.2032
 41
0.2032
 70
0
  0
VERTEX
  8
1
 10
26.6000
 20
145.9016
 30
0.0000
 42
1.0000
  0
VERTEX
  8
1
 10
26.6000
 20
145.6984
 30
0.0000
  0
SEQEND
  8
0
  0
POLYLINE
  8
1
 66
1
 10
0.0000
 20
0.0000
 30
0.0000
 40
0.2032
 41
0.2032
 70
0
  0
VERTEX
  8
1
 10
84.7000
 20
145.6984
 30
0.0000
 42
1.0000
  0
VERTEX
  8
1
 10
84.7000
 20
145.9016
 30
0.0000
  0
SEQEND
  8
0
  0
POLYLINE
  8
1
 66
1
 10
0.0000
 20
0.0000
 30
0.0000
 40
0.4064
 41
0.4064
 70
0
  0
VERTEX
  8
1
 10
115.6000
 20
163.5000
 30
0.0000
  0
VERTEX
  8
1
 10
108.9000
 20
170.2000
 30
0.0000
  0
SEQEND
  8
0
  0
POLYLINE
  8
1
 66
1
 10
0.0000
 20
0.0000
 30
0.0000
 40
0.2032
 41
0.2032
 70
0
  0
VERTEX
  8
1
 10
108.9718
 20
170.2718
 30
0.0000
 42
1.0000
  0
VERTEX
  8
1
 10
108.8282
 20
170.1282
 30
0.0000
  0
SEQEND
  8
0
  0
POLYLINE
  8
1
 66
1
 10
0.0000
 20
0.0000
 30
0.0000
 40
0.2032
 41
0.2032
 70
0
  0
VERTEX
  8
1
 10
115.5282
 20
163.4282
 30
0.0000
 42
1.0000
  0
VERTEX
  8
1
 10
115.6718
 20
163.5718
 30
0.0000
  0
SEQEND
  8
0
  0
POLYLINE
  8
1
 66
1
 10
0.0000
 20
0.0000
 30
0.0000
 40
0.4064
 41
0.4064
 70
0
  0
VERTEX
  8
1
 10
108.9000
 20
170.2000
 30
0.0000
  0
VERTEX
  8
1
 10
106.3000
 20
170.2000
 30
0.0000
  0
SEQEND
  8
0
  0
POLYLINE
  8
1
 66
1
 10
0.0000
 20
0.0000
 30
0.0000
 40
0.2032
 41
0.2032
 70
0
  0
VERTEX
  8
1
 10
106.3000
 20
170.3016
 30
0.0000
 42
1.0000
  0
VERTEX
  8
1
 10
106.3000
 20
170.0984
 30
0.0000
  0
SEQEND
  8
0
  0
POLYLINE
  8
1
 66
1
 10
0.0000
 20
0.0000
 30
0.0000
 40
0.2032
 41
0.2032
 70
0
  0
VERTEX
  8
1
 10
108.9000
 20
170.0984
 30
0.0000
 42
1.0000
  0
VERTEX
  8
1
 10
108.9000
 20
170.3016
 30
0.0000
  0
SEQEND
  8
0
  0
POLYLINE
  8
1
 66
1
 10
0.0000
 20
0.0000
 30
0.0000
 40
0.4064
 41
0.4064
 70
0
  0
VERTEX
  8
1
 10
106.3000
 20
170.2000
 30
0.0000
  0
VERTEX
  8
1
 10
104.4000
 20
168.3000
 30
0.0000
  0
SEQEND
  8
0
  0
POLYLINE
  8
1
 66
1
 10
0.0000
 20
0.0000
 30
0.0000
 40
0.2032
 41
0.2032
 70
0
  0
VERTEX
  8
1
 10
104.3282
 20
168.3718
 30
0.0000
 42
1.0000
  0
VERTEX
  8
1
 10
104.4718
 20
168.2282
 30
0.0000
  0
SEQEND
  8
0
  0
POLYLINE
  8
1
 66
1
 10
0.0000
 20
0.0000
 30
0.0000
 40
0.2032
 41
0.2032
 70
0
  0
VERTEX
  8
1
 10
106.3718
 20
170.1282
 30
0.0000
 42
1.0000
  0
VERTEX
  8
1
 10
106.2282
 20
170.2718
 30
0.0000
  0
SEQEND
  8
0
  0
POLYLINE
  8
1
 66
1
 10
0.0000
 20
0.0000
 30
0.0000
 40
0.4064
 41
0.4064
 70
0
  0
VERTEX
  8
1
 10
104.4000
 20
168.3000
 30
0.0000
  0
VERTEX
  8
1
 10
104.4000
 20
165.5000
 30
0.0000
  0
SEQEND
  8
0
  0
POLYLINE
  8
1
 66
1
 10
0.0000
 20
0.0000
 30
0.0000
 40
0.2032
 41
0.2032
 70
0
  0
VERTEX
  8
1
 10
104.2984
 20
165.5000
 30
0.0000
 42
1.0000
  0
VERTEX
  8
1
 10
104.5016
 20
165.5000
 30
0.0000
  0
SEQEND
  8
0
  0
POLYLINE
  8
1
 66
1
 10
0.0000
 20
0.0000
 30
0.0000
 40
0.2032
 41
0.2032
 70
0
  0
VERTEX
  8
1
 10
104.5016
 20
168.3000
 30
0.0000
 42
1.0000
  0
VERTEX
  8
1
 10
104.2984
 20
168.3000
 30
0.0000
  0
SEQEND
  8
0
  0
POLYLINE
  8
1
 66
1
 10
0.0000
 20
0.0000
 30
0.0000
 40
0.4064
 41
0.4064
 70
0
  0
VERTEX
  8
1
 10
286.0000
 20
152.8000
 30
0.0000
  0
VERTEX
  8
1
 10
286.0000
 20
145.8000
 30
0.0000
  0
SEQEND
  8
0
  0
POLYLINE
  8
1
 66
1
 10
0.0000
 20
0.0000
 30
0.0000
 40
0.2032
 41
0.2032
 70
0
  0
VERTEX
  8
1
 10
285.8984
 20
145.8000
 30
0.0000
 42
1.0000
  0
VERTEX
  8
1
 10
286.1016
 20
145.8000
 30
0.0000
  0
SEQEND
  8
0
  0
POLYLINE
  8
1
 66
1
 10
0.0000
 20
0.0000
 30
0.0000
 40
0.2032
 41
0.2032
 70
0
  0
VERTEX
  8
1
 10
286.1016
 20
152.8000
 30
0.0000
 42
1.0000
  0
VERTEX
  8
1
 10
285.8984
 20
152.8000
 30
0.0000
  0
SEQEND
  8
0
  0
POLYLINE
  8
1
 66
1
 10
0.0000
 20
0.0000
 30
0.0000
 40
0.4064
 41
0.4064
 70
0
  0
VERTEX
  8
1
 10
284.7000
 20
154.1000
 30
0.0000
  0
VERTEX
  8
1
 10
286.0000
 20
152.8000
 30
0.0000
  0
SEQEND
  8
0
  0
POLYLINE
  8
1
 66
1
 10
0.0000
 20
0.0000
 30
0.0000
 40
0.2032
 41
0.2032
 70
0
  0
VERTEX
  8
1
 10
285.9282
 20
152.7282
 30
0.0000
 42
1.0000
  0
VERTEX
  8
1
 10
286.0718
 20
152.8718
 30
0.0000
  0
SEQEND
  8
0
  0
POLYLINE
  8
1
 66
1
 10
0.0000
 20
0.0000
 30
0.0000
 40
0.2032
 41
0.2032
 70
0
  0
VERTEX
  8
1
 10
284.7718
 20
154.1718
 30
0.0000
 42
1.0000
  0
VERTEX
  8
1
 10
284.6282
 20
154.0282
 30
0.0000
  0
SEQEND
  8
0
  0
POLYLINE
  8
1
 66
1
 10
0.0000
 20
0.0000
 30
0.0000
 40
0.4064
 41
0.4064
 70
0
  0
VERTEX
  8
1
 10
279.9000
 20
154.1000
 30
0.0000
  0
VERTEX
  8
1
 10
284.7000
 20
154.1000
 30
0.0000
  0
SEQEND
  8
0
  0
POLYLINE
  8
1
 66
1
 10
0.0000
 20
0.0000
 30
0.0000
 40
0.2032
 41
0.2032
 70
0
  0
VERTEX
  8
1
 10
284.7000
 20
153.9984
 30
0.0000
 42
1.0000
  0
VERTEX
  8
1
 10
284.7000
 20
154.2016
 30
0.0000
  0
SEQEND
  8
0
  0
POLYLINE
  8
1
 66
1
 10
0.0000
 20
0.0000
 30
0.0000
 40
0.2032
 41
0.2032
 70
0
  0
VERTEX
  8
1
 10
279.9000
 20
154.2016
 30
0.0000
 42
1.0000
  0
VERTEX
  8
1
 10
279.9000
 20
153.9984
 30
0.0000
  0
SEQEND
  8
0
  0
POLYLINE
  8
1
 66
1
 10
0.0000
 20
0.0000
 30
0.0000
 40
0.4064
 41
0.4064
 70
0
  0
VERTEX
  8
1
 10
277.8000
 20
156.2000
 30
0.0000
  0
VERTEX
  8
1
 10
279.9000
 20
154.1000
 30
0.0000
  0
SEQEND
  8
0
  0
POLYLINE
  8
1
 66
1
 10
0.0000
 20
0.0000
 30
0.0000
 40
0.2032
 41
0.2032
 70
0
  0
VERTEX
  8
1
 10
279.8282
 20
154.0282
 30
0.0000
 42
1.0000
  0
VERTEX
  8
1
 10
279.9718
 20
154.1718
 30
0.0000
  0
SEQEND
  8
0
  0
POLYLINE
  8
1
 66
1
 10
0.0000
 20
0.0000
 30
0.0000
 40
0.2032
 41
0.2032
 70
0
  0
VERTEX
  8
1
 10
277.8718
 20
156.2718
 30
0.0000
 42
1.0000
  0
VERTEX
  8
1
 10
277.7282
 20
156.1282
 30
0.0000
  0
SEQEND
  8
0
  0
POLYLINE
  8
1
 66
1
 10
0.0000
 20
0.0000
 30
0.0000
 40
0.4064
 41
0.4064
 70
0
  0
VERTEX
  8
1
 10
277.8000
 20
179.5000
 30
0.0000
  0
VERTEX
  8
1
 10
277.8000
 20
156.2000
 30
0.0000
  0
SEQEND
  8
0
  0
POLYLINE
  8
1
 66
1
 10
0.0000
 20
0.0000
 30
0.0000
 40
0.2032
 41
0.2032
 70
0
  0
VERTEX
  8
1
 10
277.6984
 20
156.2000
 30
0.0000
 42
1.0000
  0
VERTEX
  8
1
 10
277.9016
 20
156.2000
 30
0.0000
  0
SEQEND
  8
0
  0
POLYLINE
  8
1
 66
1
 10
0.0000
 20
0.0000
 30
0.0000
 40
0.2032
 41
0.2032
 70
0
  0
VERTEX
  8
1
 10
277.9016
 20
179.5000
 30
0.0000
 42
1.0000
  0
VERTEX
  8
1
 10
277.6984
 20
179.5000
 30
0.0000
  0
SEQEND
  8
0
  0
POLYLINE
  8
1
 66
1
 10
0.0000
 20
0.0000
 30
0.0000
 40
0.4064
 41
0.4064
 70
0
  0
VERTEX
  8
1
 10
283.6000
 20
143.4000
 30
0.0000
  0
VERTEX
  8
1
 10
25.9000
 20
143.4000
 30
0.0000
  0
SEQEND
  8
0
  0
POLYLINE
  8
1
 66
1
 10
0.0000
 20
0.0000
 30
0.0000
 40
0.2032
 41
0.2032
 70
0
  0
VERTEX
  8
1
 10
25.9000
 20
143.5016
 30
0.0000
 42
1.0000
  0
VERTEX
  8
1
 10
25.9000
 20
143.2984
 30
0.0000
  0
SEQEND
  8
0
  0
POLYLINE
  8
1
 66
1
 10
0.0000
 20
0.0000
 30
0.0000
 40
0.2032
 41
0.2032
 70
0
  0
VERTEX
  8
1
 10
283.6000
 20
143.2984
 30
0.0000
 42
1.0000
  0
VERTEX
  8
1
 10
283.6000
 20
143.5016
 30
0.0000
  0
SEQEND
  8
0
  0
POLYLINE
  8
1
 66
1
 10
0.0000
 20
0.0000
 30
0.0000
 40
0.4064
 41
0.4064
 70
0
  0
VERTEX
  8
1
 10
25.9000
 20
143.4000
 30
0.0000
  0
VERTEX
  8
1
 10
14.2500
 20
155.0500
 30
0.0000
  0
SEQEND
  8
0
  0
POLYLINE
  8
1
 66
1
 10
0.0000
 20
0.0000
 30
0.0000
 40
0.2032
 41
0.2032
 70
0
  0
VERTEX
  8
1
 10
14.3218
 20
155.1218
 30
0.0000
 42
1.0000
  0
VERTEX
  8
1
 10
14.1782
 20
154.9782
 30
0.0000
  0
SEQEND
  8
0
  0
POLYLINE
  8
1
 66
1
 10
0.0000
 20
0.0000
 30
0.0000
 40
0.2032
 41
0.2032
 70
0
  0
VERTEX
  8
1
 10
25.8282
 20
143.3282
 30
0.0000
 42
1.0000
  0
VERTEX
  8
1
 10
25.9718
 20
143.4718
 30
0.0000
  0
SEQEND
  8
0
  0
POLYLINE
  8
1
 66
1
 10
0.0000
 20
0.0000
 30
0.0000
 40
0.4064
 41
0.4064
 70
0
  0
VERTEX
  8
1
 10
14.2500
 20
155.0500
 30
0.0000
  0
VERTEX
  8
1
 10
14.2500
 20
166.9900
 30
0.0000
  0
SEQEND
  8
0
  0
POLYLINE
  8
1
 66
1
 10
0.0000
 20
0.0000
 30
0.0000
 40
0.2032
 41
0.2032
 70
0
  0
VERTEX
  8
1
 10
14.3516
 20
166.9900
 30
0.0000
 42
1.0000
  0
VERTEX
  8
1
 10
14.1484
 20
166.9900
 30
0.0000
  0
SEQEND
  8
0
  0
POLYLINE
  8
1
 66
1
 10
0.0000
 20
0.0000
 30
0.0000
 40
0.2032
 41
0.2032
 70
0
  0
VERTEX
  8
1
 10
14.1484
 20
155.0500
 30
0.0000
 42
1.0000
  0
VERTEX
  8
1
 10
14.3516
 20
155.0500
 30
0.0000
  0
SEQEND
  8
0
  0
POLYLINE
  8
1
 66
1
 10
0.0000
 20
0.0000
 30
0.0000
 40
0.4064
 41
0.4064
 70
0
  0
VERTEX
  8
1
 10
286.0000
 20
145.8000
 30
0.0000
  0
VERTEX
  8
1
 10
283.6000
 20
143.4000
 30
0.0000
  0
SEQEND
  8
0
  0
POLYLINE
  8
1
 66
1
 10
0.0000
 20
0.0000
 30
0.0000
 40
0.2032
 41
0.2032
 70
0
  0
VERTEX
  8
1
 10
283.5282
 20
143.4718
 30
0.0000
 42
1.0000
  0
VERTEX
  8
1
 10
283.6718
 20
143.3282
 30
0.0000
  0
SEQEND
  8
0
  0
POLYLINE
  8
1
 66
1
 10
0.0000
 20
0.0000
 30
0.0000
 40
0.2032
 41
0.2032
 70
0
  0
VERTEX
  8
1
 10
286.0718
 20
145.7282
 30
0.0000
 42
1.0000
  0
VERTEX
  8
1
 10
285.9282
 20
145.8718
 30
0.0000
  0
SEQEND
  8
0
  0
POLYLINE
  8
1
 66
1
 10
0.0000
 20
0.0000
 30
0.0000
 40
0.4064
 41
0.4064
 70
0
  0
VERTEX
  8
1
 10
79.6000
 20
180.6000
 30
0.0000
  0
VERTEX
  8
1
 10
79.6000
 20
154.0000
 30
0.0000
  0
SEQEND
  8
0
  0
POLYLINE
  8
1
 66
1
 10
0.0000
 20
0.0000
 30
0.0000
 40
0.2032
 41
0.2032
 70
0
  0
VERTEX
  8
1
 10
79.4984
 20
154.0000
 30
0.0000
 42
1.0000
  0
VERTEX
  8
1
 10
79.7016
 20
154.0000
 30
0.0000
  0
SEQEND
  8
0
  0
POLYLINE
  8
1
 66
1
 10
0.0000
 20
0.0000
 30
0.0000
 40
0.2032
 41
0.2032
 70
0
  0
VERTEX
  8
1
 10
79.7016
 20
180.6000
 30
0.0000
 42
1.0000
  0
VERTEX
  8
1
 10
79.4984
 20
180.6000
 30
0.0000
  0
SEQEND
  8
0
  0
POLYLINE
  8
1
 66
1
 10
0.0000
 20
0.0000
 30
0.0000
 40
0.4064
 41
0.4064
 70
0
  0
VERTEX
  8
1
 10
79.6000
 20
154.0000
 30
0.0000
  0
VERTEX
  8
1
 10
75.3000
 20
149.7000
 30
0.0000
  0
SEQEND
  8
0
  0
POLYLINE
  8
1
 66
1
 10
0.0000
 20
0.0000
 30
0.0000
 40
0.2032
 41
0.2032
 70
0
  0
VERTEX
  8
1
 10
75.2282
 20
149.7718
 30
0.0000
 42
1.0000
  0
VERTEX
  8
1
 10
75.3718
 20
149.6282
 30
0.0000
  0
SEQEND
  8
0
  0
POLYLINE
  8
1
 66
1
 10
0.0000
 20
0.0000
 30
0.0000
 40
0.2032
 41
0.2032
 70
0
  0
VERTEX
  8
1
 10
79.6718
 20
153.9282
 30
0.0000
 42
1.0000
  0
VERTEX
  8
1
 10
79.5282
 20
154.0718
 30
0.0000
  0
SEQEND
  8
0
  0
POLYLINE
  8
1
 66
1
 10
0.0000
 20
0.0000
 30
0.0000
 40
0.4064
 41
0.4064
 70
0
  0
VERTEX
  8
1
 10
75.3000
 20
149.7000
 30
0.0000
  0
VERTEX
  8
1
 10
72.8000
 20
149.7000
 30
0.0000
  0
SEQEND
  8
0
  0
POLYLINE
  8
1
 66
1
 10
0.0000
 20
0.0000
 30
0.0000
 40
0.2032
 41
0.2032
 70
0
  0
VERTEX
  8
1
 10
72.8000
 20
149.8016
 30
0.0000
 42
1.0000
  0
VERTEX
  8
1
 10
72.8000
 20
149.5984
 30
0.0000
  0
SEQEND
  8
0
  0
POLYLINE
  8
1
 66
1
 10
0.0000
 20
0.0000
 30
0.0000
 40
0.2032
 41
0.2032
 70
0
  0
VERTEX
  8
1
 10
75.3000
 20
149.5984
 30
0.0000
 42
1.0000
  0
VERTEX
  8
1
 10
75.3000
 20
149.8016
 30
0.0000
  0
SEQEND
  8
0
  0
POLYLINE
  8
1
 66
1
 10
0.0000
 20
0.0000
 30
0.0000
 40
0.4064
 41
0.4064
 70
0
  0
VERTEX
  8
1
 10
72.8000
 20
149.7000
 30
0.0000
  0
VERTEX
  8
1
 10
61.3000
 20
161.2000
 30
0.0000
  0
SEQEND
  8
0
  0
POLYLINE
  8
1
 66
1
 10
0.0000
 20
0.0000
 30
0.0000
 40
0.2032
 41
0.2032
 70
0
  0
VERTEX
  8
1
 10
61.3718
 20
161.2718
 30
0.0000
 42
1.0000
  0
VERTEX
  8
1
 10
61.2282
 20
161.1282
 30
0.0000
  0
SEQEND
  8
0
  0
POLYLINE
  8
1
 66
1
 10
0.0000
 20
0.0000
 30
0.0000
 40
0.2032
 41
0.2032
 70
0
  0
VERTEX
  8
1
 10
72.7282
 20
149.6282
 30
0.0000
 42
1.0000
  0
VERTEX
  8
1
 10
72.8718
 20
149.7718
 30
0.0000
  0
SEQEND
  8
0
  0
POLYLINE
  8
1
 66
1
 10
0.0000
 20
0.0000
 30
0.0000
 40
0.4064
 41
0.4064
 70
0
  0
VERTEX
  8
1
 10
61.3000
 20
161.2000
 30
0.0000
  0
VERTEX
  8
1
 10
61.3000
 20
189.6000
 30
0.0000
  0
SEQEND
  8
0
  0
POLYLINE
  8
1
 66
1
 10
0.0000
 20
0.0000
 30
0.0000
 40
0.2032
 41
0.2032
 70
0
  0
VERTEX
  8
1
 10
61.4016
 20
189.6000
 30
0.0000
 42
1.0000
  0
VERTEX
  8
1
 10
61.1984
 20
189.6000
 30
0.0000
  0
SEQEND
  8
0
  0
POLYLINE
  8
1
 66
1
 10
0.0000
 20
0.0000
 30
0.0000
 40
0.2032
 41
0.2032
 70
0
  0
VERTEX
  8
1
 10
61.1984
 20
161.2000
 30
0.0000
 42
1.0000
  0
VERTEX
  8
1
 10
61.4016
 20
161.2000
 30
0.0000
  0
SEQEND
  8
0
  0
POLYLINE
  8
1
 66
1
 10
0.0000
 20
0.0000
 30
0.0000
 40
0.4064
 41
0.4064
 70
0
  0
VERTEX
  8
1
 10
61.3000
 20
189.6000
 30
0.0000
  0
VERTEX
  8
1
 10
58.8000
 20
192.1000
 30
0.0000
  0
SEQEND
  8
0
  0
POLYLINE
  8
1
 66
1
 10
0.0000
 20
0.0000
 30
0.0000
 40
0.2032
 41
0.2032
 70
0
  0
VERTEX
  8
1
 10
58.8718
 20
192.1718
 30
0.0000
 42
1.0000
  0
VERTEX
  8
1
 10
58.7282
 20
192.0282
 30
0.0000
  0
SEQEND
  8
0
  0
POLYLINE
  8
1
 66
1
 10
0.0000
 20
0.0000
 30
0.0000
 40
0.2032
 41
0.2032
 70
0
  0
VERTEX
  8
1
 10
61.2282
 20
189.5282
 30
0.0000
 42
1.0000
  0
VERTEX
  8
1
 10
61.3718
 20
189.6718
 30
0.0000
  0
SEQEND
  8
0
  0
POLYLINE
  8
1
 66
1
 10
0.0000
 20
0.0000
 30
0.0000
 40
0.4064
 41
0.4064
 70
0
  0
VERTEX
  8
1
 10
58.8000
 20
192.1000
 30
0.0000
  0
VERTEX
  8
1
 10
56.2000
 20
192.1000
 30
0.0000
  0
SEQEND
  8
0
  0
POLYLINE
  8
1
 66
1
 10
0.0000
 20
0.0000
 30
0.0000
 40
0.2032
 41
0.2032
 70
0
  0
VERTEX
  8
1
 10
56.2000
 20
192.2016
 30
0.0000
 42
1.0000
  0
VERTEX
  8
1
 10
56.2000
 20
191.9984
 30
0.0000
  0
SEQEND
  8
0
  0
POLYLINE
  8
1
 66
1
 10
0.0000
 20
0.0000
 30
0.0000
 40
0.2032
 41
0.2032
 70
0
  0
VERTEX
  8
1
 10
58.8000
 20
191.9984
 30
0.0000
 42
1.0000
  0
VERTEX
  8
1
 10
58.8000
 20
192.2016
 30
0.0000
  0
SEQEND
  8
0
  0
POLYLINE
  8
1
 66
1
 10
0.0000
 20
0.0000
 30
0.0000
 40
0.4064
 41
0.4064
 70
0
  0
VERTEX
  8
1
 10
56.2000
 20
192.1000
 30
0.0000
  0
VERTEX
  8
1
 10
54.3000
 20
190.2000
 30
0.0000
  0
SEQEND
  8
0
  0
POLYLINE
  8
1
 66
1
 10
0.0000
 20
0.0000
 30
0.0000
 40
0.2032
 41
0.2032
 70
0
  0
VERTEX
  8
1
 10
54.2282
 20
190.2718
 30
0.0000
 42
1.0000
  0
VERTEX
  8
1
 10
54.3718
 20
190.1282
 30
0.0000
  0
SEQEND
  8
0
  0
POLYLINE
  8
1
 66
1
 10
0.0000
 20
0.0000
 30
0.0000
 40
0.2032
 41
0.2032
 70
0
  0
VERTEX
  8
1
 10
56.2718
 20
192.0282
 30
0.0000
 42
1.0000
  0
VERTEX
  8
1
 10
56.1282
 20
192.1718
 30
0.0000
  0
SEQEND
  8
0
  0
POLYLINE
  8
1
 66
1
 10
0.0000
 20
0.0000
 30
0.0000
 40
0.4064
 41
0.4064
 70
0
  0
VERTEX
  8
1
 10
54.3000
 20
190.2000
 30
0.0000
  0
VERTEX
  8
1
 10
54.3000
 20
161.2000
 30
0.0000
  0
SEQEND
  8
0
  0
POLYLINE
  8
1
 66
1
 10
0.0000
 20
0.0000
 30
0.0000
 40
0.2032
 41
0.2032
 70
0
  0
VERTEX
  8
1
 10
54.1984
 20
161.2000
 30
0.0000
 42
1.0000
  0
VERTEX
  8
1
 10
54.4016
 20
161.2000
 30
0.0000
  0
SEQEND
  8
0
  0
POLYLINE
  8
1
 66
1
 10
0.0000
 20
0.0000
 30
0.0000
 40
0.2032
 41
0.2032
 70
0
  0
VERTEX
  8
1
 10
54.4016
 20
190.2000
 30
0.0000
 42
1.0000
  0
VERTEX
  8
1
 10
54.1984
 20
190.2000
 30
0.0000
  0
SEQEND
  8
0
  0
POLYLINE
  8
1
 66
1
 10
0.0000
 20
0.0000
 30
0.0000
 40
0.4064
 41
0.4064
 70
0
  0
VERTEX
  8
1
 10
54.3000
 20
161.2000
 30
0.0000
  0
VERTEX
  8
1
 10
65.2000
 20
150.3000
 30
0.0000
  0
SEQEND
  8
0
  0
POLYLINE
  8
1
 66
1
 10
0.0000
 20
0.0000
 30
0.0000
 40
0.2032
 41
0.2032
 70
0
  0
VERTEX
  8
1
 10
65.1282
 20
150.2282
 30
0.0000
 42
1.0000
  0
VERTEX
  8
1
 10
65.2718
 20
150.3718
 30
0.0000
  0
SEQEND
  8
0
  0
POLYLINE
  8
1
 66
1
 10
0.0000
 20
0.0000
 30
0.0000
 40
0.2032
 41
0.2032
 70
0
  0
VERTEX
  8
1
 10
54.3718
 20
161.2718
 30
0.0000
 42
1.0000
  0
VERTEX
  8
1
 10
54.2282
 20
161.1282
 30
0.0000
  0
SEQEND
  8
0
  0
POLYLINE
  8
1
 66
1
 10
0.0000
 20
0.0000
 30
0.0000
 40
0.4064
 41
0.4064
 70
0
  0
VERTEX
  8
1
 10
65.2000
 20
150.3000
 30
0.0000
  0
VERTEX
  8
1
 10
65.2000
 20
148.5000
 30
0.0000
  0
SEQEND
  8
0
  0
POLYLINE
  8
1
 66
1
 10
0.0000
 20
0.0000
 30
0.0000
 40
0.2032
 41
0.2032
 70
0
  0
VERTEX
  8
1
 10
65.0984
 20
148.5000
 30
0.0000
 42
1.0000
  0
VERTEX
  8
1
 10
65.3016
 20
148.5000
 30
0.0000
  0
SEQEND
  8
0
  0
POLYLINE
  8
1
 66
1
 10
0.0000
 20
0.0000
 30
0.0000
 40
0.2032
 41
0.2032
 70
0
  0
VERTEX
  8
1
 10
65.3016
 20
150.3000
 30
0.0000
 42
1.0000
  0
VERTEX
  8
1
 10
65.0984
 20
150.3000
 30
0.0000
  0
SEQEND
  8
0
  0
POLYLINE
  8
1
 66
1
 10
0.0000
 20
0.0000
 30
0.0000
 40
0.4064
 41
0.4064
 70
0
  0
VERTEX
  8
1
 10
65.2000
 20
148.5000
 30
0.0000
  0
VERTEX
  8
1
 10
63.8000
 20
147.1000
 30
0.0000
  0
SEQEND
  8
0
  0
POLYLINE
  8
1
 66
1
 10
0.0000
 20
0.0000
 30
0.0000
 40
0.2032
 41
0.2032
 70
0
  0
VERTEX
  8
1
 10
63.7282
 20
147.1718
 30
0.0000
 42
1.0000
  0
VERTEX
  8
1
 10
63.8718
 20
147.0282
 30
0.0000
  0
SEQEND
  8
0
  0
POLYLINE
  8
1
 66
1
 10
0.0000
 20
0.0000
 30
0.0000
 40
0.2032
 41
0.2032
 70
0
  0
VERTEX
  8
1
 10
65.2718
 20
148.4282
 30
0.0000
 42
1.0000
  0
VERTEX
  8
1
 10
65.1282
 20
148.5718
 30
0.0000
  0
SEQEND
  8
0
  0
POLYLINE
  8
1
 66
1
 10
0.0000
 20
0.0000
 30
0.0000
 40
0.4064
 41
0.4064
 70
0
  0
VERTEX
  8
1
 10
63.8000
 20
147.1000
 30
0.0000
  0
VERTEX
  8
1
 10
62.7000
 20
147.1000
 30
0.0000
  0
SEQEND
  8
0
  0
POLYLINE
  8
1
 66
1
 10
0.0000
 20
0.0000
 30
0.0000
 40
0.2032
 41
0.2032
 70
0
  0
VERTEX
  8
1
 10
62.7000
 20
147.2016
 30
0.0000
 42
1.0000
  0
VERTEX
  8
1
 10
62.7000
 20
146.9984
 30
0.0000
  0
SEQEND
  8
0
  0
POLYLINE
  8
1
 66
1
 10
0.0000
 20
0.0000
 30
0.0000
 40
0.2032
 41
0.2032
 70
0
  0
VERTEX
  8
1
 10
63.8000
 20
146.9984
 30
0.0000
 42
1.0000
  0
VERTEX
  8
1
 10
63.8000
 20
147.2016
 30
0.0000
  0
SEQEND
  8
0
  0
POLYLINE
  8
1
 66
1
 10
0.0000
 20
0.0000
 30
0.0000
 40
0.4064
 41
0.4064
 70
0
  0
VERTEX
  8
1
 10
62.7000
 20
147.1000
 30
0.0000
  0
VERTEX
  8
1
 10
51.5000
 20
158.3000
 30
0.0000
  0
SEQEND
  8
0
  0
POLYLINE
  8
1
 66
1
 10
0.0000
 20
0.0000
 30
0.0000
 40
0.2032
 41
0.2032
 70
0
  0
VERTEX
  8
1
 10
51.5718
 20
158.3718
 30
0.0000
 42
1.0000
  0
VERTEX
  8
1
 10
51.4282
 20
158.2282
 30
0.0000
  0
SEQEND
  8
0
  0
POLYLINE
  8
1
 66
1
 10
0.0000
 20
0.0000
 30
0.0000
 40
0.2032
 41
0.2032
 70
0
  0
VERTEX
  8
1
 10
62.6282
 20
147.0282
 30
0.0000
 42
1.0000
  0
VERTEX
  8
1
 10
62.7718
 20
147.1718
 30
0.0000
  0
SEQEND
  8
0
  0
POLYLINE
  8
1
 66
1
 10
0.0000
 20
0.0000
 30
0.0000
 40
0.4064
 41
0.4064
 70
0
  0
VERTEX
  8
1
 10
51.5000
 20
158.3000
 30
0.0000
  0
VERTEX
  8
1
 10
51.5000
 20
187.4000
 30
0.0000
  0
SEQEND
  8
0
  0
POLYLINE
  8
1
 66
1
 10
0.0000
 20
0.0000
 30
0.0000
 40
0.2032
 41
0.2032
 70
0
  0
VERTEX
  8
1
 10
51.6016
 20
187.4000
 30
0.0000
 42
1.0000
  0
VERTEX
  8
1
 10
51.3984
 20
187.4000
 30
0.0000
  0
SEQEND
  8
0
  0
POLYLINE
  8
1
 66
1
 10
0.0000
 20
0.0000
 30
0.0000
 40
0.2032
 41
0.2032
 70
0
  0
VERTEX
  8
1
 10
51.3984
 20
158.3000
 30
0.0000
 42
1.0000
  0
VERTEX
  8
1
 10
51.6016
 20
158.3000
 30
0.0000
  0
SEQEND
  8
0
  0
POLYLINE
  8
1
 66
1
 10
0.0000
 20
0.0000
 30
0.0000
 40
0.4064
 41
0.4064
 70
0
  0
VERTEX
  8
1
 10
51.5000
 20
187.4000
 30
0.0000
  0
VERTEX
  8
1
 10
49.7000
 20
189.2000
 30
0.0000
  0
SEQEND
  8
0
  0
POLYLINE
  8
1
 66
1
 10
0.0000
 20
0.0000
 30
0.0000
 40
0.2032
 41
0.2032
 70
0
  0
VERTEX
  8
1
 10
49.7718
 20
189.2718
 30
0.0000
 42
1.0000
  0
VERTEX
  8
1
 10
49.6282
 20
189.1282
 30
0.0000
  0
SEQEND
  8
0
  0
POLYLINE
  8
1
 66
1
 10
0.0000
 20
0.0000
 30
0.0000
 40
0.2032
 41
0.2032
 70
0
  0
VERTEX
  8
1
 10
51.4282
 20
187.3282
 30
0.0000
 42
1.0000
  0
VERTEX
  8
1
 10
51.5718
 20
187.4718
 30
0.0000
  0
SEQEND
  8
0
  0
POLYLINE
  8
1
 66
1
 10
0.0000
 20
0.0000
 30
0.0000
 40
0.4064
 41
0.4064
 70
0
  0
VERTEX
  8
1
 10
49.7000
 20
189.2000
 30
0.0000
  0
VERTEX
  8
1
 10
47.5000
 20
189.2000
 30
0.0000
  0
SEQEND
  8
0
  0
POLYLINE
  8
1
 66
1
 10
0.0000
 20
0.0000
 30
0.0000
 40
0.2032
 41
0.2032
 70
0
  0
VERTEX
  8
1
 10
47.5000
 20
189.3016
 30
0.0000
 42
1.0000
  0
VERTEX
  8
1
 10
47.5000
 20
189.0984
 30
0.0000
  0
SEQEND
  8
0
  0
POLYLINE
  8
1
 66
1
 10
0.0000
 20
0.0000
 30
0.0000
 40
0.2032
 41
0.2032
 70
0
  0
VERTEX
  8
1
 10
49.7000
 20
189.0984
 30
0.0000
 42
1.0000
  0
VERTEX
  8
1
 10
49.7000
 20
189.3016
 30
0.0000
  0
SEQEND
  8
0
  0
POLYLINE
  8
1
 66
1
 10
0.0000
 20
0.0000
 30
0.0000
 40
0.4064
 41
0.4064
 70
0
  0
VERTEX
  8
1
 10
47.5000
 20
189.2000
 30
0.0000
  0
VERTEX
  8
1
 10
45.8000
 20
187.5000
 30
0.0000
  0
SEQEND
  8
0
  0
POLYLINE
  8
1
 66
1
 10
0.0000
 20
0.0000
 30
0.0000
 40
0.2032
 41
0.2032
 70
0
  0
VERTEX
  8
1
 10
45.7282
 20
187.5718
 30
0.0000
 42
1.0000
  0
VERTEX
  8
1
 10
45.8718
 20
187.4282
 30
0.0000
  0
SEQEND
  8
0
  0
POLYLINE
  8
1
 66
1
 10
0.0000
 20
0.0000
 30
0.0000
 40
0.2032
 41
0.2032
 70
0
  0
VERTEX
  8
1
 10
47.5718
 20
189.1282
 30
0.0000
 42
1.0000
  0
VERTEX
  8
1
 10
47.4282
 20
189.2718
 30
0.0000
  0
SEQEND
  8
0
  0
POLYLINE
  8
1
 66
1
 10
0.0000
 20
0.0000
 30
0.0000
 40
0.4064
 41
0.4064
 70
0
  0
VERTEX
  8
1
 10
45.8000
 20
187.5000
 30
0.0000
  0
VERTEX
  8
1
 10
45.8000
 20
158.2000
 30
0.0000
  0
SEQEND
  8
0
  0
POLYLINE
  8
1
 66
1
 10
0.0000
 20
0.0000
 30
0.0000
 40
0.2032
 41
0.2032
 70
0
  0
VERTEX
  8
1
 10
45.6984
 20
158.2000
 30
0.0000
 42
1.0000
  0
VERTEX
  8
1
 10
45.9016
 20
158.2000
 30
0.0000
  0
SEQEND
  8
0
  0
POLYLINE
  8
1
 66
1
 10
0.0000
 20
0.0000
 30
0.0000
 40
0.2032
 41
0.2032
 70
0
  0
VERTEX
  8
1
 10
45.9016
 20
187.5000
 30
0.0000
 42
1.0000
  0
VERTEX
  8
1
 10
45.6984
 20
187.5000
 30
0.0000
  0
SEQEND
  8
0
  0
POLYLINE
  8
1
 66
1
 10
0.0000
 20
0.0000
 30
0.0000
 40
0.4064
 41
0.4064
 70
0
  0
VERTEX
  8
1
 10
45.8000
 20
158.2000
 30
0.0000
  0
VERTEX
  8
1
 10
53.0000
 20
151.0000
 30
0.0000
  0
SEQEND
  8
0
  0
POLYLINE
  8
1
 66
1
 10
0.0000
 20
0.0000
 30
0.0000
 40
0.2032
 41
0.2032
 70
0
  0
VERTEX
  8
1
 10
52.9282
 20
150.9282
 30
0.0000
 42
1.0000
  0
VERTEX
  8
1
 10
53.0718
 20
151.0718
 30
0.0000
  0
SEQEND
  8
0
  0
POLYLINE
  8
1
 66
1
 10
0.0000
 20
0.0000
 30
0.0000
 40
0.2032
 41
0.2032
 70
0
  0
VERTEX
  8
1
 10
45.8718
 20
158.2718
 30
0.0000
 42
1.0000
  0
VERTEX
  8
1
 10
45.7282
 20
158.1282
 30
0.0000
  0
SEQEND
  8
0
  0
POLYLINE
  8
1
 66
1
 10
0.0000
 20
0.0000
 30
0.0000
 40
0.4064
 41
0.4064
 70
0
  0
VERTEX
  8
1
 10
53.0000
 20
151.0000
 30
0.0000
  0
VERTEX
  8
1
 10
53.0000
 20
148.8000
 30
0.0000
  0
SEQEND
  8
0
  0
POLYLINE
  8
1
 66
1
 10
0.0000
 20
0.0000
 30
0.0000
 40
0.2032
 41
0.2032
 70
0
  0
VERTEX
  8
1
 10
52.8984
 20
148.8000
 30
0.0000
 42
1.0000
  0
VERTEX
  8
1
 10
53.1016
 20
148.8000
 30
0.0000
  0
SEQEND
  8
0
  0
POLYLINE
  8
1
 66
1
 10
0.0000
 20
0.0000
 30
0.0000
 40
0.2032
 41
0.2032
 70
0
  0
VERTEX
  8
1
 10
53.1016
 20
151.0000
 30
0.0000
 42
1.0000
  0
VERTEX
  8
1
 10
52.8984
 20
151.0000
 30
0.0000
  0
SEQEND
  8
0
  0
POLYLINE
  8
1
 66
1
 10
0.0000
 20
0.0000
 30
0.0000
 40
0.4064
 41
0.4064
 70
0
  0
VERTEX
  8
1
 10
53.0000
 20
148.8000
 30
0.0000
  0
VERTEX
  8
1
 10
51.4000
 20
147.2000
 30
0.0000
  0
SEQEND
  8
0
  0
POLYLINE
  8
1
 66
1
 10
0.0000
 20
0.0000
 30
0.0000
 40
0.2032
 41
0.2032
 70
0
  0
VERTEX
  8
1
 10
51.3282
 20
147.2718
 30
0.0000
 42
1.0000
  0
VERTEX
  8
1
 10
51.4718
 20
147.1282
 30
0.0000
  0
SEQEND
  8
0
  0
POLYLINE
  8
1
 66
1
 10
0.0000
 20
0.0000
 30
0.0000
 40
0.2032
 41
0.2032
 70
0
  0
VERTEX
  8
1
 10
53.0718
 20
148.7282
 30
0.0000
 42
1.0000
  0
VERTEX
  8
1
 10
52.9282
 20
148.8718
 30
0.0000
  0
SEQEND
  8
0
  0
POLYLINE
  8
1
 66
1
 10
0.0000
 20
0.0000
 30
0.0000
 40
0.4064
 41
0.4064
 70
0
  0
VERTEX
  8
1
 10
51.4000
 20
147.2000
 30
0.0000
  0
VERTEX
  8
1
 10
50.1000
 20
147.2000
 30
0.0000
  0
SEQEND
  8
0
  0
POLYLINE
  8
1
 66
1
 10
0.0000
 20
0.0000
 30
0.0000
 40
0.2032
 41
0.2032
 70
0
  0
VERTEX
  8
1
 10
50.1000
 20
147.3016
 30
0.0000
 42
1.0000
  0
VERTEX
  8
1
 10
50.1000
 20
147.0984
 30
0.0000
  0
SEQEND
  8
0
  0
POLYLINE
  8
1
 66
1
 10
0.0000
 20
0.0000
 30
0.0000
 40
0.2032
 41
0.2032
 70
0
  0
VERTEX
  8
1
 10
51.4000
 20
147.0984
 30
0.0000
 42
1.0000
  0
VERTEX
  8
1
 10
51.4000
 20
147.3016
 30
0.0000
  0
SEQEND
  8
0
  0
POLYLINE
  8
1
 66
1
 10
0.0000
 20
0.0000
 30
0.0000
 40
0.4064
 41
0.4064
 70
0
  0
VERTEX
  8
1
 10
50.1000
 20
147.2000
 30
0.0000
  0
VERTEX
  8
1
 10
41.0000
 20
156.3000
 30
0.0000
  0
SEQEND
  8
0
  0
POLYLINE
  8
1
 66
1
 10
0.0000
 20
0.0000
 30
0.0000
 40
0.2032
 41
0.2032
 70
0
  0
VERTEX
  8
1
 10
41.0718
 20
156.3718
 30
0.0000
 42
1.0000
  0
VERTEX
  8
1
 10
40.9282
 20
156.2282
 30
0.0000
  0
SEQEND
  8
0
  0
POLYLINE
  8
1
 66
1
 10
0.0000
 20
0.0000
 30
0.0000
 40
0.2032
 41
0.2032
 70
0
  0
VERTEX
  8
1
 10
50.0282
 20
147.1282
 30
0.0000
 42
1.0000
  0
VERTEX
  8
1
 10
50.1718
 20
147.2718
 30
0.0000
  0
SEQEND
  8
0
  0
POLYLINE
  8
1
 66
1
 10
0.0000
 20
0.0000
 30
0.0000
 40
0.4064
 41
0.4064
 70
0
  0
VERTEX
  8
1
 10
41.0000
 20
156.3000
 30
0.0000
  0
VERTEX
  8
1
 10
41.0000
 20
166.9000
 30
0.0000
  0
SEQEND
  8
0
  0
POLYLINE
  8
1
 66
1
 10
0.0000
 20
0.0000
 30
0.0000
 40
0.2032
 41
0.2032
 70
0
  0
VERTEX
  8
1
 10
41.1016
 20
166.9000
 30
0.0000
 42
1.0000
  0
VERTEX
  8
1
 10
40.8984
 20
166.9000
 30
0.0000
  0
SEQEND
  8
0
  0
POLYLINE
  8
1
 66
1
 10
0.0000
 20
0.0000
 30
0.0000
 40
0.2032
 41
0.2032
 70
0
  0
VERTEX
  8
1
 10
40.8984
 20
156.3000
 30
0.0000
 42
1.0000
  0
VERTEX
  8
1
 10
41.1016
 20
156.3000
 30
0.0000
  0
SEQEND
  8
0
  0
POLYLINE
  8
1
 66
1
 10
0.0000
 20
0.0000
 30
0.0000
 40
0.4064
 41
0.4064
 70
0
  0
VERTEX
  8
1
 10
41.0000
 20
166.9000
 30
0.0000
  0
VERTEX
  8
1
 10
39.6000
 20
168.3000
 30
0.0000
  0
SEQEND
  8
0
  0
POLYLINE
  8
1
 66
1
 10
0.0000
 20
0.0000
 30
0.0000
 40
0.2032
 41
0.2032
 70
0
  0
VERTEX
  8
1
 10
39.6718
 20
168.3718
 30
0.0000
 42
1.0000
  0
VERTEX
  8
1
 10
39.5282
 20
168.2282
 30
0.0000
  0
SEQEND
  8
0
  0
POLYLINE
  8
1
 66
1
 10
0.0000
 20
0.0000
 30
0.0000
 40
0.2032
 41
0.2032
 70
0
  0
VERTEX
  8
1
 10
40.9282
 20
166.8282
 30
0.0000
 42
1.0000
  0
VERTEX
  8
1
 10
41.0718
 20
166.9718
 30
0.0000
  0
SEQEND
  8
0
  0
POLYLINE
  8
1
 66
1
 10
0.0000
 20
0.0000
 30
0.0000
 40
0.4064
 41
0.4064
 70
0
  0
VERTEX
  8
1
 10
39.6000
 20
168.3000
 30
0.0000
  0
VERTEX
  8
1
 10
37.6000
 20
168.3000
 30
0.0000
  0
SEQEND
  8
0
  0
POLYLINE
  8
1
 66
1
 10
0.0000
 20
0.0000
 30
0.0000
 40
0.2032
 41
0.2032
 70
0
  0
VERTEX
  8
1
 10
37.6000
 20
168.4016
 30
0.0000
 42
1.0000
  0
VERTEX
  8
1
 10
37.6000
 20
168.1984
 30
0.0000
  0
SEQEND
  8
0
  0
POLYLINE
  8
1
 66
1
 10
0.0000
 20
0.0000
 30
0.0000
 40
0.2032
 41
0.2032
 70
0
  0
VERTEX
  8
1
 10
39.6000
 20
168.1984
 30
0.0000
 42
1.0000
  0
VERTEX
  8
1
 10
39.6000
 20
168.4016
 30
0.0000
  0
SEQEND
  8
0
  0
POLYLINE
  8
1
 66
1
 10
0.0000
 20
0.0000
 30
0.0000
 40
0.4064
 41
0.4064
 70
0
  0
VERTEX
  8
1
 10
37.6000
 20
168.3000
 30
0.0000
  0
VERTEX
  8
1
 10
34.6000
 20
165.3000
 30
0.0000
  0
SEQEND
  8
0
  0
POLYLINE
  8
1
 66
1
 10
0.0000
 20
0.0000
 30
0.0000
 40
0.2032
 41
0.2032
 70
0
  0
VERTEX
  8
1
 10
34.5282
 20
165.3718
 30
0.0000
 42
1.0000
  0
VERTEX
  8
1
 10
34.6718
 20
165.2282
 30
0.0000
  0
SEQEND
  8
0
  0
POLYLINE
  8
1
 66
1
 10
0.0000
 20
0.0000
 30
0.0000
 40
0.2032
 41
0.2032
 70
0
  0
VERTEX
  8
1
 10
37.6718
 20
168.2282
 30
0.0000
 42
1.0000
  0
VERTEX
  8
1
 10
37.5282
 20
168.3718
 30
0.0000
  0
SEQEND
  8
0
  0
POLYLINE
  8
1
 66
1
 10
0.0000
 20
0.0000
 30
0.0000
 40
0.4064
 41
0.4064
 70
0
  0
VERTEX
  8
1
 10
34.6000
 20
165.3000
 30
0.0000
  0
VERTEX
  8
1
 10
34.6000
 20
155.7000
 30
0.0000
  0
SEQEND
  8
0
  0
POLYLINE
  8
1
 66
1
 10
0.0000
 20
0.0000
 30
0.0000
 40
0.2032
 41
0.2032
 70
0
  0
VERTEX
  8
1
 10
34.4984
 20
155.7000
 30
0.0000
 42
1.0000
  0
VERTEX
  8
1
 10
34.7016
 20
155.7000
 30
0.0000
  0
SEQEND
  8
0
  0
POLYLINE
  8
1
 66
1
 10
0.0000
 20
0.0000
 30
0.0000
 40
0.2032
 41
0.2032
 70
0
  0
VERTEX
  8
1
 10
34.7016
 20
165.3000
 30
0.0000
 42
1.0000
  0
VERTEX
  8
1
 10
34.4984
 20
165.3000
 30
0.0000
  0
SEQEND
  8
0
  0
POLYLINE
  8
1
 66
1
 10
0.0000
 20
0.0000
 30
0.0000
 40
0.4064
 41
0.4064
 70
0
  0
VERTEX
  8
1
 10
34.6000
 20
155.7000
 30
0.0000
  0
VERTEX
  8
1
 10
34.6000
 20
155.6000
 30
0.0000
  0
SEQEND
  8
0
  0
POLYLINE
  8
1
 66
1
 10
0.0000
 20
0.0000
 30
0.0000
 40
0.2032
 41
0.2032
 70
0
  0
VERTEX
  8
1
 10
34.4984
 20
155.6000
 30
0.0000
 42
1.0000
  0
VERTEX
  8
1
 10
34.7016
 20
155.6000
 30
0.0000
  0
SEQEND
  8
0
  0
POLYLINE
  8
1
 66
1
 10
0.0000
 20
0.0000
 30
0.0000
 40
0.2032
 41
0.2032
 70
0
  0
VERTEX
  8
1
 10
34.7016
 20
155.7000
 30
0.0000
 42
1.0000
  0
VERTEX
  8
1
 10
34.4984
 20
155.7000
 30
0.0000
  0
SEQEND
  8
0
  0
POLYLINE
  8
1
 66
1
 10
0.0000
 20
0.0000
 30
0.0000
 40
0.4064
 41
0.4064
 70
0
  0
VERTEX
  8
1
 10
34.6000
 20
155.7000
 30
0.0000
  0
VERTEX
  8
1
 10
38.3000
 20
152.0000
 30
0.0000
  0
SEQEND
  8
0
  0
POLYLINE
  8
1
 66
1
 10
0.0000
 20
0.0000
 30
0.0000
 40
0.2032
 41
0.2032
 70
0
  0
VERTEX
  8
1
 10
38.2282
 20
151.9282
 30
0.0000
 42
1.0000
  0
VERTEX
  8
1
 10
38.3718
 20
152.0718
 30
0.0000
  0
SEQEND
  8
0
  0
POLYLINE
  8
1
 66
1
 10
0.0000
 20
0.0000
 30
0.0000
 40
0.2032
 41
0.2032
 70
0
  0
VERTEX
  8
1
 10
34.6718
 20
155.7718
 30
0.0000
 42
1.0000
  0
VERTEX
  8
1
 10
34.5282
 20
155.6282
 30
0.0000
  0
SEQEND
  8
0
  0
POLYLINE
  8
1
 66
1
 10
0.0000
 20
0.0000
 30
0.0000
 40
0.4064
 41
0.4064
 70
0
  0
VERTEX
  8
1
 10
38.3000
 20
152.0000
 30
0.0000
  0
VERTEX
  8
1
 10
38.3000
 20
149.9000
 30
0.0000
  0
SEQEND
  8
0
  0
POLYLINE
  8
1
 66
1
 10
0.0000
 20
0.0000
 30
0.0000
 40
0.2032
 41
0.2032
 70
0
  0
VERTEX
  8
1
 10
38.1984
 20
149.9000
 30
0.0000
 42
1.0000
  0
VERTEX
  8
1
 10
38.4016
 20
149.9000
 30
0.0000
  0
SEQEND
  8
0
  0
POLYLINE
  8
1
 66
1
 10
0.0000
 20
0.0000
 30
0.0000
 40
0.2032
 41
0.2032
 70
0
  0
VERTEX
  8
1
 10
38.4016
 20
152.0000
 30
0.0000
 42
1.0000
  0
VERTEX
  8
1
 10
38.1984
 20
152.0000
 30
0.0000
  0
SEQEND
  8
0
  0
POLYLINE
  8
1
 66
1
 10
0.0000
 20
0.0000
 30
0.0000
 40
0.4064
 41
0.4064
 70
0
  0
VERTEX
  8
1
 10
38.3000
 20
149.9000
 30
0.0000
  0
VERTEX
  8
1
 10
36.5000
 20
148.1000
 30
0.0000
  0
SEQEND
  8
0
  0
POLYLINE
  8
1
 66
1
 10
0.0000
 20
0.0000
 30
0.0000
 40
0.2032
 41
0.2032
 70
0
  0
VERTEX
  8
1
 10
36.4282
 20
148.1718
 30
0.0000
 42
1.0000
  0
VERTEX
  8
1
 10
36.5718
 20
148.0282
 30
0.0000
  0
SEQEND
  8
0
  0
POLYLINE
  8
1
 66
1
 10
0.0000
 20
0.0000
 30
0.0000
 40
0.2032
 41
0.2032
 70
0
  0
VERTEX
  8
1
 10
38.3718
 20
149.8282
 30
0.0000
 42
1.0000
  0
VERTEX
  8
1
 10
38.2282
 20
149.9718
 30
0.0000
  0
SEQEND
  8
0
  0
POLYLINE
  8
1
 66
1
 10
0.0000
 20
0.0000
 30
0.0000
 40
0.4064
 41
0.4064
 70
0
  0
VERTEX
  8
1
 10
36.5000
 20
148.1000
 30
0.0000
  0
VERTEX
  8
1
 10
33.5000
 20
148.1000
 30
0.0000
  0
SEQEND
  8
0
  0
POLYLINE
  8
1
 66
1
 10
0.0000
 20
0.0000
 30
0.0000
 40
0.2032
 41
0.2032
 70
0
  0
VERTEX
  8
1
 10
33.5000
 20
148.2016
 30
0.0000
 42
1.0000
  0
VERTEX
  8
1
 10
33.5000
 20
147.9984
 30
0.0000
  0
SEQEND
  8
0
  0
POLYLINE
  8
1
 66
1
 10
0.0000
 20
0.0000
 30
0.0000
 40
0.2032
 41
0.2032
 70
0
  0
VERTEX
  8
1
 10
36.5000
 20
147.9984
 30
0.0000
 42
1.0000
  0
VERTEX
  8
1
 10
36.5000
 20
148.2016
 30
0.0000
  0
SEQEND
  8
0
  0
POLYLINE
  8
1
 66
1
 10
0.0000
 20
0.0000
 30
0.0000
 40
0.4064
 41
0.4064
 70
0
  0
VERTEX
  8
1
 10
33.5000
 20
148.1000
 30
0.0000
  0
VERTEX
  8
1
 10
30.2000
 20
151.4000
 30
0.0000
  0
SEQEND
  8
0
  0
POLYLINE
  8
1
 66
1
 10
0.0000
 20
0.0000
 30
0.0000
 40
0.2032
 41
0.2032
 70
0
  0
VERTEX
  8
1
 10
30.2718
 20
151.4718
 30
0.0000
 42
1.0000
  0
VERTEX
  8
1
 10
30.1282
 20
151.3282
 30
0.0000
  0
SEQEND
  8
0
  0
POLYLINE
  8
1
 66
1
 10
0.0000
 20
0.0000
 30
0.0000
 40
0.2032
 41
0.2032
 70
0
  0
VERTEX
  8
1
 10
33.4282
 20
148.0282
 30
0.0000
 42
1.0000
  0
VERTEX
  8
1
 10
33.5718
 20
148.1718
 30
0.0000
  0
SEQEND
  8
0
  0
POLYLINE
  8
1
 66
1
 10
0.0000
 20
0.0000
 30
0.0000
 40
0.4064
 41
0.4064
 70
0
  0
VERTEX
  8
1
 10
30.2000
 20
151.4000
 30
0.0000
  0
VERTEX
  8
1
 10
30.2000
 20
158.1000
 30
0.0000
  0
SEQEND
  8
0
  0
POLYLINE
  8
1
 66
1
 10
0.0000
 20
0.0000
 30
0.0000
 40
0.2032
 41
0.2032
 70
0
  0
VERTEX
  8
1
 10
30.3016
 20
158.1000
 30
0.0000
 42
1.0000
  0
VERTEX
  8
1
 10
30.0984
 20
158.1000
 30
0.0000
  0
SEQEND
  8
0
  0
POLYLINE
  8
1
 66
1
 10
0.0000
 20
0.0000
 30
0.0000
 40
0.2032
 41
0.2032
 70
0
  0
VERTEX
  8
1
 10
30.0984
 20
151.4000
 30
0.0000
 42
1.0000
  0
VERTEX
  8
1
 10
30.3016
 20
151.4000
 30
0.0000
  0
SEQEND
  8
0
  0
POLYLINE
  8
1
 66
1
 10
0.0000
 20
0.0000
 30
0.0000
 40
0.4064
 41
0.4064
 70
0
  0
VERTEX
  8
1
 10
30.2000
 20
158.1000
 30
0.0000
  0
VERTEX
  8
1
 10
29.1000
 20
159.2000
 30
0.0000
  0
SEQEND
  8
0
  0
POLYLINE
  8
1
 66
1
 10
0.0000
 20
0.0000
 30
0.0000
 40
0.2032
 41
0.2032
 70
0
  0
VERTEX
  8
1
 10
29.1718
 20
159.2718
 30
0.0000
 42
1.0000
  0
VERTEX
  8
1
 10
29.0282
 20
159.1282
 30
0.0000
  0
SEQEND
  8
0
  0
POLYLINE
  8
1
 66
1
 10
0.0000
 20
0.0000
 30
0.0000
 40
0.2032
 41
0.2032
 70
0
  0
VERTEX
  8
1
 10
30.1282
 20
158.0282
 30
0.0000
 42
1.0000
  0
VERTEX
  8
1
 10
30.2718
 20
158.1718
 30
0.0000
  0
SEQEND
  8
0
  0
POLYLINE
  8
1
 66
1
 10
0.0000
 20
0.0000
 30
0.0000
 40
0.4064
 41
0.4064
 70
0
  0
VERTEX
  8
1
 10
29.1000
 20
159.2000
 30
0.0000
  0
VERTEX
  8
1
 10
26.1000
 20
159.2000
 30
0.0000
  0
SEQEND
  8
0
  0
POLYLINE
  8
1
 66
1
 10
0.0000
 20
0.0000
 30
0.0000
 40
0.2032
 41
0.2032
 70
0
  0
VERTEX
  8
1
 10
26.1000
 20
159.3016
 30
0.0000
 42
1.0000
  0
VERTEX
  8
1
 10
26.1000
 20
159.0984
 30
0.0000
  0
SEQEND
  8
0
  0
POLYLINE
  8
1
 66
1
 10
0.0000
 20
0.0000
 30
0.0000
 40
0.2032
 41
0.2032
 70
0
  0
VERTEX
  8
1
 10
29.1000
 20
159.0984
 30
0.0000
 42
1.0000
  0
VERTEX
  8
1
 10
29.1000
 20
159.3016
 30
0.0000
  0
SEQEND
  8
0
  0
POLYLINE
  8
1
 66
1
 10
0.0000
 20
0.0000
 30
0.0000
 40
0.4064
 41
0.4064
 70
0
  0
VERTEX
  8
1
 10
26.1000
 20
159.2000
 30
0.0000
  0
VERTEX
  8
1
 10
25.2000
 20
158.3000
 30
0.0000
  0
SEQEND
  8
0
  0
POLYLINE
  8
1
 66
1
 10
0.0000
 20
0.0000
 30
0.0000
 40
0.2032
 41
0.2032
 70
0
  0
VERTEX
  8
1
 10
25.1282
 20
158.3718
 30
0.0000
 42
1.0000
  0
VERTEX
  8
1
 10
25.2718
 20
158.2282
 30
0.0000
  0
SEQEND
  8
0
  0
POLYLINE
  8
1
 66
1
 10
0.0000
 20
0.0000
 30
0.0000
 40
0.2032
 41
0.2032
 70
0
  0
VERTEX
  8
1
 10
26.1718
 20
159.1282
 30
0.0000
 42
1.0000
  0
VERTEX
  8
1
 10
26.0282
 20
159.2718
 30
0.0000
  0
SEQEND
  8
0
  0
POLYLINE
  8
1
 66
1
 10
0.0000
 20
0.0000
 30
0.0000
 40
0.4064
 41
0.4064
 70
0
  0
VERTEX
  8
1
 10
25.2000
 20
158.3000
 30
0.0000
  0
VERTEX
  8
1
 10
25.2000
 20
153.6000
 30
0.0000
  0
SEQEND
  8
0
  0
POLYLINE
  8
1
 66
1
 10
0.0000
 20
0.0000
 30
0.0000
 40
0.2032
 41
0.2032
 70
0
  0
VERTEX
  8
1
 10
25.0984
 20
153.6000
 30
0.0000
 42
1.0000
  0
VERTEX
  8
1
 10
25.3016
 20
153.6000
 30
0.0000
  0
SEQEND
  8
0
  0
POLYLINE
  8
1
 66
1
 10
0.0000
 20
0.0000
 30
0.0000
 40
0.2032
 41
0.2032
 70
0
  0
VERTEX
  8
1
 10
25.3016
 20
158.3000
 30
0.0000
 42
1.0000
  0
VERTEX
  8
1
 10
25.0984
 20
158.3000
 30
0.0000
  0
SEQEND
  8
0
  0
POLYLINE
  8
1
 66
1
 10
0.0000
 20
0.0000
 30
0.0000
 40
0.4064
 41
0.4064
 70
0
  0
VERTEX
  8
1
 10
24.6000
 20
153.0000
 30
0.0000
  0
VERTEX
  8
1
 10
23.5000
 20
153.0000
 30
0.0000
  0
SEQEND
  8
0
  0
POLYLINE
  8
1
 66
1
 10
0.0000
 20
0.0000
 30
0.0000
 40
0.2032
 41
0.2032
 70
0
  0
VERTEX
  8
1
 10
23.5000
 20
153.1016
 30
0.0000
 42
1.0000
  0
VERTEX
  8
1
 10
23.5000
 20
152.8984
 30
0.0000
  0
SEQEND
  8
0
  0
POLYLINE
  8
1
 66
1
 10
0.0000
 20
0.0000
 30
0.0000
 40
0.2032
 41
0.2032
 70
0
  0
VERTEX
  8
1
 10
24.6000
 20
152.8984
 30
0.0000
 42
1.0000
  0
VERTEX
  8
1
 10
24.6000
 20
153.1016
 30
0.0000
  0
SEQEND
  8
0
  0
POLYLINE
  8
1
 66
1
 10
0.0000
 20
0.0000
 30
0.0000
 40
0.4064
 41
0.4064
 70
0
  0
VERTEX
  8
1
 10
23.5000
 20
153.0000
 30
0.0000
  0
VERTEX
  8
1
 10
19.3500
 20
157.1500
 30
0.0000
  0
SEQEND
  8
0
  0
POLYLINE
  8
1
 66
1
 10
0.0000
 20
0.0000
 30
0.0000
 40
0.2032
 41
0.2032
 70
0
  0
VERTEX
  8
1
 10
19.4218
 20
157.2218
 30
0.0000
 42
1.0000
  0
VERTEX
  8
1
 10
19.2782
 20
157.0782
 30
0.0000
  0
SEQEND
  8
0
  0
POLYLINE
  8
1
 66
1
 10
0.0000
 20
0.0000
 30
0.0000
 40
0.2032
 41
0.2032
 70
0
  0
VERTEX
  8
1
 10
23.4282
 20
152.9282
 30
0.0000
 42
1.0000
  0
VERTEX
  8
1
 10
23.5718
 20
153.0718
 30
0.0000
  0
SEQEND
  8
0
  0
POLYLINE
  8
1
 66
1
 10
0.0000
 20
0.0000
 30
0.0000
 40
0.4064
 41
0.4064
 70
0
  0
VERTEX
  8
1
 10
19.3500
 20
157.1500
 30
0.0000
  0
VERTEX
  8
1
 10
19.3500
 20
167.0300
 30
0.0000
  0
SEQEND
  8
0
  0
POLYLINE
  8
1
 66
1
 10
0.0000
 20
0.0000
 30
0.0000
 40
0.2032
 41
0.2032
 70
0
  0
VERTEX
  8
1
 10
19.4516
 20
167.0300
 30
0.0000
 42
1.0000
  0
VERTEX
  8
1
 10
19.2484
 20
167.0300
 30
0.0000
  0
SEQEND
  8
0
  0
POLYLINE
  8
1
 66
1
 10
0.0000
 20
0.0000
 30
0.0000
 40
0.2032
 41
0.2032
 70
0
  0
VERTEX
  8
1
 10
19.2484
 20
157.1500
 30
0.0000
 42
1.0000
  0
VERTEX
  8
1
 10
19.4516
 20
157.1500
 30
0.0000
  0
SEQEND
  8
0
  0
POLYLINE
  8
1
 66
1
 10
0.0000
 20
0.0000
 30
0.0000
 40
0.4064
 41
0.4064
 70
0
  0
VERTEX
  8
1
 10
25.2000
 20
153.6000
 30
0.0000
  0
VERTEX
  8
1
 10
24.6000
 20
153.0000
 30
0.0000
  0
SEQEND
  8
0
  0
POLYLINE
  8
1
 66
1
 10
0.0000
 20
0.0000
 30
0.0000
 40
0.2032
 41
0.2032
 70
0
  0
VERTEX
  8
1
 10
24.5282
 20
153.0718
 30
0.0000
 42
1.0000
  0
VERTEX
  8
1
 10
24.6718
 20
152.9282
 30
0.0000
  0
SEQEND
  8
0
  0
POLYLINE
  8
1
 66
1
 10
0.0000
 20
0.0000
 30
0.0000
 40
0.2032
 41
0.2032
 70
0
  0
VERTEX
  8
1
 10
25.2718
 20
153.5282
 30
0.0000
 42
1.0000
  0
VERTEX
  8
1
 10
25.1282
 20
153.6718
 30
0.0000
  0
SEQEND
  8
0
  0
POLYLINE
  8
1
 66
1
 10
0.0000
 20
0.0000
 30
0.0000
 40
0.4064
 41
0.4064
 70
0
  0
VERTEX
  8
1
 10
297.0000
 20
200.0000
 30
0.0000
  0
VERTEX
  8
1
 10
43.0000
 20
200.0000
 30
0.0000
  0
SEQEND
  8
0
  0
POLYLINE
  8
1
 66
1
 10
0.0000
 20
0.0000
 30
0.0000
 40
0.2032
 41
0.2032
 70
0
  0
VERTEX
  8
1
 10
43.0000
 20
200.1016
 30
0.0000
 42
1.0000
  0
VERTEX
  8
1
 10
43.0000
 20
199.8984
 30
0.0000
  0
SEQEND
  8
0
  0
POLYLINE
  8
1
 66
1
 10
0.0000
 20
0.0000
 30
0.0000
 40
0.2032
 41
0.2032
 70
0
  0
VERTEX
  8
1
 10
297.0000
 20
199.8984
 30
0.0000
 42
1.0000
  0
VERTEX
  8
1
 10
297.0000
 20
200.1016
 30
0.0000
  0
SEQEND
  8
0
  0
POLYLINE
  8
1
 66
1
 10
0.0000
 20
0.0000
 30
0.0000
 40
0.4064
 41
0.4064
 70
0
  0
VERTEX
  8
1
 10
43.0000
 20
200.0000
 30
0.0000
  0
VERTEX
  8
1
 10
43.0000
 20
172.0000
 30
0.0000
  0
SEQEND
  8
0
  0
POLYLINE
  8
1
 66
1
 10
0.0000
 20
0.0000
 30
0.0000
 40
0.2032
 41
0.2032
 70
0
  0
VERTEX
  8
1
 10
42.8984
 20
172.0000
 30
0.0000
 42
1.0000
  0
VERTEX
  8
1
 10
43.1016
 20
172.0000
 30
0.0000
  0
SEQEND
  8
0
  0
POLYLINE
  8
1
 66
1
 10
0.0000
 20
0.0000
 30
0.0000
 40
0.2032
 41
0.2032
 70
0
  0
VERTEX
  8
1
 10
43.1016
 20
200.0000
 30
0.0000
 42
1.0000
  0
VERTEX
  8
1
 10
42.8984
 20
200.0000
 30
0.0000
  0
SEQEND
  8
0
  0
POLYLINE
  8
1
 66
1
 10
0.0000
 20
0.0000
 30
0.0000
 40
0.4064
 41
0.4064
 70
0
  0
VERTEX
  8
1
 10
43.0000
 20
172.0000
 30
0.0000
  0
VERTEX
  8
1
 10
0.0000
 20
172.0000
 30
0.0000
  0
SEQEND
  8
0
  0
POLYLINE
  8
1
 66
1
 10
0.0000
 20
0.0000
 30
0.0000
 40
0.2032
 41
0.2032
 70
0
  0
VERTEX
  8
1
 10
0.0000
 20
172.1016
 30
0.0000
 42
1.0000
  0
VERTEX
  8
1
 10
0.0000
 20
171.8984
 30
0.0000
  0
SEQEND
  8
0
  0
POLYLINE
  8
1
 66
1
 10
0.0000
 20
0.0000
 30
0.0000
 40
0.2032
 41
0.2032
 70
0
  0
VERTEX
  8
1
 10
43.0000
 20
171.8984
 30
0.0000
 42
1.0000
  0
VERTEX
  8
1
 10
43.0000
 20
172.1016
 30
0.0000
  0
SEQEND
  8
0
  0
POLYLINE
  8
1
 66
1
 10
0.0000
 20
0.0000
 30
0.0000
 40
0.4064
 41
0.4064
 70
0
  0
VERTEX
  8
1
 10
0.0000
 20
172.0000
 30
0.0000
  0
VERTEX
  8
1
 10
0.0000
 20
0.0000
 30
0.0000
  0
SEQEND
  8
0
  0
POLYLINE
  8
1
 66
1
 10
0.0000
 20
0.0000
 30
0.0000
 40
0.2032
 41
0.2032
 70
0
  0
VERTEX
  8
1
 10
-0.1016
 20
0.0000
 30
0.0000
 42
1.0000
  0
VERTEX
  8
1
 10
0.1016
 20
0.0000
 30
0.0000
  0
SEQEND
  8
0
  0
POLYLINE
  8
1
 66
1
 10
0.0000
 20
0.0000
 30
0.0000
 40
0.2032
 41
0.2032
 70
0
  0
VERTEX
  8
1
 10
0.1016
 20
172.0000
 30
0.0000
 42
1.0000
  0
VERTEX
  8
1
 10
-0.1016
 20
172.0000
 30
0.0000
  0
SEQEND
  8
0
  0
POLYLINE
  8
1
 66
1
 10
0.0000
 20
0.0000
 30
0.0000
 40
0.4064
 41
0.4064
 70
0
  0
VERTEX
  8
1
 10
0.0000
 20
0.0000
 30
0.0000
  0
VERTEX
  8
1
 10
297.0000
 20
0.0000
 30
0.0000
  0
SEQEND
  8
0
  0
POLYLINE
  8
1
 66
1
 10
0.0000
 20
0.0000
 30
0.0000
 40
0.2032
 41
0.2032
 70
0
  0
VERTEX
  8
1
 10
297.0000
 20
-0.1016
 30
0.0000
 42
1.0000
  0
VERTEX
  8
1
 10
297.0000
 20
0.1016
 30
0.0000
  0
SEQEND
  8
0
  0
POLYLINE
  8
1
 66
1
 10
0.0000
 20
0.0000
 30
0.0000
 40
0.2032
 41
0.2032
 70
0
  0
VERTEX
  8
1
 10
0.0000
 20
0.1016
 30
0.0000
 42
1.0000
  0
VERTEX
  8
1
 10
0.0000
 20
-0.1016
 30
0.0000
  0
SEQEND
  8
0
  0
POLYLINE
  8
1
 66
1
 10
0.0000
 20
0.0000
 30
0.0000
 40
0.4064
 41
0.4064
 70
0
  0
VERTEX
  8
1
 10
297.0000
 20
0.0000
 30
0.0000
  0
VERTEX
  8
1
 10
297.0000
 20
200.0000
 30
0.0000
  0
SEQEND
  8
0
  0
POLYLINE
  8
1
 66
1
 10
0.0000
 20
0.0000
 30
0.0000
 40
0.2032
 41
0.2032
 70
0
  0
VERTEX
  8
1
 10
297.1016
 20
200.0000
 30
0.0000
 42
1.0000
  0
VERTEX
  8
1
 10
296.8984
 20
200.0000
 30
0.0000
  0
SEQEND
  8
0
  0
POLYLINE
  8
1
 66
1
 10
0.0000
 20
0.0000
 30
0.0000
 40
0.2032
 41
0.2032
 70
0
  0
VERTEX
  8
1
 10
296.8984
 20
0.0000
 30
0.0000
 42
1.0000
  0
VERTEX
  8
1
 10
297.1016
 20
0.0000
 30
0.0000
  0
SEQEND
  8
0
  0
ENDSEC
  0
EOF
