G75*
%MOIN*%
%OFA0B0*%
%FSLAX25Y25*%
%IPPOS*%
%LPD*%
%AMOC8*
5,1,8,0,0,1.08239X$1,22.5*
%
%ADD10C,0.06693*%
%ADD11C,0.06000*%
%ADD12OC8,0.06000*%
%ADD13C,0.01969*%
%ADD14C,0.03937*%
%ADD15C,0.01200*%
%ADD16C,0.01102*%
%ADD17C,0.18898*%
D10*
X0157654Y0270173D03*
X0187654Y0270173D03*
D11*
X0206937Y0188835D02*
X0212937Y0188835D01*
X0212937Y0178835D02*
X0206937Y0178835D01*
X0206937Y0168835D02*
X0212937Y0168835D01*
X0212937Y0158835D02*
X0206937Y0158835D01*
X0106691Y0118691D02*
X0100691Y0118691D01*
X0100691Y0108691D02*
X0106691Y0108691D01*
X0106691Y0098691D02*
X0100691Y0098691D01*
X0100691Y0088691D02*
X0106691Y0088691D01*
X0106691Y0078691D02*
X0100691Y0078691D01*
X0100691Y0068691D02*
X0106691Y0068691D01*
D12*
X0109071Y0051748D03*
X0099071Y0051748D03*
X0099071Y0041748D03*
X0109071Y0041748D03*
X0119071Y0041748D03*
X0129071Y0041748D03*
X0139071Y0041748D03*
X0149071Y0041748D03*
X0159071Y0041748D03*
X0169071Y0041748D03*
X0179071Y0041748D03*
X0189071Y0041748D03*
X0199071Y0041748D03*
X0209071Y0041748D03*
X0219071Y0041748D03*
X0229071Y0041748D03*
X0239071Y0041748D03*
X0249071Y0041748D03*
X0259071Y0041748D03*
X0259071Y0051748D03*
X0249071Y0051748D03*
X0239071Y0051748D03*
X0229071Y0051748D03*
X0219071Y0051748D03*
X0209071Y0051748D03*
X0199071Y0051748D03*
X0189071Y0051748D03*
X0179071Y0051748D03*
X0169071Y0051748D03*
X0159071Y0051748D03*
X0149071Y0051748D03*
X0139071Y0051748D03*
X0129071Y0051748D03*
X0119071Y0051748D03*
X0089071Y0051748D03*
X0089071Y0041748D03*
X0079071Y0041748D03*
X0079071Y0051748D03*
X0069071Y0051748D03*
X0069071Y0041748D03*
D13*
X0017732Y0025213D02*
X0017732Y0289386D01*
X0338205Y0289386D01*
X0338205Y0025213D01*
X0017732Y0025213D01*
X0017732Y0027178D02*
X0338205Y0027178D01*
X0338205Y0029145D02*
X0330598Y0029145D01*
X0331556Y0029698D02*
X0333719Y0031861D01*
X0335248Y0034509D01*
X0336039Y0037463D01*
X0336039Y0040521D01*
X0335248Y0043475D01*
X0333719Y0046123D01*
X0331556Y0048286D01*
X0328908Y0049815D01*
X0325954Y0050606D01*
X0322896Y0050606D01*
X0319942Y0049815D01*
X0317294Y0048286D01*
X0315132Y0046123D01*
X0313603Y0043475D01*
X0312811Y0040521D01*
X0312811Y0037463D01*
X0313603Y0034509D01*
X0315132Y0031861D01*
X0317294Y0029698D01*
X0319942Y0028169D01*
X0322896Y0027378D01*
X0325954Y0027378D01*
X0328908Y0028169D01*
X0331556Y0029698D01*
X0332970Y0031112D02*
X0338205Y0031112D01*
X0338205Y0033079D02*
X0334422Y0033079D01*
X0335392Y0035046D02*
X0338205Y0035046D01*
X0338205Y0037013D02*
X0335919Y0037013D01*
X0336039Y0038980D02*
X0338205Y0038980D01*
X0338205Y0040947D02*
X0335925Y0040947D01*
X0335398Y0042914D02*
X0338205Y0042914D01*
X0338205Y0044881D02*
X0334436Y0044881D01*
X0332994Y0046848D02*
X0338205Y0046848D01*
X0338205Y0048815D02*
X0330639Y0048815D01*
X0338205Y0050782D02*
X0263843Y0050782D01*
X0263843Y0051732D02*
X0263843Y0049772D01*
X0261047Y0046976D01*
X0259087Y0046976D01*
X0259087Y0051732D01*
X0259087Y0051764D01*
X0263843Y0051764D01*
X0263843Y0053725D01*
X0261047Y0056520D01*
X0259087Y0056520D01*
X0259087Y0051764D01*
X0259055Y0051764D01*
X0259055Y0056520D01*
X0257094Y0056520D01*
X0254299Y0053725D01*
X0254299Y0051764D01*
X0259055Y0051764D01*
X0259055Y0051732D01*
X0259087Y0051732D01*
X0263843Y0051732D01*
X0263843Y0052749D02*
X0338205Y0052749D01*
X0338205Y0054716D02*
X0262851Y0054716D01*
X0259087Y0054716D02*
X0259055Y0054716D01*
X0259055Y0052749D02*
X0259087Y0052749D01*
X0259055Y0051732D02*
X0254299Y0051732D01*
X0254299Y0049772D01*
X0257094Y0046976D01*
X0259055Y0046976D01*
X0259055Y0051732D01*
X0259055Y0050782D02*
X0259087Y0050782D01*
X0259055Y0048815D02*
X0259087Y0048815D01*
X0261210Y0046913D02*
X0256931Y0046913D01*
X0254071Y0044053D01*
X0251376Y0046748D01*
X0254236Y0049608D01*
X0254236Y0053888D01*
X0251210Y0056913D01*
X0246931Y0056913D01*
X0244071Y0054053D01*
X0241210Y0056913D01*
X0236931Y0056913D01*
X0234071Y0054053D01*
X0231210Y0056913D01*
X0226931Y0056913D01*
X0224071Y0054053D01*
X0221210Y0056913D01*
X0216931Y0056913D01*
X0214071Y0054053D01*
X0211210Y0056913D01*
X0206931Y0056913D01*
X0204071Y0054053D01*
X0201210Y0056913D01*
X0196931Y0056913D01*
X0194071Y0054053D01*
X0191210Y0056913D01*
X0186931Y0056913D01*
X0184071Y0054053D01*
X0181210Y0056913D01*
X0176931Y0056913D01*
X0174071Y0054053D01*
X0171210Y0056913D01*
X0166931Y0056913D01*
X0164071Y0054053D01*
X0161210Y0056913D01*
X0157063Y0056913D01*
X0157063Y0068969D01*
X0165311Y0077217D01*
X0165724Y0078216D01*
X0165724Y0124875D01*
X0180665Y0139816D01*
X0181079Y0140814D01*
X0181079Y0186650D01*
X0181867Y0187438D01*
X0182496Y0188957D01*
X0182496Y0190602D01*
X0181867Y0192121D01*
X0180704Y0193284D01*
X0179184Y0193913D01*
X0177540Y0193913D01*
X0176021Y0193284D01*
X0174858Y0192121D01*
X0174780Y0191932D01*
X0174780Y0198461D01*
X0175567Y0199249D01*
X0176197Y0200768D01*
X0176197Y0202413D01*
X0175567Y0203932D01*
X0174405Y0205095D01*
X0172885Y0205724D01*
X0171241Y0205724D01*
X0169721Y0205095D01*
X0168558Y0203932D01*
X0167929Y0202413D01*
X0167929Y0200768D01*
X0168558Y0199249D01*
X0169346Y0198461D01*
X0169346Y0179881D01*
X0150750Y0161284D01*
X0150371Y0162200D01*
X0149208Y0163363D01*
X0147688Y0163992D01*
X0146044Y0163992D01*
X0144524Y0163363D01*
X0143737Y0162575D01*
X0140814Y0162575D01*
X0139816Y0162161D01*
X0132335Y0154681D01*
X0131571Y0153917D01*
X0131157Y0152918D01*
X0131157Y0096023D01*
X0125173Y0090039D01*
X0125173Y0093880D01*
X0125696Y0093663D01*
X0126419Y0093520D01*
X0126787Y0093520D01*
X0126787Y0097260D01*
X0126787Y0101000D01*
X0126419Y0101000D01*
X0125696Y0100856D01*
X0125173Y0100640D01*
X0125173Y0150859D01*
X0166863Y0192549D01*
X0166924Y0192574D01*
X0168087Y0193737D01*
X0168717Y0195256D01*
X0168717Y0196901D01*
X0168087Y0198420D01*
X0166924Y0199583D01*
X0165405Y0200213D01*
X0163760Y0200213D01*
X0162241Y0199583D01*
X0161078Y0198420D01*
X0160449Y0196901D01*
X0160449Y0195256D01*
X0160870Y0194239D01*
X0155488Y0188857D01*
X0155488Y0199284D01*
X0158621Y0202417D01*
X0159091Y0202417D01*
X0159879Y0201629D01*
X0161398Y0201000D01*
X0163043Y0201000D01*
X0164562Y0201629D01*
X0165725Y0202792D01*
X0166354Y0204312D01*
X0166354Y0205956D01*
X0165725Y0207475D01*
X0164562Y0208638D01*
X0163043Y0209268D01*
X0161398Y0209268D01*
X0159879Y0208638D01*
X0159091Y0207850D01*
X0156956Y0207850D01*
X0155957Y0207437D01*
X0154150Y0205629D01*
X0154150Y0206350D01*
X0153520Y0207869D01*
X0152357Y0209032D01*
X0150838Y0209661D01*
X0149193Y0209661D01*
X0147674Y0209032D01*
X0146511Y0207869D01*
X0145882Y0206350D01*
X0145882Y0204705D01*
X0146511Y0203186D01*
X0147299Y0202398D01*
X0147299Y0189330D01*
X0114642Y0156673D01*
X0114228Y0155674D01*
X0114228Y0098385D01*
X0112276Y0096433D01*
X0111347Y0096433D01*
X0111857Y0097664D01*
X0111857Y0099719D01*
X0111070Y0101617D01*
X0109617Y0103070D01*
X0108118Y0103691D01*
X0109617Y0104312D01*
X0111070Y0105765D01*
X0111857Y0107664D01*
X0111857Y0109719D01*
X0111070Y0111617D01*
X0109617Y0113070D01*
X0108118Y0113691D01*
X0109617Y0114312D01*
X0111070Y0115765D01*
X0111857Y0117664D01*
X0111857Y0119719D01*
X0111070Y0121617D01*
X0109617Y0123070D01*
X0107719Y0123857D01*
X0099664Y0123857D01*
X0097765Y0123070D01*
X0096312Y0121617D01*
X0095526Y0119719D01*
X0095526Y0117664D01*
X0096312Y0115765D01*
X0097765Y0114312D01*
X0099265Y0113691D01*
X0097765Y0113070D01*
X0096312Y0111617D01*
X0095526Y0109719D01*
X0095526Y0107664D01*
X0096312Y0105765D01*
X0097765Y0104312D01*
X0099265Y0103691D01*
X0097765Y0103070D01*
X0096312Y0101617D01*
X0095526Y0099719D01*
X0095526Y0097664D01*
X0096036Y0096433D01*
X0085696Y0096433D01*
X0084697Y0096019D01*
X0082335Y0093657D01*
X0081571Y0092893D01*
X0081157Y0091895D01*
X0081157Y0056913D01*
X0076931Y0056913D01*
X0074071Y0054053D01*
X0071210Y0056913D01*
X0066931Y0056913D01*
X0063906Y0053888D01*
X0063906Y0049608D01*
X0066766Y0046748D01*
X0063906Y0043888D01*
X0063906Y0039608D01*
X0066931Y0036583D01*
X0071210Y0036583D01*
X0074071Y0039443D01*
X0076931Y0036583D01*
X0081210Y0036583D01*
X0084071Y0039443D01*
X0086931Y0036583D01*
X0091210Y0036583D01*
X0094071Y0039443D01*
X0096931Y0036583D01*
X0101210Y0036583D01*
X0104071Y0039443D01*
X0106931Y0036583D01*
X0111210Y0036583D01*
X0114071Y0039443D01*
X0116931Y0036583D01*
X0121210Y0036583D01*
X0124071Y0039443D01*
X0126931Y0036583D01*
X0131210Y0036583D01*
X0134071Y0039443D01*
X0136931Y0036583D01*
X0141210Y0036583D01*
X0144071Y0039443D01*
X0146931Y0036583D01*
X0151210Y0036583D01*
X0154071Y0039443D01*
X0156931Y0036583D01*
X0161210Y0036583D01*
X0164071Y0039443D01*
X0166931Y0036583D01*
X0171210Y0036583D01*
X0174071Y0039443D01*
X0176931Y0036583D01*
X0181210Y0036583D01*
X0184071Y0039443D01*
X0186931Y0036583D01*
X0191210Y0036583D01*
X0194071Y0039443D01*
X0196931Y0036583D01*
X0201210Y0036583D01*
X0204071Y0039443D01*
X0206931Y0036583D01*
X0211210Y0036583D01*
X0214071Y0039443D01*
X0216931Y0036583D01*
X0221210Y0036583D01*
X0224071Y0039443D01*
X0226931Y0036583D01*
X0231210Y0036583D01*
X0234071Y0039443D01*
X0236931Y0036583D01*
X0241210Y0036583D01*
X0244071Y0039443D01*
X0246931Y0036583D01*
X0251210Y0036583D01*
X0254071Y0039443D01*
X0256931Y0036583D01*
X0261210Y0036583D01*
X0264236Y0039608D01*
X0264236Y0043888D01*
X0261210Y0046913D01*
X0261276Y0046848D02*
X0315856Y0046848D01*
X0314414Y0044881D02*
X0263243Y0044881D01*
X0264236Y0042914D02*
X0313452Y0042914D01*
X0312925Y0040947D02*
X0264236Y0040947D01*
X0263608Y0038980D02*
X0312811Y0038980D01*
X0312932Y0037013D02*
X0261641Y0037013D01*
X0256501Y0037013D02*
X0251641Y0037013D01*
X0253608Y0038980D02*
X0254534Y0038980D01*
X0254899Y0044881D02*
X0253243Y0044881D01*
X0251476Y0046848D02*
X0256866Y0046848D01*
X0255255Y0048815D02*
X0253443Y0048815D01*
X0254236Y0050782D02*
X0254299Y0050782D01*
X0254299Y0052749D02*
X0254236Y0052749D01*
X0253407Y0054716D02*
X0255291Y0054716D01*
X0251440Y0056683D02*
X0338205Y0056683D01*
X0338205Y0058650D02*
X0157063Y0058650D01*
X0157063Y0060617D02*
X0338205Y0060617D01*
X0338205Y0062584D02*
X0157063Y0062584D01*
X0157063Y0064551D02*
X0338205Y0064551D01*
X0338205Y0066518D02*
X0157063Y0066518D01*
X0157063Y0068485D02*
X0338205Y0068485D01*
X0338205Y0070452D02*
X0158546Y0070452D01*
X0160513Y0072419D02*
X0338205Y0072419D01*
X0338205Y0074386D02*
X0162480Y0074386D01*
X0164447Y0076354D02*
X0338205Y0076354D01*
X0338205Y0078321D02*
X0165724Y0078321D01*
X0165724Y0080288D02*
X0338205Y0080288D01*
X0338205Y0082255D02*
X0165724Y0082255D01*
X0165724Y0084222D02*
X0338205Y0084222D01*
X0338205Y0086189D02*
X0165724Y0086189D01*
X0165724Y0088156D02*
X0338205Y0088156D01*
X0338205Y0090123D02*
X0165724Y0090123D01*
X0165724Y0092090D02*
X0338205Y0092090D01*
X0338205Y0094057D02*
X0165724Y0094057D01*
X0165724Y0096024D02*
X0338205Y0096024D01*
X0338205Y0097991D02*
X0165724Y0097991D01*
X0165724Y0099958D02*
X0338205Y0099958D01*
X0338205Y0101925D02*
X0165724Y0101925D01*
X0165724Y0103892D02*
X0338205Y0103892D01*
X0338205Y0105859D02*
X0165724Y0105859D01*
X0165724Y0107826D02*
X0338205Y0107826D01*
X0338205Y0109793D02*
X0165724Y0109793D01*
X0165724Y0111760D02*
X0338205Y0111760D01*
X0338205Y0113727D02*
X0165724Y0113727D01*
X0165724Y0115694D02*
X0338205Y0115694D01*
X0338205Y0117661D02*
X0165724Y0117661D01*
X0165724Y0119628D02*
X0175666Y0119628D01*
X0175803Y0119536D02*
X0176484Y0119254D01*
X0177206Y0119110D01*
X0177575Y0119110D01*
X0177943Y0119110D01*
X0178666Y0119254D01*
X0179346Y0119536D01*
X0179959Y0119945D01*
X0180480Y0120466D01*
X0180889Y0121079D01*
X0181171Y0121759D01*
X0181315Y0122482D01*
X0181315Y0122850D01*
X0177575Y0122850D01*
X0177575Y0119110D01*
X0177575Y0122850D01*
X0177575Y0122850D01*
X0177575Y0122850D01*
X0181315Y0122850D01*
X0181315Y0123219D01*
X0181171Y0123941D01*
X0180889Y0124622D01*
X0180480Y0125235D01*
X0179959Y0125756D01*
X0179346Y0126165D01*
X0178666Y0126447D01*
X0177943Y0126591D01*
X0177575Y0126591D01*
X0177575Y0122851D01*
X0177575Y0122851D01*
X0177575Y0126591D01*
X0177206Y0126591D01*
X0176484Y0126447D01*
X0175803Y0126165D01*
X0175191Y0125756D01*
X0174670Y0125235D01*
X0174260Y0124622D01*
X0173978Y0123941D01*
X0173835Y0123219D01*
X0173835Y0122850D01*
X0173835Y0122482D01*
X0173978Y0121759D01*
X0174260Y0121079D01*
X0174670Y0120466D01*
X0175191Y0119945D01*
X0175803Y0119536D01*
X0177575Y0119628D02*
X0177575Y0119628D01*
X0179484Y0119628D02*
X0338205Y0119628D01*
X0338205Y0121595D02*
X0181103Y0121595D01*
X0181247Y0123562D02*
X0338205Y0123562D01*
X0338205Y0125529D02*
X0180186Y0125529D01*
X0177575Y0125529D02*
X0177575Y0125529D01*
X0177575Y0123562D02*
X0177575Y0123562D01*
X0177575Y0122850D02*
X0177575Y0122850D01*
X0173835Y0122850D01*
X0177575Y0122850D01*
X0177575Y0121595D02*
X0177575Y0121595D01*
X0174047Y0121595D02*
X0165724Y0121595D01*
X0165724Y0123562D02*
X0173903Y0123562D01*
X0174964Y0125529D02*
X0166379Y0125529D01*
X0168346Y0127496D02*
X0338205Y0127496D01*
X0338205Y0129463D02*
X0170313Y0129463D01*
X0172280Y0131430D02*
X0338205Y0131430D01*
X0338205Y0133397D02*
X0174247Y0133397D01*
X0176214Y0135364D02*
X0338205Y0135364D01*
X0338205Y0137331D02*
X0178181Y0137331D01*
X0180148Y0139298D02*
X0338205Y0139298D01*
X0338205Y0141265D02*
X0181079Y0141265D01*
X0181079Y0143232D02*
X0338205Y0143232D01*
X0338205Y0145199D02*
X0181079Y0145199D01*
X0181079Y0147166D02*
X0234562Y0147166D01*
X0234358Y0147207D02*
X0235080Y0147063D01*
X0235449Y0147063D01*
X0235817Y0147063D01*
X0236540Y0147207D01*
X0237220Y0147489D01*
X0237833Y0147898D01*
X0238354Y0148419D01*
X0238763Y0149032D01*
X0239045Y0149712D01*
X0239189Y0150435D01*
X0239189Y0150803D01*
X0235449Y0150803D01*
X0235449Y0150803D01*
X0235449Y0147063D01*
X0235449Y0150803D01*
X0235449Y0150803D01*
X0239189Y0150803D01*
X0239189Y0151172D01*
X0239045Y0151894D01*
X0238763Y0152575D01*
X0238354Y0153187D01*
X0237833Y0153708D01*
X0237220Y0154118D01*
X0236540Y0154400D01*
X0235817Y0154543D01*
X0235449Y0154543D01*
X0235449Y0150803D01*
X0235449Y0150803D01*
X0231709Y0150803D01*
X0231709Y0150435D01*
X0231852Y0149712D01*
X0232134Y0149032D01*
X0232544Y0148419D01*
X0233065Y0147898D01*
X0233677Y0147489D01*
X0234358Y0147207D01*
X0235449Y0147166D02*
X0235449Y0147166D01*
X0236335Y0147166D02*
X0338205Y0147166D01*
X0338205Y0149133D02*
X0238805Y0149133D01*
X0239189Y0151100D02*
X0338205Y0151100D01*
X0338205Y0153067D02*
X0238434Y0153067D01*
X0235449Y0153067D02*
X0235449Y0153067D01*
X0235449Y0154543D02*
X0235449Y0150803D01*
X0235449Y0150803D01*
X0231709Y0150803D01*
X0231709Y0151172D01*
X0231852Y0151894D01*
X0232134Y0152575D01*
X0232544Y0153187D01*
X0233065Y0153708D01*
X0233677Y0154118D01*
X0234358Y0154400D01*
X0235080Y0154543D01*
X0235449Y0154543D01*
X0232463Y0153067D02*
X0181079Y0153067D01*
X0181079Y0151100D02*
X0231709Y0151100D01*
X0232092Y0149133D02*
X0181079Y0149133D01*
X0181079Y0155034D02*
X0203433Y0155034D01*
X0204011Y0154456D02*
X0205910Y0153669D01*
X0213964Y0153669D01*
X0215863Y0154456D01*
X0217316Y0155909D01*
X0218102Y0157807D01*
X0218102Y0159862D01*
X0217316Y0161761D01*
X0215863Y0163214D01*
X0214364Y0163835D01*
X0215863Y0164456D01*
X0217316Y0165909D01*
X0218102Y0167807D01*
X0218102Y0169862D01*
X0217316Y0171761D01*
X0215863Y0173214D01*
X0214364Y0173835D01*
X0215863Y0174456D01*
X0217316Y0175909D01*
X0218102Y0177807D01*
X0218102Y0179862D01*
X0217316Y0181761D01*
X0215863Y0183214D01*
X0213964Y0184000D01*
X0205910Y0184000D01*
X0204011Y0183214D01*
X0202558Y0181761D01*
X0201772Y0179862D01*
X0201772Y0177807D01*
X0202558Y0175909D01*
X0204011Y0174456D01*
X0205510Y0173835D01*
X0204011Y0173214D01*
X0202558Y0171761D01*
X0201772Y0169862D01*
X0201772Y0167807D01*
X0202558Y0165909D01*
X0204011Y0164456D01*
X0205510Y0163835D01*
X0204011Y0163214D01*
X0202558Y0161761D01*
X0201772Y0159862D01*
X0201772Y0157807D01*
X0202558Y0155909D01*
X0204011Y0154456D01*
X0202106Y0157001D02*
X0181079Y0157001D01*
X0181079Y0158968D02*
X0201772Y0158968D01*
X0202216Y0160935D02*
X0181079Y0160935D01*
X0181079Y0162902D02*
X0203700Y0162902D01*
X0203598Y0164869D02*
X0181079Y0164869D01*
X0181079Y0166836D02*
X0202174Y0166836D01*
X0201772Y0168803D02*
X0199901Y0168803D01*
X0199819Y0168749D02*
X0200431Y0169158D01*
X0200952Y0169679D01*
X0201362Y0170291D01*
X0201644Y0170972D01*
X0201787Y0171695D01*
X0201787Y0172063D01*
X0201787Y0172431D01*
X0201644Y0173154D01*
X0201362Y0173835D01*
X0200952Y0174447D01*
X0200431Y0174968D01*
X0199819Y0175377D01*
X0199138Y0175659D01*
X0198416Y0175803D01*
X0198047Y0175803D01*
X0197679Y0175803D01*
X0196956Y0175659D01*
X0196276Y0175377D01*
X0195663Y0174968D01*
X0195142Y0174447D01*
X0194733Y0173835D01*
X0194451Y0173154D01*
X0194307Y0172431D01*
X0194307Y0172063D01*
X0198047Y0172063D01*
X0198047Y0172063D01*
X0194307Y0172063D01*
X0194307Y0171695D01*
X0194451Y0170972D01*
X0194733Y0170291D01*
X0195142Y0169679D01*
X0195663Y0169158D01*
X0196276Y0168749D01*
X0196956Y0168467D01*
X0197679Y0168323D01*
X0198047Y0168323D01*
X0198047Y0172063D01*
X0198047Y0175803D01*
X0198047Y0172063D01*
X0198047Y0172063D01*
X0198047Y0172063D01*
X0198047Y0168323D01*
X0198416Y0168323D01*
X0199138Y0168467D01*
X0199819Y0168749D01*
X0198047Y0168803D02*
X0198047Y0168803D01*
X0196194Y0168803D02*
X0181079Y0168803D01*
X0181079Y0170770D02*
X0194534Y0170770D01*
X0194368Y0172737D02*
X0181079Y0172737D01*
X0181079Y0174704D02*
X0195399Y0174704D01*
X0198047Y0174704D02*
X0198047Y0174704D01*
X0198047Y0172737D02*
X0198047Y0172737D01*
X0198047Y0172063D02*
X0201787Y0172063D01*
X0198047Y0172063D01*
X0198047Y0172063D01*
X0198047Y0170770D02*
X0198047Y0170770D01*
X0201560Y0170770D02*
X0202148Y0170770D01*
X0201727Y0172737D02*
X0203535Y0172737D01*
X0203762Y0174704D02*
X0200695Y0174704D01*
X0202242Y0176671D02*
X0181079Y0176671D01*
X0181079Y0178638D02*
X0201772Y0178638D01*
X0202080Y0180605D02*
X0181079Y0180605D01*
X0181079Y0182572D02*
X0203370Y0182572D01*
X0204436Y0184754D02*
X0205105Y0184413D01*
X0205820Y0184180D01*
X0206561Y0184063D01*
X0209921Y0184063D01*
X0209921Y0188819D01*
X0202165Y0188819D01*
X0202165Y0188459D01*
X0202283Y0187717D01*
X0202515Y0187003D01*
X0202856Y0186334D01*
X0203297Y0185726D01*
X0203828Y0185195D01*
X0204436Y0184754D01*
X0204857Y0184539D02*
X0181079Y0184539D01*
X0181079Y0186506D02*
X0202768Y0186506D01*
X0202165Y0188473D02*
X0182296Y0188473D01*
X0182496Y0190440D02*
X0202442Y0190440D01*
X0202515Y0190666D02*
X0202283Y0189952D01*
X0202165Y0189210D01*
X0202165Y0188850D01*
X0209921Y0188850D01*
X0209921Y0188819D01*
X0209953Y0188819D01*
X0209953Y0188850D01*
X0217709Y0188850D01*
X0217709Y0189210D01*
X0217591Y0189952D01*
X0217359Y0190666D01*
X0217018Y0191336D01*
X0216577Y0191943D01*
X0216046Y0192474D01*
X0215438Y0192916D01*
X0214769Y0193257D01*
X0214054Y0193489D01*
X0213313Y0193606D01*
X0209953Y0193606D01*
X0209953Y0188850D01*
X0209921Y0188850D01*
X0209921Y0193606D01*
X0206561Y0193606D01*
X0205820Y0193489D01*
X0205105Y0193257D01*
X0204436Y0192916D01*
X0203828Y0192474D01*
X0203297Y0191943D01*
X0202856Y0191336D01*
X0202515Y0190666D01*
X0203762Y0192407D02*
X0181580Y0192407D01*
X0175144Y0192407D02*
X0174780Y0192407D01*
X0174780Y0194374D02*
X0338205Y0194374D01*
X0338205Y0192407D02*
X0216112Y0192407D01*
X0217432Y0190440D02*
X0338205Y0190440D01*
X0338205Y0188473D02*
X0217709Y0188473D01*
X0217709Y0188459D02*
X0217591Y0187717D01*
X0217359Y0187003D01*
X0217018Y0186334D01*
X0216577Y0185726D01*
X0216046Y0185195D01*
X0215438Y0184754D01*
X0214769Y0184413D01*
X0214054Y0184180D01*
X0213313Y0184063D01*
X0209953Y0184063D01*
X0209953Y0188819D01*
X0217709Y0188819D01*
X0217709Y0188459D01*
X0217106Y0186506D02*
X0338205Y0186506D01*
X0338205Y0184539D02*
X0215017Y0184539D01*
X0216504Y0182572D02*
X0338205Y0182572D01*
X0338205Y0180605D02*
X0217795Y0180605D01*
X0218102Y0178638D02*
X0338205Y0178638D01*
X0338205Y0176671D02*
X0217632Y0176671D01*
X0216112Y0174704D02*
X0338205Y0174704D01*
X0338205Y0172737D02*
X0216339Y0172737D01*
X0217726Y0170770D02*
X0338205Y0170770D01*
X0338205Y0168803D02*
X0218102Y0168803D01*
X0217700Y0166836D02*
X0338205Y0166836D01*
X0338205Y0164869D02*
X0216276Y0164869D01*
X0216174Y0162902D02*
X0338205Y0162902D01*
X0338205Y0160935D02*
X0217658Y0160935D01*
X0218102Y0158968D02*
X0338205Y0158968D01*
X0338205Y0157001D02*
X0217768Y0157001D01*
X0216441Y0155034D02*
X0338205Y0155034D01*
X0338205Y0196341D02*
X0174780Y0196341D01*
X0174780Y0198308D02*
X0338205Y0198308D01*
X0338205Y0200275D02*
X0175993Y0200275D01*
X0176197Y0202242D02*
X0338205Y0202242D01*
X0338205Y0204209D02*
X0175290Y0204209D01*
X0168836Y0204209D02*
X0166312Y0204209D01*
X0166263Y0206177D02*
X0338205Y0206177D01*
X0338205Y0208144D02*
X0165057Y0208144D01*
X0159384Y0208144D02*
X0153246Y0208144D01*
X0154150Y0206177D02*
X0154697Y0206177D01*
X0158446Y0202242D02*
X0159266Y0202242D01*
X0156479Y0200275D02*
X0168133Y0200275D01*
X0168134Y0198308D02*
X0169346Y0198308D01*
X0169346Y0196341D02*
X0168717Y0196341D01*
X0168351Y0194374D02*
X0169346Y0194374D01*
X0169346Y0192407D02*
X0166722Y0192407D01*
X0164755Y0190440D02*
X0169346Y0190440D01*
X0169346Y0188473D02*
X0162788Y0188473D01*
X0160821Y0186506D02*
X0169346Y0186506D01*
X0169346Y0184539D02*
X0158854Y0184539D01*
X0156887Y0182572D02*
X0169346Y0182572D01*
X0169346Y0180605D02*
X0154920Y0180605D01*
X0152952Y0178638D02*
X0168104Y0178638D01*
X0166137Y0176671D02*
X0150985Y0176671D01*
X0149018Y0174704D02*
X0164170Y0174704D01*
X0162203Y0172737D02*
X0147051Y0172737D01*
X0145084Y0170770D02*
X0160236Y0170770D01*
X0158269Y0168803D02*
X0143117Y0168803D01*
X0141150Y0166836D02*
X0156302Y0166836D01*
X0154335Y0164869D02*
X0139183Y0164869D01*
X0137216Y0162902D02*
X0144064Y0162902D01*
X0149668Y0162902D02*
X0152368Y0162902D01*
X0138589Y0160935D02*
X0135249Y0160935D01*
X0136622Y0158968D02*
X0133282Y0158968D01*
X0134655Y0157001D02*
X0131315Y0157001D01*
X0132688Y0155034D02*
X0129348Y0155034D01*
X0131219Y0153067D02*
X0127381Y0153067D01*
X0125414Y0151100D02*
X0131157Y0151100D01*
X0131157Y0149133D02*
X0125173Y0149133D01*
X0125173Y0147166D02*
X0131157Y0147166D01*
X0131157Y0145199D02*
X0125173Y0145199D01*
X0125173Y0143232D02*
X0131157Y0143232D01*
X0131157Y0141265D02*
X0125173Y0141265D01*
X0125173Y0139298D02*
X0131157Y0139298D01*
X0131157Y0137331D02*
X0125173Y0137331D01*
X0125173Y0135364D02*
X0131157Y0135364D01*
X0131157Y0133397D02*
X0125173Y0133397D01*
X0125173Y0131430D02*
X0131157Y0131430D01*
X0131157Y0129463D02*
X0125173Y0129463D01*
X0125173Y0127496D02*
X0131157Y0127496D01*
X0131157Y0125529D02*
X0125173Y0125529D01*
X0125173Y0123562D02*
X0131157Y0123562D01*
X0131157Y0121595D02*
X0125173Y0121595D01*
X0125173Y0119628D02*
X0131157Y0119628D01*
X0131157Y0117661D02*
X0125173Y0117661D01*
X0125173Y0115694D02*
X0131157Y0115694D01*
X0131157Y0113727D02*
X0125173Y0113727D01*
X0125173Y0111760D02*
X0131157Y0111760D01*
X0131157Y0109793D02*
X0125173Y0109793D01*
X0125173Y0107826D02*
X0131157Y0107826D01*
X0131157Y0105859D02*
X0125173Y0105859D01*
X0125173Y0103892D02*
X0131157Y0103892D01*
X0131157Y0101925D02*
X0125173Y0101925D01*
X0126787Y0101000D02*
X0126787Y0097260D01*
X0126787Y0097260D01*
X0126787Y0097260D01*
X0126788Y0097260D02*
X0130528Y0097260D01*
X0130528Y0097628D01*
X0130384Y0098351D01*
X0130102Y0099031D01*
X0129693Y0099644D01*
X0129172Y0100165D01*
X0128559Y0100574D01*
X0127878Y0100856D01*
X0127156Y0101000D01*
X0126787Y0101000D01*
X0126787Y0099958D02*
X0126787Y0099958D01*
X0126787Y0097991D02*
X0126787Y0097991D01*
X0126788Y0097260D02*
X0126788Y0097260D01*
X0130528Y0097260D01*
X0130528Y0096891D01*
X0130384Y0096169D01*
X0130102Y0095488D01*
X0129693Y0094876D01*
X0129172Y0094355D01*
X0128559Y0093945D01*
X0127878Y0093663D01*
X0127156Y0093520D01*
X0126787Y0093520D01*
X0126787Y0097260D01*
X0126787Y0096024D02*
X0126787Y0096024D01*
X0126787Y0094057D02*
X0126787Y0094057D01*
X0128726Y0094057D02*
X0129191Y0094057D01*
X0130324Y0096024D02*
X0131157Y0096024D01*
X0131157Y0097991D02*
X0130455Y0097991D01*
X0131157Y0099958D02*
X0129379Y0099958D01*
X0127224Y0092090D02*
X0125173Y0092090D01*
X0125173Y0090123D02*
X0125257Y0090123D01*
X0113834Y0097991D02*
X0111857Y0097991D01*
X0111758Y0099958D02*
X0114228Y0099958D01*
X0114228Y0101925D02*
X0110763Y0101925D01*
X0108602Y0103892D02*
X0114228Y0103892D01*
X0114228Y0105859D02*
X0111109Y0105859D01*
X0111857Y0107826D02*
X0114228Y0107826D01*
X0114228Y0109793D02*
X0111826Y0109793D01*
X0110928Y0111760D02*
X0114228Y0111760D01*
X0114228Y0113727D02*
X0108204Y0113727D01*
X0110999Y0115694D02*
X0114228Y0115694D01*
X0114228Y0117661D02*
X0111855Y0117661D01*
X0111857Y0119628D02*
X0114228Y0119628D01*
X0114228Y0121595D02*
X0111080Y0121595D01*
X0108431Y0123562D02*
X0114228Y0123562D01*
X0114228Y0125529D02*
X0105402Y0125529D01*
X0105213Y0125402D02*
X0105825Y0125811D01*
X0106346Y0126332D01*
X0106755Y0126945D01*
X0107037Y0127626D01*
X0107181Y0128348D01*
X0107181Y0128716D01*
X0103441Y0128716D01*
X0103441Y0124976D01*
X0103809Y0124976D01*
X0104532Y0125120D01*
X0105213Y0125402D01*
X0103441Y0125529D02*
X0103441Y0125529D01*
X0103441Y0124976D02*
X0103441Y0128716D01*
X0103441Y0128716D01*
X0103441Y0128717D01*
X0103441Y0128717D01*
X0103441Y0132457D01*
X0103809Y0132457D01*
X0104532Y0132313D01*
X0105213Y0132031D01*
X0105825Y0131622D01*
X0106346Y0131101D01*
X0106755Y0130488D01*
X0107037Y0129807D01*
X0107181Y0129085D01*
X0107181Y0128717D01*
X0103441Y0128717D01*
X0103441Y0132457D01*
X0103073Y0132457D01*
X0102350Y0132313D01*
X0101669Y0132031D01*
X0101057Y0131622D01*
X0100536Y0131101D01*
X0100126Y0130488D01*
X0099845Y0129807D01*
X0099701Y0129085D01*
X0099701Y0128717D01*
X0103441Y0128717D01*
X0103441Y0128716D01*
X0099701Y0128716D01*
X0099701Y0128348D01*
X0099845Y0127626D01*
X0100126Y0126945D01*
X0100536Y0126332D01*
X0101057Y0125811D01*
X0101669Y0125402D01*
X0102350Y0125120D01*
X0103073Y0124976D01*
X0103441Y0124976D01*
X0101479Y0125529D02*
X0017732Y0125529D01*
X0017732Y0127496D02*
X0099898Y0127496D01*
X0099776Y0129463D02*
X0017732Y0129463D01*
X0017732Y0131430D02*
X0068037Y0131430D01*
X0068104Y0131363D02*
X0068717Y0130953D01*
X0069397Y0130671D01*
X0070120Y0130528D01*
X0070488Y0130528D01*
X0070488Y0134268D01*
X0070488Y0138008D01*
X0070120Y0138008D01*
X0069397Y0137864D01*
X0068717Y0137582D01*
X0068104Y0137173D01*
X0067583Y0136652D01*
X0067174Y0136039D01*
X0066892Y0135359D01*
X0066748Y0134636D01*
X0066748Y0134268D01*
X0070488Y0134268D01*
X0070488Y0134268D01*
X0070488Y0134268D01*
X0070488Y0138008D01*
X0070857Y0138008D01*
X0071579Y0137864D01*
X0072260Y0137582D01*
X0072872Y0137173D01*
X0073393Y0136652D01*
X0073803Y0136039D01*
X0074085Y0135359D01*
X0074228Y0134636D01*
X0074228Y0134268D01*
X0070488Y0134268D01*
X0066748Y0134268D01*
X0066748Y0133899D01*
X0066892Y0133177D01*
X0067174Y0132496D01*
X0067583Y0131884D01*
X0068104Y0131363D01*
X0070488Y0131430D02*
X0070488Y0131430D01*
X0070488Y0130528D02*
X0070488Y0134268D01*
X0070488Y0134268D01*
X0070488Y0134268D01*
X0074228Y0134268D01*
X0074228Y0133899D01*
X0074085Y0133177D01*
X0073803Y0132496D01*
X0073393Y0131884D01*
X0072872Y0131363D01*
X0072260Y0130953D01*
X0071579Y0130671D01*
X0070857Y0130528D01*
X0070488Y0130528D01*
X0072940Y0131430D02*
X0100865Y0131430D01*
X0103441Y0131430D02*
X0103441Y0131430D01*
X0103441Y0129463D02*
X0103441Y0129463D01*
X0103441Y0127496D02*
X0103441Y0127496D01*
X0106984Y0127496D02*
X0114228Y0127496D01*
X0114228Y0129463D02*
X0107106Y0129463D01*
X0106017Y0131430D02*
X0114228Y0131430D01*
X0114228Y0133397D02*
X0074128Y0133397D01*
X0074082Y0135364D02*
X0114228Y0135364D01*
X0114228Y0137331D02*
X0072636Y0137331D01*
X0070488Y0137331D02*
X0070488Y0137331D01*
X0070488Y0135364D02*
X0070488Y0135364D01*
X0070488Y0133397D02*
X0070488Y0133397D01*
X0066848Y0133397D02*
X0017732Y0133397D01*
X0017732Y0135364D02*
X0066894Y0135364D01*
X0068341Y0137331D02*
X0017732Y0137331D01*
X0017732Y0139298D02*
X0114228Y0139298D01*
X0114228Y0141265D02*
X0017732Y0141265D01*
X0017732Y0143232D02*
X0114228Y0143232D01*
X0114228Y0145199D02*
X0017732Y0145199D01*
X0017732Y0147166D02*
X0114228Y0147166D01*
X0114228Y0149133D02*
X0017732Y0149133D01*
X0017732Y0151100D02*
X0114228Y0151100D01*
X0114228Y0153067D02*
X0017732Y0153067D01*
X0017732Y0155034D02*
X0114228Y0155034D01*
X0114970Y0157001D02*
X0017732Y0157001D01*
X0017732Y0158968D02*
X0116937Y0158968D01*
X0118904Y0160935D02*
X0017732Y0160935D01*
X0017732Y0162902D02*
X0120871Y0162902D01*
X0122838Y0164869D02*
X0017732Y0164869D01*
X0017732Y0166836D02*
X0114126Y0166836D01*
X0114040Y0166923D02*
X0114561Y0166402D01*
X0115173Y0165993D01*
X0115854Y0165711D01*
X0116577Y0165567D01*
X0116945Y0165567D01*
X0117313Y0165567D01*
X0118036Y0165711D01*
X0118717Y0165993D01*
X0119329Y0166402D01*
X0119850Y0166923D01*
X0120259Y0167535D01*
X0120541Y0168216D01*
X0120685Y0168939D01*
X0120685Y0169307D01*
X0116945Y0169307D01*
X0116945Y0169307D01*
X0116945Y0165567D01*
X0116945Y0169307D01*
X0116945Y0169307D01*
X0120685Y0169307D01*
X0120685Y0169675D01*
X0120541Y0170398D01*
X0120259Y0171079D01*
X0119850Y0171691D01*
X0119329Y0172212D01*
X0118717Y0172622D01*
X0118036Y0172903D01*
X0117313Y0173047D01*
X0116945Y0173047D01*
X0116945Y0169307D01*
X0116945Y0169307D01*
X0113205Y0169307D01*
X0113205Y0168939D01*
X0113348Y0168216D01*
X0113630Y0167535D01*
X0114040Y0166923D01*
X0113232Y0168803D02*
X0017732Y0168803D01*
X0017732Y0170770D02*
X0113503Y0170770D01*
X0113630Y0171079D02*
X0113348Y0170398D01*
X0113205Y0169675D01*
X0113205Y0169307D01*
X0116945Y0169307D01*
X0116945Y0169307D01*
X0116945Y0173047D01*
X0116577Y0173047D01*
X0115854Y0172903D01*
X0115173Y0172622D01*
X0114561Y0172212D01*
X0114040Y0171691D01*
X0113630Y0171079D01*
X0115453Y0172737D02*
X0017732Y0172737D01*
X0017732Y0174704D02*
X0132674Y0174704D01*
X0134641Y0176671D02*
X0017732Y0176671D01*
X0017732Y0178638D02*
X0136608Y0178638D01*
X0138575Y0180605D02*
X0017732Y0180605D01*
X0017732Y0182572D02*
X0140542Y0182572D01*
X0142509Y0184539D02*
X0017732Y0184539D01*
X0017732Y0186506D02*
X0144476Y0186506D01*
X0146443Y0188473D02*
X0017732Y0188473D01*
X0017732Y0190440D02*
X0147299Y0190440D01*
X0147299Y0192407D02*
X0017732Y0192407D01*
X0017732Y0194374D02*
X0147299Y0194374D01*
X0147299Y0196341D02*
X0017732Y0196341D01*
X0017732Y0198308D02*
X0147299Y0198308D01*
X0147299Y0200275D02*
X0017732Y0200275D01*
X0017732Y0202242D02*
X0147299Y0202242D01*
X0146087Y0204209D02*
X0017732Y0204209D01*
X0017732Y0206177D02*
X0133054Y0206177D01*
X0133065Y0206166D02*
X0133677Y0205756D01*
X0134358Y0205474D01*
X0135080Y0205331D01*
X0135449Y0205331D01*
X0135817Y0205331D01*
X0136540Y0205474D01*
X0137220Y0205756D01*
X0137833Y0206166D01*
X0138354Y0206687D01*
X0138763Y0207299D01*
X0139045Y0207980D01*
X0139189Y0208702D01*
X0139189Y0209071D01*
X0139189Y0209439D01*
X0139045Y0210162D01*
X0138763Y0210842D01*
X0138354Y0211455D01*
X0137833Y0211976D01*
X0137220Y0212385D01*
X0136540Y0212667D01*
X0135817Y0212811D01*
X0135449Y0212811D01*
X0135449Y0209071D01*
X0139189Y0209071D01*
X0135449Y0209071D01*
X0135449Y0209071D01*
X0135449Y0209071D01*
X0135449Y0206709D01*
X0135843Y0206315D01*
X0135449Y0206177D02*
X0135449Y0206177D01*
X0135449Y0205331D02*
X0135449Y0209071D01*
X0135449Y0212811D01*
X0135080Y0212811D01*
X0134358Y0212667D01*
X0133677Y0212385D01*
X0133065Y0211976D01*
X0132544Y0211455D01*
X0132134Y0210842D01*
X0131852Y0210162D01*
X0131709Y0209439D01*
X0131709Y0209071D01*
X0135449Y0209071D01*
X0135449Y0209071D01*
X0135449Y0209071D01*
X0135449Y0205331D01*
X0133065Y0206166D02*
X0132544Y0206687D01*
X0132134Y0207299D01*
X0131852Y0207980D01*
X0131709Y0208702D01*
X0131709Y0209071D01*
X0135449Y0209071D01*
X0135449Y0208144D02*
X0135449Y0208144D01*
X0135449Y0210111D02*
X0135449Y0210111D01*
X0135449Y0212078D02*
X0135449Y0212078D01*
X0137681Y0212078D02*
X0338205Y0212078D01*
X0338205Y0214045D02*
X0017732Y0214045D01*
X0017732Y0216012D02*
X0338205Y0216012D01*
X0338205Y0217979D02*
X0017732Y0217979D01*
X0017732Y0219946D02*
X0338205Y0219946D01*
X0338205Y0221913D02*
X0017732Y0221913D01*
X0017732Y0223880D02*
X0338205Y0223880D01*
X0338205Y0225847D02*
X0017732Y0225847D01*
X0017732Y0227814D02*
X0338205Y0227814D01*
X0338205Y0229781D02*
X0017732Y0229781D01*
X0017732Y0231748D02*
X0338205Y0231748D01*
X0338205Y0233715D02*
X0017732Y0233715D01*
X0017732Y0235682D02*
X0338205Y0235682D01*
X0338205Y0237649D02*
X0017732Y0237649D01*
X0017732Y0239616D02*
X0338205Y0239616D01*
X0338205Y0241583D02*
X0017732Y0241583D01*
X0017732Y0243550D02*
X0338205Y0243550D01*
X0338205Y0245517D02*
X0017732Y0245517D01*
X0017732Y0247484D02*
X0338205Y0247484D01*
X0338205Y0249451D02*
X0017732Y0249451D01*
X0017732Y0251418D02*
X0338205Y0251418D01*
X0338205Y0253385D02*
X0017732Y0253385D01*
X0017732Y0255352D02*
X0338205Y0255352D01*
X0338205Y0257319D02*
X0017732Y0257319D01*
X0017732Y0259286D02*
X0338205Y0259286D01*
X0338205Y0261253D02*
X0017732Y0261253D01*
X0017732Y0263220D02*
X0338205Y0263220D01*
X0338205Y0265187D02*
X0329607Y0265187D01*
X0328908Y0264784D02*
X0331556Y0266313D01*
X0333719Y0268475D01*
X0335248Y0271123D01*
X0336039Y0274077D01*
X0336039Y0277135D01*
X0335248Y0280089D01*
X0333719Y0282738D01*
X0331556Y0284900D01*
X0328908Y0286429D01*
X0325954Y0287220D01*
X0322896Y0287220D01*
X0319942Y0286429D01*
X0317294Y0284900D01*
X0315132Y0282738D01*
X0313603Y0280089D01*
X0312811Y0277135D01*
X0312811Y0274077D01*
X0313603Y0271123D01*
X0315132Y0268475D01*
X0317294Y0266313D01*
X0319942Y0264784D01*
X0322896Y0263992D01*
X0325954Y0263992D01*
X0328908Y0264784D01*
X0332398Y0267154D02*
X0338205Y0267154D01*
X0338205Y0269121D02*
X0334092Y0269121D01*
X0335227Y0271088D02*
X0338205Y0271088D01*
X0338205Y0273055D02*
X0335765Y0273055D01*
X0336039Y0275022D02*
X0338205Y0275022D01*
X0338205Y0276989D02*
X0336039Y0276989D01*
X0335552Y0278956D02*
X0338205Y0278956D01*
X0338205Y0280923D02*
X0334766Y0280923D01*
X0333566Y0282890D02*
X0338205Y0282890D01*
X0338205Y0284857D02*
X0331599Y0284857D01*
X0327433Y0286824D02*
X0338205Y0286824D01*
X0338205Y0288791D02*
X0017732Y0288791D01*
X0017732Y0286824D02*
X0028504Y0286824D01*
X0027029Y0286429D02*
X0024381Y0284900D01*
X0022218Y0282738D01*
X0020689Y0280089D01*
X0019898Y0277135D01*
X0019898Y0274077D01*
X0020689Y0271123D01*
X0022218Y0268475D01*
X0024381Y0266313D01*
X0027029Y0264784D01*
X0029983Y0263992D01*
X0033041Y0263992D01*
X0035995Y0264784D01*
X0038643Y0266313D01*
X0040805Y0268475D01*
X0042334Y0271123D01*
X0043126Y0274077D01*
X0043126Y0277135D01*
X0042334Y0280089D01*
X0040805Y0282738D01*
X0038643Y0284900D01*
X0035995Y0286429D01*
X0033041Y0287220D01*
X0029983Y0287220D01*
X0027029Y0286429D01*
X0024338Y0284857D02*
X0017732Y0284857D01*
X0017732Y0282890D02*
X0022371Y0282890D01*
X0021171Y0280923D02*
X0017732Y0280923D01*
X0017732Y0278956D02*
X0020386Y0278956D01*
X0019898Y0276989D02*
X0017732Y0276989D01*
X0017732Y0275022D02*
X0019898Y0275022D01*
X0020172Y0273055D02*
X0017732Y0273055D01*
X0017732Y0271088D02*
X0020710Y0271088D01*
X0021845Y0269121D02*
X0017732Y0269121D01*
X0017732Y0267154D02*
X0023539Y0267154D01*
X0026330Y0265187D02*
X0017732Y0265187D01*
X0036693Y0265187D02*
X0155288Y0265187D01*
X0154531Y0265501D02*
X0156557Y0264661D01*
X0158750Y0264661D01*
X0160776Y0265501D01*
X0162326Y0267051D01*
X0163165Y0269077D01*
X0163165Y0271270D01*
X0162326Y0273295D01*
X0160776Y0274846D01*
X0158750Y0275685D01*
X0156557Y0275685D01*
X0154531Y0274846D01*
X0152981Y0273295D01*
X0152142Y0271270D01*
X0152142Y0269077D01*
X0152981Y0267051D01*
X0154531Y0265501D01*
X0152938Y0267154D02*
X0039484Y0267154D01*
X0041178Y0269121D02*
X0152142Y0269121D01*
X0152142Y0271088D02*
X0042314Y0271088D01*
X0042852Y0273055D02*
X0152881Y0273055D01*
X0154957Y0275022D02*
X0043126Y0275022D01*
X0043126Y0276989D02*
X0312811Y0276989D01*
X0312811Y0275022D02*
X0190350Y0275022D01*
X0190776Y0274846D02*
X0188750Y0275685D01*
X0186557Y0275685D01*
X0184531Y0274846D01*
X0182981Y0273295D01*
X0182142Y0271270D01*
X0182142Y0269077D01*
X0182981Y0267051D01*
X0184531Y0265501D01*
X0186557Y0264661D01*
X0188750Y0264661D01*
X0190776Y0265501D01*
X0192326Y0267051D01*
X0193165Y0269077D01*
X0193165Y0271270D01*
X0192326Y0273295D01*
X0190776Y0274846D01*
X0192426Y0273055D02*
X0313085Y0273055D01*
X0313623Y0271088D02*
X0193165Y0271088D01*
X0193165Y0269121D02*
X0314759Y0269121D01*
X0316453Y0267154D02*
X0192369Y0267154D01*
X0190019Y0265187D02*
X0319244Y0265187D01*
X0313299Y0278956D02*
X0042638Y0278956D01*
X0041853Y0280923D02*
X0314084Y0280923D01*
X0315284Y0282890D02*
X0040653Y0282890D01*
X0038686Y0284857D02*
X0317251Y0284857D01*
X0321417Y0286824D02*
X0034520Y0286824D01*
X0017732Y0212078D02*
X0133217Y0212078D01*
X0131842Y0210111D02*
X0017732Y0210111D01*
X0017732Y0208144D02*
X0131820Y0208144D01*
X0137844Y0206177D02*
X0145882Y0206177D01*
X0146786Y0208144D02*
X0139078Y0208144D01*
X0139055Y0210111D02*
X0338205Y0210111D01*
X0235449Y0151100D02*
X0235449Y0151100D01*
X0235449Y0149133D02*
X0235449Y0149133D01*
X0209953Y0184539D02*
X0209921Y0184539D01*
X0209921Y0186506D02*
X0209953Y0186506D01*
X0209921Y0188473D02*
X0209953Y0188473D01*
X0209921Y0190440D02*
X0209953Y0190440D01*
X0209921Y0192407D02*
X0209953Y0192407D01*
X0167929Y0202242D02*
X0165175Y0202242D01*
X0161032Y0198308D02*
X0155488Y0198308D01*
X0155488Y0196341D02*
X0160449Y0196341D01*
X0160814Y0194374D02*
X0155488Y0194374D01*
X0155488Y0192407D02*
X0159038Y0192407D01*
X0157071Y0190440D02*
X0155488Y0190440D01*
X0130707Y0172737D02*
X0118437Y0172737D01*
X0116945Y0172737D02*
X0116945Y0172737D01*
X0116945Y0170770D02*
X0116945Y0170770D01*
X0116945Y0168803D02*
X0116945Y0168803D01*
X0116945Y0166836D02*
X0116945Y0166836D01*
X0119763Y0166836D02*
X0124805Y0166836D01*
X0126772Y0168803D02*
X0120658Y0168803D01*
X0120387Y0170770D02*
X0128740Y0170770D01*
X0098952Y0123562D02*
X0017732Y0123562D01*
X0017732Y0121595D02*
X0096303Y0121595D01*
X0095526Y0119628D02*
X0017732Y0119628D01*
X0017732Y0117661D02*
X0095527Y0117661D01*
X0096384Y0115694D02*
X0017732Y0115694D01*
X0017732Y0113727D02*
X0099179Y0113727D01*
X0096455Y0111760D02*
X0017732Y0111760D01*
X0017732Y0109793D02*
X0095557Y0109793D01*
X0095526Y0107826D02*
X0017732Y0107826D01*
X0017732Y0105859D02*
X0096274Y0105859D01*
X0098781Y0103892D02*
X0017732Y0103892D01*
X0017732Y0101925D02*
X0096620Y0101925D01*
X0095625Y0099958D02*
X0017732Y0099958D01*
X0017732Y0097991D02*
X0095526Y0097991D01*
X0084707Y0096024D02*
X0017732Y0096024D01*
X0017732Y0094057D02*
X0082735Y0094057D01*
X0081238Y0092090D02*
X0017732Y0092090D01*
X0017732Y0090123D02*
X0081157Y0090123D01*
X0081157Y0088156D02*
X0017732Y0088156D01*
X0017732Y0086189D02*
X0081157Y0086189D01*
X0081157Y0084222D02*
X0017732Y0084222D01*
X0017732Y0082255D02*
X0081157Y0082255D01*
X0081157Y0080288D02*
X0017732Y0080288D01*
X0017732Y0078321D02*
X0081157Y0078321D01*
X0081157Y0076354D02*
X0017732Y0076354D01*
X0017732Y0074386D02*
X0081157Y0074386D01*
X0081157Y0072419D02*
X0017732Y0072419D01*
X0017732Y0070452D02*
X0081157Y0070452D01*
X0081157Y0068485D02*
X0017732Y0068485D01*
X0017732Y0066518D02*
X0081157Y0066518D01*
X0081157Y0064551D02*
X0017732Y0064551D01*
X0017732Y0062584D02*
X0081157Y0062584D01*
X0081157Y0060617D02*
X0017732Y0060617D01*
X0017732Y0058650D02*
X0081157Y0058650D01*
X0076701Y0056683D02*
X0071440Y0056683D01*
X0073407Y0054716D02*
X0074734Y0054716D01*
X0066701Y0056683D02*
X0017732Y0056683D01*
X0017732Y0054716D02*
X0064734Y0054716D01*
X0063906Y0052749D02*
X0017732Y0052749D01*
X0017732Y0050782D02*
X0063906Y0050782D01*
X0064699Y0048815D02*
X0037726Y0048815D01*
X0038643Y0048286D02*
X0035995Y0049815D01*
X0033041Y0050606D01*
X0029983Y0050606D01*
X0027029Y0049815D01*
X0024381Y0048286D01*
X0022218Y0046123D01*
X0020689Y0043475D01*
X0019898Y0040521D01*
X0019898Y0037463D01*
X0020689Y0034509D01*
X0022218Y0031861D01*
X0024381Y0029698D01*
X0027029Y0028169D01*
X0029983Y0027378D01*
X0033041Y0027378D01*
X0035995Y0028169D01*
X0038643Y0029698D01*
X0040805Y0031861D01*
X0042334Y0034509D01*
X0043126Y0037463D01*
X0043126Y0040521D01*
X0042334Y0043475D01*
X0040805Y0046123D01*
X0038643Y0048286D01*
X0040081Y0046848D02*
X0066666Y0046848D01*
X0064899Y0044881D02*
X0041523Y0044881D01*
X0042485Y0042914D02*
X0063906Y0042914D01*
X0063906Y0040947D02*
X0043012Y0040947D01*
X0043126Y0038980D02*
X0064534Y0038980D01*
X0066501Y0037013D02*
X0043005Y0037013D01*
X0042478Y0035046D02*
X0313459Y0035046D01*
X0314428Y0033079D02*
X0041509Y0033079D01*
X0040057Y0031112D02*
X0315880Y0031112D01*
X0318252Y0029145D02*
X0037685Y0029145D01*
X0025339Y0029145D02*
X0017732Y0029145D01*
X0017732Y0031112D02*
X0022967Y0031112D01*
X0021515Y0033079D02*
X0017732Y0033079D01*
X0017732Y0035046D02*
X0020545Y0035046D01*
X0020018Y0037013D02*
X0017732Y0037013D01*
X0017732Y0038980D02*
X0019898Y0038980D01*
X0020012Y0040947D02*
X0017732Y0040947D01*
X0017732Y0042914D02*
X0020539Y0042914D01*
X0021501Y0044881D02*
X0017732Y0044881D01*
X0017732Y0046848D02*
X0022943Y0046848D01*
X0025298Y0048815D02*
X0017732Y0048815D01*
X0071641Y0037013D02*
X0076501Y0037013D01*
X0074534Y0038980D02*
X0073608Y0038980D01*
X0081641Y0037013D02*
X0086501Y0037013D01*
X0084534Y0038980D02*
X0083608Y0038980D01*
X0091641Y0037013D02*
X0096501Y0037013D01*
X0094534Y0038980D02*
X0093608Y0038980D01*
X0101641Y0037013D02*
X0106501Y0037013D01*
X0104534Y0038980D02*
X0103608Y0038980D01*
X0111641Y0037013D02*
X0116501Y0037013D01*
X0114534Y0038980D02*
X0113608Y0038980D01*
X0121641Y0037013D02*
X0126501Y0037013D01*
X0124534Y0038980D02*
X0123608Y0038980D01*
X0131641Y0037013D02*
X0136501Y0037013D01*
X0134534Y0038980D02*
X0133608Y0038980D01*
X0141641Y0037013D02*
X0146501Y0037013D01*
X0144534Y0038980D02*
X0143608Y0038980D01*
X0151641Y0037013D02*
X0156501Y0037013D01*
X0154534Y0038980D02*
X0153608Y0038980D01*
X0161641Y0037013D02*
X0166501Y0037013D01*
X0164534Y0038980D02*
X0163608Y0038980D01*
X0171641Y0037013D02*
X0176501Y0037013D01*
X0174534Y0038980D02*
X0173608Y0038980D01*
X0181641Y0037013D02*
X0186501Y0037013D01*
X0184534Y0038980D02*
X0183608Y0038980D01*
X0191641Y0037013D02*
X0196501Y0037013D01*
X0194534Y0038980D02*
X0193608Y0038980D01*
X0201641Y0037013D02*
X0206501Y0037013D01*
X0204534Y0038980D02*
X0203608Y0038980D01*
X0211641Y0037013D02*
X0216501Y0037013D01*
X0214534Y0038980D02*
X0213608Y0038980D01*
X0221641Y0037013D02*
X0226501Y0037013D01*
X0224534Y0038980D02*
X0223608Y0038980D01*
X0231641Y0037013D02*
X0236501Y0037013D01*
X0234534Y0038980D02*
X0233608Y0038980D01*
X0241641Y0037013D02*
X0246501Y0037013D01*
X0244534Y0038980D02*
X0243608Y0038980D01*
X0243407Y0054716D02*
X0244734Y0054716D01*
X0246701Y0056683D02*
X0241440Y0056683D01*
X0236701Y0056683D02*
X0231440Y0056683D01*
X0233407Y0054716D02*
X0234734Y0054716D01*
X0226701Y0056683D02*
X0221440Y0056683D01*
X0223407Y0054716D02*
X0224734Y0054716D01*
X0216701Y0056683D02*
X0211440Y0056683D01*
X0213407Y0054716D02*
X0214734Y0054716D01*
X0206701Y0056683D02*
X0201440Y0056683D01*
X0203407Y0054716D02*
X0204734Y0054716D01*
X0196701Y0056683D02*
X0191440Y0056683D01*
X0193407Y0054716D02*
X0194734Y0054716D01*
X0186701Y0056683D02*
X0181440Y0056683D01*
X0183407Y0054716D02*
X0184734Y0054716D01*
X0176701Y0056683D02*
X0171440Y0056683D01*
X0173407Y0054716D02*
X0174734Y0054716D01*
X0166701Y0056683D02*
X0161440Y0056683D01*
X0163407Y0054716D02*
X0164734Y0054716D01*
X0262886Y0048815D02*
X0318211Y0048815D01*
X0185288Y0265187D02*
X0160019Y0265187D01*
X0162369Y0267154D02*
X0182938Y0267154D01*
X0182142Y0269121D02*
X0163165Y0269121D01*
X0163165Y0271088D02*
X0182142Y0271088D01*
X0182881Y0273055D02*
X0162426Y0273055D01*
X0160350Y0275022D02*
X0184957Y0275022D01*
D14*
X0135449Y0209071D03*
X0150016Y0205528D03*
X0162220Y0205134D03*
X0164583Y0196079D03*
X0172063Y0201591D03*
X0178362Y0189780D03*
X0198047Y0172063D03*
X0164976Y0153953D03*
X0157102Y0153953D03*
X0146866Y0159858D03*
X0157890Y0137024D03*
X0165370Y0137024D03*
X0177575Y0122850D03*
X0126787Y0097260D03*
X0137811Y0066945D03*
X0103441Y0128717D03*
X0070488Y0134268D03*
X0116945Y0169307D03*
X0235449Y0150803D03*
D15*
X0072457Y0134268D02*
X0070488Y0134268D01*
D16*
X0086236Y0093717D02*
X0083874Y0091354D01*
X0083874Y0046551D01*
X0079071Y0041748D01*
X0089071Y0041748D02*
X0094110Y0046787D01*
X0094110Y0071276D01*
X0096472Y0073638D01*
X0113795Y0073638D01*
X0119701Y0079543D01*
X0119701Y0153953D01*
X0152772Y0187024D01*
X0152772Y0200409D01*
X0157496Y0205134D01*
X0162220Y0205134D01*
X0164583Y0196079D02*
X0164583Y0194110D01*
X0122457Y0151984D01*
X0122457Y0071276D01*
X0112220Y0061039D01*
X0106709Y0061039D01*
X0104346Y0058677D01*
X0104346Y0047024D01*
X0099071Y0041748D01*
X0109071Y0041748D02*
X0114189Y0046866D01*
X0114189Y0058677D01*
X0125606Y0070094D01*
X0125606Y0086630D01*
X0133874Y0094898D01*
X0133874Y0152378D01*
X0141354Y0159858D01*
X0146866Y0159858D01*
X0148441Y0155134D02*
X0141354Y0155134D01*
X0136630Y0150409D01*
X0136630Y0106709D01*
X0136630Y0105134D01*
X0136630Y0093323D01*
X0128756Y0085449D01*
X0128756Y0059858D01*
X0124031Y0055134D01*
X0124031Y0046709D01*
X0119071Y0041748D01*
X0129071Y0041748D02*
X0129071Y0043638D01*
X0133874Y0048441D01*
X0133874Y0086630D01*
X0138992Y0091748D01*
X0138992Y0148835D01*
X0140961Y0150803D01*
X0153953Y0150803D01*
X0157102Y0153953D01*
X0148441Y0155134D02*
X0172063Y0178756D01*
X0172063Y0201591D01*
X0178362Y0189780D02*
X0178362Y0141354D01*
X0163008Y0126000D01*
X0163008Y0078756D01*
X0154346Y0070094D01*
X0154346Y0047024D01*
X0149071Y0041748D01*
X0149071Y0051748D02*
X0149110Y0051787D01*
X0149110Y0073047D01*
X0160252Y0084189D01*
X0160252Y0127575D01*
X0165370Y0132693D01*
X0165370Y0137024D01*
X0157890Y0137024D02*
X0157890Y0085843D01*
X0146079Y0074031D01*
X0146079Y0058756D01*
X0139071Y0051748D01*
X0138992Y0051827D01*
X0137811Y0066945D02*
X0141354Y0070488D01*
X0141354Y0142929D01*
X0143717Y0145291D01*
X0156315Y0145291D01*
X0164976Y0153953D01*
X0198047Y0169307D02*
X0198441Y0168913D01*
X0198047Y0169307D02*
X0198047Y0172063D01*
X0235449Y0150803D02*
X0235449Y0149228D01*
X0150016Y0188205D02*
X0150016Y0205528D01*
X0150016Y0188205D02*
X0116945Y0155134D01*
X0116945Y0097260D01*
X0113402Y0093717D01*
X0086236Y0093717D01*
X0116945Y0169307D02*
X0117732Y0170094D01*
D17*
X0031512Y0275606D03*
X0031512Y0038992D03*
X0324425Y0038992D03*
X0324425Y0275606D03*
M02*
