G75*
%MOIN*%
%OFA0B0*%
%FSLAX25Y25*%
%IPPOS*%
%LPD*%
%AMOC8*
5,1,8,0,0,1.08239X$1,22.5*
%
%ADD10C,0.06693*%
%ADD11C,0.06000*%
%ADD12OC8,0.06000*%
%ADD13C,0.03937*%
%ADD14C,0.01200*%
%ADD15C,0.25400*%
D10*
X0253332Y0127506D03*
X0283332Y0127506D03*
D11*
X0203450Y0226671D02*
X0203450Y0232671D01*
X0193450Y0232671D02*
X0193450Y0226671D01*
X0183450Y0226671D02*
X0183450Y0232671D01*
X0173450Y0232671D02*
X0173450Y0226671D01*
X0108726Y0125151D02*
X0108726Y0119151D01*
X0098726Y0119151D02*
X0098726Y0125151D01*
X0088726Y0125151D02*
X0088726Y0119151D01*
X0078726Y0119151D02*
X0078726Y0125151D01*
X0068726Y0125151D02*
X0068726Y0119151D01*
X0058726Y0119151D02*
X0058726Y0125151D01*
D12*
X0060813Y0057269D03*
X0070813Y0057269D03*
X0080813Y0057269D03*
X0090813Y0057269D03*
X0100813Y0057269D03*
X0110813Y0057269D03*
X0120813Y0057269D03*
X0130813Y0057269D03*
X0140813Y0057269D03*
X0140813Y0047269D03*
X0130813Y0047269D03*
X0120813Y0047269D03*
X0110813Y0047269D03*
X0100813Y0047269D03*
X0090813Y0047269D03*
X0080813Y0047269D03*
X0070813Y0047269D03*
X0060813Y0047269D03*
X0150813Y0047269D03*
X0160813Y0047269D03*
X0170813Y0047269D03*
X0180813Y0047269D03*
X0190813Y0047269D03*
X0200813Y0047269D03*
X0210813Y0047269D03*
X0220813Y0047269D03*
X0230813Y0047269D03*
X0240813Y0047269D03*
X0250813Y0047269D03*
X0250813Y0057269D03*
X0240813Y0057269D03*
X0230813Y0057269D03*
X0220813Y0057269D03*
X0210813Y0057269D03*
X0200813Y0057269D03*
X0190813Y0057269D03*
X0180813Y0057269D03*
X0170813Y0057269D03*
X0160813Y0057269D03*
X0150813Y0057269D03*
D13*
X0096482Y0142545D03*
X0116167Y0154356D03*
X0159474Y0154356D03*
X0080734Y0189789D03*
X0063411Y0164198D03*
X0091364Y0226403D03*
D14*
X0022938Y0003460D02*
X0020524Y0002813D01*
X0307256Y0003161D01*
X0304672Y0003854D01*
X0301370Y0005760D01*
X0298674Y0008456D01*
X0296767Y0011759D01*
X0295780Y0015442D01*
X0295780Y0019255D01*
X0296767Y0022938D01*
X0298674Y0026240D01*
X0301370Y0028936D01*
X0304672Y0030842D01*
X0308355Y0031829D01*
X0312168Y0031829D01*
X0315851Y0030842D01*
X0319153Y0028936D01*
X0321849Y0026240D01*
X0323756Y0022938D01*
X0324425Y0020439D01*
X0324425Y0250478D01*
X0323756Y0247979D01*
X0321849Y0244677D01*
X0319153Y0241981D01*
X0315851Y0240074D01*
X0312168Y0239087D01*
X0308355Y0239087D01*
X0304672Y0240074D01*
X0301370Y0241981D01*
X0298674Y0244677D01*
X0296767Y0247979D01*
X0295780Y0251662D01*
X0295780Y0255475D01*
X0296767Y0259158D01*
X0298674Y0262460D01*
X0301370Y0265156D01*
X0304672Y0267063D01*
X0307085Y0267709D01*
X0020354Y0267361D01*
X0022938Y0266669D01*
X0026240Y0264763D01*
X0028936Y0262066D01*
X0030842Y0258764D01*
X0031829Y0255081D01*
X0031829Y0251268D01*
X0030842Y0247585D01*
X0028936Y0244283D01*
X0026240Y0241587D01*
X0022938Y0239681D01*
X0019255Y0238694D01*
X0015442Y0238694D01*
X0011759Y0239681D01*
X0008456Y0241587D01*
X0005760Y0244283D01*
X0003854Y0247585D01*
X0003184Y0250084D01*
X0003184Y0020045D01*
X0003854Y0022544D01*
X0005760Y0025846D01*
X0008456Y0028542D01*
X0011759Y0030449D01*
X0015442Y0031435D01*
X0019255Y0031435D01*
X0022938Y0030449D01*
X0026240Y0028542D01*
X0028936Y0025846D01*
X0030842Y0022544D01*
X0031829Y0018861D01*
X0031829Y0015048D01*
X0030842Y0011365D01*
X0028936Y0008063D01*
X0026240Y0005367D01*
X0022938Y0003460D01*
X0022353Y0003303D02*
X0306726Y0003303D01*
X0303549Y0004502D02*
X0024742Y0004502D01*
X0026573Y0005700D02*
X0301473Y0005700D01*
X0300231Y0006899D02*
X0027772Y0006899D01*
X0028956Y0008097D02*
X0299033Y0008097D01*
X0298189Y0009296D02*
X0029648Y0009296D01*
X0030340Y0010494D02*
X0297497Y0010494D01*
X0296805Y0011693D02*
X0030930Y0011693D01*
X0031251Y0012891D02*
X0296464Y0012891D01*
X0296142Y0014090D02*
X0031572Y0014090D01*
X0031829Y0015288D02*
X0295821Y0015288D01*
X0295780Y0016487D02*
X0031829Y0016487D01*
X0031829Y0017686D02*
X0295780Y0017686D01*
X0295780Y0018884D02*
X0031823Y0018884D01*
X0031502Y0020083D02*
X0296002Y0020083D01*
X0296323Y0021281D02*
X0031181Y0021281D01*
X0030859Y0022480D02*
X0296644Y0022480D01*
X0297195Y0023678D02*
X0030187Y0023678D01*
X0029495Y0024877D02*
X0297887Y0024877D01*
X0298579Y0026075D02*
X0028707Y0026075D01*
X0027508Y0027274D02*
X0299708Y0027274D01*
X0300906Y0028472D02*
X0026310Y0028472D01*
X0024285Y0029671D02*
X0302643Y0029671D01*
X0304772Y0030869D02*
X0021368Y0030869D01*
X0013328Y0030869D02*
X0003184Y0030869D01*
X0003184Y0029671D02*
X0010411Y0029671D01*
X0008386Y0028472D02*
X0003184Y0028472D01*
X0003184Y0027274D02*
X0007188Y0027274D01*
X0005989Y0026075D02*
X0003184Y0026075D01*
X0003184Y0024877D02*
X0005201Y0024877D01*
X0004509Y0023678D02*
X0003184Y0023678D01*
X0003184Y0022480D02*
X0003837Y0022480D01*
X0003515Y0021281D02*
X0003184Y0021281D01*
X0003184Y0020083D02*
X0003194Y0020083D01*
X0003184Y0032068D02*
X0324425Y0032068D01*
X0324425Y0033266D02*
X0003184Y0033266D01*
X0003184Y0034465D02*
X0324425Y0034465D01*
X0324425Y0035663D02*
X0003184Y0035663D01*
X0003184Y0036862D02*
X0324425Y0036862D01*
X0324425Y0038060D02*
X0003184Y0038060D01*
X0003184Y0039259D02*
X0324425Y0039259D01*
X0324425Y0040457D02*
X0003184Y0040457D01*
X0003184Y0041656D02*
X0324425Y0041656D01*
X0324425Y0042854D02*
X0253159Y0042854D01*
X0252793Y0042488D02*
X0255594Y0045289D01*
X0255594Y0049250D01*
X0252793Y0052050D01*
X0248832Y0052050D01*
X0246031Y0049250D01*
X0246031Y0045289D01*
X0248832Y0042488D01*
X0252793Y0042488D01*
X0254358Y0044053D02*
X0324425Y0044053D01*
X0324425Y0045251D02*
X0255556Y0045251D01*
X0255594Y0046450D02*
X0324425Y0046450D01*
X0324425Y0047648D02*
X0255594Y0047648D01*
X0255594Y0048847D02*
X0324425Y0048847D01*
X0324425Y0050045D02*
X0254798Y0050045D01*
X0253600Y0051244D02*
X0324425Y0051244D01*
X0324425Y0052442D02*
X0003184Y0052442D01*
X0003184Y0051244D02*
X0058026Y0051244D01*
X0058832Y0052050D02*
X0056031Y0049250D01*
X0056031Y0045289D01*
X0058832Y0042488D01*
X0062793Y0042488D01*
X0065594Y0045289D01*
X0065594Y0049250D01*
X0062793Y0052050D01*
X0058832Y0052050D01*
X0058832Y0052488D02*
X0062793Y0052488D01*
X0065594Y0055289D01*
X0065594Y0059250D01*
X0062793Y0062050D01*
X0058832Y0062050D01*
X0056031Y0059250D01*
X0056031Y0055289D01*
X0058832Y0052488D01*
X0057680Y0053641D02*
X0003184Y0053641D01*
X0003184Y0054839D02*
X0056481Y0054839D01*
X0056031Y0056038D02*
X0003184Y0056038D01*
X0003184Y0057236D02*
X0056031Y0057236D01*
X0056031Y0058435D02*
X0003184Y0058435D01*
X0003184Y0059633D02*
X0056415Y0059633D01*
X0057614Y0060832D02*
X0003184Y0060832D01*
X0003184Y0062030D02*
X0058812Y0062030D01*
X0062813Y0062030D02*
X0068812Y0062030D01*
X0068832Y0062050D02*
X0066031Y0059250D01*
X0066031Y0055289D01*
X0068832Y0052488D01*
X0072793Y0052488D01*
X0075594Y0055289D01*
X0075594Y0059250D01*
X0072793Y0062050D01*
X0068832Y0062050D01*
X0067614Y0060832D02*
X0064011Y0060832D01*
X0065210Y0059633D02*
X0066415Y0059633D01*
X0066031Y0058435D02*
X0065594Y0058435D01*
X0065594Y0057236D02*
X0066031Y0057236D01*
X0066031Y0056038D02*
X0065594Y0056038D01*
X0065144Y0054839D02*
X0066481Y0054839D01*
X0067680Y0053641D02*
X0063946Y0053641D01*
X0063600Y0051244D02*
X0068026Y0051244D01*
X0068832Y0052050D02*
X0066031Y0049250D01*
X0066031Y0045289D01*
X0068832Y0042488D01*
X0072793Y0042488D01*
X0075594Y0045289D01*
X0075594Y0049250D01*
X0072793Y0052050D01*
X0068832Y0052050D01*
X0066827Y0050045D02*
X0064798Y0050045D01*
X0065594Y0048847D02*
X0066031Y0048847D01*
X0066031Y0047648D02*
X0065594Y0047648D01*
X0065594Y0046450D02*
X0066031Y0046450D01*
X0066069Y0045251D02*
X0065556Y0045251D01*
X0064358Y0044053D02*
X0067268Y0044053D01*
X0068466Y0042854D02*
X0063159Y0042854D01*
X0058466Y0042854D02*
X0003184Y0042854D01*
X0003184Y0044053D02*
X0057268Y0044053D01*
X0056069Y0045251D02*
X0003184Y0045251D01*
X0003184Y0046450D02*
X0056031Y0046450D01*
X0056031Y0047648D02*
X0003184Y0047648D01*
X0003184Y0048847D02*
X0056031Y0048847D01*
X0056827Y0050045D02*
X0003184Y0050045D01*
X0003184Y0063229D02*
X0324425Y0063229D01*
X0324425Y0064427D02*
X0003184Y0064427D01*
X0003184Y0065626D02*
X0324425Y0065626D01*
X0324425Y0066824D02*
X0003184Y0066824D01*
X0003184Y0068023D02*
X0324425Y0068023D01*
X0324425Y0069221D02*
X0003184Y0069221D01*
X0003184Y0070420D02*
X0324425Y0070420D01*
X0324425Y0071619D02*
X0003184Y0071619D01*
X0003184Y0072817D02*
X0324425Y0072817D01*
X0324425Y0074016D02*
X0003184Y0074016D01*
X0003184Y0075214D02*
X0324425Y0075214D01*
X0324425Y0076413D02*
X0003184Y0076413D01*
X0003184Y0077611D02*
X0324425Y0077611D01*
X0324425Y0078810D02*
X0003184Y0078810D01*
X0003184Y0080008D02*
X0324425Y0080008D01*
X0324425Y0081207D02*
X0003184Y0081207D01*
X0003184Y0082405D02*
X0324425Y0082405D01*
X0324425Y0083604D02*
X0003184Y0083604D01*
X0003184Y0084802D02*
X0324425Y0084802D01*
X0324425Y0086001D02*
X0003184Y0086001D01*
X0003184Y0087199D02*
X0324425Y0087199D01*
X0324425Y0088398D02*
X0003184Y0088398D01*
X0003184Y0089596D02*
X0324425Y0089596D01*
X0324425Y0090795D02*
X0003184Y0090795D01*
X0003184Y0091993D02*
X0324425Y0091993D01*
X0324425Y0093192D02*
X0003184Y0093192D01*
X0003184Y0094390D02*
X0324425Y0094390D01*
X0324425Y0095589D02*
X0003184Y0095589D01*
X0003184Y0096787D02*
X0324425Y0096787D01*
X0324425Y0097986D02*
X0003184Y0097986D01*
X0003184Y0099184D02*
X0324425Y0099184D01*
X0324425Y0100383D02*
X0003184Y0100383D01*
X0003184Y0101581D02*
X0324425Y0101581D01*
X0324425Y0102780D02*
X0003184Y0102780D01*
X0003184Y0103978D02*
X0324425Y0103978D01*
X0324425Y0105177D02*
X0003184Y0105177D01*
X0003184Y0106375D02*
X0324425Y0106375D01*
X0324425Y0107574D02*
X0003184Y0107574D01*
X0003184Y0108772D02*
X0324425Y0108772D01*
X0324425Y0109971D02*
X0003184Y0109971D01*
X0003184Y0111169D02*
X0324425Y0111169D01*
X0324425Y0112368D02*
X0003184Y0112368D01*
X0003184Y0113566D02*
X0324425Y0113566D01*
X0324425Y0114765D02*
X0110630Y0114765D01*
X0111434Y0115098D02*
X0109677Y0114370D01*
X0107775Y0114370D01*
X0106018Y0115098D01*
X0104673Y0116443D01*
X0103945Y0118200D01*
X0103945Y0126102D01*
X0104673Y0127859D01*
X0106018Y0129204D01*
X0107775Y0129932D01*
X0109677Y0129932D01*
X0111434Y0129204D01*
X0112779Y0127859D01*
X0113507Y0126102D01*
X0113507Y0118200D01*
X0112779Y0116443D01*
X0111434Y0115098D01*
X0112300Y0115963D02*
X0324425Y0115963D01*
X0324425Y0117162D02*
X0113077Y0117162D01*
X0113507Y0118360D02*
X0324425Y0118360D01*
X0324425Y0119559D02*
X0113507Y0119559D01*
X0113507Y0120757D02*
X0324425Y0120757D01*
X0324425Y0121956D02*
X0113507Y0121956D01*
X0113507Y0123155D02*
X0250438Y0123155D01*
X0250428Y0123159D02*
X0252312Y0122378D01*
X0254352Y0122378D01*
X0256237Y0123159D01*
X0257679Y0124601D01*
X0258460Y0126486D01*
X0258460Y0128525D01*
X0257679Y0130410D01*
X0256237Y0131852D01*
X0254352Y0132633D01*
X0252312Y0132633D01*
X0250428Y0131852D01*
X0248985Y0130410D01*
X0248205Y0128525D01*
X0248205Y0126486D01*
X0248985Y0124601D01*
X0250428Y0123159D01*
X0249233Y0124353D02*
X0113507Y0124353D01*
X0113507Y0125552D02*
X0248592Y0125552D01*
X0248205Y0126750D02*
X0113239Y0126750D01*
X0112690Y0127949D02*
X0248205Y0127949D01*
X0248462Y0129147D02*
X0111492Y0129147D01*
X0105960Y0129147D02*
X0101492Y0129147D01*
X0101434Y0129204D02*
X0099677Y0129932D01*
X0097775Y0129932D01*
X0096018Y0129204D01*
X0094673Y0127859D01*
X0093945Y0126102D01*
X0093945Y0118200D01*
X0094673Y0116443D01*
X0096018Y0115098D01*
X0097775Y0114370D01*
X0099677Y0114370D01*
X0101434Y0115098D01*
X0102779Y0116443D01*
X0103507Y0118200D01*
X0103507Y0126102D01*
X0102779Y0127859D01*
X0101434Y0129204D01*
X0102690Y0127949D02*
X0104762Y0127949D01*
X0104213Y0126750D02*
X0103239Y0126750D01*
X0103507Y0125552D02*
X0103945Y0125552D01*
X0103945Y0124353D02*
X0103507Y0124353D01*
X0103507Y0123155D02*
X0103945Y0123155D01*
X0103945Y0121956D02*
X0103507Y0121956D01*
X0103507Y0120757D02*
X0103945Y0120757D01*
X0103945Y0119559D02*
X0103507Y0119559D01*
X0103507Y0118360D02*
X0103945Y0118360D01*
X0104375Y0117162D02*
X0103077Y0117162D01*
X0102300Y0115963D02*
X0105152Y0115963D01*
X0106822Y0114765D02*
X0100630Y0114765D01*
X0096822Y0114765D02*
X0090630Y0114765D01*
X0091434Y0115098D02*
X0092779Y0116443D01*
X0093507Y0118200D01*
X0093507Y0126102D01*
X0092779Y0127859D01*
X0091434Y0129204D01*
X0089677Y0129932D01*
X0087775Y0129932D01*
X0086018Y0129204D01*
X0084673Y0127859D01*
X0083945Y0126102D01*
X0083945Y0118200D01*
X0084673Y0116443D01*
X0086018Y0115098D01*
X0087775Y0114370D01*
X0089677Y0114370D01*
X0091434Y0115098D01*
X0092300Y0115963D02*
X0095152Y0115963D01*
X0094375Y0117162D02*
X0093077Y0117162D01*
X0093507Y0118360D02*
X0093945Y0118360D01*
X0093945Y0119559D02*
X0093507Y0119559D01*
X0093507Y0120757D02*
X0093945Y0120757D01*
X0093945Y0121956D02*
X0093507Y0121956D01*
X0093507Y0123155D02*
X0093945Y0123155D01*
X0093945Y0124353D02*
X0093507Y0124353D01*
X0093507Y0125552D02*
X0093945Y0125552D01*
X0094213Y0126750D02*
X0093239Y0126750D01*
X0092690Y0127949D02*
X0094762Y0127949D01*
X0095960Y0129147D02*
X0091492Y0129147D01*
X0085960Y0129147D02*
X0081492Y0129147D01*
X0081434Y0129204D02*
X0079677Y0129932D01*
X0077775Y0129932D01*
X0076018Y0129204D01*
X0074673Y0127859D01*
X0073945Y0126102D01*
X0073945Y0118200D01*
X0074673Y0116443D01*
X0076018Y0115098D01*
X0077775Y0114370D01*
X0079677Y0114370D01*
X0081434Y0115098D01*
X0082779Y0116443D01*
X0083507Y0118200D01*
X0083507Y0126102D01*
X0082779Y0127859D01*
X0081434Y0129204D01*
X0082690Y0127949D02*
X0084762Y0127949D01*
X0084213Y0126750D02*
X0083239Y0126750D01*
X0083507Y0125552D02*
X0083945Y0125552D01*
X0083945Y0124353D02*
X0083507Y0124353D01*
X0083507Y0123155D02*
X0083945Y0123155D01*
X0083945Y0121956D02*
X0083507Y0121956D01*
X0083507Y0120757D02*
X0083945Y0120757D01*
X0083945Y0119559D02*
X0083507Y0119559D01*
X0083507Y0118360D02*
X0083945Y0118360D01*
X0084375Y0117162D02*
X0083077Y0117162D01*
X0082300Y0115963D02*
X0085152Y0115963D01*
X0086822Y0114765D02*
X0080630Y0114765D01*
X0076822Y0114765D02*
X0070630Y0114765D01*
X0071434Y0115098D02*
X0072779Y0116443D01*
X0073507Y0118200D01*
X0073507Y0126102D01*
X0072779Y0127859D01*
X0071434Y0129204D01*
X0069677Y0129932D01*
X0067775Y0129932D01*
X0066018Y0129204D01*
X0064673Y0127859D01*
X0063945Y0126102D01*
X0063945Y0118200D01*
X0064673Y0116443D01*
X0066018Y0115098D01*
X0067775Y0114370D01*
X0069677Y0114370D01*
X0071434Y0115098D01*
X0072300Y0115963D02*
X0075152Y0115963D01*
X0074375Y0117162D02*
X0073077Y0117162D01*
X0073507Y0118360D02*
X0073945Y0118360D01*
X0073945Y0119559D02*
X0073507Y0119559D01*
X0073507Y0120757D02*
X0073945Y0120757D01*
X0073945Y0121956D02*
X0073507Y0121956D01*
X0073507Y0123155D02*
X0073945Y0123155D01*
X0073945Y0124353D02*
X0073507Y0124353D01*
X0073507Y0125552D02*
X0073945Y0125552D01*
X0074213Y0126750D02*
X0073239Y0126750D01*
X0072690Y0127949D02*
X0074762Y0127949D01*
X0075960Y0129147D02*
X0071492Y0129147D01*
X0065960Y0129147D02*
X0061492Y0129147D01*
X0061434Y0129204D02*
X0059677Y0129932D01*
X0057775Y0129932D01*
X0056018Y0129204D01*
X0054673Y0127859D01*
X0053945Y0126102D01*
X0053945Y0118200D01*
X0054673Y0116443D01*
X0056018Y0115098D01*
X0057775Y0114370D01*
X0059677Y0114370D01*
X0061434Y0115098D01*
X0062779Y0116443D01*
X0063507Y0118200D01*
X0063507Y0126102D01*
X0062779Y0127859D01*
X0061434Y0129204D01*
X0062690Y0127949D02*
X0064762Y0127949D01*
X0064213Y0126750D02*
X0063239Y0126750D01*
X0063507Y0125552D02*
X0063945Y0125552D01*
X0063945Y0124353D02*
X0063507Y0124353D01*
X0063507Y0123155D02*
X0063945Y0123155D01*
X0063945Y0121956D02*
X0063507Y0121956D01*
X0063507Y0120757D02*
X0063945Y0120757D01*
X0063945Y0119559D02*
X0063507Y0119559D01*
X0063507Y0118360D02*
X0063945Y0118360D01*
X0064375Y0117162D02*
X0063077Y0117162D01*
X0062300Y0115963D02*
X0065152Y0115963D01*
X0066822Y0114765D02*
X0060630Y0114765D01*
X0056822Y0114765D02*
X0003184Y0114765D01*
X0003184Y0115963D02*
X0055152Y0115963D01*
X0054375Y0117162D02*
X0003184Y0117162D01*
X0003184Y0118360D02*
X0053945Y0118360D01*
X0053945Y0119559D02*
X0003184Y0119559D01*
X0003184Y0120757D02*
X0053945Y0120757D01*
X0053945Y0121956D02*
X0003184Y0121956D01*
X0003184Y0123155D02*
X0053945Y0123155D01*
X0053945Y0124353D02*
X0003184Y0124353D01*
X0003184Y0125552D02*
X0053945Y0125552D01*
X0054213Y0126750D02*
X0003184Y0126750D01*
X0003184Y0127949D02*
X0054762Y0127949D01*
X0055960Y0129147D02*
X0003184Y0129147D01*
X0003184Y0130346D02*
X0248959Y0130346D01*
X0250119Y0131544D02*
X0003184Y0131544D01*
X0003184Y0132743D02*
X0324425Y0132743D01*
X0324425Y0133941D02*
X0003184Y0133941D01*
X0003184Y0135140D02*
X0324425Y0135140D01*
X0324425Y0136338D02*
X0003184Y0136338D01*
X0003184Y0137537D02*
X0324425Y0137537D01*
X0324425Y0138735D02*
X0003184Y0138735D01*
X0003184Y0139934D02*
X0094349Y0139934D01*
X0094343Y0139938D02*
X0094892Y0139571D01*
X0095503Y0139318D01*
X0096151Y0139189D01*
X0096482Y0139189D01*
X0096812Y0139189D01*
X0097461Y0139318D01*
X0098072Y0139571D01*
X0098621Y0139938D01*
X0099089Y0140406D01*
X0099456Y0140955D01*
X0099709Y0141566D01*
X0099838Y0142214D01*
X0099838Y0142545D01*
X0099838Y0142875D01*
X0099709Y0143524D01*
X0099456Y0144134D01*
X0099089Y0144684D01*
X0098621Y0145152D01*
X0098072Y0145519D01*
X0097461Y0145772D01*
X0096812Y0145901D01*
X0096482Y0145901D01*
X0096482Y0142545D01*
X0096482Y0142545D01*
X0099838Y0142545D01*
X0096482Y0142545D01*
X0096482Y0142545D01*
X0096482Y0141757D01*
X0096088Y0141364D01*
X0096482Y0141132D02*
X0096482Y0141132D01*
X0096482Y0139934D02*
X0096482Y0139934D01*
X0096482Y0139189D02*
X0096482Y0142545D01*
X0096482Y0145901D01*
X0096151Y0145901D01*
X0095503Y0145772D01*
X0094892Y0145519D01*
X0094343Y0145152D01*
X0093875Y0144684D01*
X0093508Y0144134D01*
X0093255Y0143524D01*
X0093126Y0142875D01*
X0093126Y0142545D01*
X0096482Y0142545D01*
X0096482Y0142545D01*
X0096482Y0142545D01*
X0096482Y0139189D01*
X0098614Y0139934D02*
X0324425Y0139934D01*
X0324425Y0141132D02*
X0099529Y0141132D01*
X0099838Y0142331D02*
X0324425Y0142331D01*
X0324425Y0143529D02*
X0099707Y0143529D01*
X0099045Y0144728D02*
X0324425Y0144728D01*
X0324425Y0145926D02*
X0003184Y0145926D01*
X0003184Y0144728D02*
X0093919Y0144728D01*
X0093257Y0143529D02*
X0003184Y0143529D01*
X0003184Y0142331D02*
X0093126Y0142331D01*
X0093126Y0142214D02*
X0093255Y0141566D01*
X0093508Y0140955D01*
X0093875Y0140406D01*
X0094343Y0139938D01*
X0093435Y0141132D02*
X0003184Y0141132D01*
X0003184Y0147125D02*
X0324425Y0147125D01*
X0324425Y0148323D02*
X0003184Y0148323D01*
X0003184Y0149522D02*
X0324425Y0149522D01*
X0324425Y0150720D02*
X0117188Y0150720D01*
X0116913Y0150606D02*
X0118291Y0151177D01*
X0119346Y0152232D01*
X0119917Y0153610D01*
X0119917Y0155102D01*
X0119346Y0156480D01*
X0118291Y0157535D01*
X0116913Y0158105D01*
X0115421Y0158105D01*
X0114043Y0157535D01*
X0113245Y0156737D01*
X0074240Y0156737D01*
X0067161Y0163816D01*
X0067161Y0164944D01*
X0066590Y0166322D01*
X0065535Y0167377D01*
X0064157Y0167948D01*
X0062665Y0167948D01*
X0061287Y0167377D01*
X0060232Y0166322D01*
X0059661Y0164944D01*
X0059661Y0163453D01*
X0060232Y0162074D01*
X0061287Y0161020D01*
X0062665Y0160449D01*
X0063793Y0160449D01*
X0072267Y0151975D01*
X0113245Y0151975D01*
X0114043Y0151177D01*
X0115421Y0150606D01*
X0116913Y0150606D01*
X0115146Y0150720D02*
X0003184Y0150720D01*
X0003184Y0151919D02*
X0113301Y0151919D01*
X0116167Y0154356D02*
X0073254Y0154356D01*
X0063411Y0164198D01*
X0060800Y0161507D02*
X0003184Y0161507D01*
X0003184Y0162705D02*
X0059971Y0162705D01*
X0059661Y0163904D02*
X0003184Y0163904D01*
X0003184Y0165102D02*
X0059727Y0165102D01*
X0060223Y0166301D02*
X0003184Y0166301D01*
X0003184Y0167499D02*
X0061582Y0167499D01*
X0065240Y0167499D02*
X0324425Y0167499D01*
X0324425Y0166301D02*
X0066599Y0166301D01*
X0067095Y0165102D02*
X0324425Y0165102D01*
X0324425Y0163904D02*
X0067161Y0163904D01*
X0068271Y0162705D02*
X0324425Y0162705D01*
X0324425Y0161507D02*
X0069470Y0161507D01*
X0070668Y0160308D02*
X0324425Y0160308D01*
X0324425Y0159110D02*
X0071867Y0159110D01*
X0073065Y0157911D02*
X0114952Y0157911D01*
X0117382Y0157911D02*
X0324425Y0157911D01*
X0324425Y0156713D02*
X0161863Y0156713D01*
X0162081Y0156495D02*
X0161613Y0156963D01*
X0161064Y0157330D01*
X0160453Y0157583D01*
X0159805Y0157712D01*
X0159474Y0157712D01*
X0159143Y0157712D01*
X0158495Y0157583D01*
X0157884Y0157330D01*
X0157335Y0156963D01*
X0156867Y0156495D01*
X0156500Y0155946D01*
X0156247Y0155335D01*
X0156118Y0154686D01*
X0156118Y0154356D01*
X0159474Y0154356D01*
X0159474Y0157712D01*
X0159474Y0154356D01*
X0159474Y0154356D01*
X0159474Y0154356D01*
X0162830Y0154356D01*
X0162830Y0154686D01*
X0162701Y0155335D01*
X0162448Y0155946D01*
X0162081Y0156495D01*
X0162627Y0155514D02*
X0324425Y0155514D01*
X0324425Y0154316D02*
X0162830Y0154316D01*
X0162830Y0154356D02*
X0159474Y0154356D01*
X0159474Y0154356D01*
X0156118Y0154356D01*
X0156118Y0154025D01*
X0156247Y0153377D01*
X0156500Y0152766D01*
X0156867Y0152217D01*
X0157335Y0151749D01*
X0157884Y0151382D01*
X0158495Y0151129D01*
X0159143Y0151000D01*
X0159474Y0151000D01*
X0159805Y0151000D01*
X0160453Y0151129D01*
X0161064Y0151382D01*
X0161613Y0151749D01*
X0162081Y0152217D01*
X0162448Y0152766D01*
X0162701Y0153377D01*
X0162830Y0154025D01*
X0162830Y0154356D01*
X0162593Y0153117D02*
X0324425Y0153117D01*
X0324425Y0151919D02*
X0161783Y0151919D01*
X0159474Y0151919D02*
X0159474Y0151919D01*
X0159474Y0151000D02*
X0159474Y0154356D01*
X0159474Y0154356D01*
X0159474Y0151000D01*
X0159474Y0153117D02*
X0159474Y0153117D01*
X0159474Y0154316D02*
X0159474Y0154316D01*
X0159474Y0155514D02*
X0159474Y0155514D01*
X0159474Y0156713D02*
X0159474Y0156713D01*
X0157085Y0156713D02*
X0119113Y0156713D01*
X0119746Y0155514D02*
X0156321Y0155514D01*
X0156118Y0154316D02*
X0119917Y0154316D01*
X0119712Y0153117D02*
X0156355Y0153117D01*
X0157165Y0151919D02*
X0119033Y0151919D01*
X0096482Y0144728D02*
X0096482Y0144728D01*
X0096482Y0143529D02*
X0096482Y0143529D01*
X0096482Y0142545D02*
X0093126Y0142545D01*
X0093126Y0142214D01*
X0096482Y0142331D02*
X0096482Y0142331D01*
X0071125Y0153117D02*
X0003184Y0153117D01*
X0003184Y0154316D02*
X0069926Y0154316D01*
X0068728Y0155514D02*
X0003184Y0155514D01*
X0003184Y0156713D02*
X0067529Y0156713D01*
X0066331Y0157911D02*
X0003184Y0157911D01*
X0003184Y0159110D02*
X0065132Y0159110D01*
X0063934Y0160308D02*
X0003184Y0160308D01*
X0003184Y0168698D02*
X0324425Y0168698D01*
X0324425Y0169896D02*
X0003184Y0169896D01*
X0003184Y0171095D02*
X0324425Y0171095D01*
X0324425Y0172293D02*
X0003184Y0172293D01*
X0003184Y0173492D02*
X0324425Y0173492D01*
X0324425Y0174690D02*
X0003184Y0174690D01*
X0003184Y0175889D02*
X0324425Y0175889D01*
X0324425Y0177088D02*
X0003184Y0177088D01*
X0003184Y0178286D02*
X0324425Y0178286D01*
X0324425Y0179485D02*
X0003184Y0179485D01*
X0003184Y0180683D02*
X0324425Y0180683D01*
X0324425Y0181882D02*
X0003184Y0181882D01*
X0003184Y0183080D02*
X0324425Y0183080D01*
X0324425Y0184279D02*
X0003184Y0184279D01*
X0003184Y0185477D02*
X0324425Y0185477D01*
X0324425Y0186676D02*
X0081987Y0186676D01*
X0081713Y0186562D02*
X0082323Y0186815D01*
X0082873Y0187182D01*
X0083341Y0187650D01*
X0083708Y0188199D01*
X0083961Y0188810D01*
X0084090Y0189458D01*
X0084090Y0189789D01*
X0084090Y0190120D01*
X0083961Y0190768D01*
X0083708Y0191379D01*
X0083341Y0191928D01*
X0082873Y0192396D01*
X0082323Y0192763D01*
X0081713Y0193016D01*
X0081064Y0193145D01*
X0080734Y0193145D01*
X0080734Y0189789D01*
X0084090Y0189789D01*
X0080734Y0189789D01*
X0080734Y0189789D01*
X0080734Y0189789D01*
X0081915Y0189789D01*
X0082309Y0190183D01*
X0080734Y0190271D02*
X0080734Y0190271D01*
X0080734Y0189789D02*
X0080734Y0193145D01*
X0080403Y0193145D01*
X0079755Y0193016D01*
X0079144Y0192763D01*
X0078595Y0192396D01*
X0078127Y0191928D01*
X0077760Y0191379D01*
X0077507Y0190768D01*
X0077378Y0190120D01*
X0077378Y0189789D01*
X0080734Y0189789D01*
X0080734Y0186433D01*
X0081064Y0186433D01*
X0081713Y0186562D01*
X0080734Y0186676D02*
X0080734Y0186676D01*
X0080734Y0186433D02*
X0080734Y0189789D01*
X0080734Y0189789D01*
X0080734Y0189789D01*
X0077378Y0189789D01*
X0077378Y0189458D01*
X0077507Y0188810D01*
X0077760Y0188199D01*
X0078127Y0187650D01*
X0078595Y0187182D01*
X0079144Y0186815D01*
X0079755Y0186562D01*
X0080403Y0186433D01*
X0080734Y0186433D01*
X0079481Y0186676D02*
X0003184Y0186676D01*
X0003184Y0187874D02*
X0077977Y0187874D01*
X0077455Y0189073D02*
X0003184Y0189073D01*
X0003184Y0190271D02*
X0077408Y0190271D01*
X0077821Y0191470D02*
X0003184Y0191470D01*
X0003184Y0192668D02*
X0079002Y0192668D01*
X0080734Y0192668D02*
X0080734Y0192668D01*
X0080734Y0191470D02*
X0080734Y0191470D01*
X0082465Y0192668D02*
X0324425Y0192668D01*
X0324425Y0191470D02*
X0083647Y0191470D01*
X0084060Y0190271D02*
X0324425Y0190271D01*
X0324425Y0189073D02*
X0084013Y0189073D01*
X0083490Y0187874D02*
X0324425Y0187874D01*
X0324425Y0193867D02*
X0003184Y0193867D01*
X0003184Y0195065D02*
X0324425Y0195065D01*
X0324425Y0196264D02*
X0003184Y0196264D01*
X0003184Y0197462D02*
X0324425Y0197462D01*
X0324425Y0198661D02*
X0003184Y0198661D01*
X0003184Y0199859D02*
X0324425Y0199859D01*
X0324425Y0201058D02*
X0003184Y0201058D01*
X0003184Y0202256D02*
X0324425Y0202256D01*
X0324425Y0203455D02*
X0003184Y0203455D01*
X0003184Y0204653D02*
X0324425Y0204653D01*
X0324425Y0205852D02*
X0003184Y0205852D01*
X0003184Y0207050D02*
X0324425Y0207050D01*
X0324425Y0208249D02*
X0003184Y0208249D01*
X0003184Y0209447D02*
X0324425Y0209447D01*
X0324425Y0210646D02*
X0003184Y0210646D01*
X0003184Y0211844D02*
X0324425Y0211844D01*
X0324425Y0213043D02*
X0003184Y0213043D01*
X0003184Y0214241D02*
X0324425Y0214241D01*
X0324425Y0215440D02*
X0003184Y0215440D01*
X0003184Y0216638D02*
X0324425Y0216638D01*
X0324425Y0217837D02*
X0003184Y0217837D01*
X0003184Y0219035D02*
X0324425Y0219035D01*
X0324425Y0220234D02*
X0003184Y0220234D01*
X0003184Y0221432D02*
X0324425Y0221432D01*
X0324425Y0222631D02*
X0205186Y0222631D01*
X0205135Y0222605D02*
X0205750Y0222918D01*
X0206309Y0223324D01*
X0206797Y0223813D01*
X0207203Y0224371D01*
X0207516Y0224987D01*
X0207730Y0225643D01*
X0207838Y0226326D01*
X0207838Y0229271D01*
X0203850Y0229271D01*
X0203850Y0222292D01*
X0204478Y0222391D01*
X0205135Y0222605D01*
X0203850Y0222631D02*
X0203050Y0222631D01*
X0203050Y0222292D02*
X0203050Y0229271D01*
X0199063Y0229271D01*
X0199063Y0226326D01*
X0199171Y0225643D01*
X0199384Y0224987D01*
X0199698Y0224371D01*
X0200104Y0223813D01*
X0200592Y0223324D01*
X0201151Y0222918D01*
X0201766Y0222605D01*
X0202423Y0222391D01*
X0203050Y0222292D01*
X0201715Y0222631D02*
X0196172Y0222631D01*
X0196159Y0222618D02*
X0197504Y0223963D01*
X0198231Y0225720D01*
X0198231Y0233622D01*
X0197504Y0235379D01*
X0196159Y0236724D01*
X0194401Y0237452D01*
X0192499Y0237452D01*
X0190742Y0236724D01*
X0189397Y0235379D01*
X0188669Y0233622D01*
X0188669Y0225720D01*
X0189397Y0223963D01*
X0190742Y0222618D01*
X0192499Y0221890D01*
X0194401Y0221890D01*
X0196159Y0222618D01*
X0197370Y0223829D02*
X0200092Y0223829D01*
X0199371Y0225028D02*
X0197945Y0225028D01*
X0198231Y0226226D02*
X0199079Y0226226D01*
X0199063Y0227425D02*
X0198231Y0227425D01*
X0198231Y0228623D02*
X0199063Y0228623D01*
X0199063Y0230071D02*
X0203050Y0230071D01*
X0203050Y0229271D01*
X0203850Y0229271D01*
X0203850Y0230071D01*
X0203050Y0230071D01*
X0203050Y0237050D01*
X0202423Y0236950D01*
X0201766Y0236737D01*
X0201151Y0236423D01*
X0200592Y0236017D01*
X0200104Y0235529D01*
X0199698Y0234970D01*
X0199384Y0234355D01*
X0199171Y0233698D01*
X0199063Y0233016D01*
X0199063Y0230071D01*
X0198231Y0229822D02*
X0203050Y0229822D01*
X0203850Y0229822D02*
X0324425Y0229822D01*
X0324425Y0228623D02*
X0207838Y0228623D01*
X0207838Y0227425D02*
X0324425Y0227425D01*
X0324425Y0226226D02*
X0207822Y0226226D01*
X0207530Y0225028D02*
X0324425Y0225028D01*
X0324425Y0223829D02*
X0206809Y0223829D01*
X0203850Y0223829D02*
X0203050Y0223829D01*
X0203050Y0225028D02*
X0203850Y0225028D01*
X0203850Y0226226D02*
X0203050Y0226226D01*
X0203050Y0227425D02*
X0203850Y0227425D01*
X0203850Y0228623D02*
X0203050Y0228623D01*
X0203850Y0230071D02*
X0207838Y0230071D01*
X0207838Y0233016D01*
X0207730Y0233698D01*
X0207516Y0234355D01*
X0207203Y0234970D01*
X0206797Y0235529D01*
X0206309Y0236017D01*
X0205750Y0236423D01*
X0205135Y0236737D01*
X0204478Y0236950D01*
X0203850Y0237050D01*
X0203850Y0230071D01*
X0203850Y0231021D02*
X0203050Y0231021D01*
X0203050Y0232219D02*
X0203850Y0232219D01*
X0203850Y0233418D02*
X0203050Y0233418D01*
X0203050Y0234616D02*
X0203850Y0234616D01*
X0203850Y0235815D02*
X0203050Y0235815D01*
X0203050Y0237013D02*
X0203850Y0237013D01*
X0204081Y0237013D02*
X0324425Y0237013D01*
X0324425Y0235815D02*
X0206511Y0235815D01*
X0207383Y0234616D02*
X0324425Y0234616D01*
X0324425Y0233418D02*
X0207774Y0233418D01*
X0207838Y0232219D02*
X0324425Y0232219D01*
X0324425Y0231021D02*
X0207838Y0231021D01*
X0202820Y0237013D02*
X0195461Y0237013D01*
X0197068Y0235815D02*
X0200389Y0235815D01*
X0199517Y0234616D02*
X0197820Y0234616D01*
X0198231Y0233418D02*
X0199127Y0233418D01*
X0199063Y0232219D02*
X0198231Y0232219D01*
X0198231Y0231021D02*
X0199063Y0231021D01*
X0191440Y0237013D02*
X0185461Y0237013D01*
X0186159Y0236724D02*
X0184401Y0237452D01*
X0182499Y0237452D01*
X0180742Y0236724D01*
X0179397Y0235379D01*
X0178669Y0233622D01*
X0178669Y0225720D01*
X0179397Y0223963D01*
X0180742Y0222618D01*
X0182499Y0221890D01*
X0184401Y0221890D01*
X0186159Y0222618D01*
X0187504Y0223963D01*
X0188231Y0225720D01*
X0188231Y0233622D01*
X0187504Y0235379D01*
X0186159Y0236724D01*
X0187068Y0235815D02*
X0189833Y0235815D01*
X0189081Y0234616D02*
X0187820Y0234616D01*
X0188231Y0233418D02*
X0188669Y0233418D01*
X0188669Y0232219D02*
X0188231Y0232219D01*
X0188231Y0231021D02*
X0188669Y0231021D01*
X0188669Y0229822D02*
X0188231Y0229822D01*
X0188231Y0228623D02*
X0188669Y0228623D01*
X0188669Y0227425D02*
X0188231Y0227425D01*
X0188231Y0226226D02*
X0188669Y0226226D01*
X0188956Y0225028D02*
X0187945Y0225028D01*
X0187370Y0223829D02*
X0189530Y0223829D01*
X0190729Y0222631D02*
X0186172Y0222631D01*
X0180729Y0222631D02*
X0176172Y0222631D01*
X0176159Y0222618D02*
X0177504Y0223963D01*
X0178231Y0225720D01*
X0178231Y0233622D01*
X0177504Y0235379D01*
X0176159Y0236724D01*
X0174401Y0237452D01*
X0172499Y0237452D01*
X0170742Y0236724D01*
X0169397Y0235379D01*
X0168669Y0233622D01*
X0168669Y0225720D01*
X0169397Y0223963D01*
X0170742Y0222618D01*
X0172499Y0221890D01*
X0174401Y0221890D01*
X0176159Y0222618D01*
X0177370Y0223829D02*
X0179530Y0223829D01*
X0178956Y0225028D02*
X0177945Y0225028D01*
X0178231Y0226226D02*
X0178669Y0226226D01*
X0178669Y0227425D02*
X0178231Y0227425D01*
X0178231Y0228623D02*
X0178669Y0228623D01*
X0178669Y0229822D02*
X0178231Y0229822D01*
X0178231Y0231021D02*
X0178669Y0231021D01*
X0178669Y0232219D02*
X0178231Y0232219D01*
X0178231Y0233418D02*
X0178669Y0233418D01*
X0179081Y0234616D02*
X0177820Y0234616D01*
X0177068Y0235815D02*
X0179833Y0235815D01*
X0181440Y0237013D02*
X0175461Y0237013D01*
X0171440Y0237013D02*
X0003184Y0237013D01*
X0003184Y0235815D02*
X0169833Y0235815D01*
X0169081Y0234616D02*
X0003184Y0234616D01*
X0003184Y0233418D02*
X0168669Y0233418D01*
X0168669Y0232219D02*
X0003184Y0232219D01*
X0003184Y0231021D02*
X0168669Y0231021D01*
X0168669Y0229822D02*
X0003184Y0229822D01*
X0003184Y0228623D02*
X0088838Y0228623D01*
X0088757Y0228542D02*
X0088390Y0227993D01*
X0088137Y0227382D01*
X0088008Y0226734D01*
X0088008Y0226403D01*
X0088008Y0226073D01*
X0088137Y0225424D01*
X0088390Y0224814D01*
X0088757Y0224264D01*
X0089225Y0223796D01*
X0089774Y0223429D01*
X0090385Y0223176D01*
X0091033Y0223047D01*
X0091364Y0223047D01*
X0091694Y0223047D01*
X0092343Y0223176D01*
X0092953Y0223429D01*
X0093503Y0223796D01*
X0093970Y0224264D01*
X0094338Y0224814D01*
X0094591Y0225424D01*
X0094720Y0226073D01*
X0094720Y0226403D01*
X0091364Y0226403D01*
X0091364Y0226403D01*
X0091364Y0223047D01*
X0091364Y0226403D01*
X0091364Y0226403D01*
X0094720Y0226403D01*
X0094720Y0226734D01*
X0094591Y0227382D01*
X0094338Y0227993D01*
X0093970Y0228542D01*
X0093503Y0229010D01*
X0092953Y0229377D01*
X0092343Y0229630D01*
X0091694Y0229759D01*
X0091364Y0229759D01*
X0091364Y0226403D01*
X0089002Y0226403D01*
X0088008Y0226403D02*
X0091364Y0226403D01*
X0091364Y0226403D01*
X0091364Y0226403D01*
X0091364Y0229759D01*
X0091033Y0229759D01*
X0090385Y0229630D01*
X0089774Y0229377D01*
X0089225Y0229010D01*
X0088757Y0228542D01*
X0088155Y0227425D02*
X0003184Y0227425D01*
X0003184Y0226226D02*
X0088008Y0226226D01*
X0088008Y0226403D02*
X0091364Y0226403D01*
X0091364Y0226226D02*
X0091364Y0226226D01*
X0091364Y0225028D02*
X0091364Y0225028D01*
X0091364Y0223829D02*
X0091364Y0223829D01*
X0093536Y0223829D02*
X0169530Y0223829D01*
X0168956Y0225028D02*
X0094427Y0225028D01*
X0094720Y0226226D02*
X0168669Y0226226D01*
X0168669Y0227425D02*
X0094573Y0227425D01*
X0093889Y0228623D02*
X0168669Y0228623D01*
X0170729Y0222631D02*
X0003184Y0222631D01*
X0003184Y0223829D02*
X0089191Y0223829D01*
X0088301Y0225028D02*
X0003184Y0225028D01*
X0003184Y0238212D02*
X0324425Y0238212D01*
X0324425Y0239410D02*
X0313372Y0239410D01*
X0316776Y0240609D02*
X0324425Y0240609D01*
X0324425Y0241807D02*
X0318852Y0241807D01*
X0320178Y0243006D02*
X0324425Y0243006D01*
X0324425Y0244204D02*
X0321376Y0244204D01*
X0322268Y0245403D02*
X0324425Y0245403D01*
X0324425Y0246601D02*
X0322960Y0246601D01*
X0323652Y0247800D02*
X0324425Y0247800D01*
X0324425Y0248998D02*
X0324029Y0248998D01*
X0324350Y0250197D02*
X0324425Y0250197D01*
X0307151Y0239410D02*
X0021928Y0239410D01*
X0024545Y0240609D02*
X0303746Y0240609D01*
X0301670Y0241807D02*
X0026460Y0241807D01*
X0027658Y0243006D02*
X0300345Y0243006D01*
X0299146Y0244204D02*
X0028857Y0244204D01*
X0029582Y0245403D02*
X0298255Y0245403D01*
X0297563Y0246601D02*
X0030274Y0246601D01*
X0030900Y0247800D02*
X0296871Y0247800D01*
X0296494Y0248998D02*
X0031221Y0248998D01*
X0031542Y0250197D02*
X0296173Y0250197D01*
X0295852Y0251395D02*
X0031829Y0251395D01*
X0031829Y0252594D02*
X0295780Y0252594D01*
X0295780Y0253792D02*
X0031829Y0253792D01*
X0031829Y0254991D02*
X0295780Y0254991D01*
X0295972Y0256189D02*
X0031532Y0256189D01*
X0031211Y0257388D02*
X0296293Y0257388D01*
X0296614Y0258586D02*
X0030890Y0258586D01*
X0030253Y0259785D02*
X0297129Y0259785D01*
X0297821Y0260983D02*
X0029561Y0260983D01*
X0028820Y0262182D02*
X0298513Y0262182D01*
X0299594Y0263380D02*
X0027622Y0263380D01*
X0026423Y0264579D02*
X0300792Y0264579D01*
X0302446Y0265777D02*
X0024482Y0265777D01*
X0021792Y0266976D02*
X0304521Y0266976D01*
X0284352Y0132633D02*
X0282312Y0132633D01*
X0280428Y0131852D01*
X0278985Y0130410D01*
X0278205Y0128525D01*
X0278205Y0126486D01*
X0278985Y0124601D01*
X0280428Y0123159D01*
X0282312Y0122378D01*
X0284352Y0122378D01*
X0286237Y0123159D01*
X0287679Y0124601D01*
X0288460Y0126486D01*
X0288460Y0128525D01*
X0287679Y0130410D01*
X0286237Y0131852D01*
X0284352Y0132633D01*
X0286545Y0131544D02*
X0324425Y0131544D01*
X0324425Y0130346D02*
X0287706Y0130346D01*
X0288202Y0129147D02*
X0324425Y0129147D01*
X0324425Y0127949D02*
X0288460Y0127949D01*
X0288460Y0126750D02*
X0324425Y0126750D01*
X0324425Y0125552D02*
X0288073Y0125552D01*
X0287431Y0124353D02*
X0324425Y0124353D01*
X0324425Y0123155D02*
X0286227Y0123155D01*
X0280438Y0123155D02*
X0256227Y0123155D01*
X0257431Y0124353D02*
X0279233Y0124353D01*
X0278592Y0125552D02*
X0258073Y0125552D01*
X0258460Y0126750D02*
X0278205Y0126750D01*
X0278205Y0127949D02*
X0258460Y0127949D01*
X0258202Y0129147D02*
X0278462Y0129147D01*
X0278959Y0130346D02*
X0257706Y0130346D01*
X0256545Y0131544D02*
X0280119Y0131544D01*
X0252630Y0061657D02*
X0251213Y0061657D01*
X0251213Y0057669D01*
X0255200Y0057669D01*
X0255200Y0059087D01*
X0252630Y0061657D01*
X0253455Y0060832D02*
X0324425Y0060832D01*
X0324425Y0062030D02*
X0242813Y0062030D01*
X0242793Y0062050D02*
X0238832Y0062050D01*
X0236031Y0059250D01*
X0236031Y0055289D01*
X0238832Y0052488D01*
X0242793Y0052488D01*
X0245594Y0055289D01*
X0245594Y0059250D01*
X0242793Y0062050D01*
X0244011Y0060832D02*
X0248171Y0060832D01*
X0248995Y0061657D02*
X0246425Y0059087D01*
X0246425Y0057669D01*
X0250413Y0057669D01*
X0250413Y0056869D01*
X0251213Y0056869D01*
X0251213Y0057669D01*
X0250413Y0057669D01*
X0250413Y0061657D01*
X0248995Y0061657D01*
X0250413Y0060832D02*
X0251213Y0060832D01*
X0251213Y0059633D02*
X0250413Y0059633D01*
X0250413Y0058435D02*
X0251213Y0058435D01*
X0251213Y0057236D02*
X0324425Y0057236D01*
X0324425Y0056038D02*
X0255200Y0056038D01*
X0255200Y0055452D02*
X0255200Y0056869D01*
X0251213Y0056869D01*
X0251213Y0052882D01*
X0252630Y0052882D01*
X0255200Y0055452D01*
X0254587Y0054839D02*
X0324425Y0054839D01*
X0324425Y0053641D02*
X0253389Y0053641D01*
X0251213Y0053641D02*
X0250413Y0053641D01*
X0250413Y0052882D02*
X0250413Y0056869D01*
X0246425Y0056869D01*
X0246425Y0055452D01*
X0248995Y0052882D01*
X0250413Y0052882D01*
X0250413Y0054839D02*
X0251213Y0054839D01*
X0251213Y0056038D02*
X0250413Y0056038D01*
X0250413Y0057236D02*
X0245594Y0057236D01*
X0245594Y0056038D02*
X0246425Y0056038D01*
X0247038Y0054839D02*
X0245144Y0054839D01*
X0243946Y0053641D02*
X0248236Y0053641D01*
X0248026Y0051244D02*
X0243600Y0051244D01*
X0242793Y0052050D02*
X0238832Y0052050D01*
X0236031Y0049250D01*
X0236031Y0045289D01*
X0238832Y0042488D01*
X0242793Y0042488D01*
X0245594Y0045289D01*
X0245594Y0049250D01*
X0242793Y0052050D01*
X0244798Y0050045D02*
X0246827Y0050045D01*
X0246031Y0048847D02*
X0245594Y0048847D01*
X0245594Y0047648D02*
X0246031Y0047648D01*
X0246031Y0046450D02*
X0245594Y0046450D01*
X0245556Y0045251D02*
X0246069Y0045251D01*
X0247268Y0044053D02*
X0244358Y0044053D01*
X0243159Y0042854D02*
X0248466Y0042854D01*
X0238466Y0042854D02*
X0233159Y0042854D01*
X0232793Y0042488D02*
X0235594Y0045289D01*
X0235594Y0049250D01*
X0232793Y0052050D01*
X0228832Y0052050D01*
X0226031Y0049250D01*
X0226031Y0045289D01*
X0228832Y0042488D01*
X0232793Y0042488D01*
X0234358Y0044053D02*
X0237268Y0044053D01*
X0236069Y0045251D02*
X0235556Y0045251D01*
X0235594Y0046450D02*
X0236031Y0046450D01*
X0236031Y0047648D02*
X0235594Y0047648D01*
X0235594Y0048847D02*
X0236031Y0048847D01*
X0236827Y0050045D02*
X0234798Y0050045D01*
X0233600Y0051244D02*
X0238026Y0051244D01*
X0237680Y0053641D02*
X0233946Y0053641D01*
X0232793Y0052488D02*
X0235594Y0055289D01*
X0235594Y0059250D01*
X0232793Y0062050D01*
X0228832Y0062050D01*
X0226031Y0059250D01*
X0226031Y0055289D01*
X0228832Y0052488D01*
X0232793Y0052488D01*
X0235144Y0054839D02*
X0236481Y0054839D01*
X0236031Y0056038D02*
X0235594Y0056038D01*
X0235594Y0057236D02*
X0236031Y0057236D01*
X0236031Y0058435D02*
X0235594Y0058435D01*
X0235210Y0059633D02*
X0236415Y0059633D01*
X0237614Y0060832D02*
X0234011Y0060832D01*
X0232813Y0062030D02*
X0238812Y0062030D01*
X0245210Y0059633D02*
X0246972Y0059633D01*
X0246425Y0058435D02*
X0245594Y0058435D01*
X0254653Y0059633D02*
X0324425Y0059633D01*
X0324425Y0058435D02*
X0255200Y0058435D01*
X0228812Y0062030D02*
X0222813Y0062030D01*
X0222793Y0062050D02*
X0218832Y0062050D01*
X0216031Y0059250D01*
X0216031Y0055289D01*
X0218832Y0052488D01*
X0222793Y0052488D01*
X0225594Y0055289D01*
X0225594Y0059250D01*
X0222793Y0062050D01*
X0224011Y0060832D02*
X0227614Y0060832D01*
X0226415Y0059633D02*
X0225210Y0059633D01*
X0225594Y0058435D02*
X0226031Y0058435D01*
X0226031Y0057236D02*
X0225594Y0057236D01*
X0225594Y0056038D02*
X0226031Y0056038D01*
X0226481Y0054839D02*
X0225144Y0054839D01*
X0223946Y0053641D02*
X0227680Y0053641D01*
X0228026Y0051244D02*
X0223600Y0051244D01*
X0222793Y0052050D02*
X0218832Y0052050D01*
X0216031Y0049250D01*
X0216031Y0045289D01*
X0218832Y0042488D01*
X0222793Y0042488D01*
X0225594Y0045289D01*
X0225594Y0049250D01*
X0222793Y0052050D01*
X0224798Y0050045D02*
X0226827Y0050045D01*
X0226031Y0048847D02*
X0225594Y0048847D01*
X0225594Y0047648D02*
X0226031Y0047648D01*
X0226031Y0046450D02*
X0225594Y0046450D01*
X0225556Y0045251D02*
X0226069Y0045251D01*
X0227268Y0044053D02*
X0224358Y0044053D01*
X0223159Y0042854D02*
X0228466Y0042854D01*
X0218466Y0042854D02*
X0213159Y0042854D01*
X0212793Y0042488D02*
X0215594Y0045289D01*
X0215594Y0049250D01*
X0212793Y0052050D01*
X0208832Y0052050D01*
X0206031Y0049250D01*
X0206031Y0045289D01*
X0208832Y0042488D01*
X0212793Y0042488D01*
X0214358Y0044053D02*
X0217268Y0044053D01*
X0216069Y0045251D02*
X0215556Y0045251D01*
X0215594Y0046450D02*
X0216031Y0046450D01*
X0216031Y0047648D02*
X0215594Y0047648D01*
X0215594Y0048847D02*
X0216031Y0048847D01*
X0216827Y0050045D02*
X0214798Y0050045D01*
X0213600Y0051244D02*
X0218026Y0051244D01*
X0217680Y0053641D02*
X0213946Y0053641D01*
X0212793Y0052488D02*
X0215594Y0055289D01*
X0215594Y0059250D01*
X0212793Y0062050D01*
X0208832Y0062050D01*
X0206031Y0059250D01*
X0206031Y0055289D01*
X0208832Y0052488D01*
X0212793Y0052488D01*
X0215144Y0054839D02*
X0216481Y0054839D01*
X0216031Y0056038D02*
X0215594Y0056038D01*
X0215594Y0057236D02*
X0216031Y0057236D01*
X0216031Y0058435D02*
X0215594Y0058435D01*
X0215210Y0059633D02*
X0216415Y0059633D01*
X0217614Y0060832D02*
X0214011Y0060832D01*
X0212813Y0062030D02*
X0218812Y0062030D01*
X0208812Y0062030D02*
X0202813Y0062030D01*
X0202793Y0062050D02*
X0198832Y0062050D01*
X0196031Y0059250D01*
X0196031Y0055289D01*
X0198832Y0052488D01*
X0202793Y0052488D01*
X0205594Y0055289D01*
X0205594Y0059250D01*
X0202793Y0062050D01*
X0204011Y0060832D02*
X0207614Y0060832D01*
X0206415Y0059633D02*
X0205210Y0059633D01*
X0205594Y0058435D02*
X0206031Y0058435D01*
X0206031Y0057236D02*
X0205594Y0057236D01*
X0205594Y0056038D02*
X0206031Y0056038D01*
X0206481Y0054839D02*
X0205144Y0054839D01*
X0203946Y0053641D02*
X0207680Y0053641D01*
X0208026Y0051244D02*
X0203600Y0051244D01*
X0202793Y0052050D02*
X0205594Y0049250D01*
X0205594Y0045289D01*
X0202793Y0042488D01*
X0198832Y0042488D01*
X0196031Y0045289D01*
X0196031Y0049250D01*
X0198832Y0052050D01*
X0202793Y0052050D01*
X0204798Y0050045D02*
X0206827Y0050045D01*
X0206031Y0048847D02*
X0205594Y0048847D01*
X0205594Y0047648D02*
X0206031Y0047648D01*
X0206031Y0046450D02*
X0205594Y0046450D01*
X0205556Y0045251D02*
X0206069Y0045251D01*
X0207268Y0044053D02*
X0204358Y0044053D01*
X0203159Y0042854D02*
X0208466Y0042854D01*
X0198466Y0042854D02*
X0193159Y0042854D01*
X0192793Y0042488D02*
X0195594Y0045289D01*
X0195594Y0049250D01*
X0192793Y0052050D01*
X0188832Y0052050D01*
X0186031Y0049250D01*
X0186031Y0045289D01*
X0188832Y0042488D01*
X0192793Y0042488D01*
X0194358Y0044053D02*
X0197268Y0044053D01*
X0196069Y0045251D02*
X0195556Y0045251D01*
X0195594Y0046450D02*
X0196031Y0046450D01*
X0196031Y0047648D02*
X0195594Y0047648D01*
X0195594Y0048847D02*
X0196031Y0048847D01*
X0196827Y0050045D02*
X0194798Y0050045D01*
X0193600Y0051244D02*
X0198026Y0051244D01*
X0197680Y0053641D02*
X0193946Y0053641D01*
X0192793Y0052488D02*
X0195594Y0055289D01*
X0195594Y0059250D01*
X0192793Y0062050D01*
X0188832Y0062050D01*
X0186031Y0059250D01*
X0186031Y0055289D01*
X0188832Y0052488D01*
X0192793Y0052488D01*
X0195144Y0054839D02*
X0196481Y0054839D01*
X0196031Y0056038D02*
X0195594Y0056038D01*
X0195594Y0057236D02*
X0196031Y0057236D01*
X0196031Y0058435D02*
X0195594Y0058435D01*
X0195210Y0059633D02*
X0196415Y0059633D01*
X0197614Y0060832D02*
X0194011Y0060832D01*
X0192813Y0062030D02*
X0198812Y0062030D01*
X0188812Y0062030D02*
X0182813Y0062030D01*
X0182793Y0062050D02*
X0178832Y0062050D01*
X0176031Y0059250D01*
X0176031Y0055289D01*
X0178832Y0052488D01*
X0182793Y0052488D01*
X0185594Y0055289D01*
X0185594Y0059250D01*
X0182793Y0062050D01*
X0184011Y0060832D02*
X0187614Y0060832D01*
X0186415Y0059633D02*
X0185210Y0059633D01*
X0185594Y0058435D02*
X0186031Y0058435D01*
X0186031Y0057236D02*
X0185594Y0057236D01*
X0185594Y0056038D02*
X0186031Y0056038D01*
X0186481Y0054839D02*
X0185144Y0054839D01*
X0183946Y0053641D02*
X0187680Y0053641D01*
X0188026Y0051244D02*
X0183600Y0051244D01*
X0182793Y0052050D02*
X0185594Y0049250D01*
X0185594Y0045289D01*
X0182793Y0042488D01*
X0178832Y0042488D01*
X0176031Y0045289D01*
X0176031Y0049250D01*
X0178832Y0052050D01*
X0182793Y0052050D01*
X0184798Y0050045D02*
X0186827Y0050045D01*
X0186031Y0048847D02*
X0185594Y0048847D01*
X0185594Y0047648D02*
X0186031Y0047648D01*
X0186031Y0046450D02*
X0185594Y0046450D01*
X0185556Y0045251D02*
X0186069Y0045251D01*
X0187268Y0044053D02*
X0184358Y0044053D01*
X0183159Y0042854D02*
X0188466Y0042854D01*
X0178466Y0042854D02*
X0173159Y0042854D01*
X0172793Y0042488D02*
X0175594Y0045289D01*
X0175594Y0049250D01*
X0172793Y0052050D01*
X0168832Y0052050D01*
X0166031Y0049250D01*
X0166031Y0045289D01*
X0168832Y0042488D01*
X0172793Y0042488D01*
X0174358Y0044053D02*
X0177268Y0044053D01*
X0176069Y0045251D02*
X0175556Y0045251D01*
X0175594Y0046450D02*
X0176031Y0046450D01*
X0176031Y0047648D02*
X0175594Y0047648D01*
X0175594Y0048847D02*
X0176031Y0048847D01*
X0176827Y0050045D02*
X0174798Y0050045D01*
X0173600Y0051244D02*
X0178026Y0051244D01*
X0177680Y0053641D02*
X0173946Y0053641D01*
X0172793Y0052488D02*
X0175594Y0055289D01*
X0175594Y0059250D01*
X0172793Y0062050D01*
X0168832Y0062050D01*
X0166031Y0059250D01*
X0166031Y0055289D01*
X0168832Y0052488D01*
X0172793Y0052488D01*
X0175144Y0054839D02*
X0176481Y0054839D01*
X0176031Y0056038D02*
X0175594Y0056038D01*
X0175594Y0057236D02*
X0176031Y0057236D01*
X0176031Y0058435D02*
X0175594Y0058435D01*
X0175210Y0059633D02*
X0176415Y0059633D01*
X0177614Y0060832D02*
X0174011Y0060832D01*
X0172813Y0062030D02*
X0178812Y0062030D01*
X0168812Y0062030D02*
X0162813Y0062030D01*
X0162793Y0062050D02*
X0158832Y0062050D01*
X0156031Y0059250D01*
X0156031Y0055289D01*
X0158832Y0052488D01*
X0162793Y0052488D01*
X0165594Y0055289D01*
X0165594Y0059250D01*
X0162793Y0062050D01*
X0164011Y0060832D02*
X0167614Y0060832D01*
X0166415Y0059633D02*
X0165210Y0059633D01*
X0165594Y0058435D02*
X0166031Y0058435D01*
X0166031Y0057236D02*
X0165594Y0057236D01*
X0165594Y0056038D02*
X0166031Y0056038D01*
X0166481Y0054839D02*
X0165144Y0054839D01*
X0163946Y0053641D02*
X0167680Y0053641D01*
X0168026Y0051244D02*
X0163600Y0051244D01*
X0162793Y0052050D02*
X0158832Y0052050D01*
X0156031Y0049250D01*
X0156031Y0045289D01*
X0158832Y0042488D01*
X0162793Y0042488D01*
X0165594Y0045289D01*
X0165594Y0049250D01*
X0162793Y0052050D01*
X0164798Y0050045D02*
X0166827Y0050045D01*
X0166031Y0048847D02*
X0165594Y0048847D01*
X0165594Y0047648D02*
X0166031Y0047648D01*
X0166031Y0046450D02*
X0165594Y0046450D01*
X0165556Y0045251D02*
X0166069Y0045251D01*
X0167268Y0044053D02*
X0164358Y0044053D01*
X0163159Y0042854D02*
X0168466Y0042854D01*
X0158466Y0042854D02*
X0153159Y0042854D01*
X0152793Y0042488D02*
X0155594Y0045289D01*
X0155594Y0049250D01*
X0152793Y0052050D01*
X0148832Y0052050D01*
X0146031Y0049250D01*
X0146031Y0045289D01*
X0148832Y0042488D01*
X0152793Y0042488D01*
X0154358Y0044053D02*
X0157268Y0044053D01*
X0156069Y0045251D02*
X0155556Y0045251D01*
X0155594Y0046450D02*
X0156031Y0046450D01*
X0156031Y0047648D02*
X0155594Y0047648D01*
X0155594Y0048847D02*
X0156031Y0048847D01*
X0156827Y0050045D02*
X0154798Y0050045D01*
X0153600Y0051244D02*
X0158026Y0051244D01*
X0157680Y0053641D02*
X0153946Y0053641D01*
X0152793Y0052488D02*
X0155594Y0055289D01*
X0155594Y0059250D01*
X0152793Y0062050D01*
X0148832Y0062050D01*
X0146031Y0059250D01*
X0146031Y0055289D01*
X0148832Y0052488D01*
X0152793Y0052488D01*
X0155144Y0054839D02*
X0156481Y0054839D01*
X0156031Y0056038D02*
X0155594Y0056038D01*
X0155594Y0057236D02*
X0156031Y0057236D01*
X0156031Y0058435D02*
X0155594Y0058435D01*
X0155210Y0059633D02*
X0156415Y0059633D01*
X0157614Y0060832D02*
X0154011Y0060832D01*
X0152813Y0062030D02*
X0158812Y0062030D01*
X0148812Y0062030D02*
X0142813Y0062030D01*
X0142793Y0062050D02*
X0138832Y0062050D01*
X0136031Y0059250D01*
X0136031Y0055289D01*
X0138832Y0052488D01*
X0142793Y0052488D01*
X0145594Y0055289D01*
X0145594Y0059250D01*
X0142793Y0062050D01*
X0144011Y0060832D02*
X0147614Y0060832D01*
X0146415Y0059633D02*
X0145210Y0059633D01*
X0145594Y0058435D02*
X0146031Y0058435D01*
X0146031Y0057236D02*
X0145594Y0057236D01*
X0145594Y0056038D02*
X0146031Y0056038D01*
X0146481Y0054839D02*
X0145144Y0054839D01*
X0143946Y0053641D02*
X0147680Y0053641D01*
X0148026Y0051244D02*
X0143600Y0051244D01*
X0142793Y0052050D02*
X0138832Y0052050D01*
X0136031Y0049250D01*
X0136031Y0045289D01*
X0138832Y0042488D01*
X0142793Y0042488D01*
X0145594Y0045289D01*
X0145594Y0049250D01*
X0142793Y0052050D01*
X0144798Y0050045D02*
X0146827Y0050045D01*
X0146031Y0048847D02*
X0145594Y0048847D01*
X0145594Y0047648D02*
X0146031Y0047648D01*
X0146031Y0046450D02*
X0145594Y0046450D01*
X0145556Y0045251D02*
X0146069Y0045251D01*
X0147268Y0044053D02*
X0144358Y0044053D01*
X0143159Y0042854D02*
X0148466Y0042854D01*
X0138466Y0042854D02*
X0133159Y0042854D01*
X0132793Y0042488D02*
X0135594Y0045289D01*
X0135594Y0049250D01*
X0132793Y0052050D01*
X0128832Y0052050D01*
X0126031Y0049250D01*
X0126031Y0045289D01*
X0128832Y0042488D01*
X0132793Y0042488D01*
X0134358Y0044053D02*
X0137268Y0044053D01*
X0136069Y0045251D02*
X0135556Y0045251D01*
X0135594Y0046450D02*
X0136031Y0046450D01*
X0136031Y0047648D02*
X0135594Y0047648D01*
X0135594Y0048847D02*
X0136031Y0048847D01*
X0136827Y0050045D02*
X0134798Y0050045D01*
X0133600Y0051244D02*
X0138026Y0051244D01*
X0137680Y0053641D02*
X0133946Y0053641D01*
X0132793Y0052488D02*
X0135594Y0055289D01*
X0135594Y0059250D01*
X0132793Y0062050D01*
X0128832Y0062050D01*
X0126031Y0059250D01*
X0126031Y0055289D01*
X0128832Y0052488D01*
X0132793Y0052488D01*
X0135144Y0054839D02*
X0136481Y0054839D01*
X0136031Y0056038D02*
X0135594Y0056038D01*
X0135594Y0057236D02*
X0136031Y0057236D01*
X0136031Y0058435D02*
X0135594Y0058435D01*
X0135210Y0059633D02*
X0136415Y0059633D01*
X0137614Y0060832D02*
X0134011Y0060832D01*
X0132813Y0062030D02*
X0138812Y0062030D01*
X0128812Y0062030D02*
X0122813Y0062030D01*
X0122793Y0062050D02*
X0118832Y0062050D01*
X0116031Y0059250D01*
X0116031Y0055289D01*
X0118832Y0052488D01*
X0122793Y0052488D01*
X0125594Y0055289D01*
X0125594Y0059250D01*
X0122793Y0062050D01*
X0124011Y0060832D02*
X0127614Y0060832D01*
X0126415Y0059633D02*
X0125210Y0059633D01*
X0125594Y0058435D02*
X0126031Y0058435D01*
X0126031Y0057236D02*
X0125594Y0057236D01*
X0125594Y0056038D02*
X0126031Y0056038D01*
X0126481Y0054839D02*
X0125144Y0054839D01*
X0123946Y0053641D02*
X0127680Y0053641D01*
X0128026Y0051244D02*
X0123600Y0051244D01*
X0122793Y0052050D02*
X0118832Y0052050D01*
X0116031Y0049250D01*
X0116031Y0045289D01*
X0118832Y0042488D01*
X0122793Y0042488D01*
X0125594Y0045289D01*
X0125594Y0049250D01*
X0122793Y0052050D01*
X0124798Y0050045D02*
X0126827Y0050045D01*
X0126031Y0048847D02*
X0125594Y0048847D01*
X0125594Y0047648D02*
X0126031Y0047648D01*
X0126031Y0046450D02*
X0125594Y0046450D01*
X0125556Y0045251D02*
X0126069Y0045251D01*
X0127268Y0044053D02*
X0124358Y0044053D01*
X0123159Y0042854D02*
X0128466Y0042854D01*
X0118466Y0042854D02*
X0113159Y0042854D01*
X0112793Y0042488D02*
X0115594Y0045289D01*
X0115594Y0049250D01*
X0112793Y0052050D01*
X0108832Y0052050D01*
X0106031Y0049250D01*
X0106031Y0045289D01*
X0108832Y0042488D01*
X0112793Y0042488D01*
X0114358Y0044053D02*
X0117268Y0044053D01*
X0116069Y0045251D02*
X0115556Y0045251D01*
X0115594Y0046450D02*
X0116031Y0046450D01*
X0116031Y0047648D02*
X0115594Y0047648D01*
X0115594Y0048847D02*
X0116031Y0048847D01*
X0116827Y0050045D02*
X0114798Y0050045D01*
X0113600Y0051244D02*
X0118026Y0051244D01*
X0117680Y0053641D02*
X0113946Y0053641D01*
X0112793Y0052488D02*
X0115594Y0055289D01*
X0115594Y0059250D01*
X0112793Y0062050D01*
X0108832Y0062050D01*
X0106031Y0059250D01*
X0106031Y0055289D01*
X0108832Y0052488D01*
X0112793Y0052488D01*
X0115144Y0054839D02*
X0116481Y0054839D01*
X0116031Y0056038D02*
X0115594Y0056038D01*
X0115594Y0057236D02*
X0116031Y0057236D01*
X0116031Y0058435D02*
X0115594Y0058435D01*
X0115210Y0059633D02*
X0116415Y0059633D01*
X0117614Y0060832D02*
X0114011Y0060832D01*
X0112813Y0062030D02*
X0118812Y0062030D01*
X0108812Y0062030D02*
X0102813Y0062030D01*
X0102793Y0062050D02*
X0098832Y0062050D01*
X0096031Y0059250D01*
X0096031Y0055289D01*
X0098832Y0052488D01*
X0102793Y0052488D01*
X0105594Y0055289D01*
X0105594Y0059250D01*
X0102793Y0062050D01*
X0104011Y0060832D02*
X0107614Y0060832D01*
X0106415Y0059633D02*
X0105210Y0059633D01*
X0105594Y0058435D02*
X0106031Y0058435D01*
X0106031Y0057236D02*
X0105594Y0057236D01*
X0105594Y0056038D02*
X0106031Y0056038D01*
X0106481Y0054839D02*
X0105144Y0054839D01*
X0103946Y0053641D02*
X0107680Y0053641D01*
X0108026Y0051244D02*
X0103600Y0051244D01*
X0102793Y0052050D02*
X0098832Y0052050D01*
X0096031Y0049250D01*
X0096031Y0045289D01*
X0098832Y0042488D01*
X0102793Y0042488D01*
X0105594Y0045289D01*
X0105594Y0049250D01*
X0102793Y0052050D01*
X0104798Y0050045D02*
X0106827Y0050045D01*
X0106031Y0048847D02*
X0105594Y0048847D01*
X0105594Y0047648D02*
X0106031Y0047648D01*
X0106031Y0046450D02*
X0105594Y0046450D01*
X0105556Y0045251D02*
X0106069Y0045251D01*
X0107268Y0044053D02*
X0104358Y0044053D01*
X0103159Y0042854D02*
X0108466Y0042854D01*
X0098466Y0042854D02*
X0093159Y0042854D01*
X0092793Y0042488D02*
X0095594Y0045289D01*
X0095594Y0049250D01*
X0092793Y0052050D01*
X0088832Y0052050D01*
X0086031Y0049250D01*
X0086031Y0045289D01*
X0088832Y0042488D01*
X0092793Y0042488D01*
X0094358Y0044053D02*
X0097268Y0044053D01*
X0096069Y0045251D02*
X0095556Y0045251D01*
X0095594Y0046450D02*
X0096031Y0046450D01*
X0096031Y0047648D02*
X0095594Y0047648D01*
X0095594Y0048847D02*
X0096031Y0048847D01*
X0096827Y0050045D02*
X0094798Y0050045D01*
X0093600Y0051244D02*
X0098026Y0051244D01*
X0097680Y0053641D02*
X0093946Y0053641D01*
X0092793Y0052488D02*
X0095594Y0055289D01*
X0095594Y0059250D01*
X0092793Y0062050D01*
X0088832Y0062050D01*
X0086031Y0059250D01*
X0086031Y0055289D01*
X0088832Y0052488D01*
X0092793Y0052488D01*
X0095144Y0054839D02*
X0096481Y0054839D01*
X0096031Y0056038D02*
X0095594Y0056038D01*
X0095594Y0057236D02*
X0096031Y0057236D01*
X0096031Y0058435D02*
X0095594Y0058435D01*
X0095210Y0059633D02*
X0096415Y0059633D01*
X0097614Y0060832D02*
X0094011Y0060832D01*
X0092813Y0062030D02*
X0098812Y0062030D01*
X0088812Y0062030D02*
X0082813Y0062030D01*
X0082793Y0062050D02*
X0078832Y0062050D01*
X0076031Y0059250D01*
X0076031Y0055289D01*
X0078832Y0052488D01*
X0082793Y0052488D01*
X0085594Y0055289D01*
X0085594Y0059250D01*
X0082793Y0062050D01*
X0084011Y0060832D02*
X0087614Y0060832D01*
X0086415Y0059633D02*
X0085210Y0059633D01*
X0085594Y0058435D02*
X0086031Y0058435D01*
X0086031Y0057236D02*
X0085594Y0057236D01*
X0085594Y0056038D02*
X0086031Y0056038D01*
X0086481Y0054839D02*
X0085144Y0054839D01*
X0083946Y0053641D02*
X0087680Y0053641D01*
X0088026Y0051244D02*
X0083600Y0051244D01*
X0082793Y0052050D02*
X0078832Y0052050D01*
X0076031Y0049250D01*
X0076031Y0045289D01*
X0078832Y0042488D01*
X0082793Y0042488D01*
X0085594Y0045289D01*
X0085594Y0049250D01*
X0082793Y0052050D01*
X0084798Y0050045D02*
X0086827Y0050045D01*
X0086031Y0048847D02*
X0085594Y0048847D01*
X0085594Y0047648D02*
X0086031Y0047648D01*
X0086031Y0046450D02*
X0085594Y0046450D01*
X0085556Y0045251D02*
X0086069Y0045251D01*
X0087268Y0044053D02*
X0084358Y0044053D01*
X0083159Y0042854D02*
X0088466Y0042854D01*
X0078466Y0042854D02*
X0073159Y0042854D01*
X0074358Y0044053D02*
X0077268Y0044053D01*
X0076069Y0045251D02*
X0075556Y0045251D01*
X0075594Y0046450D02*
X0076031Y0046450D01*
X0076031Y0047648D02*
X0075594Y0047648D01*
X0075594Y0048847D02*
X0076031Y0048847D01*
X0076827Y0050045D02*
X0074798Y0050045D01*
X0073600Y0051244D02*
X0078026Y0051244D01*
X0077680Y0053641D02*
X0073946Y0053641D01*
X0075144Y0054839D02*
X0076481Y0054839D01*
X0076031Y0056038D02*
X0075594Y0056038D01*
X0075594Y0057236D02*
X0076031Y0057236D01*
X0076031Y0058435D02*
X0075594Y0058435D01*
X0075210Y0059633D02*
X0076415Y0059633D01*
X0077614Y0060832D02*
X0074011Y0060832D01*
X0072813Y0062030D02*
X0078812Y0062030D01*
X0080734Y0187874D02*
X0080734Y0187874D01*
X0080734Y0189073D02*
X0080734Y0189073D01*
X0091364Y0227425D02*
X0091364Y0227425D01*
X0091364Y0228623D02*
X0091364Y0228623D01*
X0012768Y0239410D02*
X0003184Y0239410D01*
X0003184Y0240609D02*
X0010151Y0240609D01*
X0008236Y0241807D02*
X0003184Y0241807D01*
X0003184Y0243006D02*
X0007038Y0243006D01*
X0005839Y0244204D02*
X0003184Y0244204D01*
X0003184Y0245403D02*
X0005114Y0245403D01*
X0004422Y0246601D02*
X0003184Y0246601D01*
X0003184Y0247800D02*
X0003796Y0247800D01*
X0003475Y0248998D02*
X0003184Y0248998D01*
X0315751Y0030869D02*
X0324425Y0030869D01*
X0324425Y0029671D02*
X0317880Y0029671D01*
X0319617Y0028472D02*
X0324425Y0028472D01*
X0324425Y0027274D02*
X0320815Y0027274D01*
X0321944Y0026075D02*
X0324425Y0026075D01*
X0324425Y0024877D02*
X0322636Y0024877D01*
X0323328Y0023678D02*
X0324425Y0023678D01*
X0324425Y0022480D02*
X0323878Y0022480D01*
X0324199Y0021281D02*
X0324425Y0021281D01*
D15*
X0310261Y0017348D03*
X0310261Y0253569D03*
X0017348Y0253175D03*
X0017348Y0016954D03*
M02*
