G75*
%MOIN*%
%OFA0B0*%
%FSLAX25Y25*%
%IPPOS*%
%LPD*%
%AMOC8*
5,1,8,0,0,1.08239X$1,22.5*
%
%ADD10R,0.06299X0.07098*%
%ADD11R,0.05118X0.05906*%
%ADD12R,0.05906X0.05118*%
%ADD13C,0.06693*%
%ADD14R,0.02008X0.08000*%
%ADD15R,0.05800X0.01100*%
%ADD16R,0.01100X0.05800*%
%ADD17R,0.02559X0.01969*%
%ADD18R,0.01969X0.02559*%
%ADD19R,0.01378X0.09843*%
%ADD20R,0.07087X0.07480*%
%ADD21R,0.07480X0.07480*%
%ADD22C,0.06000*%
%ADD23OC8,0.06000*%
%ADD24R,0.22835X0.08268*%
%ADD25R,0.03937X0.05000*%
%ADD26C,0.03937*%
%ADD27C,0.25400*%
D10*
X0281828Y0211521D03*
X0293025Y0211521D03*
D11*
X0291128Y0221206D03*
X0283647Y0221206D03*
X0280891Y0233254D03*
X0273411Y0233254D03*
X0197033Y0210104D03*
X0189553Y0210104D03*
X0166915Y0161915D03*
X0159435Y0161915D03*
X0112191Y0142624D03*
X0104710Y0142624D03*
X0093017Y0164041D03*
X0085537Y0164041D03*
X0102151Y0226482D03*
X0109631Y0226482D03*
D12*
X0251757Y0175261D03*
X0251757Y0167781D03*
D13*
X0253332Y0127506D03*
X0283332Y0127506D03*
D14*
X0283194Y0156777D03*
X0278194Y0156777D03*
X0273194Y0156777D03*
X0268194Y0156777D03*
X0268194Y0180675D03*
X0273194Y0180675D03*
X0278194Y0180675D03*
X0283194Y0180675D03*
D15*
X0158385Y0180889D03*
X0158385Y0178989D03*
X0158385Y0176989D03*
X0158385Y0174989D03*
X0158385Y0182889D03*
X0158385Y0184889D03*
X0158385Y0186789D03*
X0158385Y0188789D03*
X0158385Y0190789D03*
X0158385Y0192789D03*
X0158385Y0194689D03*
X0158385Y0196689D03*
X0158385Y0198689D03*
X0158385Y0200589D03*
X0158385Y0202589D03*
X0158385Y0204589D03*
X0114185Y0204589D03*
X0114185Y0202589D03*
X0114185Y0200589D03*
X0114185Y0198689D03*
X0114185Y0196689D03*
X0114185Y0194689D03*
X0114185Y0192789D03*
X0114185Y0190789D03*
X0114185Y0188789D03*
X0114185Y0186789D03*
X0114185Y0184889D03*
X0114185Y0182889D03*
X0114185Y0180889D03*
X0114185Y0178989D03*
X0114185Y0176989D03*
X0114185Y0174989D03*
D16*
X0121485Y0167689D03*
X0123485Y0167689D03*
X0125485Y0167689D03*
X0127385Y0167689D03*
X0129385Y0167689D03*
X0131385Y0167689D03*
X0133285Y0167689D03*
X0135285Y0167689D03*
X0137285Y0167689D03*
X0139285Y0167689D03*
X0141185Y0167689D03*
X0143185Y0167689D03*
X0145185Y0167689D03*
X0147085Y0167689D03*
X0149085Y0167689D03*
X0151085Y0167689D03*
X0151085Y0211889D03*
X0149085Y0211889D03*
X0147085Y0211889D03*
X0145185Y0211889D03*
X0143185Y0211889D03*
X0141185Y0211889D03*
X0139285Y0211889D03*
X0137285Y0211889D03*
X0135285Y0211889D03*
X0133285Y0211889D03*
X0131385Y0211889D03*
X0129385Y0211889D03*
X0127385Y0211889D03*
X0125485Y0211889D03*
X0123485Y0211889D03*
X0121485Y0211889D03*
D17*
X0093155Y0206403D03*
X0093155Y0203254D03*
X0093155Y0200104D03*
X0093155Y0196954D03*
X0088234Y0196954D03*
X0088234Y0200104D03*
X0088234Y0203254D03*
X0088234Y0206403D03*
X0179730Y0188844D03*
X0179730Y0185694D03*
X0179730Y0182545D03*
X0179730Y0179395D03*
X0179809Y0175537D03*
X0179809Y0172387D03*
X0179809Y0169238D03*
X0179809Y0166088D03*
X0184730Y0166088D03*
X0184730Y0169238D03*
X0184730Y0172387D03*
X0184730Y0175537D03*
X0184651Y0179395D03*
X0184651Y0182545D03*
X0184651Y0185694D03*
X0184651Y0188844D03*
D18*
X0152624Y0230517D03*
X0149474Y0230517D03*
X0146324Y0230517D03*
X0143175Y0230517D03*
X0139317Y0230596D03*
X0136167Y0230596D03*
X0133017Y0230596D03*
X0129868Y0230596D03*
X0129868Y0235517D03*
X0133017Y0235517D03*
X0136167Y0235517D03*
X0139317Y0235517D03*
X0143175Y0235439D03*
X0146324Y0235439D03*
X0149474Y0235439D03*
X0152624Y0235439D03*
X0153175Y0140714D03*
X0150025Y0140714D03*
X0146876Y0140714D03*
X0143726Y0140714D03*
X0139553Y0140714D03*
X0136403Y0140714D03*
X0133254Y0140714D03*
X0130104Y0140714D03*
X0130104Y0135793D03*
X0133254Y0135793D03*
X0136403Y0135793D03*
X0139553Y0135793D03*
X0143726Y0135793D03*
X0146876Y0135793D03*
X0150025Y0135793D03*
X0153175Y0135793D03*
D19*
X0255576Y0250183D03*
X0258135Y0250183D03*
X0260694Y0250183D03*
X0263254Y0250183D03*
X0265813Y0250183D03*
D20*
X0276443Y0262584D03*
X0244946Y0262584D03*
D21*
X0245852Y0250773D03*
X0275537Y0250773D03*
D22*
X0203450Y0232671D02*
X0203450Y0226671D01*
X0193450Y0226671D02*
X0193450Y0232671D01*
X0183450Y0232671D02*
X0183450Y0226671D01*
X0173450Y0226671D02*
X0173450Y0232671D01*
X0108726Y0125151D02*
X0108726Y0119151D01*
X0098726Y0119151D02*
X0098726Y0125151D01*
X0088726Y0125151D02*
X0088726Y0119151D01*
X0078726Y0119151D02*
X0078726Y0125151D01*
X0068726Y0125151D02*
X0068726Y0119151D01*
X0058726Y0119151D02*
X0058726Y0125151D01*
D23*
X0060813Y0057269D03*
X0070813Y0057269D03*
X0080813Y0057269D03*
X0090813Y0057269D03*
X0100813Y0057269D03*
X0110813Y0057269D03*
X0120813Y0057269D03*
X0130813Y0057269D03*
X0140813Y0057269D03*
X0140813Y0047269D03*
X0130813Y0047269D03*
X0120813Y0047269D03*
X0110813Y0047269D03*
X0100813Y0047269D03*
X0090813Y0047269D03*
X0080813Y0047269D03*
X0070813Y0047269D03*
X0060813Y0047269D03*
X0150813Y0047269D03*
X0160813Y0047269D03*
X0170813Y0047269D03*
X0180813Y0047269D03*
X0190813Y0047269D03*
X0200813Y0047269D03*
X0210813Y0047269D03*
X0220813Y0047269D03*
X0230813Y0047269D03*
X0240813Y0047269D03*
X0250813Y0047269D03*
X0250813Y0057269D03*
X0240813Y0057269D03*
X0230813Y0057269D03*
X0220813Y0057269D03*
X0210813Y0057269D03*
X0200813Y0057269D03*
X0190813Y0057269D03*
X0180813Y0057269D03*
X0170813Y0057269D03*
X0160813Y0057269D03*
X0150813Y0057269D03*
D24*
X0283096Y0089986D03*
X0283096Y0105340D03*
D25*
X0092939Y0172466D03*
X0082702Y0172466D03*
D26*
X0063411Y0164198D03*
X0080734Y0189789D03*
X0091364Y0226403D03*
X0116167Y0154356D03*
X0096482Y0142545D03*
X0159474Y0154356D03*
D27*
X0017348Y0016954D03*
X0017348Y0253175D03*
X0310261Y0253569D03*
X0310261Y0017348D03*
M02*
