G75*
%MOIN*%
%OFA0B0*%
%FSLAX25Y25*%
%IPPOS*%
%LPD*%
%AMOC8*
5,1,8,0,0,1.08239X$1,22.5*
%
%ADD10C,0.01000*%
%ADD11C,0.00400*%
%ADD12R,0.00787X0.00787*%
%ADD13R,0.01378X0.00984*%
%ADD14R,0.00394X0.04724*%
%ADD15R,0.00394X0.00591*%
%ADD16R,0.00591X0.00984*%
%ADD17R,0.02953X0.05709*%
%ADD18C,0.00200*%
%ADD19R,0.05709X0.02953*%
%ADD20C,0.00300*%
%ADD21C,0.00600*%
%ADD22C,0.03346*%
%ADD23C,0.00500*%
%ADD24R,0.02000X0.07362*%
%ADD25R,0.02500X0.03346*%
%ADD26C,0.00000*%
%ADD27R,0.02559X0.05512*%
%ADD28C,0.00800*%
%ADD29R,0.02000X0.02000*%
D10*
X0269710Y0199631D02*
X0269710Y0227584D01*
X0298450Y0227584D01*
X0298450Y0199631D01*
X0269710Y0199631D01*
D11*
X0272032Y0203493D02*
X0274334Y0203493D01*
X0273567Y0205028D01*
X0273567Y0205795D01*
X0274334Y0206562D01*
X0275869Y0206562D01*
X0276636Y0205795D01*
X0276636Y0204260D01*
X0275869Y0203493D01*
X0272032Y0203493D02*
X0272032Y0206562D01*
X0272032Y0208097D02*
X0275102Y0208097D01*
X0276636Y0209631D01*
X0275102Y0211166D01*
X0272032Y0211166D01*
X0281324Y0208569D02*
X0281324Y0214474D01*
X0293529Y0214474D01*
X0293529Y0208569D01*
X0281324Y0208569D01*
X0289592Y0209553D02*
X0289663Y0209634D01*
X0289731Y0209718D01*
X0289796Y0209804D01*
X0289858Y0209892D01*
X0289916Y0209983D01*
X0289971Y0210076D01*
X0290023Y0210171D01*
X0290071Y0210268D01*
X0290115Y0210366D01*
X0290156Y0210466D01*
X0290193Y0210567D01*
X0290226Y0210670D01*
X0290256Y0210774D01*
X0290282Y0210879D01*
X0290303Y0210984D01*
X0290321Y0211091D01*
X0290335Y0211198D01*
X0290345Y0211305D01*
X0290351Y0211413D01*
X0290353Y0211521D01*
X0290351Y0211629D01*
X0290345Y0211737D01*
X0290335Y0211844D01*
X0290321Y0211951D01*
X0290303Y0212058D01*
X0290282Y0212163D01*
X0290256Y0212268D01*
X0290226Y0212372D01*
X0290193Y0212475D01*
X0290156Y0212576D01*
X0290115Y0212676D01*
X0290071Y0212774D01*
X0290023Y0212871D01*
X0289971Y0212966D01*
X0289916Y0213059D01*
X0289858Y0213150D01*
X0289796Y0213238D01*
X0289731Y0213324D01*
X0289663Y0213408D01*
X0289592Y0213489D01*
X0289519Y0213566D01*
X0289444Y0213641D01*
X0289366Y0213712D01*
X0289285Y0213781D01*
X0289202Y0213847D01*
X0289117Y0213910D01*
X0289029Y0213969D01*
X0288940Y0214026D01*
X0288848Y0214079D01*
X0288754Y0214129D01*
X0288659Y0214175D01*
X0288562Y0214218D01*
X0288464Y0214257D01*
X0288364Y0214293D01*
X0288263Y0214325D01*
X0288161Y0214353D01*
X0288058Y0214378D01*
X0287954Y0214399D01*
X0287849Y0214416D01*
X0287744Y0214430D01*
X0287639Y0214439D01*
X0287533Y0214445D01*
X0287427Y0214447D01*
X0287321Y0214445D01*
X0287215Y0214439D01*
X0287110Y0214430D01*
X0287005Y0214416D01*
X0286900Y0214399D01*
X0286796Y0214378D01*
X0286693Y0214353D01*
X0286591Y0214325D01*
X0286490Y0214293D01*
X0286390Y0214257D01*
X0286292Y0214218D01*
X0286195Y0214175D01*
X0286100Y0214129D01*
X0286006Y0214079D01*
X0285914Y0214026D01*
X0285825Y0213969D01*
X0285737Y0213910D01*
X0285652Y0213847D01*
X0285569Y0213781D01*
X0285488Y0213712D01*
X0285410Y0213641D01*
X0285335Y0213566D01*
X0285262Y0213489D01*
X0285191Y0213408D01*
X0285123Y0213324D01*
X0285058Y0213238D01*
X0284996Y0213150D01*
X0284938Y0213059D01*
X0284883Y0212966D01*
X0284831Y0212871D01*
X0284783Y0212774D01*
X0284739Y0212676D01*
X0284698Y0212576D01*
X0284661Y0212475D01*
X0284628Y0212372D01*
X0284598Y0212268D01*
X0284572Y0212163D01*
X0284551Y0212058D01*
X0284533Y0211951D01*
X0284519Y0211844D01*
X0284509Y0211737D01*
X0284503Y0211629D01*
X0284501Y0211521D01*
X0284503Y0211413D01*
X0284509Y0211305D01*
X0284519Y0211198D01*
X0284533Y0211091D01*
X0284551Y0210984D01*
X0284572Y0210879D01*
X0284598Y0210774D01*
X0284628Y0210670D01*
X0284661Y0210567D01*
X0284698Y0210466D01*
X0284739Y0210366D01*
X0284783Y0210268D01*
X0284831Y0210171D01*
X0284883Y0210076D01*
X0284938Y0209983D01*
X0284996Y0209892D01*
X0285058Y0209804D01*
X0285123Y0209718D01*
X0285191Y0209634D01*
X0285262Y0209553D01*
X0285335Y0209476D01*
X0285410Y0209401D01*
X0285488Y0209330D01*
X0285569Y0209261D01*
X0285652Y0209195D01*
X0285737Y0209132D01*
X0285825Y0209073D01*
X0285914Y0209016D01*
X0286006Y0208963D01*
X0286100Y0208913D01*
X0286195Y0208867D01*
X0286292Y0208824D01*
X0286390Y0208785D01*
X0286490Y0208749D01*
X0286591Y0208717D01*
X0286693Y0208689D01*
X0286796Y0208664D01*
X0286900Y0208643D01*
X0287005Y0208626D01*
X0287110Y0208612D01*
X0287215Y0208603D01*
X0287321Y0208597D01*
X0287427Y0208595D01*
X0287533Y0208597D01*
X0287639Y0208603D01*
X0287744Y0208612D01*
X0287849Y0208626D01*
X0287954Y0208643D01*
X0288058Y0208664D01*
X0288161Y0208689D01*
X0288263Y0208717D01*
X0288364Y0208749D01*
X0288464Y0208785D01*
X0288562Y0208824D01*
X0288659Y0208867D01*
X0288754Y0208913D01*
X0288848Y0208963D01*
X0288940Y0209016D01*
X0289029Y0209073D01*
X0289117Y0209132D01*
X0289202Y0209195D01*
X0289285Y0209261D01*
X0289366Y0209330D01*
X0289444Y0209401D01*
X0289519Y0209476D01*
X0289592Y0209553D01*
X0278651Y0230655D02*
X0275750Y0230655D01*
X0275651Y0235852D02*
X0278651Y0235852D01*
X0254356Y0173021D02*
X0254356Y0170021D01*
X0249159Y0170021D02*
X0249159Y0172923D01*
X0194793Y0207506D02*
X0191891Y0207506D01*
X0191793Y0212702D02*
X0194793Y0212702D01*
X0185143Y0190222D02*
X0179238Y0190222D01*
X0179238Y0189336D01*
X0179283Y0189334D01*
X0179327Y0189329D01*
X0179371Y0189319D01*
X0179414Y0189307D01*
X0179455Y0189290D01*
X0179495Y0189271D01*
X0179534Y0189248D01*
X0179570Y0189222D01*
X0179604Y0189193D01*
X0179636Y0189161D01*
X0179665Y0189127D01*
X0179691Y0189091D01*
X0179714Y0189052D01*
X0179733Y0189012D01*
X0179750Y0188971D01*
X0179762Y0188928D01*
X0179772Y0188884D01*
X0179777Y0188840D01*
X0179779Y0188795D01*
X0179777Y0188750D01*
X0179772Y0188706D01*
X0179762Y0188662D01*
X0179750Y0188619D01*
X0179733Y0188578D01*
X0179714Y0188538D01*
X0179691Y0188499D01*
X0179665Y0188463D01*
X0179636Y0188429D01*
X0179604Y0188397D01*
X0179570Y0188368D01*
X0179534Y0188342D01*
X0179495Y0188319D01*
X0179455Y0188300D01*
X0179414Y0188283D01*
X0179371Y0188271D01*
X0179327Y0188261D01*
X0179283Y0188256D01*
X0179238Y0188254D01*
X0179238Y0186187D01*
X0179238Y0186186D02*
X0179283Y0186184D01*
X0179327Y0186179D01*
X0179371Y0186169D01*
X0179414Y0186157D01*
X0179455Y0186140D01*
X0179495Y0186121D01*
X0179534Y0186098D01*
X0179570Y0186072D01*
X0179604Y0186043D01*
X0179636Y0186011D01*
X0179665Y0185977D01*
X0179691Y0185941D01*
X0179714Y0185902D01*
X0179733Y0185862D01*
X0179750Y0185821D01*
X0179762Y0185778D01*
X0179772Y0185734D01*
X0179777Y0185690D01*
X0179779Y0185645D01*
X0179777Y0185600D01*
X0179772Y0185556D01*
X0179762Y0185512D01*
X0179750Y0185469D01*
X0179733Y0185428D01*
X0179714Y0185388D01*
X0179691Y0185349D01*
X0179665Y0185313D01*
X0179636Y0185279D01*
X0179604Y0185247D01*
X0179570Y0185218D01*
X0179534Y0185192D01*
X0179495Y0185169D01*
X0179455Y0185150D01*
X0179414Y0185133D01*
X0179371Y0185121D01*
X0179327Y0185111D01*
X0179283Y0185106D01*
X0179238Y0185104D01*
X0179238Y0183037D01*
X0179283Y0183035D01*
X0179327Y0183030D01*
X0179371Y0183020D01*
X0179414Y0183008D01*
X0179455Y0182991D01*
X0179495Y0182972D01*
X0179534Y0182949D01*
X0179570Y0182923D01*
X0179604Y0182894D01*
X0179636Y0182862D01*
X0179665Y0182828D01*
X0179691Y0182792D01*
X0179714Y0182753D01*
X0179733Y0182713D01*
X0179750Y0182672D01*
X0179762Y0182629D01*
X0179772Y0182585D01*
X0179777Y0182541D01*
X0179779Y0182496D01*
X0179777Y0182451D01*
X0179772Y0182407D01*
X0179762Y0182363D01*
X0179750Y0182320D01*
X0179733Y0182279D01*
X0179714Y0182239D01*
X0179691Y0182200D01*
X0179665Y0182164D01*
X0179636Y0182130D01*
X0179604Y0182098D01*
X0179570Y0182069D01*
X0179534Y0182043D01*
X0179495Y0182020D01*
X0179455Y0182001D01*
X0179414Y0181984D01*
X0179371Y0181972D01*
X0179327Y0181962D01*
X0179283Y0181957D01*
X0179238Y0181955D01*
X0179238Y0181954D02*
X0179238Y0179887D01*
X0179283Y0179885D01*
X0179327Y0179880D01*
X0179371Y0179870D01*
X0179414Y0179858D01*
X0179455Y0179841D01*
X0179495Y0179822D01*
X0179534Y0179799D01*
X0179570Y0179773D01*
X0179604Y0179744D01*
X0179636Y0179712D01*
X0179665Y0179678D01*
X0179691Y0179642D01*
X0179714Y0179603D01*
X0179733Y0179563D01*
X0179750Y0179522D01*
X0179762Y0179479D01*
X0179772Y0179435D01*
X0179777Y0179391D01*
X0179779Y0179346D01*
X0179777Y0179301D01*
X0179772Y0179257D01*
X0179762Y0179213D01*
X0179750Y0179170D01*
X0179733Y0179129D01*
X0179714Y0179089D01*
X0179691Y0179050D01*
X0179665Y0179014D01*
X0179636Y0178980D01*
X0179604Y0178948D01*
X0179570Y0178919D01*
X0179534Y0178893D01*
X0179495Y0178870D01*
X0179455Y0178851D01*
X0179414Y0178834D01*
X0179371Y0178822D01*
X0179327Y0178812D01*
X0179283Y0178807D01*
X0179238Y0178805D01*
X0179238Y0178017D01*
X0185143Y0178017D01*
X0185143Y0178903D01*
X0185098Y0178905D01*
X0185054Y0178910D01*
X0185010Y0178920D01*
X0184967Y0178932D01*
X0184926Y0178949D01*
X0184886Y0178968D01*
X0184847Y0178991D01*
X0184811Y0179017D01*
X0184777Y0179046D01*
X0184745Y0179078D01*
X0184716Y0179112D01*
X0184690Y0179148D01*
X0184667Y0179187D01*
X0184648Y0179227D01*
X0184631Y0179268D01*
X0184619Y0179311D01*
X0184609Y0179355D01*
X0184604Y0179399D01*
X0184602Y0179444D01*
X0184604Y0179489D01*
X0184609Y0179533D01*
X0184619Y0179577D01*
X0184631Y0179620D01*
X0184648Y0179661D01*
X0184667Y0179701D01*
X0184690Y0179740D01*
X0184716Y0179776D01*
X0184745Y0179810D01*
X0184777Y0179842D01*
X0184811Y0179871D01*
X0184847Y0179897D01*
X0184886Y0179920D01*
X0184926Y0179939D01*
X0184967Y0179956D01*
X0185010Y0179968D01*
X0185054Y0179978D01*
X0185098Y0179983D01*
X0185143Y0179985D01*
X0185143Y0179986D02*
X0185143Y0182053D01*
X0185098Y0182055D01*
X0185054Y0182060D01*
X0185010Y0182070D01*
X0184967Y0182082D01*
X0184926Y0182099D01*
X0184886Y0182118D01*
X0184847Y0182141D01*
X0184811Y0182167D01*
X0184777Y0182196D01*
X0184745Y0182228D01*
X0184716Y0182262D01*
X0184690Y0182298D01*
X0184667Y0182337D01*
X0184648Y0182377D01*
X0184631Y0182418D01*
X0184619Y0182461D01*
X0184609Y0182505D01*
X0184604Y0182549D01*
X0184602Y0182594D01*
X0184604Y0182639D01*
X0184609Y0182683D01*
X0184619Y0182727D01*
X0184631Y0182770D01*
X0184648Y0182811D01*
X0184667Y0182851D01*
X0184690Y0182890D01*
X0184716Y0182926D01*
X0184745Y0182960D01*
X0184777Y0182992D01*
X0184811Y0183021D01*
X0184847Y0183047D01*
X0184886Y0183070D01*
X0184926Y0183089D01*
X0184967Y0183106D01*
X0185010Y0183118D01*
X0185054Y0183128D01*
X0185098Y0183133D01*
X0185143Y0183135D01*
X0185143Y0185202D01*
X0185143Y0185203D02*
X0185098Y0185205D01*
X0185054Y0185210D01*
X0185010Y0185220D01*
X0184967Y0185232D01*
X0184926Y0185249D01*
X0184886Y0185268D01*
X0184847Y0185291D01*
X0184811Y0185317D01*
X0184777Y0185346D01*
X0184745Y0185378D01*
X0184716Y0185412D01*
X0184690Y0185448D01*
X0184667Y0185487D01*
X0184648Y0185527D01*
X0184631Y0185568D01*
X0184619Y0185611D01*
X0184609Y0185655D01*
X0184604Y0185699D01*
X0184602Y0185744D01*
X0184604Y0185789D01*
X0184609Y0185833D01*
X0184619Y0185877D01*
X0184631Y0185920D01*
X0184648Y0185961D01*
X0184667Y0186001D01*
X0184690Y0186040D01*
X0184716Y0186076D01*
X0184745Y0186110D01*
X0184777Y0186142D01*
X0184811Y0186171D01*
X0184847Y0186197D01*
X0184886Y0186220D01*
X0184926Y0186239D01*
X0184967Y0186256D01*
X0185010Y0186268D01*
X0185054Y0186278D01*
X0185098Y0186283D01*
X0185143Y0186285D01*
X0185143Y0188352D01*
X0185098Y0188354D01*
X0185054Y0188359D01*
X0185010Y0188369D01*
X0184967Y0188381D01*
X0184926Y0188398D01*
X0184886Y0188417D01*
X0184847Y0188440D01*
X0184811Y0188466D01*
X0184777Y0188495D01*
X0184745Y0188527D01*
X0184716Y0188561D01*
X0184690Y0188597D01*
X0184667Y0188636D01*
X0184648Y0188676D01*
X0184631Y0188717D01*
X0184619Y0188760D01*
X0184609Y0188804D01*
X0184604Y0188848D01*
X0184602Y0188893D01*
X0184604Y0188938D01*
X0184609Y0188982D01*
X0184619Y0189026D01*
X0184631Y0189069D01*
X0184648Y0189110D01*
X0184667Y0189150D01*
X0184690Y0189189D01*
X0184716Y0189225D01*
X0184745Y0189259D01*
X0184777Y0189291D01*
X0184811Y0189320D01*
X0184847Y0189346D01*
X0184886Y0189369D01*
X0184926Y0189388D01*
X0184967Y0189405D01*
X0185010Y0189417D01*
X0185054Y0189427D01*
X0185098Y0189432D01*
X0185143Y0189434D01*
X0185143Y0189435D02*
X0185143Y0190222D01*
X0185222Y0176915D02*
X0179317Y0176915D01*
X0179317Y0176029D01*
X0179362Y0176027D01*
X0179406Y0176022D01*
X0179450Y0176012D01*
X0179493Y0176000D01*
X0179534Y0175983D01*
X0179574Y0175964D01*
X0179613Y0175941D01*
X0179649Y0175915D01*
X0179683Y0175886D01*
X0179715Y0175854D01*
X0179744Y0175820D01*
X0179770Y0175784D01*
X0179793Y0175745D01*
X0179812Y0175705D01*
X0179829Y0175664D01*
X0179841Y0175621D01*
X0179851Y0175577D01*
X0179856Y0175533D01*
X0179858Y0175488D01*
X0179856Y0175443D01*
X0179851Y0175399D01*
X0179841Y0175355D01*
X0179829Y0175312D01*
X0179812Y0175271D01*
X0179793Y0175231D01*
X0179770Y0175192D01*
X0179744Y0175156D01*
X0179715Y0175122D01*
X0179683Y0175090D01*
X0179649Y0175061D01*
X0179613Y0175035D01*
X0179574Y0175012D01*
X0179534Y0174993D01*
X0179493Y0174976D01*
X0179450Y0174964D01*
X0179406Y0174954D01*
X0179362Y0174949D01*
X0179317Y0174947D01*
X0179317Y0174946D02*
X0179317Y0172880D01*
X0179317Y0172879D02*
X0179362Y0172877D01*
X0179406Y0172872D01*
X0179450Y0172862D01*
X0179493Y0172850D01*
X0179534Y0172833D01*
X0179574Y0172814D01*
X0179613Y0172791D01*
X0179649Y0172765D01*
X0179683Y0172736D01*
X0179715Y0172704D01*
X0179744Y0172670D01*
X0179770Y0172634D01*
X0179793Y0172595D01*
X0179812Y0172555D01*
X0179829Y0172514D01*
X0179841Y0172471D01*
X0179851Y0172427D01*
X0179856Y0172383D01*
X0179858Y0172338D01*
X0179856Y0172293D01*
X0179851Y0172249D01*
X0179841Y0172205D01*
X0179829Y0172162D01*
X0179812Y0172121D01*
X0179793Y0172081D01*
X0179770Y0172042D01*
X0179744Y0172006D01*
X0179715Y0171972D01*
X0179683Y0171940D01*
X0179649Y0171911D01*
X0179613Y0171885D01*
X0179574Y0171862D01*
X0179534Y0171843D01*
X0179493Y0171826D01*
X0179450Y0171814D01*
X0179406Y0171804D01*
X0179362Y0171799D01*
X0179317Y0171797D01*
X0179317Y0169730D01*
X0179362Y0169728D01*
X0179406Y0169723D01*
X0179450Y0169713D01*
X0179493Y0169701D01*
X0179534Y0169684D01*
X0179574Y0169665D01*
X0179613Y0169642D01*
X0179649Y0169616D01*
X0179683Y0169587D01*
X0179715Y0169555D01*
X0179744Y0169521D01*
X0179770Y0169485D01*
X0179793Y0169446D01*
X0179812Y0169406D01*
X0179829Y0169365D01*
X0179841Y0169322D01*
X0179851Y0169278D01*
X0179856Y0169234D01*
X0179858Y0169189D01*
X0179856Y0169144D01*
X0179851Y0169100D01*
X0179841Y0169056D01*
X0179829Y0169013D01*
X0179812Y0168972D01*
X0179793Y0168932D01*
X0179770Y0168893D01*
X0179744Y0168857D01*
X0179715Y0168823D01*
X0179683Y0168791D01*
X0179649Y0168762D01*
X0179613Y0168736D01*
X0179574Y0168713D01*
X0179534Y0168694D01*
X0179493Y0168677D01*
X0179450Y0168665D01*
X0179406Y0168655D01*
X0179362Y0168650D01*
X0179317Y0168648D01*
X0179317Y0168647D02*
X0179317Y0166580D01*
X0179362Y0166578D01*
X0179406Y0166573D01*
X0179450Y0166563D01*
X0179493Y0166551D01*
X0179534Y0166534D01*
X0179574Y0166515D01*
X0179613Y0166492D01*
X0179649Y0166466D01*
X0179683Y0166437D01*
X0179715Y0166405D01*
X0179744Y0166371D01*
X0179770Y0166335D01*
X0179793Y0166296D01*
X0179812Y0166256D01*
X0179829Y0166215D01*
X0179841Y0166172D01*
X0179851Y0166128D01*
X0179856Y0166084D01*
X0179858Y0166039D01*
X0179856Y0165994D01*
X0179851Y0165950D01*
X0179841Y0165906D01*
X0179829Y0165863D01*
X0179812Y0165822D01*
X0179793Y0165782D01*
X0179770Y0165743D01*
X0179744Y0165707D01*
X0179715Y0165673D01*
X0179683Y0165641D01*
X0179649Y0165612D01*
X0179613Y0165586D01*
X0179574Y0165563D01*
X0179534Y0165544D01*
X0179493Y0165527D01*
X0179450Y0165515D01*
X0179406Y0165505D01*
X0179362Y0165500D01*
X0179317Y0165498D01*
X0179317Y0164710D01*
X0185222Y0164710D01*
X0185222Y0165596D01*
X0185177Y0165598D01*
X0185133Y0165603D01*
X0185089Y0165613D01*
X0185046Y0165625D01*
X0185005Y0165642D01*
X0184965Y0165661D01*
X0184926Y0165684D01*
X0184890Y0165710D01*
X0184856Y0165739D01*
X0184824Y0165771D01*
X0184795Y0165805D01*
X0184769Y0165841D01*
X0184746Y0165880D01*
X0184727Y0165920D01*
X0184710Y0165961D01*
X0184698Y0166004D01*
X0184688Y0166048D01*
X0184683Y0166092D01*
X0184681Y0166137D01*
X0184683Y0166182D01*
X0184688Y0166226D01*
X0184698Y0166270D01*
X0184710Y0166313D01*
X0184727Y0166354D01*
X0184746Y0166394D01*
X0184769Y0166433D01*
X0184795Y0166469D01*
X0184824Y0166503D01*
X0184856Y0166535D01*
X0184890Y0166564D01*
X0184926Y0166590D01*
X0184965Y0166613D01*
X0185005Y0166632D01*
X0185046Y0166649D01*
X0185089Y0166661D01*
X0185133Y0166671D01*
X0185177Y0166676D01*
X0185222Y0166678D01*
X0185222Y0166679D02*
X0185222Y0168746D01*
X0185177Y0168748D01*
X0185133Y0168753D01*
X0185089Y0168763D01*
X0185046Y0168775D01*
X0185005Y0168792D01*
X0184965Y0168811D01*
X0184926Y0168834D01*
X0184890Y0168860D01*
X0184856Y0168889D01*
X0184824Y0168921D01*
X0184795Y0168955D01*
X0184769Y0168991D01*
X0184746Y0169030D01*
X0184727Y0169070D01*
X0184710Y0169111D01*
X0184698Y0169154D01*
X0184688Y0169198D01*
X0184683Y0169242D01*
X0184681Y0169287D01*
X0184683Y0169332D01*
X0184688Y0169376D01*
X0184698Y0169420D01*
X0184710Y0169463D01*
X0184727Y0169504D01*
X0184746Y0169544D01*
X0184769Y0169583D01*
X0184795Y0169619D01*
X0184824Y0169653D01*
X0184856Y0169685D01*
X0184890Y0169714D01*
X0184926Y0169740D01*
X0184965Y0169763D01*
X0185005Y0169782D01*
X0185046Y0169799D01*
X0185089Y0169811D01*
X0185133Y0169821D01*
X0185177Y0169826D01*
X0185222Y0169828D01*
X0185222Y0171895D01*
X0185222Y0171896D02*
X0185177Y0171898D01*
X0185133Y0171903D01*
X0185089Y0171913D01*
X0185046Y0171925D01*
X0185005Y0171942D01*
X0184965Y0171961D01*
X0184926Y0171984D01*
X0184890Y0172010D01*
X0184856Y0172039D01*
X0184824Y0172071D01*
X0184795Y0172105D01*
X0184769Y0172141D01*
X0184746Y0172180D01*
X0184727Y0172220D01*
X0184710Y0172261D01*
X0184698Y0172304D01*
X0184688Y0172348D01*
X0184683Y0172392D01*
X0184681Y0172437D01*
X0184683Y0172482D01*
X0184688Y0172526D01*
X0184698Y0172570D01*
X0184710Y0172613D01*
X0184727Y0172654D01*
X0184746Y0172694D01*
X0184769Y0172733D01*
X0184795Y0172769D01*
X0184824Y0172803D01*
X0184856Y0172835D01*
X0184890Y0172864D01*
X0184926Y0172890D01*
X0184965Y0172913D01*
X0185005Y0172932D01*
X0185046Y0172949D01*
X0185089Y0172961D01*
X0185133Y0172971D01*
X0185177Y0172976D01*
X0185222Y0172978D01*
X0185222Y0175045D01*
X0185177Y0175047D01*
X0185133Y0175052D01*
X0185089Y0175062D01*
X0185046Y0175074D01*
X0185005Y0175091D01*
X0184965Y0175110D01*
X0184926Y0175133D01*
X0184890Y0175159D01*
X0184856Y0175188D01*
X0184824Y0175220D01*
X0184795Y0175254D01*
X0184769Y0175290D01*
X0184746Y0175329D01*
X0184727Y0175369D01*
X0184710Y0175410D01*
X0184698Y0175453D01*
X0184688Y0175497D01*
X0184683Y0175541D01*
X0184681Y0175586D01*
X0184683Y0175631D01*
X0184688Y0175675D01*
X0184698Y0175719D01*
X0184710Y0175762D01*
X0184727Y0175803D01*
X0184746Y0175843D01*
X0184769Y0175882D01*
X0184795Y0175918D01*
X0184824Y0175952D01*
X0184856Y0175984D01*
X0184890Y0176013D01*
X0184926Y0176039D01*
X0184965Y0176062D01*
X0185005Y0176081D01*
X0185046Y0176098D01*
X0185089Y0176110D01*
X0185133Y0176120D01*
X0185177Y0176125D01*
X0185222Y0176127D01*
X0185222Y0176128D02*
X0185222Y0176915D01*
X0164675Y0164513D02*
X0161675Y0164513D01*
X0161773Y0159317D02*
X0164675Y0159317D01*
X0154553Y0141206D02*
X0153667Y0141206D01*
X0153665Y0141161D01*
X0153660Y0141117D01*
X0153650Y0141073D01*
X0153638Y0141030D01*
X0153621Y0140989D01*
X0153602Y0140949D01*
X0153579Y0140910D01*
X0153553Y0140874D01*
X0153524Y0140840D01*
X0153492Y0140808D01*
X0153458Y0140779D01*
X0153422Y0140753D01*
X0153383Y0140730D01*
X0153343Y0140711D01*
X0153302Y0140694D01*
X0153259Y0140682D01*
X0153215Y0140672D01*
X0153171Y0140667D01*
X0153126Y0140665D01*
X0153081Y0140667D01*
X0153037Y0140672D01*
X0152993Y0140682D01*
X0152950Y0140694D01*
X0152909Y0140711D01*
X0152869Y0140730D01*
X0152830Y0140753D01*
X0152794Y0140779D01*
X0152760Y0140808D01*
X0152728Y0140840D01*
X0152699Y0140874D01*
X0152673Y0140910D01*
X0152650Y0140949D01*
X0152631Y0140989D01*
X0152614Y0141030D01*
X0152602Y0141073D01*
X0152592Y0141117D01*
X0152587Y0141161D01*
X0152585Y0141206D01*
X0152584Y0141206D02*
X0150517Y0141206D01*
X0150515Y0141161D01*
X0150510Y0141117D01*
X0150500Y0141073D01*
X0150488Y0141030D01*
X0150471Y0140989D01*
X0150452Y0140949D01*
X0150429Y0140910D01*
X0150403Y0140874D01*
X0150374Y0140840D01*
X0150342Y0140808D01*
X0150308Y0140779D01*
X0150272Y0140753D01*
X0150233Y0140730D01*
X0150193Y0140711D01*
X0150152Y0140694D01*
X0150109Y0140682D01*
X0150065Y0140672D01*
X0150021Y0140667D01*
X0149976Y0140665D01*
X0149931Y0140667D01*
X0149887Y0140672D01*
X0149843Y0140682D01*
X0149800Y0140694D01*
X0149759Y0140711D01*
X0149719Y0140730D01*
X0149680Y0140753D01*
X0149644Y0140779D01*
X0149610Y0140808D01*
X0149578Y0140840D01*
X0149549Y0140874D01*
X0149523Y0140910D01*
X0149500Y0140949D01*
X0149481Y0140989D01*
X0149464Y0141030D01*
X0149452Y0141073D01*
X0149442Y0141117D01*
X0149437Y0141161D01*
X0149435Y0141206D01*
X0147368Y0141206D01*
X0147367Y0141206D02*
X0147365Y0141161D01*
X0147360Y0141117D01*
X0147350Y0141073D01*
X0147338Y0141030D01*
X0147321Y0140989D01*
X0147302Y0140949D01*
X0147279Y0140910D01*
X0147253Y0140874D01*
X0147224Y0140840D01*
X0147192Y0140808D01*
X0147158Y0140779D01*
X0147122Y0140753D01*
X0147083Y0140730D01*
X0147043Y0140711D01*
X0147002Y0140694D01*
X0146959Y0140682D01*
X0146915Y0140672D01*
X0146871Y0140667D01*
X0146826Y0140665D01*
X0146781Y0140667D01*
X0146737Y0140672D01*
X0146693Y0140682D01*
X0146650Y0140694D01*
X0146609Y0140711D01*
X0146569Y0140730D01*
X0146530Y0140753D01*
X0146494Y0140779D01*
X0146460Y0140808D01*
X0146428Y0140840D01*
X0146399Y0140874D01*
X0146373Y0140910D01*
X0146350Y0140949D01*
X0146331Y0140989D01*
X0146314Y0141030D01*
X0146302Y0141073D01*
X0146292Y0141117D01*
X0146287Y0141161D01*
X0146285Y0141206D01*
X0144218Y0141206D01*
X0144216Y0141161D01*
X0144211Y0141117D01*
X0144201Y0141073D01*
X0144189Y0141030D01*
X0144172Y0140989D01*
X0144153Y0140949D01*
X0144130Y0140910D01*
X0144104Y0140874D01*
X0144075Y0140840D01*
X0144043Y0140808D01*
X0144009Y0140779D01*
X0143973Y0140753D01*
X0143934Y0140730D01*
X0143894Y0140711D01*
X0143853Y0140694D01*
X0143810Y0140682D01*
X0143766Y0140672D01*
X0143722Y0140667D01*
X0143677Y0140665D01*
X0143632Y0140667D01*
X0143588Y0140672D01*
X0143544Y0140682D01*
X0143501Y0140694D01*
X0143460Y0140711D01*
X0143420Y0140730D01*
X0143381Y0140753D01*
X0143345Y0140779D01*
X0143311Y0140808D01*
X0143279Y0140840D01*
X0143250Y0140874D01*
X0143224Y0140910D01*
X0143201Y0140949D01*
X0143182Y0140989D01*
X0143165Y0141030D01*
X0143153Y0141073D01*
X0143143Y0141117D01*
X0143138Y0141161D01*
X0143136Y0141206D01*
X0143135Y0141206D02*
X0142348Y0141206D01*
X0142348Y0135301D01*
X0143234Y0135301D01*
X0143236Y0135346D01*
X0143241Y0135390D01*
X0143251Y0135434D01*
X0143263Y0135477D01*
X0143280Y0135518D01*
X0143299Y0135558D01*
X0143322Y0135597D01*
X0143348Y0135633D01*
X0143377Y0135667D01*
X0143409Y0135699D01*
X0143443Y0135728D01*
X0143479Y0135754D01*
X0143518Y0135777D01*
X0143558Y0135796D01*
X0143599Y0135813D01*
X0143642Y0135825D01*
X0143686Y0135835D01*
X0143730Y0135840D01*
X0143775Y0135842D01*
X0143820Y0135840D01*
X0143864Y0135835D01*
X0143908Y0135825D01*
X0143951Y0135813D01*
X0143992Y0135796D01*
X0144032Y0135777D01*
X0144071Y0135754D01*
X0144107Y0135728D01*
X0144141Y0135699D01*
X0144173Y0135667D01*
X0144202Y0135633D01*
X0144228Y0135597D01*
X0144251Y0135558D01*
X0144270Y0135518D01*
X0144287Y0135477D01*
X0144299Y0135434D01*
X0144309Y0135390D01*
X0144314Y0135346D01*
X0144316Y0135301D01*
X0144317Y0135301D02*
X0146383Y0135301D01*
X0146384Y0135301D02*
X0146386Y0135346D01*
X0146391Y0135390D01*
X0146401Y0135434D01*
X0146413Y0135477D01*
X0146430Y0135518D01*
X0146449Y0135558D01*
X0146472Y0135597D01*
X0146498Y0135633D01*
X0146527Y0135667D01*
X0146559Y0135699D01*
X0146593Y0135728D01*
X0146629Y0135754D01*
X0146668Y0135777D01*
X0146708Y0135796D01*
X0146749Y0135813D01*
X0146792Y0135825D01*
X0146836Y0135835D01*
X0146880Y0135840D01*
X0146925Y0135842D01*
X0146970Y0135840D01*
X0147014Y0135835D01*
X0147058Y0135825D01*
X0147101Y0135813D01*
X0147142Y0135796D01*
X0147182Y0135777D01*
X0147221Y0135754D01*
X0147257Y0135728D01*
X0147291Y0135699D01*
X0147323Y0135667D01*
X0147352Y0135633D01*
X0147378Y0135597D01*
X0147401Y0135558D01*
X0147420Y0135518D01*
X0147437Y0135477D01*
X0147449Y0135434D01*
X0147459Y0135390D01*
X0147464Y0135346D01*
X0147466Y0135301D01*
X0149533Y0135301D01*
X0149535Y0135346D01*
X0149540Y0135390D01*
X0149550Y0135434D01*
X0149562Y0135477D01*
X0149579Y0135518D01*
X0149598Y0135558D01*
X0149621Y0135597D01*
X0149647Y0135633D01*
X0149676Y0135667D01*
X0149708Y0135699D01*
X0149742Y0135728D01*
X0149778Y0135754D01*
X0149817Y0135777D01*
X0149857Y0135796D01*
X0149898Y0135813D01*
X0149941Y0135825D01*
X0149985Y0135835D01*
X0150029Y0135840D01*
X0150074Y0135842D01*
X0150119Y0135840D01*
X0150163Y0135835D01*
X0150207Y0135825D01*
X0150250Y0135813D01*
X0150291Y0135796D01*
X0150331Y0135777D01*
X0150370Y0135754D01*
X0150406Y0135728D01*
X0150440Y0135699D01*
X0150472Y0135667D01*
X0150501Y0135633D01*
X0150527Y0135597D01*
X0150550Y0135558D01*
X0150569Y0135518D01*
X0150586Y0135477D01*
X0150598Y0135434D01*
X0150608Y0135390D01*
X0150613Y0135346D01*
X0150615Y0135301D01*
X0150616Y0135301D02*
X0152683Y0135301D01*
X0152685Y0135346D01*
X0152690Y0135390D01*
X0152700Y0135434D01*
X0152712Y0135477D01*
X0152729Y0135518D01*
X0152748Y0135558D01*
X0152771Y0135597D01*
X0152797Y0135633D01*
X0152826Y0135667D01*
X0152858Y0135699D01*
X0152892Y0135728D01*
X0152928Y0135754D01*
X0152967Y0135777D01*
X0153007Y0135796D01*
X0153048Y0135813D01*
X0153091Y0135825D01*
X0153135Y0135835D01*
X0153179Y0135840D01*
X0153224Y0135842D01*
X0153269Y0135840D01*
X0153313Y0135835D01*
X0153357Y0135825D01*
X0153400Y0135813D01*
X0153441Y0135796D01*
X0153481Y0135777D01*
X0153520Y0135754D01*
X0153556Y0135728D01*
X0153590Y0135699D01*
X0153622Y0135667D01*
X0153651Y0135633D01*
X0153677Y0135597D01*
X0153700Y0135558D01*
X0153719Y0135518D01*
X0153736Y0135477D01*
X0153748Y0135434D01*
X0153758Y0135390D01*
X0153763Y0135346D01*
X0153765Y0135301D01*
X0154553Y0135301D01*
X0154553Y0141206D01*
X0140931Y0141206D02*
X0140931Y0135301D01*
X0140143Y0135301D01*
X0140141Y0135346D01*
X0140136Y0135390D01*
X0140126Y0135434D01*
X0140114Y0135477D01*
X0140097Y0135518D01*
X0140078Y0135558D01*
X0140055Y0135597D01*
X0140029Y0135633D01*
X0140000Y0135667D01*
X0139968Y0135699D01*
X0139934Y0135728D01*
X0139898Y0135754D01*
X0139859Y0135777D01*
X0139819Y0135796D01*
X0139778Y0135813D01*
X0139735Y0135825D01*
X0139691Y0135835D01*
X0139647Y0135840D01*
X0139602Y0135842D01*
X0139557Y0135840D01*
X0139513Y0135835D01*
X0139469Y0135825D01*
X0139426Y0135813D01*
X0139385Y0135796D01*
X0139345Y0135777D01*
X0139306Y0135754D01*
X0139270Y0135728D01*
X0139236Y0135699D01*
X0139204Y0135667D01*
X0139175Y0135633D01*
X0139149Y0135597D01*
X0139126Y0135558D01*
X0139107Y0135518D01*
X0139090Y0135477D01*
X0139078Y0135434D01*
X0139068Y0135390D01*
X0139063Y0135346D01*
X0139061Y0135301D01*
X0136994Y0135301D01*
X0136993Y0135301D02*
X0136991Y0135346D01*
X0136986Y0135390D01*
X0136976Y0135434D01*
X0136964Y0135477D01*
X0136947Y0135518D01*
X0136928Y0135558D01*
X0136905Y0135597D01*
X0136879Y0135633D01*
X0136850Y0135667D01*
X0136818Y0135699D01*
X0136784Y0135728D01*
X0136748Y0135754D01*
X0136709Y0135777D01*
X0136669Y0135796D01*
X0136628Y0135813D01*
X0136585Y0135825D01*
X0136541Y0135835D01*
X0136497Y0135840D01*
X0136452Y0135842D01*
X0136407Y0135840D01*
X0136363Y0135835D01*
X0136319Y0135825D01*
X0136276Y0135813D01*
X0136235Y0135796D01*
X0136195Y0135777D01*
X0136156Y0135754D01*
X0136120Y0135728D01*
X0136086Y0135699D01*
X0136054Y0135667D01*
X0136025Y0135633D01*
X0135999Y0135597D01*
X0135976Y0135558D01*
X0135957Y0135518D01*
X0135940Y0135477D01*
X0135928Y0135434D01*
X0135918Y0135390D01*
X0135913Y0135346D01*
X0135911Y0135301D01*
X0133844Y0135301D01*
X0133842Y0135346D01*
X0133837Y0135390D01*
X0133827Y0135434D01*
X0133815Y0135477D01*
X0133798Y0135518D01*
X0133779Y0135558D01*
X0133756Y0135597D01*
X0133730Y0135633D01*
X0133701Y0135667D01*
X0133669Y0135699D01*
X0133635Y0135728D01*
X0133599Y0135754D01*
X0133560Y0135777D01*
X0133520Y0135796D01*
X0133479Y0135813D01*
X0133436Y0135825D01*
X0133392Y0135835D01*
X0133348Y0135840D01*
X0133303Y0135842D01*
X0133258Y0135840D01*
X0133214Y0135835D01*
X0133170Y0135825D01*
X0133127Y0135813D01*
X0133086Y0135796D01*
X0133046Y0135777D01*
X0133007Y0135754D01*
X0132971Y0135728D01*
X0132937Y0135699D01*
X0132905Y0135667D01*
X0132876Y0135633D01*
X0132850Y0135597D01*
X0132827Y0135558D01*
X0132808Y0135518D01*
X0132791Y0135477D01*
X0132779Y0135434D01*
X0132769Y0135390D01*
X0132764Y0135346D01*
X0132762Y0135301D01*
X0132761Y0135301D02*
X0130694Y0135301D01*
X0130692Y0135346D01*
X0130687Y0135390D01*
X0130677Y0135434D01*
X0130665Y0135477D01*
X0130648Y0135518D01*
X0130629Y0135558D01*
X0130606Y0135597D01*
X0130580Y0135633D01*
X0130551Y0135667D01*
X0130519Y0135699D01*
X0130485Y0135728D01*
X0130449Y0135754D01*
X0130410Y0135777D01*
X0130370Y0135796D01*
X0130329Y0135813D01*
X0130286Y0135825D01*
X0130242Y0135835D01*
X0130198Y0135840D01*
X0130153Y0135842D01*
X0130108Y0135840D01*
X0130064Y0135835D01*
X0130020Y0135825D01*
X0129977Y0135813D01*
X0129936Y0135796D01*
X0129896Y0135777D01*
X0129857Y0135754D01*
X0129821Y0135728D01*
X0129787Y0135699D01*
X0129755Y0135667D01*
X0129726Y0135633D01*
X0129700Y0135597D01*
X0129677Y0135558D01*
X0129658Y0135518D01*
X0129641Y0135477D01*
X0129629Y0135434D01*
X0129619Y0135390D01*
X0129614Y0135346D01*
X0129612Y0135301D01*
X0128726Y0135301D01*
X0128726Y0141206D01*
X0129513Y0141206D01*
X0129514Y0141206D02*
X0129516Y0141161D01*
X0129521Y0141117D01*
X0129531Y0141073D01*
X0129543Y0141030D01*
X0129560Y0140989D01*
X0129579Y0140949D01*
X0129602Y0140910D01*
X0129628Y0140874D01*
X0129657Y0140840D01*
X0129689Y0140808D01*
X0129723Y0140779D01*
X0129759Y0140753D01*
X0129798Y0140730D01*
X0129838Y0140711D01*
X0129879Y0140694D01*
X0129922Y0140682D01*
X0129966Y0140672D01*
X0130010Y0140667D01*
X0130055Y0140665D01*
X0130100Y0140667D01*
X0130144Y0140672D01*
X0130188Y0140682D01*
X0130231Y0140694D01*
X0130272Y0140711D01*
X0130312Y0140730D01*
X0130351Y0140753D01*
X0130387Y0140779D01*
X0130421Y0140808D01*
X0130453Y0140840D01*
X0130482Y0140874D01*
X0130508Y0140910D01*
X0130531Y0140949D01*
X0130550Y0140989D01*
X0130567Y0141030D01*
X0130579Y0141073D01*
X0130589Y0141117D01*
X0130594Y0141161D01*
X0130596Y0141206D01*
X0132663Y0141206D01*
X0132665Y0141161D01*
X0132670Y0141117D01*
X0132680Y0141073D01*
X0132692Y0141030D01*
X0132709Y0140989D01*
X0132728Y0140949D01*
X0132751Y0140910D01*
X0132777Y0140874D01*
X0132806Y0140840D01*
X0132838Y0140808D01*
X0132872Y0140779D01*
X0132908Y0140753D01*
X0132947Y0140730D01*
X0132987Y0140711D01*
X0133028Y0140694D01*
X0133071Y0140682D01*
X0133115Y0140672D01*
X0133159Y0140667D01*
X0133204Y0140665D01*
X0133249Y0140667D01*
X0133293Y0140672D01*
X0133337Y0140682D01*
X0133380Y0140694D01*
X0133421Y0140711D01*
X0133461Y0140730D01*
X0133500Y0140753D01*
X0133536Y0140779D01*
X0133570Y0140808D01*
X0133602Y0140840D01*
X0133631Y0140874D01*
X0133657Y0140910D01*
X0133680Y0140949D01*
X0133699Y0140989D01*
X0133716Y0141030D01*
X0133728Y0141073D01*
X0133738Y0141117D01*
X0133743Y0141161D01*
X0133745Y0141206D01*
X0133746Y0141206D02*
X0135813Y0141206D01*
X0135815Y0141161D01*
X0135820Y0141117D01*
X0135830Y0141073D01*
X0135842Y0141030D01*
X0135859Y0140989D01*
X0135878Y0140949D01*
X0135901Y0140910D01*
X0135927Y0140874D01*
X0135956Y0140840D01*
X0135988Y0140808D01*
X0136022Y0140779D01*
X0136058Y0140753D01*
X0136097Y0140730D01*
X0136137Y0140711D01*
X0136178Y0140694D01*
X0136221Y0140682D01*
X0136265Y0140672D01*
X0136309Y0140667D01*
X0136354Y0140665D01*
X0136399Y0140667D01*
X0136443Y0140672D01*
X0136487Y0140682D01*
X0136530Y0140694D01*
X0136571Y0140711D01*
X0136611Y0140730D01*
X0136650Y0140753D01*
X0136686Y0140779D01*
X0136720Y0140808D01*
X0136752Y0140840D01*
X0136781Y0140874D01*
X0136807Y0140910D01*
X0136830Y0140949D01*
X0136849Y0140989D01*
X0136866Y0141030D01*
X0136878Y0141073D01*
X0136888Y0141117D01*
X0136893Y0141161D01*
X0136895Y0141206D01*
X0138962Y0141206D01*
X0138963Y0141206D02*
X0138965Y0141161D01*
X0138970Y0141117D01*
X0138980Y0141073D01*
X0138992Y0141030D01*
X0139009Y0140989D01*
X0139028Y0140949D01*
X0139051Y0140910D01*
X0139077Y0140874D01*
X0139106Y0140840D01*
X0139138Y0140808D01*
X0139172Y0140779D01*
X0139208Y0140753D01*
X0139247Y0140730D01*
X0139287Y0140711D01*
X0139328Y0140694D01*
X0139371Y0140682D01*
X0139415Y0140672D01*
X0139459Y0140667D01*
X0139504Y0140665D01*
X0139549Y0140667D01*
X0139593Y0140672D01*
X0139637Y0140682D01*
X0139680Y0140694D01*
X0139721Y0140711D01*
X0139761Y0140730D01*
X0139800Y0140753D01*
X0139836Y0140779D01*
X0139870Y0140808D01*
X0139902Y0140840D01*
X0139931Y0140874D01*
X0139957Y0140910D01*
X0139980Y0140949D01*
X0139999Y0140989D01*
X0140016Y0141030D01*
X0140028Y0141073D01*
X0140038Y0141117D01*
X0140043Y0141161D01*
X0140045Y0141206D01*
X0140931Y0141206D01*
X0109950Y0140025D02*
X0107049Y0140025D01*
X0106950Y0145222D02*
X0109950Y0145222D01*
X0090777Y0161443D02*
X0087777Y0161443D01*
X0087777Y0166639D02*
X0090679Y0166639D01*
X0087742Y0195576D02*
X0093647Y0195576D01*
X0093647Y0196462D01*
X0093647Y0196463D02*
X0093602Y0196465D01*
X0093558Y0196470D01*
X0093514Y0196480D01*
X0093471Y0196492D01*
X0093430Y0196509D01*
X0093390Y0196528D01*
X0093351Y0196551D01*
X0093315Y0196577D01*
X0093281Y0196606D01*
X0093249Y0196638D01*
X0093220Y0196672D01*
X0093194Y0196708D01*
X0093171Y0196747D01*
X0093152Y0196787D01*
X0093135Y0196828D01*
X0093123Y0196871D01*
X0093113Y0196915D01*
X0093108Y0196959D01*
X0093106Y0197004D01*
X0093108Y0197049D01*
X0093113Y0197093D01*
X0093123Y0197137D01*
X0093135Y0197180D01*
X0093152Y0197221D01*
X0093171Y0197261D01*
X0093194Y0197300D01*
X0093220Y0197336D01*
X0093249Y0197370D01*
X0093281Y0197402D01*
X0093315Y0197431D01*
X0093351Y0197457D01*
X0093390Y0197480D01*
X0093430Y0197499D01*
X0093471Y0197516D01*
X0093514Y0197528D01*
X0093558Y0197538D01*
X0093602Y0197543D01*
X0093647Y0197545D01*
X0093647Y0199612D01*
X0093602Y0199614D01*
X0093558Y0199619D01*
X0093514Y0199629D01*
X0093471Y0199641D01*
X0093430Y0199658D01*
X0093390Y0199677D01*
X0093351Y0199700D01*
X0093315Y0199726D01*
X0093281Y0199755D01*
X0093249Y0199787D01*
X0093220Y0199821D01*
X0093194Y0199857D01*
X0093171Y0199896D01*
X0093152Y0199936D01*
X0093135Y0199977D01*
X0093123Y0200020D01*
X0093113Y0200064D01*
X0093108Y0200108D01*
X0093106Y0200153D01*
X0093108Y0200198D01*
X0093113Y0200242D01*
X0093123Y0200286D01*
X0093135Y0200329D01*
X0093152Y0200370D01*
X0093171Y0200410D01*
X0093194Y0200449D01*
X0093220Y0200485D01*
X0093249Y0200519D01*
X0093281Y0200551D01*
X0093315Y0200580D01*
X0093351Y0200606D01*
X0093390Y0200629D01*
X0093430Y0200648D01*
X0093471Y0200665D01*
X0093514Y0200677D01*
X0093558Y0200687D01*
X0093602Y0200692D01*
X0093647Y0200694D01*
X0093647Y0202761D01*
X0093647Y0202762D02*
X0093602Y0202764D01*
X0093558Y0202769D01*
X0093514Y0202779D01*
X0093471Y0202791D01*
X0093430Y0202808D01*
X0093390Y0202827D01*
X0093351Y0202850D01*
X0093315Y0202876D01*
X0093281Y0202905D01*
X0093249Y0202937D01*
X0093220Y0202971D01*
X0093194Y0203007D01*
X0093171Y0203046D01*
X0093152Y0203086D01*
X0093135Y0203127D01*
X0093123Y0203170D01*
X0093113Y0203214D01*
X0093108Y0203258D01*
X0093106Y0203303D01*
X0093108Y0203348D01*
X0093113Y0203392D01*
X0093123Y0203436D01*
X0093135Y0203479D01*
X0093152Y0203520D01*
X0093171Y0203560D01*
X0093194Y0203599D01*
X0093220Y0203635D01*
X0093249Y0203669D01*
X0093281Y0203701D01*
X0093315Y0203730D01*
X0093351Y0203756D01*
X0093390Y0203779D01*
X0093430Y0203798D01*
X0093471Y0203815D01*
X0093514Y0203827D01*
X0093558Y0203837D01*
X0093602Y0203842D01*
X0093647Y0203844D01*
X0093647Y0205911D01*
X0093602Y0205913D01*
X0093558Y0205918D01*
X0093514Y0205928D01*
X0093471Y0205940D01*
X0093430Y0205957D01*
X0093390Y0205976D01*
X0093351Y0205999D01*
X0093315Y0206025D01*
X0093281Y0206054D01*
X0093249Y0206086D01*
X0093220Y0206120D01*
X0093194Y0206156D01*
X0093171Y0206195D01*
X0093152Y0206235D01*
X0093135Y0206276D01*
X0093123Y0206319D01*
X0093113Y0206363D01*
X0093108Y0206407D01*
X0093106Y0206452D01*
X0093108Y0206497D01*
X0093113Y0206541D01*
X0093123Y0206585D01*
X0093135Y0206628D01*
X0093152Y0206669D01*
X0093171Y0206709D01*
X0093194Y0206748D01*
X0093220Y0206784D01*
X0093249Y0206818D01*
X0093281Y0206850D01*
X0093315Y0206879D01*
X0093351Y0206905D01*
X0093390Y0206928D01*
X0093430Y0206947D01*
X0093471Y0206964D01*
X0093514Y0206976D01*
X0093558Y0206986D01*
X0093602Y0206991D01*
X0093647Y0206993D01*
X0093647Y0206994D02*
X0093647Y0207781D01*
X0087742Y0207781D01*
X0087742Y0206895D01*
X0087787Y0206893D01*
X0087831Y0206888D01*
X0087875Y0206878D01*
X0087918Y0206866D01*
X0087959Y0206849D01*
X0087999Y0206830D01*
X0088038Y0206807D01*
X0088074Y0206781D01*
X0088108Y0206752D01*
X0088140Y0206720D01*
X0088169Y0206686D01*
X0088195Y0206650D01*
X0088218Y0206611D01*
X0088237Y0206571D01*
X0088254Y0206530D01*
X0088266Y0206487D01*
X0088276Y0206443D01*
X0088281Y0206399D01*
X0088283Y0206354D01*
X0088281Y0206309D01*
X0088276Y0206265D01*
X0088266Y0206221D01*
X0088254Y0206178D01*
X0088237Y0206137D01*
X0088218Y0206097D01*
X0088195Y0206058D01*
X0088169Y0206022D01*
X0088140Y0205988D01*
X0088108Y0205956D01*
X0088074Y0205927D01*
X0088038Y0205901D01*
X0087999Y0205878D01*
X0087959Y0205859D01*
X0087918Y0205842D01*
X0087875Y0205830D01*
X0087831Y0205820D01*
X0087787Y0205815D01*
X0087742Y0205813D01*
X0087742Y0203746D01*
X0087742Y0203745D02*
X0087787Y0203743D01*
X0087831Y0203738D01*
X0087875Y0203728D01*
X0087918Y0203716D01*
X0087959Y0203699D01*
X0087999Y0203680D01*
X0088038Y0203657D01*
X0088074Y0203631D01*
X0088108Y0203602D01*
X0088140Y0203570D01*
X0088169Y0203536D01*
X0088195Y0203500D01*
X0088218Y0203461D01*
X0088237Y0203421D01*
X0088254Y0203380D01*
X0088266Y0203337D01*
X0088276Y0203293D01*
X0088281Y0203249D01*
X0088283Y0203204D01*
X0088281Y0203159D01*
X0088276Y0203115D01*
X0088266Y0203071D01*
X0088254Y0203028D01*
X0088237Y0202987D01*
X0088218Y0202947D01*
X0088195Y0202908D01*
X0088169Y0202872D01*
X0088140Y0202838D01*
X0088108Y0202806D01*
X0088074Y0202777D01*
X0088038Y0202751D01*
X0087999Y0202728D01*
X0087959Y0202709D01*
X0087918Y0202692D01*
X0087875Y0202680D01*
X0087831Y0202670D01*
X0087787Y0202665D01*
X0087742Y0202663D01*
X0087742Y0200596D01*
X0087787Y0200594D01*
X0087831Y0200589D01*
X0087875Y0200579D01*
X0087918Y0200567D01*
X0087959Y0200550D01*
X0087999Y0200531D01*
X0088038Y0200508D01*
X0088074Y0200482D01*
X0088108Y0200453D01*
X0088140Y0200421D01*
X0088169Y0200387D01*
X0088195Y0200351D01*
X0088218Y0200312D01*
X0088237Y0200272D01*
X0088254Y0200231D01*
X0088266Y0200188D01*
X0088276Y0200144D01*
X0088281Y0200100D01*
X0088283Y0200055D01*
X0088281Y0200010D01*
X0088276Y0199966D01*
X0088266Y0199922D01*
X0088254Y0199879D01*
X0088237Y0199838D01*
X0088218Y0199798D01*
X0088195Y0199759D01*
X0088169Y0199723D01*
X0088140Y0199689D01*
X0088108Y0199657D01*
X0088074Y0199628D01*
X0088038Y0199602D01*
X0087999Y0199579D01*
X0087959Y0199560D01*
X0087918Y0199543D01*
X0087875Y0199531D01*
X0087831Y0199521D01*
X0087787Y0199516D01*
X0087742Y0199514D01*
X0087742Y0199513D02*
X0087742Y0197446D01*
X0087787Y0197444D01*
X0087831Y0197439D01*
X0087875Y0197429D01*
X0087918Y0197417D01*
X0087959Y0197400D01*
X0087999Y0197381D01*
X0088038Y0197358D01*
X0088074Y0197332D01*
X0088108Y0197303D01*
X0088140Y0197271D01*
X0088169Y0197237D01*
X0088195Y0197201D01*
X0088218Y0197162D01*
X0088237Y0197122D01*
X0088254Y0197081D01*
X0088266Y0197038D01*
X0088276Y0196994D01*
X0088281Y0196950D01*
X0088283Y0196905D01*
X0088281Y0196860D01*
X0088276Y0196816D01*
X0088266Y0196772D01*
X0088254Y0196729D01*
X0088237Y0196688D01*
X0088218Y0196648D01*
X0088195Y0196609D01*
X0088169Y0196573D01*
X0088140Y0196539D01*
X0088108Y0196507D01*
X0088074Y0196478D01*
X0088038Y0196452D01*
X0087999Y0196429D01*
X0087959Y0196410D01*
X0087918Y0196393D01*
X0087875Y0196381D01*
X0087831Y0196371D01*
X0087787Y0196366D01*
X0087742Y0196364D01*
X0087742Y0195576D01*
X0104490Y0223883D02*
X0107391Y0223883D01*
X0107391Y0229080D02*
X0104391Y0229080D01*
X0128490Y0230104D02*
X0128490Y0236009D01*
X0129277Y0236009D01*
X0129278Y0236009D02*
X0129280Y0235964D01*
X0129285Y0235920D01*
X0129295Y0235876D01*
X0129307Y0235833D01*
X0129324Y0235792D01*
X0129343Y0235752D01*
X0129366Y0235713D01*
X0129392Y0235677D01*
X0129421Y0235643D01*
X0129453Y0235611D01*
X0129487Y0235582D01*
X0129523Y0235556D01*
X0129562Y0235533D01*
X0129602Y0235514D01*
X0129643Y0235497D01*
X0129686Y0235485D01*
X0129730Y0235475D01*
X0129774Y0235470D01*
X0129819Y0235468D01*
X0129864Y0235470D01*
X0129908Y0235475D01*
X0129952Y0235485D01*
X0129995Y0235497D01*
X0130036Y0235514D01*
X0130076Y0235533D01*
X0130115Y0235556D01*
X0130151Y0235582D01*
X0130185Y0235611D01*
X0130217Y0235643D01*
X0130246Y0235677D01*
X0130272Y0235713D01*
X0130295Y0235752D01*
X0130314Y0235792D01*
X0130331Y0235833D01*
X0130343Y0235876D01*
X0130353Y0235920D01*
X0130358Y0235964D01*
X0130360Y0236009D01*
X0132427Y0236009D01*
X0132429Y0235964D01*
X0132434Y0235920D01*
X0132444Y0235876D01*
X0132456Y0235833D01*
X0132473Y0235792D01*
X0132492Y0235752D01*
X0132515Y0235713D01*
X0132541Y0235677D01*
X0132570Y0235643D01*
X0132602Y0235611D01*
X0132636Y0235582D01*
X0132672Y0235556D01*
X0132711Y0235533D01*
X0132751Y0235514D01*
X0132792Y0235497D01*
X0132835Y0235485D01*
X0132879Y0235475D01*
X0132923Y0235470D01*
X0132968Y0235468D01*
X0133013Y0235470D01*
X0133057Y0235475D01*
X0133101Y0235485D01*
X0133144Y0235497D01*
X0133185Y0235514D01*
X0133225Y0235533D01*
X0133264Y0235556D01*
X0133300Y0235582D01*
X0133334Y0235611D01*
X0133366Y0235643D01*
X0133395Y0235677D01*
X0133421Y0235713D01*
X0133444Y0235752D01*
X0133463Y0235792D01*
X0133480Y0235833D01*
X0133492Y0235876D01*
X0133502Y0235920D01*
X0133507Y0235964D01*
X0133509Y0236009D01*
X0135576Y0236009D01*
X0135577Y0236009D02*
X0135579Y0235964D01*
X0135584Y0235920D01*
X0135594Y0235876D01*
X0135606Y0235833D01*
X0135623Y0235792D01*
X0135642Y0235752D01*
X0135665Y0235713D01*
X0135691Y0235677D01*
X0135720Y0235643D01*
X0135752Y0235611D01*
X0135786Y0235582D01*
X0135822Y0235556D01*
X0135861Y0235533D01*
X0135901Y0235514D01*
X0135942Y0235497D01*
X0135985Y0235485D01*
X0136029Y0235475D01*
X0136073Y0235470D01*
X0136118Y0235468D01*
X0136163Y0235470D01*
X0136207Y0235475D01*
X0136251Y0235485D01*
X0136294Y0235497D01*
X0136335Y0235514D01*
X0136375Y0235533D01*
X0136414Y0235556D01*
X0136450Y0235582D01*
X0136484Y0235611D01*
X0136516Y0235643D01*
X0136545Y0235677D01*
X0136571Y0235713D01*
X0136594Y0235752D01*
X0136613Y0235792D01*
X0136630Y0235833D01*
X0136642Y0235876D01*
X0136652Y0235920D01*
X0136657Y0235964D01*
X0136659Y0236009D01*
X0138726Y0236009D01*
X0138728Y0235964D01*
X0138733Y0235920D01*
X0138743Y0235876D01*
X0138755Y0235833D01*
X0138772Y0235792D01*
X0138791Y0235752D01*
X0138814Y0235713D01*
X0138840Y0235677D01*
X0138869Y0235643D01*
X0138901Y0235611D01*
X0138935Y0235582D01*
X0138971Y0235556D01*
X0139010Y0235533D01*
X0139050Y0235514D01*
X0139091Y0235497D01*
X0139134Y0235485D01*
X0139178Y0235475D01*
X0139222Y0235470D01*
X0139267Y0235468D01*
X0139312Y0235470D01*
X0139356Y0235475D01*
X0139400Y0235485D01*
X0139443Y0235497D01*
X0139484Y0235514D01*
X0139524Y0235533D01*
X0139563Y0235556D01*
X0139599Y0235582D01*
X0139633Y0235611D01*
X0139665Y0235643D01*
X0139694Y0235677D01*
X0139720Y0235713D01*
X0139743Y0235752D01*
X0139762Y0235792D01*
X0139779Y0235833D01*
X0139791Y0235876D01*
X0139801Y0235920D01*
X0139806Y0235964D01*
X0139808Y0236009D01*
X0139809Y0236009D02*
X0140694Y0236009D01*
X0140694Y0230104D01*
X0139907Y0230104D01*
X0139905Y0230149D01*
X0139900Y0230193D01*
X0139890Y0230237D01*
X0139878Y0230280D01*
X0139861Y0230321D01*
X0139842Y0230361D01*
X0139819Y0230400D01*
X0139793Y0230436D01*
X0139764Y0230470D01*
X0139732Y0230502D01*
X0139698Y0230531D01*
X0139662Y0230557D01*
X0139623Y0230580D01*
X0139583Y0230599D01*
X0139542Y0230616D01*
X0139499Y0230628D01*
X0139455Y0230638D01*
X0139411Y0230643D01*
X0139366Y0230645D01*
X0139321Y0230643D01*
X0139277Y0230638D01*
X0139233Y0230628D01*
X0139190Y0230616D01*
X0139149Y0230599D01*
X0139109Y0230580D01*
X0139070Y0230557D01*
X0139034Y0230531D01*
X0139000Y0230502D01*
X0138968Y0230470D01*
X0138939Y0230436D01*
X0138913Y0230400D01*
X0138890Y0230361D01*
X0138871Y0230321D01*
X0138854Y0230280D01*
X0138842Y0230237D01*
X0138832Y0230193D01*
X0138827Y0230149D01*
X0138825Y0230104D01*
X0138824Y0230104D02*
X0136757Y0230104D01*
X0136755Y0230149D01*
X0136750Y0230193D01*
X0136740Y0230237D01*
X0136728Y0230280D01*
X0136711Y0230321D01*
X0136692Y0230361D01*
X0136669Y0230400D01*
X0136643Y0230436D01*
X0136614Y0230470D01*
X0136582Y0230502D01*
X0136548Y0230531D01*
X0136512Y0230557D01*
X0136473Y0230580D01*
X0136433Y0230599D01*
X0136392Y0230616D01*
X0136349Y0230628D01*
X0136305Y0230638D01*
X0136261Y0230643D01*
X0136216Y0230645D01*
X0136171Y0230643D01*
X0136127Y0230638D01*
X0136083Y0230628D01*
X0136040Y0230616D01*
X0135999Y0230599D01*
X0135959Y0230580D01*
X0135920Y0230557D01*
X0135884Y0230531D01*
X0135850Y0230502D01*
X0135818Y0230470D01*
X0135789Y0230436D01*
X0135763Y0230400D01*
X0135740Y0230361D01*
X0135721Y0230321D01*
X0135704Y0230280D01*
X0135692Y0230237D01*
X0135682Y0230193D01*
X0135677Y0230149D01*
X0135675Y0230104D01*
X0133608Y0230104D01*
X0133606Y0230149D01*
X0133601Y0230193D01*
X0133591Y0230237D01*
X0133579Y0230280D01*
X0133562Y0230321D01*
X0133543Y0230361D01*
X0133520Y0230400D01*
X0133494Y0230436D01*
X0133465Y0230470D01*
X0133433Y0230502D01*
X0133399Y0230531D01*
X0133363Y0230557D01*
X0133324Y0230580D01*
X0133284Y0230599D01*
X0133243Y0230616D01*
X0133200Y0230628D01*
X0133156Y0230638D01*
X0133112Y0230643D01*
X0133067Y0230645D01*
X0133022Y0230643D01*
X0132978Y0230638D01*
X0132934Y0230628D01*
X0132891Y0230616D01*
X0132850Y0230599D01*
X0132810Y0230580D01*
X0132771Y0230557D01*
X0132735Y0230531D01*
X0132701Y0230502D01*
X0132669Y0230470D01*
X0132640Y0230436D01*
X0132614Y0230400D01*
X0132591Y0230361D01*
X0132572Y0230321D01*
X0132555Y0230280D01*
X0132543Y0230237D01*
X0132533Y0230193D01*
X0132528Y0230149D01*
X0132526Y0230104D01*
X0132525Y0230104D02*
X0130458Y0230104D01*
X0130456Y0230149D01*
X0130451Y0230193D01*
X0130441Y0230237D01*
X0130429Y0230280D01*
X0130412Y0230321D01*
X0130393Y0230361D01*
X0130370Y0230400D01*
X0130344Y0230436D01*
X0130315Y0230470D01*
X0130283Y0230502D01*
X0130249Y0230531D01*
X0130213Y0230557D01*
X0130174Y0230580D01*
X0130134Y0230599D01*
X0130093Y0230616D01*
X0130050Y0230628D01*
X0130006Y0230638D01*
X0129962Y0230643D01*
X0129917Y0230645D01*
X0129872Y0230643D01*
X0129828Y0230638D01*
X0129784Y0230628D01*
X0129741Y0230616D01*
X0129700Y0230599D01*
X0129660Y0230580D01*
X0129621Y0230557D01*
X0129585Y0230531D01*
X0129551Y0230502D01*
X0129519Y0230470D01*
X0129490Y0230436D01*
X0129464Y0230400D01*
X0129441Y0230361D01*
X0129422Y0230321D01*
X0129405Y0230280D01*
X0129393Y0230237D01*
X0129383Y0230193D01*
X0129378Y0230149D01*
X0129376Y0230104D01*
X0128490Y0230104D01*
X0141797Y0230025D02*
X0141797Y0235931D01*
X0142584Y0235931D01*
X0142585Y0235931D02*
X0142587Y0235886D01*
X0142592Y0235842D01*
X0142602Y0235798D01*
X0142614Y0235755D01*
X0142631Y0235714D01*
X0142650Y0235674D01*
X0142673Y0235635D01*
X0142699Y0235599D01*
X0142728Y0235565D01*
X0142760Y0235533D01*
X0142794Y0235504D01*
X0142830Y0235478D01*
X0142869Y0235455D01*
X0142909Y0235436D01*
X0142950Y0235419D01*
X0142993Y0235407D01*
X0143037Y0235397D01*
X0143081Y0235392D01*
X0143126Y0235390D01*
X0143171Y0235392D01*
X0143215Y0235397D01*
X0143259Y0235407D01*
X0143302Y0235419D01*
X0143343Y0235436D01*
X0143383Y0235455D01*
X0143422Y0235478D01*
X0143458Y0235504D01*
X0143492Y0235533D01*
X0143524Y0235565D01*
X0143553Y0235599D01*
X0143579Y0235635D01*
X0143602Y0235674D01*
X0143621Y0235714D01*
X0143638Y0235755D01*
X0143650Y0235798D01*
X0143660Y0235842D01*
X0143665Y0235886D01*
X0143667Y0235931D01*
X0145734Y0235931D01*
X0145736Y0235886D01*
X0145741Y0235842D01*
X0145751Y0235798D01*
X0145763Y0235755D01*
X0145780Y0235714D01*
X0145799Y0235674D01*
X0145822Y0235635D01*
X0145848Y0235599D01*
X0145877Y0235565D01*
X0145909Y0235533D01*
X0145943Y0235504D01*
X0145979Y0235478D01*
X0146018Y0235455D01*
X0146058Y0235436D01*
X0146099Y0235419D01*
X0146142Y0235407D01*
X0146186Y0235397D01*
X0146230Y0235392D01*
X0146275Y0235390D01*
X0146320Y0235392D01*
X0146364Y0235397D01*
X0146408Y0235407D01*
X0146451Y0235419D01*
X0146492Y0235436D01*
X0146532Y0235455D01*
X0146571Y0235478D01*
X0146607Y0235504D01*
X0146641Y0235533D01*
X0146673Y0235565D01*
X0146702Y0235599D01*
X0146728Y0235635D01*
X0146751Y0235674D01*
X0146770Y0235714D01*
X0146787Y0235755D01*
X0146799Y0235798D01*
X0146809Y0235842D01*
X0146814Y0235886D01*
X0146816Y0235931D01*
X0146817Y0235931D02*
X0148883Y0235931D01*
X0148884Y0235931D02*
X0148886Y0235886D01*
X0148891Y0235842D01*
X0148901Y0235798D01*
X0148913Y0235755D01*
X0148930Y0235714D01*
X0148949Y0235674D01*
X0148972Y0235635D01*
X0148998Y0235599D01*
X0149027Y0235565D01*
X0149059Y0235533D01*
X0149093Y0235504D01*
X0149129Y0235478D01*
X0149168Y0235455D01*
X0149208Y0235436D01*
X0149249Y0235419D01*
X0149292Y0235407D01*
X0149336Y0235397D01*
X0149380Y0235392D01*
X0149425Y0235390D01*
X0149470Y0235392D01*
X0149514Y0235397D01*
X0149558Y0235407D01*
X0149601Y0235419D01*
X0149642Y0235436D01*
X0149682Y0235455D01*
X0149721Y0235478D01*
X0149757Y0235504D01*
X0149791Y0235533D01*
X0149823Y0235565D01*
X0149852Y0235599D01*
X0149878Y0235635D01*
X0149901Y0235674D01*
X0149920Y0235714D01*
X0149937Y0235755D01*
X0149949Y0235798D01*
X0149959Y0235842D01*
X0149964Y0235886D01*
X0149966Y0235931D01*
X0152033Y0235931D01*
X0152035Y0235886D01*
X0152040Y0235842D01*
X0152050Y0235798D01*
X0152062Y0235755D01*
X0152079Y0235714D01*
X0152098Y0235674D01*
X0152121Y0235635D01*
X0152147Y0235599D01*
X0152176Y0235565D01*
X0152208Y0235533D01*
X0152242Y0235504D01*
X0152278Y0235478D01*
X0152317Y0235455D01*
X0152357Y0235436D01*
X0152398Y0235419D01*
X0152441Y0235407D01*
X0152485Y0235397D01*
X0152529Y0235392D01*
X0152574Y0235390D01*
X0152619Y0235392D01*
X0152663Y0235397D01*
X0152707Y0235407D01*
X0152750Y0235419D01*
X0152791Y0235436D01*
X0152831Y0235455D01*
X0152870Y0235478D01*
X0152906Y0235504D01*
X0152940Y0235533D01*
X0152972Y0235565D01*
X0153001Y0235599D01*
X0153027Y0235635D01*
X0153050Y0235674D01*
X0153069Y0235714D01*
X0153086Y0235755D01*
X0153098Y0235798D01*
X0153108Y0235842D01*
X0153113Y0235886D01*
X0153115Y0235931D01*
X0153116Y0235931D02*
X0154002Y0235931D01*
X0154002Y0230025D01*
X0153214Y0230025D01*
X0153212Y0230070D01*
X0153207Y0230114D01*
X0153197Y0230158D01*
X0153185Y0230201D01*
X0153168Y0230242D01*
X0153149Y0230282D01*
X0153126Y0230321D01*
X0153100Y0230357D01*
X0153071Y0230391D01*
X0153039Y0230423D01*
X0153005Y0230452D01*
X0152969Y0230478D01*
X0152930Y0230501D01*
X0152890Y0230520D01*
X0152849Y0230537D01*
X0152806Y0230549D01*
X0152762Y0230559D01*
X0152718Y0230564D01*
X0152673Y0230566D01*
X0152628Y0230564D01*
X0152584Y0230559D01*
X0152540Y0230549D01*
X0152497Y0230537D01*
X0152456Y0230520D01*
X0152416Y0230501D01*
X0152377Y0230478D01*
X0152341Y0230452D01*
X0152307Y0230423D01*
X0152275Y0230391D01*
X0152246Y0230357D01*
X0152220Y0230321D01*
X0152197Y0230282D01*
X0152178Y0230242D01*
X0152161Y0230201D01*
X0152149Y0230158D01*
X0152139Y0230114D01*
X0152134Y0230070D01*
X0152132Y0230025D01*
X0152131Y0230025D02*
X0150065Y0230025D01*
X0150064Y0230025D02*
X0150062Y0230070D01*
X0150057Y0230114D01*
X0150047Y0230158D01*
X0150035Y0230201D01*
X0150018Y0230242D01*
X0149999Y0230282D01*
X0149976Y0230321D01*
X0149950Y0230357D01*
X0149921Y0230391D01*
X0149889Y0230423D01*
X0149855Y0230452D01*
X0149819Y0230478D01*
X0149780Y0230501D01*
X0149740Y0230520D01*
X0149699Y0230537D01*
X0149656Y0230549D01*
X0149612Y0230559D01*
X0149568Y0230564D01*
X0149523Y0230566D01*
X0149478Y0230564D01*
X0149434Y0230559D01*
X0149390Y0230549D01*
X0149347Y0230537D01*
X0149306Y0230520D01*
X0149266Y0230501D01*
X0149227Y0230478D01*
X0149191Y0230452D01*
X0149157Y0230423D01*
X0149125Y0230391D01*
X0149096Y0230357D01*
X0149070Y0230321D01*
X0149047Y0230282D01*
X0149028Y0230242D01*
X0149011Y0230201D01*
X0148999Y0230158D01*
X0148989Y0230114D01*
X0148984Y0230070D01*
X0148982Y0230025D01*
X0146915Y0230025D01*
X0146913Y0230070D01*
X0146908Y0230114D01*
X0146898Y0230158D01*
X0146886Y0230201D01*
X0146869Y0230242D01*
X0146850Y0230282D01*
X0146827Y0230321D01*
X0146801Y0230357D01*
X0146772Y0230391D01*
X0146740Y0230423D01*
X0146706Y0230452D01*
X0146670Y0230478D01*
X0146631Y0230501D01*
X0146591Y0230520D01*
X0146550Y0230537D01*
X0146507Y0230549D01*
X0146463Y0230559D01*
X0146419Y0230564D01*
X0146374Y0230566D01*
X0146329Y0230564D01*
X0146285Y0230559D01*
X0146241Y0230549D01*
X0146198Y0230537D01*
X0146157Y0230520D01*
X0146117Y0230501D01*
X0146078Y0230478D01*
X0146042Y0230452D01*
X0146008Y0230423D01*
X0145976Y0230391D01*
X0145947Y0230357D01*
X0145921Y0230321D01*
X0145898Y0230282D01*
X0145879Y0230242D01*
X0145862Y0230201D01*
X0145850Y0230158D01*
X0145840Y0230114D01*
X0145835Y0230070D01*
X0145833Y0230025D01*
X0145832Y0230025D02*
X0143765Y0230025D01*
X0143763Y0230070D01*
X0143758Y0230114D01*
X0143748Y0230158D01*
X0143736Y0230201D01*
X0143719Y0230242D01*
X0143700Y0230282D01*
X0143677Y0230321D01*
X0143651Y0230357D01*
X0143622Y0230391D01*
X0143590Y0230423D01*
X0143556Y0230452D01*
X0143520Y0230478D01*
X0143481Y0230501D01*
X0143441Y0230520D01*
X0143400Y0230537D01*
X0143357Y0230549D01*
X0143313Y0230559D01*
X0143269Y0230564D01*
X0143224Y0230566D01*
X0143179Y0230564D01*
X0143135Y0230559D01*
X0143091Y0230549D01*
X0143048Y0230537D01*
X0143007Y0230520D01*
X0142967Y0230501D01*
X0142928Y0230478D01*
X0142892Y0230452D01*
X0142858Y0230423D01*
X0142826Y0230391D01*
X0142797Y0230357D01*
X0142771Y0230321D01*
X0142748Y0230282D01*
X0142729Y0230242D01*
X0142712Y0230201D01*
X0142700Y0230158D01*
X0142690Y0230114D01*
X0142685Y0230070D01*
X0142683Y0230025D01*
X0141797Y0230025D01*
X0139326Y0203789D02*
X0139326Y0200186D01*
X0138125Y0200186D02*
X0140527Y0200186D01*
X0138125Y0202588D02*
X0139326Y0203789D01*
X0136844Y0203188D02*
X0136244Y0203789D01*
X0134442Y0203789D01*
X0134442Y0200186D01*
X0136244Y0200186D01*
X0136844Y0200786D01*
X0136844Y0203188D01*
X0133161Y0203188D02*
X0132561Y0203789D01*
X0130759Y0203789D01*
X0130759Y0200186D01*
X0132561Y0200186D01*
X0133161Y0200786D01*
X0133161Y0203188D01*
X0266127Y0089395D02*
X0270731Y0089395D01*
X0270731Y0087861D02*
X0270731Y0090930D01*
X0267661Y0087861D02*
X0266127Y0089395D01*
X0270731Y0086326D02*
X0270731Y0083257D01*
X0266127Y0083257D01*
X0295792Y0084398D02*
X0300396Y0084398D01*
X0300396Y0085932D02*
X0300396Y0082863D01*
X0297327Y0082863D02*
X0295792Y0084398D01*
X0296559Y0087467D02*
X0295792Y0088234D01*
X0295792Y0089769D01*
X0296559Y0090536D01*
X0299629Y0087467D01*
X0300396Y0088234D01*
X0300396Y0089769D01*
X0299629Y0090536D01*
X0296559Y0090536D01*
X0296559Y0092071D02*
X0295792Y0092838D01*
X0295792Y0094373D01*
X0296559Y0095140D01*
X0299629Y0092071D01*
X0300396Y0092838D01*
X0300396Y0094373D01*
X0299629Y0095140D01*
X0296559Y0095140D01*
X0297327Y0096675D02*
X0299629Y0096675D01*
X0300396Y0097442D01*
X0300396Y0099744D01*
X0297327Y0099744D01*
X0298094Y0101279D02*
X0298094Y0104348D01*
X0295792Y0104348D02*
X0300396Y0104348D01*
X0300396Y0101279D02*
X0295792Y0101279D01*
X0296559Y0092071D02*
X0299629Y0092071D01*
X0299629Y0087467D02*
X0296559Y0087467D01*
D12*
X0287427Y0211521D03*
D13*
X0289887Y0209257D03*
D14*
X0290773Y0211128D03*
X0284080Y0211128D03*
D15*
X0284080Y0213982D03*
X0290773Y0213982D03*
D16*
X0289494Y0209257D03*
D17*
X0280028Y0233258D03*
X0274328Y0233258D03*
X0196169Y0210108D03*
X0190469Y0210108D03*
X0166051Y0161919D03*
X0160351Y0161919D03*
X0111327Y0142628D03*
X0105627Y0142628D03*
X0092101Y0164036D03*
X0086401Y0164036D03*
X0103068Y0226486D03*
X0108768Y0226486D03*
D18*
X0099094Y0225870D02*
X0097626Y0225870D01*
X0097626Y0223669D01*
X0096884Y0223669D02*
X0096884Y0224769D01*
X0096517Y0225136D01*
X0095416Y0225136D01*
X0095416Y0223669D01*
X0094674Y0224035D02*
X0094674Y0225503D01*
X0093206Y0224035D01*
X0093573Y0223669D01*
X0094307Y0223669D01*
X0094674Y0224035D01*
X0093206Y0224035D02*
X0093206Y0225503D01*
X0093573Y0225870D01*
X0094307Y0225870D01*
X0094674Y0225503D01*
X0092464Y0225503D02*
X0090996Y0224035D01*
X0091363Y0223669D01*
X0092097Y0223669D01*
X0092464Y0224035D01*
X0092464Y0225503D01*
X0092097Y0225870D01*
X0091363Y0225870D01*
X0090996Y0225503D01*
X0090996Y0224035D01*
X0090255Y0223669D02*
X0088787Y0223669D01*
X0089521Y0223669D02*
X0089521Y0225870D01*
X0088787Y0225136D01*
X0093511Y0228406D02*
X0093878Y0228039D01*
X0094612Y0228039D01*
X0094979Y0228406D01*
X0095721Y0228406D02*
X0096088Y0228039D01*
X0096822Y0228039D01*
X0097189Y0228406D01*
X0097189Y0228773D01*
X0096822Y0229140D01*
X0096088Y0229140D01*
X0095721Y0229506D01*
X0095721Y0229873D01*
X0096088Y0230240D01*
X0096822Y0230240D01*
X0097189Y0229873D01*
X0097189Y0229506D01*
X0096822Y0229140D01*
X0096088Y0229140D02*
X0095721Y0228773D01*
X0095721Y0228406D01*
X0094979Y0229873D02*
X0094612Y0230240D01*
X0093878Y0230240D01*
X0093511Y0229873D01*
X0093511Y0228406D01*
X0097626Y0224769D02*
X0098360Y0224769D01*
X0079489Y0166817D02*
X0078388Y0165716D01*
X0079856Y0165716D01*
X0079489Y0164615D02*
X0079489Y0166817D01*
X0077646Y0166450D02*
X0077279Y0166817D01*
X0076545Y0166817D01*
X0076178Y0166450D01*
X0076178Y0164982D01*
X0076545Y0164615D01*
X0077279Y0164615D01*
X0077646Y0164982D01*
X0078388Y0163313D02*
X0079856Y0163313D01*
X0079122Y0162212D02*
X0078388Y0162212D01*
X0077646Y0162212D02*
X0077646Y0161111D01*
X0078388Y0161111D02*
X0078388Y0163313D01*
X0077646Y0162212D02*
X0077279Y0162579D01*
X0076178Y0162579D01*
X0076178Y0161111D01*
X0075436Y0161478D02*
X0075069Y0161111D01*
X0074335Y0161111D01*
X0073968Y0161478D01*
X0075436Y0162946D01*
X0075436Y0161478D01*
X0075436Y0162946D02*
X0075069Y0163313D01*
X0074335Y0163313D01*
X0073968Y0162946D01*
X0073968Y0161478D01*
X0073226Y0161478D02*
X0072859Y0161111D01*
X0072125Y0161111D01*
X0071758Y0161478D01*
X0073226Y0162946D01*
X0073226Y0161478D01*
X0071758Y0161478D02*
X0071758Y0162946D01*
X0072125Y0163313D01*
X0072859Y0163313D01*
X0073226Y0162946D01*
X0071016Y0161111D02*
X0069548Y0161111D01*
X0070282Y0161111D02*
X0070282Y0163313D01*
X0069548Y0162579D01*
X0103550Y0149165D02*
X0103550Y0147697D01*
X0103917Y0147330D01*
X0104651Y0147330D01*
X0105018Y0147697D01*
X0105760Y0147697D02*
X0105760Y0147330D01*
X0105760Y0147697D02*
X0107228Y0149165D01*
X0107228Y0149532D01*
X0105760Y0149532D01*
X0105018Y0149165D02*
X0104651Y0149532D01*
X0103917Y0149532D01*
X0103550Y0149165D01*
X0104159Y0138075D02*
X0104893Y0138075D01*
X0105260Y0137708D01*
X0103792Y0136240D01*
X0104159Y0135873D01*
X0104893Y0135873D01*
X0105260Y0136240D01*
X0105260Y0137708D01*
X0106002Y0137708D02*
X0106369Y0138075D01*
X0107103Y0138075D01*
X0107470Y0137708D01*
X0106002Y0136240D01*
X0106369Y0135873D01*
X0107103Y0135873D01*
X0107470Y0136240D01*
X0107470Y0137708D01*
X0108212Y0137341D02*
X0109312Y0137341D01*
X0109679Y0136974D01*
X0109679Y0135873D01*
X0110421Y0135873D02*
X0110421Y0138075D01*
X0111889Y0138075D01*
X0111155Y0136974D02*
X0110421Y0136974D01*
X0108212Y0137341D02*
X0108212Y0135873D01*
X0106002Y0136240D02*
X0106002Y0137708D01*
X0104159Y0138075D02*
X0103792Y0137708D01*
X0103792Y0136240D01*
X0103050Y0135873D02*
X0101582Y0135873D01*
X0102316Y0135873D02*
X0102316Y0138075D01*
X0101582Y0137341D01*
X0171661Y0159495D02*
X0173129Y0159495D01*
X0172395Y0159495D02*
X0172395Y0161697D01*
X0171661Y0160963D01*
X0172028Y0163078D02*
X0172762Y0163078D01*
X0173129Y0163445D01*
X0173871Y0163445D02*
X0174237Y0163078D01*
X0174971Y0163078D01*
X0175338Y0163445D01*
X0175338Y0164179D01*
X0174971Y0164546D01*
X0174604Y0164546D01*
X0173871Y0164179D01*
X0173871Y0165280D01*
X0175338Y0165280D01*
X0173129Y0164913D02*
X0172762Y0165280D01*
X0172028Y0165280D01*
X0171661Y0164913D01*
X0171661Y0163445D01*
X0172028Y0163078D01*
X0173871Y0161330D02*
X0174237Y0161697D01*
X0174971Y0161697D01*
X0175338Y0161330D01*
X0173871Y0159862D01*
X0174237Y0159495D01*
X0174971Y0159495D01*
X0175338Y0159862D01*
X0175338Y0161330D01*
X0176080Y0161330D02*
X0176447Y0161697D01*
X0177181Y0161697D01*
X0177548Y0161330D01*
X0176080Y0159862D01*
X0176447Y0159495D01*
X0177181Y0159495D01*
X0177548Y0159862D01*
X0177548Y0161330D01*
X0178290Y0160963D02*
X0179391Y0160963D01*
X0179758Y0160596D01*
X0179758Y0159495D01*
X0180500Y0159495D02*
X0180500Y0161697D01*
X0181968Y0161697D01*
X0181234Y0160596D02*
X0180500Y0160596D01*
X0178290Y0160963D02*
X0178290Y0159495D01*
X0176080Y0159862D02*
X0176080Y0161330D01*
X0173871Y0161330D02*
X0173871Y0159862D01*
X0201779Y0207291D02*
X0203247Y0207291D01*
X0202513Y0207291D02*
X0202513Y0209492D01*
X0201779Y0208758D01*
X0203989Y0209125D02*
X0204356Y0209492D01*
X0205090Y0209492D01*
X0205457Y0209125D01*
X0203989Y0207658D01*
X0204356Y0207291D01*
X0205090Y0207291D01*
X0205457Y0207658D01*
X0205457Y0209125D01*
X0206198Y0209125D02*
X0206565Y0209492D01*
X0207299Y0209492D01*
X0207666Y0209125D01*
X0206198Y0207658D01*
X0206565Y0207291D01*
X0207299Y0207291D01*
X0207666Y0207658D01*
X0207666Y0209125D01*
X0208408Y0208758D02*
X0209509Y0208758D01*
X0209876Y0208391D01*
X0209876Y0207291D01*
X0210618Y0207291D02*
X0210618Y0209492D01*
X0212086Y0209492D01*
X0211352Y0208391D02*
X0210618Y0208391D01*
X0208408Y0208758D02*
X0208408Y0207291D01*
X0206198Y0207658D02*
X0206198Y0209125D01*
X0203989Y0209125D02*
X0203989Y0207658D01*
X0204356Y0211267D02*
X0205090Y0211267D01*
X0205457Y0211634D01*
X0205457Y0212001D01*
X0205090Y0212368D01*
X0203989Y0212368D01*
X0203989Y0211634D01*
X0204356Y0211267D01*
X0203989Y0212368D02*
X0204723Y0213102D01*
X0205457Y0213469D01*
X0203247Y0213102D02*
X0202880Y0213469D01*
X0202146Y0213469D01*
X0201779Y0213102D01*
X0201779Y0211634D01*
X0202146Y0211267D01*
X0202880Y0211267D01*
X0203247Y0211634D01*
X0245135Y0240762D02*
X0245135Y0243097D01*
X0247003Y0243097D02*
X0247003Y0240762D01*
X0246536Y0240294D01*
X0245602Y0240294D01*
X0245135Y0240762D01*
X0247897Y0240762D02*
X0248364Y0240294D01*
X0249299Y0240294D01*
X0249766Y0240762D01*
X0249766Y0241229D01*
X0249299Y0241696D01*
X0248364Y0241696D01*
X0247897Y0242163D01*
X0247897Y0242630D01*
X0248364Y0243097D01*
X0249299Y0243097D01*
X0249766Y0242630D01*
X0250660Y0243097D02*
X0252061Y0243097D01*
X0252528Y0242630D01*
X0252528Y0242163D01*
X0252061Y0241696D01*
X0250660Y0241696D01*
X0252061Y0241696D02*
X0252528Y0241229D01*
X0252528Y0240762D01*
X0252061Y0240294D01*
X0250660Y0240294D01*
X0250660Y0243097D01*
X0253422Y0241696D02*
X0255290Y0241696D01*
X0256184Y0243097D02*
X0257119Y0242163D01*
X0258053Y0243097D01*
X0258053Y0240294D01*
X0258947Y0240294D02*
X0259881Y0240294D01*
X0259414Y0240294D02*
X0259414Y0243097D01*
X0258947Y0243097D02*
X0259881Y0243097D01*
X0260788Y0242630D02*
X0260788Y0240762D01*
X0261255Y0240294D01*
X0262190Y0240294D01*
X0262657Y0240762D01*
X0263551Y0241229D02*
X0264952Y0241229D01*
X0265419Y0241696D01*
X0265419Y0242630D01*
X0264952Y0243097D01*
X0263551Y0243097D01*
X0263551Y0240294D01*
X0264485Y0241229D02*
X0265419Y0240294D01*
X0266313Y0240762D02*
X0266780Y0240294D01*
X0267714Y0240294D01*
X0268181Y0240762D01*
X0268181Y0242630D01*
X0267714Y0243097D01*
X0266780Y0243097D01*
X0266313Y0242630D01*
X0266313Y0240762D01*
X0269075Y0240294D02*
X0269075Y0243097D01*
X0270477Y0243097D01*
X0270944Y0242630D01*
X0270944Y0242163D01*
X0270477Y0241696D01*
X0269075Y0241696D01*
X0269075Y0240294D02*
X0270477Y0240294D01*
X0270944Y0240762D01*
X0270944Y0241229D01*
X0270477Y0241696D01*
X0262657Y0242630D02*
X0262190Y0243097D01*
X0261255Y0243097D01*
X0260788Y0242630D01*
X0256184Y0243097D02*
X0256184Y0240294D01*
X0239310Y0256141D02*
X0237442Y0256141D01*
X0236547Y0256141D02*
X0234679Y0258943D01*
X0236547Y0258943D02*
X0234679Y0256141D01*
X0237442Y0258009D02*
X0238376Y0258943D01*
X0238376Y0256141D01*
X0274150Y0224376D02*
X0275251Y0224376D01*
X0275618Y0224009D01*
X0275618Y0223275D01*
X0275251Y0222908D01*
X0274150Y0222908D01*
X0274150Y0222174D02*
X0274150Y0224376D01*
X0274884Y0222908D02*
X0275618Y0222174D01*
X0276360Y0222174D02*
X0277828Y0222174D01*
X0277094Y0222174D02*
X0277094Y0224376D01*
X0276360Y0223642D01*
X0276727Y0220085D02*
X0277461Y0220085D01*
X0277828Y0219718D01*
X0276360Y0218250D01*
X0276727Y0217883D01*
X0277461Y0217883D01*
X0277828Y0218250D01*
X0277828Y0219718D01*
X0276727Y0220085D02*
X0276360Y0219718D01*
X0276360Y0218250D01*
X0275618Y0219718D02*
X0274150Y0218250D01*
X0274150Y0217883D01*
X0273041Y0217883D02*
X0273041Y0220085D01*
X0271940Y0218984D01*
X0273408Y0218984D01*
X0274150Y0220085D02*
X0275618Y0220085D01*
X0275618Y0219718D01*
X0286031Y0230453D02*
X0286398Y0230086D01*
X0287132Y0230086D01*
X0287499Y0230453D01*
X0288241Y0230086D02*
X0289709Y0230086D01*
X0288975Y0230086D02*
X0288975Y0232288D01*
X0288241Y0231554D01*
X0287499Y0231921D02*
X0287132Y0232288D01*
X0286398Y0232288D01*
X0286031Y0231921D01*
X0286031Y0230453D01*
X0286031Y0233983D02*
X0287499Y0233983D01*
X0286765Y0233983D02*
X0286765Y0236185D01*
X0286031Y0235451D01*
X0288241Y0235818D02*
X0288608Y0236185D01*
X0289342Y0236185D01*
X0289709Y0235818D01*
X0288241Y0234350D01*
X0288608Y0233983D01*
X0289342Y0233983D01*
X0289709Y0234350D01*
X0289709Y0235818D01*
X0290450Y0235451D02*
X0290450Y0234350D01*
X0290817Y0233983D01*
X0291918Y0233983D01*
X0291918Y0235451D01*
X0292660Y0235084D02*
X0293394Y0235084D01*
X0292660Y0233983D02*
X0292660Y0236185D01*
X0294128Y0236185D01*
X0288241Y0235818D02*
X0288241Y0234350D01*
X0284602Y0183821D02*
X0284602Y0181619D01*
X0283868Y0181619D02*
X0285336Y0181619D01*
X0283868Y0183087D02*
X0284602Y0183821D01*
D19*
X0251762Y0174345D03*
X0251762Y0168645D03*
D20*
X0252991Y0177562D02*
X0252023Y0178530D01*
X0254926Y0178530D01*
X0254926Y0179497D02*
X0254926Y0177562D01*
X0254442Y0180509D02*
X0252507Y0182444D01*
X0254442Y0182444D01*
X0254926Y0181960D01*
X0254926Y0180993D01*
X0254442Y0180509D01*
X0252507Y0180509D01*
X0252023Y0180993D01*
X0252023Y0181960D01*
X0252507Y0182444D01*
X0252991Y0183455D02*
X0254442Y0183455D01*
X0254926Y0183939D01*
X0254926Y0185390D01*
X0252991Y0185390D01*
X0253474Y0186402D02*
X0253474Y0187369D01*
X0252023Y0186402D02*
X0252023Y0188337D01*
X0252023Y0186402D02*
X0254926Y0186402D01*
X0251146Y0184321D02*
X0251146Y0182386D01*
X0249211Y0184321D01*
X0248727Y0184321D01*
X0248244Y0183837D01*
X0248244Y0182870D01*
X0248727Y0182386D01*
X0248727Y0181375D02*
X0248244Y0180891D01*
X0248244Y0179923D01*
X0248727Y0179440D01*
X0250662Y0179440D01*
X0251146Y0179923D01*
X0251146Y0180891D01*
X0250662Y0181375D01*
X0267102Y0184322D02*
X0267102Y0186257D01*
X0267102Y0187268D02*
X0267102Y0188719D01*
X0267586Y0189203D01*
X0268069Y0189203D01*
X0268553Y0188719D01*
X0268553Y0187268D01*
X0270004Y0187268D02*
X0267102Y0187268D01*
X0268553Y0188719D02*
X0269037Y0189203D01*
X0269521Y0189203D01*
X0270004Y0188719D01*
X0270004Y0187268D01*
X0271748Y0187516D02*
X0274650Y0187516D01*
X0271748Y0185581D01*
X0274650Y0185581D01*
X0276708Y0185621D02*
X0279611Y0187556D01*
X0276708Y0187556D01*
X0277192Y0188567D02*
X0279127Y0188567D01*
X0279611Y0189051D01*
X0279611Y0190018D01*
X0279127Y0190502D01*
X0277192Y0190502D02*
X0276708Y0190018D01*
X0276708Y0189051D01*
X0277192Y0188567D01*
X0274650Y0189012D02*
X0274650Y0189979D01*
X0274166Y0190463D01*
X0274650Y0189012D02*
X0274166Y0188528D01*
X0272231Y0188528D01*
X0271748Y0189012D01*
X0271748Y0189979D01*
X0272231Y0190463D01*
X0268553Y0185289D02*
X0268553Y0184322D01*
X0270004Y0184322D02*
X0267102Y0184322D01*
X0276708Y0185621D02*
X0279611Y0185621D01*
X0281708Y0185581D02*
X0284611Y0187516D01*
X0281708Y0187516D01*
X0282192Y0188528D02*
X0281708Y0189012D01*
X0281708Y0189979D01*
X0282192Y0190463D01*
X0284127Y0190463D02*
X0284611Y0189979D01*
X0284611Y0189012D01*
X0284127Y0188528D01*
X0282192Y0188528D01*
X0281708Y0185581D02*
X0284611Y0185581D01*
X0281790Y0169956D02*
X0280339Y0168505D01*
X0282274Y0168505D01*
X0281790Y0167054D02*
X0281790Y0169956D01*
X0279327Y0169473D02*
X0279327Y0167538D01*
X0278844Y0167054D01*
X0277876Y0167054D01*
X0277392Y0167538D01*
X0276381Y0167538D02*
X0275897Y0167054D01*
X0274930Y0167054D01*
X0274446Y0167538D01*
X0274446Y0168505D02*
X0275413Y0168989D01*
X0275897Y0168989D01*
X0276381Y0168505D01*
X0276381Y0167538D01*
X0277392Y0168989D02*
X0277876Y0168505D01*
X0279327Y0168505D01*
X0279327Y0169473D02*
X0278844Y0169956D01*
X0277876Y0169956D01*
X0277392Y0169473D01*
X0277392Y0168989D01*
X0276381Y0169956D02*
X0274446Y0169956D01*
X0274446Y0168505D01*
X0273434Y0168989D02*
X0273434Y0169473D01*
X0272951Y0169956D01*
X0271983Y0169956D01*
X0271499Y0169473D01*
X0270488Y0169956D02*
X0270488Y0167054D01*
X0271499Y0167054D02*
X0273434Y0168989D01*
X0273434Y0167054D02*
X0271499Y0167054D01*
X0269520Y0168989D02*
X0268553Y0169956D01*
X0268553Y0167054D01*
X0267541Y0167054D02*
X0265606Y0167054D01*
X0265606Y0169956D01*
X0269520Y0168989D02*
X0270488Y0169956D01*
X0268514Y0151541D02*
X0268514Y0150573D01*
X0268514Y0149576D02*
X0268514Y0148609D01*
X0268514Y0147597D02*
X0268030Y0147113D01*
X0268030Y0146146D01*
X0268514Y0145662D01*
X0269481Y0145662D01*
X0269965Y0146146D01*
X0269965Y0147113D01*
X0269481Y0147597D01*
X0268514Y0147597D01*
X0267546Y0149092D02*
X0267062Y0149576D01*
X0267546Y0149092D02*
X0269965Y0149092D01*
X0269965Y0151057D02*
X0267546Y0151057D01*
X0267062Y0151541D01*
X0272259Y0151408D02*
X0275162Y0151408D01*
X0275162Y0149957D01*
X0274678Y0149473D01*
X0273711Y0149473D01*
X0273227Y0149957D01*
X0273227Y0151408D01*
X0273711Y0148461D02*
X0275162Y0148461D01*
X0276579Y0148583D02*
X0277062Y0148583D01*
X0278030Y0148583D02*
X0279965Y0148583D01*
X0279965Y0149066D02*
X0279965Y0148099D01*
X0278997Y0147087D02*
X0277062Y0147087D01*
X0278030Y0148099D02*
X0278030Y0148583D01*
X0278030Y0150063D02*
X0278030Y0151515D01*
X0278514Y0151998D01*
X0279965Y0151998D01*
X0279965Y0150063D02*
X0278030Y0150063D01*
X0278997Y0147087D02*
X0279965Y0146120D01*
X0278997Y0145152D01*
X0277062Y0145152D01*
X0276129Y0145031D02*
X0275646Y0145515D01*
X0273227Y0145515D01*
X0273227Y0144063D01*
X0273711Y0143580D01*
X0274678Y0143580D01*
X0275162Y0144063D01*
X0275162Y0145515D01*
X0275162Y0146526D02*
X0273227Y0146526D01*
X0273227Y0147977D01*
X0273711Y0148461D01*
X0276129Y0145031D02*
X0276129Y0144547D01*
X0277546Y0143173D02*
X0279481Y0143173D01*
X0278514Y0142206D02*
X0278514Y0144141D01*
X0282546Y0143357D02*
X0284481Y0143357D01*
X0284965Y0143841D01*
X0284965Y0144838D02*
X0284965Y0146289D01*
X0284481Y0146772D01*
X0283514Y0146772D01*
X0283030Y0146289D01*
X0283030Y0144838D01*
X0285932Y0144838D01*
X0283030Y0143841D02*
X0283030Y0142873D01*
X0283030Y0141862D02*
X0284965Y0141862D01*
X0284965Y0140410D01*
X0284481Y0139927D01*
X0283030Y0139927D01*
X0283514Y0138915D02*
X0283030Y0138431D01*
X0283030Y0137464D01*
X0283514Y0136980D01*
X0284481Y0136980D01*
X0284965Y0137464D01*
X0284965Y0138431D01*
X0284481Y0138915D01*
X0283514Y0138915D01*
X0283030Y0147784D02*
X0284481Y0147784D01*
X0284965Y0148268D01*
X0284965Y0149719D01*
X0283030Y0149719D01*
X0283030Y0150731D02*
X0283030Y0151698D01*
X0282546Y0151214D02*
X0284481Y0151214D01*
X0284965Y0151698D01*
X0269965Y0142716D02*
X0267062Y0144651D01*
X0268514Y0141704D02*
X0269965Y0141704D01*
X0268514Y0141704D02*
X0268030Y0141220D01*
X0268030Y0139769D01*
X0269965Y0139769D01*
X0269481Y0138758D02*
X0268514Y0138758D01*
X0268030Y0138274D01*
X0268030Y0137306D01*
X0268514Y0136823D01*
X0269481Y0136823D01*
X0269965Y0137306D01*
X0269965Y0138274D01*
X0269481Y0138758D01*
X0190319Y0169623D02*
X0190319Y0171558D01*
X0190319Y0170591D02*
X0187417Y0170591D01*
X0188384Y0169623D01*
X0187901Y0172570D02*
X0187417Y0173053D01*
X0187417Y0174021D01*
X0187901Y0174505D01*
X0189836Y0172570D01*
X0190319Y0173053D01*
X0190319Y0174021D01*
X0189836Y0174505D01*
X0187901Y0174505D01*
X0187901Y0175516D02*
X0187417Y0176000D01*
X0187417Y0176967D01*
X0187901Y0177451D01*
X0189836Y0175516D01*
X0190319Y0176000D01*
X0190319Y0176967D01*
X0189836Y0177451D01*
X0187901Y0177451D01*
X0187901Y0175516D02*
X0189836Y0175516D01*
X0189836Y0172570D02*
X0187901Y0172570D01*
X0177819Y0172570D02*
X0174917Y0172570D01*
X0177819Y0174505D01*
X0174917Y0174505D01*
X0174917Y0175516D02*
X0174917Y0177451D01*
X0175401Y0177451D01*
X0177336Y0175516D01*
X0177819Y0175516D01*
X0177819Y0171558D02*
X0176852Y0170591D01*
X0176852Y0171074D02*
X0176852Y0169623D01*
X0177819Y0169623D02*
X0174917Y0169623D01*
X0174917Y0171074D01*
X0175401Y0171558D01*
X0176368Y0171558D01*
X0176852Y0171074D01*
X0176773Y0182930D02*
X0176773Y0184381D01*
X0176289Y0184865D01*
X0175322Y0184865D01*
X0174838Y0184381D01*
X0174838Y0182930D01*
X0177741Y0182930D01*
X0176773Y0183898D02*
X0177741Y0184865D01*
X0177741Y0185877D02*
X0174838Y0185877D01*
X0177741Y0187812D01*
X0174838Y0187812D01*
X0175322Y0188823D02*
X0174838Y0189307D01*
X0174838Y0190274D01*
X0175322Y0190758D01*
X0175806Y0190758D01*
X0177741Y0188823D01*
X0177741Y0190758D01*
X0187338Y0190274D02*
X0187338Y0189307D01*
X0187822Y0188823D01*
X0189757Y0188823D01*
X0187822Y0190758D01*
X0189757Y0190758D01*
X0190241Y0190274D01*
X0190241Y0189307D01*
X0189757Y0188823D01*
X0189757Y0187812D02*
X0190241Y0187328D01*
X0190241Y0186360D01*
X0189757Y0185877D01*
X0187822Y0187812D01*
X0189757Y0187812D01*
X0187822Y0187812D02*
X0187338Y0187328D01*
X0187338Y0186360D01*
X0187822Y0185877D01*
X0189757Y0185877D01*
X0190241Y0184865D02*
X0190241Y0182930D01*
X0190241Y0183898D02*
X0187338Y0183898D01*
X0188306Y0182930D01*
X0187338Y0190274D02*
X0187822Y0190758D01*
X0158744Y0178066D02*
X0158744Y0177583D01*
X0158260Y0177099D01*
X0156809Y0177099D01*
X0155798Y0176615D02*
X0155314Y0177099D01*
X0153863Y0177099D01*
X0153863Y0176131D01*
X0154346Y0175648D01*
X0155314Y0175648D01*
X0155798Y0176131D01*
X0155798Y0176615D01*
X0156809Y0175648D02*
X0156809Y0178550D01*
X0158260Y0178550D01*
X0158744Y0178066D01*
X0158260Y0177099D02*
X0158744Y0176615D01*
X0158744Y0176131D01*
X0158260Y0175648D01*
X0156809Y0175648D01*
X0155798Y0178550D02*
X0154830Y0178066D01*
X0153863Y0177099D01*
X0152851Y0178550D02*
X0150916Y0178550D01*
X0151884Y0178550D02*
X0151884Y0175648D01*
X0149904Y0176131D02*
X0149904Y0176615D01*
X0149421Y0177099D01*
X0147970Y0177099D01*
X0147970Y0176131D01*
X0148453Y0175648D01*
X0149421Y0175648D01*
X0149904Y0176131D01*
X0147970Y0177099D02*
X0148937Y0178066D01*
X0149904Y0178550D01*
X0146958Y0178066D02*
X0146958Y0177099D01*
X0146474Y0176615D01*
X0145023Y0176615D01*
X0145023Y0175648D02*
X0145023Y0178550D01*
X0146474Y0178550D01*
X0146958Y0178066D01*
X0145990Y0176615D02*
X0146958Y0175648D01*
X0144011Y0176131D02*
X0143528Y0175648D01*
X0142560Y0175648D01*
X0142076Y0176131D01*
X0144011Y0178066D01*
X0144011Y0176131D01*
X0142076Y0176131D02*
X0142076Y0178066D01*
X0142560Y0178550D01*
X0143528Y0178550D01*
X0144011Y0178066D01*
X0141065Y0178066D02*
X0139130Y0176131D01*
X0139614Y0175648D01*
X0140581Y0175648D01*
X0141065Y0176131D01*
X0141065Y0178066D01*
X0140581Y0178550D01*
X0139614Y0178550D01*
X0139130Y0178066D01*
X0139130Y0176131D01*
X0138118Y0175648D02*
X0136183Y0175648D01*
X0137151Y0175648D02*
X0137151Y0178550D01*
X0136183Y0177583D01*
X0135172Y0178550D02*
X0133237Y0178550D01*
X0133237Y0175648D01*
X0132225Y0175648D02*
X0130290Y0175648D01*
X0132225Y0177583D01*
X0132225Y0178066D01*
X0131742Y0178550D01*
X0130774Y0178550D01*
X0130290Y0178066D01*
X0129279Y0178066D02*
X0129279Y0177583D01*
X0128795Y0177099D01*
X0129279Y0176615D01*
X0129279Y0176131D01*
X0128795Y0175648D01*
X0127828Y0175648D01*
X0127344Y0176131D01*
X0126332Y0175648D02*
X0126332Y0178550D01*
X0125365Y0177583D01*
X0124397Y0178550D01*
X0124397Y0175648D01*
X0122418Y0175648D02*
X0122418Y0178550D01*
X0121451Y0178550D02*
X0123386Y0178550D01*
X0120439Y0178066D02*
X0119956Y0178550D01*
X0118988Y0178550D01*
X0118504Y0178066D01*
X0118504Y0177583D01*
X0118988Y0177099D01*
X0119956Y0177099D01*
X0120439Y0176615D01*
X0120439Y0176131D01*
X0119956Y0175648D01*
X0118988Y0175648D01*
X0118504Y0176131D01*
X0127344Y0178066D02*
X0127828Y0178550D01*
X0128795Y0178550D01*
X0129279Y0178066D01*
X0128795Y0177099D02*
X0128311Y0177099D01*
X0133237Y0177099D02*
X0134204Y0177099D01*
X0109771Y0205423D02*
X0106635Y0208559D01*
X0109771Y0205423D01*
X0106635Y0208559D01*
X0109771Y0205423D01*
X0108203Y0205423D02*
X0108203Y0208559D01*
X0108203Y0205423D01*
X0108203Y0208559D01*
X0108203Y0205423D01*
X0106635Y0205423D02*
X0109771Y0208559D01*
X0106635Y0205423D01*
X0109771Y0208559D01*
X0106635Y0205423D01*
X0106635Y0206991D02*
X0109771Y0206991D01*
X0106635Y0206991D01*
X0109771Y0206991D01*
X0106635Y0206991D01*
X0098044Y0202157D02*
X0098044Y0200222D01*
X0098044Y0201189D02*
X0095142Y0201189D01*
X0096110Y0200222D01*
X0095142Y0199210D02*
X0098044Y0199210D01*
X0095142Y0197275D01*
X0098044Y0197275D01*
X0098044Y0196264D02*
X0097077Y0195296D01*
X0097077Y0195780D02*
X0097077Y0194329D01*
X0098044Y0194329D02*
X0095142Y0194329D01*
X0095142Y0195780D01*
X0095626Y0196264D01*
X0096593Y0196264D01*
X0097077Y0195780D01*
X0085544Y0196264D02*
X0085544Y0194329D01*
X0085544Y0195296D02*
X0082642Y0195296D01*
X0083610Y0194329D01*
X0083126Y0197275D02*
X0082642Y0197759D01*
X0082642Y0198726D01*
X0083126Y0199210D01*
X0085061Y0197275D01*
X0085544Y0197759D01*
X0085544Y0198726D01*
X0085061Y0199210D01*
X0083126Y0199210D01*
X0083126Y0200222D02*
X0082642Y0200706D01*
X0082642Y0201673D01*
X0083126Y0202157D01*
X0085061Y0200222D01*
X0085544Y0200706D01*
X0085544Y0201673D01*
X0085061Y0202157D01*
X0083126Y0202157D01*
X0083126Y0200222D02*
X0085061Y0200222D01*
X0085061Y0197275D02*
X0083126Y0197275D01*
X0079376Y0176306D02*
X0078409Y0176306D01*
X0077925Y0175822D01*
X0076913Y0175822D02*
X0076430Y0176306D01*
X0075462Y0176306D01*
X0074978Y0175822D01*
X0074978Y0173887D01*
X0075462Y0173404D01*
X0076430Y0173404D01*
X0076913Y0173887D01*
X0077925Y0173887D02*
X0078409Y0173404D01*
X0079376Y0173404D01*
X0079860Y0173887D01*
X0079860Y0174371D01*
X0079376Y0174855D01*
X0078892Y0174855D01*
X0079376Y0174855D02*
X0079860Y0175339D01*
X0079860Y0175822D01*
X0079376Y0176306D01*
X0078509Y0171975D02*
X0080444Y0171975D01*
X0079477Y0170524D02*
X0078509Y0170524D01*
X0077498Y0171008D02*
X0077498Y0169073D01*
X0076046Y0169073D01*
X0075563Y0169557D01*
X0075563Y0171008D01*
X0074551Y0169073D02*
X0072616Y0169073D01*
X0073584Y0169073D02*
X0073584Y0171975D01*
X0072616Y0171008D01*
X0078509Y0171975D02*
X0078509Y0169073D01*
X0133639Y0145606D02*
X0133639Y0142704D01*
X0133639Y0143671D02*
X0135090Y0143671D01*
X0135574Y0144155D01*
X0135574Y0145122D01*
X0135090Y0145606D01*
X0133639Y0145606D01*
X0134606Y0143671D02*
X0135574Y0142704D01*
X0136585Y0142704D02*
X0136585Y0145606D01*
X0138520Y0142704D01*
X0138520Y0145606D01*
X0139532Y0144155D02*
X0141467Y0144155D01*
X0140983Y0145606D02*
X0139532Y0144155D01*
X0140983Y0142704D02*
X0140983Y0145606D01*
X0147261Y0145606D02*
X0147261Y0142704D01*
X0147261Y0143671D02*
X0148712Y0143671D01*
X0149196Y0144155D01*
X0149196Y0145122D01*
X0148712Y0145606D01*
X0147261Y0145606D01*
X0148228Y0143671D02*
X0149196Y0142704D01*
X0150207Y0142704D02*
X0150207Y0145606D01*
X0152142Y0142704D01*
X0152142Y0145606D01*
X0153154Y0144155D02*
X0154605Y0144155D01*
X0155089Y0143671D01*
X0155089Y0143187D01*
X0154605Y0142704D01*
X0153638Y0142704D01*
X0153154Y0143187D01*
X0153154Y0144155D01*
X0154121Y0145122D01*
X0155089Y0145606D01*
X0154605Y0133106D02*
X0153638Y0133106D01*
X0153154Y0132622D01*
X0153154Y0130687D01*
X0155089Y0132622D01*
X0155089Y0130687D01*
X0154605Y0130204D01*
X0153638Y0130204D01*
X0153154Y0130687D01*
X0152142Y0130687D02*
X0151659Y0130204D01*
X0150691Y0130204D01*
X0150207Y0130687D01*
X0152142Y0132622D01*
X0152142Y0130687D01*
X0150207Y0130687D02*
X0150207Y0132622D01*
X0150691Y0133106D01*
X0151659Y0133106D01*
X0152142Y0132622D01*
X0154605Y0133106D02*
X0155089Y0132622D01*
X0149196Y0130204D02*
X0147261Y0130204D01*
X0148228Y0130204D02*
X0148228Y0133106D01*
X0147261Y0132139D01*
X0141467Y0132622D02*
X0141467Y0130687D01*
X0140983Y0130204D01*
X0140016Y0130204D01*
X0139532Y0130687D01*
X0141467Y0132622D01*
X0140983Y0133106D01*
X0140016Y0133106D01*
X0139532Y0132622D01*
X0139532Y0130687D01*
X0138520Y0130687D02*
X0138037Y0130204D01*
X0137069Y0130204D01*
X0136585Y0130687D01*
X0138520Y0132622D01*
X0138520Y0130687D01*
X0136585Y0130687D02*
X0136585Y0132622D01*
X0137069Y0133106D01*
X0138037Y0133106D01*
X0138520Y0132622D01*
X0135574Y0130204D02*
X0133639Y0130204D01*
X0134606Y0130204D02*
X0134606Y0133106D01*
X0133639Y0132139D01*
X0133619Y0225707D02*
X0133135Y0226190D01*
X0133619Y0225707D02*
X0134586Y0225707D01*
X0135070Y0226190D01*
X0135070Y0227158D01*
X0134586Y0227642D01*
X0134103Y0227642D01*
X0133135Y0227158D01*
X0133135Y0228609D01*
X0135070Y0228609D01*
X0132124Y0228609D02*
X0132124Y0225707D01*
X0130189Y0228609D01*
X0130189Y0225707D01*
X0129177Y0225707D02*
X0128210Y0226674D01*
X0128693Y0226674D02*
X0127242Y0226674D01*
X0127242Y0225707D02*
X0127242Y0228609D01*
X0128693Y0228609D01*
X0129177Y0228125D01*
X0129177Y0227158D01*
X0128693Y0226674D01*
X0140549Y0226595D02*
X0142000Y0226595D01*
X0142484Y0227079D01*
X0142484Y0228047D01*
X0142000Y0228530D01*
X0140549Y0228530D01*
X0140549Y0225628D01*
X0141517Y0226595D02*
X0142484Y0225628D01*
X0143496Y0225628D02*
X0143496Y0228530D01*
X0145431Y0225628D01*
X0145431Y0228530D01*
X0146442Y0228047D02*
X0146926Y0228530D01*
X0147893Y0228530D01*
X0148377Y0228047D01*
X0148377Y0227563D01*
X0147893Y0227079D01*
X0148377Y0226595D01*
X0148377Y0226112D01*
X0147893Y0225628D01*
X0146926Y0225628D01*
X0146442Y0226112D01*
X0147410Y0227079D02*
X0147893Y0227079D01*
X0147893Y0238128D02*
X0146926Y0238128D01*
X0146442Y0238612D01*
X0148377Y0240547D01*
X0148377Y0238612D01*
X0147893Y0238128D01*
X0146442Y0238612D02*
X0146442Y0240547D01*
X0146926Y0241030D01*
X0147893Y0241030D01*
X0148377Y0240547D01*
X0145431Y0240547D02*
X0145431Y0238612D01*
X0144947Y0238128D01*
X0143979Y0238128D01*
X0143496Y0238612D01*
X0145431Y0240547D01*
X0144947Y0241030D01*
X0143979Y0241030D01*
X0143496Y0240547D01*
X0143496Y0238612D01*
X0142484Y0238128D02*
X0140549Y0238128D01*
X0141517Y0238128D02*
X0141517Y0241030D01*
X0140549Y0240063D01*
X0135070Y0240625D02*
X0135070Y0238690D01*
X0134586Y0238207D01*
X0133619Y0238207D01*
X0133135Y0238690D01*
X0135070Y0240625D01*
X0134586Y0241109D01*
X0133619Y0241109D01*
X0133135Y0240625D01*
X0133135Y0238690D01*
X0132124Y0238690D02*
X0131640Y0238207D01*
X0130672Y0238207D01*
X0130189Y0238690D01*
X0132124Y0240625D01*
X0132124Y0238690D01*
X0130189Y0238690D02*
X0130189Y0240625D01*
X0130672Y0241109D01*
X0131640Y0241109D01*
X0132124Y0240625D01*
X0129177Y0238207D02*
X0127242Y0238207D01*
X0128210Y0238207D02*
X0128210Y0241109D01*
X0127242Y0240142D01*
D21*
X0055813Y0044769D02*
X0058313Y0042269D01*
X0063313Y0042269D01*
X0065813Y0044769D01*
X0065813Y0059769D01*
X0063313Y0062269D01*
X0058313Y0062269D01*
X0055813Y0059769D01*
X0055813Y0044769D01*
X0065813Y0044769D02*
X0068313Y0042269D01*
X0073313Y0042269D01*
X0075813Y0044769D01*
X0075813Y0059769D01*
X0078313Y0062269D01*
X0083313Y0062269D01*
X0085813Y0059769D01*
X0085813Y0044769D01*
X0083313Y0042269D01*
X0078313Y0042269D01*
X0075813Y0044769D01*
X0085813Y0044769D02*
X0088313Y0042269D01*
X0093313Y0042269D01*
X0095813Y0044769D01*
X0095813Y0059769D01*
X0098313Y0062269D01*
X0103313Y0062269D01*
X0105813Y0059769D01*
X0105813Y0044769D01*
X0103313Y0042269D01*
X0098313Y0042269D01*
X0095813Y0044769D01*
X0105813Y0044769D02*
X0108313Y0042269D01*
X0113313Y0042269D01*
X0115813Y0044769D01*
X0115813Y0059769D01*
X0118313Y0062269D01*
X0123313Y0062269D01*
X0125813Y0059769D01*
X0125813Y0044769D01*
X0123313Y0042269D01*
X0118313Y0042269D01*
X0115813Y0044769D01*
X0125813Y0044769D02*
X0128313Y0042269D01*
X0133313Y0042269D01*
X0135813Y0044769D01*
X0135813Y0059769D01*
X0138313Y0062269D01*
X0143313Y0062269D01*
X0145813Y0059769D01*
X0145813Y0044769D01*
X0143313Y0042269D01*
X0138313Y0042269D01*
X0135813Y0044769D01*
X0145813Y0044769D02*
X0148313Y0042269D01*
X0153313Y0042269D01*
X0155813Y0044769D01*
X0155813Y0059769D01*
X0158313Y0062269D01*
X0163313Y0062269D01*
X0165813Y0059769D01*
X0165813Y0044769D01*
X0163313Y0042269D01*
X0158313Y0042269D01*
X0155813Y0044769D01*
X0165813Y0044769D02*
X0168313Y0042269D01*
X0173313Y0042269D01*
X0175813Y0044769D01*
X0175813Y0059769D01*
X0178313Y0062269D01*
X0183313Y0062269D01*
X0185813Y0059769D01*
X0185813Y0044769D01*
X0183313Y0042269D01*
X0178313Y0042269D01*
X0175813Y0044769D01*
X0185813Y0044769D02*
X0188313Y0042269D01*
X0193313Y0042269D01*
X0195813Y0044769D01*
X0195813Y0059769D01*
X0193313Y0062269D01*
X0188313Y0062269D01*
X0185813Y0059769D01*
X0195813Y0059769D02*
X0198313Y0062269D01*
X0203313Y0062269D01*
X0205813Y0059769D01*
X0205813Y0044769D01*
X0203313Y0042269D01*
X0198313Y0042269D01*
X0195813Y0044769D01*
X0205813Y0044769D02*
X0208313Y0042269D01*
X0213313Y0042269D01*
X0215813Y0044769D01*
X0215813Y0059769D01*
X0213313Y0062269D01*
X0208313Y0062269D01*
X0205813Y0059769D01*
X0215813Y0059769D02*
X0218313Y0062269D01*
X0223313Y0062269D01*
X0225813Y0059769D01*
X0225813Y0044769D01*
X0223313Y0042269D01*
X0218313Y0042269D01*
X0215813Y0044769D01*
X0225813Y0044769D02*
X0228313Y0042269D01*
X0233313Y0042269D01*
X0235813Y0044769D01*
X0235813Y0059769D01*
X0233313Y0062269D01*
X0228313Y0062269D01*
X0225813Y0059769D01*
X0235813Y0059769D02*
X0238313Y0062269D01*
X0243313Y0062269D01*
X0245813Y0059769D01*
X0245813Y0044769D01*
X0243313Y0042269D01*
X0238313Y0042269D01*
X0235813Y0044769D01*
X0245813Y0044769D02*
X0248313Y0042269D01*
X0253313Y0042269D01*
X0255813Y0044769D01*
X0255813Y0059769D01*
X0253313Y0062269D01*
X0248313Y0062269D01*
X0245813Y0059769D01*
X0175813Y0059769D02*
X0173313Y0062269D01*
X0168313Y0062269D01*
X0165813Y0059769D01*
X0155813Y0059769D02*
X0153313Y0062269D01*
X0148313Y0062269D01*
X0145813Y0059769D01*
X0135813Y0059769D02*
X0133313Y0062269D01*
X0128313Y0062269D01*
X0125813Y0059769D01*
X0115813Y0059769D02*
X0113313Y0062269D01*
X0108313Y0062269D01*
X0105813Y0059769D01*
X0095813Y0059769D02*
X0093313Y0062269D01*
X0088313Y0062269D01*
X0085813Y0059769D01*
X0075813Y0059769D02*
X0073313Y0062269D01*
X0068313Y0062269D01*
X0065813Y0059769D01*
X0066226Y0117151D02*
X0063726Y0119651D01*
X0061226Y0117151D01*
X0056226Y0117151D01*
X0053726Y0119651D01*
X0053726Y0124651D01*
X0056226Y0127151D01*
X0061226Y0127151D01*
X0063726Y0124651D01*
X0066226Y0127151D01*
X0071226Y0127151D01*
X0073726Y0124651D01*
X0073726Y0119651D01*
X0071226Y0117151D01*
X0066226Y0117151D01*
X0063726Y0119651D02*
X0063726Y0124651D01*
X0073726Y0124651D02*
X0076226Y0127151D01*
X0081226Y0127151D01*
X0083726Y0124651D01*
X0086226Y0127151D01*
X0091226Y0127151D01*
X0093726Y0124651D01*
X0096226Y0127151D01*
X0101226Y0127151D01*
X0103726Y0124651D01*
X0106226Y0127151D01*
X0111226Y0127151D01*
X0113726Y0124651D01*
X0113726Y0119651D01*
X0111226Y0117151D01*
X0106226Y0117151D01*
X0103726Y0119651D01*
X0101226Y0117151D01*
X0096226Y0117151D01*
X0093726Y0119651D01*
X0091226Y0117151D01*
X0086226Y0117151D01*
X0083726Y0119651D01*
X0081226Y0117151D01*
X0076226Y0117151D01*
X0073726Y0119651D01*
X0083726Y0119651D02*
X0083726Y0124651D01*
X0093726Y0124651D02*
X0093726Y0119651D01*
X0103726Y0119651D02*
X0103726Y0124651D01*
X0127585Y0159789D02*
X0127585Y0163889D01*
X0119685Y0170089D02*
X0116585Y0170089D01*
X0116585Y0173189D01*
X0110185Y0186689D02*
X0106185Y0186789D01*
X0117985Y0205889D02*
X0120185Y0208089D01*
X0119685Y0209489D02*
X0116585Y0209489D01*
X0116585Y0206389D01*
X0129485Y0216189D02*
X0129485Y0220189D01*
X0149085Y0220389D02*
X0149085Y0216389D01*
X0152885Y0209489D02*
X0155985Y0209489D01*
X0155985Y0206389D01*
X0170950Y0224671D02*
X0168450Y0227171D01*
X0168450Y0232171D01*
X0170950Y0234671D01*
X0175950Y0234671D01*
X0178450Y0232171D01*
X0180950Y0234671D01*
X0185950Y0234671D01*
X0188450Y0232171D01*
X0190950Y0234671D01*
X0195950Y0234671D01*
X0198450Y0232171D01*
X0200950Y0234671D01*
X0205950Y0234671D01*
X0208450Y0232171D01*
X0208450Y0227171D01*
X0205950Y0224671D01*
X0200950Y0224671D01*
X0198450Y0227171D01*
X0195950Y0224671D01*
X0190950Y0224671D01*
X0188450Y0227171D01*
X0188450Y0232171D01*
X0188450Y0227171D02*
X0185950Y0224671D01*
X0180950Y0224671D01*
X0178450Y0227171D01*
X0175950Y0224671D01*
X0170950Y0224671D01*
X0178450Y0227171D02*
X0178450Y0232171D01*
X0198450Y0232171D02*
X0198450Y0227171D01*
X0166685Y0188789D02*
X0162585Y0188789D01*
X0155985Y0173189D02*
X0155985Y0170089D01*
X0152885Y0170089D01*
X0147285Y0163589D02*
X0147285Y0159489D01*
X0260135Y0131128D02*
X0260135Y0123883D01*
X0276529Y0123883D01*
X0276529Y0131128D01*
X0260135Y0131128D01*
X0262332Y0127506D02*
X0268332Y0127506D01*
X0268332Y0130006D01*
X0268332Y0127506D02*
X0268332Y0125006D01*
X0268332Y0127506D02*
X0264332Y0125006D01*
X0264332Y0130006D01*
X0268332Y0127506D01*
X0270832Y0127506D01*
X0285773Y0218706D02*
X0289002Y0218706D01*
X0289002Y0223706D02*
X0285773Y0223706D01*
D22*
X0283332Y0127506D02*
X0278250Y0127506D01*
X0258513Y0127506D02*
X0253332Y0127506D01*
D23*
X0254313Y0134256D02*
X0253563Y0135006D01*
X0253563Y0135757D01*
X0254313Y0136507D01*
X0255815Y0136507D01*
X0256565Y0135757D01*
X0256565Y0135006D01*
X0255815Y0134256D01*
X0254313Y0134256D01*
X0254313Y0136507D02*
X0253563Y0137258D01*
X0253563Y0138009D01*
X0254313Y0138759D01*
X0255815Y0138759D01*
X0256565Y0138009D01*
X0256565Y0137258D01*
X0255815Y0136507D01*
X0258167Y0137258D02*
X0259668Y0138759D01*
X0259668Y0134256D01*
X0258167Y0134256D02*
X0261169Y0134256D01*
X0262770Y0135006D02*
X0263521Y0134256D01*
X0265022Y0134256D01*
X0265773Y0135006D01*
X0265773Y0138009D01*
X0265022Y0138759D01*
X0263521Y0138759D01*
X0262770Y0138009D01*
X0262770Y0137258D01*
X0263521Y0136507D01*
X0265773Y0136507D01*
X0267374Y0136507D02*
X0270377Y0136507D01*
X0271978Y0138759D02*
X0274981Y0138759D01*
X0273480Y0138759D02*
X0273480Y0134256D01*
X0274230Y0120759D02*
X0272729Y0120759D01*
X0271978Y0120009D01*
X0270377Y0120009D02*
X0270377Y0117006D01*
X0269626Y0116256D01*
X0267374Y0116256D01*
X0267374Y0120759D01*
X0269626Y0120759D01*
X0270377Y0120009D01*
X0274230Y0120759D02*
X0274981Y0120009D01*
X0274981Y0119258D01*
X0271978Y0116256D01*
X0274981Y0116256D01*
X0271679Y0097663D02*
X0271682Y0097943D01*
X0271693Y0098223D01*
X0271710Y0098503D01*
X0271734Y0098782D01*
X0271765Y0099061D01*
X0271803Y0099338D01*
X0271847Y0099615D01*
X0271898Y0099890D01*
X0271956Y0100164D01*
X0272021Y0100437D01*
X0272093Y0100708D01*
X0272171Y0100977D01*
X0272255Y0101244D01*
X0272346Y0101509D01*
X0272444Y0101772D01*
X0272548Y0102032D01*
X0272658Y0102290D01*
X0272775Y0102544D01*
X0272898Y0102796D01*
X0273027Y0103045D01*
X0273162Y0103290D01*
X0273303Y0103533D01*
X0273450Y0103771D01*
X0273603Y0104006D01*
X0273762Y0104237D01*
X0273926Y0104464D01*
X0274095Y0104687D01*
X0274271Y0104906D01*
X0274451Y0105120D01*
X0274637Y0105330D01*
X0274827Y0105535D01*
X0275023Y0105736D01*
X0275224Y0105932D01*
X0275429Y0106122D01*
X0275639Y0106308D01*
X0275853Y0106488D01*
X0276072Y0106664D01*
X0276295Y0106833D01*
X0276522Y0106997D01*
X0276753Y0107156D01*
X0276988Y0107309D01*
X0277226Y0107456D01*
X0277469Y0107597D01*
X0277714Y0107732D01*
X0277963Y0107861D01*
X0278215Y0107984D01*
X0278469Y0108101D01*
X0278727Y0108211D01*
X0278987Y0108315D01*
X0279250Y0108413D01*
X0279515Y0108504D01*
X0279782Y0108588D01*
X0280051Y0108666D01*
X0280322Y0108738D01*
X0280595Y0108803D01*
X0280869Y0108861D01*
X0281144Y0108912D01*
X0281421Y0108956D01*
X0281698Y0108994D01*
X0281977Y0109025D01*
X0282256Y0109049D01*
X0282536Y0109066D01*
X0282816Y0109077D01*
X0283096Y0109080D01*
X0283376Y0109077D01*
X0283656Y0109066D01*
X0283936Y0109049D01*
X0284215Y0109025D01*
X0284494Y0108994D01*
X0284771Y0108956D01*
X0285048Y0108912D01*
X0285323Y0108861D01*
X0285597Y0108803D01*
X0285870Y0108738D01*
X0286141Y0108666D01*
X0286410Y0108588D01*
X0286677Y0108504D01*
X0286942Y0108413D01*
X0287205Y0108315D01*
X0287465Y0108211D01*
X0287723Y0108101D01*
X0287977Y0107984D01*
X0288229Y0107861D01*
X0288478Y0107732D01*
X0288723Y0107597D01*
X0288966Y0107456D01*
X0289204Y0107309D01*
X0289439Y0107156D01*
X0289670Y0106997D01*
X0289897Y0106833D01*
X0290120Y0106664D01*
X0290339Y0106488D01*
X0290553Y0106308D01*
X0290763Y0106122D01*
X0290968Y0105932D01*
X0291169Y0105736D01*
X0291365Y0105535D01*
X0291555Y0105330D01*
X0291741Y0105120D01*
X0291921Y0104906D01*
X0292097Y0104687D01*
X0292266Y0104464D01*
X0292430Y0104237D01*
X0292589Y0104006D01*
X0292742Y0103771D01*
X0292889Y0103533D01*
X0293030Y0103290D01*
X0293165Y0103045D01*
X0293294Y0102796D01*
X0293417Y0102544D01*
X0293534Y0102290D01*
X0293644Y0102032D01*
X0293748Y0101772D01*
X0293846Y0101509D01*
X0293937Y0101244D01*
X0294021Y0100977D01*
X0294099Y0100708D01*
X0294171Y0100437D01*
X0294236Y0100164D01*
X0294294Y0099890D01*
X0294345Y0099615D01*
X0294389Y0099338D01*
X0294427Y0099061D01*
X0294458Y0098782D01*
X0294482Y0098503D01*
X0294499Y0098223D01*
X0294510Y0097943D01*
X0294513Y0097663D01*
X0294510Y0097383D01*
X0294499Y0097103D01*
X0294482Y0096823D01*
X0294458Y0096544D01*
X0294427Y0096265D01*
X0294389Y0095988D01*
X0294345Y0095711D01*
X0294294Y0095436D01*
X0294236Y0095162D01*
X0294171Y0094889D01*
X0294099Y0094618D01*
X0294021Y0094349D01*
X0293937Y0094082D01*
X0293846Y0093817D01*
X0293748Y0093554D01*
X0293644Y0093294D01*
X0293534Y0093036D01*
X0293417Y0092782D01*
X0293294Y0092530D01*
X0293165Y0092281D01*
X0293030Y0092036D01*
X0292889Y0091793D01*
X0292742Y0091555D01*
X0292589Y0091320D01*
X0292430Y0091089D01*
X0292266Y0090862D01*
X0292097Y0090639D01*
X0291921Y0090420D01*
X0291741Y0090206D01*
X0291555Y0089996D01*
X0291365Y0089791D01*
X0291169Y0089590D01*
X0290968Y0089394D01*
X0290763Y0089204D01*
X0290553Y0089018D01*
X0290339Y0088838D01*
X0290120Y0088662D01*
X0289897Y0088493D01*
X0289670Y0088329D01*
X0289439Y0088170D01*
X0289204Y0088017D01*
X0288966Y0087870D01*
X0288723Y0087729D01*
X0288478Y0087594D01*
X0288229Y0087465D01*
X0287977Y0087342D01*
X0287723Y0087225D01*
X0287465Y0087115D01*
X0287205Y0087011D01*
X0286942Y0086913D01*
X0286677Y0086822D01*
X0286410Y0086738D01*
X0286141Y0086660D01*
X0285870Y0086588D01*
X0285597Y0086523D01*
X0285323Y0086465D01*
X0285048Y0086414D01*
X0284771Y0086370D01*
X0284494Y0086332D01*
X0284215Y0086301D01*
X0283936Y0086277D01*
X0283656Y0086260D01*
X0283376Y0086249D01*
X0283096Y0086246D01*
X0282816Y0086249D01*
X0282536Y0086260D01*
X0282256Y0086277D01*
X0281977Y0086301D01*
X0281698Y0086332D01*
X0281421Y0086370D01*
X0281144Y0086414D01*
X0280869Y0086465D01*
X0280595Y0086523D01*
X0280322Y0086588D01*
X0280051Y0086660D01*
X0279782Y0086738D01*
X0279515Y0086822D01*
X0279250Y0086913D01*
X0278987Y0087011D01*
X0278727Y0087115D01*
X0278469Y0087225D01*
X0278215Y0087342D01*
X0277963Y0087465D01*
X0277714Y0087594D01*
X0277469Y0087729D01*
X0277226Y0087870D01*
X0276988Y0088017D01*
X0276753Y0088170D01*
X0276522Y0088329D01*
X0276295Y0088493D01*
X0276072Y0088662D01*
X0275853Y0088838D01*
X0275639Y0089018D01*
X0275429Y0089204D01*
X0275224Y0089394D01*
X0275023Y0089590D01*
X0274827Y0089791D01*
X0274637Y0089996D01*
X0274451Y0090206D01*
X0274271Y0090420D01*
X0274095Y0090639D01*
X0273926Y0090862D01*
X0273762Y0091089D01*
X0273603Y0091320D01*
X0273450Y0091555D01*
X0273303Y0091793D01*
X0273162Y0092036D01*
X0273027Y0092281D01*
X0272898Y0092530D01*
X0272775Y0092782D01*
X0272658Y0093036D01*
X0272548Y0093294D01*
X0272444Y0093554D01*
X0272346Y0093817D01*
X0272255Y0094082D01*
X0272171Y0094349D01*
X0272093Y0094618D01*
X0272021Y0094889D01*
X0271956Y0095162D01*
X0271898Y0095436D01*
X0271847Y0095711D01*
X0271803Y0095988D01*
X0271765Y0096265D01*
X0271734Y0096544D01*
X0271710Y0096823D01*
X0271693Y0097103D01*
X0271682Y0097383D01*
X0271679Y0097663D01*
X0251211Y0134256D02*
X0249709Y0134256D01*
X0248959Y0135006D01*
X0248959Y0136507D02*
X0250460Y0137258D01*
X0251211Y0137258D01*
X0251961Y0136507D01*
X0251961Y0135006D01*
X0251211Y0134256D01*
X0248959Y0136507D02*
X0248959Y0138759D01*
X0251961Y0138759D01*
X0247357Y0138759D02*
X0247357Y0134256D01*
X0244355Y0138759D01*
X0244355Y0134256D01*
X0242753Y0134256D02*
X0239751Y0134256D01*
X0241252Y0134256D02*
X0241252Y0138759D01*
X0239751Y0137258D01*
X0265852Y0160852D02*
X0265852Y0176600D01*
X0285537Y0176600D01*
X0285537Y0160852D01*
X0265852Y0160852D01*
X0207399Y0218472D02*
X0206648Y0217721D01*
X0205147Y0217721D01*
X0204396Y0218472D01*
X0202795Y0217721D02*
X0199793Y0222225D01*
X0202795Y0222225D02*
X0199793Y0217721D01*
X0204396Y0221474D02*
X0205147Y0222225D01*
X0206648Y0222225D01*
X0207399Y0221474D01*
X0207399Y0220723D01*
X0206648Y0219973D01*
X0207399Y0219222D01*
X0207399Y0218472D01*
X0206648Y0219973D02*
X0205898Y0219973D01*
X0247309Y0251364D02*
X0247309Y0268293D01*
X0274080Y0268293D01*
X0274080Y0251364D01*
X0269356Y0251364D01*
X0269356Y0256876D01*
X0252033Y0256876D01*
X0252033Y0251364D01*
X0247309Y0251364D01*
X0247309Y0268293D02*
X0247309Y0271049D01*
X0248883Y0271049D01*
X0248883Y0272820D01*
X0248884Y0272821D02*
X0248895Y0272880D01*
X0248910Y0272938D01*
X0248929Y0272995D01*
X0248951Y0273051D01*
X0248977Y0273105D01*
X0249007Y0273157D01*
X0249040Y0273208D01*
X0249075Y0273256D01*
X0249114Y0273302D01*
X0249156Y0273345D01*
X0249200Y0273386D01*
X0249247Y0273423D01*
X0249297Y0273458D01*
X0249348Y0273489D01*
X0249401Y0273517D01*
X0249456Y0273541D01*
X0249513Y0273562D01*
X0249570Y0273579D01*
X0249629Y0273593D01*
X0249688Y0273602D01*
X0249748Y0273608D01*
X0249808Y0273610D01*
X0249868Y0273608D01*
X0271718Y0273608D01*
X0271777Y0273597D01*
X0271835Y0273582D01*
X0271892Y0273563D01*
X0271948Y0273541D01*
X0272002Y0273515D01*
X0272054Y0273485D01*
X0272105Y0273452D01*
X0272153Y0273417D01*
X0272199Y0273378D01*
X0272242Y0273336D01*
X0272283Y0273292D01*
X0272320Y0273245D01*
X0272355Y0273195D01*
X0272386Y0273144D01*
X0272414Y0273091D01*
X0272438Y0273036D01*
X0272459Y0272979D01*
X0272476Y0272922D01*
X0272490Y0272863D01*
X0272499Y0272804D01*
X0272505Y0272744D01*
X0272507Y0272684D01*
X0272505Y0272624D01*
X0272506Y0272624D02*
X0272506Y0271049D01*
X0274080Y0271049D01*
X0274080Y0268293D01*
X0095301Y0175616D02*
X0095301Y0169317D01*
X0091364Y0169317D01*
X0090576Y0169317D01*
X0090183Y0169317D01*
X0089789Y0169317D01*
X0089395Y0169317D01*
X0092151Y0169317D01*
X0092151Y0175616D01*
X0089395Y0175616D01*
X0089395Y0169317D01*
X0080340Y0169317D01*
X0080340Y0175616D01*
X0089395Y0175616D01*
X0089789Y0175616D01*
X0090576Y0175616D01*
X0091364Y0175616D01*
X0095301Y0175616D01*
X0092151Y0175227D02*
X0089395Y0175227D01*
X0089395Y0174729D02*
X0092151Y0174729D01*
X0092151Y0174230D02*
X0089395Y0174230D01*
X0089395Y0173732D02*
X0092151Y0173732D01*
X0092151Y0173233D02*
X0089395Y0173233D01*
X0089395Y0172735D02*
X0092151Y0172735D01*
X0092151Y0172236D02*
X0089395Y0172236D01*
X0089395Y0171738D02*
X0092151Y0171738D01*
X0092151Y0171239D02*
X0089395Y0171239D01*
X0089395Y0170741D02*
X0092151Y0170741D01*
X0092151Y0170242D02*
X0089395Y0170242D01*
X0089395Y0169744D02*
X0092151Y0169744D01*
X0246855Y0039523D02*
X0249857Y0035019D01*
X0251459Y0037271D02*
X0254461Y0037271D01*
X0253711Y0035019D02*
X0253711Y0039523D01*
X0251459Y0037271D01*
X0249857Y0039523D02*
X0246855Y0035019D01*
D24*
X0273832Y0127565D03*
D25*
X0277779Y0127506D03*
X0258885Y0127506D03*
D26*
X0159885Y0174489D02*
X0159885Y0175589D01*
X0155985Y0175589D01*
X0155985Y0174489D01*
X0159885Y0174489D01*
X0159885Y0176489D02*
X0155985Y0176489D01*
X0155985Y0203089D01*
X0159885Y0203089D01*
X0159885Y0202089D01*
X0155985Y0202089D01*
X0155985Y0203089D01*
X0155985Y0203989D01*
X0159885Y0203989D01*
X0159885Y0205089D01*
X0155985Y0205089D01*
X0155985Y0203989D01*
X0155985Y0205089D02*
X0155985Y0209489D01*
X0151585Y0209489D01*
X0151585Y0213389D01*
X0150485Y0213389D01*
X0150485Y0209489D01*
X0121585Y0209489D01*
X0116585Y0204489D01*
X0116585Y0205089D01*
X0116585Y0174489D01*
X0112685Y0174489D01*
X0112685Y0175589D01*
X0116585Y0175589D01*
X0116585Y0174489D01*
X0116585Y0170089D01*
X0120985Y0170089D01*
X0120985Y0166189D01*
X0122085Y0166189D01*
X0122085Y0170089D01*
X0120985Y0170089D01*
X0122085Y0170089D02*
X0122985Y0170089D01*
X0122985Y0166189D01*
X0123985Y0166189D01*
X0123985Y0170089D01*
X0148585Y0170089D01*
X0148585Y0166189D01*
X0149585Y0166189D01*
X0149585Y0170089D01*
X0148585Y0170089D01*
X0147685Y0170089D01*
X0147685Y0166189D01*
X0146585Y0166189D01*
X0146585Y0170089D01*
X0147685Y0170089D01*
X0146585Y0170089D02*
X0145685Y0170089D01*
X0145685Y0166189D01*
X0144585Y0166189D01*
X0144585Y0170089D01*
X0145685Y0170089D01*
X0144585Y0170089D02*
X0143685Y0170089D01*
X0143685Y0166189D01*
X0142685Y0166189D01*
X0142685Y0170089D01*
X0143685Y0170089D01*
X0142685Y0170089D02*
X0141785Y0170089D01*
X0141785Y0166189D01*
X0140685Y0166189D01*
X0140685Y0170089D01*
X0141785Y0170089D01*
X0140685Y0170089D02*
X0139785Y0170089D01*
X0139785Y0166189D01*
X0138685Y0166189D01*
X0138685Y0170089D01*
X0139785Y0170089D01*
X0138685Y0170089D02*
X0137785Y0170089D01*
X0137785Y0166189D01*
X0136785Y0166189D01*
X0136785Y0170089D01*
X0137785Y0170089D01*
X0136785Y0170089D02*
X0135785Y0170089D01*
X0135785Y0166189D01*
X0134785Y0166189D01*
X0134785Y0170089D01*
X0135785Y0170089D01*
X0134785Y0170089D02*
X0133885Y0170089D01*
X0133885Y0166189D01*
X0132785Y0166189D01*
X0132785Y0170089D01*
X0133885Y0170089D01*
X0132785Y0170089D02*
X0131885Y0170089D01*
X0131885Y0166189D01*
X0130785Y0166189D01*
X0130785Y0170089D01*
X0131885Y0170089D01*
X0130785Y0170089D02*
X0129885Y0170089D01*
X0129885Y0166189D01*
X0128885Y0166189D01*
X0128885Y0170089D01*
X0129885Y0170089D01*
X0128885Y0170089D02*
X0127985Y0170089D01*
X0127985Y0166189D01*
X0126885Y0166189D01*
X0126885Y0170089D01*
X0127985Y0170089D01*
X0126885Y0170089D02*
X0125985Y0170089D01*
X0125985Y0166189D01*
X0124885Y0166189D01*
X0124885Y0170089D01*
X0125985Y0170089D01*
X0124885Y0170089D02*
X0123985Y0170089D01*
X0122985Y0170089D01*
X0116585Y0175589D02*
X0116585Y0176489D01*
X0112685Y0176489D01*
X0112685Y0177489D01*
X0116585Y0177489D01*
X0116585Y0176489D01*
X0116585Y0177489D02*
X0116585Y0178389D01*
X0112685Y0178389D01*
X0112685Y0179489D01*
X0116585Y0179489D01*
X0116585Y0178389D01*
X0116585Y0179489D02*
X0116585Y0180389D01*
X0112685Y0180389D01*
X0112685Y0181489D01*
X0116585Y0181489D01*
X0116585Y0180389D01*
X0116585Y0181489D02*
X0116585Y0182389D01*
X0112685Y0182389D01*
X0112685Y0183389D01*
X0116585Y0183389D01*
X0116585Y0182389D01*
X0116585Y0183389D02*
X0116585Y0184289D01*
X0112685Y0184289D01*
X0112685Y0185389D01*
X0116585Y0185389D01*
X0116585Y0184289D01*
X0116585Y0185389D02*
X0116585Y0186289D01*
X0112685Y0186289D01*
X0112685Y0187389D01*
X0116585Y0187389D01*
X0116585Y0186289D01*
X0116585Y0187389D02*
X0116585Y0188289D01*
X0112685Y0188289D01*
X0112685Y0189289D01*
X0116585Y0189289D01*
X0116585Y0188289D01*
X0116585Y0189289D02*
X0116585Y0190289D01*
X0112685Y0190289D01*
X0112685Y0191289D01*
X0116585Y0191289D01*
X0116585Y0190289D01*
X0116585Y0191289D02*
X0116585Y0192189D01*
X0112685Y0192189D01*
X0112685Y0193289D01*
X0116585Y0193289D01*
X0116585Y0192189D01*
X0116585Y0193289D02*
X0116585Y0194189D01*
X0112685Y0194189D01*
X0112685Y0195289D01*
X0116585Y0195289D01*
X0116585Y0194189D01*
X0116585Y0195289D02*
X0116585Y0196189D01*
X0112685Y0196189D01*
X0112685Y0197189D01*
X0116585Y0197189D01*
X0116585Y0196189D01*
X0116585Y0197189D02*
X0116585Y0198089D01*
X0112685Y0198089D01*
X0112685Y0199189D01*
X0116585Y0199189D01*
X0116585Y0198089D01*
X0116585Y0199189D02*
X0116585Y0200089D01*
X0112685Y0200089D01*
X0112685Y0201189D01*
X0116585Y0201189D01*
X0116585Y0200089D01*
X0116585Y0201189D02*
X0116585Y0202089D01*
X0112685Y0202089D01*
X0112685Y0203089D01*
X0116585Y0203089D01*
X0116585Y0202089D01*
X0116585Y0203089D02*
X0116585Y0203989D01*
X0112685Y0203989D01*
X0112685Y0205089D01*
X0116585Y0205089D01*
X0116585Y0209489D01*
X0120985Y0209489D01*
X0120985Y0213389D01*
X0122085Y0213389D01*
X0122085Y0209489D01*
X0121585Y0209489D01*
X0120985Y0209489D01*
X0122085Y0209489D02*
X0122985Y0209489D01*
X0122985Y0213389D01*
X0123985Y0213389D01*
X0123985Y0209489D01*
X0122985Y0209489D01*
X0123985Y0209489D02*
X0124885Y0209489D01*
X0124885Y0213389D01*
X0125985Y0213389D01*
X0125985Y0209489D01*
X0124885Y0209489D01*
X0125985Y0209489D02*
X0126885Y0209489D01*
X0126885Y0213389D01*
X0127985Y0213389D01*
X0127985Y0209489D01*
X0126885Y0209489D01*
X0127985Y0209489D02*
X0128885Y0209489D01*
X0128885Y0213389D01*
X0129885Y0213389D01*
X0129885Y0209489D01*
X0128885Y0209489D01*
X0129885Y0209489D02*
X0130785Y0209489D01*
X0130785Y0213389D01*
X0131885Y0213389D01*
X0131885Y0209489D01*
X0130785Y0209489D01*
X0131885Y0209489D02*
X0132785Y0209489D01*
X0132785Y0213389D01*
X0133885Y0213389D01*
X0133885Y0209489D01*
X0132785Y0209489D01*
X0133885Y0209489D02*
X0134785Y0209489D01*
X0134785Y0213389D01*
X0135785Y0213389D01*
X0135785Y0209489D01*
X0134785Y0209489D01*
X0135785Y0209489D02*
X0136785Y0209489D01*
X0136785Y0213389D01*
X0137785Y0213389D01*
X0137785Y0209489D01*
X0136785Y0209489D01*
X0137785Y0209489D02*
X0138685Y0209489D01*
X0138685Y0213389D01*
X0139785Y0213389D01*
X0139785Y0209489D01*
X0138685Y0209489D01*
X0139785Y0209489D02*
X0140685Y0209489D01*
X0140685Y0213389D01*
X0141785Y0213389D01*
X0141785Y0209489D01*
X0140685Y0209489D01*
X0141785Y0209489D02*
X0142685Y0209489D01*
X0142685Y0213389D01*
X0143685Y0213389D01*
X0143685Y0209489D01*
X0142685Y0209489D01*
X0143685Y0209489D02*
X0144585Y0209489D01*
X0144585Y0213389D01*
X0145685Y0213389D01*
X0145685Y0209489D01*
X0144585Y0209489D01*
X0145685Y0209489D02*
X0146585Y0209489D01*
X0146585Y0213389D01*
X0147685Y0213389D01*
X0147685Y0209489D01*
X0146585Y0209489D01*
X0147685Y0209489D02*
X0148585Y0209489D01*
X0148585Y0213389D01*
X0149585Y0213389D01*
X0149585Y0209489D01*
X0148585Y0209489D01*
X0149585Y0209489D02*
X0150485Y0209489D01*
X0151585Y0209489D01*
X0155985Y0202089D02*
X0155985Y0201189D01*
X0159885Y0201189D01*
X0159885Y0200089D01*
X0155985Y0200089D01*
X0155985Y0201189D01*
X0155985Y0200089D02*
X0155985Y0199189D01*
X0159885Y0199189D01*
X0159885Y0198089D01*
X0155985Y0198089D01*
X0155985Y0199189D01*
X0155985Y0198089D02*
X0155985Y0197189D01*
X0159885Y0197189D01*
X0159885Y0196189D01*
X0155985Y0196189D01*
X0155985Y0197189D01*
X0155985Y0196189D02*
X0155985Y0195289D01*
X0159885Y0195289D01*
X0159885Y0194189D01*
X0155985Y0194189D01*
X0155985Y0195289D01*
X0155985Y0194189D02*
X0155985Y0193289D01*
X0159885Y0193289D01*
X0159885Y0192189D01*
X0155985Y0192189D01*
X0155985Y0193289D01*
X0155985Y0192189D02*
X0155985Y0191289D01*
X0159885Y0191289D01*
X0159885Y0190289D01*
X0155985Y0190289D01*
X0155985Y0191289D01*
X0155985Y0190289D02*
X0155985Y0189289D01*
X0159885Y0189289D01*
X0159885Y0188289D01*
X0155985Y0188289D01*
X0155985Y0189289D01*
X0155985Y0188289D02*
X0155985Y0187389D01*
X0159885Y0187389D01*
X0159885Y0186289D01*
X0155985Y0186289D01*
X0155985Y0187389D01*
X0155985Y0186289D02*
X0155985Y0185389D01*
X0159885Y0185389D01*
X0159885Y0184289D01*
X0155985Y0184289D01*
X0155985Y0185389D01*
X0155985Y0184289D02*
X0155985Y0183389D01*
X0159885Y0183389D01*
X0159885Y0182389D01*
X0155985Y0182389D01*
X0155985Y0183389D01*
X0155985Y0182389D02*
X0155985Y0181489D01*
X0159885Y0181489D01*
X0159885Y0180389D01*
X0155985Y0180389D01*
X0155985Y0181489D01*
X0155985Y0180389D02*
X0155985Y0179489D01*
X0159885Y0179489D01*
X0159885Y0178389D01*
X0155985Y0178389D01*
X0155985Y0179489D01*
X0155985Y0178389D02*
X0155985Y0177489D01*
X0159885Y0177489D01*
X0159885Y0176489D01*
X0155985Y0176489D02*
X0155985Y0175589D01*
X0155985Y0176489D02*
X0155985Y0177489D01*
X0155985Y0174489D02*
X0155985Y0170089D01*
X0151585Y0170089D01*
X0151585Y0166189D01*
X0150485Y0166189D01*
X0150485Y0170089D01*
X0151585Y0170089D01*
X0150485Y0170089D02*
X0149585Y0170089D01*
X0116585Y0203989D02*
X0116585Y0204489D01*
D27*
X0284508Y0221200D03*
X0290308Y0221200D03*
D28*
X0274080Y0251364D02*
X0269356Y0251364D01*
X0269356Y0256876D01*
X0252033Y0256876D01*
X0252033Y0251364D01*
X0247309Y0251364D01*
X0247309Y0257663D01*
X0247309Y0268293D02*
X0274080Y0268293D01*
X0274080Y0271049D02*
X0276443Y0273411D01*
X0274080Y0257663D02*
X0274080Y0251364D01*
X0247309Y0271049D02*
X0244946Y0273411D01*
D29*
X0203450Y0229671D03*
X0193450Y0229671D03*
X0183450Y0229671D03*
X0173450Y0229671D03*
X0108726Y0122151D03*
X0098726Y0122151D03*
X0088726Y0122151D03*
X0078726Y0122151D03*
X0068726Y0122151D03*
X0058726Y0122151D03*
X0060813Y0057269D03*
X0070813Y0057269D03*
X0080813Y0057269D03*
X0090813Y0057269D03*
X0100813Y0057269D03*
X0110813Y0057269D03*
X0120813Y0057269D03*
X0130813Y0057269D03*
X0140813Y0057269D03*
X0140813Y0047269D03*
X0130813Y0047269D03*
X0120813Y0047269D03*
X0110813Y0047269D03*
X0100813Y0047269D03*
X0090813Y0047269D03*
X0080813Y0047269D03*
X0070813Y0047269D03*
X0060813Y0047269D03*
X0150813Y0047269D03*
X0160813Y0047269D03*
X0170813Y0047269D03*
X0180813Y0047269D03*
X0190813Y0047269D03*
X0200813Y0047269D03*
X0210813Y0047269D03*
X0220813Y0047269D03*
X0230813Y0047269D03*
X0240813Y0047269D03*
X0250813Y0047269D03*
X0250813Y0057269D03*
X0240813Y0057269D03*
X0230813Y0057269D03*
X0220813Y0057269D03*
X0210813Y0057269D03*
X0200813Y0057269D03*
X0190813Y0057269D03*
X0180813Y0057269D03*
X0170813Y0057269D03*
X0160813Y0057269D03*
X0150813Y0057269D03*
M02*
